<?xml version="1.0" encoding="UTF-8" standalone="no"?>
<svg
   version="1.0"
   width="327.66776pt"
   height="328.14825pt"
   viewBox="0 0 327.66776 328.14825"
   preserveAspectRatio="xMidYMid meet"
   id="svg12"
   xmlns="http://www.w3.org/2000/svg"
   xmlns:svg="http://www.w3.org/2000/svg">
  <defs
     id="defs16" />
  <metadata
     id="metadata2">
Created by potrace 1.16, written by Peter Selinger 2001-2019
</metadata>
  <g
     transform="matrix(0.1,0,0,-0.1,-25.74901,354.28122)"
     fill="#000000"
     stroke="none"
     id="g10">
    <path
       d="M 1775,3539 C 1196,3501 660,3132 410,2598 325,2416 274,2215 261,2017 233,1567 373,1151 664,817 896,553 1222,364 1575,290 c 130,-27 377,-37 511,-21 718,88 1282,611 1426,1323 20,97 23,142 22,318 0,173 -4,221 -23,310 -177,829 -894,1374 -1736,1319 z m 400,-90 c 144,-24 272,-66 420,-138 161,-79 277,-163 416,-301 222,-221 360,-477 431,-797 18,-83 22,-130 22,-308 0,-181 -3,-224 -22,-312 C 3304,958 2842,496 2207,358 c -88,-19 -131,-22 -312,-22 -231,1 -314,13 -498,74 -468,157 -844,538 -997,1010 -93,285 -97,629 -13,920 108,373 366,709 698,909 328,198 698,266 1090,200 z"
       id="path4" />
    <path
       d="m 2172,2284 c -91,-47 -142,-162 -142,-323 0,-114 15,-174 62,-242 96,-142 251,-106 320,73 26,68 34,196 18,281 -31,165 -153,265 -258,211 z m 99,-24 c 57,-31 89,-198 72,-379 -13,-133 -36,-192 -83,-211 -63,-26 -109,25 -131,146 -13,70 -6,289 12,352 22,79 79,119 130,92 z"
       id="path6" />
    <path
       d="m 1347,2053 c 21,-21 48,-81 103,-226 40,-108 78,-196 84,-194 6,2 37,63 70,135 32,72 62,130 65,127 3,-2 29,-62 56,-134 28,-72 55,-131 61,-131 6,0 46,92 89,205 59,156 84,210 104,225 l 26,19 h -75 c -62,0 -70,-2 -47,-11 15,-5 27,-17 27,-26 0,-21 -93,-272 -101,-272 -9,0 -99,233 -99,257 0,14 10,28 28,37 25,14 21,15 -78,15 -65,0 -97,-3 -85,-9 27,-10 40,-27 60,-76 l 16,-42 -43,-96 c -24,-52 -46,-96 -49,-96 -9,0 -99,252 -99,278 0,14 8,26 23,32 15,6 -5,9 -72,9 l -93,1 z"
       id="path8" />
  </g>
</svg>
