<?xml version="1.0" encoding="UTF-8" standalone="no"?>
<svg
   version="1.0"
   width="853.51978pt"
   height="482.36172pt"
   viewBox="0 0 853.51978 482.36172"
   preserveAspectRatio="xMidYMid meet"
   id="svg18"
   xmlns="http://www.w3.org/2000/svg"
   xmlns:svg="http://www.w3.org/2000/svg">
  <defs
     id="defs22" />
  <metadata
     id="metadata2">
Created by potrace 1.16, written by Peter Selinger 2001-2019
</metadata>
  <g
     transform="matrix(0.1,0,0,-0.1,-25.780241,507.49265)"
     fill="#000000"
     stroke="none"
     id="g16">
    <path
       d="m 1771,5069 c -428,-53 -728,-352 -831,-829 -56,-258 -49,-595 18,-880 16,-68 20,-75 42,-74 l 24,1 -24,-16 C 883,3194 697,3026 609,2915 266,2485 165,1882 347,1356 600,623 1338,166 2107,265 c 626,82 1150,512 1348,1108 43,129 71,267 81,395 l 7,92 h 638 639 v 35 35 h -638 -638 l -11,123 c -29,293 -138,580 -315,819 -74,102 -249,277 -340,341 l -67,48 33,57 c 54,92 448,776 454,787 3,6 -8,-2 -24,-16 -16,-15 -112,-102 -214,-194 -210,-191 -199,-190 -181,-23 11,99 8,108 -36,108 -19,0 -22,-7 -28,-67 -4,-38 -10,-95 -14,-128 l -6,-60 -170,232 c -93,127 -171,231 -172,229 -1,-1 62,-197 142,-436 80,-239 143,-435 142,-436 -2,-2 -42,17 -89,42 -391,202 -860,237 -1281,93 -51,-17 -144,-57 -209,-89 l -116,-59 -16,72 c -49,227 -68,492 -47,677 35,307 134,542 301,709 138,140 296,215 500,241 173,22 383,-11 527,-83 280,-141 471,-463 509,-855 6,-69 8,-73 28,-68 11,3 27,6 35,6 18,0 8,96 -25,248 -29,128 -57,209 -113,320 -130,255 -354,431 -621,486 -99,20 -257,27 -349,15 z m 399,-1625 c 551,-94 1031,-503 1214,-1033 67,-191 80,-279 80,-516 0,-179 -3,-225 -22,-311 C 3304,949 2836,484 2200,349 2046,316 1762,316 1603,348 1178,434 819,674 583,1032 281,1490 242,2079 480,2575 c 236,490 697,817 1250,885 102,12 324,4 440,-16 z"
       id="path4" />
    <path
       d="m 2172,2284 c -91,-47 -142,-162 -142,-323 0,-114 15,-174 62,-242 96,-142 251,-106 320,73 26,68 34,196 18,281 -31,165 -153,265 -258,211 z m 99,-24 c 57,-31 89,-198 72,-379 -13,-133 -36,-192 -83,-211 -63,-26 -109,25 -131,146 -13,70 -6,289 12,352 22,79 79,119 130,92 z"
       id="path6" />
    <path
       d="m 1347,2053 c 21,-21 48,-81 103,-226 40,-108 78,-196 84,-194 6,2 37,63 70,135 32,72 62,130 65,127 3,-2 29,-62 56,-134 28,-72 55,-131 61,-131 6,0 46,92 89,205 59,156 84,210 104,225 l 26,19 h -75 c -62,0 -70,-2 -47,-11 15,-5 27,-17 27,-26 0,-21 -93,-272 -101,-272 -9,0 -99,233 -99,257 0,14 10,28 28,37 25,14 21,15 -78,15 -65,0 -97,-3 -85,-9 27,-10 40,-27 60,-76 l 16,-42 -43,-96 c -24,-52 -46,-96 -49,-96 -9,0 -99,252 -99,278 0,14 8,26 23,32 15,6 -5,9 -72,9 l -93,1 z"
       id="path8" />
    <path
       d="m 7021,5069 c -215,-26 -396,-114 -537,-261 -136,-141 -223,-303 -279,-517 -64,-248 -61,-634 6,-924 21,-87 21,-89 48,-82 18,4 10,-5 -29,-31 -288,-194 -522,-502 -634,-835 -41,-123 -62,-225 -79,-370 l -12,-105 -419,188 c -230,104 -420,188 -421,186 -1,-2 94,-90 212,-196 l 214,-192 h -126 -125 v -35 -34 l 124,-3 124,-3 -210,-189 c -115,-103 -207,-190 -205,-192 2,-2 182,77 401,176 219,99 406,182 416,185 15,5 18,-4 24,-67 4,-40 14,-112 22,-160 84,-499 414,-944 872,-1176 434,-221 936,-240 1383,-53 466,195 832,620 953,1106 38,153 49,246 49,410 0,359 -98,663 -313,966 -78,110 -240,275 -338,344 -39,28 -71,53 -72,57 0,3 108,192 239,420 131,227 237,415 235,417 -3,3 -259,-226 -377,-338 l -48,-46 8,80 c 4,44 8,103 8,130 0,49 -1,50 -30,50 h -30 l -12,-113 c -6,-62 -13,-117 -15,-122 -2,-5 -77,92 -168,216 -90,124 -168,228 -172,230 -3,2 58,-190 138,-428 79,-238 144,-436 144,-439 0,-4 -48,17 -107,47 -261,131 -572,191 -856,166 -232,-21 -440,-81 -634,-182 -51,-27 -95,-45 -97,-42 -4,7 -38,179 -51,255 -16,99 -23,311 -14,431 34,454 217,778 523,926 260,126 616,113 859,-31 138,-82 273,-239 346,-402 57,-127 83,-231 117,-465 4,-25 9,-32 20,-28 9,3 24,6 34,6 15,0 17,6 13,43 -64,565 -334,918 -774,1012 -89,19 -257,26 -348,14 z m 287,-1609 c 479,-51 897,-304 1159,-702 378,-575 341,-1318 -95,-1859 -140,-174 -361,-346 -561,-436 -97,-44 -252,-93 -366,-115 -142,-29 -421,-31 -560,-5 -346,65 -628,216 -870,468 -251,261 -403,603 -431,967 -6,82 -5,94 11,106 17,12 17,13 0,20 -16,6 -17,16 -11,104 29,422 243,836 570,1101 329,267 745,394 1154,351 z"
       id="path10" />
    <path
       d="m 7433,2267 c -40,-18 -73,-34 -73,-37 0,-4 16,-4 35,-2 30,4 36,1 45,-23 6,-15 10,-129 10,-269 0,-263 -1,-269 -55,-285 -21,-7 6,-9 95,-9 75,0 113,3 94,7 -17,4 -36,11 -42,15 -9,5 -12,93 -12,322 0,245 -3,314 -12,313 -7,0 -46,-15 -85,-32 z"
       id="path12" />
    <path
       d="m 6597,2053 c 21,-21 48,-81 103,-226 40,-108 78,-196 84,-194 6,2 37,63 70,135 32,72 62,130 65,127 3,-2 29,-62 56,-134 28,-72 55,-131 61,-131 6,0 46,92 89,205 59,156 84,210 104,225 l 26,19 h -75 c -62,0 -70,-2 -47,-11 15,-5 27,-17 27,-26 0,-21 -93,-272 -101,-272 -9,0 -99,233 -99,257 0,14 10,28 28,37 25,14 21,15 -78,15 -65,0 -97,-3 -85,-9 27,-10 40,-27 60,-76 l 16,-42 -43,-96 c -24,-52 -46,-96 -49,-96 -9,0 -99,252 -99,278 0,14 8,26 23,32 15,6 -5,9 -72,9 l -93,1 z"
       id="path14" />
  </g>
</svg>
