<?xml version="1.0" encoding="UTF-8" standalone="no"?>
<svg
   version="1.0"
   width="533.76459pt"
   height="1354.8722pt"
   viewBox="0 0 533.76459 1354.8722"
   preserveAspectRatio="xMidYMid meet"
   id="svg70"
   xmlns="http://www.w3.org/2000/svg"
   xmlns:svg="http://www.w3.org/2000/svg">
  <defs
     id="defs74" />
  <metadata
     id="metadata2">
Created by potrace 1.16, written by Peter Selinger 2001-2019
</metadata>
  <g
     transform="matrix(0.1,0,0,-0.1,-87.235397,1439.8722)"
     fill="#000000"
     stroke="none"
     id="g68">
    <path
       d="m 3085,14391 c -95,-25 -191,-114 -221,-204 -10,-29 -17,-82 -17,-122 0,-40 7,-93 17,-122 22,-66 93,-146 159,-179 27,-14 73,-44 100,-66 90,-70 249,-137 330,-138 35,0 15,16 -42,32 -59,18 -133,76 -160,126 -10,19 -7,23 33,41 58,25 125,93 157,156 21,43 24,64 24,155 0,90 -3,111 -23,148 -58,110 -152,173 -262,178 -36,2 -78,0 -95,-5 z m 155,-43 c 81,-41 121,-134 121,-287 1,-153 -39,-243 -126,-282 -79,-37 -159,-19 -214,47 -76,93 -92,315 -31,433 52,102 153,138 250,89 z"
       id="path4" />
    <path
       d="m 4872,14384 c -91,-47 -142,-162 -142,-323 0,-114 15,-174 62,-242 96,-142 251,-106 320,73 26,68 34,196 18,281 -31,165 -153,265 -258,211 z m 99,-24 c 57,-31 89,-198 72,-379 -13,-133 -36,-192 -83,-211 -63,-26 -109,25 -131,146 -13,70 -6,289 12,352 22,79 79,119 130,92 z"
       id="path6" />
    <path
       d="m 878,14381 c 19,-5 39,-14 45,-20 17,-17 17,-575 0,-592 -6,-6 -26,-15 -45,-19 -21,-5 17,-8 107,-8 93,0 129,3 105,8 -54,13 -60,29 -60,166 v 123 l 68,-6 c 86,-7 143,9 186,52 57,57 66,160 18,224 -10,14 -39,37 -63,51 -42,24 -53,25 -219,27 -111,1 -163,-1 -142,-6 z m 265,-32 c 44,-23 66,-53 78,-105 27,-120 -56,-208 -168,-178 -22,6 -23,10 -23,144 0,101 3,140 13,143 23,10 78,7 100,-4 z"
       id="path8" />
    <path
       d="m 5930,14195 v -115 h -115 c -108,0 -115,-1 -115,-20 0,-19 7,-20 115,-20 h 115 v -115 c 0,-108 1,-115 20,-115 19,0 20,7 20,115 v 115 h 120 c 113,0 120,1 120,20 0,19 -7,20 -120,20 h -120 v 115 c 0,108 -1,115 -20,115 -19,0 -20,-7 -20,-115 z"
       id="path10" />
    <path
       d="m 1911,14003 c -57,-131 -106,-244 -108,-250 -4,-9 7,-13 33,-13 h 39 l 84,195 c 46,108 86,193 89,190 3,-3 42,-90 87,-193 l 81,-187 37,-3 c 20,-2 37,0 37,4 0,3 -48,116 -106,250 l -106,244 h -32 -32 z"
       id="path12" />
    <path
       d="m 4047,14153 c 21,-21 48,-81 103,-226 40,-108 78,-196 84,-194 6,2 37,63 70,135 32,72 62,130 65,127 3,-2 29,-62 56,-134 28,-72 55,-131 61,-131 6,0 46,92 89,205 59,156 84,210 104,225 l 26,19 h -75 c -62,0 -70,-2 -47,-11 15,-5 27,-17 27,-26 0,-21 -93,-272 -101,-272 -9,0 -99,233 -99,257 0,14 10,28 28,37 25,14 21,15 -78,15 -65,0 -97,-3 -85,-9 27,-10 40,-27 60,-76 l 16,-42 -43,-96 c -24,-52 -46,-96 -49,-96 -9,0 -99,252 -99,278 0,14 8,26 23,32 15,6 -5,9 -72,9 l -93,1 z"
       id="path14" />
    <path
       d="m 3560,13820 c -41,-41 -8,-98 49,-85 30,6 31,5 31,-25 0,-32 -38,-79 -85,-106 -11,-7 -17,-15 -13,-19 12,-12 98,45 119,78 29,48 26,117 -7,151 -32,31 -67,33 -94,6 z"
       id="path16" />
    <path
       d="m 5230,13820 c -41,-41 -8,-98 49,-85 30,6 31,5 31,-25 0,-32 -38,-79 -85,-106 -11,-7 -17,-15 -13,-19 12,-12 98,45 119,78 29,48 26,117 -7,151 -32,31 -67,33 -94,6 z"
       id="path18" />
    <path
       d="m 3540,12165 v -815 h 35 35 v 815 815 h -35 -35 z"
       id="path20" />
    <path
       d="m 3729,11393 -114,-127 -3,37 c -3,35 -5,37 -37,37 -32,0 -34,-2 -37,-37 l -3,-36 -109,122 c -60,67 -110,120 -112,118 -2,-2 55,-135 128,-296 72,-160 135,-288 138,-284 4,4 56,116 115,248 156,347 155,345 152,345 -2,0 -55,-57 -118,-127 z"
       id="path22" />
    <path
       d="m 3882,10354 c -91,-47 -142,-162 -142,-323 0,-114 15,-174 62,-242 96,-142 251,-106 320,73 26,68 34,196 18,281 -31,165 -153,265 -258,211 z m 99,-24 c 57,-31 89,-198 72,-379 -13,-133 -36,-192 -83,-211 -63,-26 -109,25 -131,146 -13,70 -6,289 12,352 22,79 79,119 130,92 z"
       id="path24" />
    <path
       d="m 2128,10351 c 19,-5 39,-14 45,-20 17,-17 17,-575 0,-592 -6,-6 -26,-15 -45,-19 -21,-5 17,-8 107,-8 93,0 129,3 105,8 -54,13 -60,29 -60,166 v 123 l 68,-6 c 86,-7 143,9 186,52 57,57 66,160 18,224 -10,14 -39,37 -63,51 -42,24 -53,25 -219,27 -111,1 -163,-1 -142,-6 z m 265,-32 c 44,-23 66,-53 78,-105 27,-120 -56,-208 -168,-178 -22,6 -23,10 -23,144 0,101 3,140 13,143 23,10 78,7 100,-4 z"
       id="path26" />
    <path
       d="m 3057,10123 c 21,-21 48,-81 103,-226 40,-108 78,-196 84,-194 6,2 37,63 70,135 32,72 62,130 65,127 3,-2 29,-62 56,-134 28,-72 55,-131 61,-131 6,0 46,92 89,205 59,156 84,210 104,225 l 26,19 h -75 c -62,0 -70,-2 -47,-11 15,-5 27,-17 27,-26 0,-21 -93,-272 -101,-272 -9,0 -99,233 -99,257 0,14 10,28 28,37 25,14 21,15 -78,15 -65,0 -97,-3 -85,-9 27,-10 40,-27 60,-76 l 16,-42 -43,-96 c -24,-52 -46,-96 -49,-96 -9,0 -99,252 -99,278 0,14 8,26 23,32 15,6 -5,9 -72,9 l -93,1 z"
       id="path28" />
    <path
       d="m 4730,9930 v -40 h 120 120 v 40 40 h -120 -120 z"
       id="path30" />
    <path
       d="m 2570,9790 c -41,-41 -8,-98 49,-85 30,6 31,5 31,-25 0,-32 -38,-79 -85,-106 -11,-7 -17,-15 -13,-19 12,-12 98,45 119,78 29,48 26,117 -7,151 -32,31 -67,33 -94,6 z"
       id="path32" />
    <path
       d="m 4240,9790 c -41,-41 -8,-98 49,-85 30,6 31,5 31,-25 0,-32 -38,-79 -85,-106 -11,-7 -17,-15 -13,-19 12,-12 98,45 119,78 29,48 26,117 -7,151 -32,31 -67,33 -94,6 z"
       id="path34" />
    <path
       d="m 3540,8130 v -810 h 35 35 v 810 810 h -35 -35 z"
       id="path36" />
    <path
       d="m 3310,7464 c 0,-19 265,-593 270,-587 6,7 136,295 242,533 l 28,65 -42,-45 c -24,-25 -78,-83 -120,-130 l -77,-85 -1,43 c 0,41 -1,42 -34,42 -33,0 -35,-2 -38,-40 l -3,-40 -112,126 c -62,69 -113,122 -113,118 z"
       id="path38" />
    <path
       d="m 3772,6534 c -91,-47 -142,-162 -142,-323 0,-114 15,-174 62,-242 96,-142 251,-106 320,73 26,68 34,196 18,281 -31,165 -153,265 -258,211 z m 99,-24 c 57,-31 89,-198 72,-379 -13,-133 -36,-192 -83,-211 -63,-26 -109,25 -131,146 -13,70 -6,289 12,352 22,79 79,119 130,92 z"
       id="path40" />
    <path
       d="m 2028,6531 c 19,-5 39,-14 45,-20 17,-17 17,-575 0,-592 -6,-6 -26,-15 -45,-19 -21,-5 17,-8 107,-8 93,0 129,3 105,8 -54,13 -60,29 -60,166 v 123 l 68,-6 c 86,-7 143,9 186,52 57,57 66,160 18,224 -10,14 -39,37 -63,51 -42,24 -53,25 -219,27 -111,1 -163,-1 -142,-6 z m 265,-32 c 44,-23 66,-53 78,-105 27,-120 -56,-208 -168,-178 -22,6 -23,10 -23,144 0,101 3,140 13,143 23,10 78,7 100,-4 z"
       id="path42" />
    <path
       d="m 4830,6345 v -115 h -115 c -108,0 -115,-1 -115,-20 0,-19 7,-20 115,-20 h 115 v -115 c 0,-108 1,-115 20,-115 19,0 20,7 20,115 v 115 h 120 c 113,0 120,1 120,20 0,19 -7,20 -120,20 h -120 v 115 c 0,108 -1,115 -20,115 -19,0 -20,-7 -20,-115 z"
       id="path44" />
    <path
       d="m 2957,6303 c 21,-21 48,-81 103,-226 40,-108 78,-196 84,-194 6,2 37,63 70,135 32,72 62,130 65,127 3,-2 29,-62 56,-134 28,-72 55,-131 61,-131 6,0 46,92 89,205 59,156 84,210 104,225 l 26,19 h -75 c -62,0 -70,-2 -47,-11 15,-5 27,-17 27,-26 0,-21 -93,-272 -101,-272 -9,0 -99,233 -99,257 0,14 10,28 28,37 25,14 21,15 -78,15 -65,0 -97,-3 -85,-9 27,-10 40,-27 60,-76 l 16,-42 -43,-96 c -24,-52 -46,-96 -49,-96 -9,0 -99,252 -99,278 0,14 8,26 23,32 15,6 -5,9 -72,9 l -93,1 z"
       id="path46" />
    <path
       d="m 2460,5970 c -41,-41 -8,-98 49,-85 30,6 31,5 31,-25 0,-32 -38,-79 -85,-106 -11,-7 -17,-15 -13,-19 12,-12 98,45 119,78 29,48 26,117 -7,151 -32,31 -67,33 -94,6 z"
       id="path48" />
    <path
       d="m 4130,5970 c -41,-41 -8,-98 49,-85 30,6 31,5 31,-25 0,-32 -38,-79 -85,-106 -11,-7 -17,-15 -13,-19 12,-12 98,45 119,78 29,48 26,117 -7,151 -32,31 -67,33 -94,6 z"
       id="path50" />
    <path
       d="m 3553,5447 c -210,-127 -382,-235 -383,-239 0,-4 38,-19 85,-33 47,-14 123,-37 171,-51 47,-14 84,-29 82,-34 -2,-5 -77,-88 -167,-186 -90,-98 -159,-180 -153,-182 11,-3 764,467 772,482 3,6 -71,29 -163,52 -93,23 -170,44 -172,46 -3,2 69,85 160,184 155,169 176,194 158,194 -5,0 -180,-105 -390,-233 z"
       id="path52" />
    <path
       d="m 3538,3440 -3,-861 -109,121 c -59,67 -110,120 -112,117 -2,-2 56,-135 128,-295 72,-161 135,-289 138,-285 6,7 146,317 242,533 l 28,65 -77,-85 c -43,-47 -97,-105 -120,-130 l -43,-45 v 863 862 h -35 -35 z"
       id="path54" />
    <path
       d="m 2115,1681 c -95,-25 -191,-114 -221,-204 -10,-29 -17,-82 -17,-122 0,-40 7,-93 17,-122 22,-66 93,-146 159,-179 27,-14 73,-44 100,-66 90,-70 249,-137 330,-138 35,0 15,16 -42,32 -59,18 -133,76 -160,126 -10,19 -7,23 33,41 58,25 125,93 157,156 21,43 24,64 24,155 0,90 -3,111 -23,148 -58,110 -152,173 -262,178 -36,2 -78,0 -95,-5 z m 155,-43 c 81,-41 121,-134 121,-287 1,-153 -39,-243 -126,-282 -79,-37 -159,-19 -214,47 -76,93 -92,315 -31,433 52,102 153,138 250,89 z"
       id="path56" />
    <path
       d="m 3902,1674 c -91,-47 -142,-162 -142,-323 0,-114 15,-174 62,-242 96,-142 251,-106 320,73 26,68 34,196 18,281 -31,165 -153,265 -258,211 z m 99,-24 c 57,-31 89,-198 72,-379 -13,-133 -36,-192 -83,-211 -63,-26 -109,25 -131,146 -13,70 -6,289 12,352 22,79 79,119 130,92 z"
       id="path58" />
    <path
       d="m 4950,1485 v -115 h -115 c -108,0 -115,-1 -115,-20 0,-19 7,-20 115,-20 h 115 v -115 c 0,-108 1,-115 20,-115 19,0 20,7 20,115 v 115 h 120 c 113,0 120,1 120,20 0,19 -7,20 -120,20 h -120 v 115 c 0,108 -1,115 -20,115 -19,0 -20,-7 -20,-115 z"
       id="path60" />
    <path
       d="m 3077,1443 c 21,-21 48,-81 103,-226 40,-108 78,-196 84,-194 6,2 37,63 70,135 32,72 62,130 65,127 3,-2 29,-62 56,-134 28,-72 55,-131 61,-131 6,0 46,92 89,205 59,156 84,210 104,225 l 26,19 h -75 c -62,0 -70,-2 -47,-11 15,-5 27,-17 27,-26 0,-21 -93,-272 -101,-272 -9,0 -99,233 -99,257 0,14 10,28 28,37 25,14 21,15 -78,15 -65,0 -97,-3 -85,-9 27,-10 40,-27 60,-76 l 16,-42 -43,-96 c -24,-52 -46,-96 -49,-96 -9,0 -99,252 -99,278 0,14 8,26 23,32 15,6 -5,9 -72,9 l -93,1 z"
       id="path62" />
    <path
       d="m 2590,1110 c -41,-41 -8,-98 49,-85 30,6 31,5 31,-25 0,-32 -38,-79 -85,-106 -11,-7 -17,-15 -13,-19 12,-12 98,45 119,78 29,48 26,117 -7,151 -32,31 -67,33 -94,6 z"
       id="path64" />
    <path
       d="m 4250,1110 c -41,-41 -8,-98 49,-85 30,6 31,5 31,-25 0,-32 -38,-79 -85,-106 -11,-7 -17,-15 -13,-19 12,-12 98,45 119,78 29,48 26,117 -7,151 -32,31 -67,33 -94,6 z"
       id="path66" />
  </g>
</svg>
