<?xml version="1.0" encoding="UTF-8" standalone="no"?>
<svg
   version="1.0"
   width="981pt"
   height="1295.5916pt"
   viewBox="0 0 981 1295.5916"
   preserveAspectRatio="xMidYMid meet"
   id="svg214"
   xmlns="http://www.w3.org/2000/svg"
   xmlns:svg="http://www.w3.org/2000/svg">
  <defs
     id="defs218" />
  <metadata
     id="metadata2">
Created by potrace 1.16, written by Peter Selinger 2001-2019
</metadata>
  <g
     transform="matrix(0.1,0,0,-0.1,-88,1377.7641)"
     fill="#000000"
     stroke="none"
     id="g212">
    <path
       d="m 1969,13752 c -92,-59 -173,-182 -198,-300 -31,-150 10,-320 105,-430 37,-44 134,-116 143,-106 3,2 -18,28 -46,57 -66,67 -89,116 -108,223 -18,106 -19,205 -1,305 19,106 48,166 108,222 28,26 49,50 46,52 -2,3 -24,-8 -49,-23 z"
       id="path4" />
    <path
       d="m 3169,13752 c -92,-59 -173,-182 -198,-300 -31,-150 10,-320 105,-430 37,-44 134,-116 143,-106 3,2 -18,28 -46,57 -66,67 -89,116 -108,223 -18,106 -19,205 -1,305 19,106 48,166 108,222 28,26 49,50 46,52 -2,3 -24,-8 -49,-23 z"
       id="path6" />
    <path
       d="m 4309,13752 c -92,-59 -173,-182 -198,-300 -31,-150 10,-320 105,-430 37,-44 134,-116 143,-106 3,2 -18,28 -46,57 -66,67 -89,116 -108,223 -18,106 -19,205 -1,305 19,106 48,166 108,222 28,26 49,50 46,52 -2,3 -24,-8 -49,-23 z"
       id="path8" />
    <path
       d="m 7360,13775 c 0,-3 22,-28 49,-54 27,-26 58,-65 69,-87 31,-61 52,-182 52,-296 0,-183 -40,-301 -125,-375 -25,-23 -45,-44 -45,-47 0,-17 85,43 130,90 87,92 130,203 130,340 0,132 -44,247 -130,338 -44,47 -130,107 -130,91 z"
       id="path10" />
    <path
       d="m 7680,13775 c 0,-3 22,-28 49,-54 27,-26 58,-65 69,-87 31,-61 52,-182 52,-296 0,-183 -40,-301 -125,-375 -25,-23 -45,-44 -45,-47 0,-17 85,43 130,90 87,92 130,203 130,340 0,132 -44,247 -130,338 -44,47 -130,107 -130,91 z"
       id="path12" />
    <path
       d="m 7990,13775 c 0,-3 22,-28 49,-54 27,-26 58,-65 69,-87 31,-61 52,-182 52,-296 0,-183 -40,-301 -125,-375 -25,-23 -45,-44 -45,-47 0,-17 85,43 130,90 87,92 130,203 130,340 0,132 -44,247 -130,338 -44,47 -130,107 -130,91 z"
       id="path14" />
    <path
       d="m 4980,13345 v -425 h 105 c 87,0 105,3 105,15 0,12 -14,15 -70,15 h -70 v 395 395 h 70 c 56,0 70,3 70,15 0,12 -18,15 -105,15 h -105 z"
       id="path16" />
    <path
       d="m 7070,13755 c 0,-12 14,-15 65,-15 h 65 v -395 -395 h -65 c -51,0 -65,-3 -65,-15 0,-12 18,-15 100,-15 h 100 v 425 425 h -100 c -82,0 -100,-3 -100,-15 z"
       id="path18" />
    <path
       d="m 4418,13751 c 19,-5 39,-14 45,-20 9,-9 12,-94 12,-296 0,-202 -3,-287 -12,-296 -6,-6 -26,-15 -45,-19 -21,-5 17,-8 107,-8 93,0 129,3 105,8 -54,13 -60,29 -60,166 v 123 l 68,-6 c 86,-7 143,9 186,52 57,57 66,160 18,224 -10,14 -39,37 -63,51 -42,24 -53,25 -219,27 -111,1 -163,-1 -142,-6 z m 265,-32 c 44,-23 66,-53 78,-105 27,-120 -56,-208 -168,-178 -22,6 -23,10 -23,144 0,101 3,140 13,143 23,10 78,7 100,-4 z"
       id="path20" />
    <path
       d="m 10410,13565 v -115 h -115 c -108,0 -115,-1 -115,-20 0,-19 7,-20 115,-20 h 115 v -115 c 0,-108 1,-115 20,-115 19,0 20,7 20,115 v 115 h 120 c 113,0 120,1 120,20 0,19 -7,20 -120,20 h -120 v 115 c 0,108 -1,115 -20,115 -19,0 -20,-7 -20,-115 z"
       id="path22" />
    <path
       d="m 880,13630 v -40 h 115 115 v -80 -80 H 995 880 v -40 -40 h 115 115 v -80 -80 H 995 880 v -40 -40 h 155 155 v 280 280 H 1035 880 Z"
       id="path24" />
    <path
       d="m 2080,13630 v -40 h 115 115 v -80 -80 h -115 -115 v -40 -40 h 115 115 v -80 -80 h -115 -115 v -40 -40 h 155 155 v 280 280 h -155 -155 z"
       id="path26" />
    <path
       d="m 3280,13630 v -40 h 115 115 v -80 -80 h -115 -115 v -40 -40 h 115 115 v -80 -80 h -115 -115 v -40 -40 h 155 155 v 280 280 h -155 -155 z"
       id="path28" />
    <path
       d="m 1285,13536 c 37,-16 59,-41 118,-130 l 46,-69 -74,-97 c -41,-54 -81,-100 -89,-103 -37,-15 -12,-27 54,-27 68,0 91,12 50,25 -11,3 -20,15 -20,25 0,19 84,140 98,140 10,0 92,-130 92,-146 0,-7 -9,-16 -20,-19 -46,-15 -14,-25 80,-25 55,0 100,3 100,8 0,4 -13,14 -29,23 -27,16 -119,136 -157,205 l -17,31 52,69 c 29,38 66,77 84,87 l 32,17 h -80 c -59,-1 -75,-3 -62,-11 25,-15 21,-39 -15,-93 l -31,-48 -34,53 c -39,63 -41,77 -10,89 15,6 -12,9 -88,9 -100,0 -107,-1 -80,-13 z"
       id="path30" />
    <path
       d="m 2483,13527 c 16,-13 57,-84 103,-177 111,-227 105,-208 80,-269 -13,-29 -32,-61 -42,-72 -19,-18 -25,-19 -66,-8 -58,16 -81,2 -76,-45 4,-38 42,-62 82,-52 58,14 93,64 157,216 153,372 170,407 192,418 18,9 7,11 -53,11 -55,0 -69,-3 -52,-9 32,-13 28,-42 -21,-161 -24,-57 -47,-113 -51,-124 -6,-16 -19,3 -67,98 -67,133 -74,176 -29,188 14,4 -22,7 -80,8 l -105,1 z"
       id="path32" />
    <path
       d="m 3700,13490 c 0,-66 14,-80 24,-25 4,19 15,39 26,45 19,10 200,15 200,5 0,-3 -61,-89 -135,-190 -75,-102 -138,-192 -141,-200 -5,-13 20,-15 185,-15 180,0 191,1 191,19 0,10 3,39 6,65 8,55 -10,65 -20,11 -11,-56 -37,-66 -156,-63 l -102,3 141,191 c 78,106 141,197 141,203 0,8 -55,11 -180,11 h -180 z"
       id="path34" />
    <path
       d="m 5245,13536 c 37,-16 59,-41 118,-130 l 46,-69 -74,-97 c -41,-54 -81,-100 -89,-103 -37,-15 -12,-27 54,-27 68,0 91,12 50,25 -11,3 -20,15 -20,25 0,19 84,140 98,140 10,0 92,-130 92,-146 0,-7 -9,-16 -20,-19 -46,-15 -14,-25 80,-25 55,0 100,3 100,8 0,4 -13,14 -29,23 -27,16 -119,136 -157,205 l -17,31 52,69 c 29,38 66,77 84,87 l 32,17 h -80 c -59,-1 -75,-3 -62,-11 25,-15 21,-39 -15,-93 l -31,-48 -34,53 c -39,63 -41,77 -10,89 15,6 -12,9 -88,9 -100,0 -107,-1 -80,-13 z"
       id="path36" />
    <path
       d="m 5973,13527 c 16,-13 57,-84 103,-177 111,-227 105,-208 80,-269 -13,-29 -32,-61 -42,-72 -19,-18 -25,-19 -66,-8 -58,16 -81,2 -76,-45 4,-38 42,-62 82,-52 58,14 93,64 157,216 153,372 170,407 192,418 18,9 7,11 -53,11 -55,0 -69,-3 -52,-9 32,-13 28,-42 -21,-161 -24,-57 -47,-113 -51,-124 -6,-16 -19,3 -67,98 -67,133 -74,176 -29,188 14,4 -22,7 -80,8 l -105,1 z"
       id="path38" />
    <path
       d="m 6660,13490 c 0,-66 14,-80 24,-25 4,19 15,39 26,45 19,10 200,15 200,5 0,-3 -61,-89 -135,-190 -75,-102 -138,-192 -141,-200 -5,-13 20,-15 185,-15 180,0 191,1 191,19 0,10 3,39 6,65 8,55 -10,65 -20,11 -11,-56 -37,-66 -156,-63 l -102,3 141,191 c 78,106 141,197 141,203 0,8 -55,11 -180,11 h -180 z"
       id="path40" />
    <path
       d="m 8837,13523 c 21,-21 48,-81 103,-226 40,-108 78,-196 84,-194 6,2 37,63 70,135 32,72 62,130 65,127 3,-2 29,-62 56,-134 28,-72 55,-131 61,-131 6,0 46,92 89,205 59,156 84,210 104,225 l 26,19 h -75 c -62,0 -70,-2 -47,-11 15,-5 27,-17 27,-26 0,-21 -93,-272 -101,-272 -9,0 -99,233 -99,257 0,14 10,28 28,37 25,14 21,15 -78,15 -65,0 -97,-3 -85,-9 27,-10 40,-27 60,-76 l 16,-42 -43,-96 c -24,-52 -46,-96 -49,-96 -9,0 -99,252 -99,278 0,14 8,26 23,32 15,6 -5,9 -72,9 l -93,1 z"
       id="path42" />
    <path
       d="m 9534,13395 c -8,-21 2,-45 19,-45 21,0 38,25 31,44 -8,20 -43,21 -50,1 z"
       id="path44" />
    <path
       d="m 9505,13280 c 3,-5 13,-10 21,-10 11,0 14,-21 14,-113 v -113 l -27,-11 c -24,-9 -18,-11 45,-12 47,-1 71,3 67,9 -3,6 -15,10 -26,10 -18,0 -19,8 -19,125 v 125 h -41 c -24,0 -38,-4 -34,-10 z"
       id="path46" />
    <path
       d="m 5750,13190 c -41,-41 -8,-98 49,-85 30,6 31,5 31,-25 0,-32 -38,-79 -85,-106 -11,-7 -17,-15 -13,-19 12,-12 98,45 119,78 29,48 26,117 -7,151 -32,31 -67,33 -94,6 z"
       id="path48" />
    <path
       d="m 6440,13190 c -41,-41 -8,-98 49,-85 30,6 31,5 31,-25 0,-32 -38,-79 -85,-106 -11,-7 -17,-15 -13,-19 12,-12 98,45 119,78 29,48 26,117 -7,151 -32,31 -67,33 -94,6 z"
       id="path50" />
    <path
       d="m 8350,13190 c -41,-41 -8,-98 49,-85 30,6 31,5 31,-25 0,-32 -38,-79 -85,-106 -11,-7 -17,-15 -13,-19 12,-12 98,45 119,78 29,48 26,117 -7,151 -32,31 -67,33 -94,6 z"
       id="path52" />
    <path
       d="m 9710,13190 c -41,-41 -8,-98 49,-85 30,6 31,5 31,-25 0,-32 -38,-79 -85,-106 -11,-7 -17,-15 -13,-19 12,-12 98,45 119,78 29,48 26,117 -7,151 -32,31 -67,33 -94,6 z"
       id="path54" />
    <path
       d="m 5762,11538 3,-813 33,-3 32,-3 v 815 816 h -35 -35 z"
       id="path56" />
    <path
       d="m 5534,10875 c 35,-93 262,-583 268,-577 8,9 268,585 265,588 -1,1 -52,-53 -112,-121 -61,-68 -113,-124 -117,-125 -5,0 -8,16 -8,35 0,33 -2,35 -34,35 -32,0 -35,-2 -38,-35 l -3,-35 -114,128 c -63,70 -111,118 -107,107 z"
       id="path58" />
    <path
       d="m 2389,9722 c -92,-59 -173,-182 -198,-300 -31,-150 10,-320 105,-430 37,-44 134,-116 143,-106 3,2 -18,28 -46,57 -66,67 -89,116 -108,223 -18,106 -19,205 -1,305 19,106 48,166 108,222 28,26 49,50 46,52 -2,3 -24,-8 -49,-23 z"
       id="path60" />
    <path
       d="m 3529,9722 c -92,-59 -173,-182 -198,-300 -31,-150 10,-320 105,-430 37,-44 134,-116 143,-106 3,2 -18,28 -46,57 -66,67 -89,116 -108,223 -18,106 -19,205 -1,305 19,106 48,166 108,222 28,26 49,50 46,52 -2,3 -24,-8 -49,-23 z"
       id="path62" />
    <path
       d="m 7260,9745 c 0,-3 22,-28 49,-54 27,-26 58,-65 69,-87 31,-61 52,-182 52,-296 0,-183 -40,-301 -125,-375 -25,-23 -45,-44 -45,-47 0,-17 85,43 130,90 87,92 130,203 130,340 0,132 -44,247 -130,338 -44,47 -130,107 -130,91 z"
       id="path64" />
    <path
       d="m 7570,9745 c 0,-3 22,-28 49,-54 27,-26 58,-65 69,-87 31,-61 52,-182 52,-296 0,-183 -40,-301 -125,-375 -25,-23 -45,-44 -45,-47 0,-17 85,43 130,90 87,92 130,203 130,340 0,132 -44,247 -130,338 -44,47 -130,107 -130,91 z"
       id="path66" />
    <path
       d="m 4190,9315 v -425 h 105 c 87,0 105,3 105,15 0,12 -14,15 -70,15 h -70 v 395 395 h 70 c 56,0 70,3 70,15 0,12 -18,15 -105,15 h -105 z"
       id="path68" />
    <path
       d="m 6970,9725 c 0,-12 14,-15 65,-15 h 65 v -395 -395 h -65 c -51,0 -65,-3 -65,-15 0,-12 18,-15 100,-15 h 100 v 425 425 h -100 c -82,0 -100,-3 -100,-15 z"
       id="path70" />
    <path
       d="m 3638,9721 c 19,-5 39,-14 45,-20 9,-9 12,-94 12,-296 0,-202 -3,-287 -12,-296 -6,-6 -26,-15 -45,-19 -21,-5 17,-8 107,-8 93,0 129,3 105,8 -54,13 -60,29 -60,166 v 123 l 68,-6 c 86,-7 143,9 186,52 57,57 66,160 18,224 -10,14 -39,37 -63,51 -42,24 -53,25 -219,27 -111,1 -163,-1 -142,-6 z m 265,-32 c 44,-23 66,-53 78,-105 27,-120 -56,-208 -168,-178 -22,6 -23,10 -23,144 0,101 3,140 13,143 23,10 78,7 100,-4 z"
       id="path72" />
    <path
       d="m 9990,9535 v -115 h -115 c -108,0 -115,-1 -115,-20 0,-19 7,-20 115,-20 h 115 v -115 c 0,-108 1,-115 20,-115 19,0 20,7 20,115 v 115 h 120 c 113,0 120,1 120,20 0,19 -7,20 -120,20 h -120 v 115 c 0,108 -1,115 -20,115 -19,0 -20,-7 -20,-115 z"
       id="path74" />
    <path
       d="m 1300,9600 v -40 h 115 115 v -80 -80 h -115 -115 v -40 -40 h 115 115 v -80 -80 h -115 -115 v -40 -40 h 155 155 v 280 280 h -155 -155 z"
       id="path76" />
    <path
       d="m 2500,9600 v -40 h 115 115 v -80 -80 h -115 -115 v -40 -40 h 115 115 v -80 -80 h -115 -115 v -40 -40 h 155 155 v 280 280 h -155 -155 z"
       id="path78" />
    <path
       d="m 4553,9510 c -54,-24 -83,-76 -65,-115 23,-50 72,-25 72,36 0,43 27,69 70,69 38,0 60,-20 70,-65 14,-61 15,-60 -57,-90 -76,-32 -132,-64 -151,-88 -39,-47 -31,-130 16,-168 38,-29 98,-22 150,20 22,17 42,31 45,31 2,0 7,-13 10,-30 11,-52 80,-48 131,9 23,26 16,37 -14,21 -39,-21 -45,-1 -48,163 -1,86 -7,162 -14,174 -25,50 -140,68 -215,33 z m 157,-249 c 0,-74 -2,-81 -26,-100 -57,-44 -107,-39 -130,14 -16,40 -8,69 27,101 21,19 102,61 122,63 4,1 7,-35 7,-78 z"
       id="path80" />
    <path
       d="m 4946,9517 c -38,-28 -13,-97 34,-97 22,0 50,32 50,57 0,23 -29,53 -51,53 -9,0 -23,-6 -33,-13 z"
       id="path82" />
    <path
       d="m 1703,9497 c 16,-13 57,-84 103,-177 111,-227 105,-208 80,-269 -13,-29 -32,-61 -42,-72 -19,-18 -25,-19 -66,-8 -58,16 -81,2 -76,-45 4,-38 42,-62 82,-52 58,14 93,64 157,216 153,372 170,407 192,418 18,9 7,11 -53,11 -55,0 -69,-3 -52,-9 32,-13 28,-42 -21,-161 -24,-57 -47,-113 -51,-124 -6,-16 -19,3 -67,98 -67,133 -74,176 -29,188 14,4 -22,7 -80,8 l -105,1 z"
       id="path84" />
    <path
       d="m 2910,9460 c 0,-66 14,-80 24,-25 4,19 15,39 26,45 19,10 200,15 200,5 0,-3 -61,-89 -135,-190 -75,-102 -138,-192 -141,-200 -5,-13 20,-15 185,-15 180,0 191,1 191,19 0,10 3,39 6,65 8,55 -10,65 -20,11 -11,-56 -37,-66 -156,-63 l -102,3 141,191 c 78,106 141,197 141,203 0,8 -55,11 -180,11 h -180 z"
       id="path86" />
    <path
       d="m 5135,9506 c 37,-16 59,-41 118,-130 l 46,-69 -74,-97 c -41,-54 -81,-100 -89,-103 -37,-15 -12,-27 54,-27 68,0 91,12 50,25 -11,3 -20,15 -20,25 0,19 84,140 98,140 10,0 92,-130 92,-146 0,-7 -9,-16 -20,-19 -46,-15 -14,-25 80,-25 55,0 100,3 100,8 0,4 -13,14 -29,23 -27,16 -119,136 -157,205 l -17,31 52,69 c 29,38 66,77 84,87 l 32,17 h -80 c -59,-1 -75,-3 -62,-11 25,-15 21,-39 -15,-93 l -31,-48 -34,53 c -39,63 -41,77 -10,89 15,6 -12,9 -88,9 -100,0 -107,-1 -80,-13 z"
       id="path88" />
    <path
       d="m 5863,9497 c 16,-13 57,-84 103,-177 111,-227 105,-208 80,-269 -13,-29 -32,-61 -42,-72 -19,-18 -25,-19 -66,-8 -58,16 -81,2 -76,-45 4,-38 42,-62 82,-52 58,14 93,64 157,216 153,372 170,407 192,418 18,9 7,11 -53,11 -55,0 -69,-3 -52,-9 32,-13 28,-42 -21,-161 -24,-57 -47,-113 -51,-124 -6,-16 -19,3 -67,98 -67,133 -74,176 -29,188 14,4 -22,7 -80,8 l -105,1 z"
       id="path90" />
    <path
       d="m 6560,9460 c 0,-66 14,-80 24,-25 4,19 15,39 26,45 19,10 200,15 200,5 0,-3 -61,-89 -135,-190 -75,-102 -138,-192 -141,-200 -5,-13 20,-15 185,-15 180,0 191,1 191,19 0,10 3,39 6,65 8,55 -10,65 -20,11 -11,-56 -37,-66 -156,-63 l -102,3 141,191 c 78,106 141,197 141,203 0,8 -55,11 -180,11 h -180 z"
       id="path92" />
    <path
       d="m 8427,9493 c 21,-21 48,-81 103,-226 40,-108 78,-196 84,-194 6,2 37,63 70,135 32,72 62,130 65,127 3,-2 29,-62 56,-134 28,-72 55,-131 61,-131 6,0 46,92 89,205 59,156 84,210 104,225 l 26,19 h -75 c -62,0 -70,-2 -47,-11 15,-5 27,-17 27,-26 0,-21 -93,-272 -101,-272 -9,0 -99,233 -99,257 0,14 10,28 28,37 25,14 21,15 -78,15 -65,0 -97,-3 -85,-9 27,-10 40,-27 60,-76 l 16,-42 -43,-96 c -24,-52 -46,-96 -49,-96 -9,0 -99,252 -99,278 0,14 8,26 23,32 15,6 -5,9 -72,9 l -93,1 z"
       id="path94" />
    <path
       d="m 9114,9365 c -8,-21 2,-45 19,-45 21,0 38,25 31,44 -8,20 -43,21 -50,1 z"
       id="path96" />
    <path
       d="m 9085,9250 c 3,-5 13,-10 21,-10 11,0 14,-21 14,-113 v -113 l -27,-11 c -24,-9 -18,-11 45,-12 47,-1 71,3 67,9 -3,6 -15,10 -26,10 -18,0 -19,8 -19,125 v 125 h -41 c -24,0 -38,-4 -34,-10 z"
       id="path98" />
    <path
       d="m 4933,9154 c -15,-24 -15,-29 -2,-53 18,-32 54,-39 80,-15 24,22 24,56 1,77 -27,25 -59,21 -79,-9 z"
       id="path100" />
    <path
       d="m 5640,9160 c -41,-41 -8,-98 49,-85 30,6 31,5 31,-25 0,-32 -38,-79 -85,-106 -11,-7 -17,-15 -13,-19 12,-12 98,45 119,78 29,48 26,117 -7,151 -32,31 -67,33 -94,6 z"
       id="path102" />
    <path
       d="m 6340,9160 c -41,-41 -8,-98 49,-85 30,6 31,5 31,-25 0,-32 -38,-79 -85,-106 -11,-7 -17,-15 -13,-19 12,-12 98,45 119,78 29,48 26,117 -7,151 -32,31 -67,33 -94,6 z"
       id="path104" />
    <path
       d="m 7930,9160 c -41,-41 -8,-98 49,-85 30,6 31,5 31,-25 0,-32 -38,-79 -85,-106 -11,-7 -17,-15 -13,-19 12,-12 98,45 119,78 29,48 26,117 -7,151 -32,31 -67,33 -94,6 z"
       id="path106" />
    <path
       d="m 9290,9160 c -41,-41 -8,-98 49,-85 30,6 31,5 31,-25 0,-32 -38,-79 -85,-106 -11,-7 -17,-15 -13,-19 12,-12 98,45 119,78 29,48 26,117 -7,151 -32,31 -67,33 -94,6 z"
       id="path108" />
    <path
       d="m 5767,8323 c -4,-3 -7,-370 -7,-815 v -808 h 35 35 v 815 815 h -28 c -16,0 -32,-3 -35,-7 z"
       id="path110" />
    <path
       d="m 5532,6853 c 13,-46 264,-591 270,-585 6,7 223,485 255,562 12,30 4,24 -54,-40 -37,-41 -91,-100 -120,-130 l -53,-55 v 43 c 0,43 0,43 -32,40 -30,-3 -34,-7 -38,-40 l -5,-36 -75,84 c -136,152 -152,169 -148,157 z"
       id="path112" />
    <path
       d="m 5090,5708 c -56,-21 -96,-47 -52,-33 50,15 52,5 52,-301 v -284 l 40,-20 c 197,-100 391,80 329,305 -15,52 -74,111 -122,120 -51,10 -81,0 -127,-41 l -40,-36 v 156 c 0,118 -3,156 -12,155 -7,0 -38,-9 -68,-21 z m 244,-309 c 76,-66 76,-221 0,-297 -30,-30 -39,-34 -73,-29 -21,2 -50,13 -65,22 -26,17 -26,18 -26,149 0,125 1,134 23,153 47,43 94,44 141,2 z"
       id="path114" />
    <path
       d="m 2719,5692 c -92,-59 -173,-182 -198,-300 -31,-150 10,-320 105,-430 37,-44 134,-116 143,-106 3,2 -18,28 -46,57 -66,67 -89,116 -108,223 -18,106 -19,205 -1,305 19,106 48,166 108,222 28,26 49,50 46,52 -2,3 -24,-8 -49,-23 z"
       id="path116" />
    <path
       d="m 7170,5715 c 0,-3 22,-28 49,-54 27,-26 58,-65 69,-87 31,-61 52,-182 52,-296 0,-183 -40,-301 -125,-375 -25,-23 -45,-44 -45,-47 0,-17 85,43 130,90 87,92 130,203 130,340 0,132 -44,247 -130,338 -44,47 -130,107 -130,91 z"
       id="path118" />
    <path
       d="m 3380,5285 v -425 h 105 c 87,0 105,3 105,15 0,12 -14,15 -70,15 h -70 v 395 395 h 70 c 56,0 70,3 70,15 0,12 -18,15 -105,15 h -105 z"
       id="path120" />
    <path
       d="m 6880,5695 c 0,-12 14,-15 65,-15 h 65 v -395 -395 h -65 c -51,0 -65,-3 -65,-15 0,-12 18,-15 100,-15 h 100 v 425 425 h -100 c -82,0 -100,-3 -100,-15 z"
       id="path122" />
    <path
       d="m 2828,5691 c 19,-5 39,-14 45,-20 9,-9 12,-94 12,-296 0,-202 -3,-287 -12,-296 -6,-6 -26,-15 -45,-19 -21,-5 17,-8 107,-8 93,0 129,3 105,8 -54,13 -60,29 -60,166 v 123 l 68,-6 c 86,-7 143,9 186,52 57,57 66,160 18,224 -10,14 -39,37 -63,51 -42,24 -53,25 -219,27 -111,1 -163,-1 -142,-6 z m 265,-32 c 44,-23 66,-53 78,-105 27,-120 -56,-208 -168,-178 -22,6 -23,10 -23,144 0,101 3,140 13,143 23,10 78,7 100,-4 z"
       id="path124" />
    <path
       d="m 9590,5505 v -115 h -115 c -108,0 -115,-1 -115,-20 0,-19 7,-20 115,-20 h 115 v -115 c 0,-108 1,-115 20,-115 19,0 20,7 20,115 v 115 h 120 c 113,0 120,1 120,20 0,19 -7,20 -120,20 h -120 v 115 c 0,108 -1,115 -20,115 -19,0 -20,-7 -20,-115 z"
       id="path126" />
    <path
       d="m 1680,5570 v -40 h 115 115 v -80 -80 h -115 -115 v -40 -40 h 115 115 v -80 -80 h -115 -115 v -40 -40 h 155 155 v 280 280 h -155 -155 z"
       id="path128" />
    <path
       d="m 3733,5480 c -54,-24 -83,-76 -65,-115 23,-50 72,-25 72,36 0,43 27,69 70,69 38,0 60,-20 70,-65 14,-61 15,-60 -57,-90 -76,-32 -132,-64 -151,-88 -39,-47 -31,-130 16,-168 38,-29 98,-22 150,20 22,17 42,31 45,31 2,0 7,-13 10,-30 11,-52 80,-48 131,9 23,26 16,37 -14,21 -39,-21 -45,-1 -48,163 -1,86 -7,162 -14,174 -25,50 -140,68 -215,33 z m 157,-249 c 0,-74 -2,-81 -26,-100 -57,-44 -107,-39 -130,14 -16,40 -8,69 27,101 21,19 102,61 122,63 4,1 7,-35 7,-78 z"
       id="path130" />
    <path
       d="m 4136,5487 c -38,-28 -13,-97 34,-97 22,0 50,32 50,57 0,23 -29,53 -51,53 -9,0 -23,-6 -33,-13 z"
       id="path132" />
    <path
       d="m 5596,5487 c -38,-28 -13,-97 34,-97 22,0 50,32 50,57 0,23 -29,53 -51,53 -9,0 -23,-6 -33,-13 z"
       id="path134" />
    <path
       d="m 2100,5430 c 0,-66 14,-80 24,-25 4,19 15,39 26,45 19,10 200,15 200,5 0,-3 -61,-89 -135,-190 -75,-102 -138,-192 -141,-200 -5,-13 20,-15 185,-15 180,0 191,1 191,19 0,10 3,39 6,65 8,55 -10,65 -20,11 -11,-56 -37,-66 -156,-63 l -102,3 141,191 c 78,106 141,197 141,203 0,8 -55,11 -180,11 h -180 z"
       id="path136" />
    <path
       d="m 4325,5476 c 37,-16 59,-41 118,-130 l 46,-69 -74,-97 c -41,-54 -81,-100 -89,-103 -37,-15 -12,-27 54,-27 68,0 91,12 50,25 -11,3 -20,15 -20,25 0,19 84,140 98,140 10,0 92,-130 92,-146 0,-7 -9,-16 -20,-19 -46,-15 -14,-25 80,-25 55,0 100,3 100,8 0,4 -13,14 -29,23 -27,16 -119,136 -157,205 l -17,31 52,69 c 29,38 66,77 84,87 l 32,17 h -80 c -59,-1 -75,-3 -62,-11 25,-15 21,-39 -15,-93 l -31,-48 -34,53 c -39,63 -41,77 -10,89 15,6 -12,9 -88,9 -100,0 -107,-1 -80,-13 z"
       id="path138" />
    <path
       d="m 5783,5467 c 16,-13 57,-84 103,-177 111,-227 105,-208 80,-269 -13,-29 -32,-61 -42,-72 -19,-18 -25,-19 -66,-8 -58,16 -81,2 -76,-45 4,-38 42,-62 82,-52 58,14 93,64 157,216 153,372 170,407 192,418 18,9 7,11 -53,11 -55,0 -69,-3 -52,-9 32,-13 28,-42 -21,-161 -24,-57 -47,-113 -51,-124 -6,-16 -19,3 -67,98 -67,133 -74,176 -29,188 14,4 -22,7 -80,8 l -105,1 z"
       id="path140" />
    <path
       d="m 6470,5430 c 0,-66 14,-80 24,-25 4,19 15,39 26,45 19,10 200,15 200,5 0,-3 -61,-89 -135,-190 -75,-102 -138,-192 -141,-200 -5,-13 20,-15 185,-15 180,0 191,1 191,19 0,10 3,39 6,65 8,55 -10,65 -20,11 -11,-56 -37,-66 -156,-63 l -102,3 141,191 c 78,106 141,197 141,203 0,8 -55,11 -180,11 h -180 z"
       id="path142" />
    <path
       d="m 8027,5463 c 21,-21 48,-81 103,-226 40,-108 78,-196 84,-194 6,2 37,63 70,135 32,72 62,130 65,127 3,-2 29,-62 56,-134 28,-72 55,-131 61,-131 6,0 46,92 89,205 59,156 84,210 104,225 l 26,19 h -75 c -62,0 -70,-2 -47,-11 15,-5 27,-17 27,-26 0,-21 -93,-272 -101,-272 -9,0 -99,233 -99,257 0,14 10,28 28,37 25,14 21,15 -78,15 -65,0 -97,-3 -85,-9 27,-10 40,-27 60,-76 l 16,-42 -43,-96 c -24,-52 -46,-96 -49,-96 -9,0 -99,252 -99,278 0,14 8,26 23,32 15,6 -5,9 -72,9 l -93,1 z"
       id="path144" />
    <path
       d="m 8714,5335 c -8,-21 2,-45 19,-45 21,0 38,25 31,44 -8,20 -43,21 -50,1 z"
       id="path146" />
    <path
       d="m 8685,5220 c 3,-5 13,-10 21,-10 11,0 14,-21 14,-113 v -113 l -27,-11 c -24,-9 -18,-11 45,-12 47,-1 71,3 67,9 -3,6 -15,10 -26,10 -18,0 -19,8 -19,125 v 125 h -41 c -24,0 -38,-4 -34,-10 z"
       id="path148" />
    <path
       d="m 4123,5124 c -15,-24 -15,-29 -2,-53 18,-32 54,-39 80,-15 24,22 24,56 1,77 -27,25 -59,21 -79,-9 z"
       id="path150" />
    <path
       d="m 4830,5130 c -41,-41 -8,-98 49,-85 30,6 31,5 31,-25 0,-32 -38,-79 -85,-106 -11,-7 -17,-15 -13,-19 12,-12 98,45 119,78 29,48 26,117 -7,151 -32,31 -67,33 -94,6 z"
       id="path152" />
    <path
       d="m 5583,5124 c -15,-24 -15,-29 -2,-53 18,-32 54,-39 80,-15 24,22 24,56 1,77 -27,25 -59,21 -79,-9 z"
       id="path154" />
    <path
       d="m 6250,5130 c -41,-41 -8,-98 49,-85 30,6 31,5 31,-25 0,-32 -38,-79 -85,-106 -11,-7 -17,-15 -13,-19 12,-12 98,45 119,78 29,48 26,117 -7,151 -32,31 -67,33 -94,6 z"
       id="path156" />
    <path
       d="m 7540,5130 c -41,-41 -8,-98 49,-85 30,6 31,5 31,-25 0,-32 -38,-79 -85,-106 -11,-7 -17,-15 -13,-19 12,-12 98,45 119,78 29,48 26,117 -7,151 -32,31 -67,33 -94,6 z"
       id="path158" />
    <path
       d="m 8890,5130 c -41,-41 -8,-98 49,-85 30,6 31,5 31,-25 0,-32 -38,-79 -85,-106 -11,-7 -17,-15 -13,-19 12,-12 98,45 119,78 29,48 26,117 -7,151 -32,31 -67,33 -94,6 z"
       id="path160" />
    <path
       d="m 5760,3485 v -815 h 35 35 v 815 815 h -35 -35 z"
       id="path162" />
    <path
       d="m 5530,2829 c 0,-3 60,-140 134,-304 l 135,-299 24,55 c 13,30 64,142 112,249 48,107 99,220 112,250 l 23,55 -77,-85 c -43,-47 -97,-105 -120,-130 l -43,-45 v 43 c 0,41 -1,42 -35,42 -34,0 -35,-1 -35,-37 v -38 l -48,50 c -26,28 -77,84 -114,125 -37,41 -68,72 -68,69 z"
       id="path164" />
    <path
       d="m 4320,1688 c -56,-21 -96,-47 -52,-33 50,15 52,5 52,-301 v -284 l 40,-20 c 197,-100 391,80 329,305 -15,52 -74,111 -122,120 -51,10 -81,0 -127,-41 l -40,-36 v 156 c 0,118 -3,156 -12,155 -7,0 -38,-9 -68,-21 z m 244,-309 c 76,-66 76,-221 0,-297 -30,-30 -39,-34 -73,-29 -21,2 -50,13 -65,22 -26,17 -26,18 -26,149 0,125 1,134 23,153 47,43 94,44 141,2 z"
       id="path166" />
    <path
       d="M 2610,1265 V 840 h 105 c 87,0 105,3 105,15 0,12 -14,15 -70,15 h -70 v 395 395 h 70 c 56,0 70,3 70,15 0,12 -18,15 -105,15 h -105 z"
       id="path168" />
    <path
       d="m 6790,1675 c 0,-12 14,-15 65,-15 h 65 V 1265 870 h -65 c -51,0 -65,-3 -65,-15 0,-12 18,-15 100,-15 h 100 v 425 425 h -100 c -82,0 -100,-3 -100,-15 z"
       id="path170" />
    <path
       d="m 2058,1671 c 19,-5 39,-14 45,-20 17,-17 17,-575 0,-592 -6,-6 -26,-15 -45,-19 -21,-5 17,-8 107,-8 93,0 129,3 105,8 -54,13 -60,29 -60,166 v 123 l 68,-6 c 86,-7 143,9 186,52 57,57 66,160 18,224 -10,14 -39,37 -63,51 -42,24 -53,25 -219,27 -111,1 -163,-1 -142,-6 z m 265,-32 c 44,-23 66,-53 78,-105 27,-120 -56,-208 -168,-178 -22,6 -23,10 -23,144 0,101 3,140 13,143 23,10 78,7 100,-4 z"
       id="path172" />
    <path
       d="m 9190,1485 v -115 h -115 c -108,0 -115,-1 -115,-20 0,-19 7,-20 115,-20 h 115 v -115 c 0,-108 1,-115 20,-115 19,0 20,7 20,115 v 115 h 120 c 113,0 120,1 120,20 0,19 -7,20 -120,20 h -120 v 115 c 0,108 -1,115 -20,115 -19,0 -20,-7 -20,-115 z"
       id="path174" />
    <path
       d="m 2973,1460 c -54,-24 -83,-76 -65,-115 23,-50 72,-25 72,36 0,43 27,69 70,69 38,0 60,-20 70,-65 14,-61 15,-60 -57,-90 -76,-32 -132,-64 -151,-88 -39,-47 -31,-130 16,-168 38,-29 98,-22 150,20 22,17 42,31 45,31 2,0 7,-13 10,-30 11,-52 80,-48 131,9 23,26 16,37 -14,21 -39,-21 -45,-1 -48,163 -1,86 -7,162 -14,174 -25,50 -140,68 -215,33 z m 157,-249 c 0,-74 -2,-81 -26,-100 -57,-44 -107,-39 -130,14 -16,40 -8,69 27,101 21,19 102,61 122,63 4,1 7,-35 7,-78 z"
       id="path176" />
    <path
       d="m 3366,1467 c -38,-28 -13,-97 34,-97 22,0 50,32 50,57 0,23 -29,53 -51,53 -9,0 -23,-6 -33,-13 z"
       id="path178" />
    <path
       d="m 4826,1467 c -38,-28 -13,-97 34,-97 22,0 50,32 50,57 0,23 -29,53 -51,53 -9,0 -23,-6 -33,-13 z"
       id="path180" />
    <path
       d="m 5838,1471 c -15,-5 -41,-19 -57,-30 -94,-67 -116,-239 -44,-343 29,-42 94,-78 142,-78 71,0 147,66 170,148 14,47 1,46 -30,-2 -83,-132 -249,-49 -249,124 0,89 49,160 111,160 33,0 69,-31 69,-59 0,-46 69,-70 90,-32 26,50 -41,113 -124,117 -28,2 -63,-1 -78,-5 z"
       id="path182" />
    <path
       d="m 6186,1467 c -38,-28 -13,-97 34,-97 22,0 50,32 50,57 0,23 -29,53 -51,53 -9,0 -23,-6 -33,-13 z"
       id="path184" />
    <path
       d="m 3555,1456 c 37,-16 59,-41 118,-130 l 46,-69 -74,-97 c -41,-54 -81,-100 -89,-103 -37,-15 -12,-27 54,-27 68,0 91,12 50,25 -11,3 -20,15 -20,25 0,19 84,140 98,140 10,0 92,-130 92,-146 0,-7 -9,-16 -20,-19 -46,-15 -14,-25 80,-25 55,0 100,3 100,8 0,4 -13,14 -29,23 -27,16 -119,136 -157,205 l -17,31 52,69 c 29,38 66,77 84,87 l 32,17 h -80 c -59,-1 -75,-3 -62,-11 25,-15 21,-39 -15,-93 l -31,-48 -34,53 c -39,63 -41,77 -10,89 15,6 -12,9 -88,9 -100,0 -107,-1 -80,-13 z"
       id="path186" />
    <path
       d="m 5013,1447 c 16,-13 57,-84 103,-177 111,-227 105,-208 80,-269 -13,-29 -32,-61 -42,-72 -19,-18 -25,-19 -66,-8 -58,16 -81,2 -76,-45 4,-38 42,-62 82,-52 58,14 93,64 157,216 153,372 170,407 192,418 18,9 7,11 -53,11 -55,0 -69,-3 -52,-9 32,-13 28,-42 -21,-161 -24,-57 -47,-113 -51,-124 -6,-16 -19,3 -67,98 -67,133 -74,176 -29,188 14,4 -22,7 -80,8 l -105,1 z"
       id="path188" />
    <path
       d="m 6390,1410 c 0,-66 14,-80 24,-25 4,19 15,39 26,45 19,10 200,15 200,5 0,-3 -61,-89 -135,-190 -75,-102 -138,-192 -141,-200 -5,-13 20,-15 185,-15 180,0 191,1 191,19 0,10 3,39 6,65 8,55 -10,65 -20,11 -11,-56 -37,-66 -156,-63 l -102,3 141,191 c 78,106 141,197 141,203 0,8 -55,11 -180,11 h -180 z"
       id="path190" />
    <path
       d="m 7627,1443 c 21,-21 48,-81 103,-226 40,-108 78,-196 84,-194 6,2 37,63 70,135 32,72 62,130 65,127 3,-2 29,-62 56,-134 28,-72 55,-131 61,-131 6,0 46,92 89,205 59,156 84,210 104,225 l 26,19 h -75 c -62,0 -70,-2 -47,-11 15,-5 27,-17 27,-26 0,-21 -93,-272 -101,-272 -9,0 -99,233 -99,257 0,14 10,28 28,37 25,14 21,15 -78,15 -65,0 -97,-3 -85,-9 27,-10 40,-27 60,-76 l 16,-42 -43,-96 c -24,-52 -46,-96 -49,-96 -9,0 -99,252 -99,278 0,14 8,26 23,32 15,6 -5,9 -72,9 l -93,1 z"
       id="path192" />
    <path
       d="m 8314,1315 c -8,-21 2,-45 19,-45 21,0 38,25 31,44 -8,20 -43,21 -50,1 z"
       id="path194" />
    <path
       d="m 8285,1200 c 3,-5 13,-10 21,-10 11,0 14,-21 14,-113 V 964 l -27,-11 c -24,-9 -18,-11 45,-12 47,-1 71,3 67,9 -3,6 -15,10 -26,10 -18,0 -19,8 -19,125 v 125 h -41 c -24,0 -38,-4 -34,-10 z"
       id="path196" />
    <path
       d="m 3353,1104 c -15,-24 -15,-29 -2,-53 18,-32 54,-39 80,-15 24,22 24,56 1,77 -27,25 -59,21 -79,-9 z"
       id="path198" />
    <path
       d="m 4060,1110 c -41,-41 -8,-98 49,-85 30,6 31,5 31,-25 0,-32 -38,-79 -85,-106 -11,-7 -17,-15 -13,-19 12,-12 98,45 119,78 29,48 26,117 -7,151 -32,31 -67,33 -94,6 z"
       id="path200" />
    <path
       d="m 4813,1104 c -15,-24 -15,-29 -2,-53 18,-32 54,-39 80,-15 24,22 24,56 1,77 -27,25 -59,21 -79,-9 z"
       id="path202" />
    <path
       d="m 5490,1110 c -41,-41 -8,-98 49,-85 30,6 31,5 31,-25 0,-32 -38,-79 -85,-106 -11,-7 -17,-15 -13,-19 12,-12 98,45 119,78 29,48 26,117 -7,151 -32,31 -67,33 -94,6 z"
       id="path204" />
    <path
       d="m 6173,1104 c -15,-24 -15,-29 -2,-53 18,-32 54,-39 80,-15 24,22 24,56 1,77 -27,25 -59,21 -79,-9 z"
       id="path206" />
    <path
       d="m 7140,1110 c -41,-41 -8,-98 49,-85 30,6 31,5 31,-25 0,-32 -38,-79 -85,-106 -11,-7 -17,-15 -13,-19 12,-12 98,45 119,78 29,48 26,117 -7,151 -32,31 -67,33 -94,6 z"
       id="path208" />
    <path
       d="m 8490,1110 c -41,-41 -8,-98 49,-85 30,6 31,5 31,-25 0,-32 -38,-79 -85,-106 -11,-7 -17,-15 -13,-19 12,-12 98,45 119,78 29,48 26,117 -7,151 -32,31 -67,33 -94,6 z"
       id="path210" />
  </g>
</svg>
