<?xml version="1.0" encoding="UTF-8" standalone="no"?>
<svg
   version="1.0"
   width="1708.5654pt"
   height="1048.7145pt"
   viewBox="0 0 1708.5654 1048.7145"
   preserveAspectRatio="xMidYMid meet"
   id="svg126"
   xmlns="http://www.w3.org/2000/svg"
   xmlns:svg="http://www.w3.org/2000/svg">
  <defs
     id="defs130" />
  <metadata
     id="metadata2">
Created by potrace 1.16, written by Peter Selinger 2001-2019
</metadata>
  <g
     transform="matrix(0.1,0,0,-0.1,-87.434611,1149.9019)"
     fill="#000000"
     stroke="none"
     id="g124">
    <path
       d="m 1563,11474 c -15,-24 -15,-29 -2,-53 18,-32 45,-38 70,-15 24,22 24,56 1,77 -26,24 -49,21 -69,-9 z"
       id="path4" />
    <path
       d="m 2525,11479 c -52,-21 -88,-47 -50,-35 40,11 49,-7 53,-108 3,-53 2,-96 -1,-96 -2,0 -18,7 -33,15 -120,62 -267,-64 -268,-230 -1,-83 21,-133 76,-178 62,-50 153,-46 197,7 20,24 31,19 31,-14 0,-36 4,-36 72,-9 54,21 86,42 52,33 -48,-11 -49,-5 -53,326 -2,224 -6,310 -15,309 -6,0 -33,-9 -61,-20 z m -48,-259 c 42,-25 53,-67 53,-203 v -107 l -32,-20 c -41,-25 -72,-25 -112,-1 -47,30 -69,74 -74,157 -4,61 -1,80 18,118 35,72 88,93 147,56 z"
       id="path6" />
    <path
       d="m 2763,11474 c -15,-24 -15,-29 -2,-53 18,-32 45,-38 70,-15 24,22 24,56 1,77 -26,24 -49,21 -69,-9 z"
       id="path8" />
    <path
       d="m 5413,11474 c -15,-24 -15,-29 -2,-53 18,-32 45,-38 70,-15 24,22 24,56 1,77 -26,24 -49,21 -69,-9 z"
       id="path10" />
    <path
       d="m 6060,11478 c -56,-21 -96,-47 -52,-33 50,15 52,5 52,-301 v -284 l 40,-20 c 197,-100 391,80 329,305 -15,52 -74,111 -122,120 -51,10 -81,0 -127,-41 l -40,-36 v 156 c 0,118 -3,156 -12,155 -7,0 -38,-9 -68,-21 z m 244,-309 c 76,-66 76,-221 0,-297 -30,-30 -39,-34 -73,-29 -21,2 -50,13 -65,22 -26,17 -26,18 -26,149 0,125 1,134 23,153 47,43 94,44 141,2 z"
       id="path12" />
    <path
       d="m 6560,11478 c -56,-21 -96,-47 -52,-33 50,15 52,5 52,-299 0,-154 -4,-286 -8,-293 -4,-7 -19,-16 -32,-22 -19,-7 3,-10 85,-9 61,0 101,3 90,5 -11,3 -28,12 -37,21 -16,14 -18,43 -18,334 0,248 -3,318 -12,317 -7,0 -38,-9 -68,-21 z"
       id="path14" />
    <path
       d="m 13353,11474 c -15,-24 -15,-29 -2,-53 18,-32 45,-38 70,-15 24,22 24,56 1,77 -26,24 -49,21 -69,-9 z"
       id="path16" />
    <path
       d="m 14935,11479 c -52,-21 -88,-47 -50,-35 40,11 49,-7 53,-108 3,-53 2,-96 -1,-96 -2,0 -18,7 -33,15 -120,62 -267,-64 -268,-230 -1,-83 21,-133 76,-178 62,-50 153,-46 197,7 20,24 31,19 31,-14 0,-36 4,-36 72,-9 54,21 86,42 52,33 -48,-11 -49,-5 -53,326 -2,224 -6,310 -15,309 -6,0 -33,-9 -61,-20 z m -48,-259 c 42,-25 53,-67 53,-203 v -107 l -32,-20 c -41,-25 -72,-25 -112,-1 -47,30 -69,74 -74,157 -4,61 -1,80 18,118 35,72 88,93 147,56 z"
       id="path18" />
    <path
       d="m 15870,11478 c -56,-21 -96,-47 -52,-33 50,15 52,5 52,-301 v -284 l 40,-20 c 197,-100 391,80 329,305 -15,52 -74,111 -122,120 -51,10 -81,0 -127,-41 l -40,-36 v 156 c 0,118 -3,156 -12,155 -7,0 -38,-9 -68,-21 z m 244,-309 c 76,-66 76,-221 0,-297 -30,-30 -39,-34 -73,-29 -21,2 -50,13 -65,22 -26,17 -26,18 -26,149 0,125 1,134 23,153 47,43 94,44 141,2 z"
       id="path20" />
    <path
       d="m 16373,11474 c -15,-24 -15,-29 -2,-53 18,-32 45,-38 70,-15 24,22 24,56 1,77 -26,24 -49,21 -69,-9 z"
       id="path22" />
    <path
       d="m 878,11461 c 19,-5 39,-14 45,-20 17,-17 17,-575 0,-592 -6,-6 -26,-15 -45,-20 -20,-5 51,-7 182,-6 203,2 218,3 262,25 64,32 91,72 96,141 4,71 -20,112 -83,143 l -44,22 29,18 c 44,26 70,75 70,129 0,61 -31,107 -95,139 -48,24 -59,25 -250,27 -124,1 -187,-1 -167,-6 z m 314,-31 c 20,-6 50,-26 67,-46 26,-29 31,-43 31,-84 0,-91 -64,-134 -190,-128 l -65,3 -3,127 c -2,114 -1,127 15,131 33,9 108,7 145,-3 z m 42,-315 c 50,-24 76,-67 76,-127 0,-103 -108,-160 -249,-132 l -31,7 v 140 140 l 83,-5 c 51,-3 97,-11 121,-23 z"
       id="path24" />
    <path
       d="m 10725,11463 c 64,-14 74,-23 80,-76 11,-90 2,-525 -12,-538 -7,-7 -29,-15 -50,-19 -24,-5 17,-8 107,-8 89,0 132,3 113,8 -65,15 -63,5 -63,315 0,310 -2,300 63,315 19,5 -24,8 -113,8 -80,0 -136,-2 -125,-5 z"
       id="path26" />
    <path
       d="m 11968,11366 c -21,-44 -74,-103 -99,-111 -31,-10 -22,-25 16,-25 h 35 v -176 c 0,-177 5,-205 39,-231 38,-29 110,-3 137,48 8,17 12,29 7,27 -4,-2 -21,-10 -36,-18 -21,-10 -33,-11 -45,-3 -15,9 -17,34 -20,182 l -2,171 h 50 c 38,0 50,4 50,15 0,11 -12,15 -50,15 h -50 v 70 c 0,39 -4,70 -8,70 -5,0 -16,-15 -24,-34 z"
       id="path28" />
    <path
       d="m 13118,11366 c -21,-44 -74,-103 -99,-111 -31,-10 -22,-25 16,-25 h 35 v -176 c 0,-177 5,-205 39,-231 38,-29 110,-3 137,48 8,17 12,29 7,27 -4,-2 -21,-10 -36,-18 -21,-10 -33,-11 -45,-3 -15,9 -17,34 -20,182 l -2,171 h 50 c 38,0 50,4 50,15 0,11 -12,15 -50,15 h -50 v 70 c 0,39 -4,70 -8,70 -5,0 -16,-15 -24,-34 z"
       id="path30" />
    <path
       d="m 14048,11366 c -21,-44 -74,-103 -99,-111 -31,-10 -22,-25 16,-25 h 35 v -176 c 0,-177 5,-205 39,-231 38,-29 110,-3 137,48 8,17 12,29 7,27 -4,-2 -21,-10 -36,-18 -21,-10 -33,-11 -45,-3 -15,9 -17,34 -20,182 l -2,171 h 50 c 38,0 50,4 50,15 0,11 -12,15 -50,15 h -50 v 70 c 0,39 -4,70 -8,70 -5,0 -16,-15 -24,-34 z"
       id="path32" />
    <path
       d="m 17488,11366 c -21,-44 -74,-103 -99,-111 -31,-10 -22,-25 16,-25 h 35 v -176 c 0,-177 5,-205 39,-231 38,-29 110,-3 137,48 8,17 12,29 7,27 -4,-2 -21,-10 -36,-18 -21,-10 -33,-11 -45,-3 -15,9 -17,34 -20,182 l -2,171 h 50 c 38,0 50,4 50,15 0,11 -12,15 -50,15 h -50 v 70 c 0,39 -4,70 -8,70 -5,0 -16,-15 -24,-34 z"
       id="path34" />
    <path
       d="m 9642,11318 c 21,-18 80,-71 132,-118 l 95,-85 -39,-3 c -38,-3 -40,-5 -40,-37 0,-32 2,-34 39,-37 l 39,-3 -84,-75 c -46,-41 -105,-94 -132,-118 l -47,-42 45,19 c 53,22 564,252 567,255 2,2 -459,211 -602,274 -5,2 7,-11 27,-30 z"
       id="path36" />
    <path
       d="m 1560,11248 c -56,-21 -96,-47 -52,-33 47,14 52,-4 52,-184 0,-91 -4,-171 -8,-178 -4,-7 -19,-16 -32,-22 -19,-7 3,-10 85,-10 78,1 102,3 81,9 -16,5 -33,15 -37,22 -5,7 -9,104 -9,216 0,155 -3,202 -12,201 -7,0 -38,-9 -68,-21 z"
       id="path38" />
    <path
       d="m 1795,11248 c -58,-22 -85,-43 -43,-33 41,10 48,-15 48,-187 0,-165 -7,-192 -53,-201 -12,-2 30,-5 93,-5 101,-1 111,1 80,11 l -35,12 -3,157 -2,156 30,22 c 17,12 48,24 69,27 34,5 41,2 57,-23 16,-23 19,-52 22,-164 3,-148 -5,-179 -48,-191 -14,-4 25,-7 85,-7 61,1 100,3 88,5 -43,8 -48,28 -51,192 -3,167 -10,200 -50,231 -44,36 -112,19 -179,-43 l -23,-20 v 41 c 0,49 -7,51 -85,20 z"
       id="path40" />
    <path
       d="m 2760,11248 c -56,-21 -96,-47 -52,-33 47,14 52,-4 52,-184 0,-91 -4,-171 -8,-178 -4,-7 -19,-16 -32,-22 -19,-7 3,-10 85,-10 78,1 102,3 81,9 -16,5 -33,15 -37,22 -5,7 -9,104 -9,216 0,155 -3,202 -12,201 -7,0 -38,-9 -68,-21 z"
       id="path42" />
    <path
       d="m 2995,11248 c -58,-22 -85,-43 -43,-33 41,10 48,-15 48,-187 0,-165 -7,-192 -53,-201 -12,-2 30,-5 93,-5 101,-1 111,1 80,11 l -35,12 -3,157 -2,156 30,22 c 17,12 48,24 69,27 34,5 41,2 57,-23 16,-23 19,-52 22,-164 3,-148 -5,-179 -48,-191 -14,-4 25,-7 85,-7 61,1 100,3 88,5 -43,8 -48,28 -51,192 -3,167 -10,200 -50,231 -44,36 -112,19 -179,-43 l -23,-20 v 41 c 0,49 -7,51 -85,20 z"
       id="path44" />
    <path
       d="m 3560,11259 c -41,-16 -90,-70 -101,-111 -13,-51 2,-106 41,-143 l 29,-28 -34,-39 c -41,-44 -43,-63 -14,-94 l 22,-23 -42,-47 c -50,-57 -52,-85 -8,-118 131,-100 397,-18 397,122 0,78 -37,99 -194,108 -129,8 -148,17 -116,56 17,22 25,25 68,20 125,-12 217,94 179,207 l -14,40 41,3 c 61,4 45,22 -26,29 -35,3 -79,11 -98,18 -42,13 -96,13 -130,0 z m 114,-40 c 33,-39 39,-65 34,-141 -4,-48 -9,-65 -27,-79 -45,-37 -96,-18 -130,48 -26,51 -6,181 31,196 35,14 67,6 92,-24 z m 100,-418 c 42,-10 54,-33 33,-65 -33,-50 -63,-61 -163,-61 -78,0 -97,3 -121,21 -35,26 -40,62 -14,96 21,26 22,26 128,21 60,-3 121,-8 137,-12 z"
       id="path46" />
    <path
       d="m 4703,11250 c -54,-24 -83,-76 -65,-115 23,-50 72,-25 72,36 0,43 27,69 70,69 38,0 60,-20 70,-65 14,-61 15,-60 -57,-90 -76,-32 -132,-64 -151,-88 -39,-47 -31,-130 16,-168 38,-29 98,-22 150,20 22,17 42,31 45,31 2,0 7,-13 10,-30 11,-52 80,-48 131,9 23,26 16,37 -14,21 -39,-21 -45,-1 -48,163 -1,86 -7,162 -14,174 -25,50 -140,68 -215,33 z m 157,-249 c 0,-74 -2,-81 -26,-100 -57,-44 -107,-39 -130,14 -16,40 -8,69 27,101 21,19 102,61 122,63 4,1 7,-35 7,-78 z"
       id="path48" />
    <path
       d="m 5073,11246 c -54,-22 -84,-43 -47,-32 14,4 28,1 38,-9 13,-14 16,-43 16,-179 0,-174 -3,-186 -55,-199 -11,-2 32,-5 95,-5 105,-1 112,0 84,12 -17,8 -34,21 -38,31 -3,9 -6,74 -6,144 0,125 0,127 28,161 l 29,34 30,-22 c 40,-29 61,-28 75,3 15,34 -3,72 -38,81 -31,8 -68,-16 -101,-66 l -23,-33 v 52 c 0,60 -6,62 -87,27 z"
       id="path50" />
    <path
       d="m 5410,11248 c -56,-21 -96,-47 -52,-33 47,14 52,-4 52,-184 0,-91 -4,-171 -8,-178 -4,-7 -19,-16 -32,-22 -19,-7 3,-10 85,-10 78,1 102,3 81,9 -16,5 -33,15 -37,22 -5,7 -9,104 -9,216 0,155 -3,202 -12,201 -7,0 -38,-9 -68,-21 z"
       id="path52" />
    <path
       d="m 5693,11250 c -54,-24 -83,-76 -65,-115 23,-50 72,-25 72,36 0,43 27,69 70,69 38,0 60,-20 70,-65 14,-61 15,-60 -57,-90 -76,-32 -132,-64 -151,-88 -39,-47 -31,-130 16,-168 38,-29 98,-22 150,20 22,17 42,31 45,31 2,0 7,-13 10,-30 11,-52 80,-48 131,9 23,26 16,37 -14,21 -39,-21 -45,-1 -48,163 -1,86 -7,162 -14,174 -25,50 -140,68 -215,33 z m 157,-249 c 0,-74 -2,-81 -26,-100 -57,-44 -107,-39 -130,14 -16,40 -8,69 27,101 21,19 102,61 122,63 4,1 7,-35 7,-78 z"
       id="path54" />
    <path
       d="m 6870,11248 c -25,-13 -57,-41 -74,-65 -25,-36 -30,-54 -34,-121 -5,-93 7,-139 51,-189 56,-64 134,-80 207,-43 44,23 86,78 96,128 8,40 -1,41 -21,2 -32,-61 -113,-87 -173,-56 -54,28 -82,71 -96,149 l -7,37 h 152 152 l -6,42 c -15,112 -140,171 -247,116 z m 121,-37 c 19,-20 29,-40 29,-60 v -31 h -99 -100 l 10,33 c 5,17 22,44 39,60 41,37 83,36 121,-2 z"
       id="path56" />
    <path
       d="m 7254,11254 c -39,-19 -64,-62 -64,-111 0,-54 19,-75 107,-123 89,-47 113,-70 113,-111 0,-96 -147,-88 -188,11 -10,22 -20,40 -24,40 -5,0 -8,-34 -8,-75 0,-41 4,-75 9,-75 5,0 11,5 13,12 3,9 15,9 50,0 67,-17 103,-15 148,8 45,23 70,63 70,112 0,57 -29,89 -130,143 -74,40 -96,56 -103,79 -9,26 -6,33 17,53 53,45 135,16 157,-57 7,-22 16,-40 21,-40 4,0 8,34 8,75 0,41 -4,75 -9,75 -5,0 -11,-5 -13,-12 -4,-10 -13,-10 -45,0 -53,16 -91,15 -129,-4 z"
       id="path58" />
    <path
       d="m 11085,11248 c -58,-22 -85,-43 -43,-33 41,10 48,-15 48,-187 0,-165 -7,-192 -53,-201 -12,-2 30,-5 93,-5 101,-1 111,1 80,11 l -35,12 -3,157 -2,156 30,22 c 17,12 48,24 69,27 34,5 41,2 57,-23 16,-23 19,-52 22,-164 3,-148 -5,-179 -48,-191 -14,-4 25,-7 85,-7 61,1 100,3 88,5 -43,8 -48,28 -51,192 -3,167 -10,200 -50,231 -44,36 -112,19 -179,-43 l -23,-20 v 41 c 0,49 -7,51 -85,20 z"
       id="path60" />
    <path
       d="m 11594,11254 c -39,-19 -64,-62 -64,-111 0,-54 19,-75 107,-123 89,-47 113,-70 113,-111 0,-96 -147,-88 -188,11 -10,22 -20,40 -24,40 -5,0 -8,-34 -8,-75 0,-41 4,-75 9,-75 5,0 11,5 13,12 3,9 15,9 50,0 67,-17 103,-15 148,8 45,23 70,63 70,112 0,57 -29,89 -130,143 -74,40 -96,56 -103,79 -9,26 -6,33 17,53 53,45 135,16 157,-57 7,-22 16,-40 21,-40 4,0 8,34 8,75 0,41 -4,75 -9,75 -5,0 -11,-5 -13,-12 -4,-10 -13,-10 -45,0 -53,16 -91,15 -129,-4 z"
       id="path62" />
    <path
       d="m 12223,11250 c -54,-24 -83,-76 -65,-115 23,-50 72,-25 72,36 0,43 27,69 70,69 38,0 60,-20 70,-65 14,-61 15,-60 -57,-90 -76,-32 -132,-64 -151,-88 -39,-47 -31,-130 16,-168 38,-29 98,-22 150,20 22,17 42,31 45,31 2,0 7,-13 10,-30 11,-52 80,-48 131,9 23,26 16,37 -14,21 -39,-21 -45,-1 -48,163 -1,86 -7,162 -14,174 -25,50 -140,68 -215,33 z m 157,-249 c 0,-74 -2,-81 -26,-100 -57,-44 -107,-39 -130,14 -16,40 -8,69 27,101 21,19 102,61 122,63 4,1 7,-35 7,-78 z"
       id="path64" />
    <path
       d="m 12595,11248 c -58,-22 -85,-43 -43,-33 41,10 48,-15 48,-187 0,-165 -7,-192 -53,-201 -12,-2 30,-5 93,-5 101,-1 111,1 80,11 l -35,12 -3,157 -2,156 30,22 c 17,12 48,24 69,27 34,5 41,2 57,-23 16,-23 19,-52 22,-164 3,-148 -5,-179 -48,-191 -14,-4 25,-7 85,-7 61,1 100,3 88,5 -43,8 -48,28 -51,192 -3,167 -10,200 -50,231 -44,36 -112,19 -179,-43 l -23,-20 v 41 c 0,49 -7,51 -85,20 z"
       id="path66" />
    <path
       d="m 13350,11248 c -56,-21 -96,-47 -52,-33 47,14 52,-4 52,-184 0,-91 -4,-171 -8,-178 -4,-7 -19,-16 -32,-22 -19,-7 3,-10 85,-10 78,1 102,3 81,9 -16,5 -33,15 -37,22 -5,7 -9,104 -9,216 0,155 -3,202 -12,201 -7,0 -38,-9 -68,-21 z"
       id="path68" />
    <path
       d="m 13633,11250 c -54,-24 -83,-76 -65,-115 23,-50 72,-25 72,36 0,43 27,69 70,69 38,0 60,-20 70,-65 14,-61 15,-60 -57,-90 -76,-32 -132,-64 -151,-88 -39,-47 -31,-130 16,-168 38,-29 98,-22 150,20 22,17 42,31 45,31 2,0 7,-13 10,-30 11,-52 80,-48 131,9 23,26 16,37 -14,21 -39,-21 -45,-1 -48,163 -1,86 -7,162 -14,174 -25,50 -140,68 -215,33 z m 157,-249 c 0,-74 -2,-81 -26,-100 -57,-44 -107,-39 -130,14 -16,40 -8,69 27,101 21,19 102,61 122,63 4,1 7,-35 7,-78 z"
       id="path70" />
    <path
       d="m 14330,11248 c -25,-13 -57,-41 -74,-65 -25,-36 -30,-54 -34,-121 -5,-93 7,-139 51,-189 56,-64 134,-80 207,-43 44,23 86,78 96,128 8,40 -1,41 -21,2 -32,-61 -113,-87 -173,-56 -54,28 -82,71 -96,149 l -7,37 h 152 152 l -6,42 c -15,112 -140,171 -247,116 z m 121,-37 c 19,-20 29,-40 29,-60 v -31 h -99 -100 l 10,33 c 5,17 22,44 39,60 41,37 83,36 121,-2 z"
       id="path72" />
    <path
       d="m 15495,11251 c -92,-42 -148,-157 -127,-261 15,-71 56,-129 112,-158 62,-32 145,-26 203,15 75,52 114,173 88,268 -32,120 -167,186 -276,136 z m 129,-41 c 44,-39 66,-104 66,-197 0,-82 -16,-132 -51,-157 -55,-38 -120,-9 -157,72 -35,74 -39,208 -8,259 37,60 97,69 150,23 z"
       id="path74" />
    <path
       d="m 16368,11247 c -57,-23 -93,-46 -50,-32 50,15 52,4 52,-281 0,-225 -2,-265 -16,-278 -22,-22 -32,-20 -71,14 -37,33 -52,37 -71,18 -32,-32 6,-78 66,-78 73,0 141,54 162,128 15,56 13,532 -2,531 -7,0 -39,-10 -70,-22 z"
       id="path76" />
    <path
       d="m 16680,11248 c -25,-13 -57,-41 -74,-65 -25,-36 -30,-54 -34,-121 -5,-93 7,-139 51,-189 56,-64 134,-80 207,-43 44,23 86,78 96,128 8,40 -1,41 -21,2 -32,-61 -113,-87 -173,-56 -54,28 -82,71 -96,149 l -7,37 h 152 152 l -6,42 c -15,112 -140,171 -247,116 z m 121,-37 c 19,-20 29,-40 29,-60 v -31 h -99 -100 l 10,33 c 5,17 22,44 39,60 41,37 83,36 121,-2 z"
       id="path78" />
    <path
       d="m 17118,11261 c -15,-5 -41,-19 -57,-30 -94,-67 -116,-239 -44,-343 29,-42 94,-78 142,-78 71,0 147,66 170,148 14,47 1,46 -30,-2 -83,-132 -249,-49 -249,124 0,89 49,160 111,160 33,0 69,-31 69,-59 0,-46 69,-70 90,-32 26,50 -41,113 -124,117 -28,2 -63,-1 -78,-5 z"
       id="path80" />
    <path
       d="m 17734,11254 c -39,-19 -64,-62 -64,-111 0,-54 19,-75 107,-123 89,-47 113,-70 113,-111 0,-96 -147,-88 -188,11 -10,22 -20,40 -24,40 -5,0 -8,-34 -8,-75 0,-41 4,-75 9,-75 5,0 11,5 13,12 3,9 15,9 50,0 67,-17 103,-15 148,8 45,23 70,63 70,112 0,57 -29,89 -130,143 -74,40 -96,56 -103,79 -9,26 -6,33 17,53 53,45 135,16 157,-57 7,-22 16,-40 21,-40 4,0 8,34 8,75 0,41 -4,75 -9,75 -5,0 -11,-5 -13,-12 -4,-10 -13,-10 -45,0 -53,16 -91,15 -129,-4 z"
       id="path82" />
    <path
       d="m 4144,11242 c 23,-14 44,-55 115,-221 48,-113 92,-206 98,-208 6,-2 33,49 59,113 122,294 129,308 154,321 22,11 15,13 -55,12 -49,-1 -70,-4 -55,-8 14,-4 26,-15 28,-25 4,-18 -96,-276 -107,-276 -12,1 -113,259 -107,275 3,9 16,20 28,25 16,6 -8,9 -82,9 -104,1 -105,1 -76,-17 z"
       id="path84" />
    <path
       d="m 8150,11075 v -35 l 808,2 807,3 3,33 3,32 h -810 -811 z"
       id="path86" />
    <path
       d="m 11970,8058 c 14,-13 69,-64 123,-113 53,-48 96,-90 94,-92 -2,-1 -1375,-3 -3050,-3 H 6090 v -35 -35 h 3058 l 3057,-1 -85,-77 c -47,-42 -105,-96 -130,-120 l -45,-43 56,25 c 183,78 539,242 539,247 0,5 -529,248 -580,266 -8,3 -4,-5 10,-19 z"
       id="path88" />
    <path
       d="m 13903,7980 c -54,-24 -83,-76 -65,-115 23,-50 72,-25 72,36 0,43 27,69 70,69 38,0 60,-20 70,-65 14,-61 15,-60 -57,-90 -76,-32 -132,-64 -151,-88 -39,-47 -31,-130 16,-168 38,-29 98,-22 150,20 22,17 42,31 45,31 2,0 7,-13 10,-30 11,-52 80,-48 131,9 23,26 16,37 -14,21 -39,-21 -45,-1 -48,163 -1,86 -7,162 -14,174 -25,50 -140,68 -215,33 z m 157,-249 c 0,-74 -2,-81 -26,-100 -57,-44 -107,-39 -130,14 -16,40 -8,69 27,101 21,19 102,61 122,63 4,1 7,-35 7,-78 z"
       id="path90" />
    <path
       d="m 14306,7987 c -38,-28 -13,-97 34,-97 22,0 50,32 50,57 0,23 -29,53 -51,53 -9,0 -23,-6 -33,-13 z"
       id="path92" />
    <path
       d="m 3995,7976 c 37,-16 59,-41 118,-130 l 46,-69 -74,-97 c -41,-54 -81,-100 -89,-103 -37,-15 -12,-27 54,-27 68,0 91,12 50,25 -11,3 -20,15 -20,25 0,19 84,140 98,140 10,0 92,-130 92,-146 0,-7 -9,-16 -20,-19 -46,-15 -14,-25 80,-25 55,0 100,3 100,8 0,4 -13,14 -29,23 -27,16 -119,136 -157,205 l -17,31 52,69 c 29,38 66,77 84,87 l 32,17 h -80 c -59,-1 -75,-3 -62,-11 25,-15 21,-39 -15,-93 l -31,-48 -34,53 c -39,63 -41,77 -10,89 15,6 -12,9 -88,9 -100,0 -107,-1 -80,-13 z"
       id="path94" />
    <path
       d="m 14495,7976 c 37,-16 59,-41 118,-130 l 46,-69 -74,-97 c -41,-54 -81,-100 -89,-103 -37,-15 -12,-27 54,-27 68,0 91,12 50,25 -11,3 -20,15 -20,25 0,19 84,140 98,140 10,0 92,-130 92,-146 0,-7 -9,-16 -20,-19 -46,-15 -14,-25 80,-25 55,0 100,3 100,8 0,4 -13,14 -29,23 -27,16 -119,136 -157,205 l -17,31 52,69 c 29,38 66,77 84,87 l 32,17 h -80 c -59,-1 -75,-3 -62,-11 25,-15 21,-39 -15,-93 l -31,-48 -34,53 c -39,63 -41,77 -10,89 15,6 -12,9 -88,9 -100,0 -107,-1 -80,-13 z"
       id="path96" />
    <path
       d="m 14293,7624 c -15,-24 -15,-29 -2,-53 18,-32 54,-39 80,-15 24,22 24,56 1,77 -27,25 -59,21 -79,-9 z"
       id="path98" />
    <path
       d="m 13820,4948 c -56,-21 -96,-47 -52,-33 50,15 52,5 52,-301 v -284 l 40,-20 c 197,-100 391,80 329,305 -15,52 -74,111 -122,120 -51,10 -81,0 -127,-41 l -40,-36 v 156 c 0,118 -3,156 -12,155 -7,0 -38,-9 -68,-21 z m 244,-309 c 76,-66 76,-221 0,-297 -30,-30 -39,-34 -73,-29 -21,2 -50,13 -65,22 -26,17 -26,18 -26,149 0,125 1,134 23,153 47,43 94,44 141,2 z"
       id="path100" />
    <path
       d="m 11995,4773 c 28,-26 86,-81 130,-120 l 80,-73 H 9148 6090 v -35 -35 h 3056 3055 l -125,-112 c -69,-62 -123,-114 -122,-116 3,-2 296,128 561,249 l 39,18 -44,19 c -45,19 -536,240 -555,249 -5,3 13,-17 40,-44 z"
       id="path102" />
    <path
       d="m 14326,4727 c -38,-28 -13,-97 34,-97 22,0 50,32 50,57 0,23 -29,53 -51,53 -9,0 -23,-6 -33,-13 z"
       id="path104" />
    <path
       d="m 3993,4707 c 16,-13 57,-84 103,-177 111,-227 105,-208 80,-269 -13,-29 -32,-61 -42,-72 -19,-18 -25,-19 -66,-8 -58,16 -81,2 -76,-45 4,-38 42,-62 82,-52 58,14 93,64 157,216 153,372 170,407 192,418 18,9 7,11 -53,11 -55,0 -69,-3 -52,-9 32,-13 28,-42 -21,-161 -24,-57 -47,-113 -51,-124 -6,-16 -19,3 -67,98 -67,133 -74,176 -29,188 14,4 -22,7 -80,8 l -105,1 z"
       id="path106" />
    <path
       d="m 14513,4707 c 16,-13 57,-84 103,-177 111,-227 105,-208 80,-269 -13,-29 -32,-61 -42,-72 -19,-18 -25,-19 -66,-8 -58,16 -81,2 -76,-45 4,-38 42,-62 82,-52 58,14 93,64 157,216 153,372 170,407 192,418 18,9 7,11 -53,11 -55,0 -69,-3 -52,-9 32,-13 28,-42 -21,-161 -24,-57 -47,-113 -51,-124 -6,-16 -19,3 -67,98 -67,133 -74,176 -29,188 14,4 -22,7 -80,8 l -105,1 z"
       id="path108" />
    <path
       d="m 14313,4364 c -15,-24 -15,-29 -2,-53 18,-32 54,-39 80,-15 24,22 24,56 1,77 -27,25 -59,21 -79,-9 z"
       id="path110" />
    <path
       d="m 11982,1518 c 27,-24 86,-77 132,-118 l 84,-75 -3054,-3 -3054,-2 v -35 -35 l 3055,-2 3056,-3 -133,-119 c -73,-66 -126,-117 -118,-114 31,12 551,248 575,261 24,12 9,20 -262,141 -159,71 -297,133 -308,138 -11,5 1,-10 27,-34 z"
       id="path112" />
    <path
       d="m 13998,1471 c -15,-5 -41,-19 -57,-30 -94,-67 -116,-239 -44,-343 29,-42 94,-78 142,-78 71,0 147,66 170,148 14,47 1,46 -30,-2 -83,-132 -249,-49 -249,124 0,89 49,160 111,160 33,0 69,-31 69,-59 0,-46 69,-70 90,-32 26,50 -41,113 -124,117 -28,2 -63,-1 -78,-5 z"
       id="path114" />
    <path
       d="m 14346,1467 c -38,-28 -13,-97 34,-97 22,0 50,32 50,57 0,23 -29,53 -51,53 -9,0 -23,-6 -33,-13 z"
       id="path116" />
    <path
       d="m 4010,1410 c 0,-66 14,-80 24,-25 4,19 15,39 26,45 19,10 200,15 200,5 0,-3 -61,-89 -135,-190 -75,-102 -138,-192 -141,-200 -5,-13 20,-15 185,-15 180,0 191,1 191,19 0,10 3,39 6,65 8,55 -10,65 -20,11 -11,-56 -37,-66 -156,-63 l -102,3 141,191 c 78,106 141,197 141,203 0,8 -55,11 -180,11 h -180 z"
       id="path118" />
    <path
       d="m 14550,1410 c 0,-66 14,-80 24,-25 4,19 15,39 26,45 19,10 200,15 200,5 0,-3 -61,-89 -135,-190 -75,-102 -138,-192 -141,-200 -5,-13 20,-15 185,-15 180,0 191,1 191,19 0,10 3,39 6,65 8,55 -10,65 -20,11 -11,-56 -37,-66 -156,-63 l -102,3 141,191 c 78,106 141,197 141,203 0,8 -55,11 -180,11 h -180 z"
       id="path120" />
    <path
       d="m 14333,1104 c -15,-24 -15,-29 -2,-53 18,-32 54,-39 80,-15 24,22 24,56 1,77 -27,25 -59,21 -79,-9 z"
       id="path122" />
  </g>
</svg>
