<?xml version="1.0" encoding="UTF-8" standalone="no"?>
<svg
   version="1.0"
   width="2613.543pt"
   height="1497.7034pt"
   viewBox="0 0 2613.543 1497.7034"
   preserveAspectRatio="xMidYMid meet"
   id="svg372"
   xmlns="http://www.w3.org/2000/svg"
   xmlns:svg="http://www.w3.org/2000/svg">
  <defs
     id="defs376" />
  <metadata
     id="metadata2">
Created by potrace 1.16, written by Peter Selinger 2001-2019
</metadata>
  <g
     transform="matrix(0.1,0,0,-0.1,-85,1566.9019)"
     fill="#000000"
     stroke="none"
     id="g370">
    <path
       d="m 9460,15648 c -56,-21 -96,-47 -52,-33 50,15 52,5 52,-301 v -284 l 40,-20 c 197,-100 391,80 329,305 -15,52 -74,111 -122,120 -51,10 -81,0 -127,-41 l -40,-36 v 156 c 0,118 -3,156 -12,155 -7,0 -38,-9 -68,-21 z m 244,-309 c 76,-66 76,-221 0,-297 -30,-30 -39,-34 -73,-29 -21,2 -50,13 -65,22 -26,17 -26,18 -26,149 0,125 1,134 23,153 47,43 94,44 141,2 z"
       id="path4" />
    <path
       d="m 16620,15648 c -56,-21 -96,-47 -52,-33 50,15 52,5 52,-301 v -284 l 40,-20 c 197,-100 391,80 329,305 -15,52 -74,111 -122,120 -51,10 -81,0 -127,-41 l -40,-36 v 156 c 0,118 -3,156 -12,155 -7,0 -38,-9 -68,-21 z m 244,-309 c 76,-66 76,-221 0,-297 -30,-30 -39,-34 -73,-29 -21,2 -50,13 -65,22 -26,17 -26,18 -26,149 0,125 1,134 23,153 47,43 94,44 141,2 z"
       id="path6" />
    <path
       d="m 24050,15648 c -56,-21 -96,-47 -52,-33 50,15 52,5 52,-301 v -284 l 40,-20 c 197,-100 391,80 329,305 -15,52 -74,111 -122,120 -51,10 -81,0 -127,-41 l -40,-36 v 156 c 0,118 -3,156 -12,155 -7,0 -38,-9 -68,-21 z m 244,-309 c 76,-66 76,-221 0,-297 -30,-30 -39,-34 -73,-29 -21,2 -50,13 -65,22 -26,17 -26,18 -26,149 0,125 1,134 23,153 47,43 94,44 141,2 z"
       id="path8" />
    <path
       d="m 1710,15225 v -425 h 105 c 87,0 105,3 105,15 0,12 -14,15 -70,15 h -70 v 395 395 h 70 c 56,0 70,3 70,15 0,12 -18,15 -105,15 h -105 z"
       id="path10" />
    <path
       d="m 3130,15635 c 0,-12 14,-15 65,-15 h 65 v -395 -395 h -65 c -51,0 -65,-3 -65,-15 0,-12 18,-15 100,-15 h 100 v 425 425 h -100 c -82,0 -100,-3 -100,-15 z"
       id="path12" />
    <path
       d="m 1158,15631 c 19,-5 39,-14 45,-20 17,-17 17,-575 0,-592 -6,-6 -26,-15 -45,-19 -21,-5 17,-8 107,-8 93,0 129,3 105,8 -54,13 -60,29 -60,166 v 123 l 68,-6 c 86,-7 143,9 186,52 57,57 66,160 18,224 -10,14 -39,37 -63,51 -42,24 -53,25 -219,27 -111,1 -163,-1 -142,-6 z m 265,-32 c 44,-23 66,-53 78,-105 27,-120 -56,-208 -168,-178 -22,6 -23,10 -23,144 0,101 3,140 13,143 23,10 78,7 100,-4 z"
       id="path14" />
    <path
       d="m 2063,15420 c -54,-24 -83,-76 -65,-115 23,-50 72,-25 72,36 0,43 27,69 70,69 38,0 60,-20 70,-65 14,-61 15,-60 -57,-90 -76,-32 -132,-64 -151,-88 -39,-47 -31,-130 16,-168 38,-29 98,-22 150,20 22,17 42,31 45,31 2,0 7,-13 10,-30 11,-52 80,-48 131,9 23,26 16,37 -14,21 -39,-21 -45,-1 -48,163 -1,86 -7,162 -14,174 -25,50 -140,68 -215,33 z m 157,-249 c 0,-74 -2,-81 -26,-100 -57,-44 -107,-39 -130,14 -16,40 -8,69 27,101 21,19 102,61 122,63 4,1 7,-35 7,-78 z"
       id="path16" />
    <path
       d="m 2466,15427 c -38,-28 -13,-97 34,-97 22,0 50,32 50,57 0,23 -29,53 -51,53 -9,0 -23,-6 -33,-13 z"
       id="path18" />
    <path
       d="m 7273,15420 c -54,-24 -83,-76 -65,-115 23,-50 72,-25 72,36 0,43 27,69 70,69 38,0 60,-20 70,-65 14,-61 15,-60 -57,-90 -76,-32 -132,-64 -151,-88 -39,-47 -31,-130 16,-168 38,-29 98,-22 150,20 22,17 42,31 45,31 2,0 7,-13 10,-30 11,-52 80,-48 131,9 23,26 16,37 -14,21 -39,-21 -45,-1 -48,163 -1,86 -7,162 -14,174 -25,50 -140,68 -215,33 z m 157,-249 c 0,-74 -2,-81 -26,-100 -57,-44 -107,-39 -130,14 -16,40 -8,69 27,101 21,19 102,61 122,63 4,1 7,-35 7,-78 z"
       id="path20" />
    <path
       d="m 7676,15427 c -38,-28 -13,-97 34,-97 22,0 50,32 50,57 0,23 -29,53 -51,53 -9,0 -23,-6 -33,-13 z"
       id="path22" />
    <path
       d="m 9966,15427 c -38,-28 -13,-97 34,-97 22,0 50,32 50,57 0,23 -29,53 -51,53 -9,0 -23,-6 -33,-13 z"
       id="path24" />
    <path
       d="m 14433,15420 c -54,-24 -83,-76 -65,-115 23,-50 72,-25 72,36 0,43 27,69 70,69 38,0 60,-20 70,-65 14,-61 15,-60 -57,-90 -76,-32 -132,-64 -151,-88 -39,-47 -31,-130 16,-168 38,-29 98,-22 150,20 22,17 42,31 45,31 2,0 7,-13 10,-30 11,-52 80,-48 131,9 23,26 16,37 -14,21 -39,-21 -45,-1 -48,163 -1,86 -7,162 -14,174 -25,50 -140,68 -215,33 z m 157,-249 c 0,-74 -2,-81 -26,-100 -57,-44 -107,-39 -130,14 -16,40 -8,69 27,101 21,19 102,61 122,63 4,1 7,-35 7,-78 z"
       id="path26" />
    <path
       d="m 14826,15427 c -38,-28 -13,-97 34,-97 22,0 50,32 50,57 0,23 -29,53 -51,53 -9,0 -23,-6 -33,-13 z"
       id="path28" />
    <path
       d="m 17116,15427 c -38,-28 -13,-97 34,-97 22,0 50,32 50,57 0,23 -29,53 -51,53 -9,0 -23,-6 -33,-13 z"
       id="path30" />
    <path
       d="m 21863,15420 c -54,-24 -83,-76 -65,-115 23,-50 72,-25 72,36 0,43 27,69 70,69 38,0 60,-20 70,-65 14,-61 15,-60 -57,-90 -76,-32 -132,-64 -151,-88 -39,-47 -31,-130 16,-168 38,-29 98,-22 150,20 22,17 42,31 45,31 2,0 7,-13 10,-30 11,-52 80,-48 131,9 23,26 16,37 -14,21 -39,-21 -45,-1 -48,163 -1,86 -7,162 -14,174 -25,50 -140,68 -215,33 z m 157,-249 c 0,-74 -2,-81 -26,-100 -57,-44 -107,-39 -130,14 -16,40 -8,69 27,101 21,19 102,61 122,63 4,1 7,-35 7,-78 z"
       id="path32" />
    <path
       d="m 22256,15427 c -38,-28 -13,-97 34,-97 22,0 50,32 50,57 0,23 -29,53 -51,53 -9,0 -23,-6 -33,-13 z"
       id="path34" />
    <path
       d="m 24546,15427 c -38,-28 -13,-97 34,-97 22,0 50,32 50,57 0,23 -29,53 -51,53 -9,0 -23,-6 -33,-13 z"
       id="path36" />
    <path
       d="m 2655,15416 c 37,-16 59,-41 118,-130 l 46,-69 -74,-97 c -41,-54 -81,-100 -89,-103 -37,-15 -12,-27 54,-27 68,0 91,12 50,25 -11,3 -20,15 -20,25 0,19 84,140 98,140 10,0 92,-130 92,-146 0,-7 -9,-16 -20,-19 -46,-15 -14,-25 80,-25 55,0 100,3 100,8 0,4 -13,14 -29,23 -27,16 -119,136 -157,205 l -17,31 52,69 c 29,38 66,77 84,87 l 32,17 h -80 c -59,-1 -75,-3 -62,-11 25,-15 21,-39 -15,-93 l -31,-48 -34,53 c -39,63 -41,77 -10,89 15,6 -12,9 -88,9 -100,0 -107,-1 -80,-13 z"
       id="path38" />
    <path
       d="m 3957,15403 c 21,-21 48,-81 103,-226 40,-108 78,-196 84,-194 6,2 37,63 70,135 32,72 62,130 65,127 3,-2 29,-62 56,-134 28,-72 55,-131 61,-131 6,0 46,92 89,205 59,156 84,210 104,225 l 26,19 h -75 c -62,0 -70,-2 -47,-11 15,-5 27,-17 27,-26 0,-21 -93,-272 -101,-272 -9,0 -99,233 -99,257 0,14 10,28 28,37 25,14 21,15 -78,15 -65,0 -97,-3 -85,-9 27,-10 40,-27 60,-76 l 16,-42 -43,-96 c -24,-52 -46,-96 -49,-96 -9,0 -99,252 -99,278 0,14 8,26 23,32 15,6 -5,9 -72,9 l -93,1 z"
       id="path40" />
    <path
       d="m 7865,15416 c 37,-16 59,-41 118,-130 l 46,-69 -74,-97 c -41,-54 -81,-100 -89,-103 -37,-15 -12,-27 54,-27 68,0 91,12 50,25 -11,3 -20,15 -20,25 0,19 84,140 98,140 10,0 92,-130 92,-146 0,-7 -9,-16 -20,-19 -46,-15 -14,-25 80,-25 55,0 100,3 100,8 0,4 -13,14 -29,23 -27,16 -119,136 -157,205 l -17,31 52,69 c 29,38 66,77 84,87 l 32,17 h -80 c -59,-1 -75,-3 -62,-11 25,-15 21,-39 -15,-93 l -31,-48 -34,53 c -39,63 -41,77 -10,89 15,6 -12,9 -88,9 -100,0 -107,-1 -80,-13 z"
       id="path42" />
    <path
       d="m 8580,15410 c 0,-19 7,-20 255,-20 248,0 255,1 255,20 0,19 -7,20 -255,20 -248,0 -255,-1 -255,-20 z"
       id="path44" />
    <path
       d="m 10153,15407 c 16,-13 57,-84 103,-177 111,-227 105,-208 80,-269 -13,-29 -32,-61 -42,-72 -19,-18 -25,-19 -66,-8 -58,16 -81,2 -76,-45 4,-38 42,-62 82,-52 58,14 93,64 157,216 153,372 170,407 192,418 18,9 7,11 -53,11 -55,0 -69,-3 -52,-9 32,-13 28,-42 -21,-161 -24,-57 -47,-113 -51,-124 -6,-16 -19,3 -67,98 -67,133 -74,176 -29,188 14,4 -22,7 -80,8 l -105,1 z"
       id="path46" />
    <path
       d="m 11097,15403 c 21,-21 48,-81 103,-226 40,-108 78,-196 84,-194 6,2 37,63 70,135 32,72 62,130 65,127 3,-2 29,-62 56,-134 28,-72 55,-131 61,-131 6,0 46,92 89,205 59,156 84,210 104,225 l 26,19 h -75 c -62,0 -70,-2 -47,-11 15,-5 27,-17 27,-26 0,-21 -93,-272 -101,-272 -9,0 -99,233 -99,257 0,14 10,28 28,37 25,14 21,15 -78,15 -65,0 -97,-3 -85,-9 27,-10 40,-27 60,-76 l 16,-42 -43,-96 c -24,-52 -46,-96 -49,-96 -9,0 -99,252 -99,278 0,14 8,26 23,32 15,6 -5,9 -72,9 l -93,1 z"
       id="path48" />
    <path
       d="m 15015,15416 c 37,-16 59,-41 118,-130 l 46,-69 -74,-97 c -41,-54 -81,-100 -89,-103 -37,-15 -12,-27 54,-27 68,0 91,12 50,25 -11,3 -20,15 -20,25 0,19 84,140 98,140 10,0 92,-130 92,-146 0,-7 -9,-16 -20,-19 -46,-15 -14,-25 80,-25 55,0 100,3 100,8 0,4 -13,14 -29,23 -27,16 -119,136 -157,205 l -17,31 52,69 c 29,38 66,77 84,87 l 32,17 h -80 c -59,-1 -75,-3 -62,-11 25,-15 21,-39 -15,-93 l -31,-48 -34,53 c -39,63 -41,77 -10,89 15,6 -12,9 -88,9 -100,0 -107,-1 -80,-13 z"
       id="path50" />
    <path
       d="m 15730,15410 c 0,-19 7,-20 255,-20 248,0 255,1 255,20 0,19 -7,20 -255,20 -248,0 -255,-1 -255,-20 z"
       id="path52" />
    <path
       d="m 17303,15407 c 16,-13 57,-84 103,-177 111,-227 105,-208 80,-269 -13,-29 -32,-61 -42,-72 -19,-18 -25,-19 -66,-8 -58,16 -81,2 -76,-45 4,-38 42,-62 82,-52 58,14 93,64 157,216 153,372 170,407 192,418 18,9 7,11 -53,11 -55,0 -69,-3 -52,-9 32,-13 28,-42 -21,-161 -24,-57 -47,-113 -51,-124 -6,-16 -19,3 -67,98 -67,133 -74,176 -29,188 14,4 -22,7 -80,8 l -105,1 z"
       id="path54" />
    <path
       d="m 18247,15403 c 21,-21 48,-81 103,-226 40,-108 78,-196 84,-194 6,2 37,63 70,135 32,72 62,130 65,127 3,-2 29,-62 56,-134 28,-72 55,-131 61,-131 6,0 46,92 89,205 59,156 84,210 104,225 l 26,19 h -75 c -62,0 -70,-2 -47,-11 15,-5 27,-17 27,-26 0,-21 -93,-272 -101,-272 -9,0 -99,233 -99,257 0,14 10,28 28,37 25,14 21,15 -78,15 -65,0 -97,-3 -85,-9 27,-10 40,-27 60,-76 l 16,-42 -43,-96 c -24,-52 -46,-96 -49,-96 -9,0 -99,252 -99,278 0,14 8,26 23,32 15,6 -5,9 -72,9 l -93,1 z"
       id="path56" />
    <path
       d="m 22445,15416 c 37,-16 59,-41 118,-130 l 46,-69 -74,-97 c -41,-54 -81,-100 -89,-103 -37,-15 -12,-27 54,-27 68,0 91,12 50,25 -11,3 -20,15 -20,25 0,19 84,140 98,140 10,0 92,-130 92,-146 0,-7 -9,-16 -20,-19 -46,-15 -14,-25 80,-25 55,0 100,3 100,8 0,4 -13,14 -29,23 -27,16 -119,136 -157,205 l -17,31 52,69 c 29,38 66,77 84,87 l 32,17 h -80 c -59,-1 -75,-3 -62,-11 25,-15 21,-39 -15,-93 l -31,-48 -34,53 c -39,63 -41,77 -10,89 15,6 -12,9 -88,9 -100,0 -107,-1 -80,-13 z"
       id="path58" />
    <path
       d="m 23160,15410 c 0,-19 7,-20 255,-20 248,0 255,1 255,20 0,19 -7,20 -255,20 -248,0 -255,-1 -255,-20 z"
       id="path60" />
    <path
       d="m 24733,15407 c 16,-13 57,-84 103,-177 111,-227 105,-208 80,-269 -13,-29 -32,-61 -42,-72 -19,-18 -25,-19 -66,-8 -58,16 -81,2 -76,-45 4,-38 42,-62 82,-52 58,14 93,64 157,216 153,372 170,407 192,418 18,9 7,11 -53,11 -55,0 -69,-3 -52,-9 32,-13 28,-42 -21,-161 -24,-57 -47,-113 -51,-124 -6,-16 -19,3 -67,98 -67,133 -74,176 -29,188 14,4 -22,7 -80,8 l -105,1 z"
       id="path62" />
    <path
       d="m 25677,15403 c 21,-21 48,-81 103,-226 40,-108 78,-196 84,-194 6,2 37,63 70,135 32,72 62,130 65,127 3,-2 29,-62 56,-134 28,-72 55,-131 61,-131 6,0 46,92 89,205 59,156 84,210 104,225 l 26,19 h -75 c -62,0 -70,-2 -47,-11 15,-5 27,-17 27,-26 0,-21 -93,-272 -101,-272 -9,0 -99,233 -99,257 0,14 10,28 28,37 25,14 21,15 -78,15 -65,0 -97,-3 -85,-9 27,-10 40,-27 60,-76 l 16,-42 -43,-96 c -24,-52 -46,-96 -49,-96 -9,0 -99,252 -99,278 0,14 8,26 23,32 15,6 -5,9 -72,9 l -93,1 z"
       id="path64" />
    <path
       d="m 4654,15275 c -8,-21 2,-45 19,-45 21,0 38,25 31,44 -8,20 -43,21 -50,1 z"
       id="path66" />
    <path
       d="m 11794,15275 c -8,-21 2,-45 19,-45 21,0 38,25 31,44 -8,20 -43,21 -50,1 z"
       id="path68" />
    <path
       d="m 18944,15275 c -8,-21 2,-45 19,-45 21,0 38,25 31,44 -8,20 -43,21 -50,1 z"
       id="path70" />
    <path
       d="m 26374,15275 c -8,-21 2,-45 19,-45 21,0 38,25 31,44 -8,20 -43,21 -50,1 z"
       id="path72" />
    <path
       d="m 8580,15250 c 0,-19 7,-20 255,-20 248,0 255,1 255,20 0,19 -7,20 -255,20 -248,0 -255,-1 -255,-20 z"
       id="path74" />
    <path
       d="m 15730,15250 c 0,-19 7,-20 255,-20 248,0 255,1 255,20 0,19 -7,20 -255,20 -248,0 -255,-1 -255,-20 z"
       id="path76" />
    <path
       d="m 23160,15250 c 0,-19 7,-20 255,-20 248,0 255,1 255,20 0,19 -7,20 -255,20 -248,0 -255,-1 -255,-20 z"
       id="path78" />
    <path
       d="m 4625,15160 c 3,-5 13,-10 21,-10 11,0 14,-21 14,-113 v -113 l -27,-11 c -24,-9 -18,-11 45,-12 47,-1 71,3 67,9 -3,6 -15,10 -26,10 -18,0 -19,8 -19,125 v 125 h -41 c -24,0 -38,-4 -34,-10 z"
       id="path80" />
    <path
       d="m 11765,15160 c 3,-5 13,-10 21,-10 11,0 14,-21 14,-113 v -113 l -27,-11 c -24,-9 -18,-11 45,-12 47,-1 71,3 67,9 -3,6 -15,10 -26,10 -18,0 -19,8 -19,125 v 125 h -41 c -24,0 -38,-4 -34,-10 z"
       id="path82" />
    <path
       d="m 18915,15160 c 3,-5 13,-10 21,-10 11,0 14,-21 14,-113 v -113 l -27,-11 c -24,-9 -18,-11 45,-12 47,-1 71,3 67,9 -3,6 -15,10 -26,10 -18,0 -19,8 -19,125 v 125 h -41 c -24,0 -38,-4 -34,-10 z"
       id="path84" />
    <path
       d="m 26345,15160 c 3,-5 13,-10 21,-10 11,0 14,-21 14,-113 v -113 l -27,-11 c -24,-9 -18,-11 45,-12 47,-1 71,3 67,9 -3,6 -15,10 -26,10 -18,0 -19,8 -19,125 v 125 h -41 c -24,0 -38,-4 -34,-10 z"
       id="path86" />
    <path
       d="m 2453,15064 c -15,-24 -15,-29 -2,-53 18,-32 54,-39 80,-15 24,22 24,56 1,77 -27,25 -59,21 -79,-9 z"
       id="path88" />
    <path
       d="m 3470,15070 c -41,-41 -8,-98 49,-85 30,6 31,5 31,-25 0,-32 -38,-79 -85,-106 -11,-7 -17,-15 -13,-19 12,-12 98,45 119,78 29,48 26,117 -7,151 -32,31 -67,33 -94,6 z"
       id="path90" />
    <path
       d="m 7663,15064 c -15,-24 -15,-29 -2,-53 18,-32 54,-39 80,-15 24,22 24,56 1,77 -27,25 -59,21 -79,-9 z"
       id="path92" />
    <path
       d="m 9953,15064 c -15,-24 -15,-29 -2,-53 18,-32 54,-39 80,-15 24,22 24,56 1,77 -27,25 -59,21 -79,-9 z"
       id="path94" />
    <path
       d="m 10630,15070 c -41,-41 -8,-98 49,-85 30,6 31,5 31,-25 0,-32 -38,-79 -85,-106 -11,-7 -17,-15 -13,-19 12,-12 98,45 119,78 29,48 26,117 -7,151 -32,31 -67,33 -94,6 z"
       id="path96" />
    <path
       d="m 14813,15064 c -15,-24 -15,-29 -2,-53 18,-32 54,-39 80,-15 24,22 24,56 1,77 -27,25 -59,21 -79,-9 z"
       id="path98" />
    <path
       d="m 17103,15064 c -15,-24 -15,-29 -2,-53 18,-32 54,-39 80,-15 24,22 24,56 1,77 -27,25 -59,21 -79,-9 z"
       id="path100" />
    <path
       d="m 17780,15070 c -41,-41 -8,-98 49,-85 30,6 31,5 31,-25 0,-32 -38,-79 -85,-106 -11,-7 -17,-15 -13,-19 12,-12 98,45 119,78 29,48 26,117 -7,151 -32,31 -67,33 -94,6 z"
       id="path102" />
    <path
       d="m 22243,15064 c -15,-24 -15,-29 -2,-53 18,-32 54,-39 80,-15 24,22 24,56 1,77 -27,25 -59,21 -79,-9 z"
       id="path104" />
    <path
       d="m 24533,15064 c -15,-24 -15,-29 -2,-53 18,-32 54,-39 80,-15 24,22 24,56 1,77 -27,25 -59,21 -79,-9 z"
       id="path106" />
    <path
       d="m 25210,15070 c -41,-41 -8,-98 49,-85 30,6 31,5 31,-25 0,-32 -38,-79 -85,-106 -11,-7 -17,-15 -13,-19 12,-12 98,45 119,78 29,48 26,117 -7,151 -32,31 -67,33 -94,6 z"
       id="path108" />
    <path
       d="m 2920,13225 v -995 h 35 35 v 995 995 h -35 -35 z"
       id="path110" />
    <path
       d="m 9512,13073 3,-1148 33,-3 32,-3 v 1150 1151 h -35 -35 z"
       id="path112" />
    <path
       d="m 16670,13069 v -1150 l 33,3 32,3 3,1148 2,1147 h -35 -35 z"
       id="path114" />
    <path
       d="m 24100,13069 v -1150 l 33,3 32,3 3,1148 2,1147 h -35 -35 z"
       id="path116" />
    <path
       d="m 2010,11405 v -425 h 105 c 87,0 105,3 105,15 0,12 -14,15 -70,15 h -70 v 395 395 h 70 c 56,0 70,3 70,15 0,12 -18,15 -105,15 h -105 z"
       id="path118" />
    <path
       d="m 3430,11815 c 0,-12 14,-15 65,-15 h 65 v -395 -395 h -65 c -51,0 -65,-3 -65,-15 0,-12 18,-15 100,-15 h 100 v 425 425 h -100 c -82,0 -100,-3 -100,-15 z"
       id="path120" />
    <path
       d="m 1458,11811 c 19,-5 39,-14 45,-20 17,-17 17,-575 0,-592 -6,-6 -26,-15 -45,-19 -21,-5 17,-8 107,-8 93,0 129,3 105,8 -54,13 -60,29 -60,166 v 123 l 68,-6 c 86,-7 143,9 186,52 57,57 66,160 18,224 -10,14 -39,37 -63,51 -42,24 -53,25 -219,27 -111,1 -163,-1 -142,-6 z m 265,-32 c 44,-23 66,-53 78,-105 27,-120 -56,-208 -168,-178 -22,6 -23,10 -23,144 0,101 3,140 13,143 23,10 78,7 100,-4 z"
       id="path122" />
    <path
       d="m 2363,11600 c -54,-24 -83,-76 -65,-115 23,-50 72,-25 72,36 0,43 27,69 70,69 38,0 60,-20 70,-65 14,-61 15,-60 -57,-90 -76,-32 -132,-64 -151,-88 -39,-47 -31,-130 16,-168 38,-29 98,-22 150,20 22,17 42,31 45,31 2,0 7,-13 10,-30 11,-52 80,-48 131,9 23,26 16,37 -14,21 -39,-21 -45,-1 -48,163 -1,86 -7,162 -14,174 -25,50 -140,68 -215,33 z m 157,-249 c 0,-74 -2,-81 -26,-100 -57,-44 -107,-39 -130,14 -16,40 -8,69 27,101 21,19 102,61 122,63 4,1 7,-35 7,-78 z"
       id="path124" />
    <path
       d="m 2766,11607 c -38,-28 -13,-97 34,-97 22,0 50,32 50,57 0,23 -29,53 -51,53 -9,0 -23,-6 -33,-13 z"
       id="path126" />
    <path
       d="m 2955,11596 c 37,-16 59,-41 118,-130 l 46,-69 -74,-97 c -41,-54 -81,-100 -89,-103 -37,-15 -12,-27 54,-27 68,0 91,12 50,25 -11,3 -20,15 -20,25 0,19 84,140 98,140 10,0 92,-130 92,-146 0,-7 -9,-16 -20,-19 -46,-15 -14,-25 80,-25 55,0 100,3 100,8 0,4 -13,14 -29,23 -27,16 -119,136 -157,205 l -17,31 52,69 c 29,38 66,77 84,87 l 32,17 h -80 c -59,-1 -75,-3 -62,-11 25,-15 21,-39 -15,-93 l -31,-48 -34,53 c -39,63 -41,77 -10,89 15,6 -12,9 -88,9 -100,0 -107,-1 -80,-13 z"
       id="path128" />
    <path
       d="m 4257,11583 c 21,-21 48,-81 103,-226 40,-108 78,-196 84,-194 6,2 37,63 70,135 32,72 62,130 65,127 3,-2 29,-62 56,-134 28,-72 55,-131 61,-131 6,0 46,92 89,205 59,156 84,210 104,225 l 26,19 h -75 c -62,0 -70,-2 -47,-11 15,-5 27,-17 27,-26 0,-21 -93,-272 -101,-272 -9,0 -99,233 -99,257 0,14 10,28 28,37 25,14 21,15 -78,15 -65,0 -97,-3 -85,-9 27,-10 40,-27 60,-76 l 16,-42 -43,-96 c -24,-52 -46,-96 -49,-96 -9,0 -99,252 -99,278 0,14 8,26 23,32 15,6 -5,9 -72,9 l -93,1 z"
       id="path130" />
    <path
       d="m 850,11560 c 0,-19 7,-20 235,-20 h 235 v -75 c 0,-68 2,-75 20,-75 19,0 20,7 20,95 v 95 h -255 c -248,0 -255,-1 -255,-20 z"
       id="path132" />
    <path
       d="m 4954,11455 c -8,-21 2,-45 19,-45 21,0 38,25 31,44 -8,20 -43,21 -50,1 z"
       id="path134" />
    <path
       d="m 4925,11340 c 3,-5 13,-10 21,-10 11,0 14,-21 14,-113 v -113 l -27,-11 c -24,-9 -18,-11 45,-12 47,-1 71,3 67,9 -3,6 -15,10 -26,10 -18,0 -19,8 -19,125 v 125 h -41 c -24,0 -38,-4 -34,-10 z"
       id="path136" />
    <path
       d="m 14380,11308 c -56,-21 -96,-47 -52,-33 50,15 52,5 52,-301 v -284 l 40,-20 c 197,-100 391,80 329,305 -15,52 -74,111 -122,120 -51,10 -81,0 -127,-41 l -40,-36 v 156 c 0,118 -3,156 -12,155 -7,0 -38,-9 -68,-21 z m 244,-309 c 76,-66 76,-221 0,-297 -30,-30 -39,-34 -73,-29 -21,2 -50,13 -65,22 -26,17 -26,18 -26,149 0,125 1,134 23,153 47,43 94,44 141,2 z"
       id="path138" />
    <path
       d="m 21810,11308 c -56,-21 -96,-47 -52,-33 50,15 52,5 52,-301 v -284 l 40,-20 c 197,-100 391,80 329,305 -15,52 -74,111 -122,120 -51,10 -81,0 -127,-41 l -40,-36 v 156 c 0,118 -3,156 -12,155 -7,0 -38,-9 -68,-21 z m 244,-309 c 76,-66 76,-221 0,-297 -30,-30 -39,-34 -73,-29 -21,2 -50,13 -65,22 -26,17 -26,18 -26,149 0,125 1,134 23,153 47,43 94,44 141,2 z"
       id="path140" />
    <path
       d="m 8310,10885 v -425 h 105 c 87,0 105,3 105,15 0,12 -14,15 -70,15 h -70 v 395 395 h 70 c 56,0 70,3 70,15 0,12 -18,15 -105,15 h -105 z"
       id="path142" />
    <path
       d="m 9730,11295 c 0,-12 14,-15 65,-15 h 65 v -395 -395 h -65 c -51,0 -65,-3 -65,-15 0,-12 18,-15 100,-15 h 100 v 425 425 h -100 c -82,0 -100,-3 -100,-15 z"
       id="path144" />
    <path
       d="m 7758,11291 c 19,-5 39,-14 45,-20 17,-17 17,-575 0,-592 -6,-6 -26,-15 -45,-19 -21,-5 17,-8 107,-8 93,0 129,3 105,8 -54,13 -60,29 -60,166 v 123 l 68,-6 c 86,-7 143,9 186,52 57,57 66,160 18,224 -10,14 -39,37 -63,51 -42,24 -53,25 -219,27 -111,1 -163,-1 -142,-6 z m 265,-32 c 44,-23 66,-53 78,-105 27,-120 -56,-208 -168,-178 -22,6 -23,10 -23,144 0,101 3,140 13,143 23,10 78,7 100,-4 z"
       id="path146" />
    <path
       d="m 2753,11244 c -15,-24 -15,-29 -2,-53 18,-32 54,-39 80,-15 24,22 24,56 1,77 -27,25 -59,21 -79,-9 z"
       id="path148" />
    <path
       d="m 3770,11250 c -41,-41 -8,-98 49,-85 30,6 31,5 31,-25 0,-32 -38,-79 -85,-106 -11,-7 -17,-15 -13,-19 12,-12 98,45 119,78 29,48 26,117 -7,151 -32,31 -67,33 -94,6 z"
       id="path150" />
    <path
       d="m 8663,11080 c -54,-24 -83,-76 -65,-115 23,-50 72,-25 72,36 0,43 27,69 70,69 38,0 60,-20 70,-65 14,-61 15,-60 -57,-90 -76,-32 -132,-64 -151,-88 -39,-47 -31,-130 16,-168 38,-29 98,-22 150,20 22,17 42,31 45,31 2,0 7,-13 10,-30 11,-52 80,-48 131,9 23,26 16,37 -14,21 -39,-21 -45,-1 -48,163 -1,86 -7,162 -14,174 -25,50 -140,68 -215,33 z m 157,-249 c 0,-74 -2,-81 -26,-100 -57,-44 -107,-39 -130,14 -16,40 -8,69 27,101 21,19 102,61 122,63 4,1 7,-35 7,-78 z"
       id="path152" />
    <path
       d="m 9066,11087 c -38,-28 -13,-97 34,-97 22,0 50,32 50,57 0,23 -29,53 -51,53 -9,0 -23,-6 -33,-13 z"
       id="path154" />
    <path
       d="m 14876,11087 c -38,-28 -13,-97 34,-97 22,0 50,32 50,57 0,23 -29,53 -51,53 -9,0 -23,-6 -33,-13 z"
       id="path156" />
    <path
       d="m 16778,11091 c -15,-5 -41,-19 -57,-30 -94,-67 -116,-239 -44,-343 29,-42 94,-78 142,-78 71,0 147,66 170,148 14,47 1,46 -30,-2 -83,-132 -249,-49 -249,124 0,89 49,160 111,160 33,0 69,-31 69,-59 0,-46 69,-70 90,-32 26,50 -41,113 -124,117 -28,2 -63,-1 -78,-5 z"
       id="path158" />
    <path
       d="m 17116,11087 c -38,-28 -13,-97 34,-97 22,0 50,32 50,57 0,23 -29,53 -51,53 -9,0 -23,-6 -33,-13 z"
       id="path160" />
    <path
       d="m 22306,11087 c -38,-28 -13,-97 34,-97 22,0 50,32 50,57 0,23 -29,53 -51,53 -9,0 -23,-6 -33,-13 z"
       id="path162" />
    <path
       d="m 24208,11091 c -15,-5 -41,-19 -57,-30 -94,-67 -116,-239 -44,-343 29,-42 94,-78 142,-78 71,0 147,66 170,148 14,47 1,46 -30,-2 -83,-132 -249,-49 -249,124 0,89 49,160 111,160 33,0 69,-31 69,-59 0,-46 69,-70 90,-32 26,50 -41,113 -124,117 -28,2 -63,-1 -78,-5 z"
       id="path164" />
    <path
       d="m 24546,11087 c -38,-28 -13,-97 34,-97 22,0 50,32 50,57 0,23 -29,53 -51,53 -9,0 -23,-6 -33,-13 z"
       id="path166" />
    <path
       d="m 9255,11076 c 37,-16 59,-41 118,-130 l 46,-69 -74,-97 c -41,-54 -81,-100 -89,-103 -37,-15 -12,-27 54,-27 68,0 91,12 50,25 -11,3 -20,15 -20,25 0,19 84,140 98,140 10,0 92,-130 92,-146 0,-7 -9,-16 -20,-19 -46,-15 -14,-25 80,-25 55,0 100,3 100,8 0,4 -13,14 -29,23 -27,16 -119,136 -157,205 l -17,31 52,69 c 29,38 66,77 84,87 l 32,17 h -80 c -59,-1 -75,-3 -62,-11 25,-15 21,-39 -15,-93 l -31,-48 -34,53 c -39,63 -41,77 -10,89 15,6 -12,9 -88,9 -100,0 -107,-1 -80,-13 z"
       id="path168" />
    <path
       d="m 10557,11063 c 21,-21 48,-81 103,-226 40,-108 78,-196 84,-194 6,2 37,63 70,135 32,72 62,130 65,127 3,-2 29,-62 56,-134 28,-72 55,-131 61,-131 6,0 46,92 89,205 59,156 84,210 104,225 l 26,19 h -75 c -62,0 -70,-2 -47,-11 15,-5 27,-17 27,-26 0,-21 -93,-272 -101,-272 -9,0 -99,233 -99,257 0,14 10,28 28,37 25,14 21,15 -78,15 -65,0 -97,-3 -85,-9 27,-10 40,-27 60,-76 l 16,-42 -43,-96 c -24,-52 -46,-96 -49,-96 -9,0 -99,252 -99,278 0,14 8,26 23,32 15,6 -5,9 -72,9 l -93,1 z"
       id="path170" />
    <path
       d="m 15063,11067 c 16,-13 57,-84 103,-177 111,-227 105,-208 80,-269 -13,-29 -32,-61 -42,-72 -19,-18 -25,-19 -66,-8 -58,16 -81,2 -76,-45 4,-38 42,-62 82,-52 58,14 93,64 157,216 153,372 170,407 192,418 18,9 7,11 -53,11 -55,0 -69,-3 -52,-9 32,-13 28,-42 -21,-161 -24,-57 -47,-113 -51,-124 -6,-16 -19,3 -67,98 -67,133 -74,176 -29,188 14,4 -22,7 -80,8 l -105,1 z"
       id="path172" />
    <path
       d="m 15780,11070 c 0,-19 7,-20 255,-20 248,0 255,1 255,20 0,19 -7,20 -255,20 -248,0 -255,-1 -255,-20 z"
       id="path174" />
    <path
       d="m 17320,11030 c 0,-66 14,-80 24,-25 4,19 15,39 26,45 19,10 200,15 200,5 0,-3 -61,-89 -135,-190 -75,-102 -138,-192 -141,-200 -5,-13 20,-15 185,-15 180,0 191,1 191,19 0,10 3,39 6,65 8,55 -10,65 -20,11 -11,-56 -37,-66 -156,-63 l -102,3 141,191 c 78,106 141,197 141,203 0,8 -55,11 -180,11 h -180 z"
       id="path176" />
    <path
       d="m 18247,11063 c 21,-21 48,-81 103,-226 40,-108 78,-196 84,-194 6,2 37,63 70,135 32,72 62,130 65,127 3,-2 29,-62 56,-134 28,-72 55,-131 61,-131 6,0 46,92 89,205 59,156 84,210 104,225 l 26,19 h -75 c -62,0 -70,-2 -47,-11 15,-5 27,-17 27,-26 0,-21 -93,-272 -101,-272 -9,0 -99,233 -99,257 0,14 10,28 28,37 25,14 21,15 -78,15 -65,0 -97,-3 -85,-9 27,-10 40,-27 60,-76 l 16,-42 -43,-96 c -24,-52 -46,-96 -49,-96 -9,0 -99,252 -99,278 0,14 8,26 23,32 15,6 -5,9 -72,9 l -93,1 z"
       id="path178" />
    <path
       d="m 22503,11067 c 16,-13 57,-84 103,-177 111,-227 105,-208 80,-269 -13,-29 -32,-61 -42,-72 -19,-18 -25,-19 -66,-8 -58,16 -81,2 -76,-45 4,-38 42,-62 82,-52 58,14 93,64 157,216 153,372 170,407 192,418 18,9 7,11 -53,11 -55,0 -69,-3 -52,-9 32,-13 28,-42 -21,-161 -24,-57 -47,-113 -51,-124 -6,-16 -19,3 -67,98 -67,133 -74,176 -29,188 14,4 -22,7 -80,8 l -105,1 z"
       id="path180" />
    <path
       d="m 23210,11070 c 0,-19 7,-20 255,-20 248,0 255,1 255,20 0,19 -7,20 -255,20 -248,0 -255,-1 -255,-20 z"
       id="path182" />
    <path
       d="m 24750,11030 c 0,-66 14,-80 24,-25 4,19 15,39 26,45 19,10 200,15 200,5 0,-3 -61,-89 -135,-190 -75,-102 -138,-192 -141,-200 -5,-13 20,-15 185,-15 180,0 191,1 191,19 0,10 3,39 6,65 8,55 -10,65 -20,11 -11,-56 -37,-66 -156,-63 l -102,3 141,191 c 78,106 141,197 141,203 0,8 -55,11 -180,11 h -180 z"
       id="path184" />
    <path
       d="m 25677,11063 c 21,-21 48,-81 103,-226 40,-108 78,-196 84,-194 6,2 37,63 70,135 32,72 62,130 65,127 3,-2 29,-62 56,-134 28,-72 55,-131 61,-131 6,0 46,92 89,205 59,156 84,210 104,225 l 26,19 h -75 c -62,0 -70,-2 -47,-11 15,-5 27,-17 27,-26 0,-21 -93,-272 -101,-272 -9,0 -99,233 -99,257 0,14 10,28 28,37 25,14 21,15 -78,15 -65,0 -97,-3 -85,-9 27,-10 40,-27 60,-76 l 16,-42 -43,-96 c -24,-52 -46,-96 -49,-96 -9,0 -99,252 -99,278 0,14 8,26 23,32 15,6 -5,9 -72,9 l -93,1 z"
       id="path186" />
    <path
       d="m 2933,10727 c -210,-127 -382,-235 -383,-239 0,-4 38,-19 85,-33 47,-14 123,-37 171,-51 47,-14 84,-29 82,-34 -2,-5 -77,-88 -167,-186 -90,-98 -159,-180 -153,-182 11,-3 764,467 772,482 3,6 -71,29 -163,52 -93,23 -170,44 -172,46 -3,2 69,85 160,184 155,169 176,194 158,194 -5,0 -180,-105 -390,-233 z"
       id="path188" />
    <path
       d="m 11254,10935 c -8,-21 2,-45 19,-45 21,0 38,25 31,44 -8,20 -43,21 -50,1 z"
       id="path190" />
    <path
       d="m 18944,10935 c -8,-21 2,-45 19,-45 21,0 38,25 31,44 -8,20 -43,21 -50,1 z"
       id="path192" />
    <path
       d="m 26374,10935 c -8,-21 2,-45 19,-45 21,0 38,25 31,44 -8,20 -43,21 -50,1 z"
       id="path194" />
    <path
       d="m 15780,10910 c 0,-19 7,-20 255,-20 248,0 255,1 255,20 0,19 -7,20 -255,20 -248,0 -255,-1 -255,-20 z"
       id="path196" />
    <path
       d="m 23210,10910 c 0,-19 7,-20 255,-20 248,0 255,1 255,20 0,19 -7,20 -255,20 -248,0 -255,-1 -255,-20 z"
       id="path198" />
    <path
       d="m 11225,10820 c 3,-5 13,-10 21,-10 11,0 14,-21 14,-113 v -113 l -27,-11 c -24,-9 -18,-11 45,-12 47,-1 71,3 67,9 -3,6 -15,10 -26,10 -18,0 -19,8 -19,125 v 125 h -41 c -24,0 -38,-4 -34,-10 z"
       id="path200" />
    <path
       d="m 18915,10820 c 3,-5 13,-10 21,-10 11,0 14,-21 14,-113 v -113 l -27,-11 c -24,-9 -18,-11 45,-12 47,-1 71,3 67,9 -3,6 -15,10 -26,10 -18,0 -19,8 -19,125 v 125 h -41 c -24,0 -38,-4 -34,-10 z"
       id="path202" />
    <path
       d="m 26345,10820 c 3,-5 13,-10 21,-10 11,0 14,-21 14,-113 v -113 l -27,-11 c -24,-9 -18,-11 45,-12 47,-1 71,3 67,9 -3,6 -15,10 -26,10 -18,0 -19,8 -19,125 v 125 h -41 c -24,0 -38,-4 -34,-10 z"
       id="path204" />
    <path
       d="m 9053,10724 c -15,-24 -15,-29 -2,-53 18,-32 54,-39 80,-15 24,22 24,56 1,77 -27,25 -59,21 -79,-9 z"
       id="path206" />
    <path
       d="m 10070,10730 c -41,-41 -8,-98 49,-85 30,6 31,5 31,-25 0,-32 -38,-79 -85,-106 -11,-7 -17,-15 -13,-19 12,-12 98,45 119,78 29,48 26,117 -7,151 -32,31 -67,33 -94,6 z"
       id="path208" />
    <path
       d="m 14863,10724 c -15,-24 -15,-29 -2,-53 18,-32 54,-39 80,-15 24,22 24,56 1,77 -27,25 -59,21 -79,-9 z"
       id="path210" />
    <path
       d="m 17103,10724 c -15,-24 -15,-29 -2,-53 18,-32 54,-39 80,-15 24,22 24,56 1,77 -27,25 -59,21 -79,-9 z"
       id="path212" />
    <path
       d="m 17760,10730 c -41,-41 -8,-98 49,-85 30,6 31,5 31,-25 0,-32 -38,-79 -85,-106 -11,-7 -17,-15 -13,-19 12,-12 98,45 119,78 29,48 26,117 -7,151 -32,31 -67,33 -94,6 z"
       id="path214" />
    <path
       d="m 22293,10724 c -15,-24 -15,-29 -2,-53 18,-32 54,-39 80,-15 24,22 24,56 1,77 -27,25 -59,21 -79,-9 z"
       id="path216" />
    <path
       d="m 24533,10724 c -15,-24 -15,-29 -2,-53 18,-32 54,-39 80,-15 24,22 24,56 1,77 -27,25 -59,21 -79,-9 z"
       id="path218" />
    <path
       d="m 25190,10730 c -41,-41 -8,-98 49,-85 30,6 31,5 31,-25 0,-32 -38,-79 -85,-106 -11,-7 -17,-15 -13,-19 12,-12 98,45 119,78 29,48 26,117 -7,151 -32,31 -67,33 -94,6 z"
       id="path220" />
    <path
       d="m 9515,9868 c -3,-7 -4,-519 -3,-1138 l 3,-1125 33,-3 32,-3 v 1140 1141 h -30 c -17,0 -33,-6 -35,-12 z"
       id="path222" />
    <path
       d="M 16670,8581 V 7280 h 35 35 l -2,1298 -3,1297 -32,3 -33,3 z"
       id="path224" />
    <path
       d="M 24100,8580 V 7280 h 35 35 v 1300 1300 h -35 -35 z"
       id="path226" />
    <path
       d="m 8870,7178 c -56,-21 -96,-47 -52,-33 50,15 52,5 52,-301 v -284 l 40,-20 c 197,-100 391,80 329,305 -15,52 -74,111 -122,120 -51,10 -81,0 -127,-41 l -40,-36 v 156 c 0,118 -3,156 -12,155 -7,0 -38,-9 -68,-21 z m 244,-309 c 76,-66 76,-221 0,-297 -30,-30 -39,-34 -73,-29 -21,2 -50,13 -65,22 -26,17 -26,18 -26,149 0,125 1,134 23,153 47,43 94,44 141,2 z"
       id="path228" />
    <path
       d="m 8570,6755 v -425 h 105 c 87,0 105,3 105,15 0,12 -14,15 -70,15 h -70 v 395 395 h 70 c 56,0 70,3 70,15 0,12 -18,15 -105,15 h -105 z"
       id="path230" />
    <path
       d="m 10040,7165 c 0,-12 14,-15 65,-15 h 65 v -395 -395 h -65 c -51,0 -65,-3 -65,-15 0,-12 18,-15 100,-15 h 100 v 425 425 h -100 c -82,0 -100,-3 -100,-15 z"
       id="path232" />
    <path
       d="m 8018,7161 c 19,-5 39,-14 45,-20 17,-17 17,-575 0,-592 -6,-6 -26,-15 -45,-19 -21,-5 17,-8 107,-8 93,0 129,3 105,8 -54,13 -60,29 -60,166 v 123 l 68,-6 c 86,-7 143,9 186,52 57,57 66,160 18,224 -10,14 -39,37 -63,51 -42,24 -53,25 -219,27 -111,1 -163,-1 -142,-6 z m 265,-32 c 44,-23 66,-53 78,-105 27,-120 -56,-208 -168,-178 -22,6 -23,10 -23,144 0,101 3,140 13,143 23,10 78,7 100,-4 z"
       id="path234" />
    <path
       d="m 9376,6957 c -38,-28 -13,-97 34,-97 22,0 50,32 50,57 0,23 -29,53 -51,53 -9,0 -23,-6 -33,-13 z"
       id="path236" />
    <path
       d="m 9563,6937 c 16,-13 57,-84 103,-177 111,-227 105,-208 80,-269 -13,-29 -32,-61 -42,-72 -19,-18 -25,-19 -66,-8 -58,16 -81,2 -76,-45 4,-38 42,-62 82,-52 58,14 93,64 157,216 153,372 170,407 192,418 18,9 7,11 -53,11 -55,0 -69,-3 -52,-9 32,-13 28,-42 -21,-161 -24,-57 -47,-113 -51,-124 -6,-16 -19,3 -67,98 -67,133 -74,176 -29,188 14,4 -22,7 -80,8 l -105,1 z"
       id="path238" />
    <path
       d="m 10867,6933 c 21,-21 48,-81 103,-226 40,-108 78,-196 84,-194 6,2 37,63 70,135 32,72 62,130 65,127 3,-2 29,-62 56,-134 28,-72 55,-131 61,-131 6,0 46,92 89,205 59,156 84,210 104,225 l 26,19 h -75 c -62,0 -70,-2 -47,-11 15,-5 27,-17 27,-26 0,-21 -93,-272 -101,-272 -9,0 -99,233 -99,257 0,14 10,28 28,37 25,14 21,15 -78,15 -65,0 -97,-3 -85,-9 27,-10 40,-27 60,-76 l 16,-42 -43,-96 c -24,-52 -46,-96 -49,-96 -9,0 -99,252 -99,278 0,14 8,26 23,32 15,6 -5,9 -72,9 l -93,1 z"
       id="path240" />
    <path
       d="m 7420,6910 c 0,-19 7,-20 235,-20 h 235 v -75 c 0,-68 2,-75 20,-75 19,0 20,7 20,95 v 95 h -255 c -248,0 -255,-1 -255,-20 z"
       id="path242" />
    <path
       d="m 11564,6805 c -8,-21 2,-45 19,-45 21,0 38,25 31,44 -8,20 -43,21 -50,1 z"
       id="path244" />
    <path
       d="m 11535,6690 c 3,-5 13,-10 21,-10 11,0 14,-21 14,-113 v -113 l -27,-11 c -24,-9 -18,-11 45,-12 47,-1 71,3 67,9 -3,6 -15,10 -26,10 -18,0 -19,8 -19,125 v 125 h -41 c -24,0 -38,-4 -34,-10 z"
       id="path246" />
    <path
       d="m 24365,6659 c -52,-21 -88,-47 -50,-35 40,11 49,-7 53,-108 3,-53 2,-96 -1,-96 -2,0 -18,7 -33,15 -120,62 -267,-64 -268,-230 -1,-83 21,-133 76,-178 62,-50 153,-46 197,7 20,24 31,19 31,-14 0,-36 4,-36 72,-9 54,21 86,42 52,33 -48,-11 -49,-5 -53,326 -2,224 -6,310 -15,309 -6,0 -33,-9 -61,-20 z m -48,-259 c 42,-25 53,-67 53,-203 v -107 l -32,-20 c -41,-25 -72,-25 -112,-1 -47,30 -69,74 -74,157 -4,61 -1,80 18,118 35,72 88,93 147,56 z"
       id="path248" />
    <path
       d="m 15460,6235 v -425 h 105 c 87,0 105,3 105,15 0,12 -14,15 -70,15 h -70 v 395 395 h 70 c 56,0 70,3 70,15 0,12 -18,15 -105,15 h -105 z"
       id="path250" />
    <path
       d="m 16880,6645 c 0,-12 14,-15 65,-15 h 65 v -395 -395 h -65 c -51,0 -65,-3 -65,-15 0,-12 18,-15 100,-15 h 100 v 425 425 h -100 c -82,0 -100,-3 -100,-15 z"
       id="path252" />
    <path
       d="m 14908,6641 c 19,-5 39,-14 45,-20 9,-9 12,-94 12,-296 0,-202 -3,-287 -12,-296 -6,-6 -26,-15 -45,-19 -21,-5 17,-8 107,-8 93,0 129,3 105,8 -54,13 -60,29 -60,166 v 123 l 68,-6 c 86,-7 143,9 186,52 57,57 66,160 18,224 -10,14 -39,37 -63,51 -42,24 -53,25 -219,27 -111,1 -163,-1 -142,-6 z m 265,-32 c 44,-23 66,-53 78,-105 27,-120 -56,-208 -168,-178 -22,6 -23,10 -23,144 0,101 3,140 13,143 23,10 78,7 100,-4 z"
       id="path254" />
    <path
       d="m 9363,6594 c -15,-24 -15,-29 -2,-53 18,-32 54,-39 80,-15 24,22 24,56 1,77 -27,25 -59,21 -79,-9 z"
       id="path256" />
    <path
       d="m 10380,6600 c -41,-41 -8,-98 49,-85 30,6 31,5 31,-25 0,-32 -38,-79 -85,-106 -11,-7 -17,-15 -13,-19 12,-12 98,45 119,78 29,48 26,117 -7,151 -32,31 -67,33 -94,6 z"
       id="path258" />
    <path
       d="m 24888,6546 c -21,-44 -74,-103 -99,-111 -31,-10 -22,-25 16,-25 h 35 v -176 c 0,-177 5,-205 39,-231 38,-29 110,-3 137,48 8,17 12,29 7,27 -4,-2 -21,-10 -36,-18 -21,-10 -33,-11 -45,-3 -15,9 -17,34 -20,182 l -2,171 h 50 c 38,0 50,4 50,15 0,11 -12,15 -50,15 h -50 v 70 c 0,39 -4,70 -8,70 -5,0 -16,-15 -24,-34 z"
       id="path260" />
    <path
       d="m 15813,6430 c -54,-24 -83,-76 -65,-115 23,-50 72,-25 72,36 0,43 27,69 70,69 38,0 60,-20 70,-65 14,-61 15,-60 -57,-90 -76,-32 -132,-64 -151,-88 -39,-47 -31,-130 16,-168 38,-29 98,-22 150,20 22,17 42,31 45,31 2,0 7,-13 10,-30 11,-52 80,-48 131,9 23,26 16,37 -14,21 -39,-21 -45,-1 -48,163 -1,86 -7,162 -14,174 -25,50 -140,68 -215,33 z m 157,-249 c 0,-74 -2,-81 -26,-100 -57,-44 -107,-39 -130,14 -16,40 -8,69 27,101 21,19 102,61 122,63 4,1 7,-35 7,-78 z"
       id="path262" />
    <path
       d="m 16216,6437 c -38,-28 -13,-97 34,-97 22,0 50,32 50,57 0,23 -29,53 -51,53 -9,0 -23,-6 -33,-13 z"
       id="path264" />
    <path
       d="m 22018,6441 c -15,-5 -41,-19 -57,-30 -94,-67 -116,-239 -44,-343 29,-42 94,-78 142,-78 71,0 147,66 170,148 14,47 1,46 -30,-2 -83,-132 -249,-49 -249,124 0,89 49,160 111,160 33,0 69,-31 69,-59 0,-46 69,-70 90,-32 26,50 -41,113 -124,117 -28,2 -63,-1 -78,-5 z"
       id="path266" />
    <path
       d="m 22366,6437 c -38,-28 -13,-97 34,-97 22,0 50,32 50,57 0,23 -29,53 -51,53 -9,0 -23,-6 -33,-13 z"
       id="path268" />
    <path
       d="m 24606,6437 c -38,-28 -13,-97 34,-97 22,0 50,32 50,57 0,23 -29,53 -51,53 -9,0 -23,-6 -33,-13 z"
       id="path270" />
    <path
       d="m 16405,6426 c 37,-16 59,-41 118,-130 l 46,-69 -74,-97 c -41,-54 -81,-100 -89,-103 -37,-15 -12,-27 54,-27 68,0 91,12 50,25 -11,3 -20,15 -20,25 0,19 84,140 98,140 10,0 92,-130 92,-146 0,-7 -9,-16 -20,-19 -46,-15 -14,-25 80,-25 55,0 100,3 100,8 0,4 -13,14 -29,23 -27,16 -119,136 -157,205 l -17,31 52,69 c 29,38 66,77 84,87 l 32,17 h -80 c -59,-1 -75,-3 -62,-11 25,-15 21,-39 -15,-93 l -31,-48 -34,53 c -39,63 -41,77 -10,89 15,6 -12,9 -88,9 -100,0 -107,-1 -80,-13 z"
       id="path272" />
    <path
       d="m 17707,6413 c 21,-21 48,-81 103,-226 40,-108 78,-196 84,-194 6,2 37,63 70,135 32,72 62,130 65,127 3,-2 29,-62 56,-134 28,-72 55,-131 61,-131 6,0 46,92 89,205 59,156 84,210 104,225 l 26,19 h -75 c -62,0 -70,-2 -47,-11 15,-5 27,-17 27,-26 0,-21 -93,-272 -101,-272 -9,0 -99,233 -99,257 0,14 10,28 28,37 25,14 21,15 -78,15 -65,0 -97,-3 -85,-9 27,-10 40,-27 60,-76 l 16,-42 -43,-96 c -24,-52 -46,-96 -49,-96 -9,0 -99,252 -99,278 0,14 8,26 23,32 15,6 -5,9 -72,9 l -93,1 z"
       id="path274" />
    <path
       d="m 22570,6380 c 0,-66 14,-80 24,-25 4,19 15,39 26,45 19,10 200,15 200,5 0,-3 -61,-89 -135,-190 -75,-102 -138,-192 -141,-200 -5,-13 20,-15 185,-15 180,0 191,1 191,19 0,10 3,39 6,65 8,55 -10,65 -20,11 -11,-56 -37,-66 -156,-63 l -102,3 141,191 c 78,106 141,197 141,203 0,8 -55,11 -180,11 h -180 z"
       id="path276" />
    <path
       d="m 23210,6420 c 0,-19 7,-20 255,-20 248,0 255,1 255,20 0,19 -7,20 -255,20 -248,0 -255,-1 -255,-20 z"
       id="path278" />
    <path
       d="m 25577,6413 c 21,-21 48,-81 103,-226 40,-108 78,-196 84,-194 6,2 37,63 70,135 32,72 62,130 65,127 3,-2 29,-62 56,-134 28,-72 55,-131 61,-131 6,0 46,92 89,205 59,156 84,210 104,225 l 26,19 h -75 c -62,0 -70,-2 -47,-11 15,-5 27,-17 27,-26 0,-21 -93,-272 -101,-272 -9,0 -99,233 -99,257 0,14 10,28 28,37 25,14 21,15 -78,15 -65,0 -97,-3 -85,-9 27,-10 40,-27 60,-76 l 16,-42 -43,-96 c -24,-52 -46,-96 -49,-96 -9,0 -99,252 -99,278 0,14 8,26 23,32 15,6 -5,9 -72,9 l -93,1 z"
       id="path280" />
    <path
       d="m 9533,6067 c -210,-127 -382,-235 -383,-239 0,-4 38,-19 85,-33 47,-14 123,-37 171,-51 47,-14 84,-29 82,-34 -2,-5 -77,-88 -167,-186 -90,-98 -159,-180 -153,-182 11,-3 764,467 772,482 3,6 -71,29 -163,52 -93,23 -170,44 -172,46 -3,2 69,85 160,184 155,169 176,194 158,194 -5,0 -180,-105 -390,-233 z"
       id="path282" />
    <path
       d="m 18404,6285 c -8,-21 2,-45 19,-45 21,0 38,25 31,44 -8,20 -43,21 -50,1 z"
       id="path284" />
    <path
       d="m 26274,6285 c -8,-21 2,-45 19,-45 21,0 38,25 31,44 -8,20 -43,21 -50,1 z"
       id="path286" />
    <path
       d="m 23210,6260 c 0,-19 7,-20 255,-20 248,0 255,1 255,20 0,19 -7,20 -255,20 -248,0 -255,-1 -255,-20 z"
       id="path288" />
    <path
       d="m 18375,6170 c 3,-5 13,-10 21,-10 11,0 14,-21 14,-113 v -113 l -27,-11 c -24,-9 -18,-11 45,-12 47,-1 71,3 67,9 -3,6 -15,10 -26,10 -18,0 -19,8 -19,125 v 125 h -41 c -24,0 -38,-4 -34,-10 z"
       id="path290" />
    <path
       d="m 26245,6170 c 3,-5 13,-10 21,-10 11,0 14,-21 14,-113 v -113 l -27,-11 c -24,-9 -18,-11 45,-12 47,-1 71,3 67,9 -3,6 -15,10 -26,10 -18,0 -19,8 -19,125 v 125 h -41 c -24,0 -38,-4 -34,-10 z"
       id="path292" />
    <path
       d="m 16203,6074 c -15,-24 -15,-29 -2,-53 18,-32 54,-39 80,-15 24,22 24,56 1,77 -27,25 -59,21 -79,-9 z"
       id="path294" />
    <path
       d="m 17220,6080 c -41,-41 -8,-98 49,-85 30,6 31,5 31,-25 0,-32 -38,-79 -85,-106 -11,-7 -17,-15 -13,-19 12,-12 98,45 119,78 29,48 26,117 -7,151 -32,31 -67,33 -94,6 z"
       id="path296" />
    <path
       d="m 22353,6074 c -15,-24 -15,-29 -2,-53 18,-32 54,-39 80,-15 24,22 24,56 1,77 -27,25 -59,21 -79,-9 z"
       id="path298" />
    <path
       d="m 24593,6074 c -15,-24 -15,-29 -2,-53 18,-32 54,-39 80,-15 24,22 24,56 1,77 -27,25 -59,21 -79,-9 z"
       id="path300" />
    <path
       d="m 25090,6080 c -41,-41 -8,-98 49,-85 30,6 31,5 31,-25 0,-32 -38,-79 -85,-106 -11,-7 -17,-15 -13,-19 12,-12 98,45 119,78 29,48 26,117 -7,151 -32,31 -67,33 -94,6 z"
       id="path302" />
    <path
       d="M 16670,4091 V 2950 h 35 35 l -2,1138 -3,1137 -32,3 -33,3 z"
       id="path304" />
    <path
       d="M 24100,4091 V 2950 h 35 35 l -2,1138 -3,1137 -32,3 -33,3 z"
       id="path306" />
    <path
       d="m 24675,2519 c -52,-21 -88,-47 -50,-35 40,11 49,-7 53,-108 3,-53 2,-96 -1,-96 -2,0 -18,7 -33,15 -120,62 -267,-64 -268,-230 -1,-83 21,-133 76,-178 62,-50 153,-46 197,7 20,24 31,19 31,-14 0,-36 4,-36 72,-9 54,21 86,42 52,33 -48,-11 -49,-5 -53,326 -2,224 -6,310 -15,309 -6,0 -33,-9 -61,-20 z m -48,-259 c 42,-25 53,-67 53,-203 v -107 l -32,-20 c -41,-25 -72,-25 -112,-1 -47,30 -69,74 -74,157 -4,61 -1,80 18,118 35,72 88,93 147,56 z"
       id="path308" />
    <path
       d="m 22039,2502 c -92,-59 -173,-182 -198,-300 -31,-150 10,-320 105,-430 37,-44 134,-116 143,-106 3,2 -18,28 -46,57 -66,67 -89,116 -108,223 -18,106 -19,205 -1,305 19,106 48,166 108,222 28,26 49,50 46,52 -2,3 -24,-8 -49,-23 z"
       id="path310" />
    <path
       d="m 25350,2525 c 0,-3 22,-28 49,-54 27,-26 58,-65 69,-87 31,-61 52,-182 52,-296 0,-183 -40,-301 -125,-375 -25,-23 -45,-44 -45,-47 0,-17 85,43 130,90 87,92 130,203 130,340 0,132 -44,247 -130,338 -44,47 -130,107 -130,91 z"
       id="path312" />
    <path
       d="m 15760,2095 v -425 h 105 c 87,0 105,3 105,15 0,12 -14,15 -70,15 h -70 v 395 395 h 70 c 56,0 70,3 70,15 0,12 -18,15 -105,15 h -105 z"
       id="path314" />
    <path
       d="m 17120,2505 c 0,-12 14,-15 65,-15 h 65 v -395 -395 h -65 c -51,0 -65,-3 -65,-15 0,-12 18,-15 100,-15 h 100 v 425 425 h -100 c -82,0 -100,-3 -100,-15 z"
       id="path316" />
    <path
       d="m 15208,2501 c 19,-5 39,-14 45,-20 9,-9 12,-94 12,-296 0,-202 -3,-287 -12,-296 -6,-6 -26,-15 -45,-19 -21,-5 17,-8 107,-8 93,0 129,3 105,8 -54,13 -60,29 -60,166 v 123 l 68,-6 c 86,-7 143,9 186,52 57,57 66,160 18,224 -10,14 -39,37 -63,51 -42,24 -53,25 -219,27 -111,1 -163,-1 -142,-6 z m 265,-32 c 44,-23 66,-53 78,-105 27,-120 -56,-208 -168,-178 -22,6 -23,10 -23,144 0,101 3,140 13,143 23,10 78,7 100,-4 z"
       id="path318" />
    <path
       d="m 25198,2406 c -21,-44 -74,-103 -99,-111 -31,-10 -22,-25 16,-25 h 35 v -176 c 0,-177 5,-205 39,-231 38,-29 110,-3 137,48 8,17 12,29 7,27 -4,-2 -21,-10 -36,-18 -21,-10 -33,-11 -45,-3 -15,9 -17,34 -20,182 l -2,171 h 50 c 38,0 50,4 50,15 0,11 -12,15 -50,15 h -50 v 70 c 0,39 -4,70 -8,70 -5,0 -16,-15 -24,-34 z"
       id="path320" />
    <path
       d="m 16168,2301 c -15,-5 -41,-19 -57,-30 -94,-67 -116,-239 -44,-343 29,-42 94,-78 142,-78 71,0 147,66 170,148 14,47 1,46 -30,-2 -83,-132 -249,-49 -249,124 0,89 49,160 111,160 33,0 69,-31 69,-59 0,-46 69,-70 90,-32 26,50 -41,113 -124,117 -28,2 -63,-1 -78,-5 z"
       id="path322" />
    <path
       d="m 16516,2297 c -38,-28 -13,-97 34,-97 22,0 50,32 50,57 0,23 -29,53 -51,53 -9,0 -23,-6 -33,-13 z"
       id="path324" />
    <path
       d="m 22223,2290 c -54,-24 -83,-76 -65,-115 23,-50 72,-25 72,36 0,43 27,69 70,69 38,0 60,-20 70,-65 14,-61 15,-60 -57,-90 -76,-32 -132,-64 -151,-88 -39,-47 -31,-130 16,-168 38,-29 98,-22 150,20 22,17 42,31 45,31 2,0 7,-13 10,-30 11,-52 80,-48 131,9 23,26 16,37 -14,21 -39,-21 -45,-1 -48,163 -1,86 -7,162 -14,174 -25,50 -140,68 -215,33 z m 157,-249 c 0,-74 -2,-81 -26,-100 -57,-44 -107,-39 -130,14 -16,40 -8,69 27,101 21,19 102,61 122,63 4,1 7,-35 7,-78 z"
       id="path326" />
    <path
       d="m 22626,2297 c -38,-28 -13,-97 34,-97 22,0 50,32 50,57 0,23 -29,53 -51,53 -9,0 -23,-6 -33,-13 z"
       id="path328" />
    <path
       d="m 24916,2297 c -38,-28 -13,-97 34,-97 22,0 50,32 50,57 0,23 -29,53 -51,53 -9,0 -23,-6 -33,-13 z"
       id="path330" />
    <path
       d="m 16720,2240 c 0,-66 14,-80 24,-25 4,19 15,39 26,45 19,10 200,15 200,5 0,-3 -61,-89 -135,-190 -75,-102 -138,-192 -141,-200 -5,-13 20,-15 185,-15 180,0 191,1 191,19 0,10 3,39 6,65 8,55 -10,65 -20,11 -11,-56 -37,-66 -156,-63 l -102,3 141,191 c 78,106 141,197 141,203 0,8 -55,11 -180,11 h -180 z"
       id="path332" />
    <path
       d="m 17957,2273 c 21,-21 48,-81 103,-226 40,-108 78,-196 84,-194 6,2 37,63 70,135 32,72 62,130 65,127 3,-2 29,-62 56,-134 28,-72 55,-131 61,-131 6,0 46,92 89,205 59,156 84,210 104,225 l 26,19 h -75 c -62,0 -70,-2 -47,-11 15,-5 27,-17 27,-26 0,-21 -93,-272 -101,-272 -9,0 -99,233 -99,257 0,14 10,28 28,37 25,14 21,15 -78,15 -65,0 -97,-3 -85,-9 27,-10 40,-27 60,-76 l 16,-42 -43,-96 c -24,-52 -46,-96 -49,-96 -9,0 -99,252 -99,278 0,14 8,26 23,32 15,6 -5,9 -72,9 l -93,1 z"
       id="path334" />
    <path
       d="m 22815,2286 c 37,-16 59,-41 118,-130 l 46,-69 -74,-97 c -41,-54 -81,-100 -89,-103 -37,-15 -12,-27 54,-27 68,0 91,12 50,25 -11,3 -20,15 -20,25 0,19 84,140 98,140 10,0 92,-130 92,-146 0,-7 -9,-16 -20,-19 -46,-15 -14,-25 80,-25 55,0 100,3 100,8 0,4 -13,14 -29,23 -27,16 -119,136 -157,205 l -17,31 52,69 c 29,38 66,77 84,87 l 32,17 h -80 c -59,-1 -75,-3 -62,-11 25,-15 21,-39 -15,-93 l -31,-48 -34,53 c -39,63 -41,77 -10,89 15,6 -12,9 -88,9 -100,0 -107,-1 -80,-13 z"
       id="path336" />
    <path
       d="m 23530,2280 c 0,-19 7,-20 255,-20 248,0 255,1 255,20 0,19 -7,20 -255,20 -248,0 -255,-1 -255,-20 z"
       id="path338" />
    <path
       d="m 26197,2273 c 21,-21 48,-81 103,-226 40,-108 78,-196 84,-194 6,2 37,63 70,135 32,72 62,130 65,127 3,-2 29,-62 56,-134 28,-72 55,-131 61,-131 6,0 46,92 89,205 59,156 84,210 104,225 l 26,19 h -75 c -62,0 -70,-2 -47,-11 15,-5 27,-17 27,-26 0,-21 -93,-272 -101,-272 -9,0 -99,233 -99,257 0,14 10,28 28,37 25,14 21,15 -78,15 -65,0 -97,-3 -85,-9 27,-10 40,-27 60,-76 l 16,-42 -43,-96 c -24,-52 -46,-96 -49,-96 -9,0 -99,252 -99,278 0,14 8,26 23,32 15,6 -5,9 -72,9 l -93,1 z"
       id="path340" />
    <path
       d="m 14600,2250 c 0,-19 7,-20 235,-20 h 235 v -75 c 0,-68 2,-75 20,-75 19,0 20,7 20,95 v 95 h -255 c -248,0 -255,-1 -255,-20 z"
       id="path342" />
    <path
       d="m 21240,2250 c 0,-19 7,-20 235,-20 h 235 v -75 c 0,-68 2,-75 20,-75 19,0 20,7 20,95 v 95 h -255 c -248,0 -255,-1 -255,-20 z"
       id="path344" />
    <path
       d="m 18644,2145 c -8,-21 2,-45 19,-45 21,0 38,25 31,44 -8,20 -43,21 -50,1 z"
       id="path346" />
    <path
       d="m 26894,2145 c -8,-21 2,-45 19,-45 21,0 38,25 31,44 -8,20 -43,21 -50,1 z"
       id="path348" />
    <path
       d="m 23530,2120 c 0,-19 7,-20 255,-20 248,0 255,1 255,20 0,19 -7,20 -255,20 -248,0 -255,-1 -255,-20 z"
       id="path350" />
    <path
       d="m 18615,2030 c 3,-5 13,-10 21,-10 11,0 14,-21 14,-113 v -113 l -27,-11 c -24,-9 -18,-11 45,-12 47,-1 71,3 67,9 -3,6 -15,10 -26,10 -18,0 -19,8 -19,125 v 125 h -41 c -24,0 -38,-4 -34,-10 z"
       id="path352" />
    <path
       d="m 26865,2030 c 3,-5 13,-10 21,-10 11,0 14,-21 14,-113 v -113 l -27,-11 c -24,-9 -18,-11 45,-12 47,-1 71,3 67,9 -3,6 -15,10 -26,10 -18,0 -19,8 -19,125 v 125 h -41 c -24,0 -38,-4 -34,-10 z"
       id="path354" />
    <path
       d="m 16503,1934 c -15,-24 -15,-29 -2,-53 18,-32 54,-39 80,-15 24,22 24,56 1,77 -27,25 -59,21 -79,-9 z"
       id="path356" />
    <path
       d="m 17470,1940 c -41,-41 -8,-98 49,-85 30,6 31,5 31,-25 0,-32 -38,-79 -85,-106 -11,-7 -17,-15 -13,-19 12,-12 98,45 119,78 29,48 26,117 -7,151 -32,31 -67,33 -94,6 z"
       id="path358" />
    <path
       d="m 22613,1934 c -15,-24 -15,-29 -2,-53 18,-32 54,-39 80,-15 24,22 24,56 1,77 -27,25 -59,21 -79,-9 z"
       id="path360" />
    <path
       d="m 24903,1934 c -15,-24 -15,-29 -2,-53 18,-32 54,-39 80,-15 24,22 24,56 1,77 -27,25 -59,21 -79,-9 z"
       id="path362" />
    <path
       d="m 25710,1940 c -41,-41 -8,-98 49,-85 30,6 31,5 31,-25 0,-32 -38,-79 -85,-106 -11,-7 -17,-15 -13,-19 12,-12 98,45 119,78 29,48 26,117 -7,151 -32,31 -67,33 -94,6 z"
       id="path364" />
    <path
       d="m 16683,1417 c -210,-127 -382,-235 -383,-239 0,-4 38,-19 85,-33 47,-14 123,-37 171,-51 47,-14 84,-29 82,-34 -2,-5 -77,-88 -167,-186 -90,-98 -159,-180 -153,-182 11,-3 764,467 772,482 3,6 -71,29 -163,52 -93,23 -170,44 -172,46 -3,2 69,85 160,184 155,169 176,194 158,194 -5,0 -180,-105 -390,-233 z"
       id="path366" />
    <path
       d="m 24113,1417 c -210,-127 -382,-235 -383,-239 0,-4 38,-19 85,-33 47,-14 123,-37 171,-51 47,-14 84,-29 82,-34 -2,-5 -77,-88 -167,-186 -90,-98 -159,-180 -153,-182 11,-3 764,467 772,482 3,6 -71,29 -163,52 -93,23 -170,44 -172,46 -3,2 69,85 160,184 155,169 176,194 158,194 -5,0 -180,-105 -390,-233 z"
       id="path368" />
  </g>
</svg>
