<?xml version="1.0" encoding="UTF-8" standalone="no"?>
<svg
   version="1.0"
   width="2982.9197pt"
   height="572.90192pt"
   viewBox="0 0 2982.9197 572.90192"
   preserveAspectRatio="xMidYMid meet"
   id="svg266"
   xmlns="http://www.w3.org/2000/svg"
   xmlns:svg="http://www.w3.org/2000/svg">
  <defs
     id="defs270" />
  <metadata
     id="metadata2">
Created by potrace 1.16, written by Peter Selinger 2001-2019
</metadata>
  <g
     transform="matrix(0.1,0,0,-0.1,-87.080233,656.90191)"
     fill="#000000"
     stroke="none"
     id="g264">
    <path
       d="m 4865,6549 c -52,-21 -88,-47 -50,-35 40,11 49,-7 53,-108 3,-53 2,-96 -1,-96 -2,0 -18,7 -33,15 -120,62 -267,-64 -268,-230 -1,-83 21,-133 76,-178 62,-50 153,-46 197,7 20,24 31,19 31,-14 0,-36 4,-36 72,-9 54,21 86,42 52,33 -48,-11 -49,-5 -53,326 -2,224 -6,310 -15,309 -6,0 -33,-9 -61,-20 z m -48,-259 c 42,-25 53,-67 53,-203 v -107 l -32,-20 c -41,-25 -72,-25 -112,-1 -47,30 -69,74 -74,157 -4,61 -1,80 18,118 35,72 88,93 147,56 z"
       id="path4" />
    <path
       d="m 6773,6544 c -15,-24 -15,-29 -2,-53 18,-32 45,-38 70,-15 24,22 24,56 1,77 -26,24 -49,21 -69,-9 z"
       id="path6" />
    <path
       d="m 15293,6544 c -15,-24 -15,-29 -2,-53 18,-32 45,-38 70,-15 24,22 24,56 1,77 -26,24 -49,21 -69,-9 z"
       id="path8" />
    <path
       d="m 15940,6548 c -56,-21 -96,-47 -52,-33 50,15 52,5 52,-301 v -284 l 40,-20 c 197,-100 391,80 329,305 -15,52 -74,111 -122,120 -51,10 -81,0 -127,-41 l -40,-36 v 156 c 0,118 -3,156 -12,155 -7,0 -38,-9 -68,-21 z m 244,-309 c 76,-66 76,-221 0,-297 -30,-30 -39,-34 -73,-29 -21,2 -50,13 -65,22 -26,17 -26,18 -26,149 0,125 1,134 23,153 47,43 94,44 141,2 z"
       id="path10" />
    <path
       d="m 16440,6548 c -56,-21 -96,-47 -52,-33 50,15 52,5 52,-299 0,-154 -4,-286 -8,-293 -4,-7 -19,-16 -32,-22 -19,-7 3,-10 85,-9 61,0 101,3 90,5 -11,3 -28,12 -37,21 -16,14 -18,43 -18,334 0,248 -3,318 -12,317 -7,0 -38,-9 -68,-21 z"
       id="path12" />
    <path
       d="m 17605,6549 c -52,-21 -88,-47 -50,-35 40,11 49,-7 53,-108 3,-53 2,-96 -1,-96 -2,0 -18,7 -33,15 -120,62 -267,-64 -268,-230 -1,-83 21,-133 76,-178 62,-50 153,-46 197,7 20,24 31,19 31,-14 0,-36 4,-36 72,-9 54,21 86,42 52,33 -48,-11 -49,-5 -53,326 -2,224 -6,310 -15,309 -6,0 -33,-9 -61,-20 z m -48,-259 c 42,-25 53,-67 53,-203 v -107 l -32,-20 c -41,-25 -72,-25 -112,-1 -47,30 -69,74 -74,157 -4,61 -1,80 18,118 35,72 88,93 147,56 z"
       id="path14" />
    <path
       d="m 19513,6544 c -15,-24 -15,-29 -2,-53 18,-32 45,-38 70,-15 24,22 24,56 1,77 -26,24 -49,21 -69,-9 z"
       id="path16" />
    <path
       d="m 1079,6532 c -92,-59 -173,-182 -198,-300 -31,-150 10,-320 105,-430 37,-44 134,-116 143,-106 3,2 -18,28 -46,57 -66,67 -89,116 -108,223 -18,106 -19,205 -1,305 19,106 48,166 108,222 28,26 49,50 46,52 -2,3 -24,-8 -49,-23 z"
       id="path18" />
    <path
       d="m 7420,6555 c 0,-3 22,-28 49,-54 27,-26 58,-65 69,-87 31,-61 52,-182 52,-296 0,-183 -40,-301 -125,-375 -25,-23 -45,-44 -45,-47 0,-17 85,43 130,90 87,92 130,203 130,340 0,132 -44,247 -130,338 -44,47 -130,107 -130,91 z"
       id="path20" />
    <path
       d="m 13929,6532 c -92,-59 -173,-182 -198,-300 -31,-150 10,-320 105,-430 37,-44 134,-116 143,-106 3,2 -18,28 -46,57 -66,67 -89,116 -108,223 -18,106 -19,205 -1,305 19,106 48,166 108,222 28,26 49,50 46,52 -2,3 -24,-8 -49,-23 z"
       id="path22" />
    <path
       d="m 20160,6555 c 0,-3 22,-28 49,-54 27,-26 58,-65 69,-87 31,-61 52,-182 52,-296 0,-183 -40,-301 -125,-375 -25,-23 -45,-44 -45,-47 0,-17 85,43 130,90 87,92 130,203 130,340 0,132 -44,247 -130,338 -44,47 -130,107 -130,91 z"
       id="path24" />
    <path
       d="m 2988,6436 c -21,-44 -74,-103 -99,-111 -31,-10 -22,-25 16,-25 h 35 v -176 c 0,-177 5,-205 39,-231 38,-29 110,-3 137,48 8,17 12,29 7,27 -4,-2 -21,-10 -36,-18 -21,-10 -33,-11 -45,-3 -15,9 -17,34 -20,182 l -2,171 h 50 c 38,0 50,4 50,15 0,11 -12,15 -50,15 h -50 v 70 c 0,39 -4,70 -8,70 -5,0 -16,-15 -24,-34 z"
       id="path26" />
    <path
       d="m 4138,6436 c -21,-44 -74,-103 -99,-111 -31,-10 -22,-25 16,-25 h 35 v -176 c 0,-177 5,-205 39,-231 38,-29 110,-3 137,48 8,17 12,29 7,27 -4,-2 -21,-10 -36,-18 -21,-10 -33,-11 -45,-3 -15,9 -17,34 -20,182 l -2,171 h 50 c 38,0 50,4 50,15 0,11 -12,15 -50,15 h -50 v 70 c 0,39 -4,70 -8,70 -5,0 -16,-15 -24,-34 z"
       id="path28" />
    <path
       d="m 1328,6331 c -15,-5 -41,-19 -57,-30 -94,-67 -116,-239 -44,-343 29,-42 94,-78 142,-78 71,0 147,66 170,148 14,47 1,46 -30,-2 -83,-132 -249,-49 -249,124 0,89 49,160 111,160 33,0 69,-31 69,-59 0,-46 69,-70 90,-32 26,50 -41,113 -124,117 -28,2 -63,-1 -78,-5 z"
       id="path30" />
    <path
       d="m 1725,6321 c -92,-42 -148,-157 -127,-261 15,-71 56,-129 112,-158 62,-32 145,-26 203,15 75,52 114,173 88,268 -32,120 -167,186 -276,136 z m 129,-41 c 44,-39 66,-104 66,-197 0,-82 -16,-132 -51,-157 -55,-38 -120,-9 -157,72 -35,74 -39,208 -8,259 37,60 97,69 150,23 z"
       id="path32" />
    <path
       d="m 2105,6318 c -58,-22 -85,-43 -43,-33 41,10 48,-15 48,-187 0,-165 -7,-192 -53,-201 -12,-2 30,-5 93,-5 101,-1 111,1 80,11 l -35,12 -3,157 -2,156 30,22 c 17,12 48,24 69,27 34,5 41,2 57,-23 16,-23 19,-52 22,-164 3,-148 -5,-179 -48,-191 -14,-4 25,-7 85,-7 61,1 100,3 88,5 -43,8 -48,28 -51,192 -3,167 -10,200 -50,231 -44,36 -112,19 -179,-43 l -23,-20 v 41 c 0,49 -7,51 -85,20 z"
       id="path34" />
    <path
       d="m 2614,6324 c -39,-19 -64,-62 -64,-111 0,-54 19,-75 107,-123 89,-47 113,-70 113,-111 0,-96 -147,-88 -188,11 -10,22 -20,40 -24,40 -5,0 -8,-34 -8,-75 0,-41 4,-75 9,-75 5,0 11,5 13,12 3,9 15,9 50,0 67,-17 103,-15 148,8 45,23 70,63 70,112 0,57 -29,89 -130,143 -74,40 -96,56 -103,79 -9,26 -6,33 17,53 53,45 135,16 157,-57 7,-22 16,-40 21,-40 4,0 8,34 8,75 0,41 -4,75 -9,75 -5,0 -11,-5 -13,-12 -4,-10 -13,-10 -45,0 -53,16 -91,15 -129,-4 z"
       id="path36" />
    <path
       d="m 3243,6320 c -54,-24 -83,-76 -65,-115 23,-50 72,-25 72,36 0,43 27,69 70,69 38,0 60,-20 70,-65 14,-61 15,-60 -57,-90 -76,-32 -132,-64 -151,-88 -39,-47 -31,-130 16,-168 38,-29 98,-22 150,20 22,17 42,31 45,31 2,0 7,-13 10,-30 11,-52 80,-48 131,9 23,26 16,37 -14,21 -39,-21 -45,-1 -48,163 -1,86 -7,162 -14,174 -25,50 -140,68 -215,33 z m 157,-249 c 0,-74 -2,-81 -26,-100 -57,-44 -107,-39 -130,14 -16,40 -8,69 27,101 21,19 102,61 122,63 4,1 7,-35 7,-78 z"
       id="path38" />
    <path
       d="m 3615,6318 c -58,-22 -85,-43 -43,-33 41,10 48,-15 48,-187 0,-165 -7,-192 -53,-201 -12,-2 30,-5 93,-5 101,-1 111,1 80,11 l -35,12 -3,157 -2,156 30,22 c 17,12 48,24 69,27 34,5 41,2 57,-23 16,-23 19,-52 22,-164 3,-148 -5,-179 -48,-191 -14,-4 25,-7 85,-7 61,1 100,3 88,5 -43,8 -48,28 -51,192 -3,167 -10,200 -50,231 -44,36 -112,19 -179,-43 l -23,-20 v 41 c 0,49 -7,51 -85,20 z"
       id="path40" />
    <path
       d="m 5165,6321 c -92,-42 -148,-157 -127,-261 15,-71 56,-129 112,-158 62,-32 145,-26 203,15 75,52 114,173 88,268 -32,120 -167,186 -276,136 z m 129,-41 c 44,-39 66,-104 66,-197 0,-82 -16,-132 -51,-157 -55,-38 -120,-9 -157,72 -35,74 -39,208 -8,259 37,60 97,69 150,23 z"
       id="path42" />
    <path
       d="m 5550,6318 c -61,-23 -91,-43 -48,-33 20,5 29,2 37,-13 13,-24 15,-330 3,-349 -4,-7 -19,-16 -32,-22 -19,-7 3,-10 85,-10 78,1 102,3 81,9 -16,5 -33,15 -37,22 -5,7 -9,79 -9,160 v 147 l 43,26 c 53,30 90,32 117,5 19,-19 20,-31 18,-183 l -3,-162 -35,-12 c -31,-10 -21,-12 80,-11 63,0 105,3 93,5 -45,9 -53,37 -53,183 0,129 1,138 23,157 51,47 100,55 138,24 23,-18 24,-26 27,-165 5,-159 -3,-190 -50,-199 -13,-2 27,-5 87,-5 100,-1 107,0 79,12 -38,17 -44,49 -44,231 0,110 -2,125 -22,155 -44,65 -122,64 -192,0 l -43,-40 -24,37 c -45,68 -121,69 -195,1 l -44,-41 v 47 c 0,53 -2,54 -80,24 z"
       id="path44" />
    <path
       d="m 6373,6320 c -54,-24 -83,-76 -65,-115 23,-50 72,-25 72,36 0,43 27,69 70,69 38,0 60,-20 70,-65 14,-61 15,-60 -57,-90 -76,-32 -132,-64 -151,-88 -39,-47 -31,-130 16,-168 38,-29 98,-22 150,20 22,17 42,31 45,31 2,0 7,-13 10,-30 11,-52 80,-48 131,9 23,26 16,37 -14,21 -39,-21 -45,-1 -48,163 -1,86 -7,162 -14,174 -25,50 -140,68 -215,33 z m 157,-249 c 0,-74 -2,-81 -26,-100 -57,-44 -107,-39 -130,14 -16,40 -8,69 27,101 21,19 102,61 122,63 4,1 7,-35 7,-78 z"
       id="path46" />
    <path
       d="m 6770,6318 c -56,-21 -96,-47 -52,-33 47,14 52,-4 52,-184 0,-91 -4,-171 -8,-178 -4,-7 -19,-16 -32,-22 -19,-7 3,-10 85,-10 78,1 102,3 81,9 -16,5 -33,15 -37,22 -5,7 -9,104 -9,216 0,155 -3,202 -12,201 -7,0 -38,-9 -68,-21 z"
       id="path48" />
    <path
       d="m 7005,6318 c -58,-22 -85,-43 -43,-33 41,10 48,-15 48,-187 0,-165 -7,-192 -53,-201 -12,-2 30,-5 93,-5 101,-1 111,1 80,11 l -35,12 -3,157 -2,156 30,22 c 17,12 48,24 69,27 34,5 41,2 57,-23 16,-23 19,-52 22,-164 3,-148 -5,-179 -48,-191 -14,-4 25,-7 85,-7 61,1 100,3 88,5 -43,8 -48,28 -51,192 -3,167 -10,200 -50,231 -44,36 -112,19 -179,-43 l -23,-20 v 41 c 0,49 -7,51 -85,20 z"
       id="path50" />
    <path
       d="m 14583,6320 c -54,-24 -83,-76 -65,-115 23,-50 72,-25 72,36 0,43 27,69 70,69 38,0 60,-20 70,-65 14,-61 15,-60 -57,-90 -76,-32 -132,-64 -151,-88 -39,-47 -31,-130 16,-168 38,-29 98,-22 150,20 22,17 42,31 45,31 2,0 7,-13 10,-30 11,-52 80,-48 131,9 23,26 16,37 -14,21 -39,-21 -45,-1 -48,163 -1,86 -7,162 -14,174 -25,50 -140,68 -215,33 z m 157,-249 c 0,-74 -2,-81 -26,-100 -57,-44 -107,-39 -130,14 -16,40 -8,69 27,101 21,19 102,61 122,63 4,1 7,-35 7,-78 z"
       id="path52" />
    <path
       d="m 14953,6316 c -54,-22 -84,-43 -47,-32 14,4 28,1 38,-9 13,-14 16,-43 16,-179 0,-174 -3,-186 -55,-199 -11,-2 32,-5 95,-5 105,-1 112,0 84,12 -17,8 -34,21 -38,31 -3,9 -6,74 -6,144 0,125 0,127 28,161 l 29,34 30,-22 c 40,-29 61,-28 75,3 15,34 -3,72 -38,81 -31,8 -68,-16 -101,-66 l -23,-33 v 52 c 0,60 -6,62 -87,27 z"
       id="path54" />
    <path
       d="m 15290,6318 c -56,-21 -96,-47 -52,-33 47,14 52,-4 52,-184 0,-91 -4,-171 -8,-178 -4,-7 -19,-16 -32,-22 -19,-7 3,-10 85,-10 78,1 102,3 81,9 -16,5 -33,15 -37,22 -5,7 -9,104 -9,216 0,155 -3,202 -12,201 -7,0 -38,-9 -68,-21 z"
       id="path56" />
    <path
       d="m 15573,6320 c -54,-24 -83,-76 -65,-115 23,-50 72,-25 72,36 0,43 27,69 70,69 38,0 60,-20 70,-65 14,-61 15,-60 -57,-90 -76,-32 -132,-64 -151,-88 -39,-47 -31,-130 16,-168 38,-29 98,-22 150,20 22,17 42,31 45,31 2,0 7,-13 10,-30 11,-52 80,-48 131,9 23,26 16,37 -14,21 -39,-21 -45,-1 -48,163 -1,86 -7,162 -14,174 -25,50 -140,68 -215,33 z m 157,-249 c 0,-74 -2,-81 -26,-100 -57,-44 -107,-39 -130,14 -16,40 -8,69 27,101 21,19 102,61 122,63 4,1 7,-35 7,-78 z"
       id="path58" />
    <path
       d="m 16750,6318 c -25,-13 -57,-41 -74,-65 -25,-36 -30,-54 -34,-121 -5,-93 7,-139 51,-189 56,-64 134,-80 207,-43 44,23 86,78 96,128 8,40 -1,41 -21,2 -32,-61 -113,-87 -173,-56 -54,28 -82,71 -96,149 l -7,37 h 152 152 l -6,42 c -15,112 -140,171 -247,116 z m 121,-37 c 19,-20 29,-40 29,-60 v -31 h -99 -100 l 10,33 c 5,17 22,44 39,60 41,37 83,36 121,-2 z"
       id="path60" />
    <path
       d="m 17905,6321 c -92,-42 -148,-157 -127,-261 15,-71 56,-129 112,-158 62,-32 145,-26 203,15 75,52 114,173 88,268 -32,120 -167,186 -276,136 z m 129,-41 c 44,-39 66,-104 66,-197 0,-82 -16,-132 -51,-157 -55,-38 -120,-9 -157,72 -35,74 -39,208 -8,259 37,60 97,69 150,23 z"
       id="path62" />
    <path
       d="m 18290,6318 c -61,-23 -91,-43 -48,-33 20,5 29,2 37,-13 13,-24 15,-330 3,-349 -4,-7 -19,-16 -32,-22 -19,-7 3,-10 85,-10 78,1 102,3 81,9 -16,5 -33,15 -37,22 -5,7 -9,79 -9,160 v 147 l 43,26 c 53,30 90,32 117,5 19,-19 20,-31 18,-183 l -3,-162 -35,-12 c -31,-10 -21,-12 80,-11 63,0 105,3 93,5 -45,9 -53,37 -53,183 0,129 1,138 23,157 51,47 100,55 138,24 23,-18 24,-26 27,-165 5,-159 -3,-190 -50,-199 -13,-2 27,-5 87,-5 100,-1 107,0 79,12 -38,17 -44,49 -44,231 0,110 -2,125 -22,155 -44,65 -122,64 -192,0 l -43,-40 -24,37 c -45,68 -121,69 -195,1 l -44,-41 v 47 c 0,53 -2,54 -80,24 z"
       id="path64" />
    <path
       d="m 19113,6320 c -54,-24 -83,-76 -65,-115 23,-50 72,-25 72,36 0,43 27,69 70,69 38,0 60,-20 70,-65 14,-61 15,-60 -57,-90 -76,-32 -132,-64 -151,-88 -39,-47 -31,-130 16,-168 38,-29 98,-22 150,20 22,17 42,31 45,31 2,0 7,-13 10,-30 11,-52 80,-48 131,9 23,26 16,37 -14,21 -39,-21 -45,-1 -48,163 -1,86 -7,162 -14,174 -25,50 -140,68 -215,33 z m 157,-249 c 0,-74 -2,-81 -26,-100 -57,-44 -107,-39 -130,14 -16,40 -8,69 27,101 21,19 102,61 122,63 4,1 7,-35 7,-78 z"
       id="path66" />
    <path
       d="m 19510,6318 c -56,-21 -96,-47 -52,-33 47,14 52,-4 52,-184 0,-91 -4,-171 -8,-178 -4,-7 -19,-16 -32,-22 -19,-7 3,-10 85,-10 78,1 102,3 81,9 -16,5 -33,15 -37,22 -5,7 -9,104 -9,216 0,155 -3,202 -12,201 -7,0 -38,-9 -68,-21 z"
       id="path68" />
    <path
       d="m 19745,6318 c -58,-22 -85,-43 -43,-33 41,10 48,-15 48,-187 0,-165 -7,-192 -53,-201 -12,-2 30,-5 93,-5 101,-1 111,1 80,11 l -35,12 -3,157 -2,156 30,22 c 17,12 48,24 69,27 34,5 41,2 57,-23 16,-23 19,-52 22,-164 3,-148 -5,-179 -48,-191 -14,-4 25,-7 85,-7 61,1 100,3 88,5 -43,8 -48,28 -51,192 -3,167 -10,200 -50,231 -44,36 -112,19 -179,-43 l -23,-20 v 41 c 0,49 -7,51 -85,20 z"
       id="path70" />
    <path
       d="m 14024,6312 c 23,-14 44,-55 115,-221 48,-113 92,-206 98,-208 6,-2 33,49 59,113 122,294 129,308 154,321 22,11 15,13 -55,12 -49,-1 -70,-4 -55,-8 14,-4 26,-15 28,-25 4,-18 -96,-276 -107,-276 -12,1 -113,259 -107,275 3,9 16,20 28,25 16,6 -8,9 -82,9 -104,1 -105,1 -76,-17 z"
       id="path72" />
    <path
       d="m 27300,5605 v -425 h 105 c 87,0 105,3 105,15 0,12 -14,15 -70,15 h -70 v 395 395 h 70 c 56,0 70,3 70,15 0,12 -18,15 -105,15 h -105 z"
       id="path74" />
    <path
       d="m 28040,6015 c 0,-12 14,-15 65,-15 h 65 v -395 -395 h -65 c -51,0 -65,-3 -65,-15 0,-12 18,-15 100,-15 h 100 v 425 425 h -100 c -82,0 -100,-3 -100,-15 z"
       id="path76" />
    <path
       d="m 26748,6011 c 19,-5 39,-14 45,-20 9,-9 12,-94 12,-296 0,-202 -3,-287 -12,-296 -6,-6 -26,-15 -45,-19 -21,-5 17,-8 107,-8 93,0 129,3 105,8 -54,13 -60,29 -60,166 v 123 l 68,-6 c 86,-7 143,9 186,52 57,57 66,160 18,224 -10,14 -39,37 -63,51 -42,24 -53,25 -219,27 -111,1 -163,-1 -142,-6 z m 265,-32 c 44,-23 66,-53 78,-105 27,-120 -56,-208 -168,-178 -22,6 -23,10 -23,144 0,101 3,140 13,143 23,10 78,7 100,-4 z"
       id="path78" />
    <path
       d="m 30430,5825 v -115 h -120 c -113,0 -120,-1 -120,-20 0,-19 7,-20 120,-20 h 120 v -95 -95 h -120 c -113,0 -120,-1 -120,-20 0,-19 7,-20 255,-20 248,0 255,1 255,20 0,19 -7,20 -115,20 h -115 v 95 95 h 115 c 108,0 115,1 115,20 0,19 -7,20 -115,20 h -115 v 115 c 0,108 -1,115 -20,115 -19,0 -20,-7 -20,-115 z"
       id="path80" />
    <path
       d="m 25533,5653 113,-278 41,-3 c 26,-2 42,2 46,10 137,338 217,538 217,542 0,3 -19,6 -43,6 h -44 l -34,-87 -35,-88 -105,-3 -105,-3 -35,88 -35,88 -47,3 -46,3 z m 218,-5 c -5,-13 -21,-50 -36,-83 l -27,-60 -28,61 c -50,110 -52,104 29,104 69,0 70,0 62,-22 z"
       id="path82" />
    <path
       d="m 26005,5796 c 37,-16 59,-41 118,-130 l 46,-69 -74,-97 c -41,-54 -81,-100 -89,-103 -37,-15 -12,-27 54,-27 68,0 91,12 50,25 -11,3 -20,15 -20,25 0,19 84,140 98,140 10,0 92,-130 92,-146 0,-7 -9,-16 -20,-19 -46,-15 -14,-25 80,-25 55,0 100,3 100,8 0,4 -13,14 -29,23 -27,16 -119,136 -157,205 l -17,31 52,69 c 29,38 66,77 84,87 l 32,17 h -80 c -59,-1 -75,-3 -62,-11 25,-15 21,-39 -15,-93 l -31,-48 -34,53 c -39,63 -41,77 -10,89 15,6 -12,9 -88,9 -100,0 -107,-1 -80,-13 z"
       id="path84" />
    <path
       d="m 27565,5796 c 37,-16 59,-41 118,-130 l 46,-69 -74,-97 c -41,-54 -81,-100 -89,-103 -37,-15 -12,-27 54,-27 68,0 91,12 50,25 -11,3 -20,15 -20,25 0,19 84,140 98,140 10,0 92,-130 92,-146 0,-7 -9,-16 -20,-19 -46,-15 -14,-25 80,-25 55,0 100,3 100,8 0,4 -13,14 -29,23 -27,16 -119,136 -157,205 l -17,31 52,69 c 29,38 66,77 84,87 l 32,17 h -80 c -59,-1 -75,-3 -62,-11 25,-15 21,-39 -15,-93 l -31,-48 -34,53 c -39,63 -41,77 -10,89 15,6 -12,9 -88,9 -100,0 -107,-1 -80,-13 z"
       id="path86" />
    <path
       d="m 28877,5783 c 21,-21 48,-81 103,-226 40,-108 78,-196 84,-194 6,2 37,63 70,135 32,72 62,130 65,127 3,-2 29,-62 56,-134 28,-72 55,-131 61,-131 6,0 46,92 89,205 59,156 84,210 104,225 l 26,19 h -75 c -62,0 -70,-2 -47,-11 15,-5 27,-17 27,-26 0,-21 -93,-272 -101,-272 -9,0 -99,233 -99,257 0,14 10,28 28,37 25,14 21,15 -78,15 -65,0 -97,-3 -85,-9 27,-10 40,-27 60,-76 l 16,-42 -43,-96 c -24,-52 -46,-96 -49,-96 -9,0 -99,252 -99,278 0,14 8,26 23,32 15,6 -5,9 -72,9 l -93,1 z"
       id="path88" />
    <path
       d="m 24850,5760 c 0,-19 7,-20 235,-20 h 235 v -75 c 0,-68 2,-75 20,-75 19,0 20,7 20,95 v 95 h -255 c -248,0 -255,-1 -255,-20 z"
       id="path90" />
    <path
       d="m 29564,5655 c -8,-21 2,-45 19,-45 21,0 38,25 31,44 -8,20 -43,21 -50,1 z"
       id="path92" />
    <path
       d="m 29535,5540 c 3,-5 13,-10 21,-10 11,0 14,-21 14,-113 v -113 l -27,-11 c -24,-9 -18,-11 45,-12 47,-1 71,3 67,9 -3,6 -15,10 -26,10 -18,0 -19,8 -19,125 v 125 h -41 c -24,0 -38,-4 -34,-10 z"
       id="path94" />
    <path
       d="m 3500,5085 v -425 h 105 c 87,0 105,3 105,15 0,12 -14,15 -70,15 h -70 v 395 395 h 70 c 56,0 70,3 70,15 0,12 -18,15 -105,15 h -105 z"
       id="path96" />
    <path
       d="m 4240,5495 c 0,-12 14,-15 65,-15 h 65 v -395 -395 h -65 c -51,0 -65,-3 -65,-15 0,-12 18,-15 100,-15 h 100 v 425 425 h -100 c -82,0 -100,-3 -100,-15 z"
       id="path98" />
    <path
       d="m 16280,5085 v -425 h 105 c 87,0 105,3 105,15 0,12 -14,15 -70,15 h -70 v 395 395 h 70 c 56,0 70,3 70,15 0,12 -18,15 -105,15 h -105 z"
       id="path100" />
    <path
       d="m 17020,5495 c 0,-12 14,-15 65,-15 h 65 v -395 -395 h -65 c -51,0 -65,-3 -65,-15 0,-12 18,-15 100,-15 h 100 v 425 425 h -100 c -82,0 -100,-3 -100,-15 z"
       id="path102" />
    <path
       d="m 2948,5491 c 19,-5 39,-14 45,-20 9,-9 12,-94 12,-296 0,-202 -3,-287 -12,-296 -6,-6 -26,-15 -45,-19 -21,-5 17,-8 107,-8 93,0 129,3 105,8 -54,13 -60,29 -60,166 v 123 l 68,-6 c 86,-7 143,9 186,52 57,57 66,160 18,224 -10,14 -39,37 -63,51 -42,24 -53,25 -219,27 -111,1 -163,-1 -142,-6 z m 265,-32 c 44,-23 66,-53 78,-105 27,-120 -56,-208 -168,-178 -22,6 -23,10 -23,144 0,101 3,140 13,143 23,10 78,7 100,-4 z"
       id="path104" />
    <path
       d="m 15728,5491 c 19,-5 39,-14 45,-20 9,-9 12,-94 12,-296 0,-202 -3,-287 -12,-296 -6,-6 -26,-15 -45,-19 -21,-5 17,-8 107,-8 93,0 129,3 105,8 -54,13 -60,29 -60,166 v 123 l 68,-6 c 86,-7 143,9 186,52 57,57 66,160 18,224 -10,14 -39,37 -63,51 -42,24 -53,25 -219,27 -111,1 -163,-1 -142,-6 z m 265,-32 c 44,-23 66,-53 78,-105 27,-120 -56,-208 -168,-178 -22,6 -23,10 -23,144 0,101 3,140 13,143 23,10 78,7 100,-4 z"
       id="path106" />
    <path
       d="m 28390,5450 c -41,-41 -8,-98 49,-85 30,6 31,5 31,-25 0,-32 -38,-79 -85,-106 -11,-7 -17,-15 -13,-19 12,-12 98,45 119,78 29,48 26,117 -7,151 -32,31 -67,33 -94,6 z"
       id="path108" />
    <path
       d="m 29740,5450 c -41,-41 -8,-98 49,-85 30,6 31,5 31,-25 0,-32 -38,-79 -85,-106 -11,-7 -17,-15 -13,-19 12,-12 98,45 119,78 29,48 26,117 -7,151 -32,31 -67,33 -94,6 z"
       id="path110" />
    <path
       d="m 6640,5305 v -115 h -115 c -108,0 -115,-1 -115,-20 0,-19 7,-20 115,-20 h 115 v -115 c 0,-108 1,-115 20,-115 19,0 20,7 20,115 v 115 h 120 c 113,0 120,1 120,20 0,19 -7,20 -120,20 h -120 v 115 c 0,108 -1,115 -20,115 -19,0 -20,-7 -20,-115 z"
       id="path112" />
    <path
       d="m 19420,5305 v -115 h -115 c -108,0 -115,-1 -115,-20 0,-19 7,-20 115,-20 h 115 v -115 c 0,-108 1,-115 20,-115 19,0 20,7 20,115 v 115 h 120 c 113,0 120,1 120,20 0,19 -7,20 -120,20 h -120 v 115 c 0,108 -1,115 -20,115 -19,0 -20,-7 -20,-115 z"
       id="path114" />
    <path
       d="m 1733,5133 113,-278 41,-3 c 26,-2 42,2 46,10 137,338 217,538 217,542 0,3 -19,6 -43,6 h -44 l -34,-87 -35,-88 -105,-3 -105,-3 -35,88 -35,88 -47,3 -46,3 z m 218,-5 c -5,-13 -21,-50 -36,-83 l -27,-60 -28,61 c -50,110 -52,104 29,104 69,0 70,0 62,-22 z"
       id="path116" />
    <path
       d="m 14513,5133 113,-278 41,-3 c 26,-2 42,2 46,10 137,338 217,538 217,542 0,3 -19,6 -43,6 h -44 l -34,-87 -35,-88 -105,-3 -105,-3 -35,88 -35,88 -47,3 -46,3 z m 218,-5 c -5,-13 -21,-50 -36,-83 l -27,-60 -28,61 c -50,110 -52,104 29,104 69,0 70,0 62,-22 z"
       id="path118" />
    <path
       d="m 2205,5276 c 37,-16 59,-41 118,-130 l 46,-69 -74,-97 c -41,-54 -81,-100 -89,-103 -37,-15 -12,-27 54,-27 68,0 91,12 50,25 -11,3 -20,15 -20,25 0,19 84,140 98,140 10,0 92,-130 92,-146 0,-7 -9,-16 -20,-19 -46,-15 -14,-25 80,-25 55,0 100,3 100,8 0,4 -13,14 -29,23 -27,16 -119,136 -157,205 l -17,31 52,69 c 29,38 66,77 84,87 l 32,17 h -80 c -59,-1 -75,-3 -62,-11 25,-15 21,-39 -15,-93 l -31,-48 -34,53 c -39,63 -41,77 -10,89 15,6 -12,9 -88,9 -100,0 -107,-1 -80,-13 z"
       id="path120" />
    <path
       d="m 3765,5276 c 37,-16 59,-41 118,-130 l 46,-69 -74,-97 c -41,-54 -81,-100 -89,-103 -37,-15 -12,-27 54,-27 68,0 91,12 50,25 -11,3 -20,15 -20,25 0,19 84,140 98,140 10,0 92,-130 92,-146 0,-7 -9,-16 -20,-19 -46,-15 -14,-25 80,-25 55,0 100,3 100,8 0,4 -13,14 -29,23 -27,16 -119,136 -157,205 l -17,31 52,69 c 29,38 66,77 84,87 l 32,17 h -80 c -59,-1 -75,-3 -62,-11 25,-15 21,-39 -15,-93 l -31,-48 -34,53 c -39,63 -41,77 -10,89 15,6 -12,9 -88,9 -100,0 -107,-1 -80,-13 z"
       id="path122" />
    <path
       d="m 5067,5263 c 21,-21 48,-81 103,-226 40,-108 78,-196 84,-194 6,2 37,63 70,135 32,72 62,130 65,127 3,-2 29,-62 56,-134 28,-72 55,-131 61,-131 6,0 46,92 89,205 59,156 84,210 104,225 l 26,19 h -75 c -62,0 -70,-2 -47,-11 15,-5 27,-17 27,-26 0,-21 -93,-272 -101,-272 -9,0 -99,233 -99,257 0,14 10,28 28,37 25,14 21,15 -78,15 -65,0 -97,-3 -85,-9 27,-10 40,-27 60,-76 l 16,-42 -43,-96 c -24,-52 -46,-96 -49,-96 -9,0 -99,252 -99,278 0,14 8,26 23,32 15,6 -5,9 -72,9 l -93,1 z"
       id="path124" />
    <path
       d="m 14985,5276 c 37,-16 59,-41 118,-130 l 46,-69 -74,-97 c -41,-54 -81,-100 -89,-103 -37,-15 -12,-27 54,-27 68,0 91,12 50,25 -11,3 -20,15 -20,25 0,19 84,140 98,140 10,0 92,-130 92,-146 0,-7 -9,-16 -20,-19 -46,-15 -14,-25 80,-25 55,0 100,3 100,8 0,4 -13,14 -29,23 -27,16 -119,136 -157,205 l -17,31 52,69 c 29,38 66,77 84,87 l 32,17 h -80 c -59,-1 -75,-3 -62,-11 25,-15 21,-39 -15,-93 l -31,-48 -34,53 c -39,63 -41,77 -10,89 15,6 -12,9 -88,9 -100,0 -107,-1 -80,-13 z"
       id="path126" />
    <path
       d="m 16545,5276 c 37,-16 59,-41 118,-130 l 46,-69 -74,-97 c -41,-54 -81,-100 -89,-103 -37,-15 -12,-27 54,-27 68,0 91,12 50,25 -11,3 -20,15 -20,25 0,19 84,140 98,140 10,0 92,-130 92,-146 0,-7 -9,-16 -20,-19 -46,-15 -14,-25 80,-25 55,0 100,3 100,8 0,4 -13,14 -29,23 -27,16 -119,136 -157,205 l -17,31 52,69 c 29,38 66,77 84,87 l 32,17 h -80 c -59,-1 -75,-3 -62,-11 25,-15 21,-39 -15,-93 l -31,-48 -34,53 c -39,63 -41,77 -10,89 15,6 -12,9 -88,9 -100,0 -107,-1 -80,-13 z"
       id="path128" />
    <path
       d="m 17847,5263 c 21,-21 48,-81 103,-226 40,-108 78,-196 84,-194 6,2 37,63 70,135 32,72 62,130 65,127 3,-2 29,-62 56,-134 28,-72 55,-131 61,-131 6,0 46,92 89,205 59,156 84,210 104,225 l 26,19 h -75 c -62,0 -70,-2 -47,-11 15,-5 27,-17 27,-26 0,-21 -93,-272 -101,-272 -9,0 -99,233 -99,257 0,14 10,28 28,37 25,14 21,15 -78,15 -65,0 -97,-3 -85,-9 27,-10 40,-27 60,-76 l 16,-42 -43,-96 c -24,-52 -46,-96 -49,-96 -9,0 -99,252 -99,278 0,14 8,26 23,32 15,6 -5,9 -72,9 l -93,1 z"
       id="path130" />
    <path
       d="m 5764,5135 c -8,-21 2,-45 19,-45 21,0 38,25 31,44 -8,20 -43,21 -50,1 z"
       id="path132" />
    <path
       d="m 18544,5135 c -8,-21 2,-45 19,-45 21,0 38,25 31,44 -8,20 -43,21 -50,1 z"
       id="path134" />
    <path
       d="m 5735,5020 c 3,-5 13,-10 21,-10 11,0 14,-21 14,-113 v -113 l -27,-11 c -24,-9 -18,-11 45,-12 47,-1 71,3 67,9 -3,6 -15,10 -26,10 -18,0 -19,8 -19,125 v 125 h -41 c -24,0 -38,-4 -34,-10 z"
       id="path136" />
    <path
       d="m 18515,5020 c 3,-5 13,-10 21,-10 11,0 14,-21 14,-113 v -113 l -27,-11 c -24,-9 -18,-11 45,-12 47,-1 71,3 67,9 -3,6 -15,10 -26,10 -18,0 -19,8 -19,125 v 125 h -41 c -24,0 -38,-4 -34,-10 z"
       id="path138" />
    <path
       d="m 4580,4930 c -41,-41 -8,-98 49,-85 30,6 31,5 31,-25 0,-32 -38,-79 -85,-106 -11,-7 -17,-15 -13,-19 12,-12 98,45 119,78 29,48 26,117 -7,151 -32,31 -67,33 -94,6 z"
       id="path140" />
    <path
       d="m 5940,4930 c -41,-41 -8,-98 49,-85 30,6 31,5 31,-25 0,-32 -38,-79 -85,-106 -11,-7 -17,-15 -13,-19 12,-12 98,45 119,78 29,48 26,117 -7,151 -32,31 -67,33 -94,6 z"
       id="path142" />
    <path
       d="m 17360,4930 c -41,-41 -8,-98 49,-85 30,6 31,5 31,-25 0,-32 -38,-79 -85,-106 -11,-7 -17,-15 -13,-19 12,-12 98,45 119,78 29,48 26,117 -7,151 -32,31 -67,33 -94,6 z"
       id="path144" />
    <path
       d="m 18720,4930 c -41,-41 -8,-98 49,-85 30,6 31,5 31,-25 0,-32 -38,-79 -85,-106 -11,-7 -17,-15 -13,-19 12,-12 98,45 119,78 29,48 26,117 -7,151 -32,31 -67,33 -94,6 z"
       id="path146" />
    <path
       d="m 27740,3630 v -970 h 35 35 v 970 970 h -35 -35 z"
       id="path148" />
    <path
       d="m 14186,3432 c -655,-488 -1191,-893 -1193,-898 -2,-6 4,-21 14,-33 l 18,-22 1189,888 c 654,488 1191,893 1193,898 1,6 -5,20 -15,33 l -17,22 z"
       id="path150" />
    <path
       d="m 17531,4289 c -17,-7 -21,-14 -16,-27 4,-9 137,-377 297,-817 160,-440 292,-801 293,-803 6,-8 66,22 62,32 -299,831 -593,1626 -601,1625 -6,0 -22,-5 -35,-10 z"
       id="path152" />
    <path
       d="m 4270,3430 v -860 l -101,112 c -152,169 -144,162 -120,108 130,-294 250,-551 256,-551 7,-1 206,428 261,561 16,40 32,56 -146,-144 l -75,-84 -3,859 -2,859 h -35 -35 z"
       id="path154" />
    <path
       d="m 18275,2732 c -32,-81 -61,-151 -65,-155 -5,-5 -11,5 -15,22 -8,39 -17,44 -50,31 -28,-11 -29,-22 -8,-77 5,-14 4,-16 -8,-7 -8,6 -77,44 -154,84 -134,70 -138,72 -111,39 71,-85 427,-438 430,-427 6,21 48,629 44,634 -3,2 -31,-63 -63,-144 z"
       id="path156" />
    <path
       d="m 27511,2813 c 15,-47 265,-590 270,-585 5,6 136,296 241,532 l 28,65 -47,-50 c -27,-27 -81,-86 -120,-130 l -73,-80 v 43 c 0,41 -1,42 -35,42 -34,0 -35,-1 -35,-40 v -40 l -101,112 c -122,136 -132,146 -128,131 z"
       id="path158" />
    <path
       d="m 12808,2529 c -87,-156 -156,-284 -155,-285 1,-1 148,31 327,71 179,40 316,74 305,74 -11,1 -83,8 -160,16 -77,8 -149,15 -160,15 -16,0 -14,4 12,23 38,26 39,28 14,58 l -19,24 -31,-23 c -17,-12 -31,-19 -31,-14 0,5 14,76 30,158 17,81 29,152 27,157 -1,5 -73,-119 -159,-274 z"
       id="path160" />
    <path
       d="M 2510,1265 V 840 h 105 c 87,0 105,3 105,15 0,12 -14,15 -70,15 h -70 v 395 395 h 70 c 56,0 70,3 70,15 0,12 -18,15 -105,15 h -105 z"
       id="path162" />
    <path
       d="m 3930,1675 c 0,-12 14,-15 65,-15 h 65 V 1265 870 h -65 c -51,0 -65,-3 -65,-15 0,-12 18,-15 100,-15 h 100 v 425 425 h -100 c -82,0 -100,-3 -100,-15 z"
       id="path164" />
    <path
       d="m 9981,1643 -34,-46 -12,30 c -7,17 -26,35 -44,43 -48,19 -98,-3 -138,-64 -46,-68 -58,-116 -58,-236 0,-92 3,-112 26,-160 57,-121 141,-180 260,-180 95,0 162,36 206,110 35,58 36,80 2,36 -32,-41 -96,-68 -170,-74 -123,-9 -198,50 -234,182 -23,84 -18,274 8,324 32,60 103,64 129,8 9,-21 7,-35 -12,-77 -26,-61 -21,-88 33,-194 42,-84 47,-106 31,-144 -19,-46 -18,-48 12,-20 46,43 67,96 60,152 -6,39 -3,53 10,68 25,27 52,23 72,-11 l 18,-29 35,28 c 32,27 33,30 20,55 -28,51 -97,43 -147,-17 -26,-30 -27,-31 -41,-12 -28,37 -63,114 -63,137 0,13 7,34 16,46 14,21 17,21 44,7 59,-31 137,-13 179,41 25,31 20,45 -7,21 -25,-23 -74,-21 -122,3 -22,11 -41,20 -42,20 -2,-1 -18,-21 -37,-47 z"
       id="path166" />
    <path
       d="M 16820,1265 V 840 h 105 c 87,0 105,3 105,15 0,12 -14,15 -70,15 h -70 v 395 395 h 70 c 56,0 70,3 70,15 0,12 -18,15 -105,15 h -105 z"
       id="path168" />
    <path
       d="m 18230,1675 c 0,-12 14,-15 65,-15 h 65 V 1265 870 h -65 c -51,0 -65,-3 -65,-15 0,-12 18,-15 100,-15 h 100 v 425 425 h -100 c -82,0 -100,-3 -100,-15 z"
       id="path170" />
    <path
       d="M 27220,1265 V 840 h 105 c 87,0 105,3 105,15 0,12 -14,15 -70,15 h -70 v 395 395 h 70 c 56,0 70,3 70,15 0,12 -18,15 -105,15 h -105 z"
       id="path172" />
    <path
       d="m 27960,1675 c 0,-12 14,-15 65,-15 h 65 V 1265 870 h -65 c -51,0 -65,-3 -65,-15 0,-12 18,-15 100,-15 h 100 v 425 425 h -100 c -82,0 -100,-3 -100,-15 z"
       id="path174" />
    <path
       d="m 1958,1671 c 19,-5 39,-14 45,-20 17,-17 17,-575 0,-592 -6,-6 -26,-15 -45,-19 -21,-5 17,-8 107,-8 93,0 129,3 105,8 -54,13 -60,29 -60,166 v 123 l 68,-6 c 86,-7 143,9 186,52 57,57 66,160 18,224 -10,14 -39,37 -63,51 -42,24 -53,25 -219,27 -111,1 -163,-1 -142,-6 z m 265,-32 c 44,-23 66,-53 78,-105 27,-120 -56,-208 -168,-178 -22,6 -23,10 -23,144 0,101 3,140 13,143 23,10 78,7 100,-4 z"
       id="path176" />
    <path
       d="m 16268,1671 c 19,-5 39,-14 45,-20 9,-9 12,-94 12,-296 0,-202 -3,-287 -12,-296 -6,-6 -26,-15 -45,-19 -21,-5 17,-8 107,-8 93,0 129,3 105,8 -54,13 -60,29 -60,166 v 123 l 68,-6 c 86,-7 143,9 186,52 57,57 66,160 18,224 -10,14 -39,37 -63,51 -42,24 -53,25 -219,27 -111,1 -163,-1 -142,-6 z m 265,-32 c 44,-23 66,-53 78,-105 27,-120 -56,-208 -168,-178 -22,6 -23,10 -23,144 0,101 3,140 13,143 23,10 78,7 100,-4 z"
       id="path178" />
    <path
       d="m 26658,1671 c 19,-5 39,-14 45,-20 9,-9 12,-94 12,-296 0,-202 -3,-287 -12,-296 -6,-6 -26,-15 -45,-19 -21,-5 17,-8 107,-8 93,0 129,3 105,8 -54,13 -60,29 -60,166 v 123 l 68,-6 c 86,-7 143,9 186,52 57,57 66,160 18,224 -10,14 -39,37 -63,51 -42,24 -53,25 -219,27 -111,1 -163,-1 -142,-6 z m 265,-32 c 44,-23 66,-53 78,-105 27,-120 -56,-208 -168,-178 -22,6 -23,10 -23,144 0,101 3,140 13,143 23,10 78,7 100,-4 z"
       id="path180" />
    <path
       d="m 6330,1485 v -115 h -115 c -108,0 -115,-1 -115,-20 0,-19 7,-20 115,-20 h 115 v -115 c 0,-108 1,-115 20,-115 19,0 20,7 20,115 v 115 h 120 c 113,0 120,1 120,20 0,19 -7,20 -120,20 h -120 v 115 c 0,108 -1,115 -20,115 -19,0 -20,-7 -20,-115 z"
       id="path182" />
    <path
       d="m 13480,1485 v -115 h -115 c -108,0 -115,-1 -115,-20 0,-19 7,-20 115,-20 h 115 v -115 c 0,-108 1,-115 20,-115 19,0 20,7 20,115 v 115 h 120 c 113,0 120,1 120,20 0,19 -7,20 -120,20 h -120 v 115 c 0,108 -1,115 -20,115 -19,0 -20,-7 -20,-115 z"
       id="path184" />
    <path
       d="m 20630,1485 v -115 h -115 c -108,0 -115,-1 -115,-20 0,-19 7,-20 115,-20 h 115 v -115 c 0,-108 1,-115 20,-115 19,0 20,7 20,115 v 115 h 120 c 113,0 120,1 120,20 0,19 -7,20 -120,20 h -120 v 115 c 0,108 -1,115 -20,115 -19,0 -20,-7 -20,-115 z"
       id="path186" />
    <path
       d="m 30340,1485 v -115 h -120 c -113,0 -120,-1 -120,-20 0,-19 7,-20 120,-20 h 120 v -95 -95 h -120 c -113,0 -120,-1 -120,-20 0,-19 7,-20 255,-20 248,0 255,1 255,20 0,19 -7,20 -115,20 h -115 v 95 95 h 115 c 108,0 115,1 115,20 0,19 -7,20 -115,20 h -115 v 115 c 0,108 -1,115 -20,115 -19,0 -20,-7 -20,-115 z"
       id="path188" />
    <path
       d="m 24950,1550 v -40 h 115 115 v -80 -80 h -115 -115 v -40 -40 h 115 115 v -80 -80 h -115 -115 v -40 -40 h 155 155 v 280 280 h -155 -155 z"
       id="path190" />
    <path
       d="m 2863,1460 c -54,-24 -83,-76 -65,-115 23,-50 72,-25 72,36 0,43 27,69 70,69 38,0 60,-20 70,-65 14,-61 15,-60 -57,-90 -76,-32 -132,-64 -151,-88 -39,-47 -31,-130 16,-168 38,-29 98,-22 150,20 22,17 42,31 45,31 2,0 7,-13 10,-30 11,-52 80,-48 131,9 23,26 16,37 -14,21 -39,-21 -45,-1 -48,163 -1,86 -7,162 -14,174 -25,50 -140,68 -215,33 z m 157,-249 c 0,-74 -2,-81 -26,-100 -57,-44 -107,-39 -130,14 -16,40 -8,69 27,101 21,19 102,61 122,63 4,1 7,-35 7,-78 z"
       id="path192" />
    <path
       d="m 3266,1467 c -38,-28 -13,-97 34,-97 22,0 50,32 50,57 0,23 -29,53 -51,53 -9,0 -23,-6 -33,-13 z"
       id="path194" />
    <path
       d="m 10333,1460 c -54,-24 -83,-76 -65,-115 23,-50 72,-25 72,36 0,43 27,69 70,69 38,0 60,-20 70,-65 14,-61 15,-60 -57,-90 -76,-32 -132,-64 -151,-88 -39,-47 -31,-130 16,-168 38,-29 98,-22 150,20 22,17 42,31 45,31 2,0 7,-13 10,-30 11,-52 80,-48 131,9 23,26 16,37 -14,21 -39,-21 -45,-1 -48,163 -1,86 -7,162 -14,174 -25,50 -140,68 -215,33 z m 157,-249 c 0,-74 -2,-81 -26,-100 -57,-44 -107,-39 -130,14 -16,40 -8,69 27,101 21,19 102,61 122,63 4,1 7,-35 7,-78 z"
       id="path196" />
    <path
       d="m 10736,1467 c -38,-28 -13,-97 34,-97 22,0 50,32 50,57 0,23 -29,53 -51,53 -9,0 -23,-6 -33,-13 z"
       id="path198" />
    <path
       d="m 17173,1460 c -54,-24 -83,-76 -65,-115 23,-50 72,-25 72,36 0,43 27,69 70,69 38,0 60,-20 70,-65 14,-61 15,-60 -57,-90 -76,-32 -132,-64 -151,-88 -39,-47 -31,-130 16,-168 38,-29 98,-22 150,20 22,17 42,31 45,31 2,0 7,-13 10,-30 11,-52 80,-48 131,9 23,26 16,37 -14,21 -39,-21 -45,-1 -48,163 -1,86 -7,162 -14,174 -25,50 -140,68 -215,33 z m 157,-249 c 0,-74 -2,-81 -26,-100 -57,-44 -107,-39 -130,14 -16,40 -8,69 27,101 21,19 102,61 122,63 4,1 7,-35 7,-78 z"
       id="path200" />
    <path
       d="m 17576,1467 c -38,-28 -13,-97 34,-97 22,0 50,32 50,57 0,23 -29,53 -51,53 -9,0 -23,-6 -33,-13 z"
       id="path202" />
    <path
       d="m 3455,1456 c 37,-16 59,-41 118,-130 l 46,-69 -74,-97 c -41,-54 -81,-100 -89,-103 -37,-15 -12,-27 54,-27 68,0 91,12 50,25 -11,3 -20,15 -20,25 0,19 84,140 98,140 10,0 92,-130 92,-146 0,-7 -9,-16 -20,-19 -46,-15 -14,-25 80,-25 55,0 100,3 100,8 0,4 -13,14 -29,23 -27,16 -119,136 -157,205 l -17,31 52,69 c 29,38 66,77 84,87 l 32,17 h -80 c -59,-1 -75,-3 -62,-11 25,-15 21,-39 -15,-93 l -31,-48 -34,53 c -39,63 -41,77 -10,89 15,6 -12,9 -88,9 -100,0 -107,-1 -80,-13 z"
       id="path204" />
    <path
       d="m 4757,1443 c 21,-21 48,-81 103,-226 40,-108 78,-196 84,-194 6,2 37,63 70,135 32,72 62,130 65,127 3,-2 29,-62 56,-134 28,-72 55,-131 61,-131 6,0 46,92 89,205 59,156 84,210 104,225 l 26,19 h -75 c -62,0 -70,-2 -47,-11 15,-5 27,-17 27,-26 0,-21 -93,-272 -101,-272 -9,0 -99,233 -99,257 0,14 10,28 28,37 25,14 21,15 -78,15 -65,0 -97,-3 -85,-9 27,-10 40,-27 60,-76 l 16,-42 -43,-96 c -24,-52 -46,-96 -49,-96 -9,0 -99,252 -99,278 0,14 8,26 23,32 15,6 -5,9 -72,9 l -93,1 z"
       id="path206" />
    <path
       d="m 10925,1456 c 37,-16 59,-41 118,-130 l 46,-69 -74,-97 c -41,-54 -81,-100 -89,-103 -37,-15 -12,-27 54,-27 68,0 91,12 50,25 -11,3 -20,15 -20,25 0,19 84,140 98,140 10,0 92,-130 92,-146 0,-7 -9,-16 -20,-19 -46,-15 -14,-25 80,-25 55,0 100,3 100,8 0,4 -13,14 -29,23 -27,16 -119,136 -157,205 l -17,31 52,69 c 29,38 66,77 84,87 l 32,17 h -80 c -59,-1 -75,-3 -62,-11 25,-15 21,-39 -15,-93 l -31,-48 -34,53 c -39,63 -41,77 -10,89 15,6 -12,9 -88,9 -100,0 -107,-1 -80,-13 z"
       id="path208" />
    <path
       d="m 11917,1443 c 21,-21 48,-81 103,-226 40,-108 78,-196 84,-194 6,2 37,63 70,135 32,72 62,130 65,127 3,-2 29,-62 56,-134 28,-72 55,-131 61,-131 6,0 46,92 89,205 59,156 84,210 104,225 l 26,19 h -75 c -62,0 -70,-2 -47,-11 15,-5 27,-17 27,-26 0,-21 -93,-272 -101,-272 -9,0 -99,233 -99,257 0,14 10,28 28,37 25,14 21,15 -78,15 -65,0 -97,-3 -85,-9 27,-10 40,-27 60,-76 l 16,-42 -43,-96 c -24,-52 -46,-96 -49,-96 -9,0 -99,252 -99,278 0,14 8,26 23,32 15,6 -5,9 -72,9 l -93,1 z"
       id="path210" />
    <path
       d="m 17765,1456 c 37,-16 59,-41 118,-130 l 46,-69 -74,-97 c -41,-54 -81,-100 -89,-103 -37,-15 -12,-27 54,-27 68,0 91,12 50,25 -11,3 -20,15 -20,25 0,19 84,140 98,140 10,0 92,-130 92,-146 0,-7 -9,-16 -20,-19 -46,-15 -14,-25 80,-25 55,0 100,3 100,8 0,4 -13,14 -29,23 -27,16 -119,136 -157,205 l -17,31 52,69 c 29,38 66,77 84,87 l 32,17 h -80 c -59,-1 -75,-3 -62,-11 25,-15 21,-39 -15,-93 l -31,-48 -34,53 c -39,63 -41,77 -10,89 15,6 -12,9 -88,9 -100,0 -107,-1 -80,-13 z"
       id="path212" />
    <path
       d="m 19067,1443 c 21,-21 48,-81 103,-226 40,-108 78,-196 84,-194 6,2 37,63 70,135 32,72 62,130 65,127 3,-2 29,-62 56,-134 28,-72 55,-131 61,-131 6,0 46,92 89,205 59,156 84,210 104,225 l 26,19 h -75 c -62,0 -70,-2 -47,-11 15,-5 27,-17 27,-26 0,-21 -93,-272 -101,-272 -9,0 -99,233 -99,257 0,14 10,28 28,37 25,14 21,15 -78,15 -65,0 -97,-3 -85,-9 27,-10 40,-27 60,-76 l 16,-42 -43,-96 c -24,-52 -46,-96 -49,-96 -9,0 -99,252 -99,278 0,14 8,26 23,32 15,6 -5,9 -72,9 l -93,1 z"
       id="path214" />
    <path
       d="m 25345,1456 c 37,-16 59,-41 118,-130 l 46,-69 -74,-97 c -41,-54 -81,-100 -89,-103 -37,-15 -12,-27 54,-27 68,0 91,12 50,25 -11,3 -20,15 -20,25 0,19 84,140 98,140 10,0 92,-130 92,-146 0,-7 -9,-16 -20,-19 -46,-15 -14,-25 80,-25 55,0 100,3 100,8 0,4 -13,14 -29,23 -27,16 -119,136 -157,205 l -17,31 52,69 c 29,38 66,77 84,87 l 32,17 h -80 c -59,-1 -75,-3 -62,-11 25,-15 21,-39 -15,-93 l -31,-48 -34,53 c -39,63 -41,77 -10,89 15,6 -12,9 -88,9 -100,0 -107,-1 -80,-13 z"
       id="path216" />
    <path
       d="m 27485,1456 c 37,-16 59,-41 118,-130 l 46,-69 -74,-97 c -41,-54 -81,-100 -89,-103 -37,-15 -12,-27 54,-27 68,0 91,12 50,25 -11,3 -20,15 -20,25 0,19 84,140 98,140 10,0 92,-130 92,-146 0,-7 -9,-16 -20,-19 -46,-15 -14,-25 80,-25 55,0 100,3 100,8 0,4 -13,14 -29,23 -27,16 -119,136 -157,205 l -17,31 52,69 c 29,38 66,77 84,87 l 32,17 h -80 c -59,-1 -75,-3 -62,-11 25,-15 21,-39 -15,-93 l -31,-48 -34,53 c -39,63 -41,77 -10,89 15,6 -12,9 -88,9 -100,0 -107,-1 -80,-13 z"
       id="path218" />
    <path
       d="m 28787,1443 c 21,-21 48,-81 103,-226 40,-108 78,-196 84,-194 6,2 37,63 70,135 32,72 62,130 65,127 3,-2 29,-62 56,-134 28,-72 55,-131 61,-131 6,0 46,92 89,205 59,156 84,210 104,225 l 26,19 h -75 c -62,0 -70,-2 -47,-11 15,-5 27,-17 27,-26 0,-21 -93,-272 -101,-272 -9,0 -99,233 -99,257 0,14 10,28 28,37 25,14 21,15 -78,15 -65,0 -97,-3 -85,-9 27,-10 40,-27 60,-76 l 16,-42 -43,-96 c -24,-52 -46,-96 -49,-96 -9,0 -99,252 -99,278 0,14 8,26 23,32 15,6 -5,9 -72,9 l -93,1 z"
       id="path220" />
    <path
       d="m 9080,1420 c 0,-19 7,-20 235,-20 h 235 v -75 c 0,-68 2,-75 20,-75 19,0 20,7 20,95 v 95 h -255 c -248,0 -255,-1 -255,-20 z"
       id="path222" />
    <path
       d="m 26060,1420 c 0,-19 7,-20 235,-20 h 235 v -75 c 0,-68 2,-75 20,-75 19,0 20,7 20,95 v 95 h -255 c -248,0 -255,-1 -255,-20 z"
       id="path224" />
    <path
       d="m 5454,1315 c -8,-21 2,-45 19,-45 21,0 38,25 31,44 -8,20 -43,21 -50,1 z"
       id="path226" />
    <path
       d="m 12604,1315 c -8,-21 2,-45 19,-45 21,0 38,25 31,44 -8,20 -43,21 -50,1 z"
       id="path228" />
    <path
       d="m 19754,1315 c -8,-21 2,-45 19,-45 21,0 38,25 31,44 -8,20 -43,21 -50,1 z"
       id="path230" />
    <path
       d="m 29484,1315 c -8,-21 2,-45 19,-45 21,0 38,25 31,44 -8,20 -43,21 -50,1 z"
       id="path232" />
    <path
       d="m 5425,1200 c 3,-5 13,-10 21,-10 11,0 14,-21 14,-113 V 964 l -27,-11 c -24,-9 -18,-11 45,-12 47,-1 71,3 67,9 -3,6 -15,10 -26,10 -18,0 -19,8 -19,125 v 125 h -41 c -24,0 -38,-4 -34,-10 z"
       id="path234" />
    <path
       d="m 12575,1200 c 3,-5 13,-10 21,-10 11,0 14,-21 14,-113 V 964 l -27,-11 c -24,-9 -18,-11 45,-12 47,-1 71,3 67,9 -3,6 -15,10 -26,10 -18,0 -19,8 -19,125 v 125 h -41 c -24,0 -38,-4 -34,-10 z"
       id="path236" />
    <path
       d="m 19725,1200 c 3,-5 13,-10 21,-10 11,0 14,-21 14,-113 V 964 l -27,-11 c -24,-9 -18,-11 45,-12 47,-1 71,3 67,9 -3,6 -15,10 -26,10 -18,0 -19,8 -19,125 v 125 h -41 c -24,0 -38,-4 -34,-10 z"
       id="path238" />
    <path
       d="m 29455,1200 c 3,-5 13,-10 21,-10 11,0 14,-21 14,-113 V 964 l -27,-11 c -24,-9 -18,-11 45,-12 47,-1 71,3 67,9 -3,6 -15,10 -26,10 -18,0 -19,8 -19,125 v 125 h -41 c -24,0 -38,-4 -34,-10 z"
       id="path240" />
    <path
       d="m 3253,1104 c -15,-24 -15,-29 -2,-53 18,-32 54,-39 80,-15 24,22 24,56 1,77 -27,25 -59,21 -79,-9 z"
       id="path242" />
    <path
       d="m 4270,1110 c -41,-41 -8,-98 49,-85 30,6 31,5 31,-25 0,-32 -38,-79 -85,-106 -11,-7 -17,-15 -13,-19 12,-12 98,45 119,78 29,48 26,117 -7,151 -32,31 -67,33 -94,6 z"
       id="path244" />
    <path
       d="m 5630,1110 c -41,-41 -8,-98 49,-85 30,6 31,5 31,-25 0,-32 -38,-79 -85,-106 -11,-7 -17,-15 -13,-19 12,-12 98,45 119,78 29,48 26,117 -7,151 -32,31 -67,33 -94,6 z"
       id="path246" />
    <path
       d="m 10723,1104 c -15,-24 -15,-29 -2,-53 18,-32 54,-39 80,-15 24,22 24,56 1,77 -27,25 -59,21 -79,-9 z"
       id="path248" />
    <path
       d="m 11420,1110 c -41,-41 -8,-98 49,-85 30,6 31,5 31,-25 0,-32 -38,-79 -85,-106 -11,-7 -17,-15 -13,-19 12,-12 98,45 119,78 29,48 26,117 -7,151 -32,31 -67,33 -94,6 z"
       id="path250" />
    <path
       d="m 12780,1110 c -41,-41 -8,-98 49,-85 30,6 31,5 31,-25 0,-32 -38,-79 -85,-106 -11,-7 -17,-15 -13,-19 12,-12 98,45 119,78 29,48 26,117 -7,151 -32,31 -67,33 -94,6 z"
       id="path252" />
    <path
       d="m 17563,1104 c -15,-24 -15,-29 -2,-53 18,-32 54,-39 80,-15 24,22 24,56 1,77 -27,25 -59,21 -79,-9 z"
       id="path254" />
    <path
       d="m 18580,1110 c -41,-41 -8,-98 49,-85 30,6 31,5 31,-25 0,-32 -38,-79 -85,-106 -11,-7 -17,-15 -13,-19 12,-12 98,45 119,78 29,48 26,117 -7,151 -32,31 -67,33 -94,6 z"
       id="path256" />
    <path
       d="m 19930,1110 c -41,-41 -8,-98 49,-85 30,6 31,5 31,-25 0,-32 -38,-79 -85,-106 -11,-7 -17,-15 -13,-19 12,-12 98,45 119,78 29,48 26,117 -7,151 -32,31 -67,33 -94,6 z"
       id="path258" />
    <path
       d="m 28300,1110 c -41,-41 -8,-98 49,-85 30,6 31,5 31,-25 0,-32 -38,-79 -85,-106 -11,-7 -17,-15 -13,-19 12,-12 98,45 119,78 29,48 26,117 -7,151 -32,31 -67,33 -94,6 z"
       id="path260" />
    <path
       d="m 29650,1110 c -41,-41 -8,-98 49,-85 30,6 31,5 31,-25 0,-32 -38,-79 -85,-106 -11,-7 -17,-15 -13,-19 12,-12 98,45 119,78 29,48 26,117 -7,151 -32,31 -67,33 -94,6 z"
       id="path262" />
  </g>
</svg>
