<?xml version="1.0" encoding="UTF-8" standalone="no"?>
<svg
   version="1.0"
   width="1530.2875pt"
   height="896.76648pt"
   viewBox="0 0 1530.2875 896.76648"
   preserveAspectRatio="xMidYMid meet"
   id="svg194"
   xmlns="http://www.w3.org/2000/svg"
   xmlns:svg="http://www.w3.org/2000/svg">
  <defs
     id="defs198" />
  <metadata
     id="metadata2">
Created by potrace 1.16, written by Peter Selinger 2001-2019
</metadata>
  <g
     transform="matrix(0.1,0,0,-0.1,-86.712478,976.90191)"
     fill="#000000"
     stroke="none"
     id="g192">
    <path
       d="m 3180,9748 c -56,-21 -96,-47 -52,-33 50,15 52,5 52,-301 v -284 l 40,-20 c 197,-100 391,80 329,305 -15,52 -74,111 -122,120 -51,10 -81,0 -127,-41 l -40,-36 v 156 c 0,118 -3,156 -12,155 -7,0 -38,-9 -68,-21 z m 244,-309 c 76,-66 76,-221 0,-297 -30,-30 -39,-34 -73,-29 -21,2 -50,13 -65,22 -26,17 -26,18 -26,149 0,125 1,134 23,153 47,43 94,44 141,2 z"
       id="path4" />
    <path
       d="m 12330,9748 c -56,-21 -96,-47 -52,-33 50,15 52,5 52,-301 v -284 l 40,-20 c 197,-100 391,80 329,305 -15,52 -74,111 -122,120 -51,10 -81,0 -127,-41 l -40,-36 v 156 c 0,118 -3,156 -12,155 -7,0 -38,-9 -68,-21 z m 244,-309 c 76,-66 76,-221 0,-297 -30,-30 -39,-34 -73,-29 -21,2 -50,13 -65,22 -26,17 -26,18 -26,149 0,125 1,134 23,153 47,43 94,44 141,2 z"
       id="path6" />
    <path
       d="m 9949,9732 c -92,-59 -173,-182 -198,-300 -31,-150 10,-320 105,-430 37,-44 134,-116 143,-106 3,2 -18,28 -46,57 -66,67 -89,116 -108,223 -18,106 -19,205 -1,305 19,106 48,166 108,222 28,26 49,50 46,52 -2,3 -24,-8 -49,-23 z"
       id="path8" />
    <path
       d="m 13470,9755 c 0,-3 22,-28 49,-54 27,-26 58,-65 69,-87 31,-61 52,-182 52,-296 0,-183 -40,-301 -125,-375 -25,-23 -45,-44 -45,-47 0,-17 85,43 130,90 87,92 130,203 130,340 0,132 -44,247 -130,338 -44,47 -130,107 -130,91 z"
       id="path10" />
    <path
       d="m 6370,9545 v -115 h -120 c -113,0 -120,-1 -120,-20 0,-19 7,-20 120,-20 h 120 v -95 -95 h -120 c -113,0 -120,-1 -120,-20 0,-19 7,-20 255,-20 248,0 255,1 255,20 0,19 -7,20 -115,20 h -115 v 95 95 h 115 c 108,0 115,1 115,20 0,19 -7,20 -115,20 h -115 v 115 c 0,108 -1,115 -20,115 -19,0 -20,-7 -20,-115 z"
       id="path12" />
    <path
       d="m 15880,9545 v -115 h -120 c -113,0 -120,-1 -120,-20 0,-19 7,-20 120,-20 h 120 v -95 -95 h -120 c -113,0 -120,-1 -120,-20 0,-19 7,-20 255,-20 248,0 255,1 255,20 0,19 -7,20 -115,20 h -115 v 95 95 h 115 c 108,0 115,1 115,20 0,19 -7,20 -115,20 h -115 v 115 c 0,108 -1,115 -20,115 -19,0 -20,-7 -20,-115 z"
       id="path14" />
    <path
       d="m 993,9520 c -54,-24 -83,-76 -65,-115 23,-50 72,-25 72,36 0,43 27,69 70,69 38,0 60,-20 70,-65 14,-61 15,-60 -57,-90 -76,-32 -132,-64 -151,-88 -39,-47 -31,-130 16,-168 38,-29 98,-22 150,20 22,17 42,31 45,31 2,0 7,-13 10,-30 11,-52 80,-48 131,9 23,26 16,37 -14,21 -39,-21 -45,-1 -48,163 -1,86 -7,162 -14,174 -25,50 -140,68 -215,33 z m 157,-249 c 0,-74 -2,-81 -26,-100 -57,-44 -107,-39 -130,14 -16,40 -8,69 27,101 21,19 102,61 122,63 4,1 7,-35 7,-78 z"
       id="path16" />
    <path
       d="m 1386,9527 c -38,-28 -13,-97 34,-97 22,0 50,32 50,57 0,23 -29,53 -51,53 -9,0 -23,-6 -33,-13 z"
       id="path18" />
    <path
       d="m 3686,9527 c -38,-28 -13,-97 34,-97 22,0 50,32 50,57 0,23 -29,53 -51,53 -9,0 -23,-6 -33,-13 z"
       id="path20" />
    <path
       d="m 10143,9520 c -54,-24 -83,-76 -65,-115 23,-50 72,-25 72,36 0,43 27,69 70,69 38,0 60,-20 70,-65 14,-61 15,-60 -57,-90 -76,-32 -132,-64 -151,-88 -39,-47 -31,-130 16,-168 38,-29 98,-22 150,20 22,17 42,31 45,31 2,0 7,-13 10,-30 11,-52 80,-48 131,9 23,26 16,37 -14,21 -39,-21 -45,-1 -48,163 -1,86 -7,162 -14,174 -25,50 -140,68 -215,33 z m 157,-249 c 0,-74 -2,-81 -26,-100 -57,-44 -107,-39 -130,14 -16,40 -8,69 27,101 21,19 102,61 122,63 4,1 7,-35 7,-78 z"
       id="path22" />
    <path
       d="m 10536,9527 c -38,-28 -13,-97 34,-97 22,0 50,32 50,57 0,23 -29,53 -51,53 -9,0 -23,-6 -33,-13 z"
       id="path24" />
    <path
       d="m 12836,9527 c -38,-28 -13,-97 34,-97 22,0 50,32 50,57 0,23 -29,53 -51,53 -9,0 -23,-6 -33,-13 z"
       id="path26" />
    <path
       d="m 1585,9516 c 37,-16 59,-41 118,-130 l 46,-69 -74,-97 c -41,-54 -81,-100 -89,-103 -37,-15 -12,-27 54,-27 68,0 91,12 50,25 -11,3 -20,15 -20,25 0,19 84,140 98,140 10,0 92,-130 92,-146 0,-7 -9,-16 -20,-19 -46,-15 -14,-25 80,-25 55,0 100,3 100,8 0,4 -13,14 -29,23 -27,16 -119,136 -157,205 l -17,31 52,69 c 29,38 66,77 84,87 l 32,17 h -80 c -59,-1 -75,-3 -62,-11 25,-15 21,-39 -15,-93 l -31,-48 -34,53 c -39,63 -41,77 -10,89 15,6 -12,9 -88,9 -100,0 -107,-1 -80,-13 z"
       id="path28" />
    <path
       d="m 2290,9510 c 0,-19 7,-20 255,-20 248,0 255,1 255,20 0,19 -7,20 -255,20 -248,0 -255,-1 -255,-20 z"
       id="path30" />
    <path
       d="m 3873,9507 c 16,-13 57,-84 103,-177 111,-227 105,-208 80,-269 -13,-29 -32,-61 -42,-72 -19,-18 -25,-19 -66,-8 -58,16 -81,2 -76,-45 4,-38 42,-62 82,-52 58,14 93,64 157,216 153,372 170,407 192,418 18,9 7,11 -53,11 -55,0 -69,-3 -52,-9 32,-13 28,-42 -21,-161 -24,-57 -47,-113 -51,-124 -6,-16 -19,3 -67,98 -67,133 -74,176 -29,188 14,4 -22,7 -80,8 l -105,1 z"
       id="path32" />
    <path
       d="m 4807,9503 c 21,-21 48,-81 103,-226 40,-108 78,-196 84,-194 6,2 37,63 70,135 32,72 62,130 65,127 3,-2 29,-62 56,-134 28,-72 55,-131 61,-131 6,0 46,92 89,205 59,156 84,210 104,225 l 26,19 h -75 c -62,0 -70,-2 -47,-11 15,-5 27,-17 27,-26 0,-21 -93,-272 -101,-272 -9,0 -99,233 -99,257 0,14 10,28 28,37 25,14 21,15 -78,15 -65,0 -97,-3 -85,-9 27,-10 40,-27 60,-76 l 16,-42 -43,-96 c -24,-52 -46,-96 -49,-96 -9,0 -99,252 -99,278 0,14 8,26 23,32 15,6 -5,9 -72,9 l -93,1 z"
       id="path34" />
    <path
       d="m 10725,9516 c 37,-16 59,-41 118,-130 l 46,-69 -74,-97 c -41,-54 -81,-100 -89,-103 -37,-15 -12,-27 54,-27 68,0 91,12 50,25 -11,3 -20,15 -20,25 0,19 84,140 98,140 10,0 92,-130 92,-146 0,-7 -9,-16 -20,-19 -46,-15 -14,-25 80,-25 55,0 100,3 100,8 0,4 -13,14 -29,23 -27,16 -119,136 -157,205 l -17,31 52,69 c 29,38 66,77 84,87 l 32,17 h -80 c -59,-1 -75,-3 -62,-11 25,-15 21,-39 -15,-93 l -31,-48 -34,53 c -39,63 -41,77 -10,89 15,6 -12,9 -88,9 -100,0 -107,-1 -80,-13 z"
       id="path36" />
    <path
       d="m 11440,9510 c 0,-19 7,-20 255,-20 248,0 255,1 255,20 0,19 -7,20 -255,20 -248,0 -255,-1 -255,-20 z"
       id="path38" />
    <path
       d="m 13023,9507 c 16,-13 57,-84 103,-177 111,-227 105,-208 80,-269 -13,-29 -32,-61 -42,-72 -19,-18 -25,-19 -66,-8 -58,16 -81,2 -76,-45 4,-38 42,-62 82,-52 58,14 93,64 157,216 153,372 170,407 192,418 18,9 7,11 -53,11 -55,0 -69,-3 -52,-9 32,-13 28,-42 -21,-161 -24,-57 -47,-113 -51,-124 -6,-16 -19,3 -67,98 -67,133 -74,176 -29,188 14,4 -22,7 -80,8 l -105,1 z"
       id="path40" />
    <path
       d="m 14327,9503 c 21,-21 48,-81 103,-226 40,-108 78,-196 84,-194 6,2 37,63 70,135 32,72 62,130 65,127 3,-2 29,-62 56,-134 28,-72 55,-131 61,-131 6,0 46,92 89,205 59,156 84,210 104,225 l 26,19 h -75 c -62,0 -70,-2 -47,-11 15,-5 27,-17 27,-26 0,-21 -93,-272 -101,-272 -9,0 -99,233 -99,257 0,14 10,28 28,37 25,14 21,15 -78,15 -65,0 -97,-3 -85,-9 27,-10 40,-27 60,-76 l 16,-42 -43,-96 c -24,-52 -46,-96 -49,-96 -9,0 -99,252 -99,278 0,14 8,26 23,32 15,6 -5,9 -72,9 l -93,1 z"
       id="path42" />
    <path
       d="m 9150,9480 c 0,-19 7,-20 235,-20 h 235 v -75 c 0,-68 2,-75 20,-75 19,0 20,7 20,95 v 95 h -255 c -248,0 -255,-1 -255,-20 z"
       id="path44" />
    <path
       d="m 5504,9375 c -8,-21 2,-45 19,-45 21,0 38,25 31,44 -8,20 -43,21 -50,1 z"
       id="path46" />
    <path
       d="m 15024,9375 c -8,-21 2,-45 19,-45 21,0 38,25 31,44 -8,20 -43,21 -50,1 z"
       id="path48" />
    <path
       d="m 2290,9350 c 0,-19 7,-20 255,-20 248,0 255,1 255,20 0,19 -7,20 -255,20 -248,0 -255,-1 -255,-20 z"
       id="path50" />
    <path
       d="m 11440,9350 c 0,-19 7,-20 255,-20 248,0 255,1 255,20 0,19 -7,20 -255,20 -248,0 -255,-1 -255,-20 z"
       id="path52" />
    <path
       d="m 5475,9260 c 3,-5 13,-10 21,-10 11,0 14,-21 14,-113 v -113 l -27,-11 c -24,-9 -18,-11 45,-12 47,-1 71,3 67,9 -3,6 -15,10 -26,10 -18,0 -19,8 -19,125 v 125 h -41 c -24,0 -38,-4 -34,-10 z"
       id="path54" />
    <path
       d="m 14995,9260 c 3,-5 13,-10 21,-10 11,0 14,-21 14,-113 v -113 l -27,-11 c -24,-9 -18,-11 45,-12 47,-1 71,3 67,9 -3,6 -15,10 -26,10 -18,0 -19,8 -19,125 v 125 h -41 c -24,0 -38,-4 -34,-10 z"
       id="path56" />
    <path
       d="m 1373,9164 c -15,-24 -15,-29 -2,-53 18,-32 54,-39 80,-15 24,22 24,56 1,77 -27,25 -59,21 -79,-9 z"
       id="path58" />
    <path
       d="m 3673,9164 c -15,-24 -15,-29 -2,-53 18,-32 54,-39 80,-15 24,22 24,56 1,77 -27,25 -59,21 -79,-9 z"
       id="path60" />
    <path
       d="m 4340,9170 c -41,-41 -8,-98 49,-85 30,6 31,5 31,-25 0,-32 -38,-79 -85,-106 -11,-7 -17,-15 -13,-19 12,-12 98,45 119,78 29,48 26,117 -7,151 -32,31 -67,33 -94,6 z"
       id="path62" />
    <path
       d="m 5680,9170 c -41,-41 -8,-98 49,-85 30,6 31,5 31,-25 0,-32 -38,-79 -85,-106 -11,-7 -17,-15 -13,-19 12,-12 98,45 119,78 29,48 26,117 -7,151 -32,31 -67,33 -94,6 z"
       id="path64" />
    <path
       d="m 10523,9164 c -15,-24 -15,-29 -2,-53 18,-32 54,-39 80,-15 24,22 24,56 1,77 -27,25 -59,21 -79,-9 z"
       id="path66" />
    <path
       d="m 12823,9164 c -15,-24 -15,-29 -2,-53 18,-32 54,-39 80,-15 24,22 24,56 1,77 -27,25 -59,21 -79,-9 z"
       id="path68" />
    <path
       d="m 13840,9170 c -41,-41 -8,-98 49,-85 30,6 31,5 31,-25 0,-32 -38,-79 -85,-106 -11,-7 -17,-15 -13,-19 12,-12 98,45 119,78 29,48 26,117 -7,151 -32,31 -67,33 -94,6 z"
       id="path70" />
    <path
       d="m 15190,9170 c -41,-41 -8,-98 49,-85 30,6 31,5 31,-25 0,-32 -38,-79 -85,-106 -11,-7 -17,-15 -13,-19 12,-12 98,45 119,78 29,48 26,117 -7,151 -32,31 -67,33 -94,6 z"
       id="path72" />
    <path
       d="m 3750,7515 v -815 h 35 35 v 815 815 h -35 -35 z"
       id="path74" />
    <path
       d="m 12640,7515 v -815 h 35 35 v 815 815 h -35 -35 z"
       id="path76" />
    <path
       d="m 3529,6830 c 78,-179 249,-552 255,-553 4,-1 22,32 41,73 18,41 78,176 134,300 l 101,225 -78,-85 c -42,-47 -96,-105 -119,-130 l -43,-45 v 38 c 0,36 -1,37 -35,37 -34,0 -35,-1 -35,-37 v -38 l -43,45 c -23,25 -77,83 -119,130 -76,83 -78,84 -59,40 z"
       id="path78" />
    <path
       d="m 12423,6820 c 69,-159 240,-536 247,-543 3,-4 66,124 138,284 73,161 130,294 128,296 -2,2 -52,-51 -112,-118 l -109,-122 -3,36 c -3,35 -5,37 -38,37 -33,0 -34,-1 -34,-37 v -38 l -48,50 c -26,28 -80,86 -120,130 l -73,80 z"
       id="path80" />
    <path
       d="m 3926,5735 c 15,-27 34,-59 41,-70 7,-11 13,-23 13,-27 0,-5 -135,-8 -300,-8 h -300 v -40 -40 h 300 c 165,0 300,-3 300,-8 0,-4 -6,-16 -13,-27 -7,-11 -26,-42 -41,-70 -28,-49 -26,-48 70,48 l 99,97 -99,98 c -96,95 -98,96 -70,47 z"
       id="path82" />
    <path
       d="m 12806,5735 c 15,-27 34,-59 41,-70 7,-11 13,-23 13,-27 0,-5 -135,-8 -300,-8 h -300 v -40 -40 h 300 c 165,0 300,-3 300,-8 0,-4 -6,-16 -13,-27 -7,-11 -26,-42 -41,-70 -28,-49 -26,-48 70,48 l 99,97 -99,98 c -96,95 -98,96 -70,47 z"
       id="path84" />
    <path
       d="m 2257,5473 c 21,-21 48,-81 103,-226 40,-108 78,-196 84,-194 6,2 37,63 70,135 32,72 62,130 65,127 3,-2 29,-62 56,-134 28,-72 55,-131 61,-131 6,0 46,92 89,205 59,156 84,210 104,225 l 26,19 h -75 c -62,0 -70,-2 -47,-11 15,-5 27,-17 27,-26 0,-21 -93,-272 -101,-272 -9,0 -99,233 -99,257 0,14 10,28 28,37 25,14 21,15 -78,15 -65,0 -97,-3 -85,-9 27,-10 40,-27 60,-76 l 16,-42 -43,-96 c -24,-52 -46,-96 -49,-96 -9,0 -99,252 -99,278 0,14 8,26 23,32 15,6 -5,9 -72,9 l -93,1 z"
       id="path86" />
    <path
       d="m 4447,5473 c 21,-21 48,-81 103,-226 40,-108 78,-196 84,-194 6,2 37,63 70,135 32,72 62,130 65,127 3,-2 29,-62 56,-134 28,-72 55,-131 61,-131 6,0 46,92 89,205 59,156 84,210 104,225 l 26,19 h -75 c -62,0 -70,-2 -47,-11 15,-5 27,-17 27,-26 0,-21 -93,-272 -101,-272 -9,0 -99,233 -99,257 0,14 10,28 28,37 25,14 21,15 -78,15 -65,0 -97,-3 -85,-9 27,-10 40,-27 60,-76 l 16,-42 -43,-96 c -24,-52 -46,-96 -49,-96 -9,0 -99,252 -99,278 0,14 8,26 23,32 15,6 -5,9 -72,9 l -93,1 z"
       id="path88" />
    <path
       d="m 11147,5473 c 21,-21 48,-81 103,-226 40,-108 78,-196 84,-194 6,2 37,63 70,135 32,72 62,130 65,127 3,-2 29,-62 56,-134 28,-72 55,-131 61,-131 6,0 46,92 89,205 59,156 84,210 104,225 l 26,19 h -75 c -62,0 -70,-2 -47,-11 15,-5 27,-17 27,-26 0,-21 -93,-272 -101,-272 -9,0 -99,233 -99,257 0,14 10,28 28,37 25,14 21,15 -78,15 -65,0 -97,-3 -85,-9 27,-10 40,-27 60,-76 l 16,-42 -43,-96 c -24,-52 -46,-96 -49,-96 -9,0 -99,252 -99,278 0,14 8,26 23,32 15,6 -5,9 -72,9 l -93,1 z"
       id="path90" />
    <path
       d="m 13337,5473 c 21,-21 48,-81 103,-226 40,-108 78,-196 84,-194 6,2 37,63 70,135 32,72 62,130 65,127 3,-2 29,-62 56,-134 28,-72 55,-131 61,-131 6,0 46,92 89,205 59,156 84,210 104,225 l 26,19 h -75 c -62,0 -70,-2 -47,-11 15,-5 27,-17 27,-26 0,-21 -93,-272 -101,-272 -9,0 -99,233 -99,257 0,14 10,28 28,37 25,14 21,15 -78,15 -65,0 -97,-3 -85,-9 27,-10 40,-27 60,-76 l 16,-42 -43,-96 c -24,-52 -46,-96 -49,-96 -9,0 -99,252 -99,278 0,14 8,26 23,32 15,6 -5,9 -72,9 l -93,1 z"
       id="path92" />
    <path
       d="m 5157,5404 c -25,-25 8,-70 43,-59 32,10 24,59 -10,63 -14,2 -29,0 -33,-4 z"
       id="path94" />
    <path
       d="m 14047,5404 c -25,-25 8,-70 43,-59 32,10 24,59 -10,63 -14,2 -29,0 -33,-4 z"
       id="path96" />
    <path
       d="m 2954,5345 c -8,-21 2,-45 19,-45 21,0 38,25 31,44 -8,20 -43,21 -50,1 z"
       id="path98" />
    <path
       d="m 3926,5315 c 15,-27 34,-59 41,-70 7,-11 13,-23 13,-27 0,-5 -135,-8 -300,-8 h -300 v -40 -40 h 300 c 165,0 300,-3 300,-8 0,-4 -6,-16 -13,-27 -7,-11 -26,-42 -41,-70 -28,-49 -26,-48 70,48 l 99,97 -99,98 c -96,95 -98,96 -70,47 z"
       id="path100" />
    <path
       d="m 11844,5345 c -8,-21 2,-45 19,-45 21,0 38,25 31,44 -8,20 -43,21 -50,1 z"
       id="path102" />
    <path
       d="m 12806,5315 c 15,-27 34,-59 41,-70 7,-11 13,-23 13,-27 0,-5 -135,-8 -300,-8 h -300 v -40 -40 h 300 c 165,0 300,-3 300,-8 0,-4 -6,-16 -13,-27 -7,-11 -26,-42 -41,-70 -28,-49 -26,-48 70,48 l 99,97 -99,98 c -96,95 -98,96 -70,47 z"
       id="path104" />
    <path
       d="m 5100,5272 c 0,-4 14,-13 30,-19 l 30,-11 -1,-154 c -1,-84 -4,-164 -8,-178 -4,-15 -20,-31 -38,-40 -61,-28 -32,-53 35,-29 60,21 67,43 70,252 l 4,187 h -61 c -34,0 -61,-4 -61,-8 z"
       id="path106" />
    <path
       d="m 13990,5272 c 0,-4 14,-13 30,-19 l 30,-11 -1,-154 c -1,-84 -4,-164 -8,-178 -4,-15 -20,-31 -38,-40 -61,-28 -32,-53 35,-29 60,21 67,43 70,252 l 4,187 h -61 c -34,0 -61,-4 -61,-8 z"
       id="path108" />
    <path
       d="m 2925,5230 c 3,-5 13,-10 21,-10 11,0 14,-21 14,-113 v -113 l -27,-11 c -24,-9 -18,-11 45,-12 47,-1 71,3 67,9 -3,6 -15,10 -26,10 -18,0 -19,8 -19,125 v 125 h -41 c -24,0 -38,-4 -34,-10 z"
       id="path110" />
    <path
       d="m 11815,5230 c 3,-5 13,-10 21,-10 11,0 14,-21 14,-113 v -113 l -27,-11 c -24,-9 -18,-11 45,-12 47,-1 71,3 67,9 -3,6 -15,10 -26,10 -18,0 -19,8 -19,125 v 125 h -41 c -24,0 -38,-4 -34,-10 z"
       id="path112" />
    <path
       d="m 3750,3495 v -815 h 35 35 v 815 815 h -35 -35 z"
       id="path114" />
    <path
       d="m 12640,3495 v -815 h 35 35 v 815 815 h -35 -35 z"
       id="path116" />
    <path
       d="m 3568,2715 c 209,-463 215,-477 224,-461 23,41 258,570 254,573 -2,2 -52,-51 -112,-118 l -109,-121 -3,41 c -3,39 -4,41 -38,41 -33,0 -34,-1 -34,-42 v -43 l -73,80 c -39,44 -93,103 -120,130 l -47,50 z"
       id="path118" />
    <path
       d="m 12428,2780 c 105,-238 236,-526 242,-533 4,-5 187,388 268,578 5,13 -75,-69 -160,-165 l -68,-75 v 43 c 0,41 -1,42 -35,42 -34,0 -35,-1 -35,-42 l -1,-43 -77,85 c -42,47 -96,105 -120,130 l -42,45 z"
       id="path120" />
    <path
       d="m 3140,1688 c -56,-21 -96,-47 -52,-33 50,15 52,5 52,-301 v -284 l 40,-20 c 197,-100 391,80 329,305 -15,52 -74,111 -122,120 -51,10 -81,0 -127,-41 l -40,-36 v 156 c 0,118 -3,156 -12,155 -7,0 -38,-9 -68,-21 z m 244,-309 c 76,-66 76,-221 0,-297 -30,-30 -39,-34 -73,-29 -21,2 -50,13 -65,22 -26,17 -26,18 -26,149 0,125 1,134 23,153 47,43 94,44 141,2 z"
       id="path122" />
    <path
       d="m 12290,1688 c -56,-21 -96,-47 -52,-33 50,15 52,5 52,-301 v -284 l 40,-20 c 197,-100 391,80 329,305 -15,52 -74,111 -122,120 -51,10 -81,0 -127,-41 l -40,-36 v 156 c 0,118 -3,156 -12,155 -7,0 -38,-9 -68,-21 z m 244,-309 c 76,-66 76,-221 0,-297 -30,-30 -39,-34 -73,-29 -21,2 -50,13 -65,22 -26,17 -26,18 -26,149 0,125 1,134 23,153 47,43 94,44 141,2 z"
       id="path124" />
    <path
       d="m 9919,1672 c -92,-59 -173,-182 -198,-300 -31,-150 10,-320 105,-430 37,-44 134,-116 143,-106 3,2 -18,28 -46,57 -66,67 -89,116 -108,223 -18,106 -19,205 -1,305 19,106 48,166 108,222 28,26 49,50 46,52 -2,3 -24,-8 -49,-23 z"
       id="path126" />
    <path
       d="m 13440,1695 c 0,-3 22,-28 49,-54 27,-26 58,-65 69,-87 31,-61 52,-182 52,-296 0,-183 -40,-301 -125,-375 -25,-23 -45,-44 -45,-47 0,-17 85,43 130,90 87,92 130,203 130,340 0,132 -44,247 -130,338 -44,47 -130,107 -130,91 z"
       id="path128" />
    <path
       d="m 6390,1485 v -115 h -120 c -113,0 -120,-1 -120,-20 0,-19 7,-20 120,-20 h 120 v -95 -95 h -120 c -113,0 -120,-1 -120,-20 0,-19 7,-20 255,-20 248,0 255,1 255,20 0,19 -7,20 -115,20 h -115 v 95 95 h 115 c 108,0 115,1 115,20 0,19 -7,20 -115,20 h -115 v 115 c 0,108 -1,115 -20,115 -19,0 -20,-7 -20,-115 z"
       id="path130" />
    <path
       d="m 15900,1485 v -115 h -120 c -113,0 -120,-1 -120,-20 0,-19 7,-20 120,-20 h 120 v -95 -95 h -120 c -113,0 -120,-1 -120,-20 0,-19 7,-20 255,-20 248,0 255,1 255,20 0,19 -7,20 -115,20 h -115 v 95 95 h 115 c 108,0 115,1 115,20 0,19 -7,20 -115,20 h -115 v 115 c 0,108 -1,115 -20,115 -19,0 -20,-7 -20,-115 z"
       id="path132" />
    <path
       d="m 953,1460 c -54,-24 -83,-76 -65,-115 23,-50 72,-25 72,36 0,43 27,69 70,69 38,0 60,-20 70,-65 14,-61 15,-60 -57,-90 -76,-32 -132,-64 -151,-88 -39,-47 -31,-130 16,-168 38,-29 98,-22 150,20 22,17 42,31 45,31 2,0 7,-13 10,-30 11,-52 80,-48 131,9 23,26 16,37 -14,21 -39,-21 -45,-1 -48,163 -1,86 -7,162 -14,174 -25,50 -140,68 -215,33 z m 157,-249 c 0,-74 -2,-81 -26,-100 -57,-44 -107,-39 -130,14 -16,40 -8,69 27,101 21,19 102,61 122,63 4,1 7,-35 7,-78 z"
       id="path134" />
    <path
       d="m 1356,1467 c -38,-28 -13,-97 34,-97 22,0 50,32 50,57 0,23 -29,53 -51,53 -9,0 -23,-6 -33,-13 z"
       id="path136" />
    <path
       d="m 3646,1467 c -38,-28 -13,-97 34,-97 22,0 50,32 50,57 0,23 -29,53 -51,53 -9,0 -23,-6 -33,-13 z"
       id="path138" />
    <path
       d="m 10103,1460 c -54,-24 -83,-76 -65,-115 23,-50 72,-25 72,36 0,43 27,69 70,69 38,0 60,-20 70,-65 14,-61 15,-60 -57,-90 -76,-32 -132,-64 -151,-88 -39,-47 -31,-130 16,-168 38,-29 98,-22 150,20 22,17 42,31 45,31 2,0 7,-13 10,-30 11,-52 80,-48 131,9 23,26 16,37 -14,21 -39,-21 -45,-1 -48,163 -1,86 -7,162 -14,174 -25,50 -140,68 -215,33 z m 157,-249 c 0,-74 -2,-81 -26,-100 -57,-44 -107,-39 -130,14 -16,40 -8,69 27,101 21,19 102,61 122,63 4,1 7,-35 7,-78 z"
       id="path140" />
    <path
       d="m 10506,1467 c -38,-28 -13,-97 34,-97 22,0 50,32 50,57 0,23 -29,53 -51,53 -9,0 -23,-6 -33,-13 z"
       id="path142" />
    <path
       d="m 12796,1467 c -38,-28 -13,-97 34,-97 22,0 50,32 50,57 0,23 -29,53 -51,53 -9,0 -23,-6 -33,-13 z"
       id="path144" />
    <path
       d="m 1545,1456 c 37,-16 59,-41 118,-130 l 46,-69 -74,-97 c -41,-54 -81,-100 -89,-103 -37,-15 -12,-27 54,-27 68,0 91,12 50,25 -11,3 -20,15 -20,25 0,19 84,140 98,140 10,0 92,-130 92,-146 0,-7 -9,-16 -20,-19 -46,-15 -14,-25 80,-25 55,0 100,3 100,8 0,4 -13,14 -29,23 -27,16 -119,136 -157,205 l -17,31 52,69 c 29,38 66,77 84,87 l 32,17 h -80 c -59,-1 -75,-3 -62,-11 25,-15 21,-39 -15,-93 l -31,-48 -34,53 c -39,63 -41,77 -10,89 15,6 -12,9 -88,9 -100,0 -107,-1 -80,-13 z"
       id="path146" />
    <path
       d="m 2260,1450 c 0,-19 7,-20 255,-20 248,0 255,1 255,20 0,19 -7,20 -255,20 -248,0 -255,-1 -255,-20 z"
       id="path148" />
    <path
       d="m 3833,1447 c 16,-13 57,-84 103,-177 111,-227 105,-208 80,-269 -13,-29 -32,-61 -42,-72 -19,-18 -25,-19 -66,-8 -58,16 -81,2 -76,-45 4,-38 42,-62 82,-52 58,14 93,64 157,216 153,372 170,407 192,418 18,9 7,11 -53,11 -55,0 -69,-3 -52,-9 32,-13 28,-42 -21,-161 -24,-57 -47,-113 -51,-124 -6,-16 -19,3 -67,98 -67,133 -74,176 -29,188 14,4 -22,7 -80,8 l -105,1 z"
       id="path150" />
    <path
       d="m 4777,1443 c 21,-21 48,-81 103,-226 40,-108 78,-196 84,-194 6,2 37,63 70,135 32,72 62,130 65,127 3,-2 29,-62 56,-134 28,-72 55,-131 61,-131 6,0 46,92 89,205 59,156 84,210 104,225 l 26,19 h -75 c -62,0 -70,-2 -47,-11 15,-5 27,-17 27,-26 0,-21 -93,-272 -101,-272 -9,0 -99,233 -99,257 0,14 10,28 28,37 25,14 21,15 -78,15 -65,0 -97,-3 -85,-9 27,-10 40,-27 60,-76 l 16,-42 -43,-96 c -24,-52 -46,-96 -49,-96 -9,0 -99,252 -99,278 0,14 8,26 23,32 15,6 -5,9 -72,9 l -93,1 z"
       id="path152" />
    <path
       d="m 10695,1456 c 37,-16 59,-41 118,-130 l 46,-69 -74,-97 c -41,-54 -81,-100 -89,-103 -37,-15 -12,-27 54,-27 68,0 91,12 50,25 -11,3 -20,15 -20,25 0,19 84,140 98,140 10,0 92,-130 92,-146 0,-7 -9,-16 -20,-19 -46,-15 -14,-25 80,-25 55,0 100,3 100,8 0,4 -13,14 -29,23 -27,16 -119,136 -157,205 l -17,31 52,69 c 29,38 66,77 84,87 l 32,17 h -80 c -59,-1 -75,-3 -62,-11 25,-15 21,-39 -15,-93 l -31,-48 -34,53 c -39,63 -41,77 -10,89 15,6 -12,9 -88,9 -100,0 -107,-1 -80,-13 z"
       id="path154" />
    <path
       d="m 11410,1450 c 0,-19 7,-20 255,-20 248,0 255,1 255,20 0,19 -7,20 -255,20 -248,0 -255,-1 -255,-20 z"
       id="path156" />
    <path
       d="m 12983,1447 c 16,-13 57,-84 103,-177 111,-227 105,-208 80,-269 -13,-29 -32,-61 -42,-72 -19,-18 -25,-19 -66,-8 -58,16 -81,2 -76,-45 4,-38 42,-62 82,-52 58,14 93,64 157,216 153,372 170,407 192,418 18,9 7,11 -53,11 -55,0 -69,-3 -52,-9 32,-13 28,-42 -21,-161 -24,-57 -47,-113 -51,-124 -6,-16 -19,3 -67,98 -67,133 -74,176 -29,188 14,4 -22,7 -80,8 l -105,1 z"
       id="path158" />
    <path
       d="m 14287,1443 c 21,-21 48,-81 103,-226 40,-108 78,-196 84,-194 6,2 37,63 70,135 32,72 62,130 65,127 3,-2 29,-62 56,-134 28,-72 55,-131 61,-131 6,0 46,92 89,205 59,156 84,210 104,225 l 26,19 h -75 c -62,0 -70,-2 -47,-11 15,-5 27,-17 27,-26 0,-21 -93,-272 -101,-272 -9,0 -99,233 -99,257 0,14 10,28 28,37 25,14 21,15 -78,15 -65,0 -97,-3 -85,-9 27,-10 40,-27 60,-76 l 16,-42 -43,-96 c -24,-52 -46,-96 -49,-96 -9,0 -99,252 -99,278 0,14 8,26 23,32 15,6 -5,9 -72,9 l -93,1 z"
       id="path160" />
    <path
       d="m 9120,1420 c 0,-19 7,-20 235,-20 h 235 v -75 c 0,-68 2,-75 20,-75 19,0 20,7 20,95 v 95 h -255 c -248,0 -255,-1 -255,-20 z"
       id="path162" />
    <path
       d="m 5487,1374 c -25,-25 8,-70 43,-59 32,10 24,59 -10,63 -14,2 -29,0 -33,-4 z"
       id="path164" />
    <path
       d="m 14997,1374 c -25,-25 8,-70 43,-59 32,10 24,59 -10,63 -14,2 -29,0 -33,-4 z"
       id="path166" />
    <path
       d="m 2260,1290 c 0,-19 7,-20 255,-20 248,0 255,1 255,20 0,19 -7,20 -255,20 -248,0 -255,-1 -255,-20 z"
       id="path168" />
    <path
       d="m 11410,1290 c 0,-19 7,-20 255,-20 248,0 255,1 255,20 0,19 -7,20 -255,20 -248,0 -255,-1 -255,-20 z"
       id="path170" />
    <path
       d="m 5430,1242 c 0,-4 14,-13 30,-19 l 30,-11 -1,-154 c -1,-84 -4,-164 -8,-178 -4,-15 -20,-31 -38,-40 -61,-28 -32,-53 35,-29 60,21 67,43 70,252 l 4,187 h -61 c -34,0 -61,-4 -61,-8 z"
       id="path172" />
    <path
       d="m 14940,1242 c 0,-4 14,-13 30,-19 l 30,-11 -1,-154 c -1,-84 -4,-164 -8,-178 -4,-15 -20,-31 -38,-40 -61,-28 -32,-53 35,-29 60,21 67,43 70,252 l 4,187 h -61 c -34,0 -61,-4 -61,-8 z"
       id="path174" />
    <path
       d="m 1343,1104 c -15,-24 -15,-29 -2,-53 18,-32 54,-39 80,-15 24,22 24,56 1,77 -27,25 -59,21 -79,-9 z"
       id="path176" />
    <path
       d="m 3633,1104 c -15,-24 -15,-29 -2,-53 18,-32 54,-39 80,-15 24,22 24,56 1,77 -27,25 -59,21 -79,-9 z"
       id="path178" />
    <path
       d="m 4310,1110 c -41,-41 -8,-98 49,-85 30,6 31,5 31,-25 0,-32 -38,-79 -85,-106 -11,-7 -17,-15 -13,-19 12,-12 98,45 119,78 29,48 26,117 -7,151 -32,31 -67,33 -94,6 z"
       id="path180" />
    <path
       d="m 5690,1110 c -41,-41 -8,-98 49,-85 30,6 31,5 31,-25 0,-32 -38,-79 -85,-106 -11,-7 -17,-15 -13,-19 12,-12 98,45 119,78 29,48 26,117 -7,151 -32,31 -67,33 -94,6 z"
       id="path182" />
    <path
       d="m 10493,1104 c -15,-24 -15,-29 -2,-53 18,-32 54,-39 80,-15 24,22 24,56 1,77 -27,25 -59,21 -79,-9 z"
       id="path184" />
    <path
       d="m 12783,1104 c -15,-24 -15,-29 -2,-53 18,-32 54,-39 80,-15 24,22 24,56 1,77 -27,25 -59,21 -79,-9 z"
       id="path186" />
    <path
       d="m 13800,1110 c -41,-41 -8,-98 49,-85 30,6 31,5 31,-25 0,-32 -38,-79 -85,-106 -11,-7 -17,-15 -13,-19 12,-12 98,45 119,78 29,48 26,117 -7,151 -32,31 -67,33 -94,6 z"
       id="path188" />
    <path
       d="m 15210,1110 c -41,-41 -8,-98 49,-85 30,6 31,5 31,-25 0,-32 -38,-79 -85,-106 -11,-7 -17,-15 -13,-19 12,-12 98,45 119,78 29,48 26,117 -7,151 -32,31 -67,33 -94,6 z"
       id="path190" />
  </g>
</svg>
