<?xml version="1.0" encoding="UTF-8" standalone="no"?>
<svg
   version="1.0"
   width="3112.8655pt"
   height="974.90106pt"
   viewBox="0 0 3112.8655 974.90106"
   preserveAspectRatio="xMidYMid meet"
   id="svg222"
   xmlns="http://www.w3.org/2000/svg"
   xmlns:svg="http://www.w3.org/2000/svg">
  <defs
     id="defs226" />
  <metadata
     id="metadata2">
Created by potrace 1.16, written by Peter Selinger 2001-2019
</metadata>
  <g
     transform="matrix(0.1,0,0,-0.1,-87.134613,1059.9011)"
     fill="#000000"
     stroke="none"
     id="g220">
    <path
       d="m 3070,10578 c -56,-21 -96,-47 -52,-33 50,15 52,5 52,-299 0,-154 -4,-286 -8,-293 -4,-7 -19,-16 -32,-22 -19,-7 3,-10 85,-9 61,0 101,3 90,5 -11,3 -28,12 -37,21 -16,14 -18,43 -18,334 0,248 -3,318 -12,317 -7,0 -38,-9 -68,-21 z"
       id="path4" />
    <path
       d="m 12440,10578 c -56,-21 -96,-47 -52,-33 50,15 52,5 52,-299 0,-154 -4,-286 -8,-293 -4,-7 -19,-16 -32,-22 -19,-7 3,-10 85,-9 61,0 101,3 90,5 -11,3 -28,12 -37,21 -16,14 -18,43 -18,334 0,248 -3,318 -12,317 -7,0 -38,-9 -68,-21 z"
       id="path6" />
    <path
       d="m 19940,10578 c -56,-21 -96,-47 -52,-33 50,15 52,5 52,-299 0,-154 -4,-286 -8,-293 -4,-7 -19,-16 -32,-22 -19,-7 3,-10 85,-9 61,0 101,3 90,5 -11,3 -28,12 -37,21 -16,14 -18,43 -18,334 0,248 -3,318 -12,317 -7,0 -38,-9 -68,-21 z"
       id="path8" />
    <path
       d="m 29600,10578 c -56,-21 -96,-47 -52,-33 50,15 52,5 52,-299 0,-154 -4,-286 -8,-293 -4,-7 -19,-16 -32,-22 -19,-7 3,-10 85,-9 61,0 101,3 90,5 -11,3 -28,12 -37,21 -16,14 -18,43 -18,334 0,248 -3,318 -12,317 -7,0 -38,-9 -68,-21 z"
       id="path10" />
    <path
       d="m 4103,10547 c -40,-18 -73,-34 -73,-37 0,-4 16,-4 35,-2 30,4 36,1 45,-23 6,-15 10,-129 10,-269 0,-263 -1,-269 -55,-285 -21,-7 6,-9 95,-9 75,0 113,3 94,7 -17,4 -36,11 -42,15 -9,5 -12,93 -12,322 0,245 -3,314 -12,313 -7,0 -46,-15 -85,-32 z"
       id="path12" />
    <path
       d="m 13424,10561 c -44,-20 -74,-56 -92,-110 -22,-64 -8,-71 25,-12 36,63 112,88 174,56 45,-24 69,-70 69,-136 0,-89 -43,-160 -182,-305 -65,-67 -118,-124 -118,-128 0,-4 86,-5 192,-4 l 191,3 19,54 c 10,30 16,56 14,59 -2,2 -14,-6 -25,-17 -29,-29 -51,-32 -176,-29 l -110,3 97,102 c 53,57 112,129 132,162 79,130 61,248 -47,300 -53,26 -109,26 -163,2 z"
       id="path14" />
    <path
       d="m 20940,10569 c -35,-14 -69,-48 -91,-91 -21,-41 -10,-52 15,-17 70,101 205,65 206,-55 0,-67 -28,-108 -93,-140 -41,-20 -47,-25 -27,-26 14,0 48,-11 76,-24 59,-27 84,-69 84,-138 -1,-52 -16,-83 -56,-109 -37,-24 -74,-24 -134,2 -54,23 -78,22 -94,-3 -8,-14 -7,-22 7,-35 14,-14 35,-18 100,-18 102,0 166,28 212,94 25,36 30,53 33,114 4,84 -15,124 -74,159 l -35,21 24,26 c 58,61 72,132 38,187 -33,54 -124,80 -191,53 z"
       id="path16" />
    <path
       d="m 30597,10366 c -111,-162 -147,-222 -147,-245 v -31 h 135 135 v -85 -85 h 40 40 v 85 85 h 40 c 38,0 40,2 40,30 0,28 -2,30 -40,30 h -40 v 215 215 h -28 c -26,0 -43,-20 -175,-214 z m 123,-56 v -160 h -116 -115 l 24,33 c 13,17 63,89 111,160 48,70 89,127 91,127 3,0 5,-72 5,-160 z"
       id="path18" />
    <path
       d="m 1928,10560 c 19,-4 39,-13 45,-19 17,-17 17,-575 0,-592 -6,-6 -26,-15 -45,-19 -21,-5 17,-8 107,-8 93,0 129,3 105,8 -54,13 -60,29 -60,167 v 123 h 33 c 32,0 40,-8 142,-150 l 109,-150 h 91 l 90,1 -48,19 c -27,10 -54,23 -61,30 -18,14 -186,256 -186,266 0,5 20,17 45,28 115,47 138,187 43,259 -49,38 -104,47 -283,46 -102,-1 -148,-4 -127,-9 z m 292,-38 c 66,-32 91,-133 50,-200 -25,-40 -89,-71 -147,-72 h -43 v 135 c 0,131 1,136 23,145 35,14 79,11 117,-8 z"
       id="path20" />
    <path
       d="m 11298,10560 c 19,-4 39,-13 45,-19 9,-9 12,-94 12,-296 0,-202 -3,-287 -12,-296 -6,-6 -26,-15 -45,-19 -21,-5 17,-8 107,-8 93,0 129,3 105,8 -54,13 -60,29 -60,167 v 123 h 33 c 32,0 40,-8 142,-150 l 109,-150 h 91 l 90,1 -48,19 c -27,10 -54,23 -61,30 -18,14 -186,256 -186,266 0,5 20,17 45,28 115,47 138,187 43,259 -49,38 -104,47 -283,46 -102,-1 -148,-4 -127,-9 z m 292,-38 c 66,-32 91,-133 50,-200 -25,-40 -89,-71 -147,-72 h -43 v 135 c 0,131 1,136 23,145 35,14 79,11 117,-8 z"
       id="path22" />
    <path
       d="m 18798,10560 c 19,-4 39,-13 45,-19 9,-9 12,-94 12,-296 0,-202 -3,-287 -12,-296 -6,-6 -26,-15 -45,-19 -21,-5 17,-8 107,-8 93,0 129,3 105,8 -54,13 -60,29 -60,167 v 123 h 33 c 32,0 40,-8 142,-150 l 109,-150 h 91 l 90,1 -48,19 c -27,10 -54,23 -61,30 -18,14 -186,256 -186,266 0,5 20,17 45,28 115,47 138,187 43,259 -49,38 -104,47 -283,46 -102,-1 -148,-4 -127,-9 z m 292,-38 c 66,-32 91,-133 50,-200 -25,-40 -89,-71 -147,-72 h -43 v 135 c 0,131 1,136 23,145 35,14 79,11 117,-8 z"
       id="path24" />
    <path
       d="m 28448,10560 c 19,-4 39,-13 45,-19 9,-9 12,-94 12,-296 0,-202 -3,-287 -12,-296 -6,-6 -26,-15 -45,-19 -21,-5 17,-8 107,-8 93,0 129,3 105,8 -54,13 -60,29 -60,167 v 123 h 33 c 32,0 40,-8 142,-150 l 109,-150 h 91 l 90,1 -48,19 c -27,10 -54,23 -61,30 -18,14 -186,256 -186,266 0,5 20,17 45,28 115,47 138,187 43,259 -49,38 -104,47 -283,46 -102,-1 -148,-4 -127,-9 z m 292,-38 c 66,-32 91,-133 50,-200 -25,-40 -89,-71 -147,-72 h -43 v 135 c 0,131 1,136 23,145 35,14 79,11 117,-8 z"
       id="path26" />
    <path
       d="m 3380,10348 c -25,-13 -57,-41 -74,-65 -25,-36 -30,-54 -34,-121 -5,-93 7,-139 51,-189 56,-64 134,-80 207,-43 44,23 86,78 96,128 8,40 -1,41 -21,2 -32,-61 -113,-87 -173,-56 -54,28 -82,71 -96,149 l -7,37 h 152 152 l -6,42 c -15,112 -140,171 -247,116 z m 121,-37 c 19,-20 29,-40 29,-60 v -31 h -99 -100 l 10,33 c 5,17 22,44 39,60 41,37 83,36 121,-2 z"
       id="path28" />
    <path
       d="m 4486,10357 c -38,-28 -13,-97 34,-97 22,0 50,32 50,57 0,23 -29,53 -51,53 -9,0 -23,-6 -33,-13 z"
       id="path30" />
    <path
       d="m 12750,10348 c -25,-13 -57,-41 -74,-65 -25,-36 -30,-54 -34,-121 -5,-93 7,-139 51,-189 56,-64 134,-80 207,-43 44,23 86,78 96,128 8,40 -1,41 -21,2 -32,-61 -113,-87 -173,-56 -54,28 -82,71 -96,149 l -7,37 h 152 152 l -6,42 c -15,112 -140,171 -247,116 z m 121,-37 c 19,-20 29,-40 29,-60 v -31 h -99 -100 l 10,33 c 5,17 22,44 39,60 41,37 83,36 121,-2 z"
       id="path32" />
    <path
       d="m 13856,10357 c -38,-28 -13,-97 34,-97 22,0 50,32 50,57 0,23 -29,53 -51,53 -9,0 -23,-6 -33,-13 z"
       id="path34" />
    <path
       d="m 20250,10348 c -25,-13 -57,-41 -74,-65 -25,-36 -30,-54 -34,-121 -5,-93 7,-139 51,-189 56,-64 134,-80 207,-43 44,23 86,78 96,128 8,40 -1,41 -21,2 -32,-61 -113,-87 -173,-56 -54,28 -82,71 -96,149 l -7,37 h 152 152 l -6,42 c -15,112 -140,171 -247,116 z m 121,-37 c 19,-20 29,-40 29,-60 v -31 h -99 -100 l 10,33 c 5,17 22,44 39,60 41,37 83,36 121,-2 z"
       id="path36" />
    <path
       d="m 21356,10357 c -38,-28 -13,-97 34,-97 22,0 50,32 50,57 0,23 -29,53 -51,53 -9,0 -23,-6 -33,-13 z"
       id="path38" />
    <path
       d="m 29910,10348 c -25,-13 -57,-41 -74,-65 -25,-36 -30,-54 -34,-121 -5,-93 7,-139 51,-189 56,-64 134,-80 207,-43 44,23 86,78 96,128 8,40 -1,41 -21,2 -32,-61 -113,-87 -173,-56 -54,28 -82,71 -96,149 l -7,37 h 152 152 l -6,42 c -15,112 -140,171 -247,116 z m 121,-37 c 19,-20 29,-40 29,-60 v -31 h -99 -100 l 10,33 c 5,17 22,44 39,60 41,37 83,36 121,-2 z"
       id="path40" />
    <path
       d="m 31006,10357 c -38,-28 -13,-97 34,-97 22,0 50,32 50,57 0,23 -29,53 -51,53 -9,0 -23,-6 -33,-13 z"
       id="path42" />
    <path
       d="m 2530,10347 35,-12 6,-165 c 4,-91 11,-177 17,-191 15,-38 59,-69 97,-69 33,0 96,36 128,72 17,20 17,19 17,-26 0,-54 4,-55 81,-24 62,24 88,43 47,33 -43,-11 -48,14 -48,214 v 181 l -77,-1 c -74,0 -76,-1 -43,-12 l 35,-12 3,-157 3,-157 -44,-25 c -52,-31 -77,-32 -108,-7 -23,19 -24,24 -27,195 l -4,176 -76,-1 c -73,0 -75,-1 -42,-12 z"
       id="path44" />
    <path
       d="m 11910,10347 35,-12 6,-165 c 4,-91 11,-177 17,-191 15,-38 59,-69 97,-69 33,0 96,36 128,72 17,20 17,19 17,-26 0,-54 4,-55 81,-24 62,24 88,43 47,33 -43,-11 -48,14 -48,214 v 181 l -77,-1 c -74,0 -76,-1 -43,-12 l 35,-12 3,-157 3,-157 -44,-25 c -52,-31 -77,-32 -108,-7 -23,19 -24,24 -27,195 l -4,176 -76,-1 c -73,0 -75,-1 -42,-12 z"
       id="path46" />
    <path
       d="m 19410,10347 35,-12 6,-165 c 4,-91 11,-177 17,-191 15,-38 59,-69 97,-69 33,0 96,36 128,72 17,20 17,19 17,-26 0,-54 4,-55 81,-24 62,24 88,43 47,33 -43,-11 -48,14 -48,214 v 181 l -77,-1 c -74,0 -76,-1 -43,-12 l 35,-12 3,-157 3,-157 -44,-25 c -52,-31 -77,-32 -108,-7 -23,19 -24,24 -27,195 l -4,176 -76,-1 c -73,0 -75,-1 -42,-12 z"
       id="path48" />
    <path
       d="m 29060,10347 35,-12 6,-165 c 4,-91 11,-177 17,-191 15,-38 59,-69 97,-69 33,0 96,36 128,72 17,20 17,19 17,-26 0,-54 4,-55 81,-24 62,24 88,43 47,33 -43,-11 -48,14 -48,214 v 181 l -77,-1 c -74,0 -76,-1 -43,-12 l 35,-12 3,-157 3,-157 -44,-25 c -52,-31 -77,-32 -108,-7 -23,19 -24,24 -27,195 l -4,176 -76,-1 c -73,0 -75,-1 -42,-12 z"
       id="path50" />
    <path
       d="m 4473,9994 c -15,-24 -15,-29 -2,-53 18,-32 54,-39 80,-15 24,22 24,56 1,77 -27,25 -59,21 -79,-9 z"
       id="path52" />
    <path
       d="m 13843,9994 c -15,-24 -15,-29 -2,-53 18,-32 54,-39 80,-15 24,22 24,56 1,77 -27,25 -59,21 -79,-9 z"
       id="path54" />
    <path
       d="m 21343,9994 c -15,-24 -15,-29 -2,-53 18,-32 54,-39 80,-15 24,22 24,56 1,77 -27,25 -59,21 -79,-9 z"
       id="path56" />
    <path
       d="m 30993,9994 c -15,-24 -15,-29 -2,-53 18,-32 54,-39 80,-15 24,22 24,56 1,77 -27,25 -59,21 -79,-9 z"
       id="path58" />
    <path
       d="m 4125,9531 c -95,-25 -191,-114 -221,-204 -10,-29 -17,-82 -17,-122 0,-40 7,-93 17,-122 22,-66 93,-146 159,-179 27,-14 73,-44 100,-66 90,-70 249,-137 330,-138 35,0 15,16 -42,32 -59,18 -133,76 -160,126 -10,19 -7,23 33,41 58,25 125,93 157,156 21,43 24,64 24,155 0,90 -3,111 -23,148 -58,110 -152,173 -262,178 -36,2 -78,0 -95,-5 z m 155,-43 c 81,-41 121,-134 121,-287 1,-153 -39,-243 -126,-282 -79,-37 -159,-19 -214,47 -76,93 -92,315 -31,433 52,102 153,138 250,89 z"
       id="path60" />
    <path
       d="m 13645,9531 c -95,-25 -191,-114 -221,-204 -10,-29 -17,-82 -17,-122 0,-40 7,-93 17,-122 22,-66 93,-146 159,-179 27,-14 73,-44 100,-66 90,-70 249,-137 330,-138 35,0 15,16 -42,32 -59,18 -133,76 -160,126 -10,19 -7,23 33,41 58,25 125,93 157,156 21,43 24,64 24,155 0,90 -3,111 -23,148 -58,110 -152,173 -262,178 -36,2 -78,0 -95,-5 z m 155,-43 c 81,-41 121,-134 121,-287 1,-153 -39,-243 -126,-282 -79,-37 -159,-19 -214,47 -76,93 -92,315 -31,433 52,102 153,138 250,89 z"
       id="path62" />
    <path
       d="m 21005,9531 c -95,-25 -191,-114 -221,-204 -10,-29 -17,-82 -17,-122 0,-40 7,-93 17,-122 22,-66 93,-146 159,-179 27,-14 73,-44 100,-66 90,-70 249,-137 330,-138 35,0 15,16 -42,32 -59,18 -133,76 -160,126 -10,19 -7,23 33,41 58,25 125,93 157,156 21,43 24,64 24,155 0,90 -3,111 -23,148 -58,110 -152,173 -262,178 -36,2 -78,0 -95,-5 z m 155,-43 c 81,-41 121,-134 121,-287 1,-153 -39,-243 -126,-282 -79,-37 -159,-19 -214,47 -76,93 -92,315 -31,433 52,102 153,138 250,89 z"
       id="path64" />
    <path
       d="m 30795,9531 c -95,-25 -191,-114 -221,-204 -10,-29 -17,-82 -17,-122 0,-40 7,-93 17,-122 22,-66 93,-146 159,-179 27,-14 73,-44 100,-66 90,-70 249,-137 330,-138 35,0 15,16 -42,32 -59,18 -133,76 -160,126 -10,19 -7,23 33,41 58,25 125,93 157,156 21,43 24,64 24,155 0,90 -3,111 -23,148 -58,110 -152,173 -262,178 -36,2 -78,0 -95,-5 z m 155,-43 c 81,-41 121,-134 121,-287 1,-153 -39,-243 -126,-282 -79,-37 -159,-19 -214,47 -76,93 -92,315 -31,433 52,102 153,138 250,89 z"
       id="path66" />
    <path
       d="m 1918,9521 c 19,-5 39,-14 45,-20 17,-17 17,-575 0,-592 -6,-6 -26,-15 -45,-19 -21,-5 17,-8 107,-8 93,0 129,3 105,8 -54,13 -60,29 -60,166 v 123 l 68,-6 c 86,-7 143,9 186,52 57,57 66,160 18,224 -10,14 -39,37 -63,51 -42,24 -53,25 -219,27 -111,1 -163,-1 -142,-6 z m 265,-32 c 44,-23 66,-53 78,-105 27,-120 -56,-208 -168,-178 -22,6 -23,10 -23,144 0,101 3,140 13,143 23,10 78,7 100,-4 z"
       id="path68" />
    <path
       d="m 11438,9521 c 19,-5 39,-14 45,-20 9,-9 12,-94 12,-296 0,-202 -3,-287 -12,-296 -6,-6 -26,-15 -45,-19 -21,-5 17,-8 107,-8 93,0 129,3 105,8 -54,13 -60,29 -60,166 v 123 l 68,-6 c 86,-7 143,9 186,52 57,57 66,160 18,224 -10,14 -39,37 -63,51 -42,24 -53,25 -219,27 -111,1 -163,-1 -142,-6 z m 265,-32 c 44,-23 66,-53 78,-105 27,-120 -56,-208 -168,-178 -22,6 -23,10 -23,144 0,101 3,140 13,143 23,10 78,7 100,-4 z"
       id="path70" />
    <path
       d="m 18798,9521 c 19,-5 39,-14 45,-20 9,-9 12,-94 12,-296 0,-202 -3,-287 -12,-296 -6,-6 -26,-15 -45,-19 -21,-5 17,-8 107,-8 93,0 129,3 105,8 -54,13 -60,29 -60,166 v 123 l 68,-6 c 86,-7 143,9 186,52 57,57 66,160 18,224 -10,14 -39,37 -63,51 -42,24 -53,25 -219,27 -111,1 -163,-1 -142,-6 z m 265,-32 c 44,-23 66,-53 78,-105 27,-120 -56,-208 -168,-178 -22,6 -23,10 -23,144 0,101 3,140 13,143 23,10 78,7 100,-4 z"
       id="path72" />
    <path
       d="m 28588,9521 c 19,-5 39,-14 45,-20 9,-9 12,-94 12,-296 0,-202 -3,-287 -12,-296 -6,-6 -26,-15 -45,-19 -21,-5 17,-8 107,-8 93,0 129,3 105,8 -54,13 -60,29 -60,166 v 123 l 68,-6 c 86,-7 143,9 186,52 57,57 66,160 18,224 -10,14 -39,37 -63,51 -42,24 -53,25 -219,27 -111,1 -163,-1 -142,-6 z m 265,-32 c 44,-23 66,-53 78,-105 27,-120 -56,-208 -168,-178 -22,6 -23,10 -23,144 0,101 3,140 13,143 23,10 78,7 100,-4 z"
       id="path74" />
    <path
       d="m 5300,9335 v -115 h -115 c -108,0 -115,-1 -115,-20 0,-19 7,-20 115,-20 h 115 v -115 c 0,-108 1,-115 20,-115 19,0 20,7 20,115 v 115 h 120 c 113,0 120,1 120,20 0,19 -7,20 -120,20 h -120 v 115 c 0,108 -1,115 -20,115 -19,0 -20,-7 -20,-115 z"
       id="path76" />
    <path
       d="m 22180,9335 v -115 h -115 c -108,0 -115,-1 -115,-20 0,-19 7,-20 115,-20 h 115 v -115 c 0,-108 1,-115 20,-115 19,0 20,7 20,115 v 115 h 120 c 113,0 120,1 120,20 0,19 -7,20 -120,20 h -120 v 115 c 0,108 -1,115 -20,115 -19,0 -20,-7 -20,-115 z"
       id="path78" />
    <path
       d="m 2951,9143 c -57,-131 -106,-244 -108,-250 -4,-9 7,-13 33,-13 h 39 l 84,195 c 46,108 86,193 89,190 3,-3 42,-90 87,-193 l 81,-187 37,-3 c 20,-2 37,0 37,4 0,3 -48,116 -106,250 l -106,244 h -32 -32 z"
       id="path80" />
    <path
       d="m 12471,9143 c -57,-131 -106,-244 -108,-250 -4,-9 7,-13 33,-13 h 39 l 84,195 c 46,108 86,193 89,190 3,-3 42,-90 87,-193 l 81,-187 37,-3 c 20,-2 37,0 37,4 0,3 -48,116 -106,250 l -106,244 h -32 -32 z"
       id="path82" />
    <path
       d="m 19724,9364 c 4,-10 53,-123 108,-251 l 101,-233 h 33 c 35,0 14,-40 200,385 24,55 44,103 44,108 0,4 -17,7 -37,5 l -37,-3 -81,-187 c -44,-103 -83,-189 -86,-193 -4,-3 -44,81 -90,187 l -84,193 -39,3 c -34,3 -38,1 -32,-14 z"
       id="path84" />
    <path
       d="m 29514,9364 c 4,-10 53,-123 108,-251 l 101,-233 h 33 c 35,0 14,-40 200,385 24,55 44,103 44,108 0,4 -17,7 -37,5 l -37,-3 -81,-187 c -44,-103 -83,-189 -86,-193 -4,-3 -44,81 -90,187 l -84,193 -39,3 c -34,3 -38,1 -32,-14 z"
       id="path86" />
    <path
       d="m 971,9309 c -49,-30 -69,-57 -87,-118 -32,-108 -1,-243 67,-294 61,-44 184,-24 224,37 18,28 35,26 35,-3 0,-11 8,-29 18,-41 26,-32 64,-21 86,24 18,38 21,86 6,86 -5,0 -10,-8 -10,-18 0,-47 -52,-56 -75,-12 -20,39 -20,46 15,196 16,71 30,135 30,142 0,7 -14,12 -39,12 h -39 l -12,-66 -13,-67 -25,53 c -40,85 -111,112 -181,69 z m 123,-32 c 13,-13 33,-50 45,-82 24,-63 23,-84 -5,-182 -32,-114 -109,-150 -151,-69 -21,41 -30,199 -14,263 22,87 77,118 125,70 z"
       id="path88" />
    <path
       d="m 10491,9309 c -49,-30 -69,-57 -87,-118 -32,-108 -1,-243 67,-294 61,-44 184,-24 224,37 18,28 35,26 35,-3 0,-11 8,-29 18,-41 26,-32 64,-21 86,24 18,38 21,86 6,86 -5,0 -10,-8 -10,-18 0,-47 -52,-56 -75,-12 -20,39 -20,46 15,196 16,71 30,135 30,142 0,7 -14,12 -39,12 h -39 l -12,-66 -13,-67 -25,53 c -40,85 -111,112 -181,69 z m 123,-32 c 13,-13 33,-50 45,-82 24,-63 23,-84 -5,-182 -32,-114 -109,-150 -151,-69 -21,41 -30,199 -14,263 22,87 77,118 125,70 z"
       id="path90" />
    <path
       d="m 17851,9309 c -49,-30 -69,-57 -87,-118 -32,-108 -1,-243 67,-294 61,-44 184,-24 224,37 18,28 35,26 35,-3 0,-11 8,-29 18,-41 26,-32 64,-21 86,24 18,38 21,86 6,86 -5,0 -10,-8 -10,-18 0,-47 -52,-56 -75,-12 -20,39 -20,46 15,196 16,71 30,135 30,142 0,7 -14,12 -39,12 h -39 l -12,-66 -13,-67 -25,53 c -40,85 -111,112 -181,69 z m 123,-32 c 13,-13 33,-50 45,-82 24,-63 23,-84 -5,-182 -32,-114 -109,-150 -151,-69 -21,41 -30,199 -14,263 22,87 77,118 125,70 z"
       id="path92" />
    <path
       d="m 27641,9309 c -49,-30 -69,-57 -87,-118 -32,-108 -1,-243 67,-294 61,-44 184,-24 224,37 18,28 35,26 35,-3 0,-11 8,-29 18,-41 26,-32 64,-21 86,24 18,38 21,86 6,86 -5,0 -10,-8 -10,-18 0,-47 -52,-56 -75,-12 -20,39 -20,46 15,196 16,71 30,135 30,142 0,7 -14,12 -39,12 h -39 l -12,-66 -13,-67 -25,53 c -40,85 -111,112 -181,69 z m 123,-32 c 13,-13 33,-50 45,-82 24,-63 23,-84 -5,-182 -32,-114 -109,-150 -151,-69 -21,41 -30,199 -14,263 22,87 77,118 125,70 z"
       id="path94" />
    <path
       d="m 14610,9100 v -40 h 120 120 v 40 40 h -120 -120 z"
       id="path96" />
    <path
       d="m 31760,9100 v -40 h 120 120 v 40 40 h -120 -120 z"
       id="path98" />
    <path
       d="m 1420,8960 c -41,-41 -8,-98 49,-85 30,6 31,5 31,-25 0,-32 -38,-79 -85,-106 -11,-7 -17,-15 -13,-19 12,-12 98,45 119,78 29,48 26,117 -7,151 -32,31 -67,33 -94,6 z"
       id="path100" />
    <path
       d="m 4600,8960 c -41,-41 -8,-98 49,-85 30,6 31,5 31,-25 0,-32 -38,-79 -85,-106 -11,-7 -17,-15 -13,-19 12,-12 98,45 119,78 29,48 26,117 -7,151 -32,31 -67,33 -94,6 z"
       id="path102" />
    <path
       d="m 10940,8960 c -41,-41 -8,-98 49,-85 30,6 31,5 31,-25 0,-32 -38,-79 -85,-106 -11,-7 -17,-15 -13,-19 12,-12 98,45 119,78 29,48 26,117 -7,151 -32,31 -67,33 -94,6 z"
       id="path104" />
    <path
       d="m 14120,8960 c -41,-41 -8,-98 49,-85 30,6 31,5 31,-25 0,-32 -38,-79 -85,-106 -11,-7 -17,-15 -13,-19 12,-12 98,45 119,78 29,48 26,117 -7,151 -32,31 -67,33 -94,6 z"
       id="path106" />
    <path
       d="m 18300,8960 c -41,-41 -8,-98 49,-85 30,6 31,5 31,-25 0,-32 -38,-79 -85,-106 -11,-7 -17,-15 -13,-19 12,-12 98,45 119,78 29,48 26,117 -7,151 -32,31 -67,33 -94,6 z"
       id="path108" />
    <path
       d="m 21480,8960 c -41,-41 -8,-98 49,-85 30,6 31,5 31,-25 0,-32 -38,-79 -85,-106 -11,-7 -17,-15 -13,-19 12,-12 98,45 119,78 29,48 26,117 -7,151 -32,31 -67,33 -94,6 z"
       id="path110" />
    <path
       d="m 28090,8960 c -41,-41 -8,-98 49,-85 30,6 31,5 31,-25 0,-32 -38,-79 -85,-106 -11,-7 -17,-15 -13,-19 12,-12 98,45 119,78 29,48 26,117 -7,151 -32,31 -67,33 -94,6 z"
       id="path112" />
    <path
       d="m 31270,8960 c -41,-41 -8,-98 49,-85 30,6 31,5 31,-25 0,-32 -38,-79 -85,-106 -11,-7 -17,-15 -13,-19 12,-12 98,45 119,78 29,48 26,117 -7,151 -32,31 -67,33 -94,6 z"
       id="path114" />
    <path
       d="m 21493,8322 -20,-27 924,-860 c 508,-473 928,-861 933,-863 5,-2 16,9 26,23 17,26 16,27 -7,49 -13,13 -418,389 -899,836 -481,447 -889,826 -906,842 l -30,28 z"
       id="path116" />
    <path
       d="m 10397,7478 -898,-862 25,-24 25,-25 148,142 c 81,79 486,468 900,865 l 751,721 -21,23 c -11,12 -23,22 -27,22 -3,0 -409,-388 -903,-862 z"
       id="path118" />
    <path
       d="m 12818,8323 c -24,-4 -26,-8 -21,-36 38,-240 249,-1683 247,-1686 -2,-2 -51,37 -111,85 -152,126 -158,131 -149,114 31,-53 339,-531 346,-535 7,-5 184,605 177,612 -2,2 -45,-58 -95,-134 -55,-82 -93,-131 -96,-122 -3,7 -59,383 -126,834 -131,891 -129,876 -138,874 -4,-1 -19,-4 -34,-6 z"
       id="path120" />
    <path
       d="m 19915,8308 c -6,-25 -229,-1530 -240,-1618 -4,-30 -10,-61 -14,-68 -5,-9 -40,36 -101,127 -51,78 -95,141 -97,141 -2,0 -2,-3 0,-7 3,-5 42,-141 87,-303 45,-162 86,-301 90,-309 5,-10 17,1 42,40 77,119 292,456 307,479 15,24 15,25 -4,10 -11,-8 -71,-57 -133,-109 -62,-51 -115,-92 -117,-89 -2,2 52,379 120,838 69,459 125,845 125,858 0,12 -6,22 -14,22 -8,0 -21,3 -30,6 -10,4 -17,-2 -21,-18 z"
       id="path122" />
    <path
       d="m 3228,7461 -3,-859 -75,84 c -158,176 -161,180 -150,154 53,-127 258,-572 264,-573 4,-1 22,32 41,73 18,41 78,176 134,300 l 101,225 -72,-80 c -40,-44 -94,-102 -120,-130 l -48,-50 v 858 857 h -35 -35 z"
       id="path124" />
    <path
       d="m 29758,7460 -3,-860 -115,129 c -63,71 -116,128 -117,127 -5,-4 262,-595 268,-596 7,0 270,582 265,587 -2,2 -52,-51 -112,-118 l -109,-122 -3,857 -2,856 h -35 -35 z"
       id="path126" />
    <path
       d="m 9321,6589 c -67,-166 -120,-303 -118,-305 3,-4 481,164 577,202 32,13 19,14 -132,10 -93,-2 -168,0 -168,4 0,5 12,18 27,29 l 26,21 -23,25 -24,25 -28,-27 c -15,-14 -29,-25 -32,-22 -2,2 2,78 9,169 7,91 11,166 10,168 -1,1 -57,-133 -124,-299 z"
       id="path128" />
    <path
       d="m 23431,6875 c 0,-11 6,-85 14,-165 8,-80 15,-151 15,-159 0,-10 -11,-4 -30,14 l -30,29 -26,-25 -26,-24 33,-27 33,-27 -170,-3 -169,-3 304,-103 c 167,-56 305,-101 307,-100 1,2 -56,140 -127,308 -71,168 -128,296 -128,285 z"
       id="path130" />
    <path
       d="m 13295,5711 c -95,-25 -191,-114 -221,-204 -10,-29 -17,-82 -17,-122 0,-40 7,-93 17,-122 22,-66 93,-146 159,-179 27,-14 73,-44 100,-66 90,-70 249,-137 330,-138 35,0 15,16 -42,32 -59,18 -133,76 -160,126 -10,19 -7,23 33,41 58,25 125,93 157,156 21,43 24,64 24,155 0,90 -3,111 -23,148 -58,110 -152,173 -262,178 -36,2 -78,0 -95,-5 z m 155,-43 c 81,-41 121,-134 121,-287 1,-153 -39,-243 -126,-282 -79,-37 -159,-19 -214,47 -76,93 -92,315 -31,433 52,102 153,138 250,89 z"
       id="path132" />
    <path
       d="m 24545,5711 c -95,-25 -191,-114 -221,-204 -10,-29 -17,-82 -17,-122 0,-40 7,-93 17,-122 22,-66 93,-146 159,-179 27,-14 73,-44 100,-66 90,-70 249,-137 330,-138 35,0 15,16 -42,32 -59,18 -133,76 -160,126 -10,19 -7,23 33,41 58,25 125,93 157,156 21,43 24,64 24,155 0,90 -3,111 -23,148 -58,110 -152,173 -262,178 -36,2 -78,0 -95,-5 z m 155,-43 c 81,-41 121,-134 121,-287 1,-153 -39,-243 -126,-282 -79,-37 -159,-19 -214,47 -76,93 -92,315 -31,433 52,102 153,138 250,89 z"
       id="path134" />
    <path
       d="m 3068,5701 c 19,-5 39,-14 45,-20 9,-9 12,-94 12,-296 0,-202 -3,-287 -12,-296 -6,-6 -26,-15 -45,-19 -21,-5 17,-8 107,-8 93,0 129,3 105,8 -54,13 -60,29 -60,166 v 123 l 68,-6 c 86,-7 143,9 186,52 57,57 66,160 18,224 -10,14 -39,37 -63,51 -42,24 -53,25 -219,27 -111,1 -163,-1 -142,-6 z m 265,-32 c 44,-23 66,-53 78,-105 27,-120 -56,-208 -168,-178 -22,6 -23,10 -23,144 0,101 3,140 13,143 23,10 78,7 100,-4 z"
       id="path136" />
    <path
       d="m 8168,5701 c 19,-5 39,-14 45,-20 17,-17 17,-575 0,-592 -6,-6 -26,-15 -45,-19 -21,-5 17,-8 107,-8 93,0 129,3 105,8 -54,13 -60,29 -60,166 v 123 l 68,-6 c 86,-7 143,9 186,52 57,57 66,160 18,224 -10,14 -39,37 -63,51 -42,24 -53,25 -219,27 -111,1 -163,-1 -142,-6 z m 265,-32 c 44,-23 66,-53 78,-105 27,-120 -56,-208 -168,-178 -22,6 -23,10 -23,144 0,101 3,140 13,143 23,10 78,7 100,-4 z"
       id="path138" />
    <path
       d="m 19318,5701 c 19,-5 39,-14 45,-20 9,-9 12,-94 12,-296 0,-202 -3,-287 -12,-296 -6,-6 -26,-15 -45,-19 -21,-5 17,-8 107,-8 93,0 129,3 105,8 -54,13 -60,29 -60,166 v 123 l 68,-6 c 86,-7 143,9 186,52 57,57 66,160 18,224 -10,14 -39,37 -63,51 -42,24 -53,25 -219,27 -111,1 -163,-1 -142,-6 z m 265,-32 c 44,-23 66,-53 78,-105 27,-120 -56,-208 -168,-178 -22,6 -23,10 -23,144 0,101 3,140 13,143 23,10 78,7 100,-4 z"
       id="path140" />
    <path
       d="m 29698,5701 c 19,-5 39,-14 45,-20 9,-9 12,-94 12,-296 0,-202 -3,-287 -12,-296 -6,-6 -26,-15 -45,-19 -21,-5 17,-8 107,-8 93,0 129,3 105,8 -54,13 -60,29 -60,166 v 123 l 68,-6 c 86,-7 143,9 186,52 57,57 66,160 18,224 -10,14 -39,37 -63,51 -42,24 -53,25 -219,27 -111,1 -163,-1 -142,-6 z m 265,-32 c 44,-23 66,-53 78,-105 27,-120 -56,-208 -168,-178 -22,6 -23,10 -23,144 0,101 3,140 13,143 23,10 78,7 100,-4 z"
       id="path142" />
    <path
       d="m 4210,5515 v -115 h -115 c -108,0 -115,-1 -115,-20 0,-19 7,-20 115,-20 h 115 v -115 c 0,-108 1,-115 20,-115 19,0 20,7 20,115 v 115 h 120 c 113,0 120,1 120,20 0,19 -7,20 -120,20 h -120 v 115 c 0,108 -1,115 -20,115 -19,0 -20,-7 -20,-115 z"
       id="path144" />
    <path
       d="m 20460,5515 v -115 h -115 c -108,0 -115,-1 -115,-20 0,-19 7,-20 115,-20 h 115 v -115 c 0,-108 1,-115 20,-115 19,0 20,7 20,115 v 115 h 120 c 113,0 120,1 120,20 0,19 -7,20 -120,20 h -120 v 115 c 0,108 -1,115 -20,115 -19,0 -20,-7 -20,-115 z"
       id="path146" />
    <path
       d="m 25720,5515 v -115 h -115 c -108,0 -115,-1 -115,-20 0,-19 7,-20 115,-20 h 115 v -115 c 0,-108 1,-115 20,-115 19,0 20,7 20,115 v 115 h 120 c 113,0 120,1 120,20 0,19 -7,20 -120,20 h -120 v 115 c 0,108 -1,115 -20,115 -19,0 -20,-7 -20,-115 z"
       id="path148" />
    <path
       d="m 2121,5489 c -49,-30 -69,-57 -87,-118 -32,-108 -1,-243 67,-294 61,-44 184,-24 224,37 18,28 35,26 35,-3 0,-11 8,-29 18,-41 26,-32 64,-21 86,24 18,38 21,86 6,86 -5,0 -10,-8 -10,-18 0,-47 -52,-56 -75,-12 -20,39 -20,46 15,196 16,71 30,135 30,142 0,7 -14,12 -39,12 h -39 l -12,-66 -13,-67 -25,53 c -40,85 -111,112 -181,69 z m 123,-32 c 13,-13 33,-50 45,-82 24,-63 23,-84 -5,-182 -32,-114 -109,-150 -151,-69 -21,41 -30,199 -14,263 22,87 77,118 125,70 z"
       id="path150" />
    <path
       d="m 7221,5489 c -49,-30 -69,-57 -87,-118 -32,-108 -1,-243 67,-294 61,-44 184,-24 224,37 18,28 35,26 35,-3 0,-11 8,-29 18,-41 26,-32 64,-21 86,24 18,38 21,86 6,86 -5,0 -10,-8 -10,-18 0,-47 -52,-56 -75,-12 -20,39 -20,46 15,196 16,71 30,135 30,142 0,7 -14,12 -39,12 h -39 l -12,-66 -13,-67 -25,53 c -40,85 -111,112 -181,69 z m 123,-32 c 13,-13 33,-50 45,-82 24,-63 23,-84 -5,-182 -32,-114 -109,-150 -151,-69 -21,41 -30,199 -14,263 22,87 77,118 125,70 z"
       id="path152" />
    <path
       d="m 12121,5489 c -49,-30 -69,-57 -87,-118 -32,-108 -1,-243 67,-294 61,-44 184,-24 224,37 18,28 35,26 35,-3 0,-11 8,-29 18,-41 26,-32 64,-21 86,24 18,38 21,86 6,86 -5,0 -10,-8 -10,-18 0,-47 -52,-56 -75,-12 -20,39 -20,46 15,196 16,71 30,135 30,142 0,7 -14,12 -39,12 h -39 l -12,-66 -13,-67 -25,53 c -40,85 -111,112 -181,69 z m 123,-32 c 13,-13 33,-50 45,-82 24,-63 23,-84 -5,-182 -32,-114 -109,-150 -151,-69 -21,41 -30,199 -14,263 22,87 77,118 125,70 z"
       id="path154" />
    <path
       d="m 18371,5489 c -49,-30 -69,-57 -87,-118 -32,-108 -1,-243 67,-294 61,-44 184,-24 224,37 18,28 35,26 35,-3 0,-11 8,-29 18,-41 26,-32 64,-21 86,24 18,38 21,86 6,86 -5,0 -10,-8 -10,-18 0,-47 -52,-56 -75,-12 -20,39 -20,46 15,196 16,71 30,135 30,142 0,7 -14,12 -39,12 h -39 l -12,-66 -13,-67 -25,53 c -40,85 -111,112 -181,69 z m 123,-32 c 13,-13 33,-50 45,-82 24,-63 23,-84 -5,-182 -32,-114 -109,-150 -151,-69 -21,41 -30,199 -14,263 22,87 77,118 125,70 z"
       id="path156" />
    <path
       d="m 23371,5489 c -49,-30 -69,-57 -87,-118 -32,-108 -1,-243 67,-294 61,-44 184,-24 224,37 18,28 35,26 35,-3 0,-11 8,-29 18,-41 26,-32 64,-21 86,24 18,38 21,86 6,86 -5,0 -10,-8 -10,-18 0,-47 -52,-56 -75,-12 -20,39 -20,46 15,196 16,71 30,135 30,142 0,7 -14,12 -39,12 h -39 l -12,-66 -13,-67 -25,53 c -40,85 -111,112 -181,69 z m 123,-32 c 13,-13 33,-50 45,-82 24,-63 23,-84 -5,-182 -32,-114 -109,-150 -151,-69 -21,41 -30,199 -14,263 22,87 77,118 125,70 z"
       id="path158" />
    <path
       d="m 28751,5489 c -49,-30 -69,-57 -87,-118 -32,-108 -1,-243 67,-294 61,-44 184,-24 224,37 18,28 35,26 35,-3 0,-11 8,-29 18,-41 26,-32 64,-21 86,24 18,38 21,86 6,86 -5,0 -10,-8 -10,-18 0,-47 -52,-56 -75,-12 -20,39 -20,46 15,196 16,71 30,135 30,142 0,7 -14,12 -39,12 h -39 l -12,-66 -13,-67 -25,53 c -40,85 -111,112 -181,69 z m 123,-32 c 13,-13 33,-50 45,-82 24,-63 23,-84 -5,-182 -32,-114 -109,-150 -151,-69 -21,41 -30,199 -14,263 22,87 77,118 125,70 z"
       id="path160" />
    <path
       d="m 9100,5280 v -40 h 120 120 v 40 40 h -120 -120 z"
       id="path162" />
    <path
       d="m 14260,5280 v -40 h 120 120 v 40 40 h -120 -120 z"
       id="path164" />
    <path
       d="m 30630,5280 v -40 h 120 120 v 40 40 h -120 -120 z"
       id="path166" />
    <path
       d="m 2570,5140 c -41,-41 -8,-98 49,-85 30,6 31,5 31,-25 0,-32 -38,-79 -85,-106 -11,-7 -17,-15 -13,-19 12,-12 98,45 119,78 29,48 26,117 -7,151 -32,31 -67,33 -94,6 z"
       id="path168" />
    <path
       d="m 3510,5140 c -41,-41 -8,-98 49,-85 30,6 31,5 31,-25 0,-32 -38,-79 -85,-106 -11,-7 -17,-15 -13,-19 12,-12 98,45 119,78 29,48 26,117 -7,151 -32,31 -67,33 -94,6 z"
       id="path170" />
    <path
       d="m 7670,5140 c -41,-41 -8,-98 49,-85 30,6 31,5 31,-25 0,-32 -38,-79 -85,-106 -11,-7 -17,-15 -13,-19 12,-12 98,45 119,78 29,48 26,117 -7,151 -32,31 -67,33 -94,6 z"
       id="path172" />
    <path
       d="m 8610,5140 c -41,-41 -8,-98 49,-85 30,6 31,5 31,-25 0,-32 -38,-79 -85,-106 -11,-7 -17,-15 -13,-19 12,-12 98,45 119,78 29,48 26,117 -7,151 -32,31 -67,33 -94,6 z"
       id="path174" />
    <path
       d="m 12570,5140 c -41,-41 -8,-98 49,-85 30,6 31,5 31,-25 0,-32 -38,-79 -85,-106 -11,-7 -17,-15 -13,-19 12,-12 98,45 119,78 29,48 26,117 -7,151 -32,31 -67,33 -94,6 z"
       id="path176" />
    <path
       d="m 13770,5140 c -41,-41 -8,-98 49,-85 30,6 31,5 31,-25 0,-32 -38,-79 -85,-106 -11,-7 -17,-15 -13,-19 12,-12 98,45 119,78 29,48 26,117 -7,151 -32,31 -67,33 -94,6 z"
       id="path178" />
    <path
       d="m 18820,5140 c -41,-41 -8,-98 49,-85 30,6 31,5 31,-25 0,-32 -38,-79 -85,-106 -11,-7 -17,-15 -13,-19 12,-12 98,45 119,78 29,48 26,117 -7,151 -32,31 -67,33 -94,6 z"
       id="path180" />
    <path
       d="m 19760,5140 c -41,-41 -8,-98 49,-85 30,6 31,5 31,-25 0,-32 -38,-79 -85,-106 -11,-7 -17,-15 -13,-19 12,-12 98,45 119,78 29,48 26,117 -7,151 -32,31 -67,33 -94,6 z"
       id="path182" />
    <path
       d="m 23820,5140 c -41,-41 -8,-98 49,-85 30,6 31,5 31,-25 0,-32 -38,-79 -85,-106 -11,-7 -17,-15 -13,-19 12,-12 98,45 119,78 29,48 26,117 -7,151 -32,31 -67,33 -94,6 z"
       id="path184" />
    <path
       d="m 25020,5140 c -41,-41 -8,-98 49,-85 30,6 31,5 31,-25 0,-32 -38,-79 -85,-106 -11,-7 -17,-15 -13,-19 12,-12 98,45 119,78 29,48 26,117 -7,151 -32,31 -67,33 -94,6 z"
       id="path186" />
    <path
       d="m 29200,5140 c -41,-41 -8,-98 49,-85 30,6 31,5 31,-25 0,-32 -38,-79 -85,-106 -11,-7 -17,-15 -13,-19 12,-12 98,45 119,78 29,48 26,117 -7,151 -32,31 -67,33 -94,6 z"
       id="path188" />
    <path
       d="m 30140,5140 c -41,-41 -8,-98 49,-85 30,6 31,5 31,-25 0,-32 -38,-79 -85,-106 -11,-7 -17,-15 -13,-19 12,-12 98,45 119,78 29,48 26,117 -7,151 -32,31 -67,33 -94,6 z"
       id="path190" />
    <path
       d="m 3230,3485 v -815 h 35 35 v 815 815 h -35 -35 z"
       id="path192" />
    <path
       d="m 29760,3485 v -815 h 35 35 v 815 815 h -35 -35 z"
       id="path194" />
    <path
       d="m 3003,2810 c 19,-45 257,-573 260,-577 2,-1 17,30 34,70 18,40 79,178 137,307 l 106,235 -72,-80 c -40,-44 -94,-102 -120,-130 l -48,-50 v 38 c 0,36 -1,37 -34,37 -33,0 -35,-2 -38,-40 l -3,-39 -85,95 c -47,52 -100,111 -118,132 l -33,37 z"
       id="path196" />
    <path
       d="m 29521,2833 c 17,-47 265,-593 270,-593 7,0 270,582 265,587 -2,2 -52,-51 -112,-118 l -109,-122 -3,36 c -3,35 -5,37 -37,37 -32,0 -34,-2 -37,-40 l -3,-41 -119,133 c -66,73 -117,127 -115,121 z"
       id="path198" />
    <path
       d="m 3155,1681 c -95,-25 -191,-114 -221,-204 -10,-29 -17,-82 -17,-122 0,-40 7,-93 17,-122 22,-66 93,-146 159,-179 27,-14 73,-44 100,-66 90,-70 249,-137 330,-138 35,0 15,16 -42,32 -59,18 -133,76 -160,126 -10,19 -7,23 33,41 58,25 125,93 157,156 21,43 24,64 24,155 0,90 -3,111 -23,148 -58,110 -152,173 -262,178 -36,2 -78,0 -95,-5 z m 155,-43 c 81,-41 121,-134 121,-287 1,-153 -39,-243 -126,-282 -79,-37 -159,-19 -214,47 -76,93 -92,315 -31,433 52,102 153,138 250,89 z"
       id="path200" />
    <path
       d="m 29825,1681 c -95,-25 -191,-114 -221,-204 -10,-29 -17,-82 -17,-122 0,-40 7,-93 17,-122 22,-66 93,-146 159,-179 27,-14 73,-44 100,-66 90,-70 249,-137 330,-138 35,0 15,16 -42,32 -59,18 -133,76 -160,126 -10,19 -7,23 33,41 58,25 125,93 157,156 21,43 24,64 24,155 0,90 -3,111 -23,148 -58,110 -152,173 -262,178 -36,2 -78,0 -95,-5 z m 155,-43 c 81,-41 121,-134 121,-287 1,-153 -39,-243 -126,-282 -79,-37 -159,-19 -214,47 -76,93 -92,315 -31,433 52,102 153,138 250,89 z"
       id="path202" />
    <path
       d="m 4330,1485 v -115 h -115 c -108,0 -115,-1 -115,-20 0,-19 7,-20 115,-20 h 115 v -115 c 0,-108 1,-115 20,-115 19,0 20,7 20,115 v 115 h 120 c 113,0 120,1 120,20 0,19 -7,20 -120,20 h -120 v 115 c 0,108 -1,115 -20,115 -19,0 -20,-7 -20,-115 z"
       id="path204" />
    <path
       d="m 1981,1459 c -49,-30 -69,-57 -87,-118 -32,-108 -1,-243 67,-294 61,-44 184,-24 224,37 18,28 35,26 35,-3 0,-11 8,-29 18,-41 26,-32 64,-21 86,24 18,38 21,86 6,86 -5,0 -10,-8 -10,-18 0,-47 -52,-56 -75,-12 -20,39 -20,46 15,196 16,71 30,135 30,142 0,7 -14,12 -39,12 h -39 l -12,-66 -13,-67 -25,53 c -40,85 -111,112 -181,69 z m 123,-32 c 13,-13 33,-50 45,-82 24,-63 23,-84 -5,-182 -32,-114 -109,-150 -151,-69 -21,41 -30,199 -14,263 22,87 77,118 125,70 z"
       id="path206" />
    <path
       d="m 28651,1459 c -49,-30 -69,-57 -87,-118 -32,-108 -1,-243 67,-294 61,-44 184,-24 224,37 18,28 35,26 35,-3 0,-11 8,-29 18,-41 26,-32 64,-21 86,24 18,38 21,86 6,86 -5,0 -10,-8 -10,-18 0,-47 -52,-56 -75,-12 -20,39 -20,46 15,196 16,71 30,135 30,142 0,7 -14,12 -39,12 h -39 l -12,-66 -13,-67 -25,53 c -40,85 -111,112 -181,69 z m 123,-32 c 13,-13 33,-50 45,-82 24,-63 23,-84 -5,-182 -32,-114 -109,-150 -151,-69 -21,41 -30,199 -14,263 22,87 77,118 125,70 z"
       id="path208" />
    <path
       d="m 30790,1250 v -40 h 120 120 v 40 40 h -120 -120 z"
       id="path210" />
    <path
       d="m 2430,1110 c -41,-41 -8,-98 49,-85 30,6 31,5 31,-25 0,-32 -38,-79 -85,-106 -11,-7 -17,-15 -13,-19 12,-12 98,45 119,78 29,48 26,117 -7,151 -32,31 -67,33 -94,6 z"
       id="path212" />
    <path
       d="m 3630,1110 c -41,-41 -8,-98 49,-85 30,6 31,5 31,-25 0,-32 -38,-79 -85,-106 -11,-7 -17,-15 -13,-19 12,-12 98,45 119,78 29,48 26,117 -7,151 -32,31 -67,33 -94,6 z"
       id="path214" />
    <path
       d="m 29100,1110 c -41,-41 -8,-98 49,-85 30,6 31,5 31,-25 0,-32 -38,-79 -85,-106 -11,-7 -17,-15 -13,-19 12,-12 98,45 119,78 29,48 26,117 -7,151 -32,31 -67,33 -94,6 z"
       id="path216" />
    <path
       d="m 30300,1110 c -41,-41 -8,-98 49,-85 30,6 31,5 31,-25 0,-32 -38,-79 -85,-106 -11,-7 -17,-15 -13,-19 12,-12 98,45 119,78 29,48 26,117 -7,151 -32,31 -67,33 -94,6 z"
       id="path218" />
  </g>
</svg>
