<?xml version="1.0" encoding="UTF-8" standalone="no"?>
<svg
   version="1.0"
   width="3475.4866pt"
   height="977.90106pt"
   viewBox="0 0 3475.4866 977.90106"
   preserveAspectRatio="xMidYMid meet"
   id="svg230"
   xmlns="http://www.w3.org/2000/svg"
   xmlns:svg="http://www.w3.org/2000/svg">
  <defs
     id="defs234" />
  <metadata
     id="metadata2">
Created by potrace 1.16, written by Peter Selinger 2001-2019
</metadata>
  <g
     transform="matrix(0.1,0,0,-0.1,-106.51353,1059.9011)"
     fill="#000000"
     stroke="none"
     id="g228">
    <path
       d="m 4600,10578 c -56,-21 -96,-47 -52,-33 50,15 52,5 52,-299 0,-154 -4,-286 -8,-293 -4,-7 -19,-16 -32,-22 -19,-7 3,-10 85,-9 61,0 101,3 90,5 -11,3 -28,12 -37,21 -16,14 -18,43 -18,334 0,248 -3,318 -12,317 -7,0 -38,-9 -68,-21 z"
       id="path4" />
    <path
       d="m 14320,10578 c -56,-21 -96,-47 -52,-33 50,15 52,5 52,-299 0,-154 -4,-286 -8,-293 -4,-7 -19,-16 -32,-22 -19,-7 3,-10 85,-9 61,0 101,3 90,5 -11,3 -28,12 -37,21 -16,14 -18,43 -18,334 0,248 -3,318 -12,317 -7,0 -38,-9 -68,-21 z"
       id="path6" />
    <path
       d="m 20400,10578 c -56,-21 -96,-47 -52,-33 50,15 52,5 52,-299 0,-154 -4,-286 -8,-293 -4,-7 -19,-16 -32,-22 -19,-7 3,-10 85,-9 61,0 101,3 90,5 -11,3 -28,12 -37,21 -16,14 -18,43 -18,334 0,248 -3,318 -12,317 -7,0 -38,-9 -68,-21 z"
       id="path8" />
    <path
       d="m 29910,10578 c -56,-21 -96,-47 -52,-33 50,15 52,5 52,-299 0,-154 -4,-286 -8,-293 -4,-7 -19,-16 -32,-22 -19,-7 3,-10 85,-9 61,0 101,3 90,5 -11,3 -28,12 -37,21 -16,14 -18,43 -18,334 0,248 -3,318 -12,317 -7,0 -38,-9 -68,-21 z"
       id="path10" />
    <path
       d="m 22469,10562 c -92,-59 -173,-182 -198,-300 -31,-150 10,-320 105,-430 37,-44 134,-116 143,-106 3,2 -18,28 -46,57 -66,67 -89,116 -108,223 -18,106 -19,205 -1,305 19,106 48,166 108,222 28,26 49,50 46,52 -2,3 -24,-8 -49,-23 z"
       id="path12" />
    <path
       d="m 26040,10585 c 0,-3 22,-28 49,-54 27,-26 58,-65 69,-87 31,-61 52,-182 52,-296 0,-183 -40,-301 -125,-375 -25,-23 -45,-44 -45,-47 0,-17 85,43 130,90 87,92 130,203 130,340 0,132 -44,247 -130,338 -44,47 -130,107 -130,91 z"
       id="path14" />
    <path
       d="m 31989,10562 c -92,-59 -173,-182 -198,-300 -31,-150 10,-320 105,-430 37,-44 134,-116 143,-106 3,2 -18,28 -46,57 -66,67 -89,116 -108,223 -18,106 -19,205 -1,305 19,106 48,166 108,222 28,26 49,50 46,52 -2,3 -24,-8 -49,-23 z"
       id="path16" />
    <path
       d="m 35560,10585 c 0,-3 22,-28 49,-54 27,-26 58,-65 69,-87 31,-61 52,-182 52,-296 0,-183 -40,-301 -125,-375 -25,-23 -45,-44 -45,-47 0,-17 85,43 130,90 87,92 130,203 130,340 0,132 -44,247 -130,338 -44,47 -130,107 -130,91 z"
       id="path18" />
    <path
       d="m 15473,10561 c -72,-24 -129,-66 -180,-131 -63,-80 -86,-147 -87,-251 -1,-76 2,-92 29,-144 17,-32 47,-72 68,-89 34,-27 46,-31 101,-31 80,0 129,30 169,103 50,93 45,189 -14,257 -51,57 -132,70 -210,31 -18,-9 -34,-14 -37,-11 -3,3 11,38 32,79 47,95 107,151 188,173 32,9 58,20 58,25 0,14 -62,8 -117,-11 z m -18,-293 c 41,-32 65,-93 65,-166 0,-78 -19,-126 -59,-146 -45,-24 -69,-20 -106,17 -52,52 -76,160 -56,251 4,19 18,35 41,47 46,25 81,24 115,-3 z"
       id="path20" />
    <path
       d="m 30915,10566 c -17,-7 -45,-30 -63,-50 -27,-31 -32,-45 -32,-87 0,-61 9,-81 67,-140 l 45,-47 -47,-43 c -61,-56 -78,-91 -72,-145 16,-143 219,-197 320,-84 71,78 60,155 -33,244 l -60,57 60,57 c 57,55 60,60 60,106 0,60 -27,101 -84,127 -48,22 -118,24 -161,5 z m 135,-31 c 34,-18 55,-72 45,-121 -6,-36 -68,-114 -90,-114 -20,0 -115,107 -116,132 -2,42 3,63 19,82 34,37 93,46 142,21 z m -10,-383 c 63,-60 70,-71 70,-105 0,-49 -13,-73 -50,-92 -105,-54 -210,50 -170,169 12,38 55,96 71,96 4,0 40,-30 79,-68 z"
       id="path22" />
    <path
       d="m 3448,10560 c 19,-4 39,-13 45,-19 9,-9 12,-94 12,-296 0,-202 -3,-287 -12,-296 -6,-6 -26,-15 -45,-19 -21,-5 17,-8 107,-8 93,0 129,3 105,8 -54,13 -60,29 -60,167 v 123 h 33 c 32,0 40,-8 142,-150 l 109,-150 h 91 l 90,1 -48,19 c -27,10 -54,23 -61,30 -18,14 -186,256 -186,266 0,5 20,17 45,28 115,47 138,187 43,259 -49,38 -104,47 -283,46 -102,-1 -148,-4 -127,-9 z m 292,-38 c 66,-32 91,-133 50,-200 -25,-40 -89,-71 -147,-72 h -43 v 135 c 0,131 1,136 23,145 35,14 79,11 117,-8 z"
       id="path24" />
    <path
       d="m 5559,10448 -60,-123 64,-11 c 79,-15 115,-33 162,-81 78,-80 69,-200 -18,-253 -43,-27 -88,-25 -144,5 -50,26 -83,21 -83,-14 0,-75 161,-79 261,-6 68,49 104,125 96,206 -9,103 -74,176 -193,214 l -63,20 19,43 19,42 h 99 99 l 16,40 15,40 h -114 -115 z"
       id="path26" />
    <path
       d="m 13178,10560 c 19,-4 39,-13 45,-19 9,-9 12,-94 12,-296 0,-202 -3,-287 -12,-296 -6,-6 -26,-15 -45,-19 -21,-5 17,-8 107,-8 93,0 129,3 105,8 -54,13 -60,29 -60,167 v 123 h 33 c 32,0 40,-8 142,-150 l 109,-150 h 91 l 90,1 -48,19 c -27,10 -54,23 -61,30 -18,14 -186,256 -186,266 0,5 20,17 45,28 115,47 138,187 43,259 -49,38 -104,47 -283,46 -102,-1 -148,-4 -127,-9 z m 292,-38 c 66,-32 91,-133 50,-200 -25,-40 -89,-71 -147,-72 h -43 v 135 c 0,131 1,136 23,145 35,14 79,11 117,-8 z"
       id="path28" />
    <path
       d="m 19248,10560 c 19,-4 39,-13 45,-19 9,-9 12,-94 12,-296 0,-202 -3,-287 -12,-296 -6,-6 -26,-15 -45,-19 -21,-5 17,-8 107,-8 93,0 129,3 105,8 -54,13 -60,29 -60,167 v 123 h 33 c 32,0 40,-8 142,-150 l 109,-150 h 91 l 90,1 -48,19 c -27,10 -54,23 -61,30 -18,14 -186,256 -186,266 0,5 20,17 45,28 115,47 138,187 43,259 -49,38 -104,47 -283,46 -102,-1 -148,-4 -127,-9 z m 292,-38 c 66,-32 91,-133 50,-200 -25,-40 -89,-71 -147,-72 h -43 v 135 c 0,131 1,136 23,145 35,14 79,11 117,-8 z"
       id="path30" />
    <path
       d="m 21314,10535 c -7,-19 -21,-51 -29,-71 -22,-55 -18,-62 14,-26 17,18 42,37 56,42 38,14 235,13 235,-1 0,-7 -40,-134 -90,-283 -49,-150 -90,-275 -90,-279 0,-4 11,-7 24,-7 23,0 30,18 130,318 58,174 106,323 106,330 0,9 -41,12 -171,12 h -170 z"
       id="path32" />
    <path
       d="m 28768,10560 c 19,-4 39,-13 45,-19 9,-9 12,-94 12,-296 0,-202 -3,-287 -12,-296 -6,-6 -26,-15 -45,-19 -21,-5 17,-8 107,-8 93,0 129,3 105,8 -54,13 -60,29 -60,167 v 123 h 33 c 32,0 40,-8 142,-150 l 109,-150 h 91 l 90,1 -48,19 c -27,10 -54,23 -61,30 -18,14 -186,256 -186,266 0,5 20,17 45,28 115,47 138,187 43,259 -49,38 -104,47 -283,46 -102,-1 -148,-4 -127,-9 z m 292,-38 c 66,-32 91,-133 50,-200 -25,-40 -89,-71 -147,-72 h -43 v 135 c 0,131 1,136 23,145 35,14 79,11 117,-8 z"
       id="path34" />
    <path
       d="m 24278,10466 c -21,-44 -74,-103 -99,-111 -31,-10 -22,-25 16,-25 h 35 v -176 c 0,-177 5,-205 39,-231 38,-29 110,-3 137,48 8,17 12,29 7,27 -4,-2 -21,-10 -36,-18 -21,-10 -33,-11 -45,-3 -15,9 -17,34 -20,182 l -2,171 h 50 c 38,0 50,4 50,15 0,11 -12,15 -50,15 h -50 v 70 c 0,39 -4,70 -8,70 -5,0 -16,-15 -24,-34 z"
       id="path36" />
    <path
       d="m 33788,10466 c -21,-44 -74,-103 -99,-111 -31,-10 -22,-25 16,-25 h 35 v -176 c 0,-177 5,-205 39,-231 38,-29 110,-3 137,48 8,17 12,29 7,27 -4,-2 -21,-10 -36,-18 -21,-10 -33,-11 -45,-3 -15,9 -17,34 -20,182 l -2,171 h 50 c 38,0 50,4 50,15 0,11 -12,15 -50,15 h -50 v 70 c 0,39 -4,70 -8,70 -5,0 -16,-15 -24,-34 z"
       id="path38" />
    <path
       d="m 4910,10348 c -25,-13 -57,-41 -74,-65 -25,-36 -30,-54 -34,-121 -5,-93 7,-139 51,-189 56,-64 134,-80 207,-43 44,23 86,78 96,128 8,40 -1,41 -21,2 -32,-61 -113,-87 -173,-56 -54,28 -82,71 -96,149 l -7,37 h 152 152 l -6,42 c -15,112 -140,171 -247,116 z m 121,-37 c 19,-20 29,-40 29,-60 v -31 h -99 -100 l 10,33 c 5,17 22,44 39,60 41,37 83,36 121,-2 z"
       id="path40" />
    <path
       d="m 6006,10357 c -38,-28 -13,-97 34,-97 22,0 50,32 50,57 0,23 -29,53 -51,53 -9,0 -23,-6 -33,-13 z"
       id="path42" />
    <path
       d="m 14630,10348 c -25,-13 -57,-41 -74,-65 -25,-36 -30,-54 -34,-121 -5,-93 7,-139 51,-189 56,-64 134,-80 207,-43 44,23 86,78 96,128 8,40 -1,41 -21,2 -32,-61 -113,-87 -173,-56 -54,28 -82,71 -96,149 l -7,37 h 152 152 l -6,42 c -15,112 -140,171 -247,116 z m 121,-37 c 19,-20 29,-40 29,-60 v -31 h -99 -100 l 10,33 c 5,17 22,44 39,60 41,37 83,36 121,-2 z"
       id="path44" />
    <path
       d="m 15726,10357 c -38,-28 -13,-97 34,-97 22,0 50,32 50,57 0,23 -29,53 -51,53 -9,0 -23,-6 -33,-13 z"
       id="path46" />
    <path
       d="m 20710,10348 c -25,-13 -57,-41 -74,-65 -25,-36 -30,-54 -34,-121 -5,-93 7,-139 51,-189 56,-64 134,-80 207,-43 44,23 86,78 96,128 8,40 -1,41 -21,2 -32,-61 -113,-87 -173,-56 -54,28 -82,71 -96,149 l -7,37 h 152 152 l -6,42 c -15,112 -140,171 -247,116 z m 121,-37 c 19,-20 29,-40 29,-60 v -31 h -99 -100 l 10,33 c 5,17 22,44 39,60 41,37 83,36 121,-2 z"
       id="path48" />
    <path
       d="m 21806,10357 c -38,-28 -13,-97 34,-97 22,0 50,32 50,57 0,23 -29,53 -51,53 -9,0 -23,-6 -33,-13 z"
       id="path50" />
    <path
       d="m 22695,10351 c -92,-42 -148,-157 -127,-261 15,-71 56,-129 112,-158 62,-32 145,-26 203,15 75,52 114,173 88,268 -32,120 -167,186 -276,136 z m 129,-41 c 44,-39 66,-104 66,-197 0,-82 -16,-132 -51,-157 -55,-38 -120,-9 -157,72 -35,74 -39,208 -8,259 37,60 97,69 150,23 z"
       id="path52" />
    <path
       d="m 23075,10348 c -58,-22 -85,-43 -43,-33 41,10 48,-15 48,-187 0,-165 -7,-192 -53,-201 -12,-2 30,-5 93,-5 101,-1 111,1 80,11 l -35,12 -3,157 -2,156 30,22 c 17,12 48,24 69,27 34,5 41,2 57,-23 16,-23 19,-52 22,-164 3,-148 -5,-179 -48,-191 -14,-4 25,-7 85,-7 61,1 100,3 88,5 -43,8 -48,28 -51,192 -3,167 -10,200 -50,231 -44,36 -112,19 -179,-43 l -23,-20 v 41 c 0,49 -7,51 -85,20 z"
       id="path54" />
    <path
       d="m 23853,10350 c -54,-24 -83,-76 -65,-115 23,-50 72,-25 72,36 0,43 27,69 70,69 38,0 60,-20 70,-65 14,-61 15,-60 -57,-90 -76,-32 -132,-64 -151,-88 -39,-47 -31,-130 16,-168 38,-29 98,-22 150,20 22,17 42,31 45,31 2,0 7,-13 10,-30 11,-52 80,-48 131,9 23,26 16,37 -14,21 -39,-21 -45,-1 -48,163 -1,86 -7,162 -14,174 -25,50 -140,68 -215,33 z m 157,-249 c 0,-74 -2,-81 -26,-100 -57,-44 -107,-39 -130,14 -16,40 -8,69 27,101 21,19 102,61 122,63 4,1 7,-35 7,-78 z"
       id="path56" />
    <path
       d="m 24575,10351 c -92,-42 -148,-157 -127,-261 15,-71 56,-129 112,-158 62,-32 145,-26 203,15 75,52 114,173 88,268 -32,120 -167,186 -276,136 z m 129,-41 c 44,-39 66,-104 66,-197 0,-82 -16,-132 -51,-157 -55,-38 -120,-9 -157,72 -35,74 -39,208 -8,259 37,60 97,69 150,23 z"
       id="path58" />
    <path
       d="m 24960,10348 c -61,-23 -91,-43 -48,-33 20,5 29,2 37,-13 13,-24 15,-330 3,-349 -4,-7 -19,-16 -32,-22 -19,-7 3,-10 85,-10 78,1 102,3 81,9 -16,5 -33,15 -37,22 -5,7 -9,79 -9,160 v 147 l 43,26 c 53,30 90,32 117,5 19,-19 20,-31 18,-183 l -3,-162 -35,-12 c -31,-10 -21,-12 80,-11 63,0 105,3 93,5 -45,9 -53,37 -53,183 0,129 1,138 23,157 51,47 100,55 138,24 23,-18 24,-26 27,-165 5,-159 -3,-190 -50,-199 -13,-2 27,-5 87,-5 100,-1 107,0 79,12 -38,17 -44,49 -44,231 0,110 -2,125 -22,155 -44,65 -122,64 -192,0 l -43,-40 -24,37 c -45,68 -121,69 -195,1 l -44,-41 v 47 c 0,53 -2,54 -80,24 z"
       id="path60" />
    <path
       d="m 25774,10354 c -39,-19 -64,-62 -64,-111 0,-54 19,-75 107,-123 89,-47 113,-70 113,-111 0,-96 -147,-88 -188,11 -10,22 -20,40 -24,40 -5,0 -8,-34 -8,-75 0,-41 4,-75 9,-75 5,0 11,5 13,12 3,9 15,9 50,0 67,-17 103,-15 148,8 45,23 70,63 70,112 0,57 -29,89 -130,143 -74,40 -96,56 -103,79 -9,26 -6,33 17,53 53,45 135,16 157,-57 7,-22 16,-40 21,-40 4,0 8,34 8,75 0,41 -4,75 -9,75 -5,0 -11,-5 -13,-12 -4,-10 -13,-10 -45,0 -53,16 -91,15 -129,-4 z"
       id="path62" />
    <path
       d="m 30220,10348 c -25,-13 -57,-41 -74,-65 -25,-36 -30,-54 -34,-121 -5,-93 7,-139 51,-189 56,-64 134,-80 207,-43 44,23 86,78 96,128 8,40 -1,41 -21,2 -32,-61 -113,-87 -173,-56 -54,28 -82,71 -96,149 l -7,37 h 152 152 l -6,42 c -15,112 -140,171 -247,116 z m 121,-37 c 19,-20 29,-40 29,-60 v -31 h -99 -100 l 10,33 c 5,17 22,44 39,60 41,37 83,36 121,-2 z"
       id="path64" />
    <path
       d="m 31326,10357 c -38,-28 -13,-97 34,-97 22,0 50,32 50,57 0,23 -29,53 -51,53 -9,0 -23,-6 -33,-13 z"
       id="path66" />
    <path
       d="m 32215,10351 c -92,-42 -148,-157 -127,-261 15,-71 56,-129 112,-158 62,-32 145,-26 203,15 75,52 114,173 88,268 -32,120 -167,186 -276,136 z m 129,-41 c 44,-39 66,-104 66,-197 0,-82 -16,-132 -51,-157 -55,-38 -120,-9 -157,72 -35,74 -39,208 -8,259 37,60 97,69 150,23 z"
       id="path68" />
    <path
       d="m 32595,10348 c -58,-22 -85,-43 -43,-33 41,10 48,-15 48,-187 0,-165 -7,-192 -53,-201 -12,-2 30,-5 93,-5 101,-1 111,1 80,11 l -35,12 -3,157 -2,156 30,22 c 17,12 48,24 69,27 34,5 41,2 57,-23 16,-23 19,-52 22,-164 3,-148 -5,-179 -48,-191 -14,-4 25,-7 85,-7 61,1 100,3 88,5 -43,8 -48,28 -51,192 -3,167 -10,200 -50,231 -44,36 -112,19 -179,-43 l -23,-20 v 41 c 0,49 -7,51 -85,20 z"
       id="path70" />
    <path
       d="m 33373,10350 c -54,-24 -83,-76 -65,-115 23,-50 72,-25 72,36 0,43 27,69 70,69 38,0 60,-20 70,-65 14,-61 15,-60 -57,-90 -76,-32 -132,-64 -151,-88 -39,-47 -31,-130 16,-168 38,-29 98,-22 150,20 22,17 42,31 45,31 2,0 7,-13 10,-30 11,-52 80,-48 131,9 23,26 16,37 -14,21 -39,-21 -45,-1 -48,163 -1,86 -7,162 -14,174 -25,50 -140,68 -215,33 z m 157,-249 c 0,-74 -2,-81 -26,-100 -57,-44 -107,-39 -130,14 -16,40 -8,69 27,101 21,19 102,61 122,63 4,1 7,-35 7,-78 z"
       id="path72" />
    <path
       d="m 34085,10351 c -92,-42 -148,-157 -127,-261 15,-71 56,-129 112,-158 62,-32 145,-26 203,15 75,52 114,173 88,268 -32,120 -167,186 -276,136 z m 129,-41 c 44,-39 66,-104 66,-197 0,-82 -16,-132 -51,-157 -55,-38 -120,-9 -157,72 -35,74 -39,208 -8,259 37,60 97,69 150,23 z"
       id="path74" />
    <path
       d="m 34470,10348 c -61,-23 -91,-43 -48,-33 20,5 29,2 37,-13 13,-24 15,-330 3,-349 -4,-7 -19,-16 -32,-22 -19,-7 3,-10 85,-10 78,1 102,3 81,9 -16,5 -33,15 -37,22 -5,7 -9,79 -9,160 v 147 l 43,26 c 53,30 90,32 117,5 19,-19 20,-31 18,-183 l -3,-162 -35,-12 c -31,-10 -21,-12 80,-11 63,0 105,3 93,5 -45,9 -53,37 -53,183 0,129 1,138 23,157 51,47 100,55 138,24 23,-18 24,-26 27,-165 5,-159 -3,-190 -50,-199 -13,-2 27,-5 87,-5 100,-1 107,0 79,12 -38,17 -44,49 -44,231 0,110 -2,125 -22,155 -44,65 -122,64 -192,0 l -43,-40 -24,37 c -45,68 -121,69 -195,1 l -44,-41 v 47 c 0,53 -2,54 -80,24 z"
       id="path76" />
    <path
       d="m 35284,10354 c -39,-19 -64,-62 -64,-111 0,-54 19,-75 107,-123 89,-47 113,-70 113,-111 0,-96 -147,-88 -188,11 -10,22 -20,40 -24,40 -5,0 -8,-34 -8,-75 0,-41 4,-75 9,-75 5,0 11,5 13,12 3,9 15,9 50,0 67,-17 103,-15 148,8 45,23 70,63 70,112 0,57 -29,89 -130,143 -74,40 -96,56 -103,79 -9,26 -6,33 17,53 53,45 135,16 157,-57 7,-22 16,-40 21,-40 4,0 8,34 8,75 0,41 -4,75 -9,75 -5,0 -11,-5 -13,-12 -4,-10 -13,-10 -45,0 -53,16 -91,15 -129,-4 z"
       id="path78" />
    <path
       d="m 4060,10347 35,-12 6,-165 c 4,-91 11,-177 17,-191 15,-38 59,-69 97,-69 33,0 96,36 128,72 17,20 17,19 17,-26 0,-54 4,-55 81,-24 62,24 88,43 47,33 -43,-11 -48,14 -48,214 v 181 l -77,-1 c -74,0 -76,-1 -43,-12 l 35,-12 3,-157 3,-157 -44,-25 c -52,-31 -77,-32 -108,-7 -23,19 -24,24 -27,195 l -4,176 -76,-1 c -73,0 -75,-1 -42,-12 z"
       id="path80" />
    <path
       d="m 13780,10347 35,-12 6,-165 c 4,-91 11,-177 17,-191 15,-38 59,-69 97,-69 33,0 96,36 128,72 17,20 17,19 17,-26 0,-54 4,-55 81,-24 62,24 88,43 47,33 -43,-11 -48,14 -48,214 v 181 l -77,-1 c -74,0 -76,-1 -43,-12 l 35,-12 3,-157 3,-157 -44,-25 c -52,-31 -77,-32 -108,-7 -23,19 -24,24 -27,195 l -4,176 -76,-1 c -73,0 -75,-1 -42,-12 z"
       id="path82" />
    <path
       d="m 19860,10347 35,-12 6,-165 c 4,-91 11,-177 17,-191 15,-38 59,-69 97,-69 33,0 96,36 128,72 17,20 17,19 17,-26 0,-54 4,-55 81,-24 62,24 88,43 47,33 -43,-11 -48,14 -48,214 v 181 l -77,-1 c -74,0 -76,-1 -43,-12 l 35,-12 3,-157 3,-157 -44,-25 c -52,-31 -77,-32 -108,-7 -23,19 -24,24 -27,195 l -4,176 -76,-1 c -73,0 -75,-1 -42,-12 z"
       id="path84" />
    <path
       d="m 29370,10347 35,-12 6,-165 c 4,-91 11,-177 17,-191 15,-38 59,-69 97,-69 33,0 96,36 128,72 17,20 17,19 17,-26 0,-54 4,-55 81,-24 62,24 88,43 47,33 -43,-11 -48,14 -48,214 v 181 l -77,-1 c -74,0 -76,-1 -43,-12 l 35,-12 3,-157 3,-157 -44,-25 c -52,-31 -77,-32 -108,-7 -23,19 -24,24 -27,195 l -4,176 -76,-1 c -73,0 -75,-1 -42,-12 z"
       id="path86" />
    <path
       d="m 5993,9994 c -15,-24 -15,-29 -2,-53 18,-32 54,-39 80,-15 24,22 24,56 1,77 -27,25 -59,21 -79,-9 z"
       id="path88" />
    <path
       d="m 15713,9994 c -15,-24 -15,-29 -2,-53 18,-32 54,-39 80,-15 24,22 24,56 1,77 -27,25 -59,21 -79,-9 z"
       id="path90" />
    <path
       d="m 21793,9994 c -15,-24 -15,-29 -2,-53 18,-32 54,-39 80,-15 24,22 24,56 1,77 -27,25 -59,21 -79,-9 z"
       id="path92" />
    <path
       d="m 31313,9994 c -15,-24 -15,-29 -2,-53 18,-32 54,-39 80,-15 24,22 24,56 1,77 -27,25 -59,21 -79,-9 z"
       id="path94" />
    <path
       d="m 5655,9531 c -95,-25 -191,-114 -221,-204 -10,-29 -17,-82 -17,-122 0,-40 7,-93 17,-122 22,-66 93,-146 159,-179 27,-14 73,-44 100,-66 90,-70 249,-137 330,-138 35,0 15,16 -42,32 -59,18 -133,76 -160,126 -10,19 -7,23 33,41 58,25 125,93 157,156 21,43 24,64 24,155 0,90 -3,111 -23,148 -58,110 -152,173 -262,178 -36,2 -78,0 -95,-5 z m 155,-43 c 81,-41 121,-134 121,-287 1,-153 -39,-243 -126,-282 -79,-37 -159,-19 -214,47 -76,93 -92,315 -31,433 52,102 153,138 250,89 z"
       id="path96" />
    <path
       d="m 15515,9531 c -95,-25 -191,-114 -221,-204 -10,-29 -17,-82 -17,-122 0,-40 7,-93 17,-122 22,-66 93,-146 159,-179 27,-14 73,-44 100,-66 90,-70 249,-137 330,-138 35,0 15,16 -42,32 -59,18 -133,76 -160,126 -10,19 -7,23 33,41 58,25 125,93 157,156 21,43 24,64 24,155 0,90 -3,111 -23,148 -58,110 -152,173 -262,178 -36,2 -78,0 -95,-5 z m 155,-43 c 81,-41 121,-134 121,-287 1,-153 -39,-243 -126,-282 -79,-37 -159,-19 -214,47 -76,93 -92,315 -31,433 52,102 153,138 250,89 z"
       id="path98" />
    <path
       d="m 3448,9521 c 19,-5 39,-14 45,-20 9,-9 12,-94 12,-296 0,-202 -3,-287 -12,-296 -6,-6 -26,-15 -45,-19 -21,-5 17,-8 107,-8 93,0 129,3 105,8 -54,13 -60,29 -60,166 v 123 l 68,-6 c 86,-7 143,9 186,52 57,57 66,160 18,224 -10,14 -39,37 -63,51 -42,24 -53,25 -219,27 -111,1 -163,-1 -142,-6 z m 265,-32 c 44,-23 66,-53 78,-105 27,-120 -56,-208 -168,-178 -22,6 -23,10 -23,144 0,101 3,140 13,143 23,10 78,7 100,-4 z"
       id="path100" />
    <path
       d="m 13308,9521 c 19,-5 39,-14 45,-20 9,-9 12,-94 12,-296 0,-202 -3,-287 -12,-296 -6,-6 -26,-15 -45,-19 -21,-5 17,-8 107,-8 93,0 129,3 105,8 -54,13 -60,29 -60,166 v 123 l 68,-6 c 86,-7 143,9 186,52 57,57 66,160 18,224 -10,14 -39,37 -63,51 -42,24 -53,25 -219,27 -111,1 -163,-1 -142,-6 z m 265,-32 c 44,-23 66,-53 78,-105 27,-120 -56,-208 -168,-178 -22,6 -23,10 -23,144 0,101 3,140 13,143 23,10 78,7 100,-4 z"
       id="path102" />
    <path
       d="m 22578,9521 c 19,-5 39,-14 45,-20 9,-9 12,-94 12,-296 0,-202 -3,-287 -12,-296 -6,-6 -26,-15 -45,-19 -21,-5 17,-8 107,-8 93,0 129,3 105,8 -54,13 -60,29 -60,166 v 123 l 68,-6 c 86,-7 143,9 186,52 57,57 66,160 18,224 -10,14 -39,37 -63,51 -42,24 -53,25 -219,27 -111,1 -163,-1 -142,-6 z m 265,-32 c 44,-23 66,-53 78,-105 27,-120 -56,-208 -168,-178 -22,6 -23,10 -23,144 0,101 3,140 13,143 23,10 78,7 100,-4 z"
       id="path104" />
    <path
       d="m 32198,9521 c 19,-5 39,-14 45,-20 9,-9 12,-94 12,-296 0,-202 -3,-287 -12,-296 -6,-6 -26,-15 -45,-19 -21,-5 17,-8 107,-8 93,0 129,3 105,8 -54,13 -60,29 -60,166 v 123 l 68,-6 c 86,-7 143,9 186,52 57,57 66,160 18,224 -10,14 -39,37 -63,51 -42,24 -53,25 -219,27 -111,1 -163,-1 -142,-6 z m 265,-32 c 44,-23 66,-53 78,-105 27,-120 -56,-208 -168,-178 -22,6 -23,10 -23,144 0,101 3,140 13,143 23,10 78,7 100,-4 z"
       id="path106" />
    <path
       d="m 6830,9335 v -115 h -115 c -108,0 -115,-1 -115,-20 0,-19 7,-20 115,-20 h 115 v -115 c 0,-108 1,-115 20,-115 19,0 20,7 20,115 v 115 h 120 c 113,0 120,1 120,20 0,19 -7,20 -120,20 h -120 v 115 c 0,108 -1,115 -20,115 -19,0 -20,-7 -20,-115 z"
       id="path108" />
    <path
       d="m 23720,9335 v -115 h -115 c -108,0 -115,-1 -115,-20 0,-19 7,-20 115,-20 h 115 v -115 c 0,-108 1,-115 20,-115 19,0 20,7 20,115 v 115 h 120 c 113,0 120,1 120,20 0,19 -7,20 -120,20 h -120 v 115 c 0,108 -1,115 -20,115 -19,0 -20,-7 -20,-115 z"
       id="path110" />
    <path
       d="m 4360,9332 v -30 l 178,-4 c 149,-2 182,-6 205,-21 44,-28 61,-73 61,-157 0,-84 -17,-129 -61,-157 -23,-15 -56,-19 -205,-21 l -178,-4 v -30 -30 l 188,4 c 212,3 233,10 284,83 55,80 55,232 1,309 -52,74 -73,81 -285,84 l -188,4 z"
       id="path112" />
    <path
       d="m 14220,9332 v -30 l 178,-4 c 149,-2 182,-6 205,-21 44,-28 61,-73 61,-157 0,-84 -17,-129 -61,-157 -23,-15 -56,-19 -205,-21 l -178,-4 v -30 -30 l 188,4 c 212,3 233,10 284,83 55,80 55,232 1,309 -52,74 -73,81 -285,84 l -188,4 z"
       id="path114" />
    <path
       d="m 2501,9309 c -49,-30 -69,-57 -87,-118 -32,-108 -1,-243 67,-294 61,-44 184,-24 224,37 18,28 35,26 35,-3 0,-11 8,-29 18,-41 26,-32 64,-21 86,24 18,38 21,86 6,86 -5,0 -10,-8 -10,-18 0,-47 -52,-56 -75,-12 -20,39 -20,46 15,196 16,71 30,135 30,142 0,7 -14,12 -39,12 h -39 l -12,-66 -13,-67 -25,53 c -40,85 -111,112 -181,69 z m 123,-32 c 13,-13 33,-50 45,-82 24,-63 23,-84 -5,-182 -32,-114 -109,-150 -151,-69 -21,41 -30,199 -14,263 22,87 77,118 125,70 z"
       id="path116" />
    <path
       d="m 12361,9309 c -49,-30 -69,-57 -87,-118 -32,-108 -1,-243 67,-294 61,-44 184,-24 224,37 18,28 35,26 35,-3 0,-11 8,-29 18,-41 26,-32 64,-21 86,24 18,38 21,86 6,86 -5,0 -10,-8 -10,-18 0,-47 -52,-56 -75,-12 -20,39 -20,46 15,196 16,71 30,135 30,142 0,7 -14,12 -39,12 h -39 l -12,-66 -13,-67 -25,53 c -40,85 -111,112 -181,69 z m 123,-32 c 13,-13 33,-50 45,-82 24,-63 23,-84 -5,-182 -32,-114 -109,-150 -151,-69 -21,41 -30,199 -14,263 22,87 77,118 125,70 z"
       id="path118" />
    <path
       d="m 21631,9309 c -49,-30 -69,-57 -87,-118 -32,-108 -1,-243 67,-294 61,-44 184,-24 224,37 18,28 35,26 35,-3 0,-11 8,-29 18,-41 26,-32 64,-21 86,24 18,38 21,86 6,86 -5,0 -10,-8 -10,-18 0,-47 -52,-56 -75,-12 -20,39 -20,46 15,196 16,71 30,135 30,142 0,7 -14,12 -39,12 h -39 l -12,-66 -13,-67 -25,53 c -40,85 -111,112 -181,69 z m 123,-32 c 13,-13 33,-50 45,-82 24,-63 23,-84 -5,-182 -32,-114 -109,-150 -151,-69 -21,41 -30,199 -14,263 22,87 77,118 125,70 z"
       id="path120" />
    <path
       d="m 31251,9309 c -49,-30 -69,-57 -87,-118 -32,-108 -1,-243 67,-294 61,-44 184,-24 224,37 18,28 35,26 35,-3 0,-11 8,-29 18,-41 26,-32 64,-21 86,24 18,38 21,86 6,86 -5,0 -10,-8 -10,-18 0,-47 -52,-56 -75,-12 -20,39 -20,46 15,196 16,71 30,135 30,142 0,7 -14,12 -39,12 h -39 l -12,-66 -13,-67 -25,53 c -40,85 -111,112 -181,69 z m 123,-32 c 13,-13 33,-50 45,-82 24,-63 23,-84 -5,-182 -32,-114 -109,-150 -151,-69 -21,41 -30,199 -14,263 22,87 77,118 125,70 z"
       id="path122" />
    <path
       d="m 16480,9100 v -40 h 120 120 v 40 40 h -120 -120 z"
       id="path124" />
    <path
       d="m 33130,9100 v -40 h 120 120 v 40 40 h -120 -120 z"
       id="path126" />
    <path
       d="m 2950,8960 c -41,-41 -8,-98 49,-85 30,6 31,5 31,-25 0,-32 -38,-79 -85,-106 -11,-7 -17,-15 -13,-19 12,-12 98,45 119,78 29,48 26,117 -7,151 -32,31 -67,33 -94,6 z"
       id="path128" />
    <path
       d="m 6130,8960 c -41,-41 -8,-98 49,-85 30,6 31,5 31,-25 0,-32 -38,-79 -85,-106 -11,-7 -17,-15 -13,-19 12,-12 98,45 119,78 29,48 26,117 -7,151 -32,31 -67,33 -94,6 z"
       id="path130" />
    <path
       d="m 12810,8960 c -41,-41 -8,-98 49,-85 30,6 31,5 31,-25 0,-32 -38,-79 -85,-106 -11,-7 -17,-15 -13,-19 12,-12 98,45 119,78 29,48 26,117 -7,151 -32,31 -67,33 -94,6 z"
       id="path132" />
    <path
       d="m 15990,8960 c -41,-41 -8,-98 49,-85 30,6 31,5 31,-25 0,-32 -38,-79 -85,-106 -11,-7 -17,-15 -13,-19 12,-12 98,45 119,78 29,48 26,117 -7,151 -32,31 -67,33 -94,6 z"
       id="path134" />
    <path
       d="m 22080,8960 c -41,-41 -8,-98 49,-85 30,6 31,5 31,-25 0,-32 -38,-79 -85,-106 -11,-7 -17,-15 -13,-19 12,-12 98,45 119,78 29,48 26,117 -7,151 -32,31 -67,33 -94,6 z"
       id="path136" />
    <path
       d="m 23020,8960 c -41,-41 -8,-98 49,-85 30,6 31,5 31,-25 0,-32 -38,-79 -85,-106 -11,-7 -17,-15 -13,-19 12,-12 98,45 119,78 29,48 26,117 -7,151 -32,31 -67,33 -94,6 z"
       id="path138" />
    <path
       d="m 31700,8960 c -41,-41 -8,-98 49,-85 30,6 31,5 31,-25 0,-32 -38,-79 -85,-106 -11,-7 -17,-15 -13,-19 12,-12 98,45 119,78 29,48 26,117 -7,151 -32,31 -67,33 -94,6 z"
       id="path140" />
    <path
       d="m 32640,8960 c -41,-41 -8,-98 49,-85 30,6 31,5 31,-25 0,-32 -38,-79 -85,-106 -11,-7 -17,-15 -13,-19 12,-12 98,45 119,78 29,48 26,117 -7,151 -32,31 -67,33 -94,6 z"
       id="path142" />
    <path
       d="m 3941,8293 c -17,-26 -253,-401 -524,-833 -492,-781 -494,-785 -473,-802 11,-10 26,-18 31,-18 7,0 891,1396 1032,1630 l 22,36 -29,18 -30,17 z"
       id="path144" />
    <path
       d="m 5770,8322 c -17,-13 -20,-23 -14,-34 5,-8 301,-391 659,-851 l 649,-835 28,20 28,19 -87,114 c -430,558 -1229,1584 -1234,1584 -4,1 -17,-7 -29,-17 z"
       id="path146" />
    <path
       d="m 14478,7461 -3,-859 -75,84 c -158,176 -161,180 -150,154 53,-127 258,-572 264,-573 4,-1 22,32 41,73 18,41 78,176 134,300 l 101,225 -72,-80 c -40,-44 -94,-102 -120,-130 l -48,-50 v 858 857 h -35 -35 z"
       id="path148" />
    <path
       d="m 22738,7464 -3,-857 -109,122 c -60,67 -110,120 -112,118 -2,-2 55,-135 128,-296 72,-160 135,-288 139,-284 9,9 270,585 266,589 -1,1 -54,-56 -117,-127 l -115,-129 -3,860 -2,860 h -35 -35 z"
       id="path150" />
    <path
       d="m 32258,7460 -3,-860 -115,129 c -63,71 -116,128 -117,127 -5,-4 262,-595 268,-596 7,0 270,582 265,587 -2,2 -52,-51 -112,-118 l -109,-122 -3,857 -2,856 h -35 -35 z"
       id="path152" />
    <path
       d="m 2751,6589 c -23,-171 -41,-313 -38,-315 2,-2 124,75 271,173 148,98 264,178 259,180 -4,1 -75,-17 -158,-41 -82,-24 -152,-42 -153,-40 -2,1 4,16 14,33 18,30 18,31 -1,46 -29,21 -41,18 -63,-16 l -19,-31 -17,88 c -8,49 -21,122 -27,162 -7,39 -15,72 -18,72 -4,0 -26,-140 -50,-311 z"
       id="path154" />
    <path
       d="m 7196,6778 c -4,-68 -9,-142 -12,-166 l -6,-43 -27,31 -26,32 -24,-26 -24,-26 23,-25 c 13,-14 22,-26 19,-28 -2,-2 -74,9 -159,24 -85,16 -159,27 -163,26 -5,-1 121,-71 279,-155 158,-83 288,-151 289,-149 4,6 -151,627 -156,627 -3,0 -9,-55 -13,-122 z"
       id="path156" />
    <path
       d="m 1170,5718 c -85,-44 -84,-40 -90,-468 -3,-206 -9,-381 -13,-387 -6,-10 2,-13 31,-13 49,0 52,5 59,136 l 6,100 36,-18 c 50,-27 127,-20 179,15 76,50 114,176 78,260 -13,33 -78,97 -97,97 -6,0 3,13 20,29 52,49 66,121 35,187 -36,75 -159,106 -244,62 z m 131,-18 c 45,-25 63,-122 36,-200 -12,-34 -14,-35 -62,-35 -43,0 -50,-3 -50,-20 0,-17 7,-20 48,-21 54,-1 67,-13 92,-83 21,-62 19,-153 -4,-199 -32,-62 -105,-81 -168,-42 l -33,20 v 257 c 1,195 4,264 14,282 24,44 84,63 127,41 z"
       id="path158" />
    <path
       d="m 7610,5718 c -85,-44 -84,-40 -90,-468 -3,-206 -9,-381 -13,-387 -6,-10 2,-13 31,-13 49,0 52,5 59,136 l 6,100 36,-18 c 50,-27 127,-20 179,15 76,50 114,176 78,260 -13,33 -78,97 -97,97 -6,0 3,13 20,29 52,49 66,121 35,187 -36,75 -159,106 -244,62 z m 131,-18 c 45,-25 63,-122 36,-200 -12,-34 -14,-35 -62,-35 -43,0 -50,-3 -50,-20 0,-17 7,-20 48,-21 54,-1 67,-13 92,-83 21,-62 19,-153 -4,-199 -32,-62 -105,-81 -168,-42 l -33,20 v 257 c 1,195 4,264 14,282 24,44 84,63 127,41 z"
       id="path160" />
    <path
       d="m 13390,5718 c -85,-44 -84,-40 -90,-468 -3,-206 -9,-381 -13,-387 -6,-10 2,-13 31,-13 49,0 52,5 59,136 l 6,100 36,-18 c 50,-27 127,-20 179,15 76,50 114,176 78,260 -13,33 -78,97 -97,97 -6,0 3,13 20,29 52,49 66,121 35,187 -36,75 -159,106 -244,62 z m 131,-18 c 45,-25 63,-122 36,-200 -12,-34 -14,-35 -62,-35 -43,0 -50,-3 -50,-20 0,-17 7,-20 48,-21 54,-1 67,-13 92,-83 21,-62 19,-153 -4,-199 -32,-62 -105,-81 -168,-42 l -33,20 v 257 c 1,195 4,264 14,282 24,44 84,63 127,41 z"
       id="path162" />
    <path
       d="m 8715,5711 c -95,-25 -191,-114 -221,-204 -10,-29 -17,-82 -17,-122 0,-40 7,-93 17,-122 22,-66 93,-146 159,-179 27,-14 73,-44 100,-66 90,-70 249,-137 330,-138 35,0 15,16 -42,32 -59,18 -133,76 -160,126 -10,19 -7,23 33,41 58,25 125,93 157,156 21,43 24,64 24,155 0,90 -3,111 -23,148 -58,110 -152,173 -262,178 -36,2 -78,0 -95,-5 z m 155,-43 c 81,-41 121,-134 121,-287 1,-153 -39,-243 -126,-282 -79,-37 -159,-19 -214,47 -76,93 -92,315 -31,433 52,102 153,138 250,89 z"
       id="path164" />
    <path
       d="m 2048,5701 c 19,-5 39,-14 45,-20 17,-17 17,-575 0,-592 -6,-6 -26,-15 -45,-19 -21,-5 17,-8 107,-8 93,0 129,3 105,8 -54,13 -60,29 -60,166 v 123 l 68,-6 c 86,-7 143,9 186,52 57,57 66,160 18,224 -10,14 -39,37 -63,51 -42,24 -53,25 -219,27 -111,1 -163,-1 -142,-6 z m 265,-32 c 44,-23 66,-53 78,-105 27,-120 -56,-208 -168,-178 -22,6 -23,10 -23,144 0,101 3,140 13,143 23,10 78,7 100,-4 z"
       id="path166" />
    <path
       d="m 14268,5701 c 19,-5 39,-14 45,-20 9,-9 12,-94 12,-296 0,-202 -3,-287 -12,-296 -6,-6 -26,-15 -45,-19 -21,-5 17,-8 107,-8 93,0 129,3 105,8 -54,13 -60,29 -60,166 v 123 l 68,-6 c 86,-7 143,9 186,52 57,57 66,160 18,224 -10,14 -39,37 -63,51 -42,24 -53,25 -219,27 -111,1 -163,-1 -142,-6 z m 265,-32 c 44,-23 66,-53 78,-105 27,-120 -56,-208 -168,-178 -22,6 -23,10 -23,144 0,101 3,140 13,143 23,10 78,7 100,-4 z"
       id="path168" />
    <path
       d="m 23588,5701 c 19,-5 39,-14 45,-20 9,-9 12,-94 12,-296 0,-202 -3,-287 -12,-296 -6,-6 -26,-15 -45,-19 -21,-5 17,-8 107,-8 93,0 129,3 105,8 -54,13 -60,29 -60,166 v 123 l 68,-6 c 86,-7 143,9 186,52 57,57 66,160 18,224 -10,14 -39,37 -63,51 -42,24 -53,25 -219,27 -111,1 -163,-1 -142,-6 z m 265,-32 c 44,-23 66,-53 78,-105 27,-120 -56,-208 -168,-178 -22,6 -23,10 -23,144 0,101 3,140 13,143 23,10 78,7 100,-4 z"
       id="path170" />
    <path
       d="m 33118,5701 c 19,-5 39,-14 45,-20 9,-9 12,-94 12,-296 0,-202 -3,-287 -12,-296 -6,-6 -26,-15 -45,-19 -21,-5 17,-8 107,-8 93,0 129,3 105,8 -54,13 -60,29 -60,166 v 123 l 68,-6 c 86,-7 143,9 186,52 57,57 66,160 18,224 -10,14 -39,37 -63,51 -42,24 -53,25 -219,27 -111,1 -163,-1 -142,-6 z m 265,-32 c 44,-23 66,-53 78,-105 27,-120 -56,-208 -168,-178 -22,6 -23,10 -23,144 0,101 3,140 13,143 23,10 78,7 100,-4 z"
       id="path172" />
    <path
       d="m 22252,5628 c 2,-18 39,-38 221,-116 119,-52 217,-98 217,-101 0,-3 -98,-46 -216,-95 -203,-84 -231,-100 -222,-125 3,-12 495,209 498,223 1,7 -269,135 -478,226 -21,9 -23,8 -20,-12 z"
       id="path174" />
    <path
       d="m 6860,5515 v -115 h -115 c -108,0 -115,-1 -115,-20 0,-19 7,-20 115,-20 h 115 v -115 c 0,-108 1,-115 20,-115 19,0 20,7 20,115 v 115 h 120 c 113,0 120,1 120,20 0,19 -7,20 -120,20 h -120 v 115 c 0,108 -1,115 -20,115 -19,0 -20,-7 -20,-115 z"
       id="path176" />
    <path
       d="m 9890,5515 v -115 h -115 c -108,0 -115,-1 -115,-20 0,-19 7,-20 115,-20 h 115 v -115 c 0,-108 1,-115 20,-115 19,0 20,7 20,115 v 115 h 120 c 113,0 120,1 120,20 0,19 -7,20 -120,20 h -120 v 115 c 0,108 -1,115 -20,115 -19,0 -20,-7 -20,-115 z"
       id="path178" />
    <path
       d="m 15410,5515 v -115 h -115 c -108,0 -115,-1 -115,-20 0,-19 7,-20 115,-20 h 115 v -115 c 0,-108 1,-115 20,-115 19,0 20,7 20,115 v 115 h 120 c 113,0 120,1 120,20 0,19 -7,20 -120,20 h -120 v 115 c 0,108 -1,115 -20,115 -19,0 -20,-7 -20,-115 z"
       id="path180" />
    <path
       d="m 31997,5507 c -136,-62 -248,-116 -248,-122 -1,-5 104,-57 233,-115 291,-132 268,-123 268,-101 0,14 -49,40 -217,116 -120,54 -219,99 -221,100 -1,1 93,44 210,95 117,51 217,97 221,101 5,4 7,14 5,23 -2,12 -55,-8 -251,-97 z"
       id="path182" />
    <path
       d="m 5971,5489 c -49,-30 -69,-57 -87,-118 -32,-108 -1,-243 67,-294 61,-44 184,-24 224,37 18,28 35,26 35,-3 0,-11 8,-29 18,-41 26,-32 64,-21 86,24 18,38 21,86 6,86 -5,0 -10,-8 -10,-18 0,-47 -52,-56 -75,-12 -20,39 -20,46 15,196 16,71 30,135 30,142 0,7 -14,12 -39,12 h -39 l -12,-66 -13,-67 -25,53 c -40,85 -111,112 -181,69 z m 123,-32 c 13,-13 33,-50 45,-82 24,-63 23,-84 -5,-182 -32,-114 -109,-150 -151,-69 -21,41 -30,199 -14,263 22,87 77,118 125,70 z"
       id="path184" />
    <path
       d="m 21601,5489 c -49,-30 -69,-57 -87,-118 -32,-108 -1,-243 67,-294 61,-44 184,-24 224,37 18,28 35,26 35,-3 0,-11 8,-29 18,-41 26,-32 64,-21 86,24 18,38 21,86 6,86 -5,0 -10,-8 -10,-18 0,-47 -52,-56 -75,-12 -20,39 -20,46 15,196 16,71 30,135 30,142 0,7 -14,12 -39,12 h -39 l -12,-66 -13,-67 -25,53 c -40,85 -111,112 -181,69 z m 123,-32 c 13,-13 33,-50 45,-82 24,-63 23,-84 -5,-182 -32,-114 -109,-150 -151,-69 -21,41 -30,199 -14,263 22,87 77,118 125,70 z"
       id="path186" />
    <path
       d="m 31081,5489 c -49,-30 -69,-57 -87,-118 -32,-108 -1,-243 67,-294 61,-44 184,-24 224,37 18,28 35,26 35,-3 0,-11 8,-29 18,-41 26,-32 64,-21 86,24 18,38 21,86 6,86 -5,0 -10,-8 -10,-18 0,-47 -52,-56 -75,-12 -20,39 -20,46 15,196 16,71 30,135 30,142 0,7 -14,12 -39,12 h -39 l -12,-66 -13,-67 -25,53 c -40,85 -111,112 -181,69 z m 123,-32 c 13,-13 33,-50 45,-82 24,-63 23,-84 -5,-182 -32,-114 -109,-150 -151,-69 -21,41 -30,199 -14,263 22,87 77,118 125,70 z"
       id="path188" />
    <path
       d="m 23096,5238 c -2,-145 -8,-284 -11,-311 -10,-71 28,-103 70,-57 17,18 17,23 1,84 -9,36 -16,79 -16,95 0,29 0,30 28,15 50,-26 83,-18 153,37 42,33 49,35 49,14 0,-27 47,-65 79,-65 36,0 78,35 87,73 8,36 -9,35 -23,-3 -15,-39 -49,-41 -63,-4 -6,14 -10,106 -10,205 v 179 h -40 -40 l -2,-172 -3,-172 -40,-23 c -52,-29 -80,-29 -110,2 -25,24 -25,27 -25,195 v 170 h -39 -40 z"
       id="path190" />
    <path
       d="m 32626,5238 c -2,-145 -8,-284 -11,-311 -10,-71 28,-103 70,-57 17,18 17,23 1,84 -9,36 -16,79 -16,95 0,29 0,30 28,15 50,-26 83,-18 153,37 42,33 49,35 49,14 0,-27 47,-65 79,-65 36,0 78,35 87,73 8,36 -9,35 -23,-3 -15,-39 -49,-41 -63,-4 -6,14 -10,106 -10,205 v 179 h -40 -40 l -2,-172 -3,-172 -40,-23 c -52,-29 -80,-29 -110,2 -25,24 -25,27 -25,195 v 170 h -39 -40 z"
       id="path192" />
    <path
       d="m 2970,5280 v -40 h 120 120 v 40 40 h -120 -120 z"
       id="path194" />
    <path
       d="m 1550,5140 c -41,-41 -8,-98 49,-85 30,6 31,5 31,-25 0,-32 -38,-79 -85,-106 -11,-7 -17,-15 -13,-19 12,-12 98,45 119,78 29,48 26,117 -7,151 -32,31 -67,33 -94,6 z"
       id="path196" />
    <path
       d="m 2480,5140 c -41,-41 -8,-98 49,-85 30,6 31,5 31,-25 0,-32 -38,-79 -85,-106 -11,-7 -17,-15 -13,-19 12,-12 98,45 119,78 29,48 26,117 -7,151 -32,31 -67,33 -94,6 z"
       id="path198" />
    <path
       d="m 7990,5140 c -41,-41 -8,-98 49,-85 30,6 31,5 31,-25 0,-32 -38,-79 -85,-106 -11,-7 -17,-15 -13,-19 12,-12 98,45 119,78 29,48 26,117 -7,151 -32,31 -67,33 -94,6 z"
       id="path200" />
    <path
       d="m 9180,5140 c -41,-41 -8,-98 49,-85 30,6 31,5 31,-25 0,-32 -38,-79 -85,-106 -11,-7 -17,-15 -13,-19 12,-12 98,45 119,78 29,48 26,117 -7,151 -32,31 -67,33 -94,6 z"
       id="path202" />
    <path
       d="m 13770,5140 c -41,-41 -8,-98 49,-85 30,6 31,5 31,-25 0,-32 -38,-79 -85,-106 -11,-7 -17,-15 -13,-19 12,-12 98,45 119,78 29,48 26,117 -7,151 -32,31 -67,33 -94,6 z"
       id="path204" />
    <path
       d="m 14700,5140 c -41,-41 -8,-98 49,-85 30,6 31,5 31,-25 0,-32 -38,-79 -85,-106 -11,-7 -17,-15 -13,-19 12,-12 98,45 119,78 29,48 26,117 -7,151 -32,31 -67,33 -94,6 z"
       id="path206" />
    <path
       d="m 22250,5010 c 0,-19 7,-20 255,-20 248,0 255,1 255,20 0,19 -7,20 -255,20 -248,0 -255,-1 -255,-20 z"
       id="path208" />
    <path
       d="m 14480,3485 v -815 h 35 35 v 815 815 h -35 -35 z"
       id="path210" />
    <path
       d="m 14253,2810 c 19,-45 257,-573 260,-577 2,-1 17,30 34,70 18,40 79,178 137,307 l 106,235 -72,-80 c -40,-44 -94,-102 -120,-130 l -48,-50 v 38 c 0,36 -1,37 -34,37 -33,0 -35,-2 -38,-40 l -3,-39 -85,95 c -47,52 -100,111 -118,132 l -33,37 z"
       id="path212" />
    <path
       d="m 14210,1688 c -85,-44 -84,-40 -90,-468 -3,-206 -9,-381 -13,-387 -6,-10 2,-13 31,-13 49,0 52,5 59,136 l 6,100 36,-18 c 50,-27 127,-20 179,15 76,50 114,176 78,260 -13,33 -78,97 -97,97 -6,0 3,13 20,29 52,49 66,121 35,187 -36,75 -159,106 -244,62 z m 131,-18 c 45,-25 63,-122 36,-200 -12,-34 -14,-35 -62,-35 -43,0 -50,-3 -50,-20 0,-17 7,-20 48,-21 54,-1 67,-13 92,-83 21,-62 19,-153 -4,-199 -32,-62 -105,-81 -168,-42 l -33,20 v 257 c 1,195 4,264 14,282 24,44 84,63 127,41 z"
       id="path214" />
    <path
       d="m 15305,1681 c -95,-25 -191,-114 -221,-204 -10,-29 -17,-82 -17,-122 0,-40 7,-93 17,-122 22,-66 93,-146 159,-179 27,-14 73,-44 100,-66 90,-70 249,-137 330,-138 35,0 15,16 -42,32 -59,18 -133,76 -160,126 -10,19 -7,23 33,41 58,25 125,93 157,156 21,43 24,64 24,155 0,90 -3,111 -23,148 -58,110 -152,173 -262,178 -36,2 -78,0 -95,-5 z m 155,-43 c 81,-41 121,-134 121,-287 1,-153 -39,-243 -126,-282 -79,-37 -159,-19 -214,47 -76,93 -92,315 -31,433 52,102 153,138 250,89 z"
       id="path216" />
    <path
       d="m 13460,1485 v -115 h -115 c -108,0 -115,-1 -115,-20 0,-19 7,-20 115,-20 h 115 v -115 c 0,-108 1,-115 20,-115 19,0 20,7 20,115 v 115 h 120 c 113,0 120,1 120,20 0,19 -7,20 -120,20 h -120 v 115 c 0,108 -1,115 -20,115 -19,0 -20,-7 -20,-115 z"
       id="path218" />
    <path
       d="m 12571,1459 c -49,-30 -69,-57 -87,-118 -32,-108 -1,-243 67,-294 61,-44 184,-24 224,37 18,28 35,26 35,-3 0,-11 8,-29 18,-41 26,-32 64,-21 86,24 18,38 21,86 6,86 -5,0 -10,-8 -10,-18 0,-47 -52,-56 -75,-12 -20,39 -20,46 15,196 16,71 30,135 30,142 0,7 -14,12 -39,12 h -39 l -12,-66 -13,-67 -25,53 c -40,85 -111,112 -181,69 z m 123,-32 c 13,-13 33,-50 45,-82 24,-63 23,-84 -5,-182 -32,-114 -109,-150 -151,-69 -21,41 -30,199 -14,263 22,87 77,118 125,70 z"
       id="path220" />
    <path
       d="m 16270,1250 v -40 h 120 120 v 40 40 h -120 -120 z"
       id="path222" />
    <path
       d="m 14580,1110 c -41,-41 -8,-98 49,-85 30,6 31,5 31,-25 0,-32 -38,-79 -85,-106 -11,-7 -17,-15 -13,-19 12,-12 98,45 119,78 29,48 26,117 -7,151 -32,31 -67,33 -94,6 z"
       id="path224" />
    <path
       d="m 15780,1110 c -41,-41 -8,-98 49,-85 30,6 31,5 31,-25 0,-32 -38,-79 -85,-106 -11,-7 -17,-15 -13,-19 12,-12 98,45 119,78 29,48 26,117 -7,151 -32,31 -67,33 -94,6 z"
       id="path226" />
  </g>
</svg>
