<?xml version="1.0" encoding="UTF-8" standalone="no"?>
<svg
   version="1.0"
   width="617.76459pt"
   height="575.14764pt"
   viewBox="0 0 617.76459 575.14764"
   preserveAspectRatio="xMidYMid meet"
   id="svg58"
   xmlns="http://www.w3.org/2000/svg"
   xmlns:svg="http://www.w3.org/2000/svg">
  <defs
     id="defs62" />
  <metadata
     id="metadata2">
Created by potrace 1.16, written by Peter Selinger 2001-2019
</metadata>
  <g
     transform="matrix(0.1,0,0,-0.1,-87.235397,657)"
     fill="#000000"
     stroke="none"
     id="g56">
    <path
       d="m 2030,6548 c -56,-21 -96,-47 -52,-33 50,15 52,5 52,-299 0,-154 -4,-286 -8,-293 -4,-7 -19,-16 -32,-22 -19,-7 3,-10 85,-9 61,0 101,3 90,5 -11,3 -28,12 -37,21 -16,14 -18,43 -18,334 0,248 -3,318 -12,317 -7,0 -38,-9 -68,-21 z"
       id="path4" />
    <path
       d="m 4392,6549 c -54,-27 -91,-88 -99,-164 l -6,-55 h -38 c -28,0 -39,-4 -39,-15 0,-11 11,-15 40,-15 h 40 v -178 c 0,-194 -3,-206 -55,-221 -21,-7 10,-9 105,-9 89,0 122,3 96,8 -63,12 -66,22 -66,222 v 178 h 55 c 42,0 55,3 55,15 0,12 -13,15 -56,15 h -56 l 3,84 c 6,134 52,163 127,81 43,-48 62,-54 82,-29 33,39 -36,104 -110,104 -19,0 -54,-10 -78,-21 z"
       id="path6" />
    <path
       d="m 5000,6548 c -56,-21 -96,-47 -52,-33 50,15 52,5 52,-299 0,-154 -4,-286 -8,-293 -4,-7 -19,-16 -32,-22 -19,-7 3,-10 85,-9 61,0 101,3 90,5 -11,3 -28,12 -37,21 -16,14 -18,43 -18,334 0,248 -3,318 -12,317 -7,0 -38,-9 -68,-21 z"
       id="path8" />
    <path
       d="m 4099,6532 c -92,-59 -173,-182 -198,-300 -31,-150 10,-320 105,-430 37,-44 134,-116 143,-106 3,2 -18,28 -46,57 -66,67 -89,116 -108,223 -18,106 -19,205 -1,305 19,106 48,166 108,222 28,26 49,50 46,52 -2,3 -24,-8 -49,-23 z"
       id="path10" />
    <path
       d="m 6790,6555 c 0,-3 22,-28 49,-54 27,-26 58,-65 69,-87 31,-61 52,-182 52,-296 0,-183 -40,-301 -125,-375 -25,-23 -45,-44 -45,-47 0,-17 85,43 130,90 87,92 130,203 130,340 0,132 -44,247 -130,338 -44,47 -130,107 -130,91 z"
       id="path12" />
    <path
       d="m 3042,6542 c -41,-12 -94,-64 -118,-116 -69,-148 17,-309 156,-293 27,3 63,13 79,22 28,14 31,14 31,0 0,-25 -57,-131 -91,-170 -45,-50 -79,-73 -140,-90 l -54,-15 57,4 c 31,2 77,14 103,25 68,30 160,123 198,200 30,62 32,73 32,171 0,118 -14,157 -77,217 -51,49 -109,64 -176,45 z m 96,-38 c 44,-30 65,-91 70,-196 l 4,-98 -43,-20 c -53,-24 -87,-25 -117,-4 -53,37 -85,160 -63,241 21,76 95,115 149,77 z"
       id="path14" />
    <path
       d="m 878,6530 c 19,-4 39,-13 45,-19 17,-17 17,-575 0,-592 -6,-6 -26,-15 -45,-19 -21,-5 17,-8 107,-8 93,0 129,3 105,8 -54,13 -60,29 -60,167 v 123 h 33 c 32,0 40,-8 142,-150 l 109,-150 h 91 l 90,1 -48,19 c -27,10 -54,23 -61,30 -18,14 -186,256 -186,266 0,5 20,17 45,28 115,47 138,187 43,259 -49,38 -104,47 -283,46 -102,-1 -148,-4 -127,-9 z m 292,-38 c 66,-32 91,-133 50,-200 -25,-40 -89,-71 -147,-72 h -43 v 135 c 0,131 1,136 23,145 35,14 79,11 117,-8 z"
       id="path16" />
    <path
       d="m 2340,6318 c -25,-13 -57,-41 -74,-65 -25,-36 -30,-54 -34,-121 -5,-93 7,-139 51,-189 56,-64 134,-80 207,-43 44,23 86,78 96,128 8,40 -1,41 -21,2 -32,-61 -113,-87 -173,-56 -54,28 -82,71 -96,149 l -7,37 h 152 152 l -6,42 c -15,112 -140,171 -247,116 z m 121,-37 c 19,-20 29,-40 29,-60 v -31 h -99 -100 l 10,33 c 5,17 22,44 39,60 41,37 83,36 121,-2 z"
       id="path18" />
    <path
       d="m 3436,6327 c -38,-28 -13,-97 34,-97 22,0 50,32 50,57 0,23 -29,53 -51,53 -9,0 -23,-6 -33,-13 z"
       id="path20" />
    <path
       d="m 4603,6320 c -54,-24 -83,-76 -65,-115 23,-50 72,-25 72,36 0,43 27,69 70,69 38,0 60,-20 70,-65 14,-61 15,-60 -57,-90 -76,-32 -132,-64 -151,-88 -39,-47 -31,-130 16,-168 38,-29 98,-22 150,20 22,17 42,31 45,31 2,0 7,-13 10,-30 11,-52 80,-48 131,9 23,26 16,37 -14,21 -39,-21 -45,-1 -48,163 -1,86 -7,162 -14,174 -25,50 -140,68 -215,33 z m 157,-249 c 0,-74 -2,-81 -26,-100 -57,-44 -107,-39 -130,14 -16,40 -8,69 27,101 21,19 102,61 122,63 4,1 7,-35 7,-78 z"
       id="path22" />
    <path
       d="m 5274,6324 c -39,-19 -64,-62 -64,-111 0,-54 19,-75 107,-123 89,-47 113,-70 113,-111 0,-96 -147,-88 -188,11 -10,22 -20,40 -24,40 -5,0 -8,-34 -8,-75 0,-41 4,-75 9,-75 5,0 11,5 13,12 3,9 15,9 50,0 67,-17 103,-15 148,8 45,23 70,63 70,112 0,57 -29,89 -130,143 -74,40 -96,56 -103,79 -9,26 -6,33 17,53 53,45 135,16 157,-57 7,-22 16,-40 21,-40 4,0 8,34 8,75 0,41 -4,75 -9,75 -5,0 -11,-5 -13,-12 -4,-10 -13,-10 -45,0 -53,16 -91,15 -129,-4 z"
       id="path24" />
    <path
       d="m 6070,6318 c -61,-23 -91,-43 -48,-33 20,5 29,2 37,-13 13,-24 15,-330 3,-349 -4,-7 -19,-16 -32,-22 -19,-7 3,-10 85,-10 78,1 102,3 81,9 -16,5 -33,15 -37,22 -5,7 -9,79 -9,160 v 147 l 43,26 c 53,30 90,32 117,5 19,-19 20,-31 18,-183 l -3,-162 -35,-12 c -31,-10 -21,-12 80,-11 63,0 105,3 93,5 -45,9 -53,37 -53,183 0,129 1,138 23,157 51,47 100,55 138,24 23,-18 24,-26 27,-165 5,-159 -3,-190 -50,-199 -13,-2 27,-5 87,-5 100,-1 107,0 79,12 -38,17 -44,49 -44,231 0,110 -2,125 -22,155 -44,65 -122,64 -192,0 l -43,-40 -24,37 c -45,68 -121,69 -195,1 l -44,-41 v 47 c 0,53 -2,54 -80,24 z"
       id="path26" />
    <path
       d="m 1490,6317 35,-12 6,-165 c 4,-91 11,-177 17,-191 15,-38 59,-69 97,-69 33,0 96,36 128,72 17,20 17,19 17,-26 0,-54 4,-55 81,-24 62,24 88,43 47,33 -43,-11 -48,14 -48,214 v 181 l -77,-1 c -74,0 -76,-1 -43,-12 l 35,-12 3,-157 3,-157 -44,-25 c -52,-31 -77,-32 -108,-7 -23,19 -24,24 -27,195 l -4,176 -76,-1 c -73,0 -75,-1 -42,-12 z"
       id="path28" />
    <path
       d="m 5550,6317 35,-12 6,-165 c 4,-91 11,-177 17,-191 15,-38 59,-69 97,-69 33,0 96,36 128,72 17,20 17,19 17,-26 0,-54 4,-55 81,-24 62,24 88,43 47,33 -43,-11 -48,14 -48,214 v 181 l -77,-1 c -74,0 -76,-1 -43,-12 l 35,-12 3,-157 3,-157 -44,-25 c -52,-31 -77,-32 -108,-7 -23,19 -24,24 -27,195 l -4,176 -76,-1 c -73,0 -75,-1 -42,-12 z"
       id="path30" />
    <path
       d="m 3423,5964 c -15,-24 -15,-29 -2,-53 18,-32 54,-39 80,-15 24,22 24,56 1,77 -27,25 -59,21 -79,-9 z"
       id="path32" />
    <path
       d="m 3930,5170 v -260 h -130 -130 v -30 -30 h 290 290 v 30 30 h -130 -130 v 260 260 h -30 -30 z"
       id="path34" />
    <path
       d="m 5220,5305 v -115 h -120 c -113,0 -120,-1 -120,-20 0,-19 7,-20 120,-20 h 120 v -95 -95 h -120 c -113,0 -120,-1 -120,-20 0,-19 7,-20 255,-20 248,0 255,1 255,20 0,19 -7,20 -115,20 h -115 v 95 95 h 115 c 108,0 115,1 115,20 0,19 -7,20 -115,20 h -115 v 115 c 0,108 -1,115 -20,115 -19,0 -20,-7 -20,-115 z"
       id="path36" />
    <path
       d="m 2571,5279 c -49,-30 -69,-57 -87,-118 -32,-108 -1,-243 67,-294 61,-44 184,-24 224,37 18,28 35,26 35,-3 0,-11 8,-29 18,-41 26,-32 64,-21 86,24 18,38 21,86 6,86 -5,0 -10,-8 -10,-18 0,-47 -52,-56 -75,-12 -20,39 -20,46 15,196 16,71 30,135 30,142 0,7 -14,12 -39,12 h -39 l -12,-66 -13,-67 -25,53 c -40,85 -111,112 -181,69 z m 123,-32 c 13,-13 33,-50 45,-82 24,-63 23,-84 -5,-182 -32,-114 -109,-150 -151,-69 -21,41 -30,199 -14,263 22,87 77,118 125,70 z"
       id="path38" />
    <path
       d="m 3020,4930 c -41,-41 -8,-98 49,-85 30,6 31,5 31,-25 0,-32 -38,-79 -85,-106 -11,-7 -17,-15 -13,-19 12,-12 98,45 119,78 29,48 26,117 -7,151 -32,31 -67,33 -94,6 z"
       id="path40" />
    <path
       d="m 4530,4930 c -41,-41 -8,-98 49,-85 30,6 31,5 31,-25 0,-32 -38,-79 -85,-106 -11,-7 -17,-15 -13,-19 12,-12 98,45 119,78 29,48 26,117 -7,151 -32,31 -67,33 -94,6 z"
       id="path42" />
    <path
       d="m 3958,3430 -3,-859 -85,95 c -47,52 -100,111 -118,132 l -33,37 14,-35 c 32,-79 249,-556 256,-563 4,-4 67,124 139,284 73,161 131,294 129,296 -2,2 -53,-52 -113,-119 l -109,-122 -3,857 -2,857 h -35 -35 z"
       id="path44" />
    <path
       d="m 3475,1510 c -137,-60 -250,-114 -250,-120 0,-15 499,-241 503,-229 9,25 -21,42 -222,130 -119,52 -216,96 -216,99 0,3 97,45 216,94 201,84 231,100 222,125 -1,5 -115,-40 -253,-99 z"
       id="path46" />
    <path
       d="m 4970,1350 v -260 h -130 -130 v -30 -30 h 290 290 v 30 30 h -130 -130 v 260 260 h -30 -30 z"
       id="path48" />
    <path
       d="m 2571,1459 c -49,-30 -69,-57 -87,-118 -32,-108 -1,-243 67,-294 61,-44 184,-24 224,37 18,28 35,26 35,-3 0,-11 8,-29 18,-41 26,-32 64,-21 86,24 18,38 21,86 6,86 -5,0 -10,-8 -10,-18 0,-47 -52,-56 -75,-12 -20,39 -20,46 15,196 16,71 30,135 30,142 0,7 -14,12 -39,12 h -39 l -12,-66 -13,-67 -25,53 c -40,85 -111,112 -181,69 z m 123,-32 c 13,-13 33,-50 45,-82 24,-63 23,-84 -5,-182 -32,-114 -109,-150 -151,-69 -21,41 -30,199 -14,263 22,87 77,118 125,70 z"
       id="path50" />
    <path
       d="m 4066,1208 c -2,-145 -8,-284 -11,-311 -10,-71 28,-103 70,-57 17,18 17,23 1,84 -9,36 -16,79 -16,95 0,29 0,30 28,15 50,-26 83,-18 153,37 42,33 49,35 49,14 0,-27 47,-65 79,-65 36,0 78,35 87,73 8,36 -9,35 -23,-3 -15,-39 -49,-41 -63,-4 -6,14 -10,106 -10,205 v 179 h -40 -40 l -2,-172 -3,-172 -40,-23 c -52,-29 -80,-29 -110,2 -25,24 -25,27 -25,195 v 170 h -39 -40 z"
       id="path52" />
    <path
       d="m 3220,980 c 0,-19 7,-20 255,-20 248,0 255,1 255,20 0,19 -7,20 -255,20 -248,0 -255,-1 -255,-20 z"
       id="path54" />
  </g>
</svg>
