<?xml version="1.0" encoding="UTF-8" standalone="no"?>
<svg
   version="1.0"
   width="2862.8655pt"
   height="571.90106pt"
   viewBox="0 0 2862.8655 571.90106"
   preserveAspectRatio="xMidYMid meet"
   id="svg214"
   xmlns="http://www.w3.org/2000/svg"
   xmlns:svg="http://www.w3.org/2000/svg">
  <defs
     id="defs218" />
  <metadata
     id="metadata2">
Created by potrace 1.16, written by Peter Selinger 2001-2019
</metadata>
  <g
     transform="matrix(0.1,0,0,-0.1,-87.134613,656.90105)"
     fill="#000000"
     stroke="none"
     id="g212">
    <path
       d="m 2240,6548 c -56,-21 -96,-47 -52,-33 50,15 52,5 52,-299 0,-154 -4,-286 -8,-293 -4,-7 -19,-16 -32,-22 -19,-7 3,-10 85,-9 61,0 101,3 90,5 -11,3 -28,12 -37,21 -16,14 -18,43 -18,334 0,248 -3,318 -12,317 -7,0 -38,-9 -68,-21 z"
       id="path4" />
    <path
       d="m 9460,6548 c -56,-21 -96,-47 -52,-33 50,15 52,5 52,-299 0,-154 -4,-286 -8,-293 -4,-7 -19,-16 -32,-22 -19,-7 3,-10 85,-9 61,0 101,3 90,5 -11,3 -28,12 -37,21 -16,14 -18,43 -18,334 0,248 -3,318 -12,317 -7,0 -38,-9 -68,-21 z"
       id="path6" />
    <path
       d="m 17790,6548 c -56,-21 -96,-47 -52,-33 50,15 52,5 52,-299 0,-154 -4,-286 -8,-293 -4,-7 -19,-16 -32,-22 -19,-7 3,-10 85,-9 61,0 101,3 90,5 -11,3 -28,12 -37,21 -16,14 -18,43 -18,334 0,248 -3,318 -12,317 -7,0 -38,-9 -68,-21 z"
       id="path8" />
    <path
       d="m 26120,6548 c -56,-21 -96,-47 -52,-33 50,15 52,5 52,-299 0,-154 -4,-286 -8,-293 -4,-7 -19,-16 -32,-22 -19,-7 3,-10 85,-9 61,0 101,3 90,5 -11,3 -28,12 -37,21 -16,14 -18,43 -18,334 0,248 -3,318 -12,317 -7,0 -38,-9 -68,-21 z"
       id="path10" />
    <path
       d="m 3263,6517 c -40,-18 -73,-34 -73,-37 0,-4 16,-4 35,-2 30,4 36,1 45,-23 6,-15 10,-129 10,-269 0,-263 -1,-269 -55,-285 -21,-7 6,-9 95,-9 75,0 113,3 94,7 -17,4 -36,11 -42,15 -9,5 -12,93 -12,322 0,245 -3,314 -12,313 -7,0 -46,-15 -85,-32 z"
       id="path12" />
    <path
       d="m 3722,6534 c -91,-47 -142,-162 -142,-323 0,-114 15,-174 62,-242 96,-142 251,-106 320,73 26,68 34,196 18,281 -31,165 -153,265 -258,211 z m 99,-24 c 57,-31 89,-198 72,-379 -13,-133 -36,-192 -83,-211 -63,-26 -109,25 -131,146 -13,70 -6,289 12,352 22,79 79,119 130,92 z"
       id="path14" />
    <path
       d="m 10493,6517 c -40,-18 -73,-34 -73,-37 0,-4 16,-4 35,-2 30,4 36,1 45,-23 6,-15 10,-129 10,-269 0,-263 -1,-269 -55,-285 -21,-7 6,-9 95,-9 75,0 113,3 94,7 -17,4 -36,11 -42,15 -9,5 -12,93 -12,322 0,245 -3,314 -12,313 -7,0 -46,-15 -85,-32 z"
       id="path16" />
    <path
       d="m 10943,6517 c -40,-18 -73,-34 -73,-37 0,-4 16,-4 35,-2 30,4 36,1 45,-23 6,-15 10,-129 10,-269 0,-263 -1,-269 -55,-285 -21,-7 6,-9 95,-9 75,0 113,3 94,7 -17,4 -36,11 -42,15 -9,5 -12,93 -12,322 0,245 -3,314 -12,313 -7,0 -46,-15 -85,-32 z"
       id="path18" />
    <path
       d="m 18823,6517 c -40,-18 -73,-34 -73,-37 0,-4 16,-4 35,-2 30,4 36,1 45,-23 6,-15 10,-129 10,-269 0,-263 -1,-269 -55,-285 -21,-7 6,-9 95,-9 75,0 113,3 94,7 -17,4 -36,11 -42,15 -9,5 -12,93 -12,322 0,245 -3,314 -12,313 -7,0 -46,-15 -85,-32 z"
       id="path20" />
    <path
       d="m 19244,6531 c -44,-20 -74,-56 -92,-110 -22,-64 -8,-71 25,-12 36,63 112,88 174,56 45,-24 69,-70 69,-136 0,-89 -43,-160 -182,-305 -65,-67 -118,-124 -118,-128 0,-4 86,-5 192,-4 l 191,3 19,54 c 10,30 16,56 14,59 -2,2 -14,-6 -25,-17 -29,-29 -51,-32 -176,-29 l -110,3 97,102 c 53,57 112,129 132,162 79,130 61,248 -47,300 -53,26 -109,26 -163,2 z"
       id="path22" />
    <path
       d="m 27153,6517 c -40,-18 -73,-34 -73,-37 0,-4 16,-4 35,-2 30,4 36,1 45,-23 6,-15 10,-129 10,-269 0,-263 -1,-269 -55,-285 -21,-7 6,-9 95,-9 75,0 113,3 94,7 -17,4 -36,11 -42,15 -9,5 -12,93 -12,322 0,245 -3,314 -12,313 -7,0 -46,-15 -85,-32 z"
       id="path24" />
    <path
       d="m 27590,6539 c -35,-14 -69,-48 -91,-91 -21,-41 -10,-52 15,-17 70,101 205,65 206,-55 0,-67 -28,-108 -93,-140 -41,-20 -47,-25 -27,-26 14,0 48,-11 76,-24 59,-27 84,-69 84,-138 -1,-52 -16,-83 -56,-109 -37,-24 -74,-24 -134,2 -54,23 -78,22 -94,-3 -8,-14 -7,-22 7,-35 14,-14 35,-18 100,-18 102,0 166,28 212,94 25,36 30,53 33,114 4,84 -15,124 -74,159 l -35,21 24,26 c 58,61 72,132 38,187 -33,54 -124,80 -191,53 z"
       id="path26" />
    <path
       d="m 1088,6530 c 19,-4 39,-13 45,-19 17,-17 17,-575 0,-592 -6,-6 -26,-15 -45,-19 -21,-5 17,-8 107,-8 93,0 129,3 105,8 -54,13 -60,29 -60,167 v 123 h 33 c 32,0 40,-8 142,-150 l 109,-150 h 91 l 90,1 -48,19 c -27,10 -54,23 -61,30 -18,14 -186,256 -186,266 0,5 20,17 45,28 115,47 138,187 43,259 -49,38 -104,47 -283,46 -102,-1 -148,-4 -127,-9 z m 292,-38 c 66,-32 91,-133 50,-200 -25,-40 -89,-71 -147,-72 h -43 v 135 c 0,131 1,136 23,145 35,14 79,11 117,-8 z"
       id="path28" />
    <path
       d="m 8308,6530 c 19,-4 39,-13 45,-19 17,-17 17,-575 0,-592 -6,-6 -26,-15 -45,-19 -21,-5 17,-8 107,-8 93,0 129,3 105,8 -54,13 -60,29 -60,167 v 123 h 33 c 32,0 40,-8 142,-150 l 109,-150 h 91 l 90,1 -48,19 c -27,10 -54,23 -61,30 -18,14 -186,256 -186,266 0,5 20,17 45,28 115,47 138,187 43,259 -49,38 -104,47 -283,46 -102,-1 -148,-4 -127,-9 z m 292,-38 c 66,-32 91,-133 50,-200 -25,-40 -89,-71 -147,-72 h -43 v 135 c 0,131 1,136 23,145 35,14 79,11 117,-8 z"
       id="path30" />
    <path
       d="m 16648,6530 c 19,-4 39,-13 45,-19 9,-9 12,-94 12,-296 0,-202 -3,-287 -12,-296 -6,-6 -26,-15 -45,-19 -21,-5 17,-8 107,-8 93,0 129,3 105,8 -54,13 -60,29 -60,167 v 123 h 33 c 32,0 40,-8 142,-150 l 109,-150 h 91 l 90,1 -48,19 c -27,10 -54,23 -61,30 -18,14 -186,256 -186,266 0,5 20,17 45,28 115,47 138,187 43,259 -49,38 -104,47 -283,46 -102,-1 -148,-4 -127,-9 z m 292,-38 c 66,-32 91,-133 50,-200 -25,-40 -89,-71 -147,-72 h -43 v 135 c 0,131 1,136 23,145 35,14 79,11 117,-8 z"
       id="path32" />
    <path
       d="m 24978,6530 c 19,-4 39,-13 45,-19 9,-9 12,-94 12,-296 0,-202 -3,-287 -12,-296 -6,-6 -26,-15 -45,-19 -21,-5 17,-8 107,-8 93,0 129,3 105,8 -54,13 -60,29 -60,167 v 123 h 33 c 32,0 40,-8 142,-150 l 109,-150 h 91 l 90,1 -48,19 c -27,10 -54,23 -61,30 -18,14 -186,256 -186,266 0,5 20,17 45,28 115,47 138,187 43,259 -49,38 -104,47 -283,46 -102,-1 -148,-4 -127,-9 z m 292,-38 c 66,-32 91,-133 50,-200 -25,-40 -89,-71 -147,-72 h -43 v 135 c 0,131 1,136 23,145 35,14 79,11 117,-8 z"
       id="path34" />
    <path
       d="m 2550,6318 c -25,-13 -57,-41 -74,-65 -25,-36 -30,-54 -34,-121 -5,-93 7,-139 51,-189 56,-64 134,-80 207,-43 44,23 86,78 96,128 8,40 -1,41 -21,2 -32,-61 -113,-87 -173,-56 -54,28 -82,71 -96,149 l -7,37 h 152 152 l -6,42 c -15,112 -140,171 -247,116 z m 121,-37 c 19,-20 29,-40 29,-60 v -31 h -99 -100 l 10,33 c 5,17 22,44 39,60 41,37 83,36 121,-2 z"
       id="path36" />
    <path
       d="m 4116,6327 c -38,-28 -13,-97 34,-97 22,0 50,32 50,57 0,23 -29,53 -51,53 -9,0 -23,-6 -33,-13 z"
       id="path38" />
    <path
       d="m 9770,6318 c -25,-13 -57,-41 -74,-65 -25,-36 -30,-54 -34,-121 -5,-93 7,-139 51,-189 56,-64 134,-80 207,-43 44,23 86,78 96,128 8,40 -1,41 -21,2 -32,-61 -113,-87 -173,-56 -54,28 -82,71 -96,149 l -7,37 h 152 152 l -6,42 c -15,112 -140,171 -247,116 z m 121,-37 c 19,-20 29,-40 29,-60 v -31 h -99 -100 l 10,33 c 5,17 22,44 39,60 41,37 83,36 121,-2 z"
       id="path40" />
    <path
       d="m 11336,6327 c -38,-28 -13,-97 34,-97 22,0 50,32 50,57 0,23 -29,53 -51,53 -9,0 -23,-6 -33,-13 z"
       id="path42" />
    <path
       d="m 18100,6318 c -25,-13 -57,-41 -74,-65 -25,-36 -30,-54 -34,-121 -5,-93 7,-139 51,-189 56,-64 134,-80 207,-43 44,23 86,78 96,128 8,40 -1,41 -21,2 -32,-61 -113,-87 -173,-56 -54,28 -82,71 -96,149 l -7,37 h 152 152 l -6,42 c -15,112 -140,171 -247,116 z m 121,-37 c 19,-20 29,-40 29,-60 v -31 h -99 -100 l 10,33 c 5,17 22,44 39,60 41,37 83,36 121,-2 z"
       id="path44" />
    <path
       d="m 19676,6327 c -38,-28 -13,-97 34,-97 22,0 50,32 50,57 0,23 -29,53 -51,53 -9,0 -23,-6 -33,-13 z"
       id="path46" />
    <path
       d="m 26430,6318 c -25,-13 -57,-41 -74,-65 -25,-36 -30,-54 -34,-121 -5,-93 7,-139 51,-189 56,-64 134,-80 207,-43 44,23 86,78 96,128 8,40 -1,41 -21,2 -32,-61 -113,-87 -173,-56 -54,28 -82,71 -96,149 l -7,37 h 152 152 l -6,42 c -15,112 -140,171 -247,116 z m 121,-37 c 19,-20 29,-40 29,-60 v -31 h -99 -100 l 10,33 c 5,17 22,44 39,60 41,37 83,36 121,-2 z"
       id="path48" />
    <path
       d="m 28006,6327 c -38,-28 -13,-97 34,-97 22,0 50,32 50,57 0,23 -29,53 -51,53 -9,0 -23,-6 -33,-13 z"
       id="path50" />
    <path
       d="m 1700,6317 35,-12 6,-165 c 4,-91 11,-177 17,-191 15,-38 59,-69 97,-69 33,0 96,36 128,72 17,20 17,19 17,-26 0,-54 4,-55 81,-24 62,24 88,43 47,33 -43,-11 -48,14 -48,214 v 181 l -77,-1 c -74,0 -76,-1 -43,-12 l 35,-12 3,-157 3,-157 -44,-25 c -52,-31 -77,-32 -108,-7 -23,19 -24,24 -27,195 l -4,176 -76,-1 c -73,0 -75,-1 -42,-12 z"
       id="path52" />
    <path
       d="m 8920,6317 35,-12 6,-165 c 4,-91 11,-177 17,-191 15,-38 59,-69 97,-69 33,0 96,36 128,72 17,20 17,19 17,-26 0,-54 4,-55 81,-24 62,24 88,43 47,33 -43,-11 -48,14 -48,214 v 181 l -77,-1 c -74,0 -76,-1 -43,-12 l 35,-12 3,-157 3,-157 -44,-25 c -52,-31 -77,-32 -108,-7 -23,19 -24,24 -27,195 l -4,176 -76,-1 c -73,0 -75,-1 -42,-12 z"
       id="path54" />
    <path
       d="m 17250,6317 35,-12 6,-165 c 4,-91 11,-177 17,-191 15,-38 59,-69 97,-69 33,0 96,36 128,72 17,20 17,19 17,-26 0,-54 4,-55 81,-24 62,24 88,43 47,33 -43,-11 -48,14 -48,214 v 181 l -77,-1 c -74,0 -76,-1 -43,-12 l 35,-12 3,-157 3,-157 -44,-25 c -52,-31 -77,-32 -108,-7 -23,19 -24,24 -27,195 l -4,176 -76,-1 c -73,0 -75,-1 -42,-12 z"
       id="path56" />
    <path
       d="m 25590,6317 35,-12 6,-165 c 4,-91 11,-177 17,-191 15,-38 59,-69 97,-69 33,0 96,36 128,72 17,20 17,19 17,-26 0,-54 4,-55 81,-24 62,24 88,43 47,33 -43,-11 -48,14 -48,214 v 181 l -77,-1 c -74,0 -76,-1 -43,-12 l 35,-12 3,-157 3,-157 -44,-25 c -52,-31 -77,-32 -108,-7 -23,19 -24,24 -27,195 l -4,176 -76,-1 c -73,0 -75,-1 -42,-12 z"
       id="path58" />
    <path
       d="m 4103,5964 c -15,-24 -15,-29 -2,-53 18,-32 54,-39 80,-15 24,22 24,56 1,77 -27,25 -59,21 -79,-9 z"
       id="path60" />
    <path
       d="m 11323,5964 c -15,-24 -15,-29 -2,-53 18,-32 54,-39 80,-15 24,22 24,56 1,77 -27,25 -59,21 -79,-9 z"
       id="path62" />
    <path
       d="m 19663,5964 c -15,-24 -15,-29 -2,-53 18,-32 54,-39 80,-15 24,22 24,56 1,77 -27,25 -59,21 -79,-9 z"
       id="path64" />
    <path
       d="m 27993,5964 c -15,-24 -15,-29 -2,-53 18,-32 54,-39 80,-15 24,22 24,56 1,77 -27,25 -59,21 -79,-9 z"
       id="path66" />
    <path
       d="m 8769,5492 c -92,-59 -173,-182 -198,-300 -31,-150 10,-320 105,-430 37,-44 134,-116 143,-106 3,2 -18,28 -46,57 -66,67 -89,116 -108,223 -18,106 -19,205 -1,305 19,106 48,166 108,222 28,26 49,50 46,52 -2,3 -24,-8 -49,-23 z"
       id="path68" />
    <path
       d="m 11510,5515 c 0,-3 22,-28 49,-54 27,-26 58,-65 69,-87 31,-61 52,-182 52,-296 0,-183 -40,-301 -125,-375 -25,-23 -45,-44 -45,-47 0,-17 85,43 130,90 87,92 130,203 130,340 0,132 -44,247 -130,338 -44,47 -130,107 -130,91 z"
       id="path70" />
    <path
       d="m 17109,5492 c -92,-59 -173,-182 -198,-300 -31,-150 10,-320 105,-430 37,-44 134,-116 143,-106 3,2 -18,28 -46,57 -66,67 -89,116 -108,223 -18,106 -19,205 -1,305 19,106 48,166 108,222 28,26 49,50 46,52 -2,3 -24,-8 -49,-23 z"
       id="path72" />
    <path
       d="m 19850,5515 c 0,-3 22,-28 49,-54 27,-26 58,-65 69,-87 31,-61 52,-182 52,-296 0,-183 -40,-301 -125,-375 -25,-23 -45,-44 -45,-47 0,-17 85,43 130,90 87,92 130,203 130,340 0,132 -44,247 -130,338 -44,47 -130,107 -130,91 z"
       id="path74" />
    <path
       d="m 25439,5492 c -92,-59 -173,-182 -198,-300 -31,-150 10,-320 105,-430 37,-44 134,-116 143,-106 3,2 -18,28 -46,57 -66,67 -89,116 -108,223 -18,106 -19,205 -1,305 19,106 48,166 108,222 28,26 49,50 46,52 -2,3 -24,-8 -49,-23 z"
       id="path76" />
    <path
       d="m 28180,5515 c 0,-3 22,-28 49,-54 27,-26 58,-65 69,-87 31,-61 52,-182 52,-296 0,-183 -40,-301 -125,-375 -25,-23 -45,-44 -45,-47 0,-17 85,43 130,90 87,92 130,203 130,340 0,132 -44,247 -130,338 -44,47 -130,107 -130,91 z"
       id="path78" />
    <path
       d="m 11095,5501 c -95,-25 -191,-114 -221,-204 -10,-29 -17,-82 -17,-122 0,-40 7,-93 17,-122 22,-66 93,-146 159,-179 27,-14 73,-44 100,-66 90,-70 249,-137 330,-138 35,0 15,16 -42,32 -59,18 -133,76 -160,126 -10,19 -7,23 33,41 58,25 125,93 157,156 21,43 24,64 24,155 0,90 -3,111 -23,148 -58,110 -152,173 -262,178 -36,2 -78,0 -95,-5 z m 155,-43 c 81,-41 121,-134 121,-287 1,-153 -39,-243 -126,-282 -79,-37 -159,-19 -214,47 -76,93 -92,315 -31,433 52,102 153,138 250,89 z"
       id="path80" />
    <path
       d="m 19425,5501 c -95,-25 -191,-114 -221,-204 -10,-29 -17,-82 -17,-122 0,-40 7,-93 17,-122 22,-66 93,-146 159,-179 27,-14 73,-44 100,-66 90,-70 249,-137 330,-138 35,0 15,16 -42,32 -59,18 -133,76 -160,126 -10,19 -7,23 33,41 58,25 125,93 157,156 21,43 24,64 24,155 0,90 -3,111 -23,148 -58,110 -152,173 -262,178 -36,2 -78,0 -95,-5 z m 155,-43 c 81,-41 121,-134 121,-287 1,-153 -39,-243 -126,-282 -79,-37 -159,-19 -214,47 -76,93 -92,315 -31,433 52,102 153,138 250,89 z"
       id="path82" />
    <path
       d="m 27755,5501 c -95,-25 -191,-114 -221,-204 -10,-29 -17,-82 -17,-122 0,-40 7,-93 17,-122 22,-66 93,-146 159,-179 27,-14 73,-44 100,-66 90,-70 249,-137 330,-138 35,0 15,16 -42,32 -59,18 -133,76 -160,126 -10,19 -7,23 33,41 58,25 125,93 157,156 21,43 24,64 24,155 0,90 -3,111 -23,148 -58,110 -152,173 -262,178 -36,2 -78,0 -95,-5 z m 155,-43 c 81,-41 121,-134 121,-287 1,-153 -39,-243 -126,-282 -79,-37 -159,-19 -214,47 -76,93 -92,315 -31,433 52,102 153,138 250,89 z"
       id="path84" />
    <path
       d="m 3068,5491 c 19,-5 39,-14 45,-20 9,-9 12,-94 12,-296 0,-202 -3,-287 -12,-296 -6,-6 -26,-15 -45,-19 -21,-5 17,-8 107,-8 93,0 129,3 105,8 -54,13 -60,29 -60,166 v 123 l 68,-6 c 86,-7 143,9 186,52 57,57 66,160 18,224 -10,14 -39,37 -63,51 -42,24 -53,25 -219,27 -111,1 -163,-1 -142,-6 z m 265,-32 c 44,-23 66,-53 78,-105 27,-120 -56,-208 -168,-178 -22,6 -23,10 -23,144 0,101 3,140 13,143 23,10 78,7 100,-4 z"
       id="path86" />
    <path
       d="m 8888,5491 c 19,-5 39,-14 45,-20 17,-17 17,-575 0,-592 -6,-6 -26,-15 -45,-19 -21,-5 17,-8 107,-8 93,0 129,3 105,8 -54,13 -60,29 -60,166 v 123 l 68,-6 c 86,-7 143,9 186,52 57,57 66,160 18,224 -10,14 -39,37 -63,51 -42,24 -53,25 -219,27 -111,1 -163,-1 -142,-6 z m 265,-32 c 44,-23 66,-53 78,-105 27,-120 -56,-208 -168,-178 -22,6 -23,10 -23,144 0,101 3,140 13,143 23,10 78,7 100,-4 z"
       id="path88" />
    <path
       d="m 17218,5491 c 19,-5 39,-14 45,-20 9,-9 12,-94 12,-296 0,-202 -3,-287 -12,-296 -6,-6 -26,-15 -45,-19 -21,-5 17,-8 107,-8 93,0 129,3 105,8 -54,13 -60,29 -60,166 v 123 l 68,-6 c 86,-7 143,9 186,52 57,57 66,160 18,224 -10,14 -39,37 -63,51 -42,24 -53,25 -219,27 -111,1 -163,-1 -142,-6 z m 265,-32 c 44,-23 66,-53 78,-105 27,-120 -56,-208 -168,-178 -22,6 -23,10 -23,144 0,101 3,140 13,143 23,10 78,7 100,-4 z"
       id="path90" />
    <path
       d="m 25548,5491 c 19,-5 39,-14 45,-20 9,-9 12,-94 12,-296 0,-202 -3,-287 -12,-296 -6,-6 -26,-15 -45,-19 -21,-5 17,-8 107,-8 93,0 129,3 105,8 -54,13 -60,29 -60,166 v 123 l 68,-6 c 86,-7 143,9 186,52 57,57 66,160 18,224 -10,14 -39,37 -63,51 -42,24 -53,25 -219,27 -111,1 -163,-1 -142,-6 z m 265,-32 c 44,-23 66,-53 78,-105 27,-120 -56,-208 -168,-178 -22,6 -23,10 -23,144 0,101 3,140 13,143 23,10 78,7 100,-4 z"
       id="path92" />
    <path
       d="m 4200,5305 v -115 h -120 c -113,0 -120,-1 -120,-20 0,-19 7,-20 120,-20 h 120 v -95 -95 h -120 c -113,0 -120,-1 -120,-20 0,-19 7,-20 255,-20 248,0 255,1 255,20 0,19 -7,20 -115,20 h -115 v 95 95 h 115 c 108,0 115,1 115,20 0,19 -7,20 -115,20 h -115 v 115 c 0,108 -1,115 -20,115 -19,0 -20,-7 -20,-115 z"
       id="path94" />
    <path
       d="m 12570,5305 v -115 h -120 c -113,0 -120,-1 -120,-20 0,-19 7,-20 120,-20 h 120 v -95 -95 h -120 c -113,0 -120,-1 -120,-20 0,-19 7,-20 255,-20 248,0 255,1 255,20 0,19 -7,20 -115,20 h -115 v 95 95 h 115 c 108,0 115,1 115,20 0,19 -7,20 -115,20 h -115 v 115 c 0,108 -1,115 -20,115 -19,0 -20,-7 -20,-115 z"
       id="path96" />
    <path
       d="m 20900,5305 v -115 h -120 c -113,0 -120,-1 -120,-20 0,-19 7,-20 120,-20 h 120 v -95 -95 h -120 c -113,0 -120,-1 -120,-20 0,-19 7,-20 255,-20 248,0 255,1 255,20 0,19 -7,20 -115,20 h -115 v 95 95 h 115 c 108,0 115,1 115,20 0,19 -7,20 -115,20 h -115 v 115 c 0,108 -1,115 -20,115 -19,0 -20,-7 -20,-115 z"
       id="path98" />
    <path
       d="m 29230,5305 v -115 h -120 c -113,0 -120,-1 -120,-20 0,-19 7,-20 120,-20 h 120 v -95 -95 h -120 c -113,0 -120,-1 -120,-20 0,-19 7,-20 255,-20 248,0 255,1 255,20 0,19 -7,20 -115,20 h -115 v 95 95 h 115 c 108,0 115,1 115,20 0,19 -7,20 -115,20 h -115 v 115 c 0,108 -1,115 -20,115 -19,0 -20,-7 -20,-115 z"
       id="path100" />
    <path
       d="m 9921,5113 c -57,-131 -106,-244 -108,-250 -4,-9 7,-13 33,-13 h 39 l 84,195 c 46,108 86,193 89,190 3,-3 42,-90 87,-193 l 81,-187 37,-3 c 20,-2 37,0 37,4 0,3 -48,116 -106,250 l -106,244 h -32 -32 z"
       id="path102" />
    <path
       d="m 18144,5334 c 4,-10 53,-123 108,-251 l 101,-233 h 33 c 35,0 14,-40 200,385 24,55 44,103 44,108 0,4 -17,7 -37,5 l -37,-3 -81,-187 c -44,-103 -83,-189 -86,-193 -4,-3 -44,81 -90,187 l -84,193 -39,3 c -34,3 -38,1 -32,-14 z"
       id="path104" />
    <path
       d="m 26460,5302 v -30 l 178,-4 c 149,-2 182,-6 205,-21 44,-28 61,-73 61,-157 0,-84 -17,-129 -61,-157 -23,-15 -56,-19 -205,-21 l -178,-4 v -30 -30 l 188,4 c 212,3 233,10 284,83 55,80 55,232 1,309 -52,74 -73,81 -285,84 l -188,4 z"
       id="path106" />
    <path
       d="m 971,5279 c -49,-30 -69,-57 -87,-118 -32,-108 -1,-243 67,-294 61,-44 184,-24 224,37 18,28 35,26 35,-3 0,-11 8,-29 18,-41 26,-32 64,-21 86,24 18,38 21,86 6,86 -5,0 -10,-8 -10,-18 0,-47 -52,-56 -75,-12 -20,39 -20,46 15,196 16,71 30,135 30,142 0,7 -14,12 -39,12 h -39 l -12,-66 -13,-67 -25,53 c -40,85 -111,112 -181,69 z m 123,-32 c 13,-13 33,-50 45,-82 24,-63 23,-84 -5,-182 -32,-114 -109,-150 -151,-69 -21,41 -30,199 -14,263 22,87 77,118 125,70 z"
       id="path108" />
    <path
       d="m 7051,5279 c -49,-30 -69,-57 -87,-118 -32,-108 -1,-243 67,-294 61,-44 184,-24 224,37 18,28 35,26 35,-3 0,-11 8,-29 18,-41 26,-32 64,-21 86,24 18,38 21,86 6,86 -5,0 -10,-8 -10,-18 0,-47 -52,-56 -75,-12 -20,39 -20,46 15,196 16,71 30,135 30,142 0,7 -14,12 -39,12 h -39 l -12,-66 -13,-67 -25,53 c -40,85 -111,112 -181,69 z m 123,-32 c 13,-13 33,-50 45,-82 24,-63 23,-84 -5,-182 -32,-114 -109,-150 -151,-69 -21,41 -30,199 -14,263 22,87 77,118 125,70 z"
       id="path110" />
    <path
       d="m 15381,5279 c -49,-30 -69,-57 -87,-118 -32,-108 -1,-243 67,-294 61,-44 184,-24 224,37 18,28 35,26 35,-3 0,-11 8,-29 18,-41 26,-32 64,-21 86,24 18,38 21,86 6,86 -5,0 -10,-8 -10,-18 0,-47 -52,-56 -75,-12 -20,39 -20,46 15,196 16,71 30,135 30,142 0,7 -14,12 -39,12 h -39 l -12,-66 -13,-67 -25,53 c -40,85 -111,112 -181,69 z m 123,-32 c 13,-13 33,-50 45,-82 24,-63 23,-84 -5,-182 -32,-114 -109,-150 -151,-69 -21,41 -30,199 -14,263 22,87 77,118 125,70 z"
       id="path112" />
    <path
       d="m 23721,5279 c -49,-30 -69,-57 -87,-118 -32,-108 -1,-243 67,-294 61,-44 184,-24 224,37 18,28 35,26 35,-3 0,-11 8,-29 18,-41 26,-32 64,-21 86,24 18,38 21,86 6,86 -5,0 -10,-8 -10,-18 0,-47 -52,-56 -75,-12 -20,39 -20,46 15,196 16,71 30,135 30,142 0,7 -14,12 -39,12 h -39 l -12,-66 -13,-67 -25,53 c -40,85 -111,112 -181,69 z m 123,-32 c 13,-13 33,-50 45,-82 24,-63 23,-84 -5,-182 -32,-114 -109,-150 -151,-69 -21,41 -30,199 -14,263 22,87 77,118 125,70 z"
       id="path114" />
    <path
       d="m 1890,5240 c 0,-19 7,-20 235,-20 h 235 v -75 c 0,-68 2,-75 20,-75 19,0 20,7 20,95 v 95 h -255 c -248,0 -255,-1 -255,-20 z"
       id="path116" />
    <path
       d="m 2470,5240 c 0,-19 7,-20 235,-20 h 235 v -75 c 0,-68 2,-75 20,-75 19,0 20,7 20,95 v 95 h -255 c -248,0 -255,-1 -255,-20 z"
       id="path118" />
    <path
       d="m 7970,5240 c 0,-19 7,-20 235,-20 h 235 v -75 c 0,-68 2,-75 20,-75 19,0 20,7 20,95 v 95 h -255 c -248,0 -255,-1 -255,-20 z"
       id="path120" />
    <path
       d="m 16300,5240 c 0,-19 7,-20 235,-20 h 235 v -75 c 0,-68 2,-75 20,-75 19,0 20,7 20,95 v 95 h -255 c -248,0 -255,-1 -255,-20 z"
       id="path122" />
    <path
       d="m 24640,5240 c 0,-19 7,-20 235,-20 h 235 v -75 c 0,-68 2,-75 20,-75 19,0 20,7 20,95 v 95 h -255 c -248,0 -255,-1 -255,-20 z"
       id="path124" />
    <path
       d="m 1420,4930 c -41,-41 -8,-98 49,-85 30,6 31,5 31,-25 0,-32 -38,-79 -85,-106 -11,-7 -17,-15 -13,-19 12,-12 98,45 119,78 29,48 26,117 -7,151 -32,31 -67,33 -94,6 z"
       id="path126" />
    <path
       d="m 3510,4930 c -41,-41 -8,-98 49,-85 30,6 31,5 31,-25 0,-32 -38,-79 -85,-106 -11,-7 -17,-15 -13,-19 12,-12 98,45 119,78 29,48 26,117 -7,151 -32,31 -67,33 -94,6 z"
       id="path128" />
    <path
       d="m 7500,4930 c -41,-41 -8,-98 49,-85 30,6 31,5 31,-25 0,-32 -38,-79 -85,-106 -11,-7 -17,-15 -13,-19 12,-12 98,45 119,78 29,48 26,117 -7,151 -32,31 -67,33 -94,6 z"
       id="path130" />
    <path
       d="m 11880,4930 c -41,-41 -8,-98 49,-85 30,6 31,5 31,-25 0,-32 -38,-79 -85,-106 -11,-7 -17,-15 -13,-19 12,-12 98,45 119,78 29,48 26,117 -7,151 -32,31 -67,33 -94,6 z"
       id="path132" />
    <path
       d="m 15830,4930 c -41,-41 -8,-98 49,-85 30,6 31,5 31,-25 0,-32 -38,-79 -85,-106 -11,-7 -17,-15 -13,-19 12,-12 98,45 119,78 29,48 26,117 -7,151 -32,31 -67,33 -94,6 z"
       id="path134" />
    <path
       d="m 20210,4930 c -41,-41 -8,-98 49,-85 30,6 31,5 31,-25 0,-32 -38,-79 -85,-106 -11,-7 -17,-15 -13,-19 12,-12 98,45 119,78 29,48 26,117 -7,151 -32,31 -67,33 -94,6 z"
       id="path136" />
    <path
       d="m 24170,4930 c -41,-41 -8,-98 49,-85 30,6 31,5 31,-25 0,-32 -38,-79 -85,-106 -11,-7 -17,-15 -13,-19 12,-12 98,45 119,78 29,48 26,117 -7,151 -32,31 -67,33 -94,6 z"
       id="path138" />
    <path
       d="m 28540,4930 c -41,-41 -8,-98 49,-85 30,6 31,5 31,-25 0,-32 -38,-79 -85,-106 -11,-7 -17,-15 -13,-19 12,-12 98,45 119,78 29,48 26,117 -7,151 -32,31 -67,33 -94,6 z"
       id="path140" />
    <path
       d="m 2638,3431 -3,-859 -75,84 c -41,46 -94,105 -118,132 l -43,47 14,-35 c 33,-81 249,-556 256,-563 5,-5 33,47 64,115 30,68 92,204 136,303 l 81,180 -72,-80 c -40,-44 -94,-102 -120,-130 l -48,-50 v 858 857 h -35 -35 z"
       id="path142" />
    <path
       d="m 9860,3433 v -858 l -48,50 c -26,28 -80,86 -120,130 -84,94 -94,126 81,-263 63,-139 118,-253 123,-254 6,0 204,427 264,572 11,26 8,22 -150,-154 l -75,-84 -3,859 -2,859 h -35 -35 z"
       id="path144" />
    <path
       d="m 18190,3433 v -858 l -73,80 c -94,104 -160,173 -155,160 74,-169 264,-585 268,-585 4,0 255,553 269,592 2,7 -46,-44 -108,-112 -62,-69 -116,-126 -122,-128 -5,-2 -9,322 -9,852 v 856 h -35 -35 z"
       id="path146" />
    <path
       d="m 26528,3430 -3,-860 -115,129 c -63,71 -116,128 -117,127 -4,-3 257,-580 266,-589 4,-4 67,124 139,284 73,161 130,294 129,296 -2,2 -53,-52 -113,-119 l -109,-122 -3,857 -2,857 h -35 -35 z"
       id="path148" />
    <path
       d="m 11385,1681 c -95,-25 -191,-114 -221,-204 -10,-29 -17,-82 -17,-122 0,-40 7,-93 17,-122 22,-66 93,-146 159,-179 27,-14 73,-44 100,-66 90,-70 249,-137 330,-138 35,0 15,16 -42,32 -59,18 -133,76 -160,126 -10,19 -7,23 33,41 58,25 125,93 157,156 21,43 24,64 24,155 0,90 -3,111 -23,148 -58,110 -152,173 -262,178 -36,2 -78,0 -95,-5 z m 155,-43 c 81,-41 121,-134 121,-287 1,-153 -39,-243 -126,-282 -79,-37 -159,-19 -214,47 -76,93 -92,315 -31,433 52,102 153,138 250,89 z"
       id="path150" />
    <path
       d="m 19715,1681 c -95,-25 -191,-114 -221,-204 -10,-29 -17,-82 -17,-122 0,-40 7,-93 17,-122 22,-66 93,-146 159,-179 27,-14 73,-44 100,-66 90,-70 249,-137 330,-138 35,0 15,16 -42,32 -59,18 -133,76 -160,126 -10,19 -7,23 33,41 58,25 125,93 157,156 21,43 24,64 24,155 0,90 -3,111 -23,148 -58,110 -152,173 -262,178 -36,2 -78,0 -95,-5 z m 155,-43 c 81,-41 121,-134 121,-287 1,-153 -39,-243 -126,-282 -79,-37 -159,-19 -214,47 -76,93 -92,315 -31,433 52,102 153,138 250,89 z"
       id="path152" />
    <path
       d="m 27215,1681 c -95,-25 -191,-114 -221,-204 -10,-29 -17,-82 -17,-122 0,-40 7,-93 17,-122 22,-66 93,-146 159,-179 27,-14 73,-44 100,-66 90,-70 249,-137 330,-138 35,0 15,16 -42,32 -59,18 -133,76 -160,126 -10,19 -7,23 33,41 58,25 125,93 157,156 21,43 24,64 24,155 0,90 -3,111 -23,148 -58,110 -152,173 -262,178 -36,2 -78,0 -95,-5 z m 155,-43 c 81,-41 121,-134 121,-287 1,-153 -39,-243 -126,-282 -79,-37 -159,-19 -214,47 -76,93 -92,315 -31,433 52,102 153,138 250,89 z"
       id="path154" />
    <path
       d="m 2478,1671 c 19,-5 39,-14 45,-20 17,-17 17,-575 0,-592 -6,-6 -26,-15 -45,-19 -21,-5 17,-8 107,-8 93,0 129,3 105,8 -54,13 -60,29 -60,166 v 123 l 68,-6 c 86,-7 143,9 186,52 57,57 66,160 18,224 -10,14 -39,37 -63,51 -42,24 -53,25 -219,27 -111,1 -163,-1 -142,-6 z m 265,-32 c 44,-23 66,-53 78,-105 27,-120 -56,-208 -168,-178 -22,6 -23,10 -23,144 0,101 3,140 13,143 23,10 78,7 100,-4 z"
       id="path156" />
    <path
       d="m 8608,1671 c 19,-5 39,-14 45,-20 17,-17 17,-575 0,-592 -6,-6 -26,-15 -45,-19 -21,-5 17,-8 107,-8 93,0 129,3 105,8 -54,13 -60,29 -60,166 v 123 l 68,-6 c 86,-7 143,9 186,52 57,57 66,160 18,224 -10,14 -39,37 -63,51 -42,24 -53,25 -219,27 -111,1 -163,-1 -142,-6 z m 265,-32 c 44,-23 66,-53 78,-105 27,-120 -56,-208 -168,-178 -22,6 -23,10 -23,144 0,101 3,140 13,143 23,10 78,7 100,-4 z"
       id="path158" />
    <path
       d="m 16938,1671 c 19,-5 39,-14 45,-20 9,-9 12,-94 12,-296 0,-202 -3,-287 -12,-296 -6,-6 -26,-15 -45,-19 -21,-5 17,-8 107,-8 93,0 129,3 105,8 -54,13 -60,29 -60,166 v 123 l 68,-6 c 86,-7 143,9 186,52 57,57 66,160 18,224 -10,14 -39,37 -63,51 -42,24 -53,25 -219,27 -111,1 -163,-1 -142,-6 z m 265,-32 c 44,-23 66,-53 78,-105 27,-120 -56,-208 -168,-178 -22,6 -23,10 -23,144 0,101 3,140 13,143 23,10 78,7 100,-4 z"
       id="path160" />
    <path
       d="m 25018,1671 c 19,-5 39,-14 45,-20 9,-9 12,-94 12,-296 0,-202 -3,-287 -12,-296 -6,-6 -26,-15 -45,-19 -21,-5 17,-8 107,-8 93,0 129,3 105,8 -54,13 -60,29 -60,166 v 123 l 68,-6 c 86,-7 143,9 186,52 57,57 66,160 18,224 -10,14 -39,37 -63,51 -42,24 -53,25 -219,27 -111,1 -163,-1 -142,-6 z m 265,-32 c 44,-23 66,-53 78,-105 27,-120 -56,-208 -168,-178 -22,6 -23,10 -23,144 0,101 3,140 13,143 23,10 78,7 100,-4 z"
       id="path162" />
    <path
       d="m 3610,1485 v -115 h -120 c -113,0 -120,-1 -120,-20 0,-19 7,-20 120,-20 h 120 v -95 -95 h -120 c -113,0 -120,-1 -120,-20 0,-19 7,-20 255,-20 248,0 255,1 255,20 0,19 -7,20 -115,20 h -115 v 95 95 h 115 c 108,0 115,1 115,20 0,19 -7,20 -115,20 h -115 v 115 c 0,108 -1,115 -20,115 -19,0 -20,-7 -20,-115 z"
       id="path164" />
    <path
       d="m 12550,1485 v -115 h -120 c -113,0 -120,-1 -120,-20 0,-19 7,-20 120,-20 h 120 v -95 -95 h -120 c -113,0 -120,-1 -120,-20 0,-19 7,-20 255,-20 248,0 255,1 255,20 0,19 -7,20 -115,20 h -115 v 95 95 h 115 c 108,0 115,1 115,20 0,19 -7,20 -115,20 h -115 v 115 c 0,108 -1,115 -20,115 -19,0 -20,-7 -20,-115 z"
       id="path166" />
    <path
       d="m 20880,1485 v -115 h -120 c -113,0 -120,-1 -120,-20 0,-19 7,-20 120,-20 h 120 v -95 -95 h -120 c -113,0 -120,-1 -120,-20 0,-19 7,-20 255,-20 248,0 255,1 255,20 0,19 -7,20 -115,20 h -115 v 95 95 h 115 c 108,0 115,1 115,20 0,19 -7,20 -115,20 h -115 v 115 c 0,108 -1,115 -20,115 -19,0 -20,-7 -20,-115 z"
       id="path168" />
    <path
       d="m 28370,1560 v -30 h 270 270 v 30 30 h -270 -270 z"
       id="path170" />
    <path
       d="m 9534,1514 c 4,-10 53,-123 108,-251 l 101,-233 h 33 c 35,0 14,-40 200,385 24,55 44,103 44,108 0,4 -17,7 -37,5 l -37,-3 -81,-187 c -44,-103 -83,-189 -86,-193 -4,-3 -44,81 -90,187 l -84,193 -39,3 c -34,3 -38,1 -32,-14 z"
       id="path172" />
    <path
       d="m 17971,1293 c -57,-131 -106,-244 -108,-250 -4,-9 7,-13 33,-13 h 39 l 84,195 c 46,108 86,193 89,190 3,-3 42,-90 87,-193 l 81,-187 37,-3 c 20,-2 37,0 37,4 0,3 -48,116 -106,250 l -106,244 h -32 -32 z"
       id="path174" />
    <path
       d="m 25920,1482 v -30 l 178,-4 c 149,-2 182,-6 205,-21 44,-28 61,-73 61,-157 0,-84 -17,-129 -61,-157 -23,-15 -56,-19 -205,-21 l -178,-4 v -30 -30 l 188,4 c 212,3 233,10 284,83 55,80 55,232 1,309 -52,74 -73,81 -285,84 l -188,4 z"
       id="path176" />
    <path
       d="m 1531,1459 c -49,-30 -69,-57 -87,-118 -32,-108 -1,-243 67,-294 61,-44 184,-24 224,37 18,28 35,26 35,-3 0,-11 8,-29 18,-41 26,-32 64,-21 86,24 18,38 21,86 6,86 -5,0 -10,-8 -10,-18 0,-47 -52,-56 -75,-12 -20,39 -20,46 15,196 16,71 30,135 30,142 0,7 -14,12 -39,12 h -39 l -12,-66 -13,-67 -25,53 c -40,85 -111,112 -181,69 z m 123,-32 c 13,-13 33,-50 45,-82 24,-63 23,-84 -5,-182 -32,-114 -109,-150 -151,-69 -21,41 -30,199 -14,263 22,87 77,118 125,70 z"
       id="path178" />
    <path
       d="m 7081,1459 c -49,-30 -69,-57 -87,-118 -32,-108 -1,-243 67,-294 61,-44 184,-24 224,37 18,28 35,26 35,-3 0,-11 8,-29 18,-41 26,-32 64,-21 86,24 18,38 21,86 6,86 -5,0 -10,-8 -10,-18 0,-47 -52,-56 -75,-12 -20,39 -20,46 15,196 16,71 30,135 30,142 0,7 -14,12 -39,12 h -39 l -12,-66 -13,-67 -25,53 c -40,85 -111,112 -181,69 z m 123,-32 c 13,-13 33,-50 45,-82 24,-63 23,-84 -5,-182 -32,-114 -109,-150 -151,-69 -21,41 -30,199 -14,263 22,87 77,118 125,70 z"
       id="path180" />
    <path
       d="m 15421,1459 c -49,-30 -69,-57 -87,-118 -32,-108 -1,-243 67,-294 61,-44 184,-24 224,37 18,28 35,26 35,-3 0,-11 8,-29 18,-41 26,-32 64,-21 86,24 18,38 21,86 6,86 -5,0 -10,-8 -10,-18 0,-47 -52,-56 -75,-12 -20,39 -20,46 15,196 16,71 30,135 30,142 0,7 -14,12 -39,12 h -39 l -12,-66 -13,-67 -25,53 c -40,85 -111,112 -181,69 z m 123,-32 c 13,-13 33,-50 45,-82 24,-63 23,-84 -5,-182 -32,-114 -109,-150 -151,-69 -21,41 -30,199 -14,263 22,87 77,118 125,70 z"
       id="path182" />
    <path
       d="m 24061,1459 c -49,-30 -69,-57 -87,-118 -32,-108 -1,-243 67,-294 61,-44 184,-24 224,37 18,28 35,26 35,-3 0,-11 8,-29 18,-41 26,-32 64,-21 86,24 18,38 21,86 6,86 -5,0 -10,-8 -10,-18 0,-47 -52,-56 -75,-12 -20,39 -20,46 15,196 16,71 30,135 30,142 0,7 -14,12 -39,12 h -39 l -12,-66 -13,-67 -25,53 c -40,85 -111,112 -181,69 z m 123,-32 c 13,-13 33,-50 45,-82 24,-63 23,-84 -5,-182 -32,-114 -109,-150 -151,-69 -21,41 -30,199 -14,263 22,87 77,118 125,70 z"
       id="path184" />
    <path
       d="m 28610,1385 v -95 h -120 -120 v -30 -30 h 120 120 v -100 -100 h 30 30 v 100 100 h 120 120 v 30 30 h -120 -120 v 95 95 h -30 -30 z"
       id="path186" />
    <path
       d="m 8010,1420 c 0,-19 7,-20 235,-20 h 235 v -75 c 0,-68 2,-75 20,-75 19,0 20,7 20,95 v 95 h -255 c -248,0 -255,-1 -255,-20 z"
       id="path188" />
    <path
       d="m 10560,1420 c 0,-19 7,-20 235,-20 h 235 v -75 c 0,-68 2,-75 20,-75 19,0 20,7 20,95 v 95 h -255 c -248,0 -255,-1 -255,-20 z"
       id="path190" />
    <path
       d="m 16340,1420 c 0,-19 7,-20 235,-20 h 235 v -75 c 0,-68 2,-75 20,-75 19,0 20,7 20,95 v 95 h -255 c -248,0 -255,-1 -255,-20 z"
       id="path192" />
    <path
       d="m 18890,1420 c 0,-19 7,-20 235,-20 h 235 v -75 c 0,-68 2,-75 20,-75 19,0 20,7 20,95 v 95 h -255 c -248,0 -255,-1 -255,-20 z"
       id="path194" />
    <path
       d="m 1980,1110 c -41,-41 -8,-98 49,-85 30,6 31,5 31,-25 0,-32 -38,-79 -85,-106 -11,-7 -17,-15 -13,-19 12,-12 98,45 119,78 29,48 26,117 -7,151 -32,31 -67,33 -94,6 z"
       id="path196" />
    <path
       d="m 2920,1110 c -41,-41 -8,-98 49,-85 30,6 31,5 31,-25 0,-32 -38,-79 -85,-106 -11,-7 -17,-15 -13,-19 12,-12 98,45 119,78 29,48 26,117 -7,151 -32,31 -67,33 -94,6 z"
       id="path198" />
    <path
       d="m 7540,1110 c -41,-41 -8,-98 49,-85 30,6 31,5 31,-25 0,-32 -38,-79 -85,-106 -11,-7 -17,-15 -13,-19 12,-12 98,45 119,78 29,48 26,117 -7,151 -32,31 -67,33 -94,6 z"
       id="path200" />
    <path
       d="m 11860,1110 c -41,-41 -8,-98 49,-85 30,6 31,5 31,-25 0,-32 -38,-79 -85,-106 -11,-7 -17,-15 -13,-19 12,-12 98,45 119,78 29,48 26,117 -7,151 -32,31 -67,33 -94,6 z"
       id="path202" />
    <path
       d="m 15870,1110 c -41,-41 -8,-98 49,-85 30,6 31,5 31,-25 0,-32 -38,-79 -85,-106 -11,-7 -17,-15 -13,-19 12,-12 98,45 119,78 29,48 26,117 -7,151 -32,31 -67,33 -94,6 z"
       id="path204" />
    <path
       d="m 20190,1110 c -41,-41 -8,-98 49,-85 30,6 31,5 31,-25 0,-32 -38,-79 -85,-106 -11,-7 -17,-15 -13,-19 12,-12 98,45 119,78 29,48 26,117 -7,151 -32,31 -67,33 -94,6 z"
       id="path206" />
    <path
       d="m 24510,1110 c -41,-41 -8,-98 49,-85 30,6 31,5 31,-25 0,-32 -38,-79 -85,-106 -11,-7 -17,-15 -13,-19 12,-12 98,45 119,78 29,48 26,117 -7,151 -32,31 -67,33 -94,6 z"
       id="path208" />
    <path
       d="m 27690,1110 c -41,-41 -8,-98 49,-85 30,6 31,5 31,-25 0,-32 -38,-79 -85,-106 -11,-7 -17,-15 -13,-19 12,-12 98,45 119,78 29,48 26,117 -7,151 -32,31 -67,33 -94,6 z"
       id="path210" />
  </g>
</svg>
