<?xml version="1.0" encoding="UTF-8" standalone="no"?>
<svg
   version="1.0"
   width="1783pt"
   height="3385.5654pt"
   viewBox="0 0 1783 3385.5654"
   preserveAspectRatio="xMidYMid meet"
   id="svg294"
   xmlns="http://www.w3.org/2000/svg"
   xmlns:svg="http://www.w3.org/2000/svg">
  <defs
     id="defs298" />
  <metadata
     id="metadata2">
Created by potrace 1.16, written by Peter Selinger 2001-2019
</metadata>
  <g
     transform="matrix(0.1,0,0,-0.1,-87,3454.7641)"
     fill="#000000"
     stroke="none"
     id="g292">
    <path
       d="m 5409,34522 c -92,-59 -173,-182 -198,-300 -31,-150 10,-320 105,-430 37,-44 134,-116 143,-106 3,2 -18,28 -46,57 -66,67 -89,116 -108,223 -18,106 -19,205 -1,305 19,106 48,166 108,222 28,26 49,50 46,52 -2,3 -24,-8 -49,-23 z"
       id="path4" />
    <path
       d="m 8720,34545 c 0,-3 22,-28 49,-54 27,-26 58,-65 69,-87 31,-61 52,-182 52,-296 0,-183 -40,-301 -125,-375 -25,-23 -45,-44 -45,-47 0,-17 85,43 130,90 87,92 130,203 130,340 0,132 -44,247 -130,338 -44,47 -130,107 -130,91 z"
       id="path6" />
    <path
       d="m 10769,34522 c -92,-59 -173,-182 -198,-300 -31,-150 10,-320 105,-430 37,-44 134,-116 143,-106 3,2 -18,28 -46,57 -66,67 -89,116 -108,223 -18,106 -19,205 -1,305 19,106 48,166 108,222 28,26 49,50 46,52 -2,3 -24,-8 -49,-23 z"
       id="path8" />
    <path
       d="m 14130,34545 c 0,-3 22,-28 49,-54 27,-26 58,-65 69,-87 31,-61 52,-182 52,-296 0,-183 -40,-301 -125,-375 -25,-23 -45,-44 -45,-47 0,-17 85,43 130,90 87,92 130,203 130,340 0,132 -44,247 -130,338 -44,47 -130,107 -130,91 z"
       id="path10" />
    <path
       d="m 4352,34524 c -91,-47 -142,-162 -142,-323 0,-114 15,-174 62,-242 96,-142 251,-106 320,73 26,68 34,196 18,281 -31,165 -153,265 -258,211 z m 99,-24 c 57,-31 89,-198 72,-379 -13,-133 -36,-192 -83,-211 -63,-26 -109,25 -131,146 -13,70 -6,289 12,352 22,79 79,119 130,92 z"
       id="path12" />
    <path
       d="m 8295,34531 c -95,-25 -191,-114 -221,-204 -10,-29 -17,-82 -17,-122 0,-40 7,-93 17,-122 22,-66 93,-146 159,-179 27,-14 73,-44 100,-66 90,-70 249,-137 330,-138 35,0 15,16 -42,32 -59,18 -133,76 -160,126 -10,19 -7,23 33,41 58,25 125,93 157,156 21,43 24,64 24,155 0,90 -3,111 -23,148 -58,110 -152,173 -262,178 -36,2 -78,0 -95,-5 z m 155,-43 c 81,-41 121,-134 121,-287 1,-153 -39,-243 -126,-282 -79,-37 -159,-19 -214,47 -76,93 -92,315 -31,433 52,102 153,138 250,89 z"
       id="path14" />
    <path
       d="m 11105,34531 c -95,-25 -191,-114 -221,-204 -10,-29 -17,-82 -17,-122 0,-40 7,-93 17,-122 22,-66 93,-146 159,-179 27,-14 73,-44 100,-66 90,-70 249,-137 330,-138 35,0 15,16 -42,32 -59,18 -133,76 -160,126 -10,19 -7,23 33,41 58,25 125,93 157,156 21,43 24,64 24,155 0,90 -3,111 -23,148 -58,110 -152,173 -262,178 -36,2 -78,0 -95,-5 z m 155,-43 c 81,-41 121,-134 121,-287 1,-153 -39,-243 -126,-282 -79,-37 -159,-19 -214,47 -76,93 -92,315 -31,433 52,102 153,138 250,89 z"
       id="path16" />
    <path
       d="m 5518,34521 c 19,-5 39,-14 45,-20 17,-17 17,-575 0,-592 -6,-6 -26,-15 -45,-19 -21,-5 17,-8 107,-8 93,0 129,3 105,8 -54,13 -60,29 -60,166 v 123 l 68,-6 c 86,-7 143,9 186,52 57,57 66,160 18,224 -10,14 -39,37 -63,51 -42,24 -53,25 -219,27 -111,1 -163,-1 -142,-6 z m 265,-32 c 44,-23 66,-53 78,-105 27,-120 -56,-208 -168,-178 -22,6 -23,10 -23,144 0,101 3,140 13,143 23,10 78,7 100,-4 z"
       id="path18" />
    <path
       d="m 13638,34521 c 19,-5 39,-14 45,-20 9,-9 12,-94 12,-296 0,-202 -3,-287 -12,-296 -6,-6 -26,-15 -45,-19 -21,-5 17,-8 107,-8 93,0 129,3 105,8 -54,13 -60,29 -60,166 v 123 l 68,-6 c 86,-7 143,9 186,52 57,57 66,160 18,224 -10,14 -39,37 -63,51 -42,24 -53,25 -219,27 -111,1 -163,-1 -142,-6 z m 265,-32 c 44,-23 66,-53 78,-105 27,-120 -56,-208 -168,-178 -22,6 -23,10 -23,144 0,101 3,140 13,143 23,10 78,7 100,-4 z"
       id="path20" />
    <path
       d="m 6430,34332 v -30 l 178,-4 c 149,-2 182,-6 205,-21 44,-28 61,-73 61,-157 0,-84 -17,-129 -61,-157 -23,-15 -56,-19 -205,-21 l -178,-4 v -30 -30 l 188,4 c 212,3 233,10 284,83 55,80 55,232 1,309 -52,74 -73,81 -285,84 l -188,4 z"
       id="path22" />
    <path
       d="m 9500,34332 v -30 l 178,-4 c 149,-2 182,-6 205,-21 44,-28 61,-73 61,-157 0,-84 -17,-129 -61,-157 -23,-15 -56,-19 -205,-21 l -178,-4 v -30 -30 l 188,4 c 212,3 233,10 284,83 55,80 55,232 1,309 -52,74 -73,81 -285,84 l -188,4 z"
       id="path24" />
    <path
       d="m 12000,34332 v -30 l 178,-4 c 149,-2 182,-6 205,-21 44,-28 61,-73 61,-157 0,-84 -17,-129 -61,-157 -23,-15 -56,-19 -205,-21 l -178,-4 v -30 -30 l 188,4 c 212,3 233,10 284,83 55,80 55,232 1,309 -52,74 -73,81 -285,84 l -188,4 z"
       id="path26" />
    <path
       d="m 7470,34270 c 0,-19 7,-20 235,-20 h 235 v -75 c 0,-68 2,-75 20,-75 19,0 20,7 20,95 v 95 h -255 c -248,0 -255,-1 -255,-20 z"
       id="path28" />
    <path
       d="m 13040,34270 c 0,-19 7,-20 235,-20 h 235 v -75 c 0,-68 2,-75 20,-75 19,0 20,7 20,95 v 95 h -255 c -248,0 -255,-1 -255,-20 z"
       id="path30" />
    <path
       d="m 14990,34100 v -40 h 120 120 v 40 40 h -120 -120 z"
       id="path32" />
    <path
       d="m 4710,33960 c -41,-41 -8,-98 49,-85 30,6 31,5 31,-25 0,-32 -38,-79 -85,-106 -11,-7 -17,-15 -13,-19 12,-12 98,45 119,78 29,48 26,117 -7,151 -32,31 -67,33 -94,6 z"
       id="path34" />
    <path
       d="m 14500,33960 c -41,-41 -8,-98 49,-85 30,6 31,5 31,-25 0,-32 -38,-79 -85,-106 -11,-7 -17,-15 -13,-19 12,-12 98,45 119,78 29,48 26,117 -7,151 -32,31 -67,33 -94,6 z"
       id="path36" />
    <path
       d="m 9690,32304 v -815 l 33,3 32,3 3,813 2,812 h -35 -35 z"
       id="path38" />
    <path
       d="m 9463,31630 c 31,-75 249,-555 256,-563 5,-5 184,379 269,578 5,13 -75,-69 -160,-165 l -68,-75 v 38 c 0,36 -1,37 -35,37 -33,0 -35,-2 -35,-35 0,-19 -3,-35 -7,-34 -5,0 -39,36 -78,80 -38,43 -89,100 -113,126 l -43,48 z"
       id="path40" />
    <path
       d="m 10885,30501 c -95,-25 -191,-114 -221,-204 -10,-29 -17,-82 -17,-122 0,-40 7,-93 17,-122 22,-66 93,-146 159,-179 27,-14 73,-44 100,-66 90,-70 249,-137 330,-138 35,0 15,16 -42,32 -59,18 -133,76 -160,126 -10,19 -7,23 33,41 58,25 125,93 157,156 21,43 24,64 24,155 0,90 -3,111 -23,148 -58,110 -152,173 -262,178 -36,2 -78,0 -95,-5 z m 155,-43 c 81,-41 121,-134 121,-287 1,-153 -39,-243 -126,-282 -79,-37 -159,-19 -214,47 -76,93 -92,315 -31,433 52,102 153,138 250,89 z"
       id="path42" />
    <path
       d="m 8108,30491 c 19,-5 39,-14 45,-20 17,-17 17,-575 0,-592 -6,-6 -26,-15 -45,-19 -21,-5 17,-8 107,-8 93,0 129,3 105,8 -54,13 -60,29 -60,166 v 123 l 68,-6 c 86,-7 143,9 186,52 57,57 66,160 18,224 -10,14 -39,37 -63,51 -42,24 -53,25 -219,27 -111,1 -163,-1 -142,-6 z m 265,-32 c 44,-23 66,-53 78,-105 27,-120 -56,-208 -168,-178 -22,6 -23,10 -23,144 0,101 3,140 13,143 23,10 78,7 100,-4 z"
       id="path44" />
    <path
       d="m 12060,30305 v -115 h -115 c -108,0 -115,-1 -115,-20 0,-19 7,-20 115,-20 h 115 v -115 c 0,-108 1,-115 20,-115 19,0 20,7 20,115 v 115 h 120 c 113,0 120,1 120,20 0,19 -7,20 -120,20 h -120 v 115 c 0,108 -1,115 -20,115 -19,0 -20,-7 -20,-115 z"
       id="path46" />
    <path
       d="m 9010,30302 v -30 l 178,-4 c 149,-2 182,-6 205,-21 44,-28 61,-73 61,-157 0,-84 -17,-129 -61,-157 -23,-15 -56,-19 -205,-21 l -178,-4 v -30 -30 l 188,4 c 212,3 233,10 284,83 55,80 55,232 1,309 -52,74 -73,81 -285,84 l -188,4 z"
       id="path48" />
    <path
       d="m 7151,30279 c -49,-30 -69,-57 -87,-118 -32,-108 -1,-243 67,-294 61,-44 184,-24 224,37 18,28 35,26 35,-3 0,-11 8,-29 18,-41 26,-32 64,-21 86,24 18,38 21,86 6,86 -5,0 -10,-8 -10,-18 0,-47 -52,-56 -75,-12 -20,39 -20,46 15,196 16,71 30,135 30,142 0,7 -14,12 -39,12 h -39 l -12,-66 -13,-67 -25,53 c -40,85 -111,112 -181,69 z m 123,-32 c 13,-13 33,-50 45,-82 24,-63 23,-84 -5,-182 -32,-114 -109,-150 -151,-69 -21,41 -30,199 -14,263 22,87 77,118 125,70 z"
       id="path50" />
    <path
       d="m 10050,30240 c 0,-19 7,-20 235,-20 h 235 v -75 c 0,-68 2,-75 20,-75 19,0 20,7 20,95 v 95 h -255 c -248,0 -255,-1 -255,-20 z"
       id="path52" />
    <path
       d="m 7600,29930 c -41,-41 -8,-98 49,-85 30,6 31,5 31,-25 0,-32 -38,-79 -85,-106 -11,-7 -17,-15 -13,-19 12,-12 98,45 119,78 29,48 26,117 -7,151 -32,31 -67,33 -94,6 z"
       id="path54" />
    <path
       d="m 11350,29930 c -41,-41 -8,-98 49,-85 30,6 31,5 31,-25 0,-32 -38,-79 -85,-106 -11,-7 -17,-15 -13,-19 12,-12 98,45 119,78 29,48 26,117 -7,151 -32,31 -67,33 -94,6 z"
       id="path56" />
    <path
       d="m 9690,28286 v -816 h 35 35 l -2,813 -3,812 -32,3 -33,3 z"
       id="path58" />
    <path
       d="m 9469,27590 c 42,-102 243,-546 250,-552 4,-4 66,126 139,288 73,163 132,297 130,299 -2,2 -52,-53 -113,-121 l -110,-123 -5,37 c -4,33 -8,37 -37,40 -33,3 -33,3 -33,-40 v -43 l -48,50 c -26,28 -80,86 -120,130 -72,80 -72,80 -53,35 z"
       id="path60" />
    <path
       d="m 6572,26464 c -91,-47 -142,-162 -142,-323 0,-114 15,-174 62,-242 96,-142 251,-106 320,73 26,68 34,196 18,281 -31,165 -153,265 -258,211 z m 99,-24 c 57,-31 89,-198 72,-379 -13,-133 -36,-192 -83,-211 -63,-26 -109,25 -131,146 -13,70 -6,289 12,352 22,79 79,119 130,92 z"
       id="path62" />
    <path
       d="m 9265,26471 c -95,-25 -191,-114 -221,-204 -10,-29 -17,-82 -17,-122 0,-40 7,-93 17,-122 22,-66 93,-146 159,-179 27,-14 73,-44 100,-66 90,-70 249,-137 330,-138 35,0 15,16 -42,32 -59,18 -133,76 -160,126 -10,19 -7,23 33,41 58,25 125,93 157,156 21,43 24,64 24,155 0,90 -3,111 -23,148 -58,110 -152,173 -262,178 -36,2 -78,0 -95,-5 z m 155,-43 c 81,-41 121,-134 121,-287 1,-153 -39,-243 -126,-282 -79,-37 -159,-19 -214,47 -76,93 -92,315 -31,433 52,102 153,138 250,89 z"
       id="path64" />
    <path
       d="m 11798,26461 c 19,-5 39,-14 45,-20 9,-9 12,-94 12,-296 0,-202 -3,-287 -12,-296 -6,-6 -26,-15 -45,-19 -21,-5 17,-8 107,-8 93,0 129,3 105,8 -54,13 -60,29 -60,166 v 123 l 68,-6 c 86,-7 143,9 186,52 57,57 66,160 18,224 -10,14 -39,37 -63,51 -42,24 -53,25 -219,27 -111,1 -163,-1 -142,-6 z m 265,-32 c 44,-23 66,-53 78,-105 27,-120 -56,-208 -168,-178 -22,6 -23,10 -23,144 0,101 3,140 13,143 23,10 78,7 100,-4 z"
       id="path66" />
    <path
       d="m 7370,26275 v -115 h -115 c -108,0 -115,-1 -115,-20 0,-19 7,-20 115,-20 h 115 v -115 c 0,-108 1,-115 20,-115 19,0 20,7 20,115 v 115 h 120 c 113,0 120,1 120,20 0,19 -7,20 -120,20 h -120 v 115 c 0,108 -1,115 -20,115 -19,0 -20,-7 -20,-115 z"
       id="path68" />
    <path
       d="m 10160,26272 v -30 l 178,-4 c 149,-2 182,-6 205,-21 44,-28 61,-73 61,-157 0,-84 -17,-129 -61,-157 -23,-15 -56,-19 -205,-21 l -178,-4 v -30 -30 l 188,4 c 212,3 233,10 284,83 55,80 55,232 1,309 -52,74 -73,81 -285,84 l -188,4 z"
       id="path70" />
    <path
       d="m 8091,26249 c -49,-30 -69,-57 -87,-118 -32,-108 -1,-243 67,-294 61,-44 184,-24 224,37 18,28 35,26 35,-3 0,-11 8,-29 18,-41 26,-32 64,-21 86,24 18,38 21,86 6,86 -5,0 -10,-8 -10,-18 0,-47 -52,-56 -75,-12 -20,39 -20,46 15,196 16,71 30,135 30,142 0,7 -14,12 -39,12 h -39 l -12,-66 -13,-67 -25,53 c -40,85 -111,112 -181,69 z m 123,-32 c 13,-13 33,-50 45,-82 24,-63 23,-84 -5,-182 -32,-114 -109,-150 -151,-69 -21,41 -30,199 -14,263 22,87 77,118 125,70 z"
       id="path72" />
    <path
       d="m 11200,26210 c 0,-19 7,-20 235,-20 h 235 v -75 c 0,-68 2,-75 20,-75 19,0 20,7 20,95 v 95 h -255 c -248,0 -255,-1 -255,-20 z"
       id="path74" />
    <path
       d="m 12730,26040 v -40 h 120 120 v 40 40 h -120 -120 z"
       id="path76" />
    <path
       d="m 8540,25900 c -41,-41 -8,-98 49,-85 30,6 31,5 31,-25 0,-32 -38,-79 -85,-106 -11,-7 -17,-15 -13,-19 12,-12 98,45 119,78 29,48 26,117 -7,151 -32,31 -67,33 -94,6 z"
       id="path78" />
    <path
       d="m 12240,25900 c -41,-41 -8,-98 49,-85 30,6 31,5 31,-25 0,-32 -38,-79 -85,-106 -11,-7 -17,-15 -13,-19 12,-12 98,45 119,78 29,48 26,117 -7,151 -32,31 -67,33 -94,6 z"
       id="path80" />
    <path
       d="m 9690,24255 v -815 h 35 35 v 815 815 h -35 -35 z"
       id="path82" />
    <path
       d="m 9498,23495 c 132,-296 215,-481 221,-487 3,-4 66,126 139,289 73,163 131,297 129,299 -1,2 -53,-53 -115,-122 l -112,-125 v 40 c 0,40 -1,41 -35,41 -34,0 -35,-1 -35,-42 l -1,-43 -77,85 c -42,47 -96,105 -120,130 l -42,45 z"
       id="path84" />
    <path
       d="m 8490,22458 c -85,-44 -84,-40 -90,-468 -3,-206 -9,-381 -13,-387 -6,-10 2,-13 31,-13 49,0 52,5 59,136 l 6,100 36,-18 c 50,-27 127,-20 179,15 76,50 114,176 78,260 -13,33 -78,97 -97,97 -6,0 3,13 20,29 52,49 66,121 35,187 -36,75 -159,106 -244,62 z m 131,-18 c 45,-25 63,-122 36,-200 -12,-34 -14,-35 -62,-35 -43,0 -50,-3 -50,-20 0,-17 7,-20 48,-21 54,-1 67,-13 92,-83 21,-62 19,-153 -4,-199 -32,-62 -105,-81 -168,-42 l -33,20 v 257 c 1,195 4,264 14,282 24,44 84,63 127,41 z"
       id="path86" />
    <path
       d="m 9595,22451 c -95,-25 -191,-114 -221,-204 -10,-29 -17,-82 -17,-122 0,-40 7,-93 17,-122 22,-66 93,-146 159,-179 27,-14 73,-44 100,-66 90,-70 249,-137 330,-138 35,0 15,16 -42,32 -59,18 -133,76 -160,126 -10,19 -7,23 33,41 58,25 125,93 157,156 21,43 24,64 24,155 0,90 -3,111 -23,148 -58,110 -152,173 -262,178 -36,2 -78,0 -95,-5 z m 155,-43 c 81,-41 121,-134 121,-287 1,-153 -39,-243 -126,-282 -79,-37 -159,-19 -214,47 -76,93 -92,315 -31,433 52,102 153,138 250,89 z"
       id="path88" />
    <path
       d="m 10770,22255 v -115 h -115 c -108,0 -115,-1 -115,-20 0,-19 7,-20 115,-20 h 115 v -115 c 0,-108 1,-115 20,-115 19,0 20,7 20,115 v 115 h 120 c 113,0 120,1 120,20 0,19 -7,20 -120,20 h -120 v 115 c 0,108 -1,115 -20,115 -19,0 -20,-7 -20,-115 z"
       id="path90" />
    <path
       d="m 8870,21880 c -41,-41 -8,-98 49,-85 30,6 31,5 31,-25 0,-32 -38,-79 -85,-106 -11,-7 -17,-15 -13,-19 12,-12 98,45 119,78 29,48 26,117 -7,151 -32,31 -67,33 -94,6 z"
       id="path92" />
    <path
       d="m 10070,21880 c -41,-41 -8,-98 49,-85 30,6 31,5 31,-25 0,-32 -38,-79 -85,-106 -11,-7 -17,-15 -13,-19 12,-12 98,45 119,78 29,48 26,117 -7,151 -32,31 -67,33 -94,6 z"
       id="path94" />
    <path
       d="m 9690,20225 v -815 h 35 35 v 815 815 h -35 -35 z"
       id="path96" />
    <path
       d="m 9451,19573 c 18,-50 265,-593 270,-593 7,0 271,582 266,587 -2,2 -53,-52 -113,-119 l -109,-122 -3,37 c -3,35 -5,37 -37,37 -32,0 -34,-2 -37,-40 l -3,-41 -119,133 c -66,73 -117,127 -115,121 z"
       id="path98" />
    <path
       d="m 10040,18428 c -85,-44 -84,-40 -90,-468 -3,-206 -9,-381 -13,-387 -6,-10 2,-13 31,-13 49,0 52,5 59,136 l 6,100 36,-18 c 50,-27 127,-20 179,15 76,50 114,176 78,260 -13,33 -78,97 -97,97 -6,0 3,13 20,29 52,49 66,121 35,187 -36,75 -159,106 -244,62 z m 131,-18 c 45,-25 63,-122 36,-200 -12,-34 -14,-35 -62,-35 -43,0 -50,-3 -50,-20 0,-17 7,-20 48,-21 54,-1 67,-13 92,-83 21,-62 19,-153 -4,-199 -32,-62 -105,-81 -168,-42 l -33,20 v 257 c 1,195 4,264 14,282 24,44 84,63 127,41 z"
       id="path100" />
    <path
       d="m 6882,18414 c -91,-47 -142,-162 -142,-323 0,-114 15,-174 62,-242 96,-142 251,-106 320,73 26,68 34,196 18,281 -31,165 -153,265 -258,211 z m 99,-24 c 57,-31 89,-198 72,-379 -13,-133 -36,-192 -83,-211 -63,-26 -109,25 -131,146 -13,70 -6,289 12,352 22,79 79,119 130,92 z"
       id="path102" />
    <path
       d="m 11488,18411 c 19,-5 39,-14 45,-20 9,-9 12,-94 12,-296 0,-202 -3,-287 -12,-296 -6,-6 -26,-15 -45,-19 -21,-5 17,-8 107,-8 93,0 129,3 105,8 -54,13 -60,29 -60,166 v 123 l 68,-6 c 86,-7 143,9 186,52 57,57 66,160 18,224 -10,14 -39,37 -63,51 -42,24 -53,25 -219,27 -111,1 -163,-1 -142,-6 z m 265,-32 c 44,-23 66,-53 78,-105 27,-120 -56,-208 -168,-178 -22,6 -23,10 -23,144 0,101 3,140 13,143 23,10 78,7 100,-4 z"
       id="path104" />
    <path
       d="m 7680,18225 v -115 h -115 c -108,0 -115,-1 -115,-20 0,-19 7,-20 115,-20 h 115 v -115 c 0,-108 1,-115 20,-115 19,0 20,7 20,115 v 115 h 120 c 113,0 120,1 120,20 0,19 -7,20 -120,20 h -120 v 115 c 0,108 -1,115 -20,115 -19,0 -20,-7 -20,-115 z"
       id="path106" />
    <path
       d="m 9300,18225 v -115 h -115 c -108,0 -115,-1 -115,-20 0,-19 7,-20 115,-20 h 115 v -115 c 0,-108 1,-115 20,-115 19,0 20,7 20,115 v 115 h 120 c 113,0 120,1 120,20 0,19 -7,20 -120,20 h -120 v 115 c 0,108 -1,115 -20,115 -19,0 -20,-7 -20,-115 z"
       id="path108" />
    <path
       d="m 8401,18199 c -49,-30 -69,-57 -87,-118 -32,-108 -1,-243 67,-294 61,-44 184,-24 224,37 18,28 35,26 35,-3 0,-11 8,-29 18,-41 26,-32 64,-21 86,24 18,38 21,86 6,86 -5,0 -10,-8 -10,-18 0,-47 -52,-56 -75,-12 -20,39 -20,46 15,196 16,71 30,135 30,142 0,7 -14,12 -39,12 h -39 l -12,-66 -13,-67 -25,53 c -40,85 -111,112 -181,69 z m 123,-32 c 13,-13 33,-50 45,-82 24,-63 23,-84 -5,-182 -32,-114 -109,-150 -151,-69 -21,41 -30,199 -14,263 22,87 77,118 125,70 z"
       id="path110" />
    <path
       d="m 10890,18160 c 0,-19 7,-20 235,-20 h 235 v -75 c 0,-68 2,-75 20,-75 19,0 20,7 20,95 v 95 h -255 c -248,0 -255,-1 -255,-20 z"
       id="path112" />
    <path
       d="m 12420,17990 v -40 h 120 120 v 40 40 h -120 -120 z"
       id="path114" />
    <path
       d="m 10420,17850 c -41,-41 -8,-98 49,-85 30,6 31,5 31,-25 0,-32 -38,-79 -85,-106 -11,-7 -17,-15 -13,-19 12,-12 98,45 119,78 29,48 26,117 -7,151 -32,31 -67,33 -94,6 z"
       id="path116" />
    <path
       d="m 11930,17850 c -41,-41 -8,-98 49,-85 30,6 31,5 31,-25 0,-32 -38,-79 -85,-106 -11,-7 -17,-15 -13,-19 12,-12 98,45 119,78 29,48 26,117 -7,151 -32,31 -67,33 -94,6 z"
       id="path118" />
    <path
       d="m 8290,16189 -661,-842 23,-24 22,-24 22,23 c 12,13 312,394 668,846 l 646,824 -24,19 c -13,10 -27,19 -29,19 -3,0 -303,-379 -667,-841 z"
       id="path120" />
    <path
       d="m 10713,17008 -21,-23 890,-845 c 490,-465 898,-851 907,-858 15,-10 21,-8 40,12 l 22,24 -902,856 c -496,471 -905,856 -909,856 -3,0 -16,-10 -27,-22 z"
       id="path122" />
    <path
       d="m 7447,15278 c -43,-171 -76,-312 -75,-313 4,-4 579,298 575,301 -2,2 -76,-9 -165,-24 -89,-16 -162,-27 -162,-24 0,2 9,16 21,30 l 21,27 -27,23 -27,23 -20,-26 c -11,-14 -23,-23 -28,-20 -4,3 -11,72 -15,155 -4,83 -10,152 -14,154 -4,3 -42,-135 -84,-306 z"
       id="path124" />
    <path
       d="m 12614,15560 c 3,-14 8,-68 11,-120 3,-52 8,-120 11,-150 l 6,-55 -29,28 -29,27 -24,-25 -24,-25 29,-30 28,-29 -174,6 c -96,3 -172,3 -169,0 6,-7 612,-218 615,-215 3,4 -241,598 -250,606 -3,4 -4,-4 -1,-18 z"
       id="path126" />
    <path
       d="m 14755,14391 c -95,-25 -191,-114 -221,-204 -10,-29 -17,-82 -17,-122 0,-40 7,-93 17,-122 22,-66 93,-146 159,-179 27,-14 73,-44 100,-66 90,-70 249,-137 330,-138 35,0 15,16 -42,32 -59,18 -133,76 -160,126 -10,19 -7,23 33,41 58,25 125,93 157,156 21,43 24,64 24,155 0,90 -3,111 -23,148 -58,110 -152,173 -262,178 -36,2 -78,0 -95,-5 z m 155,-43 c 81,-41 121,-134 121,-287 1,-153 -39,-243 -126,-282 -79,-37 -159,-19 -214,47 -76,93 -92,315 -31,433 52,102 153,138 250,89 z"
       id="path128" />
    <path
       d="m 6538,14381 c 19,-5 39,-14 45,-20 17,-17 17,-575 0,-592 -6,-6 -26,-15 -45,-19 -21,-5 17,-8 107,-8 93,0 129,3 105,8 -54,13 -60,29 -60,166 v 123 l 68,-6 c 86,-7 143,9 186,52 57,57 66,160 18,224 -10,14 -39,37 -63,51 -42,24 -53,25 -219,27 -111,1 -163,-1 -142,-6 z m 265,-32 c 44,-23 66,-53 78,-105 27,-120 -56,-208 -168,-178 -22,6 -23,10 -23,144 0,101 3,140 13,143 23,10 78,7 100,-4 z"
       id="path130" />
    <path
       d="m 12390,14195 v -115 h -115 c -108,0 -115,-1 -115,-20 0,-19 7,-20 115,-20 h 115 v -115 c 0,-108 1,-115 20,-115 19,0 20,7 20,115 v 115 h 120 c 113,0 120,1 120,20 0,19 -7,20 -120,20 h -120 v 115 c 0,108 -1,115 -20,115 -19,0 -20,-7 -20,-115 z"
       id="path132" />
    <path
       d="m 15930,14195 v -115 h -115 c -108,0 -115,-1 -115,-20 0,-19 7,-20 115,-20 h 115 v -115 c 0,-108 1,-115 20,-115 19,0 20,7 20,115 v 115 h 120 c 113,0 120,1 120,20 0,19 -7,20 -120,20 h -120 v 115 c 0,108 -1,115 -20,115 -19,0 -20,-7 -20,-115 z"
       id="path134" />
    <path
       d="m 11491,14169 c -49,-30 -69,-57 -87,-118 -32,-108 -1,-243 67,-294 61,-44 184,-24 224,37 18,28 35,26 35,-3 0,-11 8,-29 18,-41 26,-32 64,-21 86,24 18,38 21,86 6,86 -5,0 -10,-8 -10,-18 0,-47 -52,-56 -75,-12 -20,39 -20,46 15,196 16,71 30,135 30,142 0,7 -14,12 -39,12 h -39 l -12,-66 -13,-67 -25,53 c -40,85 -111,112 -181,69 z m 123,-32 c 13,-13 33,-50 45,-82 24,-63 23,-84 -5,-182 -32,-114 -109,-150 -151,-69 -21,41 -30,199 -14,263 22,87 77,118 125,70 z"
       id="path136" />
    <path
       d="m 5608,14166 c -35,-26 -66,-146 -38,-146 6,0 10,11 10,25 0,30 32,65 60,65 48,0 72,-54 106,-234 l 18,-98 -22,-62 c -29,-82 -37,-138 -23,-165 15,-27 33,-27 57,0 16,18 19,38 20,133 l 1,111 58,120 c 31,66 72,153 91,193 l 33,72 h -48 -48 l -43,-147 c -23,-82 -45,-154 -49,-161 -4,-7 -13,24 -20,70 -17,118 -38,186 -66,214 -27,27 -70,31 -97,10 z"
       id="path138" />
    <path
       d="m 13018,14166 c -35,-26 -66,-146 -38,-146 6,0 10,11 10,25 0,30 32,65 60,65 48,0 72,-54 106,-234 l 18,-98 -22,-62 c -29,-82 -37,-138 -23,-165 15,-27 33,-27 57,0 16,18 19,38 20,133 l 1,111 58,120 c 31,66 72,153 91,193 l 33,72 h -48 -48 l -43,-147 c -23,-82 -45,-154 -49,-161 -4,-7 -13,24 -20,70 -17,118 -38,186 -66,214 -27,27 -70,31 -97,10 z"
       id="path140" />
    <path
       d="m 13930,14130 c 0,-19 7,-20 235,-20 h 235 v -75 c 0,-68 2,-75 20,-75 19,0 20,7 20,95 v 95 h -255 c -248,0 -255,-1 -255,-20 z"
       id="path142" />
    <path
       d="m 7470,13960 v -40 h 120 120 v 40 40 h -120 -120 z"
       id="path144" />
    <path
       d="m 6040,13820 c -41,-41 -8,-98 49,-85 30,6 31,5 31,-25 0,-32 -38,-79 -85,-106 -11,-7 -17,-15 -13,-19 12,-12 98,45 119,78 29,48 26,117 -7,151 -32,31 -67,33 -94,6 z"
       id="path146" />
    <path
       d="m 6980,13820 c -41,-41 -8,-98 49,-85 30,6 31,5 31,-25 0,-32 -38,-79 -85,-106 -11,-7 -17,-15 -13,-19 12,-12 98,45 119,78 29,48 26,117 -7,151 -32,31 -67,33 -94,6 z"
       id="path148" />
    <path
       d="m 13460,13820 c -41,-41 -8,-98 49,-85 30,6 31,5 31,-25 0,-32 -38,-79 -85,-106 -11,-7 -17,-15 -13,-19 12,-12 98,45 119,78 29,48 26,117 -7,151 -32,31 -67,33 -94,6 z"
       id="path150" />
    <path
       d="m 15230,13820 c -41,-41 -8,-98 49,-85 30,6 31,5 31,-25 0,-32 -38,-79 -85,-106 -11,-7 -17,-15 -13,-19 12,-12 98,45 119,78 29,48 26,117 -7,151 -32,31 -67,33 -94,6 z"
       id="path152" />
    <path
       d="m 5752,12175 c -226,-454 -412,-829 -412,-833 0,-9 50,-35 55,-30 8,9 825,1649 825,1656 0,7 -42,32 -53,32 -1,0 -188,-371 -415,-825 z"
       id="path154" />
    <path
       d="m 14057,12983 c -14,-3 -17,-11 -13,-26 3,-12 101,-379 218,-815 l 212,-794 30,6 c 16,4 31,8 33,10 2,2 -94,369 -213,815 -174,648 -221,811 -233,810 -9,-1 -24,-3 -34,-6 z"
       id="path156" />
    <path
       d="m 5190,11535 c -1,-33 -7,-183 -13,-333 -7,-149 -8,-271 -4,-269 13,4 497,401 493,404 -2,3 -131,-46 -304,-114 -9,-4 -8,5 4,31 17,35 17,37 -2,51 -28,21 -40,18 -54,-15 -13,-30 -30,-40 -30,-17 0,6 -20,82 -44,167 l -44,155 z"
       id="path158" />
    <path
       d="m 14650,11420 c -41,-82 -77,-147 -81,-145 -3,3 -9,18 -12,35 -7,33 -13,35 -51,20 -23,-8 -24,-12 -16,-41 5,-18 8,-34 6,-36 -2,-2 -50,27 -107,65 -156,102 -188,120 -168,96 8,-10 103,-126 209,-257 107,-132 195,-235 197,-230 7,24 104,636 101,639 -2,2 -37,-64 -78,-146 z"
       id="path160" />
    <path
       d="m 4170,10368 c -85,-44 -84,-40 -90,-468 -3,-206 -9,-381 -13,-387 -6,-10 2,-13 31,-13 49,0 52,5 59,136 l 6,100 36,-18 c 50,-27 127,-20 179,15 76,50 114,176 78,260 -13,33 -78,97 -97,97 -6,0 3,13 20,29 52,49 66,121 35,187 -36,75 -159,106 -244,62 z m 131,-18 c 45,-25 63,-122 36,-200 -12,-34 -14,-35 -62,-35 -43,0 -50,-3 -50,-20 0,-17 7,-20 48,-21 54,-1 67,-13 92,-83 21,-62 19,-153 -4,-199 -32,-62 -105,-81 -168,-42 l -33,20 v 257 c 1,195 4,264 14,282 24,44 84,63 127,41 z"
       id="path162" />
    <path
       d="m 14310,10368 c -85,-44 -84,-40 -90,-468 -3,-206 -9,-381 -13,-387 -6,-10 2,-13 31,-13 49,0 52,5 59,136 l 6,100 36,-18 c 50,-27 127,-20 179,15 76,50 114,176 78,260 -13,33 -78,97 -97,97 -6,0 3,13 20,29 52,49 66,121 35,187 -36,75 -159,106 -244,62 z m 131,-18 c 45,-25 63,-122 36,-200 -12,-34 -14,-35 -62,-35 -43,0 -50,-3 -50,-20 0,-17 7,-20 48,-21 54,-1 67,-13 92,-83 21,-62 19,-153 -4,-199 -32,-62 -105,-81 -168,-42 l -33,20 v 257 c 1,195 4,264 14,282 24,44 84,63 127,41 z"
       id="path164" />
    <path
       d="m 7699,10352 c -92,-59 -173,-182 -198,-300 -31,-150 10,-320 105,-430 37,-44 134,-116 143,-106 3,2 -18,28 -46,57 -66,67 -89,116 -108,223 -18,106 -19,205 -1,305 19,106 48,166 108,222 28,26 49,50 46,52 -2,3 -24,-8 -49,-23 z"
       id="path166" />
    <path
       d="m 8300,10375 c 0,-3 22,-28 49,-54 27,-26 58,-65 69,-87 31,-61 52,-182 52,-296 0,-183 -40,-301 -125,-375 -25,-23 -45,-44 -45,-47 0,-17 85,43 130,90 87,92 130,203 130,340 0,132 -44,247 -130,338 -44,47 -130,107 -130,91 z"
       id="path168" />
    <path
       d="m 17839,10352 c -92,-59 -173,-182 -198,-300 -31,-150 10,-320 105,-430 37,-44 134,-116 143,-106 3,2 -18,28 -46,57 -66,67 -89,116 -108,223 -18,106 -19,205 -1,305 19,106 48,166 108,222 28,26 49,50 46,52 -2,3 -24,-8 -49,-23 z"
       id="path170" />
    <path
       d="m 18440,10375 c 0,-3 22,-28 49,-54 27,-26 58,-65 69,-87 31,-61 52,-182 52,-296 0,-183 -40,-301 -125,-375 -25,-23 -45,-44 -45,-47 0,-17 85,43 130,90 87,92 130,203 130,340 0,132 -44,247 -130,338 -44,47 -130,107 -130,91 z"
       id="path172" />
    <path
       d="m 1012,10354 c -91,-47 -142,-162 -142,-323 0,-114 15,-174 62,-242 96,-142 251,-106 320,73 26,68 34,196 18,281 -31,165 -153,265 -258,211 z m 99,-24 c 57,-31 89,-198 72,-379 -13,-133 -36,-192 -83,-211 -63,-26 -109,25 -131,146 -13,70 -6,289 12,352 22,79 79,119 130,92 z"
       id="path174" />
    <path
       d="m 5763,10337 c -40,-18 -73,-34 -73,-37 0,-4 16,-4 35,-2 30,4 36,1 45,-23 6,-15 10,-129 10,-269 0,-263 -1,-269 -55,-285 -21,-7 6,-9 95,-9 75,0 113,3 94,7 -17,4 -36,11 -42,15 -9,5 -12,93 -12,322 0,245 -3,314 -12,313 -7,0 -46,-15 -85,-32 z"
       id="path176" />
    <path
       d="m 11152,10354 c -91,-47 -142,-162 -142,-323 0,-114 15,-174 62,-242 96,-142 251,-106 320,73 26,68 34,196 18,281 -31,165 -153,265 -258,211 z m 99,-24 c 57,-31 89,-198 72,-379 -13,-133 -36,-192 -83,-211 -63,-26 -109,25 -131,146 -13,70 -6,289 12,352 22,79 79,119 130,92 z"
       id="path178" />
    <path
       d="m 15903,10337 c -40,-18 -73,-34 -73,-37 0,-4 16,-4 35,-2 30,4 36,1 45,-23 6,-15 10,-129 10,-269 0,-263 -1,-269 -55,-285 -21,-7 6,-9 95,-9 75,0 113,3 94,7 -17,4 -36,11 -42,15 -9,5 -12,93 -12,322 0,245 -3,314 -12,313 -7,0 -46,-15 -85,-32 z"
       id="path180" />
    <path
       d="m 7808,10351 c 19,-5 39,-14 45,-20 17,-17 17,-575 0,-592 -6,-6 -26,-15 -45,-19 -21,-5 17,-8 107,-8 93,0 129,3 105,8 -54,13 -60,29 -60,166 v 123 l 68,-6 c 86,-7 143,9 186,52 57,57 66,160 18,224 -10,14 -39,37 -63,51 -42,24 -53,25 -219,27 -111,1 -163,-1 -142,-6 z m 265,-32 c 44,-23 66,-53 78,-105 27,-120 -56,-208 -168,-178 -22,6 -23,10 -23,144 0,101 3,140 13,143 23,10 78,7 100,-4 z"
       id="path182" />
    <path
       d="m 17948,10351 c 19,-5 39,-14 45,-20 9,-9 12,-94 12,-296 0,-202 -3,-287 -12,-296 -6,-6 -26,-15 -45,-19 -21,-5 17,-8 107,-8 93,0 129,3 105,8 -54,13 -60,29 -60,166 v 123 l 68,-6 c 86,-7 143,9 186,52 57,57 66,160 18,224 -10,14 -39,37 -63,51 -42,24 -53,25 -219,27 -111,1 -163,-1 -142,-6 z m 265,-32 c 44,-23 66,-53 78,-105 27,-120 -56,-208 -168,-178 -22,6 -23,10 -23,144 0,101 3,140 13,143 23,10 78,7 100,-4 z"
       id="path184" />
    <path
       d="m 1810,10165 v -115 h -115 c -108,0 -115,-1 -115,-20 0,-19 7,-20 115,-20 h 115 v -115 c 0,-108 1,-115 20,-115 19,0 20,7 20,115 v 115 h 120 c 113,0 120,1 120,20 0,19 -7,20 -120,20 h -120 v 115 c 0,108 -1,115 -20,115 -19,0 -20,-7 -20,-115 z"
       id="path186" />
    <path
       d="m 3430,10165 v -115 h -115 c -108,0 -115,-1 -115,-20 0,-19 7,-20 115,-20 h 115 v -115 c 0,-108 1,-115 20,-115 19,0 20,7 20,115 v 115 h 120 c 113,0 120,1 120,20 0,19 -7,20 -120,20 h -120 v 115 c 0,108 -1,115 -20,115 -19,0 -20,-7 -20,-115 z"
       id="path188" />
    <path
       d="m 11950,10165 v -115 h -115 c -108,0 -115,-1 -115,-20 0,-19 7,-20 115,-20 h 115 v -115 c 0,-108 1,-115 20,-115 19,0 20,7 20,115 v 115 h 120 c 113,0 120,1 120,20 0,19 -7,20 -120,20 h -120 v 115 c 0,108 -1,115 -20,115 -19,0 -20,-7 -20,-115 z"
       id="path190" />
    <path
       d="m 13570,10165 v -115 h -115 c -108,0 -115,-1 -115,-20 0,-19 7,-20 115,-20 h 115 v -115 c 0,-108 1,-115 20,-115 19,0 20,7 20,115 v 115 h 120 c 113,0 120,1 120,20 0,19 -7,20 -120,20 h -120 v 115 c 0,108 -1,115 -20,115 -19,0 -20,-7 -20,-115 z"
       id="path192" />
    <path
       d="m 5017,10157 c -136,-62 -248,-116 -248,-122 -1,-5 104,-57 233,-115 291,-132 268,-123 268,-101 0,14 -49,40 -217,116 -120,54 -219,99 -221,100 -1,1 93,44 210,95 117,51 217,97 221,101 5,4 7,14 5,23 -2,12 -55,-8 -251,-97 z"
       id="path194" />
    <path
       d="m 15157,10157 c -136,-62 -248,-116 -248,-122 -1,-5 104,-57 233,-115 291,-132 268,-123 268,-101 0,14 -49,40 -217,116 -120,54 -219,99 -221,100 -1,1 93,44 210,95 117,51 217,97 221,101 5,4 7,14 5,23 -2,12 -55,-8 -251,-97 z"
       id="path196" />
    <path
       d="m 2541,10139 c -49,-30 -69,-57 -87,-118 -32,-108 -1,-243 67,-294 61,-44 184,-24 224,37 18,28 35,26 35,-3 0,-11 8,-29 18,-41 26,-32 64,-21 86,24 18,38 21,86 6,86 -5,0 -10,-8 -10,-18 0,-47 -52,-56 -75,-12 -20,39 -20,46 15,196 16,71 30,135 30,142 0,7 -14,12 -39,12 h -39 l -12,-66 -13,-67 -25,53 c -40,85 -111,112 -181,69 z m 123,-32 c 13,-13 33,-50 45,-82 24,-63 23,-84 -5,-182 -32,-114 -109,-150 -151,-69 -21,41 -30,199 -14,263 22,87 77,118 125,70 z"
       id="path198" />
    <path
       d="m 12671,10139 c -49,-30 -69,-57 -87,-118 -32,-108 -1,-243 67,-294 61,-44 184,-24 224,37 18,28 35,26 35,-3 0,-11 8,-29 18,-41 26,-32 64,-21 86,24 18,38 21,86 6,86 -5,0 -10,-8 -10,-18 0,-47 -52,-56 -75,-12 -20,39 -20,46 15,196 16,71 30,135 30,142 0,7 -14,12 -39,12 h -39 l -12,-66 -13,-67 -25,53 c -40,85 -111,112 -181,69 z m 123,-32 c 13,-13 33,-50 45,-82 24,-63 23,-84 -5,-182 -32,-114 -109,-150 -151,-69 -21,41 -30,199 -14,263 22,87 77,118 125,70 z"
       id="path200" />
    <path
       d="m 6960,9913 c -1,-171 -5,-255 -15,-298 -21,-87 -4,-126 46,-110 26,9 33,45 20,105 -6,28 -11,67 -11,86 0,34 1,35 22,20 35,-25 80,-19 131,15 26,17 50,36 54,41 3,6 13,-4 22,-23 20,-42 57,-57 100,-39 33,13 44,28 55,73 8,34 -11,36 -24,2 -5,-14 -15,-25 -23,-25 -33,0 -37,23 -37,207 v 183 h -40 -40 v -163 c 0,-157 -1,-164 -22,-184 -53,-48 -103,-56 -134,-22 -17,19 -19,41 -22,195 l -3,174 h -40 -39 z"
       id="path202" />
    <path
       d="m 17100,9913 c -1,-171 -5,-255 -15,-298 -21,-87 -4,-126 46,-110 26,9 33,45 20,105 -6,28 -11,67 -11,86 0,34 1,35 22,20 35,-25 80,-19 131,15 26,17 50,36 54,41 3,6 13,-4 22,-23 20,-42 57,-57 100,-39 33,13 44,28 55,73 8,34 -11,36 -24,2 -5,-14 -15,-25 -23,-25 -33,0 -37,23 -37,207 v 183 h -40 -40 v -163 c 0,-157 -1,-164 -22,-184 -53,-48 -103,-56 -134,-22 -17,19 -19,41 -22,195 l -3,174 h -40 -39 z"
       id="path204" />
    <path
       d="m 6340,9930 v -40 h 120 120 v 40 40 h -120 -120 z"
       id="path206" />
    <path
       d="m 16480,9930 v -40 h 120 120 v 40 40 h -120 -120 z"
       id="path208" />
    <path
       d="m 4690,8145 v -815 h 35 35 v 815 815 h -35 -35 z"
       id="path210" />
    <path
       d="m 14830,8146 v -816 h 35 35 l -2,813 -3,812 -32,3 -33,3 z"
       id="path212" />
    <path
       d="m 4473,7440 c 61,-139 240,-536 246,-542 3,-4 66,126 139,289 73,162 132,297 130,298 -2,2 -53,-52 -113,-120 l -110,-122 -3,38 c -3,37 -5,39 -38,39 -33,0 -34,-1 -34,-42 v -43 l -43,45 c -23,25 -77,83 -120,130 l -77,85 z"
       id="path214" />
    <path
       d="m 14603,7460 c 18,-43 247,-552 254,-563 3,-5 65,125 139,289 74,163 133,299 131,300 -1,2 -53,-53 -114,-121 l -112,-125 -3,38 c -3,34 -6,37 -35,40 -33,3 -33,3 -33,-40 v -43 l -48,50 c -26,28 -80,86 -120,130 -61,67 -71,75 -59,45 z"
       id="path216" />
    <path
       d="m 3180,6338 c -85,-44 -84,-40 -90,-468 -3,-206 -9,-381 -13,-387 -6,-10 2,-13 31,-13 49,0 52,5 59,136 l 6,100 36,-18 c 50,-27 127,-20 179,15 76,50 114,176 78,260 -13,33 -78,97 -97,97 -6,0 3,13 20,29 52,49 66,121 35,187 -36,75 -159,106 -244,62 z m 131,-18 c 45,-25 63,-122 36,-200 -12,-34 -14,-35 -62,-35 -43,0 -50,-3 -50,-20 0,-17 7,-20 48,-21 54,-1 67,-13 92,-83 21,-62 19,-153 -4,-199 -32,-62 -105,-81 -168,-42 l -33,20 v 257 c 1,195 4,264 14,282 24,44 84,63 127,41 z"
       id="path218" />
    <path
       d="m 13320,6338 c -85,-44 -84,-40 -90,-468 -3,-206 -9,-381 -13,-387 -6,-10 2,-13 31,-13 49,0 52,5 59,136 l 6,100 36,-18 c 50,-27 127,-20 179,15 76,50 114,176 78,260 -13,33 -78,97 -97,97 -6,0 3,13 20,29 52,49 66,121 35,187 -36,75 -159,106 -244,62 z m 131,-18 c 45,-25 63,-122 36,-200 -12,-34 -14,-35 -62,-35 -43,0 -50,-3 -50,-20 0,-17 7,-20 48,-21 54,-1 67,-13 92,-83 21,-62 19,-153 -4,-199 -32,-62 -105,-81 -168,-42 l -33,20 v 257 c 1,195 4,264 14,282 24,44 84,63 127,41 z"
       id="path220" />
    <path
       d="m 5349,6322 c -92,-59 -173,-182 -198,-300 -31,-150 10,-320 105,-430 37,-44 134,-116 143,-106 3,2 -18,28 -46,57 -66,67 -89,116 -108,223 -18,106 -19,205 -1,305 19,106 48,166 108,222 28,26 49,50 46,52 -2,3 -24,-8 -49,-23 z"
       id="path222" />
    <path
       d="m 6110,6345 c 0,-3 22,-28 49,-54 27,-26 58,-65 69,-87 31,-61 52,-182 52,-296 0,-183 -40,-301 -125,-375 -25,-23 -45,-44 -45,-47 0,-17 85,43 130,90 87,92 130,203 130,340 0,132 -44,247 -130,338 -44,47 -130,107 -130,91 z"
       id="path224" />
    <path
       d="m 15489,6322 c -92,-59 -173,-182 -198,-300 -31,-150 10,-320 105,-430 37,-44 134,-116 143,-106 3,2 -18,28 -46,57 -66,67 -89,116 -108,223 -18,106 -19,205 -1,305 19,106 48,166 108,222 28,26 49,50 46,52 -2,3 -24,-8 -49,-23 z"
       id="path226" />
    <path
       d="m 16250,6345 c 0,-3 22,-28 49,-54 27,-26 58,-65 69,-87 31,-61 52,-182 52,-296 0,-183 -40,-301 -125,-375 -25,-23 -45,-44 -45,-47 0,-17 85,43 130,90 87,92 130,203 130,340 0,132 -44,247 -130,338 -44,47 -130,107 -130,91 z"
       id="path228" />
    <path
       d="m 5695,6331 c -95,-25 -191,-114 -221,-204 -10,-29 -17,-82 -17,-122 0,-40 7,-93 17,-122 22,-66 93,-146 159,-179 27,-14 73,-44 100,-66 90,-70 249,-137 330,-138 35,0 15,16 -42,32 -59,18 -133,76 -160,126 -10,19 -7,23 33,41 58,25 125,93 157,156 21,43 24,64 24,155 0,90 -3,111 -23,148 -58,110 -152,173 -262,178 -36,2 -78,0 -95,-5 z m 155,-43 c 81,-41 121,-134 121,-287 1,-153 -39,-243 -126,-282 -79,-37 -159,-19 -214,47 -76,93 -92,315 -31,433 52,102 153,138 250,89 z"
       id="path230" />
    <path
       d="m 15835,6331 c -95,-25 -191,-114 -221,-204 -10,-29 -17,-82 -17,-122 0,-40 7,-93 17,-122 22,-66 93,-146 159,-179 27,-14 73,-44 100,-66 90,-70 249,-137 330,-138 35,0 15,16 -42,32 -59,18 -133,76 -160,126 -10,19 -7,23 33,41 58,25 125,93 157,156 21,43 24,64 24,155 0,90 -3,111 -23,148 -58,110 -152,173 -262,178 -36,2 -78,0 -95,-5 z m 155,-43 c 81,-41 121,-134 121,-287 1,-153 -39,-243 -126,-282 -79,-37 -159,-19 -214,47 -76,93 -92,315 -31,433 52,102 153,138 250,89 z"
       id="path232" />
    <path
       d="m 3762,6248 c 2,-18 39,-38 221,-116 119,-52 217,-98 217,-101 0,-3 -98,-46 -216,-95 -203,-84 -231,-100 -222,-125 3,-12 495,209 498,223 1,7 -269,135 -478,226 -21,9 -23,8 -20,-12 z"
       id="path234" />
    <path
       d="m 13902,6248 c 2,-18 39,-38 221,-116 119,-52 217,-98 217,-101 0,-3 -98,-46 -216,-95 -203,-84 -231,-100 -222,-125 3,-12 495,209 498,223 1,7 -269,135 -478,226 -21,9 -23,8 -20,-12 z"
       id="path236" />
    <path
       d="m 4620,5883 c -1,-171 -5,-255 -15,-298 -21,-87 -4,-126 46,-110 26,9 33,45 20,105 -6,28 -11,67 -11,86 0,34 1,35 22,20 35,-25 80,-19 131,15 26,17 50,36 54,41 3,6 13,-4 22,-23 20,-42 57,-57 100,-39 33,13 44,28 55,73 8,34 -11,36 -24,2 -5,-14 -15,-25 -23,-25 -33,0 -37,23 -37,207 v 183 h -40 -40 v -163 c 0,-157 -1,-164 -22,-184 -53,-48 -103,-56 -134,-22 -17,19 -19,41 -22,195 l -3,174 h -40 -39 z"
       id="path238" />
    <path
       d="m 14760,5883 c -1,-171 -5,-255 -15,-298 -21,-87 -4,-126 46,-110 26,9 33,45 20,105 -6,28 -11,67 -11,86 0,34 1,35 22,20 35,-25 80,-19 131,15 26,17 50,36 54,41 3,6 13,-4 22,-23 20,-42 57,-57 100,-39 33,13 44,28 55,73 8,34 -11,36 -24,2 -5,-14 -15,-25 -23,-25 -33,0 -37,23 -37,207 v 183 h -40 -40 v -163 c 0,-157 -1,-164 -22,-184 -53,-48 -103,-56 -134,-22 -17,19 -19,41 -22,195 l -3,174 h -40 -39 z"
       id="path240" />
    <path
       d="m 3760,5630 c 0,-19 7,-20 255,-20 248,0 255,1 255,20 0,19 -7,20 -255,20 -248,0 -255,-1 -255,-20 z"
       id="path242" />
    <path
       d="m 13900,5630 c 0,-19 7,-20 255,-20 248,0 255,1 255,20 0,19 -7,20 -255,20 -248,0 -255,-1 -255,-20 z"
       id="path244" />
    <path
       d="m 4690,4104 v -815 l 33,3 32,3 3,813 2,812 h -35 -35 z"
       id="path246" />
    <path
       d="m 14830,4105 v -816 l 33,3 32,3 v 810 810 l -32,3 -33,3 z"
       id="path248" />
    <path
       d="m 4458,3425 c 15,-30 232,-515 249,-554 l 15,-34 134,298 c 74,164 133,300 131,301 -2,2 -52,-51 -113,-119 l -109,-122 -3,38 c -3,35 -5,37 -38,37 -33,0 -34,-1 -34,-42 v -43 l -72,80 c -112,123 -170,182 -160,160 z"
       id="path250" />
    <path
       d="m 14602,3414 c 44,-104 254,-564 259,-564 6,0 270,582 265,587 -1,2 -52,-52 -112,-119 l -109,-122 -3,37 c -3,35 -5,37 -38,37 -33,0 -34,-1 -34,-42 l -1,-43 -77,85 c -42,47 -96,105 -120,130 -39,42 -41,43 -30,14 z"
       id="path252" />
    <path
       d="m 5419,2502 c -92,-59 -173,-182 -198,-300 -31,-150 10,-320 105,-430 37,-44 134,-116 143,-106 3,2 -18,28 -46,57 -66,67 -89,116 -108,223 -18,106 -19,205 -1,305 19,106 48,166 108,222 28,26 49,50 46,52 -2,3 -24,-8 -49,-23 z"
       id="path254" />
    <path
       d="m 6030,2525 c 0,-3 22,-28 49,-54 27,-26 58,-65 69,-87 31,-61 52,-182 52,-296 0,-183 -40,-301 -125,-375 -25,-23 -45,-44 -45,-47 0,-17 85,43 130,90 87,92 130,203 130,340 0,132 -44,247 -130,338 -44,47 -130,107 -130,91 z"
       id="path256" />
    <path
       d="m 16899,2502 c -92,-59 -173,-182 -198,-300 -31,-150 10,-320 105,-430 37,-44 134,-116 143,-106 3,2 -18,28 -46,57 -66,67 -89,116 -108,223 -18,106 -19,205 -1,305 19,106 48,166 108,222 28,26 49,50 46,52 -2,3 -24,-8 -49,-23 z"
       id="path258" />
    <path
       d="m 17660,2525 c 0,-3 22,-28 49,-54 27,-26 58,-65 69,-87 31,-61 52,-182 52,-296 0,-183 -40,-301 -125,-375 -25,-23 -45,-44 -45,-47 0,-17 85,43 130,90 87,92 130,203 130,340 0,132 -44,247 -130,338 -44,47 -130,107 -130,91 z"
       id="path260" />
    <path
       d="m 14963,2487 c -40,-18 -73,-34 -73,-37 0,-4 16,-4 35,-2 30,4 36,1 45,-23 6,-15 10,-129 10,-269 0,-263 -1,-269 -55,-285 -21,-7 6,-9 95,-9 75,0 113,3 94,7 -17,4 -36,11 -42,15 -9,5 -12,93 -12,322 0,245 -3,314 -12,313 -7,0 -46,-15 -85,-32 z"
       id="path262" />
    <path
       d="m 17235,2511 c -95,-25 -191,-114 -221,-204 -10,-29 -17,-82 -17,-122 0,-40 7,-93 17,-122 22,-66 93,-146 159,-179 27,-14 73,-44 100,-66 90,-70 249,-137 330,-138 35,0 15,16 -42,32 -59,18 -133,76 -160,126 -10,19 -7,23 33,41 58,25 125,93 157,156 21,43 24,64 24,155 0,90 -3,111 -23,148 -58,110 -152,173 -262,178 -36,2 -78,0 -95,-5 z m 155,-43 c 81,-41 121,-134 121,-287 1,-153 -39,-243 -126,-282 -79,-37 -159,-19 -214,47 -76,93 -92,315 -31,433 52,102 153,138 250,89 z"
       id="path264" />
    <path
       d="m 5538,2501 c 19,-5 39,-14 45,-20 17,-17 17,-575 0,-592 -6,-6 -26,-15 -45,-19 -21,-5 17,-8 107,-8 93,0 129,3 105,8 -54,13 -60,29 -60,166 v 123 l 68,-6 c 86,-7 143,9 186,52 57,57 66,160 18,224 -10,14 -39,37 -63,51 -42,24 -53,25 -219,27 -111,1 -163,-1 -142,-6 z m 265,-32 c 44,-23 66,-53 78,-105 27,-120 -56,-208 -168,-178 -22,6 -23,10 -23,144 0,101 3,140 13,143 23,10 78,7 100,-4 z"
       id="path266" />
    <path
       d="m 14002,2428 c 2,-18 39,-38 221,-116 119,-52 217,-98 217,-101 0,-3 -98,-46 -216,-95 -203,-84 -231,-100 -222,-125 3,-12 495,209 498,223 1,7 -269,135 -478,226 -21,9 -23,8 -20,-12 z"
       id="path268" />
    <path
       d="m 12730,2315 v -115 h -115 c -108,0 -115,-1 -115,-20 0,-19 7,-20 115,-20 h 115 v -115 c 0,-108 1,-115 20,-115 19,0 20,7 20,115 v 115 h 120 c 113,0 120,1 120,20 0,19 -7,20 -120,20 h -120 v 115 c 0,108 -1,115 -20,115 -19,0 -20,-7 -20,-115 z"
       id="path270" />
    <path
       d="m 4047,2307 c -136,-62 -248,-116 -248,-122 -1,-5 104,-57 233,-115 291,-132 268,-123 268,-101 0,14 -49,40 -217,116 -120,54 -219,99 -221,100 -1,1 93,44 210,95 117,51 217,97 221,101 5,4 7,14 5,23 -2,12 -55,-8 -251,-97 z"
       id="path272" />
    <path
       d="m 11841,2289 c -49,-30 -69,-57 -87,-118 -32,-108 -1,-243 67,-294 61,-44 184,-24 224,37 18,28 35,26 35,-3 0,-11 8,-29 18,-41 26,-32 64,-21 86,24 18,38 21,86 6,86 -5,0 -10,-8 -10,-18 0,-47 -52,-56 -75,-12 -20,39 -20,46 15,196 16,71 30,135 30,142 0,7 -14,12 -39,12 h -39 l -12,-66 -13,-67 -25,53 c -40,85 -111,112 -181,69 z m 123,-32 c 13,-13 33,-50 45,-82 24,-63 23,-84 -5,-182 -32,-114 -109,-150 -151,-69 -21,41 -30,199 -14,263 22,87 77,118 125,70 z"
       id="path274" />
    <path
       d="m 3138,2286 c -35,-26 -66,-146 -38,-146 6,0 10,11 10,25 0,30 32,65 60,65 48,0 72,-54 106,-234 l 18,-98 -22,-62 c -29,-82 -37,-138 -23,-165 15,-27 33,-27 57,0 16,18 19,38 20,133 l 1,111 58,120 c 31,66 72,153 91,193 l 33,72 h -48 -48 l -43,-147 c -23,-82 -45,-154 -49,-161 -4,-7 -13,24 -20,70 -17,118 -38,186 -66,214 -27,27 -70,31 -97,10 z"
       id="path276" />
    <path
       d="m 4690,2063 c -1,-171 -5,-255 -15,-298 -21,-87 -4,-126 46,-110 26,9 33,45 20,105 -6,28 -11,67 -11,86 0,34 1,35 22,20 35,-25 80,-19 131,15 26,17 50,36 54,41 3,6 13,-4 22,-23 20,-42 57,-57 100,-39 33,13 44,28 55,73 8,34 -11,36 -24,2 -5,-14 -15,-25 -23,-25 -33,0 -37,23 -37,207 v 183 h -40 -40 v -163 c 0,-157 -1,-164 -22,-184 -53,-48 -103,-56 -134,-22 -17,19 -19,41 -22,195 l -3,174 h -40 -39 z"
       id="path278" />
    <path
       d="m 13368,2286 c -35,-26 -66,-146 -38,-146 6,0 10,11 10,25 0,30 32,65 60,65 48,0 72,-54 106,-234 l 18,-98 -22,-62 c -29,-82 -37,-138 -23,-165 15,-27 33,-27 57,0 16,18 19,38 20,133 l 1,111 58,120 c 31,66 72,153 91,193 l 33,72 h -48 -48 l -43,-147 c -23,-82 -45,-154 -49,-161 -4,-7 -13,24 -20,70 -17,118 -38,186 -66,214 -27,27 -70,31 -97,10 z"
       id="path280" />
    <path
       d="m 16170,2063 c -1,-171 -5,-255 -15,-298 -21,-87 -4,-126 46,-110 26,9 33,45 20,105 -6,28 -11,67 -11,86 0,34 1,35 22,20 35,-25 80,-19 131,15 26,17 50,36 54,41 3,6 13,-4 22,-23 20,-42 57,-57 100,-39 33,13 44,28 55,73 8,34 -11,36 -24,2 -5,-14 -15,-25 -23,-25 -33,0 -37,23 -37,207 v 183 h -40 -40 v -163 c 0,-157 -1,-164 -22,-184 -53,-48 -103,-56 -134,-22 -17,19 -19,41 -22,195 l -3,174 h -40 -39 z"
       id="path282" />
    <path
       d="m 15540,2080 v -40 h 120 120 v 40 40 h -120 -120 z"
       id="path284" />
    <path
       d="m 14000,1810 c 0,-19 7,-20 255,-20 248,0 255,1 255,20 0,19 -7,20 -255,20 -248,0 -255,-1 -255,-20 z"
       id="path286" />
    <path
       d="m 4703,1417 c -210,-127 -382,-235 -383,-239 0,-4 38,-19 85,-33 47,-14 123,-37 171,-51 47,-14 84,-29 82,-34 -2,-5 -77,-88 -167,-186 -90,-98 -159,-180 -153,-182 11,-3 764,467 772,482 3,6 -71,29 -163,52 -93,23 -170,44 -172,46 -3,2 69,85 160,184 155,169 176,194 158,194 -5,0 -180,-105 -390,-233 z"
       id="path288" />
    <path
       d="m 14843,1417 c -210,-127 -382,-235 -383,-239 0,-4 38,-19 85,-33 47,-14 123,-37 171,-51 47,-14 84,-29 82,-34 -2,-5 -77,-88 -167,-186 -90,-98 -159,-180 -153,-182 11,-3 764,467 772,482 3,6 -71,29 -163,52 -93,23 -170,44 -172,46 -3,2 69,85 160,184 155,169 176,194 158,194 -5,0 -180,-105 -390,-233 z"
       id="path290" />
  </g>
</svg>
