<?xml version="1.0" encoding="UTF-8" standalone="no"?>
<svg
   version="1.0"
   width="1379.1987pt"
   height="328.16705pt"
   viewBox="0 0 1379.1987 328.16705"
   preserveAspectRatio="xMidYMid meet"
   id="svg24"
   xmlns="http://www.w3.org/2000/svg"
   xmlns:svg="http://www.w3.org/2000/svg">
  <defs
     id="defs28" />
  <metadata
     id="metadata2">
Created by potrace 1.16, written by Peter Selinger 2001-2019
</metadata>
  <g
     transform="matrix(0.1,0,0,-0.1,-25.74901,354.30004)"
     fill="#000000"
     stroke="none"
     id="g22">
    <path
       d="M 1775,3539 C 1196,3501 660,3132 410,2598 325,2416 274,2215 261,2017 233,1567 373,1151 664,817 896,553 1222,364 1575,290 c 130,-27 377,-37 511,-21 787,97 1395,730 1451,1513 l 6,88 h 638 639 v 35 35 h -639 -638 l -7,93 c -34,452 -272,892 -636,1172 -317,244 -711,361 -1125,334 z m 400,-90 c 144,-24 272,-66 420,-138 161,-79 277,-163 416,-301 222,-221 360,-477 431,-797 18,-83 22,-130 22,-308 0,-181 -3,-224 -22,-312 C 3304,958 2842,496 2207,358 c -88,-19 -131,-22 -312,-22 -231,1 -314,13 -498,74 -468,157 -844,538 -997,1010 -93,285 -97,629 -13,920 108,373 366,709 698,909 328,198 698,266 1090,200 z"
       id="path4" />
    <path
       d="m 2172,2284 c -91,-47 -142,-162 -142,-323 0,-114 15,-174 62,-242 96,-142 251,-106 320,73 26,68 34,196 18,281 -31,165 -153,265 -258,211 z m 99,-24 c 57,-31 89,-198 72,-379 -13,-133 -36,-192 -83,-211 -63,-26 -109,25 -131,146 -13,70 -6,289 12,352 22,79 79,119 130,92 z"
       id="path6" />
    <path
       d="m 1347,2053 c 21,-21 48,-81 103,-226 40,-108 78,-196 84,-194 6,2 37,63 70,135 32,72 62,130 65,127 3,-2 29,-62 56,-134 28,-72 55,-131 61,-131 6,0 46,92 89,205 59,156 84,210 104,225 l 26,19 h -75 c -62,0 -70,-2 -47,-11 15,-5 27,-17 27,-26 0,-21 -93,-272 -101,-272 -9,0 -99,233 -99,257 0,14 10,28 28,37 25,14 21,15 -78,15 -65,0 -97,-3 -85,-9 27,-10 40,-27 60,-76 l 16,-42 -43,-96 c -24,-52 -46,-96 -49,-96 -9,0 -99,252 -99,278 0,14 8,26 23,32 15,6 -5,9 -72,9 l -93,1 z"
       id="path8" />
    <path
       d="m 7027,3539 c -494,-33 -961,-307 -1243,-729 -151,-228 -239,-481 -271,-782 l -8,-76 -419,188 c -231,104 -421,188 -422,187 -2,-1 92,-88 208,-192 l 212,-190 -122,-3 -122,-3 v -34 -34 l 126,-3 126,-3 -216,-194 c -191,-171 -238,-216 -208,-197 21,12 835,376 837,374 1,-2 8,-55 15,-118 41,-384 197,-707 475,-986 200,-201 399,-323 660,-407 183,-58 282,-72 510,-71 225,0 321,15 515,80 586,195 1029,735 1100,1339 6,55 14,119 16,143 l 5,42 h 635 634 v 35 35 h -635 -634 l -5,33 c -3,17 -8,65 -11,105 -20,259 -145,578 -315,803 -346,458 -866,695 -1443,658 z m 378,-84 c 572,-88 1066,-511 1243,-1065 106,-332 105,-661 -3,-986 C 8487,928 8098,546 7625,402 c -192,-59 -251,-67 -475,-67 -231,1 -323,15 -511,81 -596,207 -1011,749 -1056,1376 -5,78 -4,90 12,102 17,12 17,13 0,20 -16,6 -17,16 -11,104 48,693 562,1280 1246,1424 185,38 379,43 575,13 z"
       id="path10" />
    <path
       d="m 7433,2267 c -40,-18 -73,-34 -73,-37 0,-4 16,-4 35,-2 30,4 36,1 45,-23 6,-15 10,-129 10,-269 0,-263 -1,-269 -55,-285 -21,-7 6,-9 95,-9 75,0 113,3 94,7 -17,4 -36,11 -42,15 -9,5 -12,93 -12,322 0,245 -3,314 -12,313 -7,0 -46,-15 -85,-32 z"
       id="path12" />
    <path
       d="m 6597,2053 c 21,-21 48,-81 103,-226 40,-108 78,-196 84,-194 6,2 37,63 70,135 32,72 62,130 65,127 3,-2 29,-62 56,-134 28,-72 55,-131 61,-131 6,0 46,92 89,205 59,156 84,210 104,225 l 26,19 h -75 c -62,0 -70,-2 -47,-11 15,-5 27,-17 27,-26 0,-21 -93,-272 -101,-272 -9,0 -99,233 -99,257 0,14 10,28 28,37 25,14 21,15 -78,15 -65,0 -97,-3 -85,-9 27,-10 40,-27 60,-76 l 16,-42 -43,-96 c -24,-52 -46,-96 -49,-96 -9,0 -99,252 -99,278 0,14 8,26 23,32 15,6 -5,9 -72,9 l -93,1 z"
       id="path14" />
    <path
       d="m 12285,3539 c -395,-26 -773,-203 -1056,-495 -133,-138 -211,-250 -300,-425 -85,-169 -159,-454 -159,-611 0,-44 -3,-59 -12,-55 -7,3 -179,80 -383,172 -503,227 -463,210 -442,187 10,-11 105,-97 211,-193 l 194,-174 -124,-3 -124,-3 v -34 -34 l 127,-3 127,-3 -204,-184 c -113,-101 -212,-191 -220,-198 -20,-18 -25,-21 445,191 214,97 392,176 396,176 3,0 9,-44 12,-97 36,-545 391,-1064 902,-1320 213,-107 422,-160 666,-170 471,-18 898,148 1228,478 395,396 559,952 445,1507 -66,322 -269,669 -515,883 -343,299 -756,438 -1214,408 z m 400,-90 c 213,-35 456,-136 637,-265 98,-70 285,-253 348,-342 168,-234 266,-481 300,-756 17,-132 7,-371 -19,-498 -133,-624 -602,-1092 -1234,-1230 -88,-19 -131,-22 -312,-22 -178,0 -225,4 -308,22 -698,154 -1194,712 -1257,1412 -8,93 -7,106 7,118 16,11 16,13 0,25 -14,11 -15,24 -7,115 34,383 183,707 447,976 372,376 869,534 1398,445 z"
       id="path16" />
    <path
       d="m 12634,2281 c -44,-20 -74,-56 -92,-110 -22,-64 -8,-71 25,-12 36,63 112,88 174,56 45,-24 69,-70 69,-136 0,-89 -43,-160 -182,-305 -65,-67 -118,-124 -118,-128 0,-4 86,-5 192,-4 l 191,3 19,54 c 10,30 16,56 14,59 -2,2 -14,-6 -25,-17 -29,-29 -51,-32 -176,-29 l -110,3 97,102 c 53,57 112,129 132,162 79,130 61,248 -47,300 -53,26 -109,26 -163,2 z"
       id="path18" />
    <path
       d="m 11857,2053 c 21,-21 48,-81 103,-226 40,-108 78,-196 84,-194 6,2 37,63 70,135 32,72 62,130 65,127 3,-2 29,-62 56,-134 28,-72 55,-131 61,-131 6,0 46,92 89,205 59,156 84,210 104,225 l 26,19 h -75 c -62,0 -70,-2 -47,-11 15,-5 27,-17 27,-26 0,-21 -93,-272 -101,-272 -9,0 -99,233 -99,257 0,14 10,28 28,37 25,14 21,15 -78,15 -65,0 -97,-3 -85,-9 27,-10 40,-27 60,-76 l 16,-42 -43,-96 c -24,-52 -46,-96 -49,-96 -9,0 -99,252 -99,278 0,14 8,26 23,32 15,6 -5,9 -72,9 l -93,1 z"
       id="path20" />
  </g>
</svg>
