<?xml version="1.0" encoding="UTF-8" standalone="no"?>
<svg
   version="1.0"
   width="853.60095pt"
   height="482.3432pt"
   viewBox="0 0 853.60095 482.3432"
   preserveAspectRatio="xMidYMid meet"
   id="svg18"
   xmlns="http://www.w3.org/2000/svg"
   xmlns:svg="http://www.w3.org/2000/svg">
  <defs
     id="defs22" />
  <metadata
     id="metadata2">
Created by potrace 1.16, written by Peter Selinger 2001-2019
</metadata>
  <g
     transform="matrix(0.1,0,0,-0.1,-25.699046,507.49265)"
     fill="#000000"
     stroke="none"
     id="g16">
    <path
       d="m 7021,5069 c -215,-26 -396,-114 -537,-261 -136,-141 -223,-303 -279,-517 -64,-248 -61,-634 6,-924 21,-87 21,-89 48,-82 18,4 10,-5 -29,-31 -118,-79 -237,-188 -334,-304 -356,-425 -473,-990 -317,-1527 98,-337 330,-661 625,-870 507,-361 1192,-400 1738,-100 394,215 695,603 802,1032 38,153 49,246 49,410 0,359 -98,663 -313,966 -78,110 -240,275 -338,344 -39,28 -71,53 -72,57 0,3 108,192 239,420 131,227 237,415 235,417 -3,3 -259,-226 -377,-338 l -48,-46 8,80 c 4,44 8,103 8,130 0,49 -1,50 -30,50 h -30 l -12,-113 c -6,-62 -13,-117 -15,-122 -2,-5 -77,92 -168,216 -90,124 -168,228 -172,230 -3,2 58,-190 138,-428 79,-238 144,-436 144,-439 0,-4 -48,17 -107,47 -261,131 -572,191 -856,166 -232,-21 -440,-81 -634,-182 -51,-27 -95,-45 -97,-42 -4,7 -38,179 -51,255 -16,99 -23,311 -14,431 34,454 217,778 523,926 260,126 616,113 859,-31 138,-82 273,-239 346,-402 57,-127 83,-231 117,-465 4,-25 9,-32 20,-28 9,3 24,6 34,6 15,0 17,6 13,43 -64,565 -334,918 -774,1012 -89,19 -257,26 -348,14 z m 287,-1609 c 479,-51 897,-304 1159,-702 496,-753 259,-1763 -521,-2223 -148,-87 -317,-151 -501,-187 -142,-29 -421,-31 -560,-5 -480,90 -886,381 -1113,797 -61,111 -105,222 -91,230 7,5 6,9 -5,13 -17,7 -47,101 -73,232 -27,139 -24,444 6,585 90,420 325,770 676,1007 287,193 676,289 1023,253 z"
       id="path4" />
    <path
       d="m 7433,2267 c -40,-18 -73,-34 -73,-37 0,-4 16,-4 35,-2 30,4 36,1 45,-23 6,-15 10,-129 10,-269 0,-263 -1,-269 -55,-285 -21,-7 6,-9 95,-9 75,0 113,3 94,7 -17,4 -36,11 -42,15 -9,5 -12,93 -12,322 0,245 -3,314 -12,313 -7,0 -46,-15 -85,-32 z"
       id="path6" />
    <path
       d="m 6597,2053 c 21,-21 48,-81 103,-226 40,-108 78,-196 84,-194 6,2 37,63 70,135 32,72 62,130 65,127 3,-2 29,-62 56,-134 28,-72 55,-131 61,-131 6,0 46,92 89,205 59,156 84,210 104,225 l 26,19 h -75 c -62,0 -70,-2 -47,-11 15,-5 27,-17 27,-26 0,-21 -93,-272 -101,-272 -9,0 -99,233 -99,257 0,14 10,28 28,37 25,14 21,15 -78,15 -65,0 -97,-3 -85,-9 27,-10 40,-27 60,-76 l 16,-42 -43,-96 c -24,-52 -46,-96 -49,-96 -9,0 -99,252 -99,278 0,14 8,26 23,32 15,6 -5,9 -72,9 l -93,1 z"
       id="path8" />
    <path
       d="m 1730,3530 c -214,-27 -391,-79 -573,-171 -65,-32 -123,-64 -130,-69 -7,-6 -41,-31 -77,-55 C 815,3143 644,2970 544,2825 207,2334 163,1688 432,1155 745,533 1417,176 2107,265 c 582,76 1080,455 1307,995 20,46 36,90 36,97 0,7 4,13 8,13 4,0 13,24 19,53 6,28 21,99 34,157 20,91 23,133 23,315 0,180 -3,225 -22,313 -75,346 -217,609 -456,848 -93,93 -247,218 -285,232 -9,3 -18,8 -21,12 -10,13 -207,108 -275,133 -98,37 -205,65 -310,82 -114,19 -338,27 -435,15 z m 440,-86 c 482,-83 912,-404 1135,-849 36,-71 67,-141 69,-155 2,-14 11,-42 20,-63 22,-51 53,-183 67,-292 16,-126 6,-383 -20,-507 C 3307,953 2834,484 2200,349 2046,316 1762,316 1603,348 1178,434 819,674 583,1032 281,1490 242,2079 480,2575 c 236,490 697,817 1250,885 102,12 324,4 440,-16 z"
       id="path10" />
    <path
       d="m 2172,2284 c -91,-47 -142,-162 -142,-323 0,-114 15,-174 62,-242 96,-142 251,-106 320,73 26,68 34,196 18,281 -31,165 -153,265 -258,211 z m 99,-24 c 57,-31 89,-198 72,-379 -13,-133 -36,-192 -83,-211 -63,-26 -109,25 -131,146 -13,70 -6,289 12,352 22,79 79,119 130,92 z"
       id="path12" />
    <path
       d="m 1347,2053 c 21,-21 48,-81 103,-226 40,-108 78,-196 84,-194 6,2 37,63 70,135 32,72 62,130 65,127 3,-2 29,-62 56,-134 28,-72 55,-131 61,-131 6,0 46,92 89,205 59,156 84,210 104,225 l 26,19 h -75 c -62,0 -70,-2 -47,-11 15,-5 27,-17 27,-26 0,-21 -93,-272 -101,-272 -9,0 -99,233 -99,257 0,14 10,28 28,37 25,14 21,15 -78,15 -65,0 -97,-3 -85,-9 27,-10 40,-27 60,-76 l 16,-42 -43,-96 c -24,-52 -46,-96 -49,-96 -9,0 -99,252 -99,278 0,14 8,26 23,32 15,6 -5,9 -72,9 l -93,1 z"
       id="path14" />
  </g>
</svg>
