<?xml version="1.0" encoding="UTF-8" standalone="no"?>
<svg
   version="1.0"
   width="853.591pt"
   height="482.43546pt"
   viewBox="0 0 853.591 482.43546"
   preserveAspectRatio="xMidYMid meet"
   id="svg16"
   xmlns="http://www.w3.org/2000/svg"
   xmlns:svg="http://www.w3.org/2000/svg">
  <defs
     id="defs20" />
  <metadata
     id="metadata2">
Created by potrace 1.16, written by Peter Selinger 2001-2019
</metadata>
  <g
     transform="matrix(0.1,0,0,-0.1,-25.708985,507.48889)"
     fill="#000000"
     stroke="none"
     id="g14">
    <path
       d="m 1771,5069 c -428,-53 -728,-352 -831,-829 -56,-258 -49,-595 18,-880 16,-68 20,-75 42,-74 l 24,1 -24,-16 C 883,3194 697,3026 609,2915 411,2666 283,2334 261,2010 201,1123 838,362 1725,260 c 415,-47 865,83 1194,346 211,169 405,426 497,658 l 27,69 101,-7 c 56,-4 155,-12 221,-17 66,-5 349,-12 629,-16 427,-5 510,-3 517,8 6,10 9,11 9,1 0,-9 14,-11 53,-7 28,2 86,7 127,10 l 75,5 -175,-177 c -97,-98 -189,-193 -205,-212 l -30,-34 95,50 c 93,50 655,345 716,376 l 31,16 33,-77 c 155,-357 427,-647 768,-820 434,-221 936,-240 1383,-53 466,195 832,620 953,1106 38,153 49,246 49,410 0,163 -11,256 -50,410 -123,493 -501,924 -976,1113 -728,290 -1548,34 -1984,-618 -50,-75 -143,-252 -158,-300 -14,-46 -15,-47 -168,-34 -249,21 -610,34 -964,34 h -343 v -34 -33 l 483,-6 c 416,-4 931,-27 946,-42 2,-2 -6,-39 -17,-82 -38,-146 -47,-223 -46,-413 0,-183 11,-280 48,-418 8,-28 13,-52 11,-52 -2,0 -193,72 -426,160 -232,88 -424,159 -426,157 -1,-2 96,-82 217,-178 198,-157 218,-175 197,-183 -36,-14 -925,-20 -1177,-7 -224,11 -482,31 -488,36 -2,2 3,27 11,57 70,241 74,558 13,812 -13,53 -22,96 -20,96 2,0 194,-72 425,-160 232,-88 424,-159 426,-156 2,2 -95,82 -216,179 l -220,174 52,7 c 28,3 78,6 109,6 76,0 88,6 88,43 v 30 l -127,-6 -126,-6 69,72 c 38,40 130,134 204,211 l 135,139 -95,-51 c -467,-246 -752,-393 -755,-390 -2,2 -20,40 -39,85 -45,105 -114,225 -189,327 -73,100 -249,276 -339,339 l -67,48 33,57 c 54,92 448,776 454,787 3,6 -8,-2 -24,-16 -16,-15 -112,-102 -214,-194 -210,-191 -199,-190 -181,-23 11,99 8,108 -36,108 -19,0 -22,-7 -28,-67 -4,-38 -10,-95 -14,-128 l -6,-60 -170,232 c -93,127 -171,231 -172,229 -1,-1 62,-197 142,-436 80,-239 143,-435 142,-436 -2,-2 -42,17 -89,42 -391,202 -860,237 -1281,93 -51,-17 -144,-57 -209,-89 l -116,-59 -16,72 c -49,227 -68,492 -47,677 35,307 134,542 301,709 138,140 296,215 500,241 173,22 383,-11 527,-83 280,-141 471,-463 509,-855 6,-69 8,-73 28,-68 11,3 27,6 35,6 18,0 8,96 -25,248 -29,128 -57,209 -113,320 -130,255 -354,431 -621,486 -99,20 -257,27 -349,15 z m 399,-1625 c 482,-83 912,-404 1135,-849 36,-71 67,-141 69,-155 2,-14 11,-42 20,-63 22,-51 53,-183 67,-292 16,-126 6,-383 -20,-507 C 3307,953 2834,484 2200,349 2046,316 1762,316 1603,348 1178,434 819,674 583,1032 281,1490 242,2079 480,2575 c 236,490 697,817 1250,885 102,12 324,4 440,-16 z m 5138,16 c 479,-51 897,-304 1159,-702 496,-753 259,-1763 -521,-2223 -148,-87 -317,-151 -501,-187 -142,-29 -421,-31 -560,-5 -480,90 -886,381 -1113,797 -61,111 -105,222 -91,230 7,5 6,9 -5,13 -17,7 -47,101 -73,232 -27,139 -24,444 6,585 90,420 325,770 676,1007 287,193 676,289 1023,253 z"
       id="path4" />
    <path
       d="m 2172,2284 c -91,-47 -142,-162 -142,-323 0,-114 15,-174 62,-242 96,-142 251,-106 320,73 26,68 34,196 18,281 -31,165 -153,265 -258,211 z m 99,-24 c 57,-31 89,-198 72,-379 -13,-133 -36,-192 -83,-211 -63,-26 -109,25 -131,146 -13,70 -6,289 12,352 22,79 79,119 130,92 z"
       id="path6" />
    <path
       d="m 1347,2053 c 21,-21 48,-81 103,-226 40,-108 78,-196 84,-194 6,2 37,63 70,135 32,72 62,130 65,127 3,-2 29,-62 56,-134 28,-72 55,-131 61,-131 6,0 46,92 89,205 59,156 84,210 104,225 l 26,19 h -75 c -62,0 -70,-2 -47,-11 15,-5 27,-17 27,-26 0,-21 -93,-272 -101,-272 -9,0 -99,233 -99,257 0,14 10,28 28,37 25,14 21,15 -78,15 -65,0 -97,-3 -85,-9 27,-10 40,-27 60,-76 l 16,-42 -43,-96 c -24,-52 -46,-96 -49,-96 -9,0 -99,252 -99,278 0,14 8,26 23,32 15,6 -5,9 -72,9 l -93,1 z"
       id="path8" />
    <path
       d="m 7433,2267 c -40,-18 -73,-34 -73,-37 0,-4 16,-4 35,-2 30,4 36,1 45,-23 6,-15 10,-129 10,-269 0,-263 -1,-269 -55,-285 -21,-7 6,-9 95,-9 75,0 113,3 94,7 -17,4 -36,11 -42,15 -9,5 -12,93 -12,322 0,245 -3,314 -12,313 -7,0 -46,-15 -85,-32 z"
       id="path10" />
    <path
       d="m 6597,2053 c 21,-21 48,-81 103,-226 40,-108 78,-196 84,-194 6,2 37,63 70,135 32,72 62,130 65,127 3,-2 29,-62 56,-134 28,-72 55,-131 61,-131 6,0 46,92 89,205 59,156 84,210 104,225 l 26,19 h -75 c -62,0 -70,-2 -47,-11 15,-5 27,-17 27,-26 0,-21 -93,-272 -101,-272 -9,0 -99,233 -99,257 0,14 10,28 28,37 25,14 21,15 -78,15 -65,0 -97,-3 -85,-9 27,-10 40,-27 60,-76 l 16,-42 -43,-96 c -24,-52 -46,-96 -49,-96 -9,0 -99,252 -99,278 0,14 8,26 23,32 15,6 -5,9 -72,9 l -93,1 z"
       id="path12" />
  </g>
</svg>
