<?xml version="1.0" encoding="UTF-8" standalone="no"?>
<svg
   version="1.0"
   width="3820pt"
   height="1014pt"
   viewBox="0 0 3820 1014"
   preserveAspectRatio="xMidYMid meet"
   id="svg26"
   xmlns="http://www.w3.org/2000/svg"
   xmlns:svg="http://www.w3.org/2000/svg">
  <defs
     id="defs30" />
  <metadata
     id="metadata2">
Created by potrace 1.16, written by Peter Selinger 2001-2019
</metadata>
  <g
     transform="matrix(0.1,0,0,-0.1,-24,1039)"
     fill="#000000"
     stroke="none"
     id="g24">
    <path
       d="m 20870,9580 v -809 l -42,-12 c -121,-32 -9233,-2610 -9235,-2613 -2,-1 0,-17 3,-35 5,-23 11,-30 23,-27 9,3 2088,591 4621,1307 2533,716 4611,1304 4618,1306 9,4 12,-39 12,-196 v -201 h 935 935 v -625 -625 h 35 35 v 625 625 l 938,2 937,3 5,196 5,197 4605,-1303 c 2533,-716 4615,-1305 4626,-1309 18,-5 24,-1 33,25 6,18 10,33 9,35 -2,1 -2082,590 -4623,1309 -2541,718 -4628,1308 -4637,1311 -17,5 -18,53 -18,815 v 809 h -1910 -1910 z m 3750,-235 v -975 h -1840 -1840 v 975 975 h 1840 1840 z"
       id="path4" />
    <path
       d="m 22767,9743 c -3,-5 -55,-127 -117,-273 -138,-326 -143,-336 -183,-360 l -32,-20 105,1 c 95,0 102,1 70,12 -46,16 -50,49 -14,133 l 27,64 h 126 126 l 28,-65 c 37,-87 36,-112 -5,-130 -31,-13 -24,-14 97,-14 120,0 128,1 98,14 -18,8 -42,29 -53,47 -11,18 -72,160 -137,315 -64,156 -120,283 -124,283 -4,0 -10,-3 -12,-7 z m 41,-288 50,-120 -54,-3 c -30,-2 -78,-2 -108,0 l -55,3 35,80 c 20,44 44,100 55,124 11,24 21,42 23,40 2,-2 27,-58 54,-124 z"
       id="path6" />
    <path
       d="m 22350,7216 c 0,-2 86,-194 190,-426 105,-232 190,-424 190,-426 0,-2 -418,-4 -930,-4 h -930 V 5320 4280 h 1910 1910 v 1040 1040 l -933,2 -933,3 178,395 c 97,217 184,410 193,428 8,17 13,32 12,32 -2,0 -91,-97 -198,-216 l -194,-217 -3,127 -3,126 h -34 -34 l -3,-123 -3,-124 -192,214 c -106,118 -193,212 -193,209 z m 420,-938 c 0,-9 3,-9 12,0 9,9 228,12 925,12 h 913 v -970 -970 h -1840 -1840 v 970 970 h 915 c 705,0 915,-3 915,-12 z"
       id="path8" />
    <path
       d="m 22689,5704 c -74,-26 -138,-81 -178,-154 -35,-63 -36,-68 -36,-175 0,-95 3,-116 23,-152 34,-64 80,-111 136,-141 44,-22 64,-26 141,-27 83,0 95,3 145,31 51,29 120,101 120,126 0,6 -26,-14 -58,-45 -81,-77 -156,-95 -255,-61 -59,20 -119,86 -138,151 -20,67 -17,206 5,271 33,99 113,162 206,162 88,0 158,-51 196,-144 11,-25 22,-46 26,-46 8,0 0,183 -8,209 -4,11 -9,9 -25,-7 -24,-26 -29,-27 -77,-6 -55,23 -167,27 -223,8 z"
       id="path10" />
    <path
       d="m 33967,6495 c 28,-44 98,-156 157,-249 58,-92 106,-169 106,-171 0,-1 -54,13 -121,32 -66,19 -122,33 -124,31 -1,-1 -6,-17 -9,-34 l -7,-31 122,-33 121,-34 -263,-133 c -145,-73 -253,-131 -239,-128 14,3 210,32 435,65 226,33 425,63 443,66 l 32,6 v -801 -801 h 1910 1910 v 1040 1040 h -1910 -1910 l -2,-185 -3,-185 -80,68 c -44,37 -192,162 -330,276 -137,115 -259,216 -269,225 -10,9 4,-20 31,-64 z m 4403,-1175 v -970 h -1840 -1840 v 770 c 0,678 2,770 15,770 8,0 15,4 15,9 0,5 -7,11 -15,15 -13,4 -15,35 -15,191 v 185 h 1840 1840 z"
       id="path12" />
    <path
       d="m 36228,5700 c 19,-4 39,-13 45,-19 9,-9 12,-94 12,-296 0,-202 -3,-287 -12,-296 -6,-6 -26,-15 -45,-19 -53,-13 304,-11 364,1 104,22 175,76 219,165 21,42 24,63 24,154 0,91 -3,111 -24,150 -48,93 -112,140 -216,159 -67,13 -419,14 -367,1 z m 376,-54 c 88,-51 128,-133 128,-261 0,-127 -40,-210 -126,-260 -50,-29 -116,-40 -180,-31 l -46,7 v 284 284 l 23,5 c 12,2 52,3 89,2 51,-3 77,-10 112,-30 z"
       id="path14" />
    <path
       d="m 11280,6276 -335,-282 -3,183 -2,183 H 9030 7120 V 5320 4280 h 57 c 34,0 53,-4 48,-9 -12,-11 -2993,-1697 -3017,-1706 -13,-5 3,54 72,261 49,147 89,269 87,270 -1,2 -128,-169 -283,-379 l -280,-382 -1782,-3 -1782,-2 V 1290 250 h 1910 1910 v 1019 1020 l 43,6 c 23,3 185,19 360,35 176,16 321,30 323,32 2,3 -117,30 -264,62 -147,32 -272,61 -279,65 -6,3 699,408 1567,899 l 1578,892 1649,-2 1648,-3 1565,-887 c 861,-488 1564,-891 1563,-895 -1,-4 -127,-35 -280,-69 -322,-71 -333,-61 112,-99 165,-14 310,-28 323,-31 l 22,-4 V 1270 250 h 1910 1910 v 1040 1040 h -1778 -1777 l -285,389 c -157,214 -286,388 -287,387 -2,-1 38,-123 87,-271 49,-148 88,-270 86,-272 -4,-4 -3005,1692 -3020,1707 -7,7 9,10 47,10 h 57 v 801 801 l 28,-6 c 15,-3 214,-33 442,-66 228,-33 423,-62 433,-64 9,-2 17,-2 17,1 0,2 -115,60 -255,128 -140,69 -255,126 -255,128 0,2 52,19 115,37 100,29 115,36 115,54 0,46 -10,47 -124,15 -60,-16 -112,-29 -117,-27 -5,2 59,110 141,241 82,130 146,237 142,236 -4,0 -158,-127 -342,-283 z m -410,-165 c 0,-146 -3,-181 -15,-191 -8,-7 -15,-16 -15,-21 0,-5 7,-9 15,-9 13,0 15,-92 15,-770 V 4350 H 9030 7190 v 970 970 h 1840 1840 z M 3990,1290 V 320 H 2150 310 v 970 970 h 1840 1840 z m 13750,0 V 320 h -1840 -1840 v 970 970 h 1840 1840 z"
       id="path16" />
    <path
       d="m 8728,5701 c 19,-5 39,-14 45,-20 17,-17 17,-575 0,-592 -6,-6 -26,-15 -45,-20 -20,-5 51,-7 182,-6 203,2 218,3 262,25 64,32 91,72 96,141 4,71 -20,112 -83,143 l -44,22 29,18 c 44,26 70,75 70,129 0,61 -31,107 -95,139 -48,24 -59,25 -250,27 -124,1 -187,-1 -167,-6 z m 314,-31 c 20,-6 50,-26 67,-46 26,-29 31,-43 31,-84 0,-91 -64,-134 -190,-128 l -65,3 -3,127 c -2,114 -1,127 15,131 33,9 108,7 145,-3 z m 42,-315 c 50,-24 76,-67 76,-127 0,-103 -108,-160 -249,-132 l -31,7 v 140 140 l 83,-5 c 51,-3 97,-11 121,-23 z"
       id="path18" />
    <path
       d="m 1885,1673 c 66,-10 65,-6 65,-318 0,-310 2,-300 -63,-315 -18,-5 78,-8 219,-9 l 250,-1 23,68 c 12,37 25,73 28,80 2,6 0,12 -5,12 -5,0 -23,-23 -40,-50 -42,-67 -74,-80 -201,-80 -89,0 -101,2 -111,19 -5,11 -10,76 -10,145 v 126 h 91 c 114,0 148,-16 149,-67 0,-13 5,-23 10,-23 6,0 10,42 10,105 0,63 -4,105 -10,105 -5,0 -10,-10 -10,-23 0,-52 -20,-62 -134,-65 l -106,-4 v 136 136 h 119 c 136,0 165,-13 177,-75 11,-59 24,-39 24,35 v 70 l -252,-1 c -139,-1 -239,-4 -223,-6 z"
       id="path20" />
    <path
       d="m 15678,1670 c 19,-4 39,-13 45,-19 9,-9 12,-94 12,-296 0,-202 -3,-287 -12,-296 -6,-6 -26,-15 -45,-19 -21,-5 17,-8 107,-8 87,0 128,3 108,8 -61,14 -63,19 -63,171 v 139 h 75 c 67,0 79,-3 100,-25 14,-13 25,-33 25,-45 0,-11 5,-20 10,-20 6,0 10,42 10,105 0,102 -12,136 -25,75 -10,-46 -39,-60 -122,-60 h -73 v 135 135 h 98 c 114,0 152,-16 173,-74 7,-20 17,-36 21,-36 9,0 11,85 2,118 l -6,22 -237,-1 c -139,-1 -222,-4 -203,-9 z"
       id="path22" />
  </g>
</svg>
