<?xml version="1.0" encoding="UTF-8" standalone="no"?>
<svg
   version="1.0"
   width="1379.158pt"
   height="1286.5085pt"
   viewBox="0 0 1379.158 1286.5085"
   preserveAspectRatio="xMidYMid meet"
   id="svg42"
   xmlns="http://www.w3.org/2000/svg"
   xmlns:svg="http://www.w3.org/2000/svg">
  <defs
     id="defs46" />
  <metadata
     id="metadata2">
Created by potrace 1.16, written by Peter Selinger 2001-2019
</metadata>
  <g
     transform="matrix(0.1,0,0,-0.1,-25.789814,1312.3)"
     fill="#000000"
     stroke="none"
     id="g40">
    <path
       d="m 7027,13119 c -574,-38 -1104,-400 -1356,-929 -188,-395 -211,-859 -63,-1266 l 29,-81 -276,-6 c -152,-4 -339,-7 -416,-8 -77,0 -162,-4 -189,-7 -48,-7 -42,-9 225,-89 l 274,-81 -110,-52 c -60,-29 -112,-54 -114,-56 -3,-3 19,-64 24,-64 1,0 50,23 110,51 59,28 109,49 111,47 2,-2 -24,-69 -57,-149 -157,-375 -161,-385 -136,-359 13,14 151,175 307,358 l 282,334 43,-76 c 82,-144 150,-232 280,-362 200,-201 399,-323 660,-407 183,-58 282,-72 510,-71 225,0 321,15 515,80 586,195 1029,735 1100,1339 6,55 14,119 16,143 l 5,42 h 635 634 v 35 35 h -635 -634 l -5,33 c -3,17 -8,65 -11,105 -20,259 -145,578 -315,803 -346,458 -866,695 -1443,658 z m 378,-84 c 572,-88 1066,-511 1243,-1065 128,-400 98,-819 -84,-1181 -227,-454 -612,-747 -1124,-856 -131,-28 -458,-25 -596,5 -458,99 -832,371 -1060,769 -25,43 -47,89 -51,103 -3,14 -11,32 -18,40 -23,26 -84,216 -107,333 -32,158 -32,453 0,604 107,497 412,891 857,1108 296,144 608,191 940,140 z"
       id="path4" />
    <path
       d="m 7433,11847 c -40,-18 -73,-34 -73,-37 0,-4 16,-4 35,-2 30,4 36,1 45,-23 6,-15 10,-129 10,-269 0,-263 -1,-269 -55,-285 -21,-7 6,-9 95,-9 75,0 113,3 94,7 -17,4 -36,11 -42,15 -9,5 -12,93 -12,322 0,245 -3,314 -12,313 -7,0 -46,-15 -85,-32 z"
       id="path6" />
    <path
       d="m 6597,11633 c 21,-21 48,-81 103,-226 40,-108 78,-196 84,-194 6,2 37,63 70,135 32,72 62,130 65,127 3,-2 29,-62 56,-134 28,-72 55,-131 61,-131 6,0 46,92 89,205 59,156 84,210 104,225 l 26,19 h -75 c -62,0 -70,-2 -47,-11 15,-5 27,-17 27,-26 0,-21 -93,-272 -101,-272 -9,0 -99,233 -99,257 0,14 10,28 28,37 25,14 21,15 -78,15 -65,0 -97,-3 -85,-9 27,-10 40,-27 60,-76 l 16,-42 -43,-96 c -24,-52 -46,-96 -49,-96 -9,0 -99,252 -99,278 0,14 8,26 23,32 15,6 -5,9 -72,9 l -93,1 z"
       id="path8" />
    <path
       d="m 12285,13119 c -395,-26 -773,-203 -1056,-495 -133,-138 -211,-250 -300,-425 -85,-169 -159,-454 -159,-611 0,-44 -3,-59 -12,-55 -7,3 -179,80 -383,172 -503,227 -463,210 -442,187 10,-11 105,-97 211,-193 l 194,-174 -124,-3 -124,-3 v -34 -34 l 127,-3 127,-3 -204,-184 c -113,-101 -212,-191 -220,-198 -20,-18 -25,-21 445,191 214,97 392,176 396,176 3,0 9,-44 12,-97 36,-545 391,-1064 902,-1320 213,-107 422,-160 666,-170 471,-18 898,148 1228,478 395,396 559,952 445,1507 -66,322 -269,669 -515,883 -343,299 -756,438 -1214,408 z m 400,-90 c 213,-35 456,-136 637,-265 98,-70 285,-253 348,-342 168,-234 266,-481 300,-756 17,-132 7,-371 -19,-498 -133,-624 -602,-1092 -1234,-1230 -88,-19 -131,-22 -312,-22 -178,0 -225,4 -308,22 -698,154 -1194,712 -1257,1412 -8,93 -7,106 7,118 16,11 16,13 0,25 -14,11 -15,24 -7,115 34,383 183,707 447,976 372,376 869,534 1398,445 z"
       id="path10" />
    <path
       d="m 12650,11869 c -35,-14 -69,-48 -91,-91 -21,-41 -10,-52 15,-17 70,101 205,65 206,-55 0,-67 -28,-108 -93,-140 -41,-20 -47,-25 -27,-26 14,0 48,-11 76,-24 59,-27 84,-69 84,-138 -1,-52 -16,-83 -56,-109 -37,-24 -74,-24 -134,2 -54,23 -78,22 -94,-3 -8,-14 -7,-22 7,-35 14,-14 35,-18 100,-18 102,0 166,28 212,94 25,36 30,53 33,114 4,84 -15,124 -74,159 l -35,21 24,26 c 58,61 72,132 38,187 -33,54 -124,80 -191,53 z"
       id="path12" />
    <path
       d="m 11857,11633 c 21,-21 48,-81 103,-226 40,-108 78,-196 84,-194 6,2 37,63 70,135 32,72 62,130 65,127 3,-2 29,-62 56,-134 28,-72 55,-131 61,-131 6,0 46,92 89,205 59,156 84,210 104,225 l 26,19 h -75 c -62,0 -70,-2 -47,-11 15,-5 27,-17 27,-26 0,-21 -93,-272 -101,-272 -9,0 -99,233 -99,257 0,14 10,28 28,37 25,14 21,15 -78,15 -65,0 -97,-3 -85,-9 27,-10 40,-27 60,-76 l 16,-42 -43,-96 c -24,-52 -46,-96 -49,-96 -9,0 -99,252 -99,278 0,14 8,26 23,32 15,6 -5,9 -72,9 l -93,1 z"
       id="path14" />
    <path
       d="M 1695,10683 C 998,10593 433,10070 289,9383 c -44,-208 -41,-478 7,-691 34,-150 62,-230 135,-377 222,-450 636,-766 1149,-877 91,-19 133,-22 320,-22 237,0 322,12 512,74 392,129 746,425 933,783 22,42 45,77 50,77 6,0 370,-166 810,-369 l 800,-370 14,29 c 8,17 12,32 9,35 -2,3 -362,170 -799,371 -437,202 -798,370 -802,374 -4,4 1,29 12,57 33,84 69,231 87,353 13,88 15,154 11,280 -7,189 -28,307 -86,477 l -38,111 808,384 c 556,263 808,388 809,399 0,8 -6,23 -13,33 -12,17 -71,-9 -808,-359 -437,-208 -802,-381 -811,-386 -15,-8 -22,0 -47,48 -166,329 -495,625 -841,759 -222,86 -381,115 -618,113 -92,-1 -180,-4 -197,-6 z m 420,-74 c 581,-74 1086,-493 1275,-1056 61,-184 73,-267 74,-498 0,-182 -3,-224 -22,-315 -106,-489 -411,-884 -850,-1100 -211,-104 -398,-150 -637,-158 -179,-5 -287,6 -440,44 -741,186 -1247,888 -1185,1646 23,282 113,536 273,773 84,123 285,323 407,404 339,226 704,311 1105,260 z"
       id="path16" />
    <path
       d="m 2172,9434 c -91,-47 -142,-162 -142,-323 0,-114 15,-174 62,-242 96,-142 251,-106 320,73 26,68 34,196 18,281 -31,165 -153,265 -258,211 z m 99,-24 c 57,-31 89,-198 72,-379 -13,-133 -36,-192 -83,-211 -63,-26 -109,25 -131,146 -13,70 -6,289 12,352 22,79 79,119 130,92 z"
       id="path18" />
    <path
       d="m 1347,9203 c 21,-21 48,-81 103,-226 40,-108 78,-196 84,-194 6,2 37,63 70,135 32,72 62,130 65,127 3,-2 29,-62 56,-134 28,-72 55,-131 61,-131 6,0 46,92 89,205 59,156 84,210 104,225 l 26,19 h -75 c -62,0 -70,-2 -47,-11 15,-5 27,-17 27,-26 0,-21 -93,-272 -101,-272 -9,0 -99,233 -99,257 0,14 10,28 28,37 25,14 21,15 -78,15 -65,0 -97,-3 -85,-9 27,-10 40,-27 60,-76 l 16,-42 -43,-96 c -24,-52 -46,-96 -49,-96 -9,0 -99,252 -99,278 0,14 8,26 23,32 15,6 -5,9 -72,9 l -93,1 z"
       id="path20" />
    <path
       d="m 6955,8324 c -543,-81 -973,-371 -1236,-832 l -52,-93 -22,23 c -12,13 -143,163 -290,333 -147,171 -276,319 -287,330 -22,24 -33,52 107,-275 53,-124 99,-231 102,-238 3,-7 -39,9 -93,34 -130,61 -136,62 -150,26 l -11,-29 106,-48 c 58,-27 109,-51 113,-55 4,-3 -116,-44 -267,-90 l -276,-85 228,-6 c 126,-4 335,-7 465,-8 l 237,-1 -35,-102 c -62,-185 -79,-296 -78,-523 0,-220 14,-310 75,-504 153,-481 546,-880 1029,-1044 201,-68 288,-82 535,-81 190,0 234,3 322,22 305,66 578,207 791,407 92,87 93,87 114,69 12,-11 517,-482 1123,-1049 605,-566 1108,-1036 1118,-1044 15,-12 20,-11 37,4 11,10 20,22 20,26 0,5 -496,473 -1102,1040 -607,568 -1118,1047 -1137,1065 l -34,32 35,44 c 180,221 318,557 343,833 3,39 8,89 11,113 l 5,42 h 635 634 v 30 30 h -634 -635 l -5,43 c -3,23 -8,74 -11,112 -21,231 -122,513 -261,720 -204,306 -515,544 -856,656 -173,56 -266,70 -483,74 -110,2 -213,1 -230,-1 z m 522,-93 c 573,-127 1026,-549 1188,-1106 88,-305 81,-627 -20,-933 -80,-240 -196,-424 -384,-613 -222,-222 -460,-353 -766,-425 -112,-27 -134,-28 -340,-28 -241,-1 -317,10 -504,73 -530,178 -922,622 -1043,1185 -18,84 -22,134 -22,301 -1,230 11,306 76,503 34,102 44,122 60,122 17,0 18,3 8,15 -16,19 68,181 158,301 246,330 600,545 1022,620 115,20 448,12 567,-15 z"
       id="path22" />
    <path
       d="m 7384,7071 c -44,-20 -74,-56 -92,-110 -22,-64 -8,-71 25,-12 36,63 112,88 174,56 45,-24 69,-70 69,-136 0,-89 -43,-160 -182,-305 -65,-67 -118,-124 -118,-128 0,-4 86,-5 192,-4 l 191,3 19,54 c 10,30 16,56 14,59 -2,2 -14,-6 -25,-17 -29,-29 -51,-32 -176,-29 l -110,3 97,102 c 53,57 112,129 132,162 79,130 61,248 -47,300 -53,26 -109,26 -163,2 z"
       id="path24" />
    <path
       d="m 6597,6843 c 21,-21 48,-81 103,-226 40,-108 78,-196 84,-194 6,2 37,63 70,135 32,72 62,130 65,127 3,-2 29,-62 56,-134 28,-72 55,-131 61,-131 6,0 46,92 89,205 59,156 84,210 104,225 l 26,19 h -75 c -62,0 -70,-2 -47,-11 15,-5 27,-17 27,-26 0,-21 -93,-272 -101,-272 -9,0 -99,233 -99,257 0,14 10,28 28,37 25,14 21,15 -78,15 -65,0 -97,-3 -85,-9 27,-10 40,-27 60,-76 l 16,-42 -43,-96 c -24,-52 -46,-96 -49,-96 -9,0 -99,252 -99,278 0,14 8,26 23,32 15,6 -5,9 -72,9 l -93,1 z"
       id="path26" />
    <path
       d="m 12156,8315 c -469,-76 -870,-338 -1130,-738 -142,-217 -237,-495 -253,-739 -3,-54 -8,-98 -10,-98 -1,0 -189,84 -416,186 -226,102 -419,189 -427,192 -8,3 82,-81 200,-188 118,-106 217,-197 218,-202 2,-4 -53,-8 -122,-8 h -126 v -30 -30 h 125 c 69,0 125,-3 124,-7 0,-5 -96,-93 -213,-198 -118,-104 -213,-191 -212,-192 2,-2 192,83 424,187 232,105 423,190 425,190 2,0 7,-44 10,-97 4,-54 16,-140 27,-191 137,-642 632,-1133 1282,-1273 120,-26 405,-37 533,-20 476,63 907,333 1168,731 312,476 353,1092 107,1608 -218,457 -632,785 -1135,899 -141,31 -456,41 -599,18 z m 517,-75 c 639,-109 1142,-595 1277,-1235 27,-130 37,-367 20,-501 -86,-697 -613,-1247 -1305,-1366 -168,-29 -440,-22 -595,15 -319,76 -580,224 -800,454 -249,259 -397,587 -430,950 -8,96 -7,109 7,121 16,11 16,13 0,25 -14,11 -15,24 -7,120 25,276 116,529 273,762 84,124 283,321 412,407 207,138 452,231 690,261 99,13 350,6 458,-13 z"
       id="path28" />
    <path
       d="m 12657,6876 c -111,-162 -147,-222 -147,-245 v -31 h 135 135 v -85 -85 h 40 40 v 85 85 h 40 c 38,0 40,2 40,30 0,28 -2,30 -40,30 h -40 v 215 215 h -28 c -26,0 -43,-20 -175,-214 z m 123,-56 v -160 h -116 -115 l 24,33 c 13,17 63,89 111,160 48,70 89,127 91,127 3,0 5,-72 5,-160 z"
       id="path30" />
    <path
       d="m 11857,6843 c 21,-21 48,-81 103,-226 40,-108 78,-196 84,-194 6,2 37,63 70,135 32,72 62,130 65,127 3,-2 29,-62 56,-134 28,-72 55,-131 61,-131 6,0 46,92 89,205 59,156 84,210 104,225 l 26,19 h -75 c -62,0 -70,-2 -47,-11 15,-5 27,-17 27,-26 0,-21 -93,-272 -101,-272 -9,0 -99,233 -99,257 0,14 10,28 28,37 25,14 21,15 -78,15 -65,0 -97,-3 -85,-9 27,-10 40,-27 60,-76 l 16,-42 -43,-96 c -24,-52 -46,-96 -49,-96 -9,0 -99,252 -99,278 0,14 8,26 23,32 15,6 -5,9 -72,9 l -93,1 z"
       id="path32" />
    <path
       d="m 10840,3854 c 1,-16 11,-145 23,-286 l 23,-258 -26,22 c -14,13 -55,52 -92,87 -66,64 -68,64 -88,46 -11,-10 -20,-24 -20,-31 0,-7 39,-49 88,-94 l 87,-81 -287,3 c -158,2 -282,1 -276,-3 6,-4 206,-74 444,-155 l 432,-147 -64,-86 c -158,-213 -264,-473 -305,-746 -18,-126 -14,-370 10,-506 116,-663 627,-1192 1286,-1329 125,-27 301,-38 450,-29 580,36 1110,396 1364,929 119,249 169,497 158,775 -20,504 -257,951 -666,1256 -302,225 -655,332 -1044,316 -410,-17 -779,-176 -1078,-464 l -55,-54 -178,428 c -98,235 -180,430 -182,432 -2,2 -4,-9 -4,-25 z m 1885,-414 c 406,-86 757,-322 989,-663 60,-89 156,-285 190,-391 66,-199 92,-467 66,-672 -67,-540 -389,-992 -875,-1229 -254,-125 -527,-176 -810,-154 -390,32 -728,190 -1001,471 -147,151 -249,302 -324,479 -87,210 -122,388 -123,619 0,261 47,461 163,695 69,139 202,335 228,335 6,0 12,6 12,14 0,18 142,152 232,219 202,149 445,250 703,293 122,20 422,11 550,-16 z"
       id="path34" />
    <path
       d="m 12619,2168 -60,-123 64,-11 c 79,-15 115,-33 162,-81 78,-80 69,-200 -18,-253 -43,-27 -88,-25 -144,5 -50,26 -83,21 -83,-14 0,-75 161,-79 261,-6 68,49 104,125 96,206 -9,103 -74,176 -193,214 l -63,20 19,43 19,42 h 99 99 l 16,40 15,40 h -114 -115 z"
       id="path36" />
    <path
       d="m 11857,2053 c 21,-21 48,-81 103,-226 40,-108 78,-196 84,-194 6,2 37,63 70,135 32,72 62,130 65,127 3,-2 29,-62 56,-134 28,-72 55,-131 61,-131 6,0 46,92 89,205 59,156 84,210 104,225 l 26,19 h -75 c -62,0 -70,-2 -47,-11 15,-5 27,-17 27,-26 0,-21 -93,-272 -101,-272 -9,0 -99,233 -99,257 0,14 10,28 28,37 25,14 21,15 -78,15 -65,0 -97,-3 -85,-9 27,-10 40,-27 60,-76 l 16,-42 -43,-96 c -24,-52 -46,-96 -49,-96 -9,0 -99,252 -99,278 0,14 8,26 23,32 15,6 -5,9 -72,9 l -93,1 z"
       id="path38" />
  </g>
</svg>
