<?xml version="1.0" encoding="UTF-8" standalone="no"?>
<svg
   version="1.0"
   width="2060.3047pt"
   height="1953.4359pt"
   viewBox="0 0 2060.3047 1953.4359"
   preserveAspectRatio="xMidYMid meet"
   id="svg224"
   xmlns="http://www.w3.org/2000/svg"
   xmlns:svg="http://www.w3.org/2000/svg">
  <defs
     id="defs228" />
  <metadata
     id="metadata2">
Created by potrace 1.16, written by Peter Selinger 2001-2019
</metadata>
  <g
     transform="matrix(0.1,0,0,-0.1,-24.202869,1976.7164)"
     fill="#000000"
     stroke="none"
     id="g222">
    <path
       d="m 10220,19756 c -514,-66 -954,-243 -1365,-550 -157,-118 -423,-383 -538,-538 -302,-404 -487,-863 -549,-1358 -19,-156 -16,-546 5,-695 35,-235 99,-479 175,-666 l 40,-97 -87,-6 c -47,-3 -252,-9 -454,-12 -203,-4 -365,-10 -360,-14 4,-5 118,-40 253,-79 135,-39 254,-75 265,-80 16,-7 1,-17 -89,-60 -60,-28 -111,-53 -113,-55 -8,-8 21,-56 34,-56 7,0 59,23 114,51 56,27 102,49 104,47 1,-2 -44,-115 -101,-253 -123,-295 -114,-275 -109,-275 2,0 135,156 296,346 l 291,346 58,-104 c 277,-499 680,-893 1171,-1146 648,-333 1387,-400 2092,-191 311,93 638,263 917,479 122,95 365,338 460,460 363,469 567,1008 596,1573 l 7,127 h 836 l 836,-1 -30,-26 c -137,-120 -395,-356 -392,-359 2,-2 189,79 415,181 226,102 413,185 415,185 2,0 7,-48 11,-107 15,-238 54,-436 132,-673 182,-553 555,-1038 1054,-1371 121,-81 399,-221 544,-274 129,-48 371,-108 516,-130 152,-23 484,-31 637,-15 495,50 935,221 1333,518 132,98 393,354 492,482 288,374 465,792 535,1265 24,169 24,554 0,715 -93,600 -338,1092 -752,1505 -408,409 -902,656 -1490,747 -200,30 -540,30 -740,0 -296,-46 -529,-118 -790,-246 -275,-135 -485,-286 -701,-501 -455,-454 -712,-1015 -767,-1672 l -12,-141 -419,189 c -231,104 -421,188 -422,186 -2,-1 92,-88 208,-192 l 212,-190 -125,-5 c -68,-3 -442,-4 -830,-2 l -706,2 -7,128 c -34,670 -327,1322 -812,1806 -421,422 -945,689 -1544,787 -162,27 -589,35 -750,15 z m 750,-85 c 781,-135 1438,-564 1858,-1214 209,-322 343,-679 407,-1084 22,-137 31,-499 15,-649 -67,-662 -348,-1242 -823,-1700 -532,-515 -1245,-788 -1977,-760 -513,19 -980,167 -1400,443 -162,107 -286,208 -431,353 -201,200 -363,419 -479,643 -48,93 -53,109 -42,127 11,18 10,20 -12,20 -21,0 -29,14 -74,128 -83,211 -134,401 -169,637 -25,170 -25,574 0,735 76,490 241,890 522,1265 447,596 1105,976 1855,1071 166,21 591,12 750,-15 z m 7455,-150 c 740,-112 1377,-521 1784,-1146 84,-128 204,-367 256,-509 48,-130 108,-370 131,-521 23,-150 26,-540 6,-685 -101,-717 -460,-1325 -1032,-1747 -325,-239 -683,-390 -1105,-464 -152,-27 -500,-37 -667,-20 -590,61 -1139,322 -1558,742 -419,419 -682,976 -739,1563 -16,164 -15,232 6,240 15,6 14,8 -2,20 -17,12 -18,24 -11,132 30,531 224,1041 556,1459 78,98 289,310 390,391 401,322 873,514 1391,564 140,13 443,4 594,-19 z"
       id="path4" />
    <path
       d="m 10823,18397 c -40,-18 -73,-34 -73,-37 0,-4 16,-4 35,-2 30,4 36,1 45,-23 6,-15 10,-129 10,-269 0,-263 -1,-269 -55,-285 -21,-7 6,-9 95,-9 75,0 113,3 94,7 -17,4 -36,11 -42,15 -9,5 -12,93 -12,322 0,245 -3,314 -12,313 -7,0 -46,-15 -85,-32 z"
       id="path6" />
    <path
       d="m 9987,18183 c 21,-21 48,-81 103,-226 40,-108 78,-196 84,-194 6,2 37,63 70,135 32,72 62,130 65,127 3,-2 29,-62 56,-134 28,-72 55,-131 61,-131 6,0 46,92 89,205 59,156 84,210 104,225 l 26,19 h -75 c -62,0 -70,-2 -47,-11 15,-5 27,-17 27,-26 0,-21 -93,-272 -101,-272 -9,0 -99,233 -99,257 0,14 10,28 28,37 25,14 21,15 -78,15 -65,0 -97,-3 -85,-9 27,-10 40,-27 60,-76 l 16,-42 -43,-96 c -24,-52 -46,-96 -49,-96 -9,0 -99,252 -99,278 0,14 8,26 23,32 15,6 -5,9 -72,9 l -93,1 z"
       id="path8" />
    <path
       d="m 10262,17389 c -54,-27 -91,-88 -99,-164 l -6,-55 h -38 c -28,0 -39,-4 -39,-15 0,-11 11,-15 40,-15 h 40 v -178 c 0,-194 -3,-206 -55,-221 -21,-7 10,-9 105,-9 89,0 122,3 96,8 -63,12 -66,22 -66,222 v 178 h 55 c 42,0 55,3 55,15 0,12 -13,15 -56,15 h -56 l 3,84 c 6,134 52,163 127,81 43,-48 62,-54 82,-29 33,39 -36,104 -110,104 -19,0 -54,-10 -78,-21 z"
       id="path10" />
    <path
       d="m 10870,17388 c -56,-21 -96,-47 -52,-33 50,15 52,5 52,-299 0,-154 -4,-286 -8,-293 -4,-7 -19,-16 -32,-22 -19,-7 3,-10 85,-9 61,0 101,3 90,5 -11,3 -28,12 -37,21 -16,14 -18,43 -18,334 0,248 -3,318 -12,317 -7,0 -38,-9 -68,-21 z"
       id="path12" />
    <path
       d="m 9308,17371 c 19,-5 39,-14 45,-20 17,-17 17,-575 0,-592 -6,-6 -26,-15 -45,-19 -21,-5 17,-8 107,-8 93,0 129,3 105,8 -54,13 -60,29 -60,166 v 123 l 68,-6 c 86,-7 143,9 186,52 57,57 66,160 18,224 -10,14 -39,37 -63,51 -42,24 -53,25 -219,27 -111,1 -163,-1 -142,-6 z m 265,-32 c 44,-23 66,-53 78,-105 27,-120 -56,-208 -168,-178 -22,6 -23,10 -23,144 0,101 3,140 13,143 23,10 78,7 100,-4 z"
       id="path14" />
    <path
       d="m 9886,17167 c -38,-28 -13,-97 34,-97 22,0 50,32 50,57 0,23 -29,53 -51,53 -9,0 -23,-6 -33,-13 z"
       id="path16" />
    <path
       d="m 10473,17160 c -54,-24 -83,-76 -65,-115 23,-50 72,-25 72,36 0,43 27,69 70,69 38,0 60,-20 70,-65 14,-61 15,-60 -57,-90 -76,-32 -132,-64 -151,-88 -39,-47 -31,-130 16,-168 38,-29 98,-22 150,20 22,17 42,31 45,31 2,0 7,-13 10,-30 11,-52 80,-48 131,9 23,26 16,37 -14,21 -39,-21 -45,-1 -48,163 -1,86 -7,162 -14,174 -25,50 -140,68 -215,33 z m 157,-249 c 0,-74 -2,-81 -26,-100 -57,-44 -107,-39 -130,14 -16,40 -8,69 27,101 21,19 102,61 122,63 4,1 7,-35 7,-78 z"
       id="path18" />
    <path
       d="m 11144,17164 c -39,-19 -64,-62 -64,-111 0,-54 19,-75 107,-123 89,-47 113,-70 113,-111 0,-96 -147,-88 -188,11 -10,22 -20,40 -24,40 -5,0 -8,-34 -8,-75 0,-41 4,-75 9,-75 5,0 11,5 13,12 3,9 15,9 50,0 67,-17 103,-15 148,8 45,23 70,63 70,112 0,57 -29,89 -130,143 -74,40 -96,56 -103,79 -9,26 -6,33 17,53 53,45 135,16 157,-57 7,-22 16,-40 21,-40 4,0 8,34 8,75 0,41 -4,75 -9,75 -5,0 -11,-5 -13,-12 -4,-10 -13,-10 -45,0 -53,16 -91,15 -129,-4 z"
       id="path20" />
    <path
       d="m 11540,17158 c -25,-13 -57,-41 -74,-65 -25,-36 -30,-54 -34,-121 -5,-93 7,-139 51,-189 56,-64 134,-80 207,-43 44,23 86,78 96,128 8,40 -1,41 -21,2 -32,-61 -113,-87 -173,-56 -54,28 -82,71 -96,149 l -7,37 h 152 152 l -6,42 c -15,112 -140,171 -247,116 z m 121,-37 c 19,-20 29,-40 29,-60 v -31 h -99 -100 l 10,33 c 5,17 22,44 39,60 41,37 83,36 121,-2 z"
       id="path22" />
    <path
       d="m 9873,16804 c -15,-24 -15,-29 -2,-53 18,-32 54,-39 80,-15 24,22 24,56 1,77 -27,25 -59,21 -79,-9 z"
       id="path24" />
    <path
       d="m 10312,16339 c -54,-27 -91,-88 -99,-164 l -6,-55 h -38 c -28,0 -39,-4 -39,-15 0,-11 11,-15 40,-15 h 40 v -178 c 0,-194 -3,-206 -55,-221 -21,-7 10,-9 105,-9 89,0 122,3 96,8 -63,12 -66,22 -66,222 v 178 h 55 c 42,0 55,3 55,15 0,12 -13,15 -56,15 h -56 l 3,84 c 6,134 52,163 127,81 43,-48 62,-54 82,-29 33,39 -36,104 -110,104 -19,0 -54,-10 -78,-21 z"
       id="path26" />
    <path
       d="m 10920,16338 c -56,-21 -96,-47 -52,-33 50,15 52,5 52,-299 0,-154 -4,-286 -8,-293 -4,-7 -19,-16 -32,-22 -19,-7 3,-10 85,-9 61,0 101,3 90,5 -11,3 -28,12 -37,21 -16,14 -18,43 -18,334 0,248 -3,318 -12,317 -7,0 -38,-9 -68,-21 z"
       id="path28" />
    <path
       d="m 9425,16331 c -95,-25 -191,-114 -221,-204 -10,-29 -17,-82 -17,-122 0,-40 7,-93 17,-122 22,-66 93,-146 159,-179 27,-14 73,-44 100,-66 90,-70 249,-137 330,-138 35,0 15,16 -42,32 -59,18 -133,76 -160,126 -10,19 -7,23 33,41 58,25 125,93 157,156 21,43 24,64 24,155 0,90 -3,111 -23,148 -58,110 -152,173 -262,178 -36,2 -78,0 -95,-5 z m 155,-43 c 81,-41 121,-134 121,-287 1,-153 -39,-243 -126,-282 -79,-37 -159,-19 -214,47 -76,93 -92,315 -31,433 52,102 153,138 250,89 z"
       id="path30" />
    <path
       d="m 9936,16117 c -38,-28 -13,-97 34,-97 22,0 50,32 50,57 0,23 -29,53 -51,53 -9,0 -23,-6 -33,-13 z"
       id="path32" />
    <path
       d="m 10523,16110 c -54,-24 -83,-76 -65,-115 23,-50 72,-25 72,36 0,43 27,69 70,69 38,0 60,-20 70,-65 14,-61 15,-60 -57,-90 -76,-32 -132,-64 -151,-88 -39,-47 -31,-130 16,-168 38,-29 98,-22 150,20 22,17 42,31 45,31 2,0 7,-13 10,-30 11,-52 80,-48 131,9 23,26 16,37 -14,21 -39,-21 -45,-1 -48,163 -1,86 -7,162 -14,174 -25,50 -140,68 -215,33 z m 157,-249 c 0,-74 -2,-81 -26,-100 -57,-44 -107,-39 -130,14 -16,40 -8,69 27,101 21,19 102,61 122,63 4,1 7,-35 7,-78 z"
       id="path34" />
    <path
       d="m 11194,16114 c -39,-19 -64,-62 -64,-111 0,-54 19,-75 107,-123 89,-47 113,-70 113,-111 0,-96 -147,-88 -188,11 -10,22 -20,40 -24,40 -5,0 -8,-34 -8,-75 0,-41 4,-75 9,-75 5,0 11,5 13,12 3,9 15,9 50,0 67,-17 103,-15 148,8 45,23 70,63 70,112 0,57 -29,89 -130,143 -74,40 -96,56 -103,79 -9,26 -6,33 17,53 53,45 135,16 157,-57 7,-22 16,-40 21,-40 4,0 8,34 8,75 0,41 -4,75 -9,75 -5,0 -11,-5 -13,-12 -4,-10 -13,-10 -45,0 -53,16 -91,15 -129,-4 z"
       id="path36" />
    <path
       d="m 11590,16108 c -25,-13 -57,-41 -74,-65 -25,-36 -30,-54 -34,-121 -5,-93 7,-139 51,-189 56,-64 134,-80 207,-43 44,23 86,78 96,128 8,40 -1,41 -21,2 -32,-61 -113,-87 -173,-56 -54,28 -82,71 -96,149 l -7,37 h 152 152 l -6,42 c -15,112 -140,171 -247,116 z m 121,-37 c 19,-20 29,-40 29,-60 v -31 h -99 -100 l 10,33 c 5,17 22,44 39,60 41,37 83,36 121,-2 z"
       id="path38" />
    <path
       d="m 9923,15754 c -15,-24 -15,-29 -2,-53 18,-32 54,-39 80,-15 24,22 24,56 1,77 -27,25 -59,21 -79,-9 z"
       id="path40" />
    <path
       d="m 18300,18419 c -35,-14 -69,-48 -91,-91 -21,-41 -10,-52 15,-17 70,101 205,65 206,-55 0,-67 -28,-108 -93,-140 -41,-20 -47,-25 -27,-26 14,0 48,-11 76,-24 59,-27 84,-69 84,-138 -1,-52 -16,-83 -56,-109 -37,-24 -74,-24 -134,2 -54,23 -78,22 -94,-3 -8,-14 -7,-22 7,-35 14,-14 35,-18 100,-18 102,0 166,28 212,94 25,36 30,53 33,114 4,84 -15,124 -74,159 l -35,21 24,26 c 58,61 72,132 38,187 -33,54 -124,80 -191,53 z"
       id="path42" />
    <path
       d="m 17497,18183 c 21,-21 48,-81 103,-226 40,-108 78,-196 84,-194 6,2 37,63 70,135 32,72 62,130 65,127 3,-2 29,-62 56,-134 28,-72 55,-131 61,-131 6,0 46,92 89,205 59,156 84,210 104,225 l 26,19 h -75 c -62,0 -70,-2 -47,-11 15,-5 27,-17 27,-26 0,-21 -93,-272 -101,-272 -9,0 -99,233 -99,257 0,14 10,28 28,37 25,14 21,15 -78,15 -65,0 -97,-3 -85,-9 27,-10 40,-27 60,-76 l 16,-42 -43,-96 c -24,-52 -46,-96 -49,-96 -9,0 -99,252 -99,278 0,14 8,26 23,32 15,6 -5,9 -72,9 l -93,1 z"
       id="path44" />
    <path
       d="m 17772,17389 c -54,-27 -91,-88 -99,-164 l -6,-55 h -38 c -28,0 -39,-4 -39,-15 0,-11 11,-15 40,-15 h 40 v -178 c 0,-194 -3,-206 -55,-221 -21,-7 10,-9 105,-9 89,0 122,3 96,8 -63,12 -66,22 -66,222 v 178 h 55 c 42,0 55,3 55,15 0,12 -13,15 -56,15 h -56 l 3,84 c 6,134 52,163 127,81 43,-48 62,-54 82,-29 33,39 -36,104 -110,104 -19,0 -54,-10 -78,-21 z"
       id="path46" />
    <path
       d="m 18380,17388 c -56,-21 -96,-47 -52,-33 50,15 52,5 52,-299 0,-154 -4,-286 -8,-293 -4,-7 -19,-16 -32,-22 -19,-7 3,-10 85,-9 61,0 101,3 90,5 -11,3 -28,12 -37,21 -16,14 -18,43 -18,334 0,248 -3,318 -12,317 -7,0 -38,-9 -68,-21 z"
       id="path48" />
    <path
       d="m 16818,17371 c 19,-5 39,-14 45,-20 9,-9 12,-94 12,-296 0,-202 -3,-287 -12,-296 -6,-6 -26,-15 -45,-19 -21,-5 17,-8 107,-8 93,0 129,3 105,8 -54,13 -60,29 -60,166 v 123 l 68,-6 c 86,-7 143,9 186,52 57,57 66,160 18,224 -10,14 -39,37 -63,51 -42,24 -53,25 -219,27 -111,1 -163,-1 -142,-6 z m 265,-32 c 44,-23 66,-53 78,-105 27,-120 -56,-208 -168,-178 -22,6 -23,10 -23,144 0,101 3,140 13,143 23,10 78,7 100,-4 z"
       id="path50" />
    <path
       d="m 17396,17167 c -38,-28 -13,-97 34,-97 22,0 50,32 50,57 0,23 -29,53 -51,53 -9,0 -23,-6 -33,-13 z"
       id="path52" />
    <path
       d="m 17983,17160 c -54,-24 -83,-76 -65,-115 23,-50 72,-25 72,36 0,43 27,69 70,69 38,0 60,-20 70,-65 14,-61 15,-60 -57,-90 -76,-32 -132,-64 -151,-88 -39,-47 -31,-130 16,-168 38,-29 98,-22 150,20 22,17 42,31 45,31 2,0 7,-13 10,-30 11,-52 80,-48 131,9 23,26 16,37 -14,21 -39,-21 -45,-1 -48,163 -1,86 -7,162 -14,174 -25,50 -140,68 -215,33 z m 157,-249 c 0,-74 -2,-81 -26,-100 -57,-44 -107,-39 -130,14 -16,40 -8,69 27,101 21,19 102,61 122,63 4,1 7,-35 7,-78 z"
       id="path54" />
    <path
       d="m 18654,17164 c -39,-19 -64,-62 -64,-111 0,-54 19,-75 107,-123 89,-47 113,-70 113,-111 0,-96 -147,-88 -188,11 -10,22 -20,40 -24,40 -5,0 -8,-34 -8,-75 0,-41 4,-75 9,-75 5,0 11,5 13,12 3,9 15,9 50,0 67,-17 103,-15 148,8 45,23 70,63 70,112 0,57 -29,89 -130,143 -74,40 -96,56 -103,79 -9,26 -6,33 17,53 53,45 135,16 157,-57 7,-22 16,-40 21,-40 4,0 8,34 8,75 0,41 -4,75 -9,75 -5,0 -11,-5 -13,-12 -4,-10 -13,-10 -45,0 -53,16 -91,15 -129,-4 z"
       id="path56" />
    <path
       d="m 19060,17158 c -25,-13 -57,-41 -74,-65 -25,-36 -30,-54 -34,-121 -5,-93 7,-139 51,-189 56,-64 134,-80 207,-43 44,23 86,78 96,128 8,40 -1,41 -21,2 -32,-61 -113,-87 -173,-56 -54,28 -82,71 -96,149 l -7,37 h 152 152 l -6,42 c -15,112 -140,171 -247,116 z m 121,-37 c 19,-20 29,-40 29,-60 v -31 h -99 -100 l 10,33 c 5,17 22,44 39,60 41,37 83,36 121,-2 z"
       id="path58" />
    <path
       d="m 17383,16804 c -15,-24 -15,-29 -2,-53 18,-32 54,-39 80,-15 24,22 24,56 1,77 -27,25 -59,21 -79,-9 z"
       id="path60" />
    <path
       d="m 17115,16331 c -95,-25 -191,-114 -221,-204 -10,-29 -17,-82 -17,-122 0,-40 7,-93 17,-122 22,-66 93,-146 159,-179 27,-14 73,-44 100,-66 90,-70 249,-137 330,-138 35,0 15,16 -42,32 -59,18 -133,76 -160,126 -10,19 -7,23 33,41 58,25 125,93 157,156 21,43 24,64 24,155 0,90 -3,111 -23,148 -58,110 -152,173 -262,178 -36,2 -78,0 -95,-5 z m 155,-43 c 81,-41 121,-134 121,-287 1,-153 -39,-243 -126,-282 -79,-37 -159,-19 -214,47 -76,93 -92,315 -31,433 52,102 153,138 250,89 z"
       id="path62" />
    <path
       d="m 17908,16226 c -21,-44 -74,-103 -99,-111 -31,-10 -22,-25 16,-25 h 35 v -176 c 0,-177 5,-205 39,-231 38,-29 110,-3 137,48 8,17 12,29 7,27 -4,-2 -21,-10 -36,-18 -21,-10 -33,-11 -45,-3 -15,9 -17,34 -20,182 l -2,171 h 50 c 38,0 50,4 50,15 0,11 -12,15 -50,15 h -50 v 70 c 0,39 -4,70 -8,70 -5,0 -16,-15 -24,-34 z"
       id="path64" />
    <path
       d="m 17626,16117 c -38,-28 -13,-97 34,-97 22,0 50,32 50,57 0,23 -29,53 -51,53 -9,0 -23,-6 -33,-13 z"
       id="path66" />
    <path
       d="m 18113,16106 c -54,-22 -84,-43 -47,-32 14,4 28,1 38,-9 13,-14 16,-43 16,-179 0,-174 -3,-186 -55,-199 -11,-2 32,-5 95,-5 105,-1 112,0 84,12 -17,8 -34,21 -38,31 -3,9 -6,74 -6,144 0,125 0,127 28,161 l 29,34 30,-22 c 17,-12 38,-22 47,-22 21,0 39,37 32,66 -7,26 4,30 35,14 17,-10 19,-22 19,-133 0,-172 12,-235 50,-269 20,-19 41,-28 64,-28 34,0 97,35 129,72 17,20 17,19 17,-26 0,-54 4,-55 81,-24 62,24 88,43 47,33 -43,-11 -48,14 -48,214 v 181 l -77,-1 c -74,0 -76,-1 -43,-12 l 35,-12 3,-157 3,-157 -44,-25 c -52,-31 -77,-32 -108,-7 -23,19 -24,24 -27,194 l -4,175 -101,5 c -114,5 -133,-2 -174,-63 l -23,-33 v 52 c 0,60 -6,62 -87,27 z"
       id="path68" />
    <path
       d="m 18970,16108 c -25,-13 -57,-41 -74,-65 -25,-36 -30,-54 -34,-121 -5,-93 7,-139 51,-189 56,-64 134,-80 207,-43 44,23 86,78 96,128 8,40 -1,41 -21,2 -32,-61 -113,-87 -173,-56 -54,28 -82,71 -96,149 l -7,37 h 152 152 l -6,42 c -15,112 -140,171 -247,116 z m 121,-37 c 19,-20 29,-40 29,-60 v -31 h -99 -100 l 10,33 c 5,17 22,44 39,60 41,37 83,36 121,-2 z"
       id="path70" />
    <path
       d="m 17613,15754 c -15,-24 -15,-29 -2,-53 18,-32 54,-39 80,-15 24,22 24,56 1,77 -27,25 -59,21 -79,-9 z"
       id="path72" />
    <path
       d="m 2795,16224 c -689,-71 -1276,-344 -1743,-814 -426,-427 -689,-950 -787,-1565 -25,-155 -31,-537 -11,-709 60,-518 236,-961 550,-1381 116,-156 382,-422 536,-537 397,-296 823,-473 1315,-545 148,-21 560,-24 705,-5 596,80 1110,315 1545,708 236,213 461,507 609,795 l 39,75 909,-428 c 500,-235 913,-428 919,-428 14,0 34,49 23,59 -7,6 -1380,655 -1741,822 l -81,38 44,113 c 216,545 251,1157 99,1734 -35,134 -83,275 -129,377 l -25,58 82,39 c 184,86 1750,840 1755,845 3,3 -1,18 -9,35 l -14,29 -914,-440 c -503,-241 -918,-439 -922,-439 -4,0 -33,48 -65,106 -79,144 -174,289 -274,414 -98,124 -310,338 -430,434 -387,310 -853,512 -1360,591 -101,16 -528,29 -625,19 z m 625,-89 c 614,-96 1142,-368 1567,-808 655,-678 909,-1636 677,-2558 -164,-653 -567,-1219 -1139,-1600 -135,-90 -410,-230 -559,-284 -860,-315 -1843,-171 -2564,375 -588,445 -955,1058 -1068,1785 -29,186 -27,641 4,820 102,589 360,1094 766,1499 436,435 989,704 1606,781 153,19 562,13 710,-10 z"
       id="path74" />
    <path
       d="m 3292,14874 c -91,-47 -142,-162 -142,-323 0,-114 15,-174 62,-242 96,-142 251,-106 320,73 26,68 34,196 18,281 -31,165 -153,265 -258,211 z m 99,-24 c 57,-31 89,-198 72,-379 -13,-133 -36,-192 -83,-211 -63,-26 -109,25 -131,146 -13,70 -6,289 12,352 22,79 79,119 130,92 z"
       id="path76" />
    <path
       d="m 2477,14643 c 21,-21 48,-81 103,-226 40,-108 78,-196 84,-194 6,2 37,63 70,135 32,72 62,130 65,127 3,-2 29,-62 56,-134 28,-72 55,-131 61,-131 6,0 46,92 89,205 59,156 84,210 104,225 l 26,19 h -75 c -62,0 -70,-2 -47,-11 15,-5 27,-17 27,-26 0,-21 -93,-272 -101,-272 -9,0 -99,233 -99,257 0,14 10,28 28,37 25,14 21,15 -78,15 -65,0 -97,-3 -85,-9 27,-10 40,-27 60,-76 l 16,-42 -43,-96 c -24,-52 -46,-96 -49,-96 -9,0 -99,252 -99,278 0,14 8,26 23,32 15,6 -5,9 -72,9 l -93,1 z"
       id="path78" />
    <path
       d="m 2742,13839 c -54,-27 -91,-88 -99,-164 l -6,-55 h -38 c -28,0 -39,-4 -39,-15 0,-11 11,-15 40,-15 h 40 v -178 c 0,-194 -3,-206 -55,-221 -21,-7 10,-9 105,-9 89,0 122,3 96,8 -63,12 -66,22 -66,222 v 178 h 55 c 42,0 55,3 55,15 0,12 -13,15 -56,15 h -56 l 3,84 c 6,134 52,163 127,81 43,-48 62,-54 82,-29 33,39 -36,104 -110,104 -19,0 -54,-10 -78,-21 z"
       id="path80" />
    <path
       d="m 3350,13838 c -56,-21 -96,-47 -52,-33 50,15 52,5 52,-299 0,-154 -4,-286 -8,-293 -4,-7 -19,-16 -32,-22 -19,-7 3,-10 85,-9 61,0 101,3 90,5 -11,3 -28,12 -37,21 -16,14 -18,43 -18,334 0,248 -3,318 -12,317 -7,0 -38,-9 -68,-21 z"
       id="path82" />
    <path
       d="m 1788,13821 c 19,-5 39,-14 45,-20 17,-17 17,-575 0,-592 -6,-6 -26,-15 -45,-19 -21,-5 17,-8 107,-8 93,0 129,3 105,8 -54,13 -60,29 -60,166 v 123 l 68,-6 c 86,-7 143,9 186,52 57,57 66,160 18,224 -10,14 -39,37 -63,51 -42,24 -53,25 -219,27 -111,1 -163,-1 -142,-6 z m 265,-32 c 44,-23 66,-53 78,-105 27,-120 -56,-208 -168,-178 -22,6 -23,10 -23,144 0,101 3,140 13,143 23,10 78,7 100,-4 z"
       id="path84" />
    <path
       d="m 2366,13617 c -38,-28 -13,-97 34,-97 22,0 50,32 50,57 0,23 -29,53 -51,53 -9,0 -23,-6 -33,-13 z"
       id="path86" />
    <path
       d="m 2963,13610 c -54,-24 -83,-76 -65,-115 23,-50 72,-25 72,36 0,43 27,69 70,69 38,0 60,-20 70,-65 14,-61 15,-60 -57,-90 -76,-32 -132,-64 -151,-88 -39,-47 -31,-130 16,-168 38,-29 98,-22 150,20 22,17 42,31 45,31 2,0 7,-13 10,-30 11,-52 80,-48 131,9 23,26 16,37 -14,21 -39,-21 -45,-1 -48,163 -1,86 -7,162 -14,174 -25,50 -140,68 -215,33 z m 157,-249 c 0,-74 -2,-81 -26,-100 -57,-44 -107,-39 -130,14 -16,40 -8,69 27,101 21,19 102,61 122,63 4,1 7,-35 7,-78 z"
       id="path88" />
    <path
       d="m 3624,13614 c -39,-19 -64,-62 -64,-111 0,-54 19,-75 107,-123 89,-47 113,-70 113,-111 0,-96 -147,-88 -188,11 -10,22 -20,40 -24,40 -5,0 -8,-34 -8,-75 0,-41 4,-75 9,-75 5,0 11,5 13,12 3,9 15,9 50,0 67,-17 103,-15 148,8 45,23 70,63 70,112 0,57 -29,89 -130,143 -74,40 -96,56 -103,79 -9,26 -6,33 17,53 53,45 135,16 157,-57 7,-22 16,-40 21,-40 4,0 8,34 8,75 0,41 -4,75 -9,75 -5,0 -11,-5 -13,-12 -4,-10 -13,-10 -45,0 -53,16 -91,15 -129,-4 z"
       id="path90" />
    <path
       d="m 4030,13608 c -25,-13 -57,-41 -74,-65 -25,-36 -30,-54 -34,-121 -5,-93 7,-139 51,-189 56,-64 134,-80 207,-43 44,23 86,78 96,128 8,40 -1,41 -21,2 -32,-61 -113,-87 -173,-56 -54,28 -82,71 -96,149 l -7,37 h 152 152 l -6,42 c -15,112 -140,171 -247,116 z m 121,-37 c 19,-20 29,-40 29,-60 v -31 h -99 -100 l 10,33 c 5,17 22,44 39,60 41,37 83,36 121,-2 z"
       id="path92" />
    <path
       d="m 2353,13254 c -15,-24 -15,-29 -2,-53 18,-32 54,-39 80,-15 24,22 24,56 1,77 -27,25 -59,21 -79,-9 z"
       id="path94" />
    <path
       d="m 2802,12799 c -54,-27 -91,-88 -99,-164 l -6,-55 h -38 c -28,0 -39,-4 -39,-15 0,-11 11,-15 40,-15 h 40 v -178 c 0,-194 -3,-206 -55,-221 -21,-7 10,-9 105,-9 89,0 122,3 96,8 -63,12 -66,22 -66,222 v 178 h 55 c 42,0 55,3 55,15 0,12 -13,15 -56,15 h -56 l 3,84 c 6,134 52,163 127,81 43,-48 62,-54 82,-29 33,39 -36,104 -110,104 -19,0 -54,-10 -78,-21 z"
       id="path96" />
    <path
       d="m 3410,12798 c -56,-21 -96,-47 -52,-33 50,15 52,5 52,-299 0,-154 -4,-286 -8,-293 -4,-7 -19,-16 -32,-22 -19,-7 3,-10 85,-9 61,0 101,3 90,5 -11,3 -28,12 -37,21 -16,14 -18,43 -18,334 0,248 -3,318 -12,317 -7,0 -38,-9 -68,-21 z"
       id="path98" />
    <path
       d="m 1915,12791 c -95,-25 -191,-114 -221,-204 -10,-29 -17,-82 -17,-122 0,-40 7,-93 17,-122 22,-66 93,-146 159,-179 27,-14 73,-44 100,-66 90,-70 249,-137 330,-138 35,0 15,16 -42,32 -59,18 -133,76 -160,126 -10,19 -7,23 33,41 58,25 125,93 157,156 21,43 24,64 24,155 0,90 -3,111 -23,148 -58,110 -152,173 -262,178 -36,2 -78,0 -95,-5 z m 155,-43 c 81,-41 121,-134 121,-287 1,-153 -39,-243 -126,-282 -79,-37 -159,-19 -214,47 -76,93 -92,315 -31,433 52,102 153,138 250,89 z"
       id="path100" />
    <path
       d="m 2426,12577 c -38,-28 -13,-97 34,-97 22,0 50,32 50,57 0,23 -29,53 -51,53 -9,0 -23,-6 -33,-13 z"
       id="path102" />
    <path
       d="m 3013,12570 c -54,-24 -83,-76 -65,-115 23,-50 72,-25 72,36 0,43 27,69 70,69 38,0 60,-20 70,-65 14,-61 15,-60 -57,-90 -76,-32 -132,-64 -151,-88 -39,-47 -31,-130 16,-168 38,-29 98,-22 150,20 22,17 42,31 45,31 2,0 7,-13 10,-30 11,-52 80,-48 131,9 23,26 16,37 -14,21 -39,-21 -45,-1 -48,163 -1,86 -7,162 -14,174 -25,50 -140,68 -215,33 z m 157,-249 c 0,-74 -2,-81 -26,-100 -57,-44 -107,-39 -130,14 -16,40 -8,69 27,101 21,19 102,61 122,63 4,1 7,-35 7,-78 z"
       id="path104" />
    <path
       d="m 3684,12574 c -39,-19 -64,-62 -64,-111 0,-54 19,-75 107,-123 89,-47 113,-70 113,-111 0,-96 -147,-88 -188,11 -10,22 -20,40 -24,40 -5,0 -8,-34 -8,-75 0,-41 4,-75 9,-75 5,0 11,5 13,12 3,9 15,9 50,0 67,-17 103,-15 148,8 45,23 70,63 70,112 0,57 -29,89 -130,143 -74,40 -96,56 -103,79 -9,26 -6,33 17,53 53,45 135,16 157,-57 7,-22 16,-40 21,-40 4,0 8,34 8,75 0,41 -4,75 -9,75 -5,0 -11,-5 -13,-12 -4,-10 -13,-10 -45,0 -53,16 -91,15 -129,-4 z"
       id="path106" />
    <path
       d="m 4080,12568 c -25,-13 -57,-41 -74,-65 -25,-36 -30,-54 -34,-121 -5,-93 7,-139 51,-189 56,-64 134,-80 207,-43 44,23 86,78 96,128 8,40 -1,41 -21,2 -32,-61 -113,-87 -173,-56 -54,28 -82,71 -96,149 l -7,37 h 152 152 l -6,42 c -15,112 -140,171 -247,116 z m 121,-37 c 19,-20 29,-40 29,-60 v -31 h -99 -100 l 10,33 c 5,17 22,44 39,60 41,37 83,36 121,-2 z"
       id="path108" />
    <path
       d="m 2413,12214 c -15,-24 -15,-29 -2,-53 18,-32 54,-39 80,-15 24,22 24,56 1,77 -27,25 -59,21 -79,-9 z"
       id="path110" />
    <path
       d="m 17817,12820 c -810,-79 -1512,-468 -1993,-1107 -326,-432 -516,-943 -554,-1492 -5,-79 -11,-146 -14,-148 -2,-3 -190,77 -417,176 -226,100 -413,180 -415,178 -1,-1 94,-88 213,-192 l 216,-190 -127,-3 -126,-3 v -34 -35 h 125 126 l -210,-192 c -115,-106 -209,-194 -207,-195 2,-2 184,80 405,182 221,102 407,186 414,188 8,1 14,-32 19,-113 3,-64 16,-173 27,-244 96,-586 360,-1104 781,-1527 463,-466 1056,-745 1718,-810 167,-16 522,-6 684,20 790,127 1470,567 1911,1236 89,135 228,410 282,559 176,481 217,1023 114,1526 -148,722 -577,1355 -1204,1772 -153,102 -442,245 -612,302 -299,101 -547,145 -863,151 -113,2 -244,0 -293,-5 z m 633,-89 c 721,-110 1354,-487 1784,-1065 112,-151 164,-235 250,-406 298,-589 370,-1255 206,-1900 -121,-476 -360,-892 -719,-1250 -404,-403 -894,-656 -1467,-757 -149,-26 -177,-28 -439,-28 -285,0 -344,5 -554,46 -701,139 -1342,575 -1737,1184 -255,392 -398,818 -434,1295 -10,132 -10,135 12,151 l 21,17 -22,7 c -23,7 -23,9 -16,123 45,813 391,1499 1013,2010 407,334 938,545 1502,596 114,10 470,-4 600,-23 z"
       id="path112" />
    <path
       d="m 18307,11266 c -111,-162 -147,-222 -147,-245 v -31 h 135 135 v -85 -85 h 40 40 v 85 85 h 40 c 38,0 40,2 40,30 0,28 -2,30 -40,30 h -40 v 215 215 h -28 c -26,0 -43,-20 -175,-214 z m 123,-56 v -160 h -116 -115 l 24,33 c 13,17 63,89 111,160 48,70 89,127 91,127 3,0 5,-72 5,-160 z"
       id="path114" />
    <path
       d="m 17497,11233 c 21,-21 48,-81 103,-226 40,-108 78,-196 84,-194 6,2 37,63 70,135 32,72 62,130 65,127 3,-2 29,-62 56,-134 28,-72 55,-131 61,-131 6,0 46,92 89,205 59,156 84,210 104,225 l 26,19 h -75 c -62,0 -70,-2 -47,-11 15,-5 27,-17 27,-26 0,-21 -93,-272 -101,-272 -9,0 -99,233 -99,257 0,14 10,28 28,37 25,14 21,15 -78,15 -65,0 -97,-3 -85,-9 27,-10 40,-27 60,-76 l 16,-42 -43,-96 c -24,-52 -46,-96 -49,-96 -9,0 -99,252 -99,278 0,14 8,26 23,32 15,6 -5,9 -72,9 l -93,1 z"
       id="path116" />
    <path
       d="m 17772,10439 c -54,-27 -91,-88 -99,-164 l -6,-55 h -38 c -28,0 -39,-4 -39,-15 0,-11 11,-15 40,-15 h 40 v -178 c 0,-194 -3,-206 -55,-221 -21,-7 10,-9 105,-9 89,0 122,3 96,8 -63,12 -66,22 -66,222 v 178 h 55 c 42,0 55,3 55,15 0,12 -13,15 -56,15 h -56 l 3,84 c 6,134 52,163 127,81 43,-48 62,-54 82,-29 33,39 -36,104 -110,104 -19,0 -54,-10 -78,-21 z"
       id="path118" />
    <path
       d="m 18380,10438 c -56,-21 -96,-47 -52,-33 50,15 52,5 52,-299 0,-154 -4,-286 -8,-293 -4,-7 -19,-16 -32,-22 -19,-7 3,-10 85,-9 61,0 101,3 90,5 -11,3 -28,12 -37,21 -16,14 -18,43 -18,334 0,248 -3,318 -12,317 -7,0 -38,-9 -68,-21 z"
       id="path120" />
    <path
       d="m 16818,10421 c 19,-5 39,-14 45,-20 9,-9 12,-94 12,-296 0,-202 -3,-287 -12,-296 -6,-6 -26,-15 -45,-19 -21,-5 17,-8 107,-8 93,0 129,3 105,8 -54,13 -60,29 -60,166 v 123 l 68,-6 c 86,-7 143,9 186,52 57,57 66,160 18,224 -10,14 -39,37 -63,51 -42,24 -53,25 -219,27 -111,1 -163,-1 -142,-6 z m 265,-32 c 44,-23 66,-53 78,-105 27,-120 -56,-208 -168,-178 -22,6 -23,10 -23,144 0,101 3,140 13,143 23,10 78,7 100,-4 z"
       id="path122" />
    <path
       d="m 17396,10217 c -38,-28 -13,-97 34,-97 22,0 50,32 50,57 0,23 -29,53 -51,53 -9,0 -23,-6 -33,-13 z"
       id="path124" />
    <path
       d="m 17983,10210 c -54,-24 -83,-76 -65,-115 23,-50 72,-25 72,36 0,43 27,69 70,69 38,0 60,-20 70,-65 14,-61 15,-60 -57,-90 -76,-32 -132,-64 -151,-88 -39,-47 -31,-130 16,-168 38,-29 98,-22 150,20 22,17 42,31 45,31 2,0 7,-13 10,-30 11,-52 80,-48 131,9 23,26 16,37 -14,21 -39,-21 -45,-1 -48,163 -1,86 -7,162 -14,174 -25,50 -140,68 -215,33 z m 157,-249 c 0,-74 -2,-81 -26,-100 -57,-44 -107,-39 -130,14 -16,40 -8,69 27,101 21,19 102,61 122,63 4,1 7,-35 7,-78 z"
       id="path126" />
    <path
       d="m 18654,10214 c -39,-19 -64,-62 -64,-111 0,-54 19,-75 107,-123 89,-47 113,-70 113,-111 0,-96 -147,-88 -188,11 -10,22 -20,40 -24,40 -5,0 -8,-34 -8,-75 0,-41 4,-75 9,-75 5,0 11,5 13,12 3,9 15,9 50,0 67,-17 103,-15 148,8 45,23 70,63 70,112 0,57 -29,89 -130,143 -74,40 -96,56 -103,79 -9,26 -6,33 17,53 53,45 135,16 157,-57 7,-22 16,-40 21,-40 4,0 8,34 8,75 0,41 -4,75 -9,75 -5,0 -11,-5 -13,-12 -4,-10 -13,-10 -45,0 -53,16 -91,15 -129,-4 z"
       id="path128" />
    <path
       d="m 19060,10208 c -25,-13 -57,-41 -74,-65 -25,-36 -30,-54 -34,-121 -5,-93 7,-139 51,-189 56,-64 134,-80 207,-43 44,23 86,78 96,128 8,40 -1,41 -21,2 -32,-61 -113,-87 -173,-56 -54,28 -82,71 -96,149 l -7,37 h 152 152 l -6,42 c -15,112 -140,171 -247,116 z m 121,-37 c 19,-20 29,-40 29,-60 v -31 h -99 -100 l 10,33 c 5,17 22,44 39,60 41,37 83,36 121,-2 z"
       id="path130" />
    <path
       d="m 17383,9854 c -15,-24 -15,-29 -2,-53 18,-32 54,-39 80,-15 24,22 24,56 1,77 -27,25 -59,21 -79,-9 z"
       id="path132" />
    <path
       d="m 17822,9399 c -54,-27 -91,-88 -99,-164 l -6,-55 h -38 c -28,0 -39,-4 -39,-15 0,-11 11,-15 40,-15 h 40 v -178 c 0,-194 -3,-206 -55,-221 -21,-7 10,-9 105,-9 89,0 122,3 96,8 -63,12 -66,22 -66,222 v 178 h 55 c 42,0 55,3 55,15 0,12 -13,15 -56,15 h -56 l 3,84 c 6,134 52,163 127,81 43,-48 62,-54 82,-29 33,39 -36,104 -110,104 -19,0 -54,-10 -78,-21 z"
       id="path134" />
    <path
       d="m 18430,9398 c -56,-21 -96,-47 -52,-33 50,15 52,5 52,-299 0,-154 -4,-286 -8,-293 -4,-7 -19,-16 -32,-22 -19,-7 3,-10 85,-9 61,0 101,3 90,5 -11,3 -28,12 -37,21 -16,14 -18,43 -18,334 0,248 -3,318 -12,317 -7,0 -38,-9 -68,-21 z"
       id="path136" />
    <path
       d="m 16945,9391 c -95,-25 -191,-114 -221,-204 -10,-29 -17,-82 -17,-122 0,-40 7,-93 17,-122 22,-66 93,-146 159,-179 27,-14 73,-44 100,-66 90,-70 249,-137 330,-138 35,0 15,16 -42,32 -59,18 -133,76 -160,126 -10,19 -7,23 33,41 58,25 125,93 157,156 21,43 24,64 24,155 0,90 -3,111 -23,148 -58,110 -152,173 -262,178 -36,2 -78,0 -95,-5 z m 155,-43 c 81,-41 121,-134 121,-287 1,-153 -39,-243 -126,-282 -79,-37 -159,-19 -214,47 -76,93 -92,315 -31,433 52,102 153,138 250,89 z"
       id="path138" />
    <path
       d="m 17446,9177 c -38,-28 -13,-97 34,-97 22,0 50,32 50,57 0,23 -29,53 -51,53 -9,0 -23,-6 -33,-13 z"
       id="path140" />
    <path
       d="m 18043,9170 c -54,-24 -83,-76 -65,-115 23,-50 72,-25 72,36 0,43 27,69 70,69 38,0 60,-20 70,-65 14,-61 15,-60 -57,-90 -76,-32 -132,-64 -151,-88 -39,-47 -31,-130 16,-168 38,-29 98,-22 150,20 22,17 42,31 45,31 2,0 7,-13 10,-30 11,-52 80,-48 131,9 23,26 16,37 -14,21 -39,-21 -45,-1 -48,163 -1,86 -7,162 -14,174 -25,50 -140,68 -215,33 z m 157,-249 c 0,-74 -2,-81 -26,-100 -57,-44 -107,-39 -130,14 -16,40 -8,69 27,101 21,19 102,61 122,63 4,1 7,-35 7,-78 z"
       id="path142" />
    <path
       d="m 18704,9174 c -39,-19 -64,-62 -64,-111 0,-54 19,-75 107,-123 89,-47 113,-70 113,-111 0,-96 -147,-88 -188,11 -10,22 -20,40 -24,40 -5,0 -8,-34 -8,-75 0,-41 4,-75 9,-75 5,0 11,5 13,12 3,9 15,9 50,0 67,-17 103,-15 148,8 45,23 70,63 70,112 0,57 -29,89 -130,143 -74,40 -96,56 -103,79 -9,26 -6,33 17,53 53,45 135,16 157,-57 7,-22 16,-40 21,-40 4,0 8,34 8,75 0,41 -4,75 -9,75 -5,0 -11,-5 -13,-12 -4,-10 -13,-10 -45,0 -53,16 -91,15 -129,-4 z"
       id="path144" />
    <path
       d="m 19110,9168 c -25,-13 -57,-41 -74,-65 -25,-36 -30,-54 -34,-121 -5,-93 7,-139 51,-189 56,-64 134,-80 207,-43 44,23 86,78 96,128 8,40 -1,41 -21,2 -32,-61 -113,-87 -173,-56 -54,28 -82,71 -96,149 l -7,37 h 152 152 l -6,42 c -15,112 -140,171 -247,116 z m 121,-37 c 19,-20 29,-40 29,-60 v -31 h -99 -100 l 10,33 c 5,17 22,44 39,60 41,37 83,36 121,-2 z"
       id="path146" />
    <path
       d="m 17433,8814 c -15,-24 -15,-29 -2,-53 18,-32 54,-39 80,-15 24,22 24,56 1,77 -27,25 -59,21 -79,-9 z"
       id="path148" />
    <path
       d="m 10297,12750 c -405,-39 -795,-161 -1130,-352 -456,-261 -820,-630 -1075,-1091 -33,-60 -63,-111 -65,-114 -3,-2 -128,139 -277,314 -150,175 -284,329 -297,343 l -24,25 21,-50 c 113,-265 200,-478 197,-481 -2,-3 -53,18 -112,46 -59,28 -109,49 -110,48 -7,-9 -25,-48 -25,-55 0,-4 50,-30 110,-58 60,-27 110,-52 110,-55 0,-3 -120,-41 -266,-84 -167,-50 -260,-82 -252,-87 7,-5 139,-9 293,-10 154,-1 348,-4 431,-8 l 152,-6 -35,-85 c -73,-182 -135,-419 -169,-655 -22,-150 -25,-539 -6,-695 56,-445 207,-850 454,-1220 267,-400 617,-713 1042,-930 324,-166 613,-254 976,-296 178,-20 536,-15 700,11 325,51 640,153 910,297 126,67 355,220 455,303 44,36 124,109 178,162 l 98,96 27,-25 c 38,-35 2767,-2602 2820,-2652 l 42,-40 18,24 c 9,14 17,28 17,31 0,4 -632,602 -1405,1329 -773,727 -1420,1336 -1437,1354 l -33,31 78,95 c 287,355 483,771 571,1215 27,133 51,350 51,453 v 82 h 168 c 92,0 373,3 625,7 l 457,6 v 35 34 l -625,-8 -625,-7 v 51 c 0,27 -5,96 -10,153 -67,670 -359,1277 -836,1739 -215,208 -446,371 -708,499 -289,143 -511,211 -841,262 -148,23 -493,33 -638,19 z m 647,-90 c 328,-50 660,-164 933,-320 248,-143 422,-279 624,-487 430,-444 685,-998 749,-1627 16,-150 7,-512 -15,-649 -52,-326 -138,-591 -281,-867 -374,-718 -1061,-1240 -1849,-1403 -221,-46 -287,-52 -570,-52 -289,1 -370,9 -605,61 -656,147 -1268,569 -1649,1138 -320,477 -477,1027 -458,1601 11,332 67,603 184,908 44,113 47,117 76,117 30,0 30,0 11,21 -18,20 -18,22 38,132 213,418 580,809 997,1061 331,201 716,334 1081,375 52,6 111,13 130,15 95,11 471,-4 604,-24 z"
       id="path150" />
    <path
       d="m 10774,11391 c -44,-20 -74,-56 -92,-110 -22,-64 -8,-71 25,-12 36,63 112,88 174,56 45,-24 69,-70 69,-136 0,-89 -43,-160 -182,-305 -65,-67 -118,-124 -118,-128 0,-4 86,-5 192,-4 l 191,3 19,54 c 10,30 16,56 14,59 -2,2 -14,-6 -25,-17 -29,-29 -51,-32 -176,-29 l -110,3 97,102 c 53,57 112,129 132,162 79,130 61,248 -47,300 -53,26 -109,26 -163,2 z"
       id="path152" />
    <path
       d="m 9987,11163 c 21,-21 48,-81 103,-226 40,-108 78,-196 84,-194 6,2 37,63 70,135 32,72 62,130 65,127 3,-2 29,-62 56,-134 28,-72 55,-131 61,-131 6,0 46,92 89,205 59,156 84,210 104,225 l 26,19 h -75 c -62,0 -70,-2 -47,-11 15,-5 27,-17 27,-26 0,-21 -93,-272 -101,-272 -9,0 -99,233 -99,257 0,14 10,28 28,37 25,14 21,15 -78,15 -65,0 -97,-3 -85,-9 27,-10 40,-27 60,-76 l 16,-42 -43,-96 c -24,-52 -46,-96 -49,-96 -9,0 -99,252 -99,278 0,14 8,26 23,32 15,6 -5,9 -72,9 l -93,1 z"
       id="path154" />
    <path
       d="m 9448,10351 c 19,-5 39,-14 45,-20 17,-17 17,-575 0,-592 -6,-6 -26,-15 -45,-19 -21,-5 17,-8 107,-8 93,0 129,3 105,8 -54,13 -60,29 -60,166 v 123 l 68,-6 c 86,-7 143,9 186,52 57,57 66,160 18,224 -10,14 -39,37 -63,51 -42,24 -53,25 -219,27 -111,1 -163,-1 -142,-6 z m 265,-32 c 44,-23 66,-53 78,-105 27,-120 -56,-208 -168,-178 -22,6 -23,10 -23,144 0,101 3,140 13,143 23,10 78,7 100,-4 z"
       id="path156" />
    <path
       d="m 10308,10256 c -21,-44 -74,-103 -99,-111 -31,-10 -22,-25 16,-25 h 35 v -176 c 0,-177 5,-205 39,-231 38,-29 110,-3 137,48 8,17 12,29 7,27 -4,-2 -21,-10 -36,-18 -21,-10 -33,-11 -45,-3 -15,9 -17,34 -20,182 l -2,171 h 50 c 38,0 50,4 50,15 0,11 -12,15 -50,15 h -50 v 70 c 0,39 -4,70 -8,70 -5,0 -16,-15 -24,-34 z"
       id="path158" />
    <path
       d="m 10026,10147 c -38,-28 -13,-97 34,-97 22,0 50,32 50,57 0,23 -29,53 -51,53 -9,0 -23,-6 -33,-13 z"
       id="path160" />
    <path
       d="m 10513,10136 c -54,-22 -84,-43 -47,-32 14,4 28,1 38,-9 13,-14 16,-43 16,-179 0,-174 -3,-186 -55,-199 -11,-2 32,-5 95,-5 105,-1 112,0 84,12 -17,8 -34,21 -38,31 -3,9 -6,74 -6,144 0,125 0,127 28,161 l 29,34 30,-22 c 17,-12 38,-22 47,-22 21,0 39,37 32,66 -7,26 4,30 35,14 17,-10 19,-22 19,-133 0,-172 12,-235 50,-269 20,-19 41,-28 64,-28 34,0 97,35 129,72 17,20 17,19 17,-26 0,-54 4,-55 81,-24 62,24 88,43 47,33 -43,-11 -48,14 -48,214 v 181 l -77,-1 c -74,0 -76,-1 -43,-12 l 35,-12 3,-157 3,-157 -44,-25 c -52,-31 -77,-32 -108,-7 -23,19 -24,24 -27,194 l -4,175 -101,5 c -114,5 -133,-2 -174,-63 l -23,-33 v 52 c 0,60 -6,62 -87,27 z"
       id="path162" />
    <path
       d="m 11370,10138 c -25,-13 -57,-41 -74,-65 -25,-36 -30,-54 -34,-121 -5,-93 7,-139 51,-189 56,-64 134,-80 207,-43 44,23 86,78 96,128 8,40 -1,41 -21,2 -32,-61 -113,-87 -173,-56 -54,28 -82,71 -96,149 l -7,37 h 152 152 l -6,42 c -15,112 -140,171 -247,116 z m 121,-37 c 19,-20 29,-40 29,-60 v -31 h -99 -100 l 10,33 c 5,17 22,44 39,60 41,37 83,36 121,-2 z"
       id="path164" />
    <path
       d="m 10013,9784 c -15,-24 -15,-29 -2,-53 18,-32 54,-39 80,-15 24,22 24,56 1,77 -27,25 -59,21 -79,-9 z"
       id="path166" />
    <path
       d="m 10312,9329 c -54,-27 -91,-88 -99,-164 l -6,-55 h -38 c -28,0 -39,-4 -39,-15 0,-11 11,-15 40,-15 h 40 v -178 c 0,-194 -3,-206 -55,-221 -21,-7 10,-9 105,-9 89,0 122,3 96,8 -63,12 -66,22 -66,222 v 178 h 55 c 42,0 55,3 55,15 0,12 -13,15 -56,15 h -56 l 3,84 c 6,134 52,163 127,81 43,-48 62,-54 82,-29 33,39 -36,104 -110,104 -19,0 -54,-10 -78,-21 z"
       id="path168" />
    <path
       d="m 10920,9328 c -56,-21 -96,-47 -52,-33 50,15 52,5 52,-299 0,-154 -4,-286 -8,-293 -4,-7 -19,-16 -32,-22 -19,-7 3,-10 85,-9 61,0 101,3 90,5 -11,3 -28,12 -37,21 -16,14 -18,43 -18,334 0,248 -3,318 -12,317 -7,0 -38,-9 -68,-21 z"
       id="path170" />
    <path
       d="m 9425,9321 c -95,-25 -191,-114 -221,-204 -10,-29 -17,-82 -17,-122 0,-40 7,-93 17,-122 22,-66 93,-146 159,-179 27,-14 73,-44 100,-66 90,-70 249,-137 330,-138 35,0 15,16 -42,32 -59,18 -133,76 -160,126 -10,19 -7,23 33,41 58,25 125,93 157,156 21,43 24,64 24,155 0,90 -3,111 -23,148 -58,110 -152,173 -262,178 -36,2 -78,0 -95,-5 z m 155,-43 c 81,-41 121,-134 121,-287 1,-153 -39,-243 -126,-282 -79,-37 -159,-19 -214,47 -76,93 -92,315 -31,433 52,102 153,138 250,89 z"
       id="path172" />
    <path
       d="m 9936,9107 c -38,-28 -13,-97 34,-97 22,0 50,32 50,57 0,23 -29,53 -51,53 -9,0 -23,-6 -33,-13 z"
       id="path174" />
    <path
       d="m 10523,9100 c -54,-24 -83,-76 -65,-115 23,-50 72,-25 72,36 0,43 27,69 70,69 38,0 60,-20 70,-65 14,-61 15,-60 -57,-90 -76,-32 -132,-64 -151,-88 -39,-47 -31,-130 16,-168 38,-29 98,-22 150,20 22,17 42,31 45,31 2,0 7,-13 10,-30 11,-52 80,-48 131,9 23,26 16,37 -14,21 -39,-21 -45,-1 -48,163 -1,86 -7,162 -14,174 -25,50 -140,68 -215,33 z m 157,-249 c 0,-74 -2,-81 -26,-100 -57,-44 -107,-39 -130,14 -16,40 -8,69 27,101 21,19 102,61 122,63 4,1 7,-35 7,-78 z"
       id="path176" />
    <path
       d="m 11194,9104 c -39,-19 -64,-62 -64,-111 0,-54 19,-75 107,-123 89,-47 113,-70 113,-111 0,-96 -147,-88 -188,11 -10,22 -20,40 -24,40 -5,0 -8,-34 -8,-75 0,-41 4,-75 9,-75 5,0 11,5 13,12 3,9 15,9 50,0 67,-17 103,-15 148,8 45,23 70,63 70,112 0,57 -29,89 -130,143 -74,40 -96,56 -103,79 -9,26 -6,33 17,53 53,45 135,16 157,-57 7,-22 16,-40 21,-40 4,0 8,34 8,75 0,41 -4,75 -9,75 -5,0 -11,-5 -13,-12 -4,-10 -13,-10 -45,0 -53,16 -91,15 -129,-4 z"
       id="path178" />
    <path
       d="m 11590,9098 c -25,-13 -57,-41 -74,-65 -25,-36 -30,-54 -34,-121 -5,-93 7,-139 51,-189 56,-64 134,-80 207,-43 44,23 86,78 96,128 8,40 -1,41 -21,2 -32,-61 -113,-87 -173,-56 -54,28 -82,71 -96,149 l -7,37 h 152 152 l -6,42 c -15,112 -140,171 -247,116 z m 121,-37 c 19,-20 29,-40 29,-60 v -31 h -99 -100 l 10,33 c 5,17 22,44 39,60 41,37 83,36 121,-2 z"
       id="path180" />
    <path
       d="m 9923,8744 c -15,-24 -15,-29 -2,-53 18,-32 54,-39 80,-15 24,22 24,56 1,77 -27,25 -59,21 -79,-9 z"
       id="path182" />
    <path
       d="m 17890,5809 c -664,-37 -1295,-314 -1772,-777 l -97,-94 -14,34 c -196,476 -342,826 -344,824 -2,-1 8,-130 21,-287 13,-156 23,-285 22,-286 0,-1 -42,36 -92,82 l -91,84 -24,-25 -24,-25 90,-85 90,-85 -288,4 c -159,3 -287,3 -285,1 3,-2 168,-60 369,-129 200,-70 397,-138 436,-152 l 73,-26 -49,-56 c -331,-385 -557,-907 -627,-1448 -22,-171 -23,-504 0,-674 106,-820 539,-1525 1218,-1982 765,-516 1743,-618 2598,-271 563,229 1042,641 1355,1165 545,914 517,2068 -72,2962 -198,300 -490,592 -790,790 -505,333 -1096,491 -1703,456 z m 498,-85 c 474,-56 913,-234 1310,-531 153,-114 411,-372 525,-525 498,-666 668,-1481 477,-2283 -105,-439 -340,-878 -646,-1205 -236,-252 -476,-434 -774,-584 -435,-220 -925,-321 -1394,-288 -388,28 -704,113 -1045,283 -265,131 -496,297 -710,510 -668,668 -940,1623 -725,2549 84,363 260,734 489,1028 107,138 129,162 149,162 12,0 16,5 13,14 -9,22 220,238 365,347 333,248 712,417 1112,494 282,54 563,64 854,29 z"
       id="path184" />
    <path
       d="m 18269,4338 -60,-123 64,-11 c 79,-15 115,-33 162,-81 78,-80 69,-200 -18,-253 -43,-27 -88,-25 -144,5 -50,26 -83,21 -83,-14 0,-75 161,-79 261,-6 68,49 104,125 96,206 -9,103 -74,176 -193,214 l -63,20 19,43 19,42 h 99 99 l 16,40 15,40 h -114 -115 z"
       id="path186" />
    <path
       d="m 17497,4223 c 21,-21 48,-81 103,-226 40,-108 78,-196 84,-194 6,2 37,63 70,135 32,72 62,130 65,127 3,-2 29,-62 56,-134 28,-72 55,-131 61,-131 6,0 46,92 89,205 59,156 84,210 104,225 l 26,19 h -75 c -62,0 -70,-2 -47,-11 15,-5 27,-17 27,-26 0,-21 -93,-272 -101,-272 -9,0 -99,233 -99,257 0,14 10,28 28,37 25,14 21,15 -78,15 -65,0 -97,-3 -85,-9 27,-10 40,-27 60,-76 l 16,-42 -43,-96 c -24,-52 -46,-96 -49,-96 -9,0 -99,252 -99,278 0,14 8,26 23,32 15,6 -5,9 -72,9 l -93,1 z"
       id="path188" />
    <path
       d="m 17772,3429 c -54,-27 -91,-88 -99,-164 l -6,-55 h -38 c -28,0 -39,-4 -39,-15 0,-11 11,-15 40,-15 h 40 v -178 c 0,-194 -3,-206 -55,-221 -21,-7 10,-9 105,-9 89,0 122,3 96,8 -63,12 -66,22 -66,222 v 178 h 55 c 42,0 55,3 55,15 0,12 -13,15 -56,15 h -56 l 3,84 c 6,134 52,163 127,81 43,-48 62,-54 82,-29 33,39 -36,104 -110,104 -19,0 -54,-10 -78,-21 z"
       id="path190" />
    <path
       d="m 18380,3428 c -56,-21 -96,-47 -52,-33 50,15 52,5 52,-299 0,-154 -4,-286 -8,-293 -4,-7 -19,-16 -32,-22 -19,-7 3,-10 85,-9 61,0 101,3 90,5 -11,3 -28,12 -37,21 -16,14 -18,43 -18,334 0,248 -3,318 -12,317 -7,0 -38,-9 -68,-21 z"
       id="path192" />
    <path
       d="m 16818,3411 c 19,-5 39,-14 45,-20 9,-9 12,-94 12,-296 0,-202 -3,-287 -12,-296 -6,-6 -26,-15 -45,-19 -21,-5 17,-8 107,-8 93,0 129,3 105,8 -54,13 -60,29 -60,166 v 123 l 68,-6 c 86,-7 143,9 186,52 57,57 66,160 18,224 -10,14 -39,37 -63,51 -42,24 -53,25 -219,27 -111,1 -163,-1 -142,-6 z m 265,-32 c 44,-23 66,-53 78,-105 27,-120 -56,-208 -168,-178 -22,6 -23,10 -23,144 0,101 3,140 13,143 23,10 78,7 100,-4 z"
       id="path194" />
    <path
       d="m 17396,3207 c -38,-28 -13,-97 34,-97 22,0 50,32 50,57 0,23 -29,53 -51,53 -9,0 -23,-6 -33,-13 z"
       id="path196" />
    <path
       d="m 17983,3200 c -54,-24 -83,-76 -65,-115 23,-50 72,-25 72,36 0,43 27,69 70,69 38,0 60,-20 70,-65 14,-61 15,-60 -57,-90 -76,-32 -132,-64 -151,-88 -39,-47 -31,-130 16,-168 38,-29 98,-22 150,20 22,17 42,31 45,31 2,0 7,-13 10,-30 11,-52 80,-48 131,9 23,26 16,37 -14,21 -39,-21 -45,-1 -48,163 -1,86 -7,162 -14,174 -25,50 -140,68 -215,33 z m 157,-249 c 0,-74 -2,-81 -26,-100 -57,-44 -107,-39 -130,14 -16,40 -8,69 27,101 21,19 102,61 122,63 4,1 7,-35 7,-78 z"
       id="path198" />
    <path
       d="m 18654,3204 c -39,-19 -64,-62 -64,-111 0,-54 19,-75 107,-123 89,-47 113,-70 113,-111 0,-96 -147,-88 -188,11 -10,22 -20,40 -24,40 -5,0 -8,-34 -8,-75 0,-41 4,-75 9,-75 5,0 11,5 13,12 3,9 15,9 50,0 67,-17 103,-15 148,8 45,23 70,63 70,112 0,57 -29,89 -130,143 -74,40 -96,56 -103,79 -9,26 -6,33 17,53 53,45 135,16 157,-57 7,-22 16,-40 21,-40 4,0 8,34 8,75 0,41 -4,75 -9,75 -5,0 -11,-5 -13,-12 -4,-10 -13,-10 -45,0 -53,16 -91,15 -129,-4 z"
       id="path200" />
    <path
       d="m 19060,3198 c -25,-13 -57,-41 -74,-65 -25,-36 -30,-54 -34,-121 -5,-93 7,-139 51,-189 56,-64 134,-80 207,-43 44,23 86,78 96,128 8,40 -1,41 -21,2 -32,-61 -113,-87 -173,-56 -54,28 -82,71 -96,149 l -7,37 h 152 152 l -6,42 c -15,112 -140,171 -247,116 z m 121,-37 c 19,-20 29,-40 29,-60 v -31 h -99 -100 l 10,33 c 5,17 22,44 39,60 41,37 83,36 121,-2 z"
       id="path202" />
    <path
       d="m 17383,2844 c -15,-24 -15,-29 -2,-53 18,-32 54,-39 80,-15 24,22 24,56 1,77 -27,25 -59,21 -79,-9 z"
       id="path204" />
    <path
       d="m 17822,2389 c -54,-27 -91,-88 -99,-164 l -6,-55 h -38 c -28,0 -39,-4 -39,-15 0,-11 11,-15 40,-15 h 40 v -178 c 0,-194 -3,-206 -55,-221 -21,-7 10,-9 105,-9 89,0 122,3 96,8 -63,12 -66,22 -66,222 v 178 h 55 c 42,0 55,3 55,15 0,12 -13,15 -56,15 h -56 l 3,84 c 6,134 52,163 127,81 43,-48 62,-54 82,-29 33,39 -36,104 -110,104 -19,0 -54,-10 -78,-21 z"
       id="path206" />
    <path
       d="m 18430,2388 c -56,-21 -96,-47 -52,-33 50,15 52,5 52,-299 0,-154 -4,-286 -8,-293 -4,-7 -19,-16 -32,-22 -19,-7 3,-10 85,-9 61,0 101,3 90,5 -11,3 -28,12 -37,21 -16,14 -18,43 -18,334 0,248 -3,318 -12,317 -7,0 -38,-9 -68,-21 z"
       id="path208" />
    <path
       d="m 16945,2381 c -95,-25 -191,-114 -221,-204 -10,-29 -17,-82 -17,-122 0,-40 7,-93 17,-122 22,-66 93,-146 159,-179 27,-14 73,-44 100,-66 90,-70 249,-137 330,-138 35,0 15,16 -42,32 -59,18 -133,76 -160,126 -10,19 -7,23 33,41 58,25 125,93 157,156 21,43 24,64 24,155 0,90 -3,111 -23,148 -58,110 -152,173 -262,178 -36,2 -78,0 -95,-5 z m 155,-43 c 81,-41 121,-134 121,-287 1,-153 -39,-243 -126,-282 -79,-37 -159,-19 -214,47 -76,93 -92,315 -31,433 52,102 153,138 250,89 z"
       id="path210" />
    <path
       d="m 17446,2167 c -38,-28 -13,-97 34,-97 22,0 50,32 50,57 0,23 -29,53 -51,53 -9,0 -23,-6 -33,-13 z"
       id="path212" />
    <path
       d="m 18043,2160 c -54,-24 -83,-76 -65,-115 23,-50 72,-25 72,36 0,43 27,69 70,69 38,0 60,-20 70,-65 14,-61 15,-60 -57,-90 -76,-32 -132,-64 -151,-88 -39,-47 -31,-130 16,-168 38,-29 98,-22 150,20 22,17 42,31 45,31 2,0 7,-13 10,-30 11,-52 80,-48 131,9 23,26 16,37 -14,21 -39,-21 -45,-1 -48,163 -1,86 -7,162 -14,174 -25,50 -140,68 -215,33 z m 157,-249 c 0,-74 -2,-81 -26,-100 -57,-44 -107,-39 -130,14 -16,40 -8,69 27,101 21,19 102,61 122,63 4,1 7,-35 7,-78 z"
       id="path214" />
    <path
       d="m 18704,2164 c -39,-19 -64,-62 -64,-111 0,-54 19,-75 107,-123 89,-47 113,-70 113,-111 0,-96 -147,-88 -188,11 -10,22 -20,40 -24,40 -5,0 -8,-34 -8,-75 0,-41 4,-75 9,-75 5,0 11,5 13,12 3,9 15,9 50,0 67,-17 103,-15 148,8 45,23 70,63 70,112 0,57 -29,89 -130,143 -74,40 -96,56 -103,79 -9,26 -6,33 17,53 53,45 135,16 157,-57 7,-22 16,-40 21,-40 4,0 8,34 8,75 0,41 -4,75 -9,75 -5,0 -11,-5 -13,-12 -4,-10 -13,-10 -45,0 -53,16 -91,15 -129,-4 z"
       id="path216" />
    <path
       d="m 19110,2158 c -25,-13 -57,-41 -74,-65 -25,-36 -30,-54 -34,-121 -5,-93 7,-139 51,-189 56,-64 134,-80 207,-43 44,23 86,78 96,128 8,40 -1,41 -21,2 -32,-61 -113,-87 -173,-56 -54,28 -82,71 -96,149 l -7,37 h 152 152 l -6,42 c -15,112 -140,171 -247,116 z m 121,-37 c 19,-20 29,-40 29,-60 v -31 h -99 -100 l 10,33 c 5,17 22,44 39,60 41,37 83,36 121,-2 z"
       id="path218" />
    <path
       d="m 17433,1804 c -15,-24 -15,-29 -2,-53 18,-32 54,-39 80,-15 24,22 24,56 1,77 -27,25 -59,21 -79,-9 z"
       id="path220" />
  </g>
</svg>
