<?xml version="1.0" encoding="UTF-8" standalone="no"?>
<svg
   version="1.0"
   width="1173.6233pt"
   height="594.75079pt"
   viewBox="0 0 1173.6233 594.75079"
   preserveAspectRatio="xMidYMid meet"
   id="svg16"
   xmlns="http://www.w3.org/2000/svg"
   xmlns:svg="http://www.w3.org/2000/svg">
  <defs
     id="defs20" />
  <metadata
     id="metadata2">
Created by potrace 1.16, written by Peter Selinger 2001-2019
</metadata>
  <g
     transform="matrix(0.1,0,0,-0.1,-25.277722,619.81291)"
     fill="#000000"
     stroke="none"
     id="g14">
    <path
       d="m 1435,6189 c -326,-38 -583,-277 -688,-639 -47,-161 -60,-284 -54,-500 6,-209 29,-357 81,-535 l 27,-90 -43,-35 C 604,4264 482,4117 400,3959 68,3314 316,2531 958,2202 c 197,-101 372,-143 597,-143 227,0 399,41 596,142 127,65 213,128 320,235 l 86,85 239,-400 c 131,-220 240,-399 241,-397 2,1 -26,126 -61,277 -35,151 -63,276 -61,278 2,2 49,-29 104,-67 l 100,-71 21,29 20,29 -100,68 c -55,37 -100,71 -100,74 0,3 124,21 275,39 151,19 275,37 275,40 0,3 -199,43 -442,89 -244,46 -445,84 -446,86 -2,2 20,43 48,91 29,49 56,98 61,111 7,18 14,22 36,18 282,-47 1132,-82 1386,-58 68,6 68,6 65,35 l -3,28 -435,4 c -414,4 -605,14 -903,47 -91,11 -107,15 -102,28 25,64 59,204 71,296 24,171 2,415 -51,565 -8,24 -14,45 -12,47 2,2 120,-38 263,-88 585,-206 602,-211 569,-184 -16,14 -119,92 -227,173 -108,81 -197,150 -198,153 -1,22 584,40 935,28 333,-11 738,-42 765,-59 9,-5 6,-25 -10,-76 -77,-248 -79,-539 -6,-769 14,-43 24,-81 21,-83 -3,-3 -297,99 -729,253 -71,25 -131,44 -133,41 -2,-2 96,-79 218,-172 l 222,-169 -34,-7 c -19,-4 -73,-10 -121,-13 l -88,-7 v -35 -35 l 88,6 c 48,4 105,9 127,12 l 40,6 -25,-28 c -14,-16 -98,-105 -186,-199 -204,-217 -203,-216 -130,-175 33,19 224,125 425,236 l 365,202 46,-84 c 64,-119 122,-196 225,-299 270,-270 639,-405 1026,-374 451,36 861,315 1060,722 18,37 38,67 44,67 6,0 337,-133 735,-295 666,-272 726,-294 737,-279 7,10 13,25 13,33 0,12 -206,100 -736,315 -602,245 -734,302 -728,315 23,59 56,223 62,313 15,217 -13,403 -88,592 -163,405 -513,697 -950,792 -119,26 -390,26 -510,1 -393,-84 -716,-325 -903,-676 -25,-45 -46,-78 -48,-72 -13,38 -788,81 -1291,73 l -187,-3 -4,-32 -4,-32 -1,30 -2,31 -77,-8 c -43,-3 -100,-7 -127,-7 l -48,-1 153,163 c 84,89 173,184 198,211 l 46,48 -40,-20 c -22,-11 -210,-115 -417,-230 l -377,-210 -42,76 c -79,147 -199,293 -324,392 l -64,51 267,397 c 172,257 256,389 236,375 -16,-12 -119,-94 -229,-181 -110,-88 -201,-158 -203,-157 -2,2 6,56 18,121 17,94 18,119 8,126 -10,6 -10,8 0,8 26,0 9,223 -29,380 -50,202 -130,353 -253,476 -132,132 -278,203 -462,224 -100,11 -128,11 -229,-1 z m 329,-89 c 125,-32 208,-81 312,-184 80,-81 97,-104 147,-206 81,-164 127,-358 127,-538 0,-71 -30,-286 -42,-297 -3,-3 -69,97 -148,222 -136,216 -179,280 -166,243 4,-8 53,-197 111,-420 58,-223 108,-413 111,-423 4,-13 -14,-8 -83,27 -380,190 -860,178 -1214,-29 l -57,-33 -22,74 c -54,184 -80,369 -80,579 0,567 250,938 675,1005 84,13 237,4 329,-20 z m 81,-1544 c 165,-41 405,-155 405,-192 0,-9 6,-14 13,-11 17,6 60,-26 146,-107 123,-119 270,-332 258,-377 -3,-11 0,-19 8,-19 14,0 55,-106 79,-205 80,-322 16,-685 -171,-967 -24,-38 -51,-68 -60,-68 -9,0 -13,-6 -10,-14 7,-17 -123,-152 -208,-217 -403,-306 -946,-338 -1380,-82 -504,298 -728,918 -533,1473 63,177 151,316 292,456 185,185 405,301 661,349 124,23 371,14 500,-19 z m 4473,19 c 259,-42 485,-158 672,-345 236,-235 361,-532 362,-860 1,-151 -14,-254 -54,-380 -109,-344 -363,-625 -693,-767 -283,-121 -614,-130 -907,-23 -483,176 -808,641 -808,1154 0,605 426,1112 1025,1220 106,19 288,19 403,1 z"
       id="path4" />
    <path
       d="m 1547,3753 c -3,-5 -55,-127 -117,-273 -138,-326 -143,-336 -183,-360 l -32,-20 105,1 c 95,0 102,1 70,12 -46,16 -50,49 -14,133 l 27,64 h 126 126 l 28,-65 c 37,-87 36,-112 -5,-130 -31,-13 -24,-14 97,-14 120,0 128,1 98,14 -18,8 -42,29 -53,47 -11,18 -72,160 -137,315 -64,156 -120,283 -124,283 -4,0 -10,-3 -12,-7 z m 41,-288 50,-120 -54,-3 c -30,-2 -78,-2 -108,0 l -55,3 35,80 c 20,44 44,100 55,124 11,24 21,42 23,40 2,-2 27,-58 54,-124 z"
       id="path6" />
    <path
       d="m 5818,3741 c 19,-5 39,-14 45,-20 17,-17 17,-575 0,-592 -6,-6 -26,-15 -45,-20 -20,-5 51,-7 182,-6 203,2 218,3 262,25 64,32 91,72 96,141 4,71 -20,112 -83,143 l -44,22 29,18 c 44,26 70,75 70,129 0,61 -31,107 -95,139 -48,24 -59,25 -250,27 -124,1 -187,-1 -167,-6 z m 314,-31 c 20,-6 50,-26 67,-46 26,-29 31,-43 31,-84 0,-91 -64,-134 -190,-128 l -65,3 -3,127 c -2,114 -1,127 15,131 33,9 108,7 145,-3 z m 42,-315 c 50,-24 76,-67 76,-127 0,-103 -108,-160 -249,-132 l -31,7 v 140 140 l 83,-5 c 51,-3 97,-11 121,-23 z"
       id="path8" />
    <path
       d="m 10575,2849 c -450,-39 -842,-306 -1053,-716 -20,-40 -39,-73 -42,-72 -4,1 -340,352 -583,611 l -78,83 34,-75 c 19,-41 76,-160 126,-263 50,-103 91,-190 91,-192 0,-2 -48,16 -107,40 -60,25 -113,45 -118,45 -6,0 -16,-13 -22,-29 l -11,-30 107,-42 c 58,-23 110,-45 114,-49 9,-8 -13,-16 -331,-130 -111,-40 -201,-74 -200,-75 2,-2 217,5 478,15 261,9 476,16 477,15 1,0 -7,-30 -18,-65 -39,-127 -51,-225 -47,-415 l 3,-180 -110,-17 c -553,-88 -1055,-144 -1600,-180 -250,-16 -1079,-16 -1300,0 -920,67 -1563,213 -2195,497 -261,117 -608,305 -880,477 l -125,78 -17,-22 c -10,-13 -16,-27 -15,-33 2,-5 68,-50 148,-99 509,-316 1021,-559 1459,-692 1134,-345 2641,-385 4385,-118 127,19 239,37 251,40 18,5 23,-5 47,-84 117,-390 439,-722 826,-852 260,-87 528,-92 793,-16 470,137 833,550 914,1041 23,145 15,373 -20,513 -60,241 -173,440 -350,618 -269,269 -649,406 -1031,373 z m 225,-69 c 286,-29 536,-142 737,-333 498,-473 513,-1270 33,-1756 -420,-426 -1074,-494 -1566,-162 -124,83 -211,166 -299,283 -168,222 -245,457 -245,745 0,633 480,1162 1110,1223 110,11 126,11 230,0 z"
       id="path10" />
    <path
       d="m 10599,1944 c -74,-26 -138,-81 -178,-154 -35,-63 -36,-68 -36,-175 0,-95 3,-116 23,-152 34,-64 80,-111 136,-141 44,-22 64,-26 141,-27 83,0 95,3 145,31 51,29 120,101 120,126 0,6 -26,-14 -58,-45 -81,-77 -156,-95 -255,-61 -59,20 -119,86 -138,151 -20,67 -17,206 5,271 33,99 113,162 206,162 88,0 158,-51 196,-144 11,-25 22,-46 26,-46 8,0 0,183 -8,209 -4,11 -9,9 -25,-7 -24,-26 -29,-27 -77,-6 -55,23 -167,27 -223,8 z"
       id="path12" />
  </g>
</svg>
