<?xml version="1.0" encoding="UTF-8" standalone="no"?>
<svg
   version="1.0"
   width="2089.9197pt"
   height="650.70337pt"
   viewBox="0 0 2089.9197 650.70337"
   preserveAspectRatio="xMidYMid meet"
   id="svg184"
   xmlns="http://www.w3.org/2000/svg"
   xmlns:svg="http://www.w3.org/2000/svg">
  <defs
     id="defs188" />
  <metadata
     id="metadata2">
Created by potrace 1.16, written by Peter Selinger 2001-2019
</metadata>
  <g
     transform="matrix(0.1,0,0,-0.1,-87.080233,719.90191)"
     fill="#000000"
     stroke="none"
     id="g182">
    <path
       d="m 2410,7178 c -56,-21 -96,-47 -52,-33 50,15 52,5 52,-301 v -284 l 40,-20 c 197,-100 391,80 329,305 -15,52 -74,111 -122,120 -51,10 -81,0 -127,-41 l -40,-36 v 156 c 0,118 -3,156 -12,155 -7,0 -38,-9 -68,-21 z m 244,-309 c 76,-66 76,-221 0,-297 -30,-30 -39,-34 -73,-29 -21,2 -50,13 -65,22 -26,17 -26,18 -26,149 0,125 1,134 23,153 47,43 94,44 141,2 z"
       id="path4" />
    <path
       d="m 3613,7176 c -59,-25 -81,-41 -41,-31 45,11 48,-9 48,-302 0,-289 -3,-306 -53,-316 -12,-2 30,-5 93,-5 101,-1 111,1 80,11 l -35,12 -3,155 -2,156 30,23 c 39,28 89,37 113,19 25,-19 36,-81 36,-208 1,-116 -10,-150 -49,-161 -14,-4 25,-7 85,-7 61,1 100,3 88,5 -43,8 -48,28 -51,192 -3,167 -10,200 -50,231 -44,36 -112,19 -179,-43 l -23,-20 v 156 c 0,179 5,172 -87,133 z"
       id="path6" />
    <path
       d="m 4370,7178 c -56,-21 -96,-47 -52,-33 50,15 52,5 52,-299 0,-154 -4,-286 -8,-293 -4,-7 -19,-16 -32,-22 -19,-7 3,-10 85,-9 61,0 101,3 90,5 -11,3 -28,12 -37,21 -16,14 -18,43 -18,334 0,248 -3,318 -12,317 -7,0 -38,-9 -68,-21 z"
       id="path8" />
    <path
       d="m 5573,7174 c -15,-24 -15,-29 -2,-53 18,-32 45,-38 70,-15 24,22 24,56 1,77 -26,24 -49,21 -69,-9 z"
       id="path10" />
    <path
       d="m 12290,7178 c -56,-21 -96,-47 -52,-33 50,15 52,5 52,-299 0,-154 -4,-286 -8,-293 -4,-7 -19,-16 -32,-22 -19,-7 3,-10 85,-9 61,0 101,3 90,5 -11,3 -28,12 -37,21 -16,14 -18,43 -18,334 0,248 -3,318 -12,317 -7,0 -38,-9 -68,-21 z"
       id="path12" />
    <path
       d="m 13493,7174 c -15,-24 -15,-29 -2,-53 18,-32 45,-38 70,-15 24,22 24,56 1,77 -26,24 -49,21 -69,-9 z"
       id="path14" />
    <path
       d="m 19720,7178 c -56,-21 -96,-47 -52,-33 50,15 52,5 52,-299 0,-154 -4,-286 -8,-293 -4,-7 -19,-16 -32,-22 -19,-7 3,-10 85,-9 61,0 101,3 90,5 -11,3 -28,12 -37,21 -16,14 -18,43 -18,334 0,248 -3,318 -12,317 -7,0 -38,-9 -68,-21 z"
       id="path16" />
    <path
       d="m 20923,7174 c -15,-24 -15,-29 -2,-53 18,-32 45,-38 70,-15 24,22 24,56 1,77 -26,24 -49,21 -69,-9 z"
       id="path18" />
    <path
       d="m 1079,7162 c -92,-59 -173,-182 -198,-300 -31,-150 10,-320 105,-430 37,-44 134,-116 143,-106 3,2 -18,28 -46,57 -66,67 -89,116 -108,223 -18,106 -19,205 -1,305 19,106 48,166 108,222 28,26 49,50 46,52 -2,3 -24,-8 -49,-23 z"
       id="path20" />
    <path
       d="m 6530,7185 c 0,-3 22,-28 49,-54 27,-26 58,-65 69,-87 31,-61 52,-182 52,-296 0,-183 -40,-301 -125,-375 -25,-23 -45,-44 -45,-47 0,-17 85,43 130,90 87,92 130,203 130,340 0,132 -44,247 -130,338 -44,47 -130,107 -130,91 z"
       id="path22" />
    <path
       d="m 9519,7162 c -92,-59 -173,-182 -198,-300 -31,-150 10,-320 105,-430 37,-44 134,-116 143,-106 3,2 -18,28 -46,57 -66,67 -89,116 -108,223 -18,106 -19,205 -1,305 19,106 48,166 108,222 28,26 49,50 46,52 -2,3 -24,-8 -49,-23 z"
       id="path24" />
    <path
       d="m 14080,7185 c 0,-3 22,-28 49,-54 27,-26 58,-65 69,-87 31,-61 52,-182 52,-296 0,-183 -40,-301 -125,-375 -25,-23 -45,-44 -45,-47 0,-17 85,43 130,90 87,92 130,203 130,340 0,132 -44,247 -130,338 -44,47 -130,107 -130,91 z"
       id="path26" />
    <path
       d="m 17059,7162 c -92,-59 -173,-182 -198,-300 -31,-150 10,-320 105,-430 37,-44 134,-116 143,-106 3,2 -18,28 -46,57 -66,67 -89,116 -108,223 -18,106 -19,205 -1,305 19,106 48,166 108,222 28,26 49,50 46,52 -2,3 -24,-8 -49,-23 z"
       id="path28" />
    <path
       d="m 21510,7185 c 0,-3 22,-28 49,-54 27,-26 58,-65 69,-87 31,-61 52,-182 52,-296 0,-183 -40,-301 -125,-375 -25,-23 -45,-44 -45,-47 0,-17 85,43 130,90 87,92 130,203 130,340 0,132 -44,247 -130,338 -44,47 -130,107 -130,91 z"
       id="path30" />
    <path
       d="m 11620,7169 c -35,-14 -69,-48 -91,-91 -21,-41 -10,-52 15,-17 70,101 205,65 206,-55 0,-67 -28,-108 -93,-140 -41,-20 -47,-25 -27,-26 14,0 48,-11 76,-24 59,-27 84,-69 84,-138 -1,-52 -16,-83 -56,-109 -37,-24 -74,-24 -134,2 -54,23 -78,22 -94,-3 -8,-14 -7,-22 7,-35 14,-14 35,-18 100,-18 102,0 166,28 212,94 25,36 30,53 33,114 4,84 -15,124 -74,159 l -35,21 24,26 c 58,61 72,132 38,187 -33,54 -124,80 -191,53 z"
       id="path32" />
    <path
       d="m 10828,7160 c 19,-4 39,-13 45,-19 9,-9 12,-94 12,-296 0,-202 -3,-287 -12,-296 -6,-6 -26,-15 -45,-19 -21,-5 17,-8 107,-8 91,0 128,3 106,8 -59,14 -62,22 -59,170 l 3,134 123,-119 c 102,-98 123,-123 120,-144 -2,-15 -13,-31 -28,-38 -21,-11 0,-13 135,-12 157,1 159,1 116,16 -32,11 -86,56 -207,170 -90,84 -165,157 -168,161 -3,5 50,65 117,135 85,88 136,133 167,147 l 45,20 -120,-2 c -66,0 -110,-3 -98,-5 71,-14 45,-71 -96,-205 l -106,-101 -3,133 c -3,148 0,156 59,170 22,5 -15,8 -106,8 -90,0 -128,-3 -107,-8 z"
       id="path34" />
    <path
       d="m 18370,7160 c 60,-14 60,-16 60,-321 0,-304 2,-294 -63,-309 -18,-5 78,-8 219,-9 l 250,-1 23,73 c 13,39 26,78 28,85 3,6 0,12 -6,12 -6,0 -11,-6 -11,-13 0,-26 -61,-99 -95,-113 -39,-16 -211,-19 -235,-4 -13,8 -15,52 -18,278 -3,304 -3,307 74,322 25,5 -15,8 -111,8 -98,0 -138,-3 -115,-8 z"
       id="path36" />
    <path
       d="m 18938,7161 c 19,-5 39,-14 45,-20 9,-9 12,-94 12,-296 0,-202 -3,-287 -12,-296 -6,-6 -26,-15 -45,-19 -21,-5 17,-8 107,-8 93,0 129,3 105,8 -54,13 -60,29 -60,166 v 123 l 68,-6 c 86,-7 143,9 186,52 57,57 66,160 18,224 -10,14 -39,37 -63,51 -42,24 -53,25 -219,27 -111,1 -163,-1 -142,-6 z m 265,-32 c 44,-23 66,-53 78,-105 27,-120 -56,-208 -168,-178 -22,6 -23,10 -23,144 0,101 3,140 13,143 23,10 78,7 100,-4 z"
       id="path38" />
    <path
       d="m 3408,7066 c -21,-44 -74,-103 -99,-111 -31,-10 -22,-25 16,-25 h 35 v -176 c 0,-177 5,-205 39,-231 38,-29 110,-3 137,48 8,17 12,29 7,27 -4,-2 -21,-10 -36,-18 -21,-10 -33,-11 -45,-3 -15,9 -17,34 -20,182 l -2,171 h 50 c 38,0 50,4 50,15 0,11 -12,15 -50,15 h -50 v 70 c 0,39 -4,70 -8,70 -5,0 -16,-15 -24,-34 z"
       id="path40" />
    <path
       d="m 1315,6951 c -92,-42 -148,-157 -127,-261 15,-71 56,-129 112,-158 62,-32 145,-26 203,15 75,52 114,173 88,268 -32,120 -167,186 -276,136 z m 129,-41 c 44,-39 66,-104 66,-197 0,-82 -16,-132 -51,-157 -55,-38 -120,-9 -157,72 -35,74 -39,208 -8,259 37,60 97,69 150,23 z"
       id="path42" />
    <path
       d="m 1685,6948 c -58,-22 -85,-43 -43,-33 41,10 48,-15 48,-187 0,-165 -7,-192 -53,-201 -12,-2 30,-5 93,-5 101,-1 111,1 80,11 l -35,12 -3,157 -2,156 30,22 c 17,12 48,24 69,27 34,5 41,2 57,-23 16,-23 19,-52 22,-164 3,-148 -5,-179 -48,-191 -14,-4 25,-7 85,-7 61,1 100,3 88,5 -43,8 -48,28 -51,192 -3,167 -10,200 -50,231 -44,36 -112,19 -179,-43 l -23,-20 v 41 c 0,49 -7,51 -85,20 z"
       id="path44" />
    <path
       d="m 2975,6951 c -92,-42 -148,-157 -127,-261 15,-71 56,-129 112,-158 62,-32 145,-26 203,15 75,52 114,173 88,268 -32,120 -167,186 -276,136 z m 129,-41 c 44,-39 66,-104 66,-197 0,-82 -16,-132 -51,-157 -55,-38 -120,-9 -157,72 -35,74 -39,208 -8,259 37,60 97,69 150,23 z"
       id="path46" />
    <path
       d="m 4695,6951 c -92,-42 -148,-157 -127,-261 15,-71 56,-129 112,-158 62,-32 145,-26 203,15 75,52 114,173 88,268 -32,120 -167,186 -276,136 z m 129,-41 c 44,-39 66,-104 66,-197 0,-82 -16,-132 -51,-157 -55,-38 -120,-9 -157,72 -35,74 -39,208 -8,259 37,60 97,69 150,23 z"
       id="path48" />
    <path
       d="m 5170,6959 c -41,-16 -90,-70 -101,-111 -13,-51 2,-106 41,-143 l 29,-28 -34,-39 c -41,-44 -43,-63 -14,-94 l 22,-23 -42,-47 c -50,-57 -52,-85 -8,-118 131,-100 397,-18 397,122 0,78 -37,99 -194,108 -129,8 -148,17 -116,56 17,22 25,25 68,20 125,-12 217,94 179,207 l -14,40 41,3 c 61,4 45,22 -26,29 -35,3 -79,11 -98,18 -42,13 -96,13 -130,0 z m 114,-40 c 33,-39 39,-65 34,-141 -4,-48 -9,-65 -27,-79 -45,-37 -96,-18 -130,48 -26,51 -6,181 31,196 35,14 67,6 92,-24 z m 100,-418 c 42,-10 54,-33 33,-65 -33,-50 -63,-61 -163,-61 -78,0 -97,3 -121,21 -35,26 -40,62 -14,96 21,26 22,26 128,21 60,-3 121,-8 137,-12 z"
       id="path50" />
    <path
       d="m 5570,6948 c -56,-21 -96,-47 -52,-33 47,14 52,-4 52,-184 0,-91 -4,-171 -8,-178 -4,-7 -19,-16 -32,-22 -19,-7 3,-10 85,-10 78,1 102,3 81,9 -16,5 -33,15 -37,22 -5,7 -9,104 -9,216 0,155 -3,202 -12,201 -7,0 -38,-9 -68,-21 z"
       id="path52" />
    <path
       d="m 5908,6961 c -15,-5 -41,-19 -57,-30 -94,-67 -116,-239 -44,-343 29,-42 94,-78 142,-78 71,0 147,66 170,148 14,47 1,46 -30,-2 -83,-132 -249,-49 -249,124 0,89 49,160 111,160 33,0 69,-31 69,-59 0,-46 69,-70 90,-32 26,50 -41,113 -124,117 -28,2 -63,-1 -78,-5 z"
       id="path54" />
    <path
       d="m 6264,6954 c -39,-19 -64,-62 -64,-111 0,-54 19,-75 107,-123 89,-47 113,-70 113,-111 0,-96 -147,-88 -188,11 -10,22 -20,40 -24,40 -5,0 -8,-34 -8,-75 0,-41 4,-75 9,-75 5,0 11,5 13,12 3,9 15,9 50,0 67,-17 103,-15 148,8 45,23 70,63 70,112 0,57 -29,89 -130,143 -74,40 -96,56 -103,79 -9,26 -6,33 17,53 53,45 135,16 157,-57 7,-22 16,-40 21,-40 4,0 8,34 8,75 0,41 -4,75 -9,75 -5,0 -11,-5 -13,-12 -4,-10 -13,-10 -45,0 -53,16 -91,15 -129,-4 z"
       id="path56" />
    <path
       d="m 9745,6951 c -92,-42 -148,-157 -127,-261 15,-71 56,-129 112,-158 62,-32 145,-26 203,15 75,52 114,173 88,268 -32,120 -167,186 -276,136 z m 129,-41 c 44,-39 66,-104 66,-197 0,-82 -16,-132 -51,-157 -55,-38 -120,-9 -157,72 -35,74 -39,208 -8,259 37,60 97,69 150,23 z"
       id="path58" />
    <path
       d="m 10125,6948 c -58,-22 -85,-43 -43,-33 41,10 48,-15 48,-187 0,-165 -7,-192 -53,-201 -12,-2 30,-5 93,-5 101,-1 111,1 80,11 l -35,12 -3,157 -2,156 30,22 c 17,12 48,24 69,27 34,5 41,2 57,-23 16,-23 19,-52 22,-164 3,-148 -5,-179 -48,-191 -14,-4 25,-7 85,-7 61,1 100,3 88,5 -43,8 -48,28 -51,192 -3,167 -10,200 -50,231 -44,36 -112,19 -179,-43 l -23,-20 v 41 c 0,49 -7,51 -85,20 z"
       id="path60" />
    <path
       d="m 12615,6951 c -92,-42 -148,-157 -127,-261 15,-71 56,-129 112,-158 62,-32 145,-26 203,15 75,52 114,173 88,268 -32,120 -167,186 -276,136 z m 129,-41 c 44,-39 66,-104 66,-197 0,-82 -16,-132 -51,-157 -55,-38 -120,-9 -157,72 -35,74 -39,208 -8,259 37,60 97,69 150,23 z"
       id="path62" />
    <path
       d="m 13090,6959 c -41,-16 -90,-70 -101,-111 -13,-51 2,-106 41,-143 l 29,-28 -34,-39 c -41,-44 -43,-63 -14,-94 l 22,-23 -42,-47 c -50,-57 -52,-85 -8,-118 131,-100 397,-18 397,122 0,78 -37,99 -194,108 -129,8 -148,17 -116,56 17,22 25,25 68,20 125,-12 217,94 179,207 l -14,40 41,3 c 61,4 45,22 -26,29 -35,3 -79,11 -98,18 -42,13 -96,13 -130,0 z m 114,-40 c 33,-39 39,-65 34,-141 -4,-48 -9,-65 -27,-79 -45,-37 -96,-18 -130,48 -26,51 -6,181 31,196 35,14 67,6 92,-24 z m 100,-418 c 42,-10 54,-33 33,-65 -33,-50 -63,-61 -163,-61 -78,0 -97,3 -121,21 -35,26 -40,62 -14,96 21,26 22,26 128,21 60,-3 121,-8 137,-12 z"
       id="path64" />
    <path
       d="m 13490,6948 c -56,-21 -96,-47 -52,-33 47,14 52,-4 52,-184 0,-91 -4,-171 -8,-178 -4,-7 -19,-16 -32,-22 -19,-7 3,-10 85,-10 78,1 102,3 81,9 -16,5 -33,15 -37,22 -5,7 -9,104 -9,216 0,155 -3,202 -12,201 -7,0 -38,-9 -68,-21 z"
       id="path66" />
    <path
       d="m 13828,6961 c -15,-5 -41,-19 -57,-30 -94,-67 -116,-239 -44,-343 29,-42 94,-78 142,-78 71,0 147,66 170,148 14,47 1,46 -30,-2 -83,-132 -249,-49 -249,124 0,89 49,160 111,160 33,0 69,-31 69,-59 0,-46 69,-70 90,-32 26,50 -41,113 -124,117 -28,2 -63,-1 -78,-5 z"
       id="path68" />
    <path
       d="m 17285,6951 c -92,-42 -148,-157 -127,-261 15,-71 56,-129 112,-158 62,-32 145,-26 203,15 75,52 114,173 88,268 -32,120 -167,186 -276,136 z m 129,-41 c 44,-39 66,-104 66,-197 0,-82 -16,-132 -51,-157 -55,-38 -120,-9 -157,72 -35,74 -39,208 -8,259 37,60 97,69 150,23 z"
       id="path70" />
    <path
       d="m 17665,6948 c -58,-22 -85,-43 -43,-33 41,10 48,-15 48,-187 0,-165 -7,-192 -53,-201 -12,-2 30,-5 93,-5 101,-1 111,1 80,11 l -35,12 -3,157 -2,156 30,22 c 17,12 48,24 69,27 34,5 41,2 57,-23 16,-23 19,-52 22,-164 3,-148 -5,-179 -48,-191 -14,-4 25,-7 85,-7 61,1 100,3 88,5 -43,8 -48,28 -51,192 -3,167 -10,200 -50,231 -44,36 -112,19 -179,-43 l -23,-20 v 41 c 0,49 -7,51 -85,20 z"
       id="path72" />
    <path
       d="m 20045,6951 c -92,-42 -148,-157 -127,-261 15,-71 56,-129 112,-158 62,-32 145,-26 203,15 75,52 114,173 88,268 -32,120 -167,186 -276,136 z m 129,-41 c 44,-39 66,-104 66,-197 0,-82 -16,-132 -51,-157 -55,-38 -120,-9 -157,72 -35,74 -39,208 -8,259 37,60 97,69 150,23 z"
       id="path74" />
    <path
       d="m 20520,6959 c -41,-16 -90,-70 -101,-111 -13,-51 2,-106 41,-143 l 29,-28 -34,-39 c -41,-44 -43,-63 -14,-94 l 22,-23 -42,-47 c -50,-57 -52,-85 -8,-118 131,-100 397,-18 397,122 0,78 -37,99 -194,108 -129,8 -148,17 -116,56 17,22 25,25 68,20 125,-12 217,94 179,207 l -14,40 41,3 c 61,4 45,22 -26,29 -35,3 -79,11 -98,18 -42,13 -96,13 -130,0 z m 114,-40 c 33,-39 39,-65 34,-141 -4,-48 -9,-65 -27,-79 -45,-37 -96,-18 -130,48 -26,51 -6,181 31,196 35,14 67,6 92,-24 z m 100,-418 c 42,-10 54,-33 33,-65 -33,-50 -63,-61 -163,-61 -78,0 -97,3 -121,21 -35,26 -40,62 -14,96 21,26 22,26 128,21 60,-3 121,-8 137,-12 z"
       id="path76" />
    <path
       d="m 20920,6948 c -56,-21 -96,-47 -52,-33 47,14 52,-4 52,-184 0,-91 -4,-171 -8,-178 -4,-7 -19,-16 -32,-22 -19,-7 3,-10 85,-10 78,1 102,3 81,9 -16,5 -33,15 -37,22 -5,7 -9,104 -9,216 0,155 -3,202 -12,201 -7,0 -38,-9 -68,-21 z"
       id="path78" />
    <path
       d="m 21258,6961 c -15,-5 -41,-19 -57,-30 -94,-67 -116,-239 -44,-343 29,-42 94,-78 142,-78 71,0 147,66 170,148 14,47 1,46 -30,-2 -83,-132 -249,-49 -249,124 0,89 49,160 111,160 33,0 69,-31 69,-59 0,-46 69,-70 90,-32 26,50 -41,113 -124,117 -28,2 -63,-1 -78,-5 z"
       id="path80" />
    <path
       d="m 2448,6121 c 19,-5 39,-14 45,-20 17,-17 17,-575 0,-592 -6,-6 -26,-15 -45,-19 -21,-5 17,-8 107,-8 93,0 129,3 105,8 -54,13 -60,29 -60,166 v 123 l 68,-6 c 86,-7 143,9 186,52 57,57 66,160 18,224 -10,14 -39,37 -63,51 -42,24 -53,25 -219,27 -111,1 -163,-1 -142,-6 z m 265,-32 c 44,-23 66,-53 78,-105 27,-120 -56,-208 -168,-178 -22,6 -23,10 -23,144 0,101 3,140 13,143 23,10 78,7 100,-4 z"
       id="path82" />
    <path
       d="m 10428,6121 c 19,-5 39,-14 45,-20 9,-9 12,-94 12,-296 0,-202 -3,-287 -12,-296 -6,-6 -26,-15 -45,-19 -21,-5 17,-8 107,-8 93,0 129,3 105,8 -54,13 -60,29 -60,166 v 123 l 68,-6 c 86,-7 143,9 186,52 57,57 66,160 18,224 -10,14 -39,37 -63,51 -42,24 -53,25 -219,27 -111,1 -163,-1 -142,-6 z m 265,-32 c 44,-23 66,-53 78,-105 27,-120 -56,-208 -168,-178 -22,6 -23,10 -23,144 0,101 3,140 13,143 23,10 78,7 100,-4 z"
       id="path84" />
    <path
       d="m 18068,6121 c 19,-5 39,-14 45,-20 9,-9 12,-94 12,-296 0,-202 -3,-287 -12,-296 -6,-6 -26,-15 -45,-19 -21,-5 17,-8 107,-8 93,0 129,3 105,8 -54,13 -60,29 -60,166 v 123 l 68,-6 c 86,-7 143,9 186,52 57,57 66,160 18,224 -10,14 -39,37 -63,51 -42,24 -53,25 -219,27 -111,1 -163,-1 -142,-6 z m 265,-32 c 44,-23 66,-53 78,-105 27,-120 -56,-208 -168,-178 -22,6 -23,10 -23,144 0,101 3,140 13,143 23,10 78,7 100,-4 z"
       id="path86" />
    <path
       d="m 4940,5935 v -115 h -115 c -108,0 -115,-1 -115,-20 0,-19 7,-20 115,-20 h 115 v -115 c 0,-108 1,-115 20,-115 19,0 20,7 20,115 v 115 h 120 c 113,0 120,1 120,20 0,19 -7,20 -120,20 h -120 v 115 c 0,108 -1,115 -20,115 -19,0 -20,-7 -20,-115 z"
       id="path88" />
    <path
       d="m 12920,5935 v -115 h -115 c -108,0 -115,-1 -115,-20 0,-19 7,-20 115,-20 h 115 v -115 c 0,-108 1,-115 20,-115 19,0 20,7 20,115 v 115 h 120 c 113,0 120,1 120,20 0,19 -7,20 -120,20 h -120 v 115 c 0,108 -1,115 -20,115 -19,0 -20,-7 -20,-115 z"
       id="path90" />
    <path
       d="m 3367,5893 c 21,-21 48,-81 103,-226 40,-108 78,-196 84,-194 6,2 37,63 70,135 32,72 62,130 65,127 3,-2 29,-62 56,-134 28,-72 55,-131 61,-131 6,0 46,92 89,205 59,156 84,210 104,225 l 26,19 h -75 c -62,0 -70,-2 -47,-11 15,-5 27,-17 27,-26 0,-21 -93,-272 -101,-272 -9,0 -99,233 -99,257 0,14 10,28 28,37 25,14 21,15 -78,15 -65,0 -97,-3 -85,-9 27,-10 40,-27 60,-76 l 16,-42 -43,-96 c -24,-52 -46,-96 -49,-96 -9,0 -99,252 -99,278 0,14 8,26 23,32 15,6 -5,9 -72,9 l -93,1 z"
       id="path92" />
    <path
       d="m 11357,5893 c 21,-21 48,-81 103,-226 40,-108 78,-196 84,-194 6,2 37,63 70,135 32,72 62,130 65,127 3,-2 29,-62 56,-134 28,-72 55,-131 61,-131 6,0 46,92 89,205 59,156 84,210 104,225 l 26,19 h -75 c -62,0 -70,-2 -47,-11 15,-5 27,-17 27,-26 0,-21 -93,-272 -101,-272 -9,0 -99,233 -99,257 0,14 10,28 28,37 25,14 21,15 -78,15 -65,0 -97,-3 -85,-9 27,-10 40,-27 60,-76 l 16,-42 -43,-96 c -24,-52 -46,-96 -49,-96 -9,0 -99,252 -99,278 0,14 8,26 23,32 15,6 -5,9 -72,9 l -93,1 z"
       id="path94" />
    <path
       d="m 18997,5893 c 21,-21 48,-81 103,-226 40,-108 78,-196 84,-194 6,2 37,63 70,135 32,72 62,130 65,127 3,-2 29,-62 56,-134 28,-72 55,-131 61,-131 6,0 46,92 89,205 59,156 84,210 104,225 l 26,19 h -75 c -62,0 -70,-2 -47,-11 15,-5 27,-17 27,-26 0,-21 -93,-272 -101,-272 -9,0 -99,233 -99,257 0,14 10,28 28,37 25,14 21,15 -78,15 -65,0 -97,-3 -85,-9 27,-10 40,-27 60,-76 l 16,-42 -43,-96 c -24,-52 -46,-96 -49,-96 -9,0 -99,252 -99,278 0,14 8,26 23,32 15,6 -5,9 -72,9 l -93,1 z"
       id="path96" />
    <path
       d="m 4064,5765 c -8,-21 2,-45 19,-45 21,0 38,25 31,44 -8,20 -43,21 -50,1 z"
       id="path98" />
    <path
       d="m 12054,5765 c -8,-21 2,-45 19,-45 21,0 38,25 31,44 -8,20 -43,21 -50,1 z"
       id="path100" />
    <path
       d="m 19694,5765 c -8,-21 2,-45 19,-45 21,0 38,25 31,44 -8,20 -43,21 -50,1 z"
       id="path102" />
    <path
       d="m 20350,5700 v -40 h 120 120 v 40 40 h -120 -120 z"
       id="path104" />
    <path
       d="m 4035,5650 c 3,-5 13,-10 21,-10 11,0 14,-21 14,-113 v -113 l -27,-11 c -24,-9 -18,-11 45,-12 47,-1 71,3 67,9 -3,6 -15,10 -26,10 -18,0 -19,8 -19,125 v 125 h -41 c -24,0 -38,-4 -34,-10 z"
       id="path106" />
    <path
       d="m 12025,5650 c 3,-5 13,-10 21,-10 11,0 14,-21 14,-113 v -113 l -27,-11 c -24,-9 -18,-11 45,-12 47,-1 71,3 67,9 -3,6 -15,10 -26,10 -18,0 -19,8 -19,125 v 125 h -41 c -24,0 -38,-4 -34,-10 z"
       id="path108" />
    <path
       d="m 19665,5650 c 3,-5 13,-10 21,-10 11,0 14,-21 14,-113 v -113 l -27,-11 c -24,-9 -18,-11 45,-12 47,-1 71,3 67,9 -3,6 -15,10 -26,10 -18,0 -19,8 -19,125 v 125 h -41 c -24,0 -38,-4 -34,-10 z"
       id="path110" />
    <path
       d="m 2880,5560 c -41,-41 -8,-98 49,-85 30,6 31,5 31,-25 0,-32 -38,-79 -85,-106 -11,-7 -17,-15 -13,-19 12,-12 98,45 119,78 29,48 26,117 -7,151 -32,31 -67,33 -94,6 z"
       id="path112" />
    <path
       d="m 4240,5560 c -41,-41 -8,-98 49,-85 30,6 31,5 31,-25 0,-32 -38,-79 -85,-106 -11,-7 -17,-15 -13,-19 12,-12 98,45 119,78 29,48 26,117 -7,151 -32,31 -67,33 -94,6 z"
       id="path114" />
    <path
       d="m 10870,5560 c -41,-41 -8,-98 49,-85 30,6 31,5 31,-25 0,-32 -38,-79 -85,-106 -11,-7 -17,-15 -13,-19 12,-12 98,45 119,78 29,48 26,117 -7,151 -32,31 -67,33 -94,6 z"
       id="path116" />
    <path
       d="m 12220,5560 c -41,-41 -8,-98 49,-85 30,6 31,5 31,-25 0,-32 -38,-79 -85,-106 -11,-7 -17,-15 -13,-19 12,-12 98,45 119,78 29,48 26,117 -7,151 -32,31 -67,33 -94,6 z"
       id="path118" />
    <path
       d="m 18510,5560 c -41,-41 -8,-98 49,-85 30,6 31,5 31,-25 0,-32 -38,-79 -85,-106 -11,-7 -17,-15 -13,-19 12,-12 98,45 119,78 29,48 26,117 -7,151 -32,31 -67,33 -94,6 z"
       id="path120" />
    <path
       d="m 19860,5560 c -41,-41 -8,-98 49,-85 30,6 31,5 31,-25 0,-32 -38,-79 -85,-106 -11,-7 -17,-15 -13,-19 12,-12 98,45 119,78 29,48 26,117 -7,151 -32,31 -67,33 -94,6 z"
       id="path122" />
    <path
       d="M 3820,3925 V 2920 h 35 35 v 1005 1005 h -35 -35 z"
       id="path124" />
    <path
       d="M 11810,3926 V 2920 h 35 35 l -2,1003 -3,1002 -32,3 -33,3 z"
       id="path126" />
    <path
       d="M 19310,3926 V 2920 h 35 35 l -2,1003 -3,1002 -32,3 -33,3 z"
       id="path128" />
    <path
       d="m 2578,2501 c 19,-5 39,-14 45,-20 9,-9 12,-94 12,-296 0,-202 -3,-287 -12,-296 -6,-6 -26,-15 -45,-19 -21,-5 17,-8 107,-8 93,0 129,3 105,8 -54,13 -60,29 -60,166 v 123 l 68,-6 c 86,-7 143,9 186,52 57,57 66,160 18,224 -10,14 -39,37 -63,51 -42,24 -53,25 -219,27 -111,1 -163,-1 -142,-6 z m 265,-32 c 44,-23 66,-53 78,-105 27,-120 -56,-208 -168,-178 -22,6 -23,10 -23,144 0,101 3,140 13,143 23,10 78,7 100,-4 z"
       id="path130" />
    <path
       d="m 10728,2501 c 19,-5 39,-14 45,-20 9,-9 12,-94 12,-296 0,-202 -3,-287 -12,-296 -6,-6 -26,-15 -45,-19 -21,-5 17,-8 107,-8 93,0 129,3 105,8 -54,13 -60,29 -60,166 v 123 l 68,-6 c 86,-7 143,9 186,52 57,57 66,160 18,224 -10,14 -39,37 -63,51 -42,24 -53,25 -219,27 -111,1 -163,-1 -142,-6 z m 265,-32 c 44,-23 66,-53 78,-105 27,-120 -56,-208 -168,-178 -22,6 -23,10 -23,144 0,101 3,140 13,143 23,10 78,7 100,-4 z"
       id="path132" />
    <path
       d="m 18368,2501 c 19,-5 39,-14 45,-20 9,-9 12,-94 12,-296 0,-202 -3,-287 -12,-296 -6,-6 -26,-15 -45,-19 -21,-5 17,-8 107,-8 93,0 129,3 105,8 -54,13 -60,29 -60,166 v 123 l 68,-6 c 86,-7 143,9 186,52 57,57 66,160 18,224 -10,14 -39,37 -63,51 -42,24 -53,25 -219,27 -111,1 -163,-1 -142,-6 z m 265,-32 c 44,-23 66,-53 78,-105 27,-120 -56,-208 -168,-178 -22,6 -23,10 -23,144 0,101 3,140 13,143 23,10 78,7 100,-4 z"
       id="path134" />
    <path
       d="m 13220,2315 v -115 h -115 c -108,0 -115,-1 -115,-20 0,-19 7,-20 115,-20 h 115 v -115 c 0,-108 1,-115 20,-115 19,0 20,7 20,115 v 115 h 120 c 113,0 120,1 120,20 0,19 -7,20 -120,20 h -120 v 115 c 0,108 -1,115 -20,115 -19,0 -20,-7 -20,-115 z"
       id="path136" />
    <path
       d="m 3507,2273 c 21,-21 48,-81 103,-226 40,-108 78,-196 84,-194 6,2 37,63 70,135 32,72 62,130 65,127 3,-2 29,-62 56,-134 28,-72 55,-131 61,-131 6,0 46,92 89,205 59,156 84,210 104,225 l 26,19 h -75 c -62,0 -70,-2 -47,-11 15,-5 27,-17 27,-26 0,-21 -93,-272 -101,-272 -9,0 -99,233 -99,257 0,14 10,28 28,37 25,14 21,15 -78,15 -65,0 -97,-3 -85,-9 27,-10 40,-27 60,-76 l 16,-42 -43,-96 c -24,-52 -46,-96 -49,-96 -9,0 -99,252 -99,278 0,14 8,26 23,32 15,6 -5,9 -72,9 l -93,1 z"
       id="path138" />
    <path
       d="m 11647,2273 c 21,-21 48,-81 103,-226 40,-108 78,-196 84,-194 6,2 37,63 70,135 32,72 62,130 65,127 3,-2 29,-62 56,-134 28,-72 55,-131 61,-131 6,0 46,92 89,205 59,156 84,210 104,225 l 26,19 h -75 c -62,0 -70,-2 -47,-11 15,-5 27,-17 27,-26 0,-21 -93,-272 -101,-272 -9,0 -99,233 -99,257 0,14 10,28 28,37 25,14 21,15 -78,15 -65,0 -97,-3 -85,-9 27,-10 40,-27 60,-76 l 16,-42 -43,-96 c -24,-52 -46,-96 -49,-96 -9,0 -99,252 -99,278 0,14 8,26 23,32 15,6 -5,9 -72,9 l -93,1 z"
       id="path140" />
    <path
       d="m 19287,2273 c 21,-21 48,-81 103,-226 40,-108 78,-196 84,-194 6,2 37,63 70,135 32,72 62,130 65,127 3,-2 29,-62 56,-134 28,-72 55,-131 61,-131 6,0 46,92 89,205 59,156 84,210 104,225 l 26,19 h -75 c -62,0 -70,-2 -47,-11 15,-5 27,-17 27,-26 0,-21 -93,-272 -101,-272 -9,0 -99,233 -99,257 0,14 10,28 28,37 25,14 21,15 -78,15 -65,0 -97,-3 -85,-9 27,-10 40,-27 60,-76 l 16,-42 -43,-96 c -24,-52 -46,-96 -49,-96 -9,0 -99,252 -99,278 0,14 8,26 23,32 15,6 -5,9 -72,9 l -93,1 z"
       id="path142" />
    <path
       d="m 10120,2250 c 0,-19 7,-20 235,-20 h 235 v -75 c 0,-68 2,-75 20,-75 19,0 20,7 20,95 v 95 h -255 c -248,0 -255,-1 -255,-20 z"
       id="path144" />
    <path
       d="m 17760,2250 c 0,-19 7,-20 235,-20 h 235 v -75 c 0,-68 2,-75 20,-75 19,0 20,7 20,95 v 95 h -255 c -248,0 -255,-1 -255,-20 z"
       id="path146" />
    <path
       d="m 4204,2145 c -8,-21 2,-45 19,-45 21,0 38,25 31,44 -8,20 -43,21 -50,1 z"
       id="path148" />
    <path
       d="m 12344,2145 c -8,-21 2,-45 19,-45 21,0 38,25 31,44 -8,20 -43,21 -50,1 z"
       id="path150" />
    <path
       d="m 19984,2145 c -8,-21 2,-45 19,-45 21,0 38,25 31,44 -8,20 -43,21 -50,1 z"
       id="path152" />
    <path
       d="m 4870,2080 v -40 h 120 120 v 40 40 h -120 -120 z"
       id="path154" />
    <path
       d="m 20650,2080 v -40 h 120 120 v 40 40 h -120 -120 z"
       id="path156" />
    <path
       d="m 4175,2030 c 3,-5 13,-10 21,-10 11,0 14,-21 14,-113 v -113 l -27,-11 c -24,-9 -18,-11 45,-12 47,-1 71,3 67,9 -3,6 -15,10 -26,10 -18,0 -19,8 -19,125 v 125 h -41 c -24,0 -38,-4 -34,-10 z"
       id="path158" />
    <path
       d="m 12315,2030 c 3,-5 13,-10 21,-10 11,0 14,-21 14,-113 v -113 l -27,-11 c -24,-9 -18,-11 45,-12 47,-1 71,3 67,9 -3,6 -15,10 -26,10 -18,0 -19,8 -19,125 v 125 h -41 c -24,0 -38,-4 -34,-10 z"
       id="path160" />
    <path
       d="m 19955,2030 c 3,-5 13,-10 21,-10 11,0 14,-21 14,-113 v -113 l -27,-11 c -24,-9 -18,-11 45,-12 47,-1 71,3 67,9 -3,6 -15,10 -26,10 -18,0 -19,8 -19,125 v 125 h -41 c -24,0 -38,-4 -34,-10 z"
       id="path162" />
    <path
       d="m 3020,1940 c -41,-41 -8,-98 49,-85 30,6 31,5 31,-25 0,-32 -38,-79 -85,-106 -11,-7 -17,-15 -13,-19 12,-12 98,45 119,78 29,48 26,117 -7,151 -32,31 -67,33 -94,6 z"
       id="path164" />
    <path
       d="m 4380,1940 c -41,-41 -8,-98 49,-85 30,6 31,5 31,-25 0,-32 -38,-79 -85,-106 -11,-7 -17,-15 -13,-19 12,-12 98,45 119,78 29,48 26,117 -7,151 -32,31 -67,33 -94,6 z"
       id="path166" />
    <path
       d="m 11160,1940 c -41,-41 -8,-98 49,-85 30,6 31,5 31,-25 0,-32 -38,-79 -85,-106 -11,-7 -17,-15 -13,-19 12,-12 98,45 119,78 29,48 26,117 -7,151 -32,31 -67,33 -94,6 z"
       id="path168" />
    <path
       d="m 12520,1940 c -41,-41 -8,-98 49,-85 30,6 31,5 31,-25 0,-32 -38,-79 -85,-106 -11,-7 -17,-15 -13,-19 12,-12 98,45 119,78 29,48 26,117 -7,151 -32,31 -67,33 -94,6 z"
       id="path170" />
    <path
       d="m 18800,1940 c -41,-41 -8,-98 49,-85 30,6 31,5 31,-25 0,-32 -38,-79 -85,-106 -11,-7 -17,-15 -13,-19 12,-12 98,45 119,78 29,48 26,117 -7,151 -32,31 -67,33 -94,6 z"
       id="path172" />
    <path
       d="m 20160,1940 c -41,-41 -8,-98 49,-85 30,6 31,5 31,-25 0,-32 -38,-79 -85,-106 -11,-7 -17,-15 -13,-19 12,-12 98,45 119,78 29,48 26,117 -7,151 -32,31 -67,33 -94,6 z"
       id="path174" />
    <path
       d="m 3833,1417 c -210,-127 -382,-235 -383,-239 0,-4 38,-19 85,-33 47,-14 123,-37 171,-51 47,-14 84,-29 82,-34 -2,-5 -77,-88 -167,-186 -90,-98 -159,-180 -153,-182 11,-3 764,467 772,482 3,6 -71,29 -163,52 -93,23 -170,44 -172,46 -3,2 69,85 160,184 155,169 176,194 158,194 -5,0 -180,-105 -390,-233 z"
       id="path176" />
    <path
       d="m 11823,1417 c -210,-127 -382,-235 -383,-239 0,-4 38,-19 85,-33 47,-14 123,-37 171,-51 47,-14 84,-29 82,-34 -2,-5 -77,-88 -167,-186 -90,-98 -159,-180 -153,-182 11,-3 764,467 772,482 3,6 -71,29 -163,52 -93,23 -170,44 -172,46 -3,2 69,85 160,184 155,169 176,194 158,194 -5,0 -180,-105 -390,-233 z"
       id="path178" />
    <path
       d="m 19323,1417 c -210,-127 -382,-235 -383,-239 0,-4 38,-19 85,-33 47,-14 123,-37 171,-51 47,-14 84,-29 82,-34 -2,-5 -77,-88 -167,-186 -90,-98 -159,-180 -153,-182 11,-3 764,467 772,482 3,6 -71,29 -163,52 -93,23 -170,44 -172,46 -3,2 69,85 160,184 155,169 176,194 158,194 -5,0 -180,-105 -390,-233 z"
       id="path180" />
  </g>
</svg>
