<?xml version="1.0" encoding="UTF-8" standalone="no"?>
<svg
   version="1.0"
   width="3635.7646pt"
   height="1363.8645pt"
   viewBox="0 0 3635.7646 1363.8645"
   preserveAspectRatio="xMidYMid meet"
   id="svg342"
   xmlns="http://www.w3.org/2000/svg"
   xmlns:svg="http://www.w3.org/2000/svg">
  <defs
     id="defs346" />
  <metadata
     id="metadata2">
Created by potrace 1.16, written by Peter Selinger 2001-2019
</metadata>
  <g
     transform="matrix(0.1,0,0,-0.1,-87.235397,1444)"
     fill="#000000"
     stroke="none"
     id="g340">
    <path
       d="m 2340,14090 v -350 l 83,49 c 45,26 177,103 292,171 116,67 214,125 218,129 7,7 -569,351 -587,351 -3,0 -6,-157 -6,-350 z m 268,110 c 103,-61 170,-106 164,-112 -9,-9 -342,-208 -348,-208 -2,0 -4,97 -4,216 0,118 3,213 8,211 4,-2 85,-50 180,-107 z"
       id="path4" />
    <path
       d="m 11470,14090 v -350 l 83,49 c 45,26 177,103 292,171 116,67 214,125 218,129 7,7 -569,351 -587,351 -3,0 -6,-157 -6,-350 z m 268,110 c 103,-61 170,-106 164,-112 -9,-9 -342,-208 -348,-208 -2,0 -4,97 -4,216 0,118 3,213 8,211 4,-2 85,-50 180,-107 z"
       id="path6" />
    <path
       d="m 19410,14090 v -350 l 83,49 c 45,26 177,103 292,171 116,67 214,125 218,129 7,7 -569,351 -587,351 -3,0 -6,-157 -6,-350 z m 268,110 c 103,-61 170,-106 164,-112 -9,-9 -342,-208 -348,-208 -2,0 -4,97 -4,216 0,118 3,213 8,211 4,-2 85,-50 180,-107 z"
       id="path8" />
    <path
       d="m 27880,14090 v -350 l 83,49 c 45,26 177,103 292,171 116,67 214,125 218,129 7,7 -569,351 -587,351 -3,0 -6,-157 -6,-350 z m 268,110 c 103,-61 170,-106 164,-112 -9,-9 -342,-208 -348,-208 -2,0 -4,97 -4,216 0,118 3,213 8,211 4,-2 85,-50 180,-107 z"
       id="path10" />
    <path
       d="m 18569,14382 c -92,-59 -173,-182 -198,-300 -31,-150 10,-320 105,-430 37,-44 134,-116 143,-106 3,2 -18,28 -46,57 -66,67 -89,116 -108,223 -18,106 -19,205 -1,305 19,106 48,166 108,222 28,26 49,50 46,52 -2,3 -24,-8 -49,-23 z"
       id="path12" />
    <path
       d="m 21040,14405 c 0,-3 22,-28 49,-54 27,-26 58,-65 69,-87 31,-61 52,-182 52,-296 0,-183 -40,-301 -125,-375 -25,-23 -45,-44 -45,-47 0,-17 85,43 130,90 87,92 130,203 130,340 0,132 -44,247 -130,338 -44,47 -130,107 -130,91 z"
       id="path14" />
    <path
       d="m 27039,14382 c -92,-59 -173,-182 -198,-300 -31,-150 10,-320 105,-430 37,-44 134,-116 143,-106 3,2 -18,28 -46,57 -66,67 -89,116 -108,223 -18,106 -19,205 -1,305 19,106 48,166 108,222 28,26 49,50 46,52 -2,3 -24,-8 -49,-23 z"
       id="path16" />
    <path
       d="m 29520,14405 c 0,-3 22,-28 49,-54 27,-26 58,-65 69,-87 31,-61 52,-182 52,-296 0,-183 -40,-301 -125,-375 -25,-23 -45,-44 -45,-47 0,-17 85,43 130,90 87,92 130,203 130,340 0,132 -44,247 -130,338 -44,47 -130,107 -130,91 z"
       id="path18" />
    <path
       d="m 3555,14391 c -95,-25 -191,-114 -221,-204 -10,-29 -17,-82 -17,-122 0,-40 7,-93 17,-122 22,-66 93,-146 159,-179 27,-14 73,-44 100,-66 90,-70 249,-137 330,-138 35,0 15,16 -42,32 -59,18 -133,76 -160,126 -10,19 -7,23 33,41 58,25 125,93 157,156 21,43 24,64 24,155 0,90 -3,111 -23,148 -58,110 -152,173 -262,178 -36,2 -78,0 -95,-5 z m 155,-43 c 81,-41 121,-134 121,-287 1,-153 -39,-243 -126,-282 -79,-37 -159,-19 -214,47 -76,93 -92,315 -31,433 52,102 153,138 250,89 z"
       id="path20" />
    <path
       d="m 12685,14391 c -95,-25 -191,-114 -221,-204 -10,-29 -17,-82 -17,-122 0,-40 7,-93 17,-122 22,-66 93,-146 159,-179 27,-14 73,-44 100,-66 90,-70 249,-137 330,-138 35,0 15,16 -42,32 -59,18 -133,76 -160,126 -10,19 -7,23 33,41 58,25 125,93 157,156 21,43 24,64 24,155 0,90 -3,111 -23,148 -58,110 -152,173 -262,178 -36,2 -78,0 -95,-5 z m 155,-43 c 81,-41 121,-134 121,-287 1,-153 -39,-243 -126,-282 -79,-37 -159,-19 -214,47 -76,93 -92,315 -31,433 52,102 153,138 250,89 z"
       id="path22" />
    <path
       d="m 20625,14391 c -95,-25 -191,-114 -221,-204 -10,-29 -17,-82 -17,-122 0,-40 7,-93 17,-122 22,-66 93,-146 159,-179 27,-14 73,-44 100,-66 90,-70 249,-137 330,-138 35,0 15,16 -42,32 -59,18 -133,76 -160,126 -10,19 -7,23 33,41 58,25 125,93 157,156 21,43 24,64 24,155 0,90 -3,111 -23,148 -58,110 -152,173 -262,178 -36,2 -78,0 -95,-5 z m 155,-43 c 81,-41 121,-134 121,-287 1,-153 -39,-243 -126,-282 -79,-37 -159,-19 -214,47 -76,93 -92,315 -31,433 52,102 153,138 250,89 z"
       id="path24" />
    <path
       d="m 29095,14391 c -95,-25 -191,-114 -221,-204 -10,-29 -17,-82 -17,-122 0,-40 7,-93 17,-122 22,-66 93,-146 159,-179 27,-14 73,-44 100,-66 90,-70 249,-137 330,-138 35,0 15,16 -42,32 -59,18 -133,76 -160,126 -10,19 -7,23 33,41 58,25 125,93 157,156 21,43 24,64 24,155 0,90 -3,111 -23,148 -58,110 -152,173 -262,178 -36,2 -78,0 -95,-5 z m 155,-43 c 81,-41 121,-134 121,-287 1,-153 -39,-243 -126,-282 -79,-37 -159,-19 -214,47 -76,93 -92,315 -31,433 52,102 153,138 250,89 z"
       id="path26" />
    <path
       d="m 1608,14381 c 19,-5 39,-14 45,-20 17,-17 17,-575 0,-592 -6,-6 -26,-15 -45,-19 -21,-5 17,-8 107,-8 93,0 129,3 105,8 -54,13 -60,29 -60,166 v 123 l 68,-6 c 86,-7 143,9 186,52 57,57 66,160 18,224 -10,14 -39,37 -63,51 -42,24 -53,25 -219,27 -111,1 -163,-1 -142,-6 z m 265,-32 c 44,-23 66,-53 78,-105 27,-120 -56,-208 -168,-178 -22,6 -23,10 -23,144 0,101 3,140 13,143 23,10 78,7 100,-4 z"
       id="path28" />
    <path
       d="m 10738,14381 c 19,-5 39,-14 45,-20 9,-9 12,-94 12,-296 0,-202 -3,-287 -12,-296 -6,-6 -26,-15 -45,-19 -21,-5 17,-8 107,-8 93,0 129,3 105,8 -54,13 -60,29 -60,166 v 123 l 68,-6 c 86,-7 143,9 186,52 57,57 66,160 18,224 -10,14 -39,37 -63,51 -42,24 -53,25 -219,27 -111,1 -163,-1 -142,-6 z m 265,-32 c 44,-23 66,-53 78,-105 27,-120 -56,-208 -168,-178 -22,6 -23,10 -23,144 0,101 3,140 13,143 23,10 78,7 100,-4 z"
       id="path30" />
    <path
       d="m 18678,14381 c 19,-5 39,-14 45,-20 9,-9 12,-94 12,-296 0,-202 -3,-287 -12,-296 -6,-6 -26,-15 -45,-19 -21,-5 17,-8 107,-8 93,0 129,3 105,8 -54,13 -60,29 -60,166 v 123 l 68,-6 c 86,-7 143,9 186,52 57,57 66,160 18,224 -10,14 -39,37 -63,51 -42,24 -53,25 -219,27 -111,1 -163,-1 -142,-6 z m 265,-32 c 44,-23 66,-53 78,-105 27,-120 -56,-208 -168,-178 -22,6 -23,10 -23,144 0,101 3,140 13,143 23,10 78,7 100,-4 z"
       id="path32" />
    <path
       d="m 27148,14381 c 19,-5 39,-14 45,-20 9,-9 12,-94 12,-296 0,-202 -3,-287 -12,-296 -6,-6 -26,-15 -45,-19 -21,-5 17,-8 107,-8 93,0 129,3 105,8 -54,13 -60,29 -60,166 v 123 l 68,-6 c 86,-7 143,9 186,52 57,57 66,160 18,224 -10,14 -39,37 -63,51 -42,24 -53,25 -219,27 -111,1 -163,-1 -142,-6 z m 265,-32 c 44,-23 66,-53 78,-105 27,-120 -56,-208 -168,-178 -22,6 -23,10 -23,144 0,101 3,140 13,143 23,10 78,7 100,-4 z"
       id="path34" />
    <path
       d="m 34458,14381 c 19,-5 39,-14 45,-20 9,-9 12,-94 12,-296 0,-202 -3,-287 -12,-296 -6,-6 -26,-15 -45,-19 -21,-5 17,-8 107,-8 93,0 129,3 105,8 -54,13 -60,29 -60,166 v 123 l 68,-6 c 86,-7 143,9 186,52 57,57 66,160 18,224 -10,14 -39,37 -63,51 -42,24 -53,25 -219,27 -111,1 -163,-1 -142,-6 z m 265,-32 c 44,-23 66,-53 78,-105 27,-120 -56,-208 -168,-178 -22,6 -23,10 -23,144 0,101 3,140 13,143 23,10 78,7 100,-4 z"
       id="path36" />
    <path
       d="m 6080,14195 v -115 h -115 c -108,0 -115,-1 -115,-20 0,-19 7,-20 115,-20 h 115 v -115 c 0,-108 1,-115 20,-115 19,0 20,7 20,115 v 115 h 120 c 113,0 120,1 120,20 0,19 -7,20 -120,20 h -120 v 115 c 0,108 -1,115 -20,115 -19,0 -20,-7 -20,-115 z"
       id="path38" />
    <path
       d="m 23460,14195 v -115 h -115 c -108,0 -115,-1 -115,-20 0,-19 7,-20 115,-20 h 115 v -115 c 0,-108 1,-115 20,-115 19,0 20,7 20,115 v 115 h 120 c 113,0 120,1 120,20 0,19 -7,20 -120,20 h -120 v 115 c 0,108 -1,115 -20,115 -19,0 -20,-7 -20,-115 z"
       id="path40" />
    <path
       d="m 36950,14195 v -115 h -115 c -108,0 -115,-1 -115,-20 0,-19 7,-20 115,-20 h 115 v -115 c 0,-108 1,-115 20,-115 19,0 20,7 20,115 v 115 h 120 c 113,0 120,1 120,20 0,19 -7,20 -120,20 h -120 v 115 c 0,108 -1,115 -20,115 -19,0 -20,-7 -20,-115 z"
       id="path42" />
    <path
       d="m 4517,14153 c 21,-21 48,-81 103,-226 40,-108 78,-196 84,-194 6,2 37,63 70,135 32,72 62,130 65,127 3,-2 29,-62 56,-134 28,-72 55,-131 61,-131 6,0 46,92 89,205 59,156 84,210 104,225 l 26,19 h -75 c -62,0 -70,-2 -47,-11 15,-5 27,-17 27,-26 0,-21 -93,-272 -101,-272 -9,0 -99,233 -99,257 0,14 10,28 28,37 25,14 21,15 -78,15 -65,0 -97,-3 -85,-9 27,-10 40,-27 60,-76 l 16,-42 -43,-96 c -24,-52 -46,-96 -49,-96 -9,0 -99,252 -99,278 0,14 8,26 23,32 15,6 -5,9 -72,9 l -93,1 z"
       id="path44" />
    <path
       d="m 13647,14153 c 21,-21 48,-81 103,-226 40,-108 78,-196 84,-194 6,2 37,63 70,135 32,72 62,130 65,127 3,-2 29,-62 56,-134 28,-72 55,-131 61,-131 6,0 46,92 89,205 59,156 84,210 104,225 l 26,19 h -75 c -62,0 -70,-2 -47,-11 15,-5 27,-17 27,-26 0,-21 -93,-272 -101,-272 -9,0 -99,233 -99,257 0,14 10,28 28,37 25,14 21,15 -78,15 -65,0 -97,-3 -85,-9 27,-10 40,-27 60,-76 l 16,-42 -43,-96 c -24,-52 -46,-96 -49,-96 -9,0 -99,252 -99,278 0,14 8,26 23,32 15,6 -5,9 -72,9 l -93,1 z"
       id="path46" />
    <path
       d="m 21897,14153 c 21,-21 48,-81 103,-226 40,-108 78,-196 84,-194 6,2 37,63 70,135 32,72 62,130 65,127 3,-2 29,-62 56,-134 28,-72 55,-131 61,-131 6,0 46,92 89,205 59,156 84,210 104,225 l 26,19 h -75 c -62,0 -70,-2 -47,-11 15,-5 27,-17 27,-26 0,-21 -93,-272 -101,-272 -9,0 -99,233 -99,257 0,14 10,28 28,37 25,14 21,15 -78,15 -65,0 -97,-3 -85,-9 27,-10 40,-27 60,-76 l 16,-42 -43,-96 c -24,-52 -46,-96 -49,-96 -9,0 -99,252 -99,278 0,14 8,26 23,32 15,6 -5,9 -72,9 l -93,1 z"
       id="path48" />
    <path
       d="m 30367,14153 c 21,-21 48,-81 103,-226 40,-108 78,-196 84,-194 6,2 37,63 70,135 32,72 62,130 65,127 3,-2 29,-62 56,-134 28,-72 55,-131 61,-131 6,0 46,92 89,205 59,156 84,210 104,225 l 26,19 h -75 c -62,0 -70,-2 -47,-11 15,-5 27,-17 27,-26 0,-21 -93,-272 -101,-272 -9,0 -99,233 -99,257 0,14 10,28 28,37 25,14 21,15 -78,15 -65,0 -97,-3 -85,-9 27,-10 40,-27 60,-76 l 16,-42 -43,-96 c -24,-52 -46,-96 -49,-96 -9,0 -99,252 -99,278 0,14 8,26 23,32 15,6 -5,9 -72,9 l -93,1 z"
       id="path50" />
    <path
       d="m 35387,14153 c 21,-21 48,-81 103,-226 40,-108 78,-196 84,-194 6,2 37,63 70,135 32,72 62,130 65,127 3,-2 29,-62 56,-134 28,-72 55,-131 61,-131 6,0 46,92 89,205 59,156 84,210 104,225 l 26,19 h -75 c -62,0 -70,-2 -47,-11 15,-5 27,-17 27,-26 0,-21 -93,-272 -101,-272 -9,0 -99,233 -99,257 0,14 10,28 28,37 25,14 21,15 -78,15 -65,0 -97,-3 -85,-9 27,-10 40,-27 60,-76 l 16,-42 -43,-96 c -24,-52 -46,-96 -49,-96 -9,0 -99,252 -99,278 0,14 8,26 23,32 15,6 -5,9 -72,9 l -93,1 z"
       id="path52" />
    <path
       d="m 17760,14130 c 0,-19 7,-20 235,-20 h 235 v -75 c 0,-68 2,-75 20,-75 19,0 20,7 20,95 v 95 h -255 c -248,0 -255,-1 -255,-20 z"
       id="path54" />
    <path
       d="m 26240,14130 c 0,-19 7,-20 235,-20 h 235 v -75 c 0,-68 2,-75 20,-75 19,0 20,7 20,95 v 95 h -255 c -248,0 -255,-1 -255,-20 z"
       id="path56" />
    <path
       d="m 5214,14025 c -8,-21 2,-45 19,-45 21,0 38,25 31,44 -8,20 -43,21 -50,1 z"
       id="path58" />
    <path
       d="m 14344,14025 c -8,-21 2,-45 19,-45 21,0 38,25 31,44 -8,20 -43,21 -50,1 z"
       id="path60" />
    <path
       d="m 22584,14025 c -8,-21 2,-45 19,-45 21,0 38,25 31,44 -8,20 -43,21 -50,1 z"
       id="path62" />
    <path
       d="m 31064,14025 c -8,-21 2,-45 19,-45 21,0 38,25 31,44 -8,20 -43,21 -50,1 z"
       id="path64" />
    <path
       d="m 36074,14025 c -8,-21 2,-45 19,-45 21,0 38,25 31,44 -8,20 -43,21 -50,1 z"
       id="path66" />
    <path
       d="m 15010,13960 v -40 h 120 120 v 40 40 h -120 -120 z"
       id="path68" />
    <path
       d="m 31720,13960 v -40 h 120 120 v 40 40 h -120 -120 z"
       id="path70" />
    <path
       d="m 5185,13910 c 3,-5 13,-10 21,-10 11,0 14,-21 14,-113 v -113 l -27,-11 c -24,-9 -18,-11 45,-12 47,-1 71,3 67,9 -3,6 -15,10 -26,10 -18,0 -19,8 -19,125 v 125 h -41 c -24,0 -38,-4 -34,-10 z"
       id="path72" />
    <path
       d="m 14315,13910 c 3,-5 13,-10 21,-10 11,0 14,-21 14,-113 v -113 l -27,-11 c -24,-9 -18,-11 45,-12 47,-1 71,3 67,9 -3,6 -15,10 -26,10 -18,0 -19,8 -19,125 v 125 h -41 c -24,0 -38,-4 -34,-10 z"
       id="path74" />
    <path
       d="m 22555,13910 c 3,-5 13,-10 21,-10 11,0 14,-21 14,-113 v -113 l -27,-11 c -24,-9 -18,-11 45,-12 47,-1 71,3 67,9 -3,6 -15,10 -26,10 -18,0 -19,8 -19,125 v 125 h -41 c -24,0 -38,-4 -34,-10 z"
       id="path76" />
    <path
       d="m 31035,13910 c 3,-5 13,-10 21,-10 11,0 14,-21 14,-113 v -113 l -27,-11 c -24,-9 -18,-11 45,-12 47,-1 71,3 67,9 -3,6 -15,10 -26,10 -18,0 -19,8 -19,125 v 125 h -41 c -24,0 -38,-4 -34,-10 z"
       id="path78" />
    <path
       d="m 36045,13910 c 3,-5 13,-10 21,-10 11,0 14,-21 14,-113 v -113 l -27,-11 c -24,-9 -18,-11 45,-12 47,-1 71,3 67,9 -3,6 -15,10 -26,10 -18,0 -19,8 -19,125 v 125 h -41 c -24,0 -38,-4 -34,-10 z"
       id="path80" />
    <path
       d="m 4030,13820 c -41,-41 -8,-98 49,-85 30,6 31,5 31,-25 0,-32 -38,-79 -85,-106 -11,-7 -17,-15 -13,-19 12,-12 98,45 119,78 29,48 26,117 -7,151 -32,31 -67,33 -94,6 z"
       id="path82" />
    <path
       d="m 5380,13820 c -41,-41 -8,-98 49,-85 30,6 31,5 31,-25 0,-32 -38,-79 -85,-106 -11,-7 -17,-15 -13,-19 12,-12 98,45 119,78 29,48 26,117 -7,151 -32,31 -67,33 -94,6 z"
       id="path84" />
    <path
       d="m 13160,13820 c -41,-41 -8,-98 49,-85 30,6 31,5 31,-25 0,-32 -38,-79 -85,-106 -11,-7 -17,-15 -13,-19 12,-12 98,45 119,78 29,48 26,117 -7,151 -32,31 -67,33 -94,6 z"
       id="path86" />
    <path
       d="m 14510,13820 c -41,-41 -8,-98 49,-85 30,6 31,5 31,-25 0,-32 -38,-79 -85,-106 -11,-7 -17,-15 -13,-19 12,-12 98,45 119,78 29,48 26,117 -7,151 -32,31 -67,33 -94,6 z"
       id="path88" />
    <path
       d="m 21410,13820 c -41,-41 -8,-98 49,-85 30,6 31,5 31,-25 0,-32 -38,-79 -85,-106 -11,-7 -17,-15 -13,-19 12,-12 98,45 119,78 29,48 26,117 -7,151 -32,31 -67,33 -94,6 z"
       id="path90" />
    <path
       d="m 22760,13820 c -41,-41 -8,-98 49,-85 30,6 31,5 31,-25 0,-32 -38,-79 -85,-106 -11,-7 -17,-15 -13,-19 12,-12 98,45 119,78 29,48 26,117 -7,151 -32,31 -67,33 -94,6 z"
       id="path92" />
    <path
       d="m 29880,13820 c -41,-41 -8,-98 49,-85 30,6 31,5 31,-25 0,-32 -38,-79 -85,-106 -11,-7 -17,-15 -13,-19 12,-12 98,45 119,78 29,48 26,117 -7,151 -32,31 -67,33 -94,6 z"
       id="path94" />
    <path
       d="m 31230,13820 c -41,-41 -8,-98 49,-85 30,6 31,5 31,-25 0,-32 -38,-79 -85,-106 -11,-7 -17,-15 -13,-19 12,-12 98,45 119,78 29,48 26,117 -7,151 -32,31 -67,33 -94,6 z"
       id="path96" />
    <path
       d="m 34890,13820 c -41,-41 -8,-98 49,-85 30,6 31,5 31,-25 0,-32 -38,-79 -85,-106 -11,-7 -17,-15 -13,-19 12,-12 98,45 119,78 29,48 26,117 -7,151 -32,31 -67,33 -94,6 z"
       id="path98" />
    <path
       d="m 36250,13820 c -41,-41 -8,-98 49,-85 30,6 31,5 31,-25 0,-32 -38,-79 -85,-106 -11,-7 -17,-15 -13,-19 12,-12 98,45 119,78 29,48 26,117 -7,151 -32,31 -67,33 -94,6 z"
       id="path100" />
    <path
       d="m 3960,12000 v -970 h 35 35 v 970 970 h -35 -35 z"
       id="path102" />
    <path
       d="m 12990,12000 v -970 h 35 35 v 970 970 h -35 -35 z"
       id="path104" />
    <path
       d="m 20760,12000 v -970 h 35 35 v 970 970 h -35 -35 z"
       id="path106" />
    <path
       d="m 29100,12000 v -970 h 35 35 v 970 970 h -35 -35 z"
       id="path108" />
    <path
       d="m 35830,11975 v -995 h 35 35 v 995 995 h -35 -35 z"
       id="path110" />
    <path
       d="m 3723,11190 c 7,-19 256,-571 264,-583 3,-6 12,2 20,16 31,59 253,560 250,564 -2,1 -53,-52 -113,-119 l -109,-122 -3,37 c -3,35 -5,37 -37,37 -32,0 -34,-2 -37,-40 l -3,-39 -85,95 c -145,162 -152,169 -147,154 z"
       id="path112" />
    <path
       d="m 20950,11068 -115,-129 -3,41 c -3,38 -5,40 -38,40 -33,0 -34,-1 -34,-37 l -1,-38 -77,85 c -105,116 -155,167 -150,155 48,-114 263,-585 267,-585 6,0 273,592 269,595 -2,1 -55,-56 -118,-127 z"
       id="path114" />
    <path
       d="m 28861,11193 c 11,-34 265,-593 270,-593 7,0 270,582 265,587 -2,2 -52,-51 -112,-118 l -109,-122 -3,36 c -3,35 -5,37 -37,37 -32,0 -34,-2 -37,-40 l -3,-41 -90,101 c -49,55 -103,115 -119,133 -15,18 -27,27 -25,20 z"
       id="path116" />
    <path
       d="m 12798,11085 c 27,-61 87,-194 133,-297 46,-104 86,-188 89,-188 4,0 194,416 268,585 5,13 -61,-56 -155,-160 l -73,-80 v 38 c 0,36 -1,37 -35,37 -33,0 -35,-2 -35,-35 0,-19 -4,-35 -8,-35 -5,0 -47,44 -94,98 -144,163 -147,164 -90,37 z"
       id="path118" />
    <path
       d="m 34598,10561 c 19,-5 39,-14 45,-20 9,-9 12,-94 12,-296 0,-202 -3,-287 -12,-296 -6,-6 -26,-15 -45,-19 -21,-5 17,-8 107,-8 93,0 129,3 105,8 -54,13 -60,29 -60,166 v 123 l 68,-6 c 86,-7 143,9 186,52 57,57 66,160 18,224 -10,14 -39,37 -63,51 -42,24 -53,25 -219,27 -111,1 -163,-1 -142,-6 z m 265,-32 c 44,-23 66,-53 78,-105 27,-120 -56,-208 -168,-178 -22,6 -23,10 -23,144 0,101 3,140 13,143 23,10 78,7 100,-4 z"
       id="path120" />
    <path
       d="m 35527,10333 c 21,-21 48,-81 103,-226 40,-108 78,-196 84,-194 6,2 37,63 70,135 32,72 62,130 65,127 3,-2 29,-62 56,-134 28,-72 55,-131 61,-131 6,0 46,92 89,205 59,156 84,210 104,225 l 26,19 h -75 c -62,0 -70,-2 -47,-11 15,-5 27,-17 27,-26 0,-21 -93,-272 -101,-272 -9,0 -99,233 -99,257 0,14 10,28 28,37 25,14 21,15 -78,15 -65,0 -97,-3 -85,-9 27,-10 40,-27 60,-76 l 16,-42 -43,-96 c -24,-52 -46,-96 -49,-96 -9,0 -99,252 -99,278 0,14 8,26 23,32 15,6 -5,9 -72,9 l -93,1 z"
       id="path122" />
    <path
       d="m 36214,10205 c -8,-21 2,-45 19,-45 21,0 38,25 31,44 -8,20 -43,21 -50,1 z"
       id="path124" />
    <path
       d="m 12911,10035 -52,-165 -170,-2 -169,-3 135,-98 c 74,-54 135,-101 135,-104 0,-3 -22,-75 -50,-161 -27,-85 -48,-157 -46,-159 2,-2 39,23 82,55 44,32 104,76 134,99 l 56,40 134,-98 c 73,-54 135,-97 137,-95 3,2 -16,66 -40,143 -24,76 -47,147 -51,159 -5,17 14,35 130,120 l 136,99 -169,3 -169,2 -53,165 c -28,91 -53,165 -55,165 -1,0 -26,-74 -55,-165 z m 98,-82 37,-118 124,-5 125,-5 -97,-70 c -54,-38 -98,-75 -98,-80 0,-6 18,-64 39,-128 22,-65 34,-114 28,-110 -7,4 -54,38 -104,75 -51,37 -95,68 -98,68 -3,0 -51,-34 -105,-75 -55,-42 -100,-72 -100,-67 0,4 16,55 35,112 19,57 35,111 35,120 0,9 -44,47 -97,85 l -98,70 125,5 125,5 39,122 c 22,68 42,121 44,119 2,-3 20,-58 41,-123 z"
       id="path126" />
    <path
       d="m 20691,10035 -52,-165 -170,-2 -169,-3 135,-98 c 74,-54 135,-101 135,-104 0,-3 -22,-75 -50,-161 -27,-85 -48,-157 -46,-159 2,-2 39,23 82,55 44,32 104,76 134,99 l 56,40 134,-98 c 73,-54 135,-97 137,-95 3,2 -16,66 -40,143 -24,76 -47,147 -51,159 -5,17 14,35 130,120 l 136,99 -169,3 -169,2 -53,165 c -28,91 -53,165 -55,165 -1,0 -26,-74 -55,-165 z m 98,-82 37,-118 124,-5 125,-5 -97,-70 c -54,-38 -98,-75 -98,-80 0,-6 18,-64 39,-128 22,-65 34,-114 28,-110 -7,4 -54,38 -104,75 -51,37 -95,68 -98,68 -3,0 -51,-34 -105,-75 -55,-42 -100,-72 -100,-67 0,4 16,55 35,112 19,57 35,111 35,120 0,9 -44,47 -97,85 l -98,70 125,5 125,5 39,122 c 22,68 42,121 44,119 2,-3 20,-58 41,-123 z"
       id="path128" />
    <path
       d="m 36880,10140 v -40 h 120 120 v 40 40 h -120 -120 z"
       id="path130" />
    <path
       d="m 4126,10075 c 15,-27 34,-59 41,-70 7,-11 13,-23 13,-27 0,-5 -135,-8 -300,-8 h -300 v -40 -40 h 300 c 165,0 300,-3 300,-8 0,-4 -6,-16 -13,-27 -7,-11 -26,-42 -41,-70 -28,-49 -26,-48 70,48 l 99,97 -99,98 c -96,95 -98,96 -70,47 z"
       id="path132" />
    <path
       d="m 29266,10075 c 15,-27 34,-59 41,-70 7,-11 13,-23 13,-27 0,-5 -135,-8 -300,-8 h -300 v -40 -40 h 300 c 165,0 300,-3 300,-8 0,-4 -6,-16 -13,-27 -7,-11 -26,-42 -41,-70 -28,-49 -26,-48 70,48 l 99,97 -99,98 c -96,95 -98,96 -70,47 z"
       id="path134" />
    <path
       d="m 36185,10090 c 3,-5 13,-10 21,-10 11,0 14,-21 14,-113 v -113 l -27,-11 c -24,-9 -18,-11 45,-12 47,-1 71,3 67,9 -3,6 -15,10 -26,10 -18,0 -19,8 -19,125 v 125 h -41 c -24,0 -38,-4 -34,-10 z"
       id="path136" />
    <path
       d="m 35030,10000 c -41,-41 -8,-98 49,-85 30,6 31,5 31,-25 0,-32 -38,-79 -85,-106 -11,-7 -17,-15 -13,-19 12,-12 98,45 119,78 29,48 26,117 -7,151 -32,31 -67,33 -94,6 z"
       id="path138" />
    <path
       d="m 36390,10000 c -41,-41 -8,-98 49,-85 30,6 31,5 31,-25 0,-32 -38,-79 -85,-106 -11,-7 -17,-15 -13,-19 12,-12 98,45 119,78 29,48 26,117 -7,151 -32,31 -67,33 -94,6 z"
       id="path140" />
    <path
       d="m 2467,9813 c 21,-21 48,-81 103,-226 40,-108 78,-196 84,-194 6,2 37,63 70,135 32,72 62,130 65,127 3,-2 29,-62 56,-134 28,-72 55,-131 61,-131 6,0 46,92 89,205 59,156 84,210 104,225 l 26,19 h -75 c -62,0 -70,-2 -47,-11 15,-5 27,-17 27,-26 0,-21 -93,-272 -101,-272 -9,0 -99,233 -99,257 0,14 10,28 28,37 25,14 21,15 -78,15 -65,0 -97,-3 -85,-9 27,-10 40,-27 60,-76 l 16,-42 -43,-96 c -24,-52 -46,-96 -49,-96 -9,0 -99,252 -99,278 0,14 8,26 23,32 15,6 -5,9 -72,9 l -93,1 z"
       id="path142" />
    <path
       d="m 4657,9813 c 21,-21 48,-81 103,-226 40,-108 78,-196 84,-194 6,2 37,63 70,135 32,72 62,130 65,127 3,-2 29,-62 56,-134 28,-72 55,-131 61,-131 6,0 46,92 89,205 59,156 84,210 104,225 l 26,19 h -75 c -62,0 -70,-2 -47,-11 15,-5 27,-17 27,-26 0,-21 -93,-272 -101,-272 -9,0 -99,233 -99,257 0,14 10,28 28,37 25,14 21,15 -78,15 -65,0 -97,-3 -85,-9 27,-10 40,-27 60,-76 l 16,-42 -43,-96 c -24,-52 -46,-96 -49,-96 -9,0 -99,252 -99,278 0,14 8,26 23,32 15,6 -5,9 -72,9 l -93,1 z"
       id="path144" />
    <path
       d="m 11427,9813 c 21,-21 48,-81 103,-226 40,-108 78,-196 84,-194 6,2 37,63 70,135 32,72 62,130 65,127 3,-2 29,-62 56,-134 28,-72 55,-131 61,-131 6,0 46,92 89,205 59,156 84,210 104,225 l 26,19 h -75 c -62,0 -70,-2 -47,-11 15,-5 27,-17 27,-26 0,-21 -93,-272 -101,-272 -9,0 -99,233 -99,257 0,14 10,28 28,37 25,14 21,15 -78,15 -65,0 -97,-3 -85,-9 27,-10 40,-27 60,-76 l 16,-42 -43,-96 c -24,-52 -46,-96 -49,-96 -9,0 -99,252 -99,278 0,14 8,26 23,32 15,6 -5,9 -72,9 l -93,1 z"
       id="path146" />
    <path
       d="m 13767,9813 c 21,-21 48,-81 103,-226 40,-108 78,-196 84,-194 6,2 37,63 70,135 32,72 62,130 65,127 3,-2 29,-62 56,-134 28,-72 55,-131 61,-131 6,0 46,92 89,205 59,156 84,210 104,225 l 26,19 h -75 c -62,0 -70,-2 -47,-11 15,-5 27,-17 27,-26 0,-21 -93,-272 -101,-272 -9,0 -99,233 -99,257 0,14 10,28 28,37 25,14 21,15 -78,15 -65,0 -97,-3 -85,-9 27,-10 40,-27 60,-76 l 16,-42 -43,-96 c -24,-52 -46,-96 -49,-96 -9,0 -99,252 -99,278 0,14 8,26 23,32 15,6 -5,9 -72,9 l -93,1 z"
       id="path148" />
    <path
       d="m 19207,9813 c 21,-21 48,-81 103,-226 40,-108 78,-196 84,-194 6,2 37,63 70,135 32,72 62,130 65,127 3,-2 29,-62 56,-134 28,-72 55,-131 61,-131 6,0 46,92 89,205 59,156 84,210 104,225 l 26,19 h -75 c -62,0 -70,-2 -47,-11 15,-5 27,-17 27,-26 0,-21 -93,-272 -101,-272 -9,0 -99,233 -99,257 0,14 10,28 28,37 25,14 21,15 -78,15 -65,0 -97,-3 -85,-9 27,-10 40,-27 60,-76 l 16,-42 -43,-96 c -24,-52 -46,-96 -49,-96 -9,0 -99,252 -99,278 0,14 8,26 23,32 15,6 -5,9 -72,9 l -93,1 z"
       id="path150" />
    <path
       d="m 21547,9813 c 21,-21 48,-81 103,-226 40,-108 78,-196 84,-194 6,2 37,63 70,135 32,72 62,130 65,127 3,-2 29,-62 56,-134 28,-72 55,-131 61,-131 6,0 46,92 89,205 59,156 84,210 104,225 l 26,19 h -75 c -62,0 -70,-2 -47,-11 15,-5 27,-17 27,-26 0,-21 -93,-272 -101,-272 -9,0 -99,233 -99,257 0,14 10,28 28,37 25,14 21,15 -78,15 -65,0 -97,-3 -85,-9 27,-10 40,-27 60,-76 l 16,-42 -43,-96 c -24,-52 -46,-96 -49,-96 -9,0 -99,252 -99,278 0,14 8,26 23,32 15,6 -5,9 -72,9 l -93,1 z"
       id="path152" />
    <path
       d="m 27607,9813 c 21,-21 48,-81 103,-226 40,-108 78,-196 84,-194 6,2 37,63 70,135 32,72 62,130 65,127 3,-2 29,-62 56,-134 28,-72 55,-131 61,-131 6,0 46,92 89,205 59,156 84,210 104,225 l 26,19 h -75 c -62,0 -70,-2 -47,-11 15,-5 27,-17 27,-26 0,-21 -93,-272 -101,-272 -9,0 -99,233 -99,257 0,14 10,28 28,37 25,14 21,15 -78,15 -65,0 -97,-3 -85,-9 27,-10 40,-27 60,-76 l 16,-42 -43,-96 c -24,-52 -46,-96 -49,-96 -9,0 -99,252 -99,278 0,14 8,26 23,32 15,6 -5,9 -72,9 l -93,1 z"
       id="path154" />
    <path
       d="m 29797,9813 c 21,-21 48,-81 103,-226 40,-108 78,-196 84,-194 6,2 37,63 70,135 32,72 62,130 65,127 3,-2 29,-62 56,-134 28,-72 55,-131 61,-131 6,0 46,92 89,205 59,156 84,210 104,225 l 26,19 h -75 c -62,0 -70,-2 -47,-11 15,-5 27,-17 27,-26 0,-21 -93,-272 -101,-272 -9,0 -99,233 -99,257 0,14 10,28 28,37 25,14 21,15 -78,15 -65,0 -97,-3 -85,-9 27,-10 40,-27 60,-76 l 16,-42 -43,-96 c -24,-52 -46,-96 -49,-96 -9,0 -99,252 -99,278 0,14 8,26 23,32 15,6 -5,9 -72,9 l -93,1 z"
       id="path156" />
    <path
       d="m 5367,9744 c -25,-25 8,-70 43,-59 32,10 24,59 -10,63 -14,2 -29,0 -33,-4 z"
       id="path158" />
    <path
       d="m 14477,9744 c -25,-25 8,-70 43,-59 32,10 24,59 -10,63 -14,2 -29,0 -33,-4 z"
       id="path160" />
    <path
       d="m 22257,9744 c -25,-25 8,-70 43,-59 32,10 24,59 -10,63 -14,2 -29,0 -33,-4 z"
       id="path162" />
    <path
       d="m 30497,9744 c -25,-25 8,-70 43,-59 32,10 24,59 -10,63 -14,2 -29,0 -33,-4 z"
       id="path164" />
    <path
       d="m 35853,9477 c -210,-127 -382,-235 -383,-239 0,-4 38,-19 85,-33 47,-14 123,-37 171,-51 47,-14 84,-29 82,-34 -2,-5 -77,-88 -167,-186 -90,-98 -159,-180 -153,-182 11,-3 764,467 772,482 3,6 -71,29 -163,52 -93,23 -170,44 -172,46 -3,2 69,85 160,184 155,169 176,194 158,194 -5,0 -180,-105 -390,-233 z"
       id="path166" />
    <path
       d="m 3164,9685 c -8,-21 2,-45 19,-45 21,0 38,25 31,44 -8,20 -43,21 -50,1 z"
       id="path168" />
    <path
       d="m 4126,9655 c 15,-27 34,-59 41,-70 7,-11 13,-23 13,-27 0,-5 -135,-8 -300,-8 h -300 v -40 -40 h 300 c 165,0 300,-3 300,-8 0,-4 -6,-16 -13,-27 -7,-11 -26,-42 -41,-70 -28,-49 -26,-48 70,48 l 99,97 -99,98 c -96,95 -98,96 -70,47 z"
       id="path170" />
    <path
       d="m 12124,9685 c -8,-21 2,-45 19,-45 21,0 38,25 31,44 -8,20 -43,21 -50,1 z"
       id="path172" />
    <path
       d="m 19894,9685 c -8,-21 2,-45 19,-45 21,0 38,25 31,44 -8,20 -43,21 -50,1 z"
       id="path174" />
    <path
       d="m 28304,9685 c -8,-21 2,-45 19,-45 21,0 38,25 31,44 -8,20 -43,21 -50,1 z"
       id="path176" />
    <path
       d="m 29266,9655 c 15,-27 34,-59 41,-70 7,-11 13,-23 13,-27 0,-5 -135,-8 -300,-8 h -300 v -40 -40 h 300 c 165,0 300,-3 300,-8 0,-4 -6,-16 -13,-27 -7,-11 -26,-42 -41,-70 -28,-49 -26,-48 70,48 l 99,97 -99,98 c -96,95 -98,96 -70,47 z"
       id="path178" />
    <path
       d="m 5310,9612 c 0,-4 14,-13 30,-19 l 30,-11 -1,-154 c -1,-84 -4,-164 -8,-178 -4,-15 -20,-31 -38,-40 -61,-28 -32,-53 35,-29 60,21 67,43 70,252 l 4,187 h -61 c -34,0 -61,-4 -61,-8 z"
       id="path180" />
    <path
       d="m 14420,9612 c 0,-4 14,-13 30,-19 l 30,-11 -1,-154 c -1,-84 -4,-164 -8,-178 -4,-15 -20,-31 -38,-40 -61,-28 -32,-53 35,-29 60,21 67,43 70,252 l 4,187 h -61 c -34,0 -61,-4 -61,-8 z"
       id="path182" />
    <path
       d="m 22200,9612 c 0,-4 14,-13 30,-19 l 30,-11 -1,-154 c -1,-84 -4,-164 -8,-178 -4,-15 -20,-31 -38,-40 -61,-28 -32,-53 35,-29 60,21 67,43 70,252 l 4,187 h -61 c -34,0 -61,-4 -61,-8 z"
       id="path184" />
    <path
       d="m 30440,9612 c 0,-4 14,-13 30,-19 l 30,-11 -1,-154 c -1,-84 -4,-164 -8,-178 -4,-15 -20,-31 -38,-40 -61,-28 -32,-53 35,-29 60,21 67,43 70,252 l 4,187 h -61 c -34,0 -61,-4 -61,-8 z"
       id="path186" />
    <path
       d="m 3135,9570 c 3,-5 13,-10 21,-10 11,0 14,-21 14,-113 v -113 l -27,-11 c -24,-9 -18,-11 45,-12 47,-1 71,3 67,9 -3,6 -15,10 -26,10 -18,0 -19,8 -19,125 v 125 h -41 c -24,0 -38,-4 -34,-10 z"
       id="path188" />
    <path
       d="m 12095,9570 c 3,-5 13,-10 21,-10 11,0 14,-21 14,-113 v -113 l -27,-11 c -24,-9 -18,-11 45,-12 47,-1 71,3 67,9 -3,6 -15,10 -26,10 -18,0 -19,8 -19,125 v 125 h -41 c -24,0 -38,-4 -34,-10 z"
       id="path190" />
    <path
       d="m 19865,9570 c 3,-5 13,-10 21,-10 11,0 14,-21 14,-113 v -113 l -27,-11 c -24,-9 -18,-11 45,-12 47,-1 71,3 67,9 -3,6 -15,10 -26,10 -18,0 -19,8 -19,125 v 125 h -41 c -24,0 -38,-4 -34,-10 z"
       id="path192" />
    <path
       d="m 28275,9570 c 3,-5 13,-10 21,-10 11,0 14,-21 14,-113 v -113 l -27,-11 c -24,-9 -18,-11 45,-12 47,-1 71,3 67,9 -3,6 -15,10 -26,10 -18,0 -19,8 -19,125 v 125 h -41 c -24,0 -38,-4 -34,-10 z"
       id="path194" />
    <path
       d="m 4793,8628 -20,-23 878,-1040 c 483,-572 878,-1042 879,-1045 0,-3 -73,4 -162,17 -90,13 -166,22 -169,21 -6,-3 481,-240 562,-275 l 27,-11 -19,66 c -11,37 -52,182 -92,322 l -72,254 -7,-159 c -4,-88 -9,-167 -10,-175 -2,-9 -388,440 -882,1027 -483,574 -882,1043 -886,1043 -3,0 -16,-10 -27,-22 z"
       id="path196" />
    <path
       d="m 30025,8630 c -18,-20 -18,-21 7,-48 40,-43 1817,-1933 1854,-1972 l 34,-35 25,25 24,25 -951,1010 c -524,556 -957,1011 -963,1013 -6,1 -20,-7 -30,-18 z"
       id="path198" />
    <path
       d="m 3531,8598 c -10,-24 -206,-479 -435,-1013 -230,-533 -420,-973 -424,-977 -4,-4 -32,66 -62,154 -44,129 -56,155 -58,127 -1,-19 1,-168 5,-333 l 8,-298 210,192 c 207,189 290,268 270,257 -51,-27 -299,-136 -302,-133 -3,2 192,462 433,1022 410,956 436,1018 419,1031 -31,22 -45,15 -64,-29 z"
       id="path200" />
    <path
       d="m 28746,8623 c -4,-10 -163,-445 -353,-968 -190,-522 -348,-955 -350,-961 -4,-10 56,-39 62,-32 12,13 711,1955 706,1960 -3,4 -18,9 -32,13 -20,5 -28,2 -33,-12 z"
       id="path202" />
    <path
       d="m 12990,7660 v -970 h 35 35 v 970 970 h -35 -35 z"
       id="path204" />
    <path
       d="m 20760,7660 v -970 h 35 35 v 970 970 h -35 -35 z"
       id="path206" />
    <path
       d="m 27875,6863 c 3,-32 14,-179 25,-327 11,-148 22,-271 24,-273 2,-2 106,102 231,232 125,129 225,235 222,235 -3,0 -68,-34 -145,-75 -77,-41 -143,-75 -147,-75 -6,0 -1,21 12,56 4,10 -54,42 -60,33 -2,-2 -9,-19 -18,-38 l -15,-33 -64,161 c -35,89 -65,161 -67,161 -2,0 -1,-26 2,-57 z"
       id="path208" />
    <path
       d="m 32036,6730 7,-175 -30,28 -29,27 -24,-25 -23,-25 23,-25 c 13,-14 22,-27 19,-29 -2,-2 -69,2 -149,10 -80,7 -156,13 -170,13 -14,0 111,-56 278,-126 166,-69 305,-124 307,-121 4,4 -202,609 -211,618 -3,2 -2,-74 2,-170 z"
       id="path210" />
    <path
       d="m 20950,6728 -115,-129 -3,41 c -3,38 -5,40 -38,40 -33,0 -34,-1 -34,-37 l -1,-38 -77,85 c -42,47 -94,103 -115,125 l -38,40 14,-35 c 37,-93 251,-560 256,-560 6,0 273,592 269,595 -2,1 -55,-56 -118,-127 z"
       id="path212" />
    <path
       d="m 12798,6744 c 27,-60 87,-193 133,-296 46,-104 86,-188 89,-188 4,0 224,482 268,585 5,12 -61,-55 -155,-160 l -73,-80 v 38 c 0,36 -1,37 -35,37 -33,0 -35,-2 -35,-35 0,-19 -4,-35 -8,-35 -5,0 -50,46 -100,103 -138,156 -140,157 -84,31 z"
       id="path214" />
    <path
       d="m 6215,5711 c -95,-25 -191,-114 -221,-204 -10,-29 -17,-82 -17,-122 0,-40 7,-93 17,-122 22,-66 93,-146 159,-179 27,-14 73,-44 100,-66 90,-70 249,-137 330,-138 35,0 15,16 -42,32 -59,18 -133,76 -160,126 -10,19 -7,23 33,41 58,25 125,93 157,156 21,43 24,64 24,155 0,90 -3,111 -23,148 -58,110 -152,173 -262,178 -36,2 -78,0 -95,-5 z m 155,-43 c 81,-41 121,-134 121,-287 1,-153 -39,-243 -126,-282 -79,-37 -159,-19 -214,47 -76,93 -92,315 -31,433 52,102 153,138 250,89 z"
       id="path216" />
    <path
       d="m 32165,5711 c -95,-25 -191,-114 -221,-204 -10,-29 -17,-82 -17,-122 0,-40 7,-93 17,-122 22,-66 93,-146 159,-179 27,-14 73,-44 100,-66 90,-70 249,-137 330,-138 35,0 15,16 -42,32 -59,18 -133,76 -160,126 -10,19 -7,23 33,41 58,25 125,93 157,156 21,43 24,64 24,155 0,90 -3,111 -23,148 -58,110 -152,173 -262,178 -36,2 -78,0 -95,-5 z m 155,-43 c 81,-41 121,-134 121,-287 1,-153 -39,-243 -126,-282 -79,-37 -159,-19 -214,47 -76,93 -92,315 -31,433 52,102 153,138 250,89 z"
       id="path218" />
    <path
       d="m 878,5701 c 19,-5 39,-14 45,-20 17,-17 17,-575 0,-592 -6,-6 -26,-15 -45,-19 -21,-5 17,-8 107,-8 93,0 129,3 105,8 -54,13 -60,29 -60,166 v 123 l 68,-6 c 86,-7 143,9 186,52 57,57 66,160 18,224 -10,14 -39,37 -63,51 -42,24 -53,25 -219,27 -111,1 -163,-1 -142,-6 z m 265,-32 c 44,-23 66,-53 78,-105 27,-120 -56,-208 -168,-178 -22,6 -23,10 -23,144 0,101 3,140 13,143 23,10 78,7 100,-4 z"
       id="path220" />
    <path
       d="m 11578,5701 c 19,-5 39,-14 45,-20 9,-9 12,-94 12,-296 0,-202 -3,-287 -12,-296 -6,-6 -26,-15 -45,-19 -21,-5 17,-8 107,-8 93,0 129,3 105,8 -54,13 -60,29 -60,166 v 123 l 68,-6 c 86,-7 143,9 186,52 57,57 66,160 18,224 -10,14 -39,37 -63,51 -42,24 -53,25 -219,27 -111,1 -163,-1 -142,-6 z m 265,-32 c 44,-23 66,-53 78,-105 27,-120 -56,-208 -168,-178 -22,6 -23,10 -23,144 0,101 3,140 13,143 23,10 78,7 100,-4 z"
       id="path222" />
    <path
       d="m 19358,5701 c 19,-5 39,-14 45,-20 9,-9 12,-94 12,-296 0,-202 -3,-287 -12,-296 -6,-6 -26,-15 -45,-19 -21,-5 17,-8 107,-8 93,0 129,3 105,8 -54,13 -60,29 -60,166 v 123 l 68,-6 c 86,-7 143,9 186,52 57,57 66,160 18,224 -10,14 -39,37 -63,51 -42,24 -53,25 -219,27 -111,1 -163,-1 -142,-6 z m 265,-32 c 44,-23 66,-53 78,-105 27,-120 -56,-208 -168,-178 -22,6 -23,10 -23,144 0,101 3,140 13,143 23,10 78,7 100,-4 z"
       id="path224" />
    <path
       d="m 26298,5701 c 19,-5 39,-14 45,-20 9,-9 12,-94 12,-296 0,-202 -3,-287 -12,-296 -6,-6 -26,-15 -45,-19 -21,-5 17,-8 107,-8 93,0 129,3 105,8 -54,13 -60,29 -60,166 v 123 l 68,-6 c 86,-7 143,9 186,52 57,57 66,160 18,224 -10,14 -39,37 -63,51 -42,24 -53,25 -219,27 -111,1 -163,-1 -142,-6 z m 265,-32 c 44,-23 66,-53 78,-105 27,-120 -56,-208 -168,-178 -22,6 -23,10 -23,144 0,101 3,140 13,143 23,10 78,7 100,-4 z"
       id="path226" />
    <path
       d="m 8790,5515 v -115 h -115 c -108,0 -115,-1 -115,-20 0,-19 7,-20 115,-20 h 115 v -115 c 0,-108 1,-115 20,-115 19,0 20,7 20,115 v 115 h 120 c 113,0 120,1 120,20 0,19 -7,20 -120,20 h -120 v 115 c 0,108 -1,115 -20,115 -19,0 -20,-7 -20,-115 z"
       id="path228" />
    <path
       d="m 14120,5515 v -115 h -115 c -108,0 -115,-1 -115,-20 0,-19 7,-20 115,-20 h 115 v -115 c 0,-108 1,-115 20,-115 19,0 20,7 20,115 v 115 h 120 c 113,0 120,1 120,20 0,19 -7,20 -120,20 h -120 v 115 c 0,108 -1,115 -20,115 -19,0 -20,-7 -20,-115 z"
       id="path230" />
    <path
       d="m 21900,5515 v -115 h -115 c -108,0 -115,-1 -115,-20 0,-19 7,-20 115,-20 h 115 v -115 c 0,-108 1,-115 20,-115 19,0 20,7 20,115 v 115 h 120 c 113,0 120,1 120,20 0,19 -7,20 -120,20 h -120 v 115 c 0,108 -1,115 -20,115 -19,0 -20,-7 -20,-115 z"
       id="path232" />
    <path
       d="m 1807,5473 c 21,-21 48,-81 103,-226 40,-108 78,-196 84,-194 6,2 37,63 70,135 32,72 62,130 65,127 3,-2 29,-62 56,-134 28,-72 55,-131 61,-131 6,0 46,92 89,205 59,156 84,210 104,225 l 26,19 h -75 c -62,0 -70,-2 -47,-11 15,-5 27,-17 27,-26 0,-21 -93,-272 -101,-272 -9,0 -99,233 -99,257 0,14 10,28 28,37 25,14 21,15 -78,15 -65,0 -97,-3 -85,-9 27,-10 40,-27 60,-76 l 16,-42 -43,-96 c -24,-52 -46,-96 -49,-96 -9,0 -99,252 -99,278 0,14 8,26 23,32 15,6 -5,9 -72,9 l -93,1 z"
       id="path234" />
    <path
       d="m 7177,5473 c 21,-21 48,-81 103,-226 40,-108 78,-196 84,-194 6,2 37,63 70,135 32,72 62,130 65,127 3,-2 29,-62 56,-134 28,-72 55,-131 61,-131 6,0 46,92 89,205 59,156 84,210 104,225 l 26,19 h -75 c -62,0 -70,-2 -47,-11 15,-5 27,-17 27,-26 0,-21 -93,-272 -101,-272 -9,0 -99,233 -99,257 0,14 10,28 28,37 25,14 21,15 -78,15 -65,0 -97,-3 -85,-9 27,-10 40,-27 60,-76 l 16,-42 -43,-96 c -24,-52 -46,-96 -49,-96 -9,0 -99,252 -99,278 0,14 8,26 23,32 15,6 -5,9 -72,9 l -93,1 z"
       id="path236" />
    <path
       d="m 12507,5473 c 21,-21 48,-81 103,-226 40,-108 78,-196 84,-194 6,2 37,63 70,135 32,72 62,130 65,127 3,-2 29,-62 56,-134 28,-72 55,-131 61,-131 6,0 46,92 89,205 59,156 84,210 104,225 l 26,19 h -75 c -62,0 -70,-2 -47,-11 15,-5 27,-17 27,-26 0,-21 -93,-272 -101,-272 -9,0 -99,233 -99,257 0,14 10,28 28,37 25,14 21,15 -78,15 -65,0 -97,-3 -85,-9 27,-10 40,-27 60,-76 l 16,-42 -43,-96 c -24,-52 -46,-96 -49,-96 -9,0 -99,252 -99,278 0,14 8,26 23,32 15,6 -5,9 -72,9 l -93,1 z"
       id="path238" />
    <path
       d="m 20277,5473 c 21,-21 48,-81 103,-226 40,-108 78,-196 84,-194 6,2 37,63 70,135 32,72 62,130 65,127 3,-2 29,-62 56,-134 28,-72 55,-131 61,-131 6,0 46,92 89,205 59,156 84,210 104,225 l 26,19 h -75 c -62,0 -70,-2 -47,-11 15,-5 27,-17 27,-26 0,-21 -93,-272 -101,-272 -9,0 -99,233 -99,257 0,14 10,28 28,37 25,14 21,15 -78,15 -65,0 -97,-3 -85,-9 27,-10 40,-27 60,-76 l 16,-42 -43,-96 c -24,-52 -46,-96 -49,-96 -9,0 -99,252 -99,278 0,14 8,26 23,32 15,6 -5,9 -72,9 l -93,1 z"
       id="path240" />
    <path
       d="m 27227,5473 c 21,-21 48,-81 103,-226 40,-108 78,-196 84,-194 6,2 37,63 70,135 32,72 62,130 65,127 3,-2 29,-62 56,-134 28,-72 55,-131 61,-131 6,0 46,92 89,205 59,156 84,210 104,225 l 26,19 h -75 c -62,0 -70,-2 -47,-11 15,-5 27,-17 27,-26 0,-21 -93,-272 -101,-272 -9,0 -99,233 -99,257 0,14 10,28 28,37 25,14 21,15 -78,15 -65,0 -97,-3 -85,-9 27,-10 40,-27 60,-76 l 16,-42 -43,-96 c -24,-52 -46,-96 -49,-96 -9,0 -99,252 -99,278 0,14 8,26 23,32 15,6 -5,9 -72,9 l -93,1 z"
       id="path242" />
    <path
       d="m 33127,5473 c 21,-21 48,-81 103,-226 40,-108 78,-196 84,-194 6,2 37,63 70,135 32,72 62,130 65,127 3,-2 29,-62 56,-134 28,-72 55,-131 61,-131 6,0 46,92 89,205 59,156 84,210 104,225 l 26,19 h -75 c -62,0 -70,-2 -47,-11 15,-5 27,-17 27,-26 0,-21 -93,-272 -101,-272 -9,0 -99,233 -99,257 0,14 10,28 28,37 25,14 21,15 -78,15 -65,0 -97,-3 -85,-9 27,-10 40,-27 60,-76 l 16,-42 -43,-96 c -24,-52 -46,-96 -49,-96 -9,0 -99,252 -99,278 0,14 8,26 23,32 15,6 -5,9 -72,9 l -93,1 z"
       id="path244" />
    <path
       d="m 31340,5450 c 0,-19 7,-20 235,-20 h 235 v -75 c 0,-68 2,-75 20,-75 19,0 20,7 20,95 v 95 h -255 c -248,0 -255,-1 -255,-20 z"
       id="path246" />
    <path
       d="m 2517,5404 c -25,-25 8,-70 43,-59 32,10 24,59 -10,63 -14,2 -29,0 -33,-4 z"
       id="path248" />
    <path
       d="m 7877,5404 c -25,-25 8,-70 43,-59 32,10 24,59 -10,63 -14,2 -29,0 -33,-4 z"
       id="path250" />
    <path
       d="m 13207,5404 c -25,-25 8,-70 43,-59 32,10 24,59 -10,63 -14,2 -29,0 -33,-4 z"
       id="path252" />
    <path
       d="m 20987,5404 c -25,-25 8,-70 43,-59 32,10 24,59 -10,63 -14,2 -29,0 -33,-4 z"
       id="path254" />
    <path
       d="m 27927,5404 c -25,-25 8,-70 43,-59 32,10 24,59 -10,63 -14,2 -29,0 -33,-4 z"
       id="path256" />
    <path
       d="m 33837,5404 c -25,-25 8,-70 43,-59 32,10 24,59 -10,63 -14,2 -29,0 -33,-4 z"
       id="path258" />
    <path
       d="m 3220,5280 v -40 h 120 120 v 40 40 h -120 -120 z"
       id="path260" />
    <path
       d="m 28630,5280 v -40 h 120 120 v 40 40 h -120 -120 z"
       id="path262" />
    <path
       d="m 34540,5280 v -40 h 120 120 v 40 40 h -120 -120 z"
       id="path264" />
    <path
       d="m 2460,5272 c 0,-4 14,-13 30,-19 l 30,-11 -1,-154 c -1,-84 -4,-164 -8,-178 -4,-15 -20,-31 -38,-40 -61,-28 -32,-53 35,-29 60,21 67,43 70,252 l 4,187 h -61 c -34,0 -61,-4 -61,-8 z"
       id="path266" />
    <path
       d="m 7820,5272 c 0,-4 14,-13 30,-19 l 30,-11 -1,-154 c -1,-84 -4,-164 -8,-178 -4,-15 -20,-31 -38,-40 -61,-28 -32,-53 35,-29 60,21 67,43 70,252 l 4,187 h -61 c -34,0 -61,-4 -61,-8 z"
       id="path268" />
    <path
       d="m 13150,5272 c 0,-4 14,-13 30,-19 l 30,-11 -1,-154 c -1,-84 -4,-164 -8,-178 -4,-15 -20,-31 -38,-40 -61,-28 -32,-53 35,-29 60,21 67,43 70,252 l 4,187 h -61 c -34,0 -61,-4 -61,-8 z"
       id="path270" />
    <path
       d="m 20930,5272 c 0,-4 14,-13 30,-19 l 30,-11 -1,-154 c -1,-84 -4,-164 -8,-178 -4,-15 -20,-31 -38,-40 -61,-28 -32,-53 35,-29 60,21 67,43 70,252 l 4,187 h -61 c -34,0 -61,-4 -61,-8 z"
       id="path272" />
    <path
       d="m 27870,5272 c 0,-4 14,-13 30,-19 l 30,-11 -1,-154 c -1,-84 -4,-164 -8,-178 -4,-15 -20,-31 -38,-40 -61,-28 -32,-53 35,-29 60,21 67,43 70,252 l 4,187 h -61 c -34,0 -61,-4 -61,-8 z"
       id="path274" />
    <path
       d="m 33780,5272 c 0,-4 14,-13 30,-19 l 30,-11 -1,-154 c -1,-84 -4,-164 -8,-178 -4,-15 -20,-31 -38,-40 -61,-28 -32,-53 35,-29 60,21 67,43 70,252 l 4,187 h -61 c -34,0 -61,-4 -61,-8 z"
       id="path276" />
    <path
       d="m 1320,5140 c -41,-41 -8,-98 49,-85 30,6 31,5 31,-25 0,-32 -38,-79 -85,-106 -11,-7 -17,-15 -13,-19 12,-12 98,45 119,78 29,48 26,117 -7,151 -32,31 -67,33 -94,6 z"
       id="path278" />
    <path
       d="m 2730,5140 c -41,-41 -8,-98 49,-85 30,6 31,5 31,-25 0,-32 -38,-79 -85,-106 -11,-7 -17,-15 -13,-19 12,-12 98,45 119,78 29,48 26,117 -7,151 -32,31 -67,33 -94,6 z"
       id="path280" />
    <path
       d="m 6680,5140 c -41,-41 -8,-98 49,-85 30,6 31,5 31,-25 0,-32 -38,-79 -85,-106 -11,-7 -17,-15 -13,-19 12,-12 98,45 119,78 29,48 26,117 -7,151 -32,31 -67,33 -94,6 z"
       id="path282" />
    <path
       d="m 8090,5140 c -41,-41 -8,-98 49,-85 30,6 31,5 31,-25 0,-32 -38,-79 -85,-106 -11,-7 -17,-15 -13,-19 12,-12 98,45 119,78 29,48 26,117 -7,151 -32,31 -67,33 -94,6 z"
       id="path284" />
    <path
       d="m 12010,5140 c -41,-41 -8,-98 49,-85 30,6 31,5 31,-25 0,-32 -38,-79 -85,-106 -11,-7 -17,-15 -13,-19 12,-12 98,45 119,78 29,48 26,117 -7,151 -32,31 -67,33 -94,6 z"
       id="path286" />
    <path
       d="m 13420,5140 c -41,-41 -8,-98 49,-85 30,6 31,5 31,-25 0,-32 -38,-79 -85,-106 -11,-7 -17,-15 -13,-19 12,-12 98,45 119,78 29,48 26,117 -7,151 -32,31 -67,33 -94,6 z"
       id="path288" />
    <path
       d="m 19790,5140 c -41,-41 -8,-98 49,-85 30,6 31,5 31,-25 0,-32 -38,-79 -85,-106 -11,-7 -17,-15 -13,-19 12,-12 98,45 119,78 29,48 26,117 -7,151 -32,31 -67,33 -94,6 z"
       id="path290" />
    <path
       d="m 21200,5140 c -41,-41 -8,-98 49,-85 30,6 31,5 31,-25 0,-32 -38,-79 -85,-106 -11,-7 -17,-15 -13,-19 12,-12 98,45 119,78 29,48 26,117 -7,151 -32,31 -67,33 -94,6 z"
       id="path292" />
    <path
       d="m 26730,5140 c -41,-41 -8,-98 49,-85 30,6 31,5 31,-25 0,-32 -38,-79 -85,-106 -11,-7 -17,-15 -13,-19 12,-12 98,45 119,78 29,48 26,117 -7,151 -32,31 -67,33 -94,6 z"
       id="path294" />
    <path
       d="m 28140,5140 c -41,-41 -8,-98 49,-85 30,6 31,5 31,-25 0,-32 -38,-79 -85,-106 -11,-7 -17,-15 -13,-19 12,-12 98,45 119,78 29,48 26,117 -7,151 -32,31 -67,33 -94,6 z"
       id="path296" />
    <path
       d="m 32640,5140 c -41,-41 -8,-98 49,-85 30,6 31,5 31,-25 0,-32 -38,-79 -85,-106 -11,-7 -17,-15 -13,-19 12,-12 98,45 119,78 29,48 26,117 -7,151 -32,31 -67,33 -94,6 z"
       id="path298" />
    <path
       d="m 34050,5140 c -41,-41 -8,-98 49,-85 30,6 31,5 31,-25 0,-32 -38,-79 -85,-106 -11,-7 -17,-15 -13,-19 12,-12 98,45 119,78 29,48 26,117 -7,151 -32,31 -67,33 -94,6 z"
       id="path300" />
    <path
       d="m 12990,3484 v -815 l 33,3 32,3 3,813 2,812 h -35 -35 z"
       id="path302" />
    <path
       d="m 20762,3488 3,-813 33,-3 32,-3 v 815 816 h -35 -35 z"
       id="path304" />
    <path
       d="m 12751,2833 c 12,-35 265,-592 269,-593 4,0 245,528 266,585 5,11 -44,-37 -107,-107 l -114,-128 -3,35 c -3,33 -6,35 -38,35 -32,0 -34,-2 -34,-36 0,-20 -4,-34 -9,-32 -5,2 -57,57 -116,123 -128,143 -119,133 -114,118 z"
       id="path306" />
    <path
       d="m 20955,2715 c -61,-68 -113,-124 -117,-125 -5,0 -8,16 -8,35 0,33 -2,35 -35,35 -34,0 -35,-1 -35,-37 v -38 l -68,75 c -37,41 -88,98 -115,125 l -48,50 24,-55 c 110,-253 243,-538 249,-532 9,9 269,584 265,588 -1,1 -52,-53 -112,-121 z"
       id="path308" />
    <path
       d="m 11805,1681 c -95,-25 -191,-114 -221,-204 -10,-29 -17,-82 -17,-122 0,-40 7,-93 17,-122 22,-66 93,-146 159,-179 27,-14 73,-44 100,-66 90,-70 249,-137 330,-138 35,0 15,16 -42,32 -59,18 -133,76 -160,126 -10,19 -7,23 33,41 58,25 125,93 157,156 21,43 24,64 24,155 0,90 -3,111 -23,148 -58,110 -152,173 -262,178 -36,2 -78,0 -95,-5 z m 155,-43 c 81,-41 121,-134 121,-287 1,-153 -39,-243 -126,-282 -79,-37 -159,-19 -214,47 -76,93 -92,315 -31,433 52,102 153,138 250,89 z"
       id="path310" />
    <path
       d="m 19735,1681 c -95,-25 -191,-114 -221,-204 -10,-29 -17,-82 -17,-122 0,-40 7,-93 17,-122 22,-66 93,-146 159,-179 27,-14 73,-44 100,-66 90,-70 249,-137 330,-138 35,0 15,16 -42,32 -59,18 -133,76 -160,126 -10,19 -7,23 33,41 58,25 125,93 157,156 21,43 24,64 24,155 0,90 -3,111 -23,148 -58,110 -152,173 -262,178 -36,2 -78,0 -95,-5 z m 155,-43 c 81,-41 121,-134 121,-287 1,-153 -39,-243 -126,-282 -79,-37 -159,-19 -214,47 -76,93 -92,315 -31,433 52,102 153,138 250,89 z"
       id="path312" />
    <path
       d="m 22320,1485 v -115 h -115 c -108,0 -115,-1 -115,-20 0,-19 7,-20 115,-20 h 115 v -115 c 0,-108 1,-115 20,-115 19,0 20,7 20,115 v 115 h 120 c 113,0 120,1 120,20 0,19 -7,20 -120,20 h -120 v 115 c 0,108 -1,115 -20,115 -19,0 -20,-7 -20,-115 z"
       id="path314" />
    <path
       d="m 12767,1443 c 21,-21 48,-81 103,-226 40,-108 78,-196 84,-194 6,2 37,63 70,135 32,72 62,130 65,127 3,-2 29,-62 56,-134 28,-72 55,-131 61,-131 6,0 46,92 89,205 59,156 84,210 104,225 l 26,19 h -75 c -62,0 -70,-2 -47,-11 15,-5 27,-17 27,-26 0,-21 -93,-272 -101,-272 -9,0 -99,233 -99,257 0,14 10,28 28,37 25,14 21,15 -78,15 -65,0 -97,-3 -85,-9 27,-10 40,-27 60,-76 l 16,-42 -43,-96 c -24,-52 -46,-96 -49,-96 -9,0 -99,252 -99,278 0,14 8,26 23,32 15,6 -5,9 -72,9 l -93,1 z"
       id="path316" />
    <path
       d="m 20697,1443 c 21,-21 48,-81 103,-226 40,-108 78,-196 84,-194 6,2 37,63 70,135 32,72 62,130 65,127 3,-2 29,-62 56,-134 28,-72 55,-131 61,-131 6,0 46,92 89,205 59,156 84,210 104,225 l 26,19 h -75 c -62,0 -70,-2 -47,-11 15,-5 27,-17 27,-26 0,-21 -93,-272 -101,-272 -9,0 -99,233 -99,257 0,14 10,28 28,37 25,14 21,15 -78,15 -65,0 -97,-3 -85,-9 27,-10 40,-27 60,-76 l 16,-42 -43,-96 c -24,-52 -46,-96 -49,-96 -9,0 -99,252 -99,278 0,14 8,26 23,32 15,6 -5,9 -72,9 l -93,1 z"
       id="path318" />
    <path
       d="m 18910,1420 c 0,-19 7,-20 235,-20 h 235 v -75 c 0,-68 2,-75 20,-75 19,0 20,7 20,95 v 95 h -255 c -248,0 -255,-1 -255,-20 z"
       id="path320" />
    <path
       d="m 13467,1374 c -25,-25 8,-70 43,-59 32,10 24,59 -10,63 -14,2 -29,0 -33,-4 z"
       id="path322" />
    <path
       d="m 21407,1374 c -25,-25 8,-70 43,-59 32,10 24,59 -10,63 -14,2 -29,0 -33,-4 z"
       id="path324" />
    <path
       d="m 14170,1250 v -40 h 120 120 v 40 40 h -120 -120 z"
       id="path326" />
    <path
       d="m 13410,1242 c 0,-4 14,-13 30,-19 l 30,-11 -1,-154 c -1,-84 -4,-164 -8,-178 -4,-15 -20,-31 -38,-40 -61,-28 -32,-53 35,-29 60,21 67,43 70,252 l 4,187 h -61 c -34,0 -61,-4 -61,-8 z"
       id="path328" />
    <path
       d="m 21350,1242 c 0,-4 14,-13 30,-19 l 30,-11 -1,-154 c -1,-84 -4,-164 -8,-178 -4,-15 -20,-31 -38,-40 -61,-28 -32,-53 35,-29 60,21 67,43 70,252 l 4,187 h -61 c -34,0 -61,-4 -61,-8 z"
       id="path330" />
    <path
       d="m 12270,1110 c -41,-41 -8,-98 49,-85 30,6 31,5 31,-25 0,-32 -38,-79 -85,-106 -11,-7 -17,-15 -13,-19 12,-12 98,45 119,78 29,48 26,117 -7,151 -32,31 -67,33 -94,6 z"
       id="path332" />
    <path
       d="m 13680,1110 c -41,-41 -8,-98 49,-85 30,6 31,5 31,-25 0,-32 -38,-79 -85,-106 -11,-7 -17,-15 -13,-19 12,-12 98,45 119,78 29,48 26,117 -7,151 -32,31 -67,33 -94,6 z"
       id="path334" />
    <path
       d="m 20210,1110 c -41,-41 -8,-98 49,-85 30,6 31,5 31,-25 0,-32 -38,-79 -85,-106 -11,-7 -17,-15 -13,-19 12,-12 98,45 119,78 29,48 26,117 -7,151 -32,31 -67,33 -94,6 z"
       id="path336" />
    <path
       d="m 21620,1110 c -41,-41 -8,-98 49,-85 30,6 31,5 31,-25 0,-32 -38,-79 -85,-106 -11,-7 -17,-15 -13,-19 12,-12 98,45 119,78 29,48 26,117 -7,151 -32,31 -67,33 -94,6 z"
       id="path338" />
  </g>
</svg>
