<?xml version="1.0" encoding="UTF-8" standalone="no"?>
<svg
   version="1.0"
   width="3705.7646pt"
   height="1444.7656pt"
   viewBox="0 0 3705.7646 1444.7656"
   preserveAspectRatio="xMidYMid meet"
   id="svg404"
   xmlns="http://www.w3.org/2000/svg"
   xmlns:svg="http://www.w3.org/2000/svg">
  <defs
     id="defs408" />
  <metadata
     id="metadata2">
Created by potrace 1.16, written by Peter Selinger 2001-2019
</metadata>
  <g
     transform="matrix(0.1,0,0,-0.1,-87.235397,1524.9011)"
     fill="#000000"
     stroke="none"
     id="g402">
    <path
       d="m 21610,15228 c -56,-21 -96,-47 -52,-33 50,15 52,5 52,-299 0,-154 -4,-286 -8,-293 -4,-7 -19,-16 -32,-22 -19,-7 3,-10 85,-9 61,0 101,3 90,5 -11,3 -28,12 -37,21 -16,14 -18,43 -18,334 0,248 -3,318 -12,317 -7,0 -38,-9 -68,-21 z"
       id="path4" />
    <path
       d="m 22813,15224 c -15,-24 -15,-29 -2,-53 18,-32 45,-38 70,-15 24,22 24,56 1,77 -26,24 -49,21 -69,-9 z"
       id="path6" />
    <path
       d="m 30220,15228 c -56,-21 -96,-47 -52,-33 50,15 52,5 52,-299 0,-154 -4,-286 -8,-293 -4,-7 -19,-16 -32,-22 -19,-7 3,-10 85,-9 61,0 101,3 90,5 -11,3 -28,12 -37,21 -16,14 -18,43 -18,334 0,248 -3,318 -12,317 -7,0 -38,-9 -68,-21 z"
       id="path8" />
    <path
       d="m 31423,15224 c -15,-24 -15,-29 -2,-53 18,-32 45,-38 70,-15 24,22 24,56 1,77 -26,24 -49,21 -69,-9 z"
       id="path10" />
    <path
       d="m 18169,15212 c -92,-59 -173,-182 -198,-300 -31,-150 10,-320 105,-430 37,-44 134,-116 143,-106 3,2 -18,28 -46,57 -66,67 -89,116 -108,223 -18,106 -19,205 -1,305 19,106 48,166 108,222 28,26 49,50 46,52 -2,3 -24,-8 -49,-23 z"
       id="path12" />
    <path
       d="m 23770,15235 c 0,-3 22,-28 49,-54 27,-26 58,-65 69,-87 31,-61 52,-182 52,-296 0,-183 -40,-301 -125,-375 -25,-23 -45,-44 -45,-47 0,-17 85,43 130,90 87,92 130,203 130,340 0,132 -44,247 -130,338 -44,47 -130,107 -130,91 z"
       id="path14" />
    <path
       d="m 26779,15212 c -92,-59 -173,-182 -198,-300 -31,-150 10,-320 105,-430 37,-44 134,-116 143,-106 3,2 -18,28 -46,57 -66,67 -89,116 -108,223 -18,106 -19,205 -1,305 19,106 48,166 108,222 28,26 49,50 46,52 -2,3 -24,-8 -49,-23 z"
       id="path16" />
    <path
       d="m 32380,15235 c 0,-3 22,-28 49,-54 27,-26 58,-65 69,-87 31,-61 52,-182 52,-296 0,-183 -40,-301 -125,-375 -25,-23 -45,-44 -45,-47 0,-17 85,43 130,90 87,92 130,203 130,340 0,132 -44,247 -130,338 -44,47 -130,107 -130,91 z"
       id="path18" />
    <path
       d="m 19900,15219 c -35,-14 -69,-48 -91,-91 -21,-41 -10,-52 15,-17 70,101 205,65 206,-55 0,-67 -28,-108 -93,-140 -41,-20 -47,-25 -27,-26 14,0 48,-11 76,-24 59,-27 84,-69 84,-138 -1,-52 -16,-83 -56,-109 -37,-24 -74,-24 -134,2 -54,23 -78,22 -94,-3 -8,-14 -7,-22 7,-35 14,-14 35,-18 100,-18 102,0 166,28 212,94 25,36 30,53 33,114 4,84 -15,124 -74,159 l -35,21 24,26 c 58,61 72,132 38,187 -33,54 -124,80 -191,53 z"
       id="path20" />
    <path
       d="m 20947,15016 c -111,-162 -147,-222 -147,-245 v -31 h 135 135 v -85 -85 h 40 40 v 85 85 h 40 c 38,0 40,2 40,30 0,28 -2,30 -40,30 h -40 v 215 215 h -28 c -26,0 -43,-20 -175,-214 z m 123,-56 v -160 h -116 -115 l 24,33 c 13,17 63,89 111,160 48,70 89,127 91,127 3,0 5,-72 5,-160 z"
       id="path22" />
    <path
       d="m 28510,15219 c -35,-14 -69,-48 -91,-91 -21,-41 -10,-52 15,-17 70,101 205,65 206,-55 0,-67 -28,-108 -93,-140 -41,-20 -47,-25 -27,-26 14,0 48,-11 76,-24 59,-27 84,-69 84,-138 -1,-52 -16,-83 -56,-109 -37,-24 -74,-24 -134,2 -54,23 -78,22 -94,-3 -8,-14 -7,-22 7,-35 14,-14 35,-18 100,-18 102,0 166,28 212,94 25,36 30,53 33,114 4,84 -15,124 -74,159 l -35,21 24,26 c 58,61 72,132 38,187 -33,54 -124,80 -191,53 z"
       id="path24" />
    <path
       d="m 29557,15016 c -111,-162 -147,-222 -147,-245 v -31 h 135 135 v -85 -85 h 40 40 v 85 85 h 40 c 38,0 40,2 40,30 0,28 -2,30 -40,30 h -40 v 215 215 h -28 c -26,0 -43,-20 -175,-214 z m 123,-56 v -160 h -116 -115 l 24,33 c 13,17 63,89 111,160 48,70 89,127 91,127 3,0 5,-72 5,-160 z"
       id="path26" />
    <path
       d="m 19465,15213 c 64,-14 74,-23 80,-76 11,-90 2,-525 -12,-538 -7,-7 -29,-15 -50,-19 -24,-5 17,-8 107,-8 89,0 132,3 113,8 -65,15 -63,5 -63,315 0,310 -2,300 63,315 19,5 -24,8 -113,8 -80,0 -136,-2 -125,-5 z"
       id="path28" />
    <path
       d="m 20505,15213 c 64,-14 74,-23 80,-76 11,-90 2,-525 -12,-538 -7,-7 -29,-15 -50,-19 -24,-5 17,-8 107,-8 89,0 132,3 113,8 -65,15 -63,5 -63,315 0,310 -2,300 63,315 19,5 -24,8 -113,8 -80,0 -136,-2 -125,-5 z"
       id="path30" />
    <path
       d="m 28075,15213 c 64,-14 74,-23 80,-76 11,-90 2,-525 -12,-538 -7,-7 -29,-15 -50,-19 -24,-5 17,-8 107,-8 89,0 132,3 113,8 -65,15 -63,5 -63,315 0,310 -2,300 63,315 19,5 -24,8 -113,8 -80,0 -136,-2 -125,-5 z"
       id="path32" />
    <path
       d="m 29115,15213 c 64,-14 74,-23 80,-76 11,-90 2,-525 -12,-538 -7,-7 -29,-15 -50,-19 -24,-5 17,-8 107,-8 89,0 132,3 113,8 -65,15 -63,5 -63,315 0,310 -2,300 63,315 19,5 -24,8 -113,8 -80,0 -136,-2 -125,-5 z"
       id="path34" />
    <path
       d="m 18395,15001 c -92,-42 -148,-157 -127,-261 15,-71 56,-129 112,-158 62,-32 145,-26 203,15 75,52 114,173 88,268 -32,120 -167,186 -276,136 z m 129,-41 c 44,-39 66,-104 66,-197 0,-82 -16,-132 -51,-157 -55,-38 -120,-9 -157,72 -35,74 -39,208 -8,259 37,60 97,69 150,23 z"
       id="path36" />
    <path
       d="m 18775,14998 c -58,-22 -85,-43 -43,-33 41,10 48,-15 48,-187 0,-165 -7,-192 -53,-201 -12,-2 30,-5 93,-5 101,-1 111,1 80,11 l -35,12 -3,157 -2,156 30,22 c 17,12 48,24 69,27 34,5 41,2 57,-23 16,-23 19,-52 22,-164 3,-148 -5,-179 -48,-191 -14,-4 25,-7 85,-7 61,1 100,3 88,5 -43,8 -48,28 -51,192 -3,167 -10,200 -50,231 -44,36 -112,19 -179,-43 l -23,-20 v 41 c 0,49 -7,51 -85,20 z"
       id="path38" />
    <path
       d="m 21935,15001 c -92,-42 -148,-157 -127,-261 15,-71 56,-129 112,-158 62,-32 145,-26 203,15 75,52 114,173 88,268 -32,120 -167,186 -276,136 z m 129,-41 c 44,-39 66,-104 66,-197 0,-82 -16,-132 -51,-157 -55,-38 -120,-9 -157,72 -35,74 -39,208 -8,259 37,60 97,69 150,23 z"
       id="path40" />
    <path
       d="m 22410,15009 c -41,-16 -90,-70 -101,-111 -13,-51 2,-106 41,-143 l 29,-28 -34,-39 c -41,-44 -43,-63 -14,-94 l 22,-23 -42,-47 c -50,-57 -52,-85 -8,-118 131,-100 397,-18 397,122 0,78 -37,99 -194,108 -129,8 -148,17 -116,56 17,22 25,25 68,20 125,-12 217,94 179,207 l -14,40 41,3 c 61,4 45,22 -26,29 -35,3 -79,11 -98,18 -42,13 -96,13 -130,0 z m 114,-40 c 33,-39 39,-65 34,-141 -4,-48 -9,-65 -27,-79 -45,-37 -96,-18 -130,48 -26,51 -6,181 31,196 35,14 67,6 92,-24 z m 100,-418 c 42,-10 54,-33 33,-65 -33,-50 -63,-61 -163,-61 -78,0 -97,3 -121,21 -35,26 -40,62 -14,96 21,26 22,26 128,21 60,-3 121,-8 137,-12 z"
       id="path42" />
    <path
       d="m 22810,14998 c -56,-21 -96,-47 -52,-33 47,14 52,-4 52,-184 0,-91 -4,-171 -8,-178 -4,-7 -19,-16 -32,-22 -19,-7 3,-10 85,-10 78,1 102,3 81,9 -16,5 -33,15 -37,22 -5,7 -9,104 -9,216 0,155 -3,202 -12,201 -7,0 -38,-9 -68,-21 z"
       id="path44" />
    <path
       d="m 23148,15011 c -15,-5 -41,-19 -57,-30 -94,-67 -116,-239 -44,-343 29,-42 94,-78 142,-78 71,0 147,66 170,148 14,47 1,46 -30,-2 -83,-132 -249,-49 -249,124 0,89 49,160 111,160 33,0 69,-31 69,-59 0,-46 69,-70 90,-32 26,50 -41,113 -124,117 -28,2 -63,-1 -78,-5 z"
       id="path46" />
    <path
       d="m 23504,15004 c -39,-19 -64,-62 -64,-111 0,-54 19,-75 107,-123 89,-47 113,-70 113,-111 0,-96 -147,-88 -188,11 -10,22 -20,40 -24,40 -5,0 -8,-34 -8,-75 0,-41 4,-75 9,-75 5,0 11,5 13,12 3,9 15,9 50,0 67,-17 103,-15 148,8 45,23 70,63 70,112 0,57 -29,89 -130,143 -74,40 -96,56 -103,79 -9,26 -6,33 17,53 53,45 135,16 157,-57 7,-22 16,-40 21,-40 4,0 8,34 8,75 0,41 -4,75 -9,75 -5,0 -11,-5 -13,-12 -4,-10 -13,-10 -45,0 -53,16 -91,15 -129,-4 z"
       id="path48" />
    <path
       d="m 27005,15001 c -92,-42 -148,-157 -127,-261 15,-71 56,-129 112,-158 62,-32 145,-26 203,15 75,52 114,173 88,268 -32,120 -167,186 -276,136 z m 129,-41 c 44,-39 66,-104 66,-197 0,-82 -16,-132 -51,-157 -55,-38 -120,-9 -157,72 -35,74 -39,208 -8,259 37,60 97,69 150,23 z"
       id="path50" />
    <path
       d="m 27385,14998 c -58,-22 -85,-43 -43,-33 41,10 48,-15 48,-187 0,-165 -7,-192 -53,-201 -12,-2 30,-5 93,-5 101,-1 111,1 80,11 l -35,12 -3,157 -2,156 30,22 c 17,12 48,24 69,27 34,5 41,2 57,-23 16,-23 19,-52 22,-164 3,-148 -5,-179 -48,-191 -14,-4 25,-7 85,-7 61,1 100,3 88,5 -43,8 -48,28 -51,192 -3,167 -10,200 -50,231 -44,36 -112,19 -179,-43 l -23,-20 v 41 c 0,49 -7,51 -85,20 z"
       id="path52" />
    <path
       d="m 30545,15001 c -92,-42 -148,-157 -127,-261 15,-71 56,-129 112,-158 62,-32 145,-26 203,15 75,52 114,173 88,268 -32,120 -167,186 -276,136 z m 129,-41 c 44,-39 66,-104 66,-197 0,-82 -16,-132 -51,-157 -55,-38 -120,-9 -157,72 -35,74 -39,208 -8,259 37,60 97,69 150,23 z"
       id="path54" />
    <path
       d="m 31020,15009 c -41,-16 -90,-70 -101,-111 -13,-51 2,-106 41,-143 l 29,-28 -34,-39 c -41,-44 -43,-63 -14,-94 l 22,-23 -42,-47 c -50,-57 -52,-85 -8,-118 131,-100 397,-18 397,122 0,78 -37,99 -194,108 -129,8 -148,17 -116,56 17,22 25,25 68,20 125,-12 217,94 179,207 l -14,40 41,3 c 61,4 45,22 -26,29 -35,3 -79,11 -98,18 -42,13 -96,13 -130,0 z m 114,-40 c 33,-39 39,-65 34,-141 -4,-48 -9,-65 -27,-79 -45,-37 -96,-18 -130,48 -26,51 -6,181 31,196 35,14 67,6 92,-24 z m 100,-418 c 42,-10 54,-33 33,-65 -33,-50 -63,-61 -163,-61 -78,0 -97,3 -121,21 -35,26 -40,62 -14,96 21,26 22,26 128,21 60,-3 121,-8 137,-12 z"
       id="path56" />
    <path
       d="m 31420,14998 c -56,-21 -96,-47 -52,-33 47,14 52,-4 52,-184 0,-91 -4,-171 -8,-178 -4,-7 -19,-16 -32,-22 -19,-7 3,-10 85,-10 78,1 102,3 81,9 -16,5 -33,15 -37,22 -5,7 -9,104 -9,216 0,155 -3,202 -12,201 -7,0 -38,-9 -68,-21 z"
       id="path58" />
    <path
       d="m 31758,15011 c -15,-5 -41,-19 -57,-30 -94,-67 -116,-239 -44,-343 29,-42 94,-78 142,-78 71,0 147,66 170,148 14,47 1,46 -30,-2 -83,-132 -249,-49 -249,124 0,89 49,160 111,160 33,0 69,-31 69,-59 0,-46 69,-70 90,-32 26,50 -41,113 -124,117 -28,2 -63,-1 -78,-5 z"
       id="path60" />
    <path
       d="m 32114,15004 c -39,-19 -64,-62 -64,-111 0,-54 19,-75 107,-123 89,-47 113,-70 113,-111 0,-96 -147,-88 -188,11 -10,22 -20,40 -24,40 -5,0 -8,-34 -8,-75 0,-41 4,-75 9,-75 5,0 11,5 13,12 3,9 15,9 50,0 67,-17 103,-15 148,8 45,23 70,63 70,112 0,57 -29,89 -130,143 -74,40 -96,56 -103,79 -9,26 -6,33 17,53 53,45 135,16 157,-57 7,-22 16,-40 21,-40 4,0 8,34 8,75 0,41 -4,75 -9,75 -5,0 -11,-5 -13,-12 -4,-10 -13,-10 -45,0 -53,16 -91,15 -129,-4 z"
       id="path62" />
    <path
       d="m 3605,14701 c -95,-25 -191,-114 -221,-204 -10,-29 -17,-82 -17,-122 0,-40 7,-93 17,-122 22,-66 93,-146 159,-179 27,-14 73,-44 100,-66 90,-70 249,-137 330,-138 35,0 15,16 -42,32 -59,18 -133,76 -160,126 -10,19 -7,23 33,41 58,25 125,93 157,156 21,43 24,64 24,155 0,90 -3,111 -23,148 -58,110 -152,173 -262,178 -36,2 -78,0 -95,-5 z m 155,-43 c 81,-41 121,-134 121,-287 1,-153 -39,-243 -126,-282 -79,-37 -159,-19 -214,47 -76,93 -92,315 -31,433 52,102 153,138 250,89 z"
       id="path64" />
    <path
       d="m 12845,14701 c -95,-25 -191,-114 -221,-204 -10,-29 -17,-82 -17,-122 0,-40 7,-93 17,-122 22,-66 93,-146 159,-179 27,-14 73,-44 100,-66 90,-70 249,-137 330,-138 35,0 15,16 -42,32 -59,18 -133,76 -160,126 -10,19 -7,23 33,41 58,25 125,93 157,156 21,43 24,64 24,155 0,90 -3,111 -23,148 -58,110 -152,173 -262,178 -36,2 -78,0 -95,-5 z m 155,-43 c 81,-41 121,-134 121,-287 1,-153 -39,-243 -126,-282 -79,-37 -159,-19 -214,47 -76,93 -92,315 -31,433 52,102 153,138 250,89 z"
       id="path66" />
    <path
       d="m 1398,14691 c 19,-5 39,-14 45,-20 17,-17 17,-575 0,-592 -6,-6 -26,-15 -45,-19 -21,-5 17,-8 107,-8 93,0 129,3 105,8 -54,13 -60,29 -60,166 v 123 l 68,-6 c 86,-7 143,9 186,52 57,57 66,160 18,224 -10,14 -39,37 -63,51 -42,24 -53,25 -219,27 -111,1 -163,-1 -142,-6 z m 265,-32 c 44,-23 66,-53 78,-105 27,-120 -56,-208 -168,-178 -22,6 -23,10 -23,144 0,101 3,140 13,143 23,10 78,7 100,-4 z"
       id="path68" />
    <path
       d="m 10638,14691 c 19,-5 39,-14 45,-20 9,-9 12,-94 12,-296 0,-202 -3,-287 -12,-296 -6,-6 -26,-15 -45,-19 -21,-5 17,-8 107,-8 93,0 129,3 105,8 -54,13 -60,29 -60,166 v 123 l 68,-6 c 86,-7 143,9 186,52 57,57 66,160 18,224 -10,14 -39,37 -63,51 -42,24 -53,25 -219,27 -111,1 -163,-1 -142,-6 z m 265,-32 c 44,-23 66,-53 78,-105 27,-120 -56,-208 -168,-178 -22,6 -23,10 -23,144 0,101 3,140 13,143 23,10 78,7 100,-4 z"
       id="path70" />
    <path
       d="m 35148,14691 c 19,-5 39,-14 45,-20 9,-9 12,-94 12,-296 0,-202 -3,-287 -12,-296 -6,-6 -26,-15 -45,-19 -21,-5 17,-8 107,-8 93,0 129,3 105,8 -54,13 -60,29 -60,166 v 123 l 68,-6 c 86,-7 143,9 186,52 57,57 66,160 18,224 -10,14 -39,37 -63,51 -42,24 -53,25 -219,27 -111,1 -163,-1 -142,-6 z m 265,-32 c 44,-23 66,-53 78,-105 27,-120 -56,-208 -168,-178 -22,6 -23,10 -23,144 0,101 3,140 13,143 23,10 78,7 100,-4 z"
       id="path72" />
    <path
       d="m 20280,14650 c -41,-41 -8,-98 49,-85 30,6 31,5 31,-25 0,-32 -38,-79 -85,-106 -11,-7 -17,-15 -13,-19 12,-12 98,45 119,78 29,48 26,117 -7,151 -32,31 -67,33 -94,6 z"
       id="path74" />
    <path
       d="m 28890,14650 c -41,-41 -8,-98 49,-85 30,6 31,5 31,-25 0,-32 -38,-79 -85,-106 -11,-7 -17,-15 -13,-19 12,-12 98,45 119,78 29,48 26,117 -7,151 -32,31 -67,33 -94,6 z"
       id="path76" />
    <path
       d="m 6140,14505 v -115 h -115 c -108,0 -115,-1 -115,-20 0,-19 7,-20 115,-20 h 115 v -115 c 0,-108 1,-115 20,-115 19,0 20,7 20,115 v 115 h 120 c 113,0 120,1 120,20 0,19 -7,20 -120,20 h -120 v 115 c 0,108 -1,115 -20,115 -19,0 -20,-7 -20,-115 z"
       id="path78" />
    <path
       d="m 37650,14505 v -115 h -115 c -108,0 -115,-1 -115,-20 0,-19 7,-20 115,-20 h 115 v -115 c 0,-108 1,-115 20,-115 19,0 20,7 20,115 v 115 h 120 c 113,0 120,1 120,20 0,19 -7,20 -120,20 h -120 v 115 c 0,108 -1,115 -20,115 -19,0 -20,-7 -20,-115 z"
       id="path80" />
    <path
       d="m 2310,14502 v -30 l 178,-4 c 149,-2 182,-6 205,-21 44,-28 61,-73 61,-157 0,-84 -17,-129 -61,-157 -23,-15 -56,-19 -205,-21 l -178,-4 v -30 -30 l 188,4 c 212,3 233,10 284,83 55,80 55,232 1,309 -52,74 -73,81 -285,84 l -188,4 z"
       id="path82" />
    <path
       d="m 11550,14502 v -30 l 178,-4 c 149,-2 182,-6 205,-21 44,-28 61,-73 61,-157 0,-84 -17,-129 -61,-157 -23,-15 -56,-19 -205,-21 l -178,-4 v -30 -30 l 188,4 c 212,3 233,10 284,83 55,80 55,232 1,309 -52,74 -73,81 -285,84 l -188,4 z"
       id="path84" />
    <path
       d="m 4567,14463 c 21,-21 48,-81 103,-226 40,-108 78,-196 84,-194 6,2 37,63 70,135 32,72 62,130 65,127 3,-2 29,-62 56,-134 28,-72 55,-131 61,-131 6,0 46,92 89,205 59,156 84,210 104,225 l 26,19 h -75 c -62,0 -70,-2 -47,-11 15,-5 27,-17 27,-26 0,-21 -93,-272 -101,-272 -9,0 -99,233 -99,257 0,14 10,28 28,37 25,14 21,15 -78,15 -65,0 -97,-3 -85,-9 27,-10 40,-27 60,-76 l 16,-42 -43,-96 c -24,-52 -46,-96 -49,-96 -9,0 -99,252 -99,278 0,14 8,26 23,32 15,6 -5,9 -72,9 l -93,1 z"
       id="path86" />
    <path
       d="m 13807,14463 c 21,-21 48,-81 103,-226 40,-108 78,-196 84,-194 6,2 37,63 70,135 32,72 62,130 65,127 3,-2 29,-62 56,-134 28,-72 55,-131 61,-131 6,0 46,92 89,205 59,156 84,210 104,225 l 26,19 h -75 c -62,0 -70,-2 -47,-11 15,-5 27,-17 27,-26 0,-21 -93,-272 -101,-272 -9,0 -99,233 -99,257 0,14 10,28 28,37 25,14 21,15 -78,15 -65,0 -97,-3 -85,-9 27,-10 40,-27 60,-76 l 16,-42 -43,-96 c -24,-52 -46,-96 -49,-96 -9,0 -99,252 -99,278 0,14 8,26 23,32 15,6 -5,9 -72,9 l -93,1 z"
       id="path88" />
    <path
       d="m 36077,14463 c 21,-21 48,-81 103,-226 40,-108 78,-196 84,-194 6,2 37,63 70,135 32,72 62,130 65,127 3,-2 29,-62 56,-134 28,-72 55,-131 61,-131 6,0 46,92 89,205 59,156 84,210 104,225 l 26,19 h -75 c -62,0 -70,-2 -47,-11 15,-5 27,-17 27,-26 0,-21 -93,-272 -101,-272 -9,0 -99,233 -99,257 0,14 10,28 28,37 25,14 21,15 -78,15 -65,0 -97,-3 -85,-9 27,-10 40,-27 60,-76 l 16,-42 -43,-96 c -24,-52 -46,-96 -49,-96 -9,0 -99,252 -99,278 0,14 8,26 23,32 15,6 -5,9 -72,9 l -93,1 z"
       id="path90" />
    <path
       d="m 5264,14335 c -8,-21 2,-45 19,-45 21,0 38,25 31,44 -8,20 -43,21 -50,1 z"
       id="path92" />
    <path
       d="m 14494,14335 c -8,-21 2,-45 19,-45 21,0 38,25 31,44 -8,20 -43,21 -50,1 z"
       id="path94" />
    <path
       d="m 36774,14335 c -8,-21 2,-45 19,-45 21,0 38,25 31,44 -8,20 -43,21 -50,1 z"
       id="path96" />
    <path
       d="m 15160,14270 v -40 h 120 120 v 40 40 h -120 -120 z"
       id="path98" />
    <path
       d="m 5235,14220 c 3,-5 13,-10 21,-10 11,0 14,-21 14,-113 v -113 l -27,-11 c -24,-9 -18,-11 45,-12 47,-1 71,3 67,9 -3,6 -15,10 -26,10 -18,0 -19,8 -19,125 v 125 h -41 c -24,0 -38,-4 -34,-10 z"
       id="path100" />
    <path
       d="m 14465,14220 c 3,-5 13,-10 21,-10 11,0 14,-21 14,-113 v -113 l -27,-11 c -24,-9 -18,-11 45,-12 47,-1 71,3 67,9 -3,6 -15,10 -26,10 -18,0 -19,8 -19,125 v 125 h -41 c -24,0 -38,-4 -34,-10 z"
       id="path102" />
    <path
       d="m 36745,14220 c 3,-5 13,-10 21,-10 11,0 14,-21 14,-113 v -113 l -27,-11 c -24,-9 -18,-11 45,-12 47,-1 71,3 67,9 -3,6 -15,10 -26,10 -18,0 -19,8 -19,125 v 125 h -41 c -24,0 -38,-4 -34,-10 z"
       id="path104" />
    <path
       d="m 18669,14172 c -92,-59 -173,-182 -198,-300 -31,-150 10,-320 105,-430 37,-44 134,-116 143,-106 3,2 -18,28 -46,57 -66,67 -89,116 -108,223 -18,106 -19,205 -1,305 19,106 48,166 108,222 28,26 49,50 46,52 -2,3 -24,-8 -49,-23 z"
       id="path106" />
    <path
       d="m 21410,14195 c 0,-3 22,-28 49,-54 27,-26 58,-65 69,-87 31,-61 52,-182 52,-296 0,-183 -40,-301 -125,-375 -25,-23 -45,-44 -45,-47 0,-17 85,43 130,90 87,92 130,203 130,340 0,132 -44,247 -130,338 -44,47 -130,107 -130,91 z"
       id="path108" />
    <path
       d="m 27389,14172 c -92,-59 -173,-182 -198,-300 -31,-150 10,-320 105,-430 37,-44 134,-116 143,-106 3,2 -18,28 -46,57 -66,67 -89,116 -108,223 -18,106 -19,205 -1,305 19,106 48,166 108,222 28,26 49,50 46,52 -2,3 -24,-8 -49,-23 z"
       id="path110" />
    <path
       d="m 30120,14195 c 0,-3 22,-28 49,-54 27,-26 58,-65 69,-87 31,-61 52,-182 52,-296 0,-183 -40,-301 -125,-375 -25,-23 -45,-44 -45,-47 0,-17 85,43 130,90 87,92 130,203 130,340 0,132 -44,247 -130,338 -44,47 -130,107 -130,91 z"
       id="path112" />
    <path
       d="m 20985,14181 c -95,-25 -191,-114 -221,-204 -10,-29 -17,-82 -17,-122 0,-40 7,-93 17,-122 22,-66 93,-146 159,-179 27,-14 73,-44 100,-66 90,-70 249,-137 330,-138 35,0 15,16 -42,32 -59,18 -133,76 -160,126 -10,19 -7,23 33,41 58,25 125,93 157,156 21,43 24,64 24,155 0,90 -3,111 -23,148 -58,110 -152,173 -262,178 -36,2 -78,0 -95,-5 z m 155,-43 c 81,-41 121,-134 121,-287 1,-153 -39,-243 -126,-282 -79,-37 -159,-19 -214,47 -76,93 -92,315 -31,433 52,102 153,138 250,89 z"
       id="path114" />
    <path
       d="m 29705,14181 c -95,-25 -191,-114 -221,-204 -10,-29 -17,-82 -17,-122 0,-40 7,-93 17,-122 22,-66 93,-146 159,-179 27,-14 73,-44 100,-66 90,-70 249,-137 330,-138 35,0 15,16 -42,32 -59,18 -133,76 -160,126 -10,19 -7,23 33,41 58,25 125,93 157,156 21,43 24,64 24,155 0,90 -3,111 -23,148 -58,110 -152,173 -262,178 -36,2 -78,0 -95,-5 z m 155,-43 c 81,-41 121,-134 121,-287 1,-153 -39,-243 -126,-282 -79,-37 -159,-19 -214,47 -76,93 -92,315 -31,433 52,102 153,138 250,89 z"
       id="path116" />
    <path
       d="m 18778,14171 c 19,-5 39,-14 45,-20 9,-9 12,-94 12,-296 0,-202 -3,-287 -12,-296 -6,-6 -26,-15 -45,-19 -21,-5 17,-8 107,-8 93,0 129,3 105,8 -54,13 -60,29 -60,166 v 123 l 68,-6 c 86,-7 143,9 186,52 57,57 66,160 18,224 -10,14 -39,37 -63,51 -42,24 -53,25 -219,27 -111,1 -163,-1 -142,-6 z m 265,-32 c 44,-23 66,-53 78,-105 27,-120 -56,-208 -168,-178 -22,6 -23,10 -23,144 0,101 3,140 13,143 23,10 78,7 100,-4 z"
       id="path118" />
    <path
       d="m 27498,14171 c 19,-5 39,-14 45,-20 9,-9 12,-94 12,-296 0,-202 -3,-287 -12,-296 -6,-6 -26,-15 -45,-19 -21,-5 17,-8 107,-8 93,0 129,3 105,8 -54,13 -60,29 -60,166 v 123 l 68,-6 c 86,-7 143,9 186,52 57,57 66,160 18,224 -10,14 -39,37 -63,51 -42,24 -53,25 -219,27 -111,1 -163,-1 -142,-6 z m 265,-32 c 44,-23 66,-53 78,-105 27,-120 -56,-208 -168,-178 -22,6 -23,10 -23,144 0,101 3,140 13,143 23,10 78,7 100,-4 z"
       id="path120" />
    <path
       d="m 4080,14130 c -41,-41 -8,-98 49,-85 30,6 31,5 31,-25 0,-32 -38,-79 -85,-106 -11,-7 -17,-15 -13,-19 12,-12 98,45 119,78 29,48 26,117 -7,151 -32,31 -67,33 -94,6 z"
       id="path122" />
    <path
       d="m 5430,14130 c -41,-41 -8,-98 49,-85 30,6 31,5 31,-25 0,-32 -38,-79 -85,-106 -11,-7 -17,-15 -13,-19 12,-12 98,45 119,78 29,48 26,117 -7,151 -32,31 -67,33 -94,6 z"
       id="path124" />
    <path
       d="m 13320,14130 c -41,-41 -8,-98 49,-85 30,6 31,5 31,-25 0,-32 -38,-79 -85,-106 -11,-7 -17,-15 -13,-19 12,-12 98,45 119,78 29,48 26,117 -7,151 -32,31 -67,33 -94,6 z"
       id="path126" />
    <path
       d="m 14670,14130 c -41,-41 -8,-98 49,-85 30,6 31,5 31,-25 0,-32 -38,-79 -85,-106 -11,-7 -17,-15 -13,-19 12,-12 98,45 119,78 29,48 26,117 -7,151 -32,31 -67,33 -94,6 z"
       id="path128" />
    <path
       d="m 35590,14130 c -41,-41 -8,-98 49,-85 30,6 31,5 31,-25 0,-32 -38,-79 -85,-106 -11,-7 -17,-15 -13,-19 12,-12 98,45 119,78 29,48 26,117 -7,151 -32,31 -67,33 -94,6 z"
       id="path130" />
    <path
       d="m 36950,14130 c -41,-41 -8,-98 49,-85 30,6 31,5 31,-25 0,-32 -38,-79 -85,-106 -11,-7 -17,-15 -13,-19 12,-12 98,45 119,78 29,48 26,117 -7,151 -32,31 -67,33 -94,6 z"
       id="path132" />
    <path
       d="m 23830,13985 v -115 h -115 c -108,0 -115,-1 -115,-20 0,-19 7,-20 115,-20 h 115 v -115 c 0,-108 1,-115 20,-115 19,0 20,7 20,115 v 115 h 120 c 113,0 120,1 120,20 0,19 -7,20 -120,20 h -120 v 115 c 0,108 -1,115 -20,115 -19,0 -20,-7 -20,-115 z"
       id="path134" />
    <path
       d="m 19690,13982 v -30 l 178,-4 c 149,-2 182,-6 205,-21 44,-28 61,-73 61,-157 0,-84 -17,-129 -61,-157 -23,-15 -56,-19 -205,-21 l -178,-4 v -30 -30 l 188,4 c 212,3 233,10 284,83 55,80 55,232 1,309 -52,74 -73,81 -285,84 l -188,4 z"
       id="path136" />
    <path
       d="m 28410,13982 v -30 l 178,-4 c 149,-2 182,-6 205,-21 44,-28 61,-73 61,-157 0,-84 -17,-129 -61,-157 -23,-15 -56,-19 -205,-21 l -178,-4 v -30 -30 l 188,4 c 212,3 233,10 284,83 55,80 55,232 1,309 -52,74 -73,81 -285,84 l -188,4 z"
       id="path138" />
    <path
       d="m 22257,13943 c 21,-21 48,-81 103,-226 40,-108 78,-196 84,-194 6,2 37,63 70,135 32,72 62,130 65,127 3,-2 29,-62 56,-134 28,-72 55,-131 61,-131 6,0 46,92 89,205 59,156 84,210 104,225 l 26,19 h -75 c -62,0 -70,-2 -47,-11 15,-5 27,-17 27,-26 0,-21 -93,-272 -101,-272 -9,0 -99,233 -99,257 0,14 10,28 28,37 25,14 21,15 -78,15 -65,0 -97,-3 -85,-9 27,-10 40,-27 60,-76 l 16,-42 -43,-96 c -24,-52 -46,-96 -49,-96 -9,0 -99,252 -99,278 0,14 8,26 23,32 15,6 -5,9 -72,9 l -93,1 z"
       id="path140" />
    <path
       d="m 30977,13943 c 21,-21 48,-81 103,-226 40,-108 78,-196 84,-194 6,2 37,63 70,135 32,72 62,130 65,127 3,-2 29,-62 56,-134 28,-72 55,-131 61,-131 6,0 46,92 89,205 59,156 84,210 104,225 l 26,19 h -75 c -62,0 -70,-2 -47,-11 15,-5 27,-17 27,-26 0,-21 -93,-272 -101,-272 -9,0 -99,233 -99,257 0,14 10,28 28,37 25,14 21,15 -78,15 -65,0 -97,-3 -85,-9 27,-10 40,-27 60,-76 l 16,-42 -43,-96 c -24,-52 -46,-96 -49,-96 -9,0 -99,252 -99,278 0,14 8,26 23,32 15,6 -5,9 -72,9 l -93,1 z"
       id="path142" />
    <path
       d="m 17870,13920 c 0,-19 7,-20 235,-20 h 235 v -75 c 0,-68 2,-75 20,-75 19,0 20,7 20,95 v 95 h -255 c -248,0 -255,-1 -255,-20 z"
       id="path144" />
    <path
       d="m 26580,13920 c 0,-19 7,-20 235,-20 h 235 v -75 c 0,-68 2,-75 20,-75 19,0 20,7 20,95 v 95 h -255 c -248,0 -255,-1 -255,-20 z"
       id="path146" />
    <path
       d="m 22954,13815 c -8,-21 2,-45 19,-45 21,0 38,25 31,44 -8,20 -43,21 -50,1 z"
       id="path148" />
    <path
       d="m 31664,13815 c -8,-21 2,-45 19,-45 21,0 38,25 31,44 -8,20 -43,21 -50,1 z"
       id="path150" />
    <path
       d="m 32330,13750 v -40 h 120 120 v 40 40 h -120 -120 z"
       id="path152" />
    <path
       d="m 22925,13700 c 3,-5 13,-10 21,-10 11,0 14,-21 14,-113 v -113 l -27,-11 c -24,-9 -18,-11 45,-12 47,-1 71,3 67,9 -3,6 -15,10 -26,10 -18,0 -19,8 -19,125 v 125 h -41 c -24,0 -38,-4 -34,-10 z"
       id="path154" />
    <path
       d="m 31635,13700 c 3,-5 13,-10 21,-10 11,0 14,-21 14,-113 v -113 l -27,-11 c -24,-9 -18,-11 45,-12 47,-1 71,3 67,9 -3,6 -15,10 -26,10 -18,0 -19,8 -19,125 v 125 h -41 c -24,0 -38,-4 -34,-10 z"
       id="path156" />
    <path
       d="m 21770,13610 c -41,-41 -8,-98 49,-85 30,6 31,5 31,-25 0,-32 -38,-79 -85,-106 -11,-7 -17,-15 -13,-19 12,-12 98,45 119,78 29,48 26,117 -7,151 -32,31 -67,33 -94,6 z"
       id="path158" />
    <path
       d="m 23130,13610 c -41,-41 -8,-98 49,-85 30,6 31,5 31,-25 0,-32 -38,-79 -85,-106 -11,-7 -17,-15 -13,-19 12,-12 98,45 119,78 29,48 26,117 -7,151 -32,31 -67,33 -94,6 z"
       id="path160" />
    <path
       d="m 30490,13610 c -41,-41 -8,-98 49,-85 30,6 31,5 31,-25 0,-32 -38,-79 -85,-106 -11,-7 -17,-15 -13,-19 12,-12 98,45 119,78 29,48 26,117 -7,151 -32,31 -67,33 -94,6 z"
       id="path162" />
    <path
       d="m 31840,13610 c -41,-41 -8,-98 49,-85 30,6 31,5 31,-25 0,-32 -38,-79 -85,-106 -11,-7 -17,-15 -13,-19 12,-12 98,45 119,78 29,48 26,117 -7,151 -32,31 -67,33 -94,6 z"
       id="path164" />
    <path
       d="m 3890,12155 v -1126 l 33,3 32,3 v 1120 1120 l -32,3 -33,3 z"
       id="path166" />
    <path
       d="m 12990,12155 v -1126 l 33,3 32,3 v 1120 1120 l -32,3 -33,3 z"
       id="path168" />
    <path
       d="m 36530,12141 v -1141 h 35 35 l -2,1138 -3,1137 -32,3 -33,3 z"
       id="path170" />
    <path
       d="m 20975,12968 c -3,-7 -4,-445 -3,-973 l 3,-960 33,-3 32,-3 v 975 976 h -30 c -17,0 -33,-6 -35,-12 z"
       id="path172" />
    <path
       d="m 29585,12968 c -3,-7 -4,-445 -3,-973 l 3,-960 33,-3 32,-3 v 975 976 h -30 c -17,0 -33,-6 -35,-12 z"
       id="path174" />
    <path
       d="m 3669,11160 c 45,-109 244,-546 251,-553 6,-7 38,59 222,468 l 58,130 -78,-85 c -42,-47 -96,-105 -119,-130 l -43,-45 v 38 c 0,36 -1,37 -35,37 -33,0 -35,-2 -35,-35 0,-19 -3,-35 -7,-34 -5,0 -39,36 -78,80 -38,43 -89,100 -113,126 l -42,48 z"
       id="path176" />
    <path
       d="m 12751,11193 c 11,-34 265,-593 269,-593 5,0 168,358 247,540 l 24,55 -48,-50 c -27,-27 -78,-84 -115,-125 l -68,-75 v 38 c 0,36 -1,37 -35,37 -33,0 -35,-2 -35,-36 0,-20 -4,-34 -9,-32 -5,2 -57,57 -116,123 -129,143 -119,133 -114,118 z"
       id="path178" />
    <path
       d="m 20744,11175 c 27,-77 262,-583 267,-577 5,6 141,305 241,532 l 28,65 -42,-45 c -24,-25 -78,-83 -120,-130 l -77,-85 -1,43 c 0,41 -1,42 -34,42 -33,0 -35,-2 -38,-40 l -3,-41 -64,73 c -118,135 -165,183 -157,163 z"
       id="path180" />
    <path
       d="m 29354,11175 c 23,-66 262,-583 267,-577 7,7 211,457 250,552 19,44 18,44 -58,-40 -43,-47 -97,-105 -120,-130 l -43,-45 v 43 c 0,43 0,43 -32,40 -30,-3 -34,-7 -38,-40 l -5,-36 -75,84 c -137,154 -152,169 -146,149 z"
       id="path182" />
    <path
       d="m 35288,10551 c 19,-5 39,-14 45,-20 9,-9 12,-94 12,-296 0,-202 -3,-287 -12,-296 -6,-6 -26,-15 -45,-19 -21,-5 17,-8 107,-8 93,0 129,3 105,8 -54,13 -60,29 -60,166 v 123 l 68,-6 c 86,-7 143,9 186,52 57,57 66,160 18,224 -10,14 -39,37 -63,51 -42,24 -53,25 -219,27 -111,1 -163,-1 -142,-6 z m 265,-32 c 44,-23 66,-53 78,-105 27,-120 -56,-208 -168,-178 -22,6 -23,10 -23,144 0,101 3,140 13,143 23,10 78,7 100,-4 z"
       id="path184" />
    <path
       d="m 36217,10323 c 21,-21 48,-81 103,-226 40,-108 78,-196 84,-194 6,2 37,63 70,135 32,72 62,130 65,127 3,-2 29,-62 56,-134 28,-72 55,-131 61,-131 6,0 46,92 89,205 59,156 84,210 104,225 l 26,19 h -75 c -62,0 -70,-2 -47,-11 15,-5 27,-17 27,-26 0,-21 -93,-272 -101,-272 -9,0 -99,233 -99,257 0,14 10,28 28,37 25,14 21,15 -78,15 -65,0 -97,-3 -85,-9 27,-10 40,-27 60,-76 l 16,-42 -43,-96 c -24,-52 -46,-96 -49,-96 -9,0 -99,252 -99,278 0,14 8,26 23,32 15,6 -5,9 -72,9 l -93,1 z"
       id="path186" />
    <path
       d="m 36914,10195 c -8,-21 2,-45 19,-45 21,0 38,25 31,44 -8,20 -43,21 -50,1 z"
       id="path188" />
    <path
       d="m 12911,10025 -52,-165 -170,-2 -169,-3 135,-98 c 74,-54 135,-101 135,-104 0,-3 -22,-75 -50,-161 -27,-85 -48,-157 -46,-159 2,-2 39,23 82,55 44,32 104,76 134,99 l 56,40 134,-98 c 73,-54 135,-97 137,-95 3,2 -16,66 -40,143 -24,76 -47,147 -51,159 -5,17 14,35 130,120 l 136,99 -169,3 -169,2 -53,165 c -28,91 -53,165 -55,165 -1,0 -26,-74 -55,-165 z m 98,-82 37,-118 124,-5 125,-5 -97,-70 c -54,-38 -98,-75 -98,-80 0,-6 18,-64 39,-128 22,-65 34,-114 28,-110 -7,4 -54,38 -104,75 -51,37 -95,68 -98,68 -3,0 -51,-34 -105,-75 -55,-42 -100,-72 -100,-67 0,4 16,55 35,112 19,57 35,111 35,120 0,9 -44,47 -97,85 l -98,70 125,5 125,5 39,122 c 22,68 42,121 44,119 2,-3 20,-58 41,-123 z"
       id="path190" />
    <path
       d="m 20901,10025 -52,-165 -170,-2 -169,-3 135,-98 c 74,-54 135,-101 135,-104 0,-3 -22,-75 -50,-161 -27,-85 -48,-157 -46,-159 2,-2 39,23 82,55 44,32 104,76 134,99 l 56,40 134,-98 c 73,-54 135,-97 137,-95 3,2 -16,66 -40,143 -24,76 -47,147 -51,159 -5,17 14,35 130,120 l 136,99 -169,3 -169,2 -53,165 c -28,91 -53,165 -55,165 -1,0 -26,-74 -55,-165 z m 98,-82 37,-118 124,-5 125,-5 -97,-70 c -54,-38 -98,-75 -98,-80 0,-6 18,-64 39,-128 22,-65 34,-114 28,-110 -7,4 -54,38 -104,75 -51,37 -95,68 -98,68 -3,0 -51,-34 -105,-75 -55,-42 -100,-72 -100,-67 0,4 16,55 35,112 19,57 35,111 35,120 0,9 -44,47 -97,85 l -98,70 125,5 125,5 39,122 c 22,68 42,121 44,119 2,-3 20,-58 41,-123 z"
       id="path192" />
    <path
       d="m 37570,10130 v -40 h 120 120 v 40 40 h -120 -120 z"
       id="path194" />
    <path
       d="m 4056,10065 c 15,-27 34,-59 41,-70 7,-11 13,-23 13,-27 0,-5 -135,-8 -300,-8 h -300 v -40 -40 h 300 c 165,0 300,-3 300,-8 0,-4 -6,-16 -13,-27 -7,-11 -26,-42 -41,-70 -28,-49 -26,-48 70,48 l 99,97 -99,98 c -96,95 -98,96 -70,47 z"
       id="path196" />
    <path
       d="m 29756,10065 c 15,-27 34,-59 41,-70 7,-11 13,-23 13,-27 0,-5 -135,-8 -300,-8 h -300 v -40 -40 h 300 c 165,0 300,-3 300,-8 0,-4 -6,-16 -13,-27 -7,-11 -26,-42 -41,-70 -28,-49 -26,-48 70,48 l 99,97 -99,98 c -96,95 -98,96 -70,47 z"
       id="path198" />
    <path
       d="m 36885,10080 c 3,-5 13,-10 21,-10 11,0 14,-21 14,-113 v -113 l -27,-11 c -24,-9 -18,-11 45,-12 47,-1 71,3 67,9 -3,6 -15,10 -26,10 -18,0 -19,8 -19,125 v 125 h -41 c -24,0 -38,-4 -34,-10 z"
       id="path200" />
    <path
       d="m 35730,9990 c -41,-41 -8,-98 49,-85 30,6 31,5 31,-25 0,-32 -38,-79 -85,-106 -11,-7 -17,-15 -13,-19 12,-12 98,45 119,78 29,48 26,117 -7,151 -32,31 -67,33 -94,6 z"
       id="path202" />
    <path
       d="m 37080,9990 c -41,-41 -8,-98 49,-85 30,6 31,5 31,-25 0,-32 -38,-79 -85,-106 -11,-7 -17,-15 -13,-19 12,-12 98,45 119,78 29,48 26,117 -7,151 -32,31 -67,33 -94,6 z"
       id="path204" />
    <path
       d="m 2397,9803 c 21,-21 48,-81 103,-226 40,-108 78,-196 84,-194 6,2 37,63 70,135 32,72 62,130 65,127 3,-2 29,-62 56,-134 28,-72 55,-131 61,-131 6,0 46,92 89,205 59,156 84,210 104,225 l 26,19 h -75 c -62,0 -70,-2 -47,-11 15,-5 27,-17 27,-26 0,-21 -93,-272 -101,-272 -9,0 -99,233 -99,257 0,14 10,28 28,37 25,14 21,15 -78,15 -65,0 -97,-3 -85,-9 27,-10 40,-27 60,-76 l 16,-42 -43,-96 c -24,-52 -46,-96 -49,-96 -9,0 -99,252 -99,278 0,14 8,26 23,32 15,6 -5,9 -72,9 l -93,1 z"
       id="path206" />
    <path
       d="m 4587,9803 c 21,-21 48,-81 103,-226 40,-108 78,-196 84,-194 6,2 37,63 70,135 32,72 62,130 65,127 3,-2 29,-62 56,-134 28,-72 55,-131 61,-131 6,0 46,92 89,205 59,156 84,210 104,225 l 26,19 h -75 c -62,0 -70,-2 -47,-11 15,-5 27,-17 27,-26 0,-21 -93,-272 -101,-272 -9,0 -99,233 -99,257 0,14 10,28 28,37 25,14 21,15 -78,15 -65,0 -97,-3 -85,-9 27,-10 40,-27 60,-76 l 16,-42 -43,-96 c -24,-52 -46,-96 -49,-96 -9,0 -99,252 -99,278 0,14 8,26 23,32 15,6 -5,9 -72,9 l -93,1 z"
       id="path208" />
    <path
       d="m 11427,9803 c 21,-21 48,-81 103,-226 40,-108 78,-196 84,-194 6,2 37,63 70,135 32,72 62,130 65,127 3,-2 29,-62 56,-134 28,-72 55,-131 61,-131 6,0 46,92 89,205 59,156 84,210 104,225 l 26,19 h -75 c -62,0 -70,-2 -47,-11 15,-5 27,-17 27,-26 0,-21 -93,-272 -101,-272 -9,0 -99,233 -99,257 0,14 10,28 28,37 25,14 21,15 -78,15 -65,0 -97,-3 -85,-9 27,-10 40,-27 60,-76 l 16,-42 -43,-96 c -24,-52 -46,-96 -49,-96 -9,0 -99,252 -99,278 0,14 8,26 23,32 15,6 -5,9 -72,9 l -93,1 z"
       id="path210" />
    <path
       d="m 13767,9803 c 21,-21 48,-81 103,-226 40,-108 78,-196 84,-194 6,2 37,63 70,135 32,72 62,130 65,127 3,-2 29,-62 56,-134 28,-72 55,-131 61,-131 6,0 46,92 89,205 59,156 84,210 104,225 l 26,19 h -75 c -62,0 -70,-2 -47,-11 15,-5 27,-17 27,-26 0,-21 -93,-272 -101,-272 -9,0 -99,233 -99,257 0,14 10,28 28,37 25,14 21,15 -78,15 -65,0 -97,-3 -85,-9 27,-10 40,-27 60,-76 l 16,-42 -43,-96 c -24,-52 -46,-96 -49,-96 -9,0 -99,252 -99,278 0,14 8,26 23,32 15,6 -5,9 -72,9 l -93,1 z"
       id="path212" />
    <path
       d="m 19417,9803 c 21,-21 48,-81 103,-226 40,-108 78,-196 84,-194 6,2 37,63 70,135 32,72 62,130 65,127 3,-2 29,-62 56,-134 28,-72 55,-131 61,-131 6,0 46,92 89,205 59,156 84,210 104,225 l 26,19 h -75 c -62,0 -70,-2 -47,-11 15,-5 27,-17 27,-26 0,-21 -93,-272 -101,-272 -9,0 -99,233 -99,257 0,14 10,28 28,37 25,14 21,15 -78,15 -65,0 -97,-3 -85,-9 27,-10 40,-27 60,-76 l 16,-42 -43,-96 c -24,-52 -46,-96 -49,-96 -9,0 -99,252 -99,278 0,14 8,26 23,32 15,6 -5,9 -72,9 l -93,1 z"
       id="path214" />
    <path
       d="m 21757,9803 c 21,-21 48,-81 103,-226 40,-108 78,-196 84,-194 6,2 37,63 70,135 32,72 62,130 65,127 3,-2 29,-62 56,-134 28,-72 55,-131 61,-131 6,0 46,92 89,205 59,156 84,210 104,225 l 26,19 h -75 c -62,0 -70,-2 -47,-11 15,-5 27,-17 27,-26 0,-21 -93,-272 -101,-272 -9,0 -99,233 -99,257 0,14 10,28 28,37 25,14 21,15 -78,15 -65,0 -97,-3 -85,-9 27,-10 40,-27 60,-76 l 16,-42 -43,-96 c -24,-52 -46,-96 -49,-96 -9,0 -99,252 -99,278 0,14 8,26 23,32 15,6 -5,9 -72,9 l -93,1 z"
       id="path216" />
    <path
       d="m 28097,9803 c 21,-21 48,-81 103,-226 40,-108 78,-196 84,-194 6,2 37,63 70,135 32,72 62,130 65,127 3,-2 29,-62 56,-134 28,-72 55,-131 61,-131 6,0 46,92 89,205 59,156 84,210 104,225 l 26,19 h -75 c -62,0 -70,-2 -47,-11 15,-5 27,-17 27,-26 0,-21 -93,-272 -101,-272 -9,0 -99,233 -99,257 0,14 10,28 28,37 25,14 21,15 -78,15 -65,0 -97,-3 -85,-9 27,-10 40,-27 60,-76 l 16,-42 -43,-96 c -24,-52 -46,-96 -49,-96 -9,0 -99,252 -99,278 0,14 8,26 23,32 15,6 -5,9 -72,9 l -93,1 z"
       id="path218" />
    <path
       d="m 30277,9803 c 21,-21 48,-81 103,-226 40,-108 78,-196 84,-194 6,2 37,63 70,135 32,72 62,130 65,127 3,-2 29,-62 56,-134 28,-72 55,-131 61,-131 6,0 46,92 89,205 59,156 84,210 104,225 l 26,19 h -75 c -62,0 -70,-2 -47,-11 15,-5 27,-17 27,-26 0,-21 -93,-272 -101,-272 -9,0 -99,233 -99,257 0,14 10,28 28,37 25,14 21,15 -78,15 -65,0 -97,-3 -85,-9 27,-10 40,-27 60,-76 l 16,-42 -43,-96 c -24,-52 -46,-96 -49,-96 -9,0 -99,252 -99,278 0,14 8,26 23,32 15,6 -5,9 -72,9 l -93,1 z"
       id="path220" />
    <path
       d="m 5297,9734 c -25,-25 8,-70 43,-59 32,10 24,59 -10,63 -14,2 -29,0 -33,-4 z"
       id="path222" />
    <path
       d="m 14477,9734 c -25,-25 8,-70 43,-59 32,10 24,59 -10,63 -14,2 -29,0 -33,-4 z"
       id="path224" />
    <path
       d="m 22467,9734 c -25,-25 8,-70 43,-59 32,10 24,59 -10,63 -14,2 -29,0 -33,-4 z"
       id="path226" />
    <path
       d="m 30987,9734 c -25,-25 8,-70 43,-59 32,10 24,59 -10,63 -14,2 -29,0 -33,-4 z"
       id="path228" />
    <path
       d="m 36543,9467 c -210,-127 -382,-235 -383,-239 0,-4 38,-19 85,-33 47,-14 123,-37 171,-51 47,-14 84,-29 82,-34 -2,-5 -77,-88 -167,-186 -90,-98 -159,-180 -153,-182 11,-3 764,467 772,482 3,6 -71,29 -163,52 -93,23 -170,44 -172,46 -3,2 69,85 160,184 155,169 176,194 158,194 -5,0 -180,-105 -390,-233 z"
       id="path230" />
    <path
       d="m 3094,9675 c -8,-21 2,-45 19,-45 21,0 38,25 31,44 -8,20 -43,21 -50,1 z"
       id="path232" />
    <path
       d="m 4056,9645 c 15,-27 34,-59 41,-70 7,-11 13,-23 13,-27 0,-5 -135,-8 -300,-8 h -300 v -40 -40 h 300 c 165,0 300,-3 300,-8 0,-4 -6,-16 -13,-27 -7,-11 -26,-42 -41,-70 -28,-49 -26,-48 70,48 l 99,97 -99,98 c -96,95 -98,96 -70,47 z"
       id="path234" />
    <path
       d="m 12124,9675 c -8,-21 2,-45 19,-45 21,0 38,25 31,44 -8,20 -43,21 -50,1 z"
       id="path236" />
    <path
       d="m 20104,9675 c -8,-21 2,-45 19,-45 21,0 38,25 31,44 -8,20 -43,21 -50,1 z"
       id="path238" />
    <path
       d="m 28784,9675 c -8,-21 2,-45 19,-45 21,0 38,25 31,44 -8,20 -43,21 -50,1 z"
       id="path240" />
    <path
       d="m 29756,9645 c 15,-27 34,-59 41,-70 7,-11 13,-23 13,-27 0,-5 -135,-8 -300,-8 h -300 v -40 -40 h 300 c 165,0 300,-3 300,-8 0,-4 -6,-16 -13,-27 -7,-11 -26,-42 -41,-70 -28,-49 -26,-48 70,48 l 99,97 -99,98 c -96,95 -98,96 -70,47 z"
       id="path242" />
    <path
       d="m 5240,9602 c 0,-4 14,-13 30,-19 l 30,-11 -1,-154 c -1,-84 -4,-164 -8,-178 -4,-15 -20,-31 -38,-40 -61,-28 -32,-53 35,-29 60,21 67,43 70,252 l 4,187 h -61 c -34,0 -61,-4 -61,-8 z"
       id="path244" />
    <path
       d="m 14420,9602 c 0,-4 14,-13 30,-19 l 30,-11 -1,-154 c -1,-84 -4,-164 -8,-178 -4,-15 -20,-31 -38,-40 -61,-28 -32,-53 35,-29 60,21 67,43 70,252 l 4,187 h -61 c -34,0 -61,-4 -61,-8 z"
       id="path246" />
    <path
       d="m 22410,9602 c 0,-4 14,-13 30,-19 l 30,-11 -1,-154 c -1,-84 -4,-164 -8,-178 -4,-15 -20,-31 -38,-40 -61,-28 -32,-53 35,-29 60,21 67,43 70,252 l 4,187 h -61 c -34,0 -61,-4 -61,-8 z"
       id="path248" />
    <path
       d="m 30930,9602 c 0,-4 14,-13 30,-19 l 30,-11 -1,-154 c -1,-84 -4,-164 -8,-178 -4,-15 -20,-31 -38,-40 -61,-28 -32,-53 35,-29 60,21 67,43 70,252 l 4,187 h -61 c -34,0 -61,-4 -61,-8 z"
       id="path250" />
    <path
       d="m 3065,9560 c 3,-5 13,-10 21,-10 11,0 14,-21 14,-113 v -113 l -27,-11 c -24,-9 -18,-11 45,-12 47,-1 71,3 67,9 -3,6 -15,10 -26,10 -18,0 -19,8 -19,125 v 125 h -41 c -24,0 -38,-4 -34,-10 z"
       id="path252" />
    <path
       d="m 12095,9560 c 3,-5 13,-10 21,-10 11,0 14,-21 14,-113 v -113 l -27,-11 c -24,-9 -18,-11 45,-12 47,-1 71,3 67,9 -3,6 -15,10 -26,10 -18,0 -19,8 -19,125 v 125 h -41 c -24,0 -38,-4 -34,-10 z"
       id="path254" />
    <path
       d="m 20075,9560 c 3,-5 13,-10 21,-10 11,0 14,-21 14,-113 v -113 l -27,-11 c -24,-9 -18,-11 45,-12 47,-1 71,3 67,9 -3,6 -15,10 -26,10 -18,0 -19,8 -19,125 v 125 h -41 c -24,0 -38,-4 -34,-10 z"
       id="path256" />
    <path
       d="m 28755,9560 c 3,-5 13,-10 21,-10 11,0 14,-21 14,-113 v -113 l -27,-11 c -24,-9 -18,-11 45,-12 47,-1 71,3 67,9 -3,6 -15,10 -26,10 -18,0 -19,8 -19,125 v 125 h -41 c -24,0 -38,-4 -34,-10 z"
       id="path258" />
    <path
       d="m 4741,8626 -22,-24 862,-1003 c 474,-552 873,-1015 886,-1029 29,-28 47,-60 36,-60 -4,0 -78,9 -163,20 -85,11 -159,20 -165,20 -5,0 125,-63 289,-140 164,-77 301,-139 302,-137 2,2 -38,145 -89,318 l -92,314 -6,-145 c -4,-80 -7,-158 -8,-175 l -2,-30 -24,29 c -21,27 -25,28 -42,15 -16,-13 -17,-12 -5,3 12,15 11,21 -5,41 -35,44 -1724,2007 -1727,2007 -1,0 -13,-11 -25,-24 z"
       id="path260" />
    <path
       d="m 30482,8627 -22,-24 917,-1011 c 505,-556 923,-1011 929,-1011 6,-1 19,8 29,19 18,20 17,21 -21,65 -86,100 -1799,1984 -1805,1984 -3,1 -15,-9 -27,-22 z"
       id="path262" />
    <path
       d="m 3495,8630 c -3,-5 -186,-445 -406,-977 -365,-884 -398,-969 -382,-980 9,-7 24,-13 32,-13 12,0 127,269 413,963 219,529 400,969 403,978 5,12 -2,20 -24,27 -18,6 -33,7 -36,2 z"
       id="path264" />
    <path
       d="m 29199,8617 c -55,-122 -766,-1934 -761,-1939 4,-4 19,-9 33,-13 25,-6 26,-4 407,957 210,530 384,970 387,979 5,12 -2,20 -25,27 -27,10 -32,9 -41,-11 z"
       id="path266" />
    <path
       d="m 12988,7613 -3,-1018 -115,127 c -63,70 -115,126 -117,125 -3,-4 256,-580 265,-589 4,-3 67,127 140,289 73,163 131,297 130,299 -2,1 -53,-53 -113,-121 -61,-67 -111,-120 -113,-116 -1,4 -3,459 -5,1012 l -2,1004 -32,3 -33,3 z"
       id="path268" />
    <path
       d="m 20970,7619 c 0,-557 -1,-1013 -3,-1015 -1,-2 -54,54 -117,124 -63,70 -111,118 -107,107 30,-81 263,-583 268,-577 6,6 95,203 220,487 l 49,110 -77,-85 c -43,-47 -97,-105 -120,-130 l -43,-45 v 1018 1017 h -35 -35 z"
       id="path270" />
    <path
       d="m 2536,6630 c 4,-157 9,-305 13,-329 l 6,-44 210,198 c 116,108 224,211 240,227 l 30,29 -57,-25 c -31,-14 -98,-46 -147,-71 -100,-49 -117,-54 -106,-27 17,41 16,48 -11,61 -25,11 -30,10 -41,-5 -7,-10 -13,-24 -13,-31 0,-42 -24,5 -74,145 l -56,157 z"
       id="path272" />
    <path
       d="m 28271,6850 c 0,-116 24,-579 30,-585 6,-5 468,437 463,443 -1,2 -65,-29 -143,-67 -77,-39 -145,-71 -150,-71 -6,0 -4,15 4,34 14,32 13,34 -11,45 -37,16 -40,15 -56,-25 l -15,-37 -61,164 -61,164 z"
       id="path274" />
    <path
       d="m 32421,6731 -1,-175 -28,27 -28,27 -24,-25 -24,-25 30,-31 29,-31 -40,6 c -92,13 -263,28 -281,24 -11,-2 107,-58 275,-131 162,-70 296,-126 297,-124 2,1 -44,144 -101,317 l -104,315 z"
       id="path276" />
    <path
       d="m 6215,5701 c -95,-25 -191,-114 -221,-204 -10,-29 -17,-82 -17,-122 0,-40 7,-93 17,-122 22,-66 93,-146 159,-179 27,-14 73,-44 100,-66 90,-70 249,-137 330,-138 35,0 15,16 -42,32 -59,18 -133,76 -160,126 -10,19 -7,23 33,41 58,25 125,93 157,156 21,43 24,64 24,155 0,90 -3,111 -23,148 -58,110 -152,173 -262,178 -36,2 -78,0 -95,-5 z m 155,-43 c 81,-41 121,-134 121,-287 1,-153 -39,-243 -126,-282 -79,-37 -159,-19 -214,47 -76,93 -92,315 -31,433 52,102 153,138 250,89 z"
       id="path278" />
    <path
       d="m 32515,5701 c -95,-25 -191,-114 -221,-204 -10,-29 -17,-82 -17,-122 0,-40 7,-93 17,-122 22,-66 93,-146 159,-179 27,-14 73,-44 100,-66 90,-70 249,-137 330,-138 35,0 15,16 -42,32 -59,18 -133,76 -160,126 -10,19 -7,23 33,41 58,25 125,93 157,156 21,43 24,64 24,155 0,90 -3,111 -23,148 -58,110 -152,173 -262,178 -36,2 -78,0 -95,-5 z m 155,-43 c 81,-41 121,-134 121,-287 1,-153 -39,-243 -126,-282 -79,-37 -159,-19 -214,47 -76,93 -92,315 -31,433 52,102 153,138 250,89 z"
       id="path280" />
    <path
       d="m 878,5691 c 19,-5 39,-14 45,-20 17,-17 17,-575 0,-592 -6,-6 -26,-15 -45,-19 -21,-5 17,-8 107,-8 93,0 129,3 105,8 -54,13 -60,29 -60,166 v 123 l 68,-6 c 86,-7 143,9 186,52 57,57 66,160 18,224 -10,14 -39,37 -63,51 -42,24 -53,25 -219,27 -111,1 -163,-1 -142,-6 z m 265,-32 c 44,-23 66,-53 78,-105 27,-120 -56,-208 -168,-178 -22,6 -23,10 -23,144 0,101 3,140 13,143 23,10 78,7 100,-4 z"
       id="path282" />
    <path
       d="m 11578,5691 c 19,-5 39,-14 45,-20 9,-9 12,-94 12,-296 0,-202 -3,-287 -12,-296 -6,-6 -26,-15 -45,-19 -21,-5 17,-8 107,-8 93,0 129,3 105,8 -54,13 -60,29 -60,166 v 123 l 68,-6 c 86,-7 143,9 186,52 57,57 66,160 18,224 -10,14 -39,37 -63,51 -42,24 -53,25 -219,27 -111,1 -163,-1 -142,-6 z m 265,-32 c 44,-23 66,-53 78,-105 27,-120 -56,-208 -168,-178 -22,6 -23,10 -23,144 0,101 3,140 13,143 23,10 78,7 100,-4 z"
       id="path284" />
    <path
       d="m 19558,5691 c 19,-5 39,-14 45,-20 9,-9 12,-94 12,-296 0,-202 -3,-287 -12,-296 -6,-6 -26,-15 -45,-19 -21,-5 17,-8 107,-8 93,0 129,3 105,8 -54,13 -60,29 -60,166 v 123 l 68,-6 c 86,-7 143,9 186,52 57,57 66,160 18,224 -10,14 -39,37 -63,51 -42,24 -53,25 -219,27 -111,1 -163,-1 -142,-6 z m 265,-32 c 44,-23 66,-53 78,-105 27,-120 -56,-208 -168,-178 -22,6 -23,10 -23,144 0,101 3,140 13,143 23,10 78,7 100,-4 z"
       id="path286" />
    <path
       d="m 26648,5691 c 19,-5 39,-14 45,-20 9,-9 12,-94 12,-296 0,-202 -3,-287 -12,-296 -6,-6 -26,-15 -45,-19 -21,-5 17,-8 107,-8 93,0 129,3 105,8 -54,13 -60,29 -60,166 v 123 l 68,-6 c 86,-7 143,9 186,52 57,57 66,160 18,224 -10,14 -39,37 -63,51 -42,24 -53,25 -219,27 -111,1 -163,-1 -142,-6 z m 265,-32 c 44,-23 66,-53 78,-105 27,-120 -56,-208 -168,-178 -22,6 -23,10 -23,144 0,101 3,140 13,143 23,10 78,7 100,-4 z"
       id="path288" />
    <path
       d="m 8790,5505 v -115 h -115 c -108,0 -115,-1 -115,-20 0,-19 7,-20 115,-20 h 115 v -115 c 0,-108 1,-115 20,-115 19,0 20,7 20,115 v 115 h 120 c 113,0 120,1 120,20 0,19 -7,20 -120,20 h -120 v 115 c 0,108 -1,115 -20,115 -19,0 -20,-7 -20,-115 z"
       id="path290" />
    <path
       d="m 14120,5505 v -115 h -115 c -108,0 -115,-1 -115,-20 0,-19 7,-20 115,-20 h 115 v -115 c 0,-108 1,-115 20,-115 19,0 20,7 20,115 v 115 h 120 c 113,0 120,1 120,20 0,19 -7,20 -120,20 h -120 v 115 c 0,108 -1,115 -20,115 -19,0 -20,-7 -20,-115 z"
       id="path292" />
    <path
       d="m 22110,5505 v -115 h -115 c -108,0 -115,-1 -115,-20 0,-19 7,-20 115,-20 h 115 v -115 c 0,-108 1,-115 20,-115 19,0 20,7 20,115 v 115 h 120 c 113,0 120,1 120,20 0,19 -7,20 -120,20 h -120 v 115 c 0,108 -1,115 -20,115 -19,0 -20,-7 -20,-115 z"
       id="path294" />
    <path
       d="m 1807,5463 c 21,-21 48,-81 103,-226 40,-108 78,-196 84,-194 6,2 37,63 70,135 32,72 62,130 65,127 3,-2 29,-62 56,-134 28,-72 55,-131 61,-131 6,0 46,92 89,205 59,156 84,210 104,225 l 26,19 h -75 c -62,0 -70,-2 -47,-11 15,-5 27,-17 27,-26 0,-21 -93,-272 -101,-272 -9,0 -99,233 -99,257 0,14 10,28 28,37 25,14 21,15 -78,15 -65,0 -97,-3 -85,-9 27,-10 40,-27 60,-76 l 16,-42 -43,-96 c -24,-52 -46,-96 -49,-96 -9,0 -99,252 -99,278 0,14 8,26 23,32 15,6 -5,9 -72,9 l -93,1 z"
       id="path296" />
    <path
       d="m 7177,5463 c 21,-21 48,-81 103,-226 40,-108 78,-196 84,-194 6,2 37,63 70,135 32,72 62,130 65,127 3,-2 29,-62 56,-134 28,-72 55,-131 61,-131 6,0 46,92 89,205 59,156 84,210 104,225 l 26,19 h -75 c -62,0 -70,-2 -47,-11 15,-5 27,-17 27,-26 0,-21 -93,-272 -101,-272 -9,0 -99,233 -99,257 0,14 10,28 28,37 25,14 21,15 -78,15 -65,0 -97,-3 -85,-9 27,-10 40,-27 60,-76 l 16,-42 -43,-96 c -24,-52 -46,-96 -49,-96 -9,0 -99,252 -99,278 0,14 8,26 23,32 15,6 -5,9 -72,9 l -93,1 z"
       id="path298" />
    <path
       d="m 12507,5463 c 21,-21 48,-81 103,-226 40,-108 78,-196 84,-194 6,2 37,63 70,135 32,72 62,130 65,127 3,-2 29,-62 56,-134 28,-72 55,-131 61,-131 6,0 46,92 89,205 59,156 84,210 104,225 l 26,19 h -75 c -62,0 -70,-2 -47,-11 15,-5 27,-17 27,-26 0,-21 -93,-272 -101,-272 -9,0 -99,233 -99,257 0,14 10,28 28,37 25,14 21,15 -78,15 -65,0 -97,-3 -85,-9 27,-10 40,-27 60,-76 l 16,-42 -43,-96 c -24,-52 -46,-96 -49,-96 -9,0 -99,252 -99,278 0,14 8,26 23,32 15,6 -5,9 -72,9 l -93,1 z"
       id="path300" />
    <path
       d="m 20487,5463 c 21,-21 48,-81 103,-226 40,-108 78,-196 84,-194 6,2 37,63 70,135 32,72 62,130 65,127 3,-2 29,-62 56,-134 28,-72 55,-131 61,-131 6,0 46,92 89,205 59,156 84,210 104,225 l 26,19 h -75 c -62,0 -70,-2 -47,-11 15,-5 27,-17 27,-26 0,-21 -93,-272 -101,-272 -9,0 -99,233 -99,257 0,14 10,28 28,37 25,14 21,15 -78,15 -65,0 -97,-3 -85,-9 27,-10 40,-27 60,-76 l 16,-42 -43,-96 c -24,-52 -46,-96 -49,-96 -9,0 -99,252 -99,278 0,14 8,26 23,32 15,6 -5,9 -72,9 l -93,1 z"
       id="path302" />
    <path
       d="m 27567,5463 c 21,-21 48,-81 103,-226 40,-108 78,-196 84,-194 6,2 37,63 70,135 32,72 62,130 65,127 3,-2 29,-62 56,-134 28,-72 55,-131 61,-131 6,0 46,92 89,205 59,156 84,210 104,225 l 26,19 h -75 c -62,0 -70,-2 -47,-11 15,-5 27,-17 27,-26 0,-21 -93,-272 -101,-272 -9,0 -99,233 -99,257 0,14 10,28 28,37 25,14 21,15 -78,15 -65,0 -97,-3 -85,-9 27,-10 40,-27 60,-76 l 16,-42 -43,-96 c -24,-52 -46,-96 -49,-96 -9,0 -99,252 -99,278 0,14 8,26 23,32 15,6 -5,9 -72,9 l -93,1 z"
       id="path304" />
    <path
       d="m 33477,5463 c 21,-21 48,-81 103,-226 40,-108 78,-196 84,-194 6,2 37,63 70,135 32,72 62,130 65,127 3,-2 29,-62 56,-134 28,-72 55,-131 61,-131 6,0 46,92 89,205 59,156 84,210 104,225 l 26,19 h -75 c -62,0 -70,-2 -47,-11 15,-5 27,-17 27,-26 0,-21 -93,-272 -101,-272 -9,0 -99,233 -99,257 0,14 10,28 28,37 25,14 21,15 -78,15 -65,0 -97,-3 -85,-9 27,-10 40,-27 60,-76 l 16,-42 -43,-96 c -24,-52 -46,-96 -49,-96 -9,0 -99,252 -99,278 0,14 8,26 23,32 15,6 -5,9 -72,9 l -93,1 z"
       id="path306" />
    <path
       d="m 31690,5440 c 0,-19 7,-20 235,-20 h 235 v -75 c 0,-68 2,-75 20,-75 19,0 20,7 20,95 v 95 h -255 c -248,0 -255,-1 -255,-20 z"
       id="path308" />
    <path
       d="m 2517,5394 c -25,-25 8,-70 43,-59 32,10 24,59 -10,63 -14,2 -29,0 -33,-4 z"
       id="path310" />
    <path
       d="m 7877,5394 c -25,-25 8,-70 43,-59 32,10 24,59 -10,63 -14,2 -29,0 -33,-4 z"
       id="path312" />
    <path
       d="m 13207,5394 c -25,-25 8,-70 43,-59 32,10 24,59 -10,63 -14,2 -29,0 -33,-4 z"
       id="path314" />
    <path
       d="m 21197,5394 c -25,-25 8,-70 43,-59 32,10 24,59 -10,63 -14,2 -29,0 -33,-4 z"
       id="path316" />
    <path
       d="m 28277,5394 c -25,-25 8,-70 43,-59 32,10 24,59 -10,63 -14,2 -29,0 -33,-4 z"
       id="path318" />
    <path
       d="m 34177,5394 c -25,-25 8,-70 43,-59 32,10 24,59 -10,63 -14,2 -29,0 -33,-4 z"
       id="path320" />
    <path
       d="m 3220,5270 v -40 h 120 120 v 40 40 h -120 -120 z"
       id="path322" />
    <path
       d="m 28980,5270 v -40 h 120 120 v 40 40 h -120 -120 z"
       id="path324" />
    <path
       d="m 34880,5270 v -40 h 120 120 v 40 40 h -120 -120 z"
       id="path326" />
    <path
       d="m 2460,5262 c 0,-4 14,-13 30,-19 l 30,-11 -1,-154 c -1,-84 -4,-164 -8,-178 -4,-15 -20,-31 -38,-40 -61,-28 -32,-53 35,-29 60,21 67,43 70,252 l 4,187 h -61 c -34,0 -61,-4 -61,-8 z"
       id="path328" />
    <path
       d="m 7820,5262 c 0,-4 14,-13 30,-19 l 30,-11 -1,-154 c -1,-84 -4,-164 -8,-178 -4,-15 -20,-31 -38,-40 -61,-28 -32,-53 35,-29 60,21 67,43 70,252 l 4,187 h -61 c -34,0 -61,-4 -61,-8 z"
       id="path330" />
    <path
       d="m 13150,5262 c 0,-4 14,-13 30,-19 l 30,-11 -1,-154 c -1,-84 -4,-164 -8,-178 -4,-15 -20,-31 -38,-40 -61,-28 -32,-53 35,-29 60,21 67,43 70,252 l 4,187 h -61 c -34,0 -61,-4 -61,-8 z"
       id="path332" />
    <path
       d="m 21140,5262 c 0,-4 14,-13 30,-19 l 30,-11 -1,-154 c -1,-84 -4,-164 -8,-178 -4,-15 -20,-31 -38,-40 -61,-28 -32,-53 35,-29 60,21 67,43 70,252 l 4,187 h -61 c -34,0 -61,-4 -61,-8 z"
       id="path334" />
    <path
       d="m 28220,5262 c 0,-4 14,-13 30,-19 l 30,-11 -1,-154 c -1,-84 -4,-164 -8,-178 -4,-15 -20,-31 -38,-40 -61,-28 -32,-53 35,-29 60,21 67,43 70,252 l 4,187 h -61 c -34,0 -61,-4 -61,-8 z"
       id="path336" />
    <path
       d="m 34120,5262 c 0,-4 14,-13 30,-19 l 30,-11 -1,-154 c -1,-84 -4,-164 -8,-178 -4,-15 -20,-31 -38,-40 -61,-28 -32,-53 35,-29 60,21 67,43 70,252 l 4,187 h -61 c -34,0 -61,-4 -61,-8 z"
       id="path338" />
    <path
       d="m 1320,5130 c -41,-41 -8,-98 49,-85 30,6 31,5 31,-25 0,-32 -38,-79 -85,-106 -11,-7 -17,-15 -13,-19 12,-12 98,45 119,78 29,48 26,117 -7,151 -32,31 -67,33 -94,6 z"
       id="path340" />
    <path
       d="m 2730,5130 c -41,-41 -8,-98 49,-85 30,6 31,5 31,-25 0,-32 -38,-79 -85,-106 -11,-7 -17,-15 -13,-19 12,-12 98,45 119,78 29,48 26,117 -7,151 -32,31 -67,33 -94,6 z"
       id="path342" />
    <path
       d="m 6680,5130 c -41,-41 -8,-98 49,-85 30,6 31,5 31,-25 0,-32 -38,-79 -85,-106 -11,-7 -17,-15 -13,-19 12,-12 98,45 119,78 29,48 26,117 -7,151 -32,31 -67,33 -94,6 z"
       id="path344" />
    <path
       d="m 8090,5130 c -41,-41 -8,-98 49,-85 30,6 31,5 31,-25 0,-32 -38,-79 -85,-106 -11,-7 -17,-15 -13,-19 12,-12 98,45 119,78 29,48 26,117 -7,151 -32,31 -67,33 -94,6 z"
       id="path346" />
    <path
       d="m 12010,5130 c -41,-41 -8,-98 49,-85 30,6 31,5 31,-25 0,-32 -38,-79 -85,-106 -11,-7 -17,-15 -13,-19 12,-12 98,45 119,78 29,48 26,117 -7,151 -32,31 -67,33 -94,6 z"
       id="path348" />
    <path
       d="m 13420,5130 c -41,-41 -8,-98 49,-85 30,6 31,5 31,-25 0,-32 -38,-79 -85,-106 -11,-7 -17,-15 -13,-19 12,-12 98,45 119,78 29,48 26,117 -7,151 -32,31 -67,33 -94,6 z"
       id="path350" />
    <path
       d="m 20000,5130 c -41,-41 -8,-98 49,-85 30,6 31,5 31,-25 0,-32 -38,-79 -85,-106 -11,-7 -17,-15 -13,-19 12,-12 98,45 119,78 29,48 26,117 -7,151 -32,31 -67,33 -94,6 z"
       id="path352" />
    <path
       d="m 21410,5130 c -41,-41 -8,-98 49,-85 30,6 31,5 31,-25 0,-32 -38,-79 -85,-106 -11,-7 -17,-15 -13,-19 12,-12 98,45 119,78 29,48 26,117 -7,151 -32,31 -67,33 -94,6 z"
       id="path354" />
    <path
       d="m 27080,5130 c -41,-41 -8,-98 49,-85 30,6 31,5 31,-25 0,-32 -38,-79 -85,-106 -11,-7 -17,-15 -13,-19 12,-12 98,45 119,78 29,48 26,117 -7,151 -32,31 -67,33 -94,6 z"
       id="path356" />
    <path
       d="m 28490,5130 c -41,-41 -8,-98 49,-85 30,6 31,5 31,-25 0,-32 -38,-79 -85,-106 -11,-7 -17,-15 -13,-19 12,-12 98,45 119,78 29,48 26,117 -7,151 -32,31 -67,33 -94,6 z"
       id="path358" />
    <path
       d="m 32990,5130 c -41,-41 -8,-98 49,-85 30,6 31,5 31,-25 0,-32 -38,-79 -85,-106 -11,-7 -17,-15 -13,-19 12,-12 98,45 119,78 29,48 26,117 -7,151 -32,31 -67,33 -94,6 z"
       id="path360" />
    <path
       d="m 34390,5130 c -41,-41 -8,-98 49,-85 30,6 31,5 31,-25 0,-32 -38,-79 -85,-106 -11,-7 -17,-15 -13,-19 12,-12 98,45 119,78 29,48 26,117 -7,151 -32,31 -67,33 -94,6 z"
       id="path362" />
    <path
       d="m 12990,3486 v -816 h 35 35 l -2,813 -3,812 -32,3 -33,3 z"
       id="path364" />
    <path
       d="m 20970,3485 v -815 h 35 35 v 815 815 h -35 -35 z"
       id="path366" />
    <path
       d="m 20763,2770 c 196,-438 243,-538 248,-532 3,4 17,34 32,67 14,33 74,166 132,295 l 105,235 -48,-50 c -26,-27 -80,-86 -119,-130 l -73,-80 v 43 c 0,41 -1,42 -34,42 -33,0 -35,-2 -38,-39 l -3,-39 -75,84 c -41,46 -94,105 -118,132 l -43,47 z"
       id="path368" />
    <path
       d="m 12773,2780 c 80,-185 243,-540 248,-540 7,0 271,582 266,586 -2,2 -52,-51 -113,-119 l -109,-121 -5,34 c -4,31 -9,35 -37,38 -33,3 -33,3 -33,-40 v -43 l -43,45 c -23,25 -77,83 -120,130 l -77,85 z"
       id="path370" />
    <path
       d="m 11805,1681 c -95,-25 -191,-114 -221,-204 -10,-29 -17,-82 -17,-122 0,-40 7,-93 17,-122 22,-66 93,-146 159,-179 27,-14 73,-44 100,-66 90,-70 249,-137 330,-138 35,0 15,16 -42,32 -59,18 -133,76 -160,126 -10,19 -7,23 33,41 58,25 125,93 157,156 21,43 24,64 24,155 0,90 -3,111 -23,148 -58,110 -152,173 -262,178 -36,2 -78,0 -95,-5 z m 155,-43 c 81,-41 121,-134 121,-287 1,-153 -39,-243 -126,-282 -79,-37 -159,-19 -214,47 -76,93 -92,315 -31,433 52,102 153,138 250,89 z"
       id="path372" />
    <path
       d="m 19945,1681 c -95,-25 -191,-114 -221,-204 -10,-29 -17,-82 -17,-122 0,-40 7,-93 17,-122 22,-66 93,-146 159,-179 27,-14 73,-44 100,-66 90,-70 249,-137 330,-138 35,0 15,16 -42,32 -59,18 -133,76 -160,126 -10,19 -7,23 33,41 58,25 125,93 157,156 21,43 24,64 24,155 0,90 -3,111 -23,148 -58,110 -152,173 -262,178 -36,2 -78,0 -95,-5 z m 155,-43 c 81,-41 121,-134 121,-287 1,-153 -39,-243 -126,-282 -79,-37 -159,-19 -214,47 -76,93 -92,315 -31,433 52,102 153,138 250,89 z"
       id="path374" />
    <path
       d="m 22520,1485 v -115 h -115 c -108,0 -115,-1 -115,-20 0,-19 7,-20 115,-20 h 115 v -115 c 0,-108 1,-115 20,-115 19,0 20,7 20,115 v 115 h 120 c 113,0 120,1 120,20 0,19 -7,20 -120,20 h -120 v 115 c 0,108 -1,115 -20,115 -19,0 -20,-7 -20,-115 z"
       id="path376" />
    <path
       d="m 12767,1443 c 21,-21 48,-81 103,-226 40,-108 78,-196 84,-194 6,2 37,63 70,135 32,72 62,130 65,127 3,-2 29,-62 56,-134 28,-72 55,-131 61,-131 6,0 46,92 89,205 59,156 84,210 104,225 l 26,19 h -75 c -62,0 -70,-2 -47,-11 15,-5 27,-17 27,-26 0,-21 -93,-272 -101,-272 -9,0 -99,233 -99,257 0,14 10,28 28,37 25,14 21,15 -78,15 -65,0 -97,-3 -85,-9 27,-10 40,-27 60,-76 l 16,-42 -43,-96 c -24,-52 -46,-96 -49,-96 -9,0 -99,252 -99,278 0,14 8,26 23,32 15,6 -5,9 -72,9 l -93,1 z"
       id="path378" />
    <path
       d="m 20907,1443 c 21,-21 48,-81 103,-226 40,-108 78,-196 84,-194 6,2 37,63 70,135 32,72 62,130 65,127 3,-2 29,-62 56,-134 28,-72 55,-131 61,-131 6,0 46,92 89,205 59,156 84,210 104,225 l 26,19 h -75 c -62,0 -70,-2 -47,-11 15,-5 27,-17 27,-26 0,-21 -93,-272 -101,-272 -9,0 -99,233 -99,257 0,14 10,28 28,37 25,14 21,15 -78,15 -65,0 -97,-3 -85,-9 27,-10 40,-27 60,-76 l 16,-42 -43,-96 c -24,-52 -46,-96 -49,-96 -9,0 -99,252 -99,278 0,14 8,26 23,32 15,6 -5,9 -72,9 l -93,1 z"
       id="path380" />
    <path
       d="m 19120,1420 c 0,-19 7,-20 235,-20 h 235 v -75 c 0,-68 2,-75 20,-75 19,0 20,7 20,95 v 95 h -255 c -248,0 -255,-1 -255,-20 z"
       id="path382" />
    <path
       d="m 13467,1374 c -25,-25 8,-70 43,-59 32,10 24,59 -10,63 -14,2 -29,0 -33,-4 z"
       id="path384" />
    <path
       d="m 21617,1374 c -25,-25 8,-70 43,-59 32,10 24,59 -10,63 -14,2 -29,0 -33,-4 z"
       id="path386" />
    <path
       d="m 14170,1250 v -40 h 120 120 v 40 40 h -120 -120 z"
       id="path388" />
    <path
       d="m 13410,1242 c 0,-4 14,-13 30,-19 l 30,-11 -1,-154 c -1,-84 -4,-164 -8,-178 -4,-15 -20,-31 -38,-40 -61,-28 -32,-53 35,-29 60,21 67,43 70,252 l 4,187 h -61 c -34,0 -61,-4 -61,-8 z"
       id="path390" />
    <path
       d="m 21560,1242 c 0,-4 14,-13 30,-19 l 30,-11 -1,-154 c -1,-84 -4,-164 -8,-178 -4,-15 -20,-31 -38,-40 -61,-28 -32,-53 35,-29 60,21 67,43 70,252 l 4,187 h -61 c -34,0 -61,-4 -61,-8 z"
       id="path392" />
    <path
       d="m 12270,1110 c -41,-41 -8,-98 49,-85 30,6 31,5 31,-25 0,-32 -38,-79 -85,-106 -11,-7 -17,-15 -13,-19 12,-12 98,45 119,78 29,48 26,117 -7,151 -32,31 -67,33 -94,6 z"
       id="path394" />
    <path
       d="m 13680,1110 c -41,-41 -8,-98 49,-85 30,6 31,5 31,-25 0,-32 -38,-79 -85,-106 -11,-7 -17,-15 -13,-19 12,-12 98,45 119,78 29,48 26,117 -7,151 -32,31 -67,33 -94,6 z"
       id="path396" />
    <path
       d="m 20420,1110 c -41,-41 -8,-98 49,-85 30,6 31,5 31,-25 0,-32 -38,-79 -85,-106 -11,-7 -17,-15 -13,-19 12,-12 98,45 119,78 29,48 26,117 -7,151 -32,31 -67,33 -94,6 z"
       id="path398" />
    <path
       d="m 21820,1110 c -41,-41 -8,-98 49,-85 30,6 31,5 31,-25 0,-32 -38,-79 -85,-106 -11,-7 -17,-15 -13,-19 12,-12 98,45 119,78 29,48 26,117 -7,151 -32,31 -67,33 -94,6 z"
       id="path400" />
  </g>
</svg>
