<?xml version="1.0" encoding="UTF-8" standalone="no"?>
<svg
   version="1.0"
   width="2904.8655pt"
   height="890.7641pt"
   viewBox="0 0 2904.8655 890.7641"
   preserveAspectRatio="xMidYMid meet"
   id="svg160"
   xmlns="http://www.w3.org/2000/svg"
   xmlns:svg="http://www.w3.org/2000/svg">
  <defs
     id="defs164" />
  <metadata
     id="metadata2">
Created by potrace 1.16, written by Peter Selinger 2001-2019
</metadata>
  <g
     transform="matrix(0.1,0,0,-0.1,-87.134613,975.76411)"
     fill="#000000"
     stroke="none"
     id="g158">
    <path
       d="m 25859,9732 c -92,-59 -173,-182 -198,-300 -31,-150 10,-320 105,-430 37,-44 134,-116 143,-106 3,2 -18,28 -46,57 -66,67 -89,116 -108,223 -18,106 -19,205 -1,305 19,106 48,166 108,222 28,26 49,50 46,52 -2,3 -24,-8 -49,-23 z"
       id="path4" />
    <path
       d="m 28600,9755 c 0,-3 22,-28 49,-54 27,-26 58,-65 69,-87 31,-61 52,-182 52,-296 0,-183 -40,-301 -125,-375 -25,-23 -45,-44 -45,-47 0,-17 85,43 130,90 87,92 130,203 130,340 0,132 -44,247 -130,338 -44,47 -130,107 -130,91 z"
       id="path6" />
    <path
       d="m 10205,9741 c -95,-25 -191,-114 -221,-204 -10,-29 -17,-82 -17,-122 0,-40 7,-93 17,-122 22,-66 93,-146 159,-179 27,-14 73,-44 100,-66 90,-70 249,-137 330,-138 35,0 15,16 -42,32 -59,18 -133,76 -160,126 -10,19 -7,23 33,41 58,25 125,93 157,156 21,43 24,64 24,155 0,90 -3,111 -23,148 -58,110 -152,173 -262,178 -36,2 -78,0 -95,-5 z m 155,-43 c 81,-41 121,-134 121,-287 1,-153 -39,-243 -126,-282 -79,-37 -159,-19 -214,47 -76,93 -92,315 -31,433 52,102 153,138 250,89 z"
       id="path8" />
    <path
       d="m 19375,9741 c -95,-25 -191,-114 -221,-204 -10,-29 -17,-82 -17,-122 0,-40 7,-93 17,-122 22,-66 93,-146 159,-179 27,-14 73,-44 100,-66 90,-70 249,-137 330,-138 35,0 15,16 -42,32 -59,18 -133,76 -160,126 -10,19 -7,23 33,41 58,25 125,93 157,156 21,43 24,64 24,155 0,90 -3,111 -23,148 -58,110 -152,173 -262,178 -36,2 -78,0 -95,-5 z m 155,-43 c 81,-41 121,-134 121,-287 1,-153 -39,-243 -126,-282 -79,-37 -159,-19 -214,47 -76,93 -92,315 -31,433 52,102 153,138 250,89 z"
       id="path10" />
    <path
       d="m 28175,9741 c -95,-25 -191,-114 -221,-204 -10,-29 -17,-82 -17,-122 0,-40 7,-93 17,-122 22,-66 93,-146 159,-179 27,-14 73,-44 100,-66 90,-70 249,-137 330,-138 35,0 15,16 -42,32 -59,18 -133,76 -160,126 -10,19 -7,23 33,41 58,25 125,93 157,156 21,43 24,64 24,155 0,90 -3,111 -23,148 -58,110 -152,173 -262,178 -36,2 -78,0 -95,-5 z m 155,-43 c 81,-41 121,-134 121,-287 1,-153 -39,-243 -126,-282 -79,-37 -159,-19 -214,47 -76,93 -92,315 -31,433 52,102 153,138 250,89 z"
       id="path12" />
    <path
       d="m 3068,9731 c 19,-5 39,-14 45,-20 9,-9 12,-94 12,-296 0,-202 -3,-287 -12,-296 -6,-6 -26,-15 -45,-19 -21,-5 17,-8 107,-8 93,0 129,3 105,8 -54,13 -60,29 -60,166 v 123 l 68,-6 c 86,-7 143,9 186,52 57,57 66,160 18,224 -10,14 -39,37 -63,51 -42,24 -53,25 -219,27 -111,1 -163,-1 -142,-6 z m 265,-32 c 44,-23 66,-53 78,-105 27,-120 -56,-208 -168,-178 -22,6 -23,10 -23,144 0,101 3,140 13,143 23,10 78,7 100,-4 z"
       id="path14" />
    <path
       d="m 7998,9731 c 19,-5 39,-14 45,-20 17,-17 17,-575 0,-592 -6,-6 -26,-15 -45,-19 -21,-5 17,-8 107,-8 93,0 129,3 105,8 -54,13 -60,29 -60,166 v 123 l 68,-6 c 86,-7 143,9 186,52 57,57 66,160 18,224 -10,14 -39,37 -63,51 -42,24 -53,25 -219,27 -111,1 -163,-1 -142,-6 z m 265,-32 c 44,-23 66,-53 78,-105 27,-120 -56,-208 -168,-178 -22,6 -23,10 -23,144 0,101 3,140 13,143 23,10 78,7 100,-4 z"
       id="path16" />
    <path
       d="m 17168,9731 c 19,-5 39,-14 45,-20 9,-9 12,-94 12,-296 0,-202 -3,-287 -12,-296 -6,-6 -26,-15 -45,-19 -21,-5 17,-8 107,-8 93,0 129,3 105,8 -54,13 -60,29 -60,166 v 123 l 68,-6 c 86,-7 143,9 186,52 57,57 66,160 18,224 -10,14 -39,37 -63,51 -42,24 -53,25 -219,27 -111,1 -163,-1 -142,-6 z m 265,-32 c 44,-23 66,-53 78,-105 27,-120 -56,-208 -168,-178 -22,6 -23,10 -23,144 0,101 3,140 13,143 23,10 78,7 100,-4 z"
       id="path18" />
    <path
       d="m 25968,9731 c 19,-5 39,-14 45,-20 9,-9 12,-94 12,-296 0,-202 -3,-287 -12,-296 -6,-6 -26,-15 -45,-19 -21,-5 17,-8 107,-8 93,0 129,3 105,8 -54,13 -60,29 -60,166 v 123 l 68,-6 c 86,-7 143,9 186,52 57,57 66,160 18,224 -10,14 -39,37 -63,51 -42,24 -53,25 -219,27 -111,1 -163,-1 -142,-6 z m 265,-32 c 44,-23 66,-53 78,-105 27,-120 -56,-208 -168,-178 -22,6 -23,10 -23,144 0,101 3,140 13,143 23,10 78,7 100,-4 z"
       id="path20" />
    <path
       d="m 4200,9545 v -115 h -120 c -113,0 -120,-1 -120,-20 0,-19 7,-20 120,-20 h 120 v -95 -95 h -120 c -113,0 -120,-1 -120,-20 0,-19 7,-20 255,-20 248,0 255,1 255,20 0,19 -7,20 -115,20 h -115 v 95 95 h 115 c 108,0 115,1 115,20 0,19 -7,20 -115,20 h -115 v 115 c 0,108 -1,115 -20,115 -19,0 -20,-7 -20,-115 z"
       id="path22" />
    <path
       d="m 11380,9545 v -115 h -115 c -108,0 -115,-1 -115,-20 0,-19 7,-20 115,-20 h 115 v -115 c 0,-108 1,-115 20,-115 19,0 20,7 20,115 v 115 h 120 c 113,0 120,1 120,20 0,19 -7,20 -120,20 h -120 v 115 c 0,108 -1,115 -20,115 -19,0 -20,-7 -20,-115 z"
       id="path24" />
    <path
       d="m 29650,9545 v -115 h -120 c -113,0 -120,-1 -120,-20 0,-19 7,-20 120,-20 h 120 v -95 -95 h -120 c -113,0 -120,-1 -120,-20 0,-19 7,-20 255,-20 248,0 255,1 255,20 0,19 -7,20 -115,20 h -115 v 95 95 h 115 c 108,0 115,1 115,20 0,19 -7,20 -115,20 h -115 v 115 c 0,108 -1,115 -20,115 -19,0 -20,-7 -20,-115 z"
       id="path26" />
    <path
       d="m 9031,9353 c -57,-131 -106,-244 -108,-250 -4,-9 7,-13 33,-13 h 39 l 84,195 c 46,108 86,193 89,190 3,-3 42,-90 87,-193 l 81,-187 37,-3 c 20,-2 37,0 37,4 0,3 -48,116 -106,250 l -106,244 h -32 -32 z"
       id="path28" />
    <path
       d="m 18201,9353 c -57,-131 -106,-244 -108,-250 -4,-9 7,-13 33,-13 h 39 l 84,195 c 46,108 86,193 89,190 3,-3 42,-90 87,-193 l 81,-187 37,-3 c 20,-2 37,0 37,4 0,3 -48,116 -106,250 l -106,244 h -32 -32 z"
       id="path30" />
    <path
       d="m 27001,9353 c -57,-131 -106,-244 -108,-250 -4,-9 7,-13 33,-13 h 39 l 84,195 c 46,108 86,193 89,190 3,-3 42,-90 87,-193 l 81,-187 37,-3 c 20,-2 37,0 37,4 0,3 -48,116 -106,250 l -106,244 h -32 -32 z"
       id="path32" />
    <path
       d="m 971,9519 c -49,-30 -69,-57 -87,-118 -32,-108 -1,-243 67,-294 61,-44 184,-24 224,37 18,28 35,26 35,-3 0,-11 8,-29 18,-41 26,-32 64,-21 86,24 18,38 21,86 6,86 -5,0 -10,-8 -10,-18 0,-47 -52,-56 -75,-12 -20,39 -20,46 15,196 16,71 30,135 30,142 0,7 -14,12 -39,12 h -39 l -12,-66 -13,-67 -25,53 c -40,85 -111,112 -181,69 z m 123,-32 c 13,-13 33,-50 45,-82 24,-63 23,-84 -5,-182 -32,-114 -109,-150 -151,-69 -21,41 -30,199 -14,263 22,87 77,118 125,70 z"
       id="path34" />
    <path
       d="m 7051,9519 c -49,-30 -69,-57 -87,-118 -32,-108 -1,-243 67,-294 61,-44 184,-24 224,37 18,28 35,26 35,-3 0,-11 8,-29 18,-41 26,-32 64,-21 86,24 18,38 21,86 6,86 -5,0 -10,-8 -10,-18 0,-47 -52,-56 -75,-12 -20,39 -20,46 15,196 16,71 30,135 30,142 0,7 -14,12 -39,12 h -39 l -12,-66 -13,-67 -25,53 c -40,85 -111,112 -181,69 z m 123,-32 c 13,-13 33,-50 45,-82 24,-63 23,-84 -5,-182 -32,-114 -109,-150 -151,-69 -21,41 -30,199 -14,263 22,87 77,118 125,70 z"
       id="path36" />
    <path
       d="m 16221,9519 c -49,-30 -69,-57 -87,-118 -32,-108 -1,-243 67,-294 61,-44 184,-24 224,37 18,28 35,26 35,-3 0,-11 8,-29 18,-41 26,-32 64,-21 86,24 18,38 21,86 6,86 -5,0 -10,-8 -10,-18 0,-47 -52,-56 -75,-12 -20,39 -20,46 15,196 16,71 30,135 30,142 0,7 -14,12 -39,12 h -39 l -12,-66 -13,-67 -25,53 c -40,85 -111,112 -181,69 z m 123,-32 c 13,-13 33,-50 45,-82 24,-63 23,-84 -5,-182 -32,-114 -109,-150 -151,-69 -21,41 -30,199 -14,263 22,87 77,118 125,70 z"
       id="path38" />
    <path
       d="m 24131,9519 c -49,-30 -69,-57 -87,-118 -32,-108 -1,-243 67,-294 61,-44 184,-24 224,37 18,28 35,26 35,-3 0,-11 8,-29 18,-41 26,-32 64,-21 86,24 18,38 21,86 6,86 -5,0 -10,-8 -10,-18 0,-47 -52,-56 -75,-12 -20,39 -20,46 15,196 16,71 30,135 30,142 0,7 -14,12 -39,12 h -39 l -12,-66 -13,-67 -25,53 c -40,85 -111,112 -181,69 z m 123,-32 c 13,-13 33,-50 45,-82 24,-63 23,-84 -5,-182 -32,-114 -109,-150 -151,-69 -21,41 -30,199 -14,263 22,87 77,118 125,70 z"
       id="path40" />
    <path
       d="m 1890,9480 c 0,-19 7,-20 235,-20 h 235 v -75 c 0,-68 2,-75 20,-75 19,0 20,7 20,95 v 95 h -255 c -248,0 -255,-1 -255,-20 z"
       id="path42" />
    <path
       d="m 2470,9480 c 0,-19 7,-20 235,-20 h 235 v -75 c 0,-68 2,-75 20,-75 19,0 20,7 20,95 v 95 h -255 c -248,0 -255,-1 -255,-20 z"
       id="path44" />
    <path
       d="m 25050,9480 c 0,-19 7,-20 235,-20 h 235 v -75 c 0,-68 2,-75 20,-75 19,0 20,7 20,95 v 95 h -255 c -248,0 -255,-1 -255,-20 z"
       id="path46" />
    <path
       d="m 20340,9310 v -40 h 120 120 v 40 40 h -120 -120 z"
       id="path48" />
    <path
       d="m 1420,9170 c -41,-41 -8,-98 49,-85 30,6 31,5 31,-25 0,-32 -38,-79 -85,-106 -11,-7 -17,-15 -13,-19 12,-12 98,45 119,78 29,48 26,117 -7,151 -32,31 -67,33 -94,6 z"
       id="path50" />
    <path
       d="m 3510,9170 c -41,-41 -8,-98 49,-85 30,6 31,5 31,-25 0,-32 -38,-79 -85,-106 -11,-7 -17,-15 -13,-19 12,-12 98,45 119,78 29,48 26,117 -7,151 -32,31 -67,33 -94,6 z"
       id="path52" />
    <path
       d="m 7500,9170 c -41,-41 -8,-98 49,-85 30,6 31,5 31,-25 0,-32 -38,-79 -85,-106 -11,-7 -17,-15 -13,-19 12,-12 98,45 119,78 29,48 26,117 -7,151 -32,31 -67,33 -94,6 z"
       id="path54" />
    <path
       d="m 10680,9170 c -41,-41 -8,-98 49,-85 30,6 31,5 31,-25 0,-32 -38,-79 -85,-106 -11,-7 -17,-15 -13,-19 12,-12 98,45 119,78 29,48 26,117 -7,151 -32,31 -67,33 -94,6 z"
       id="path56" />
    <path
       d="m 16670,9170 c -41,-41 -8,-98 49,-85 30,6 31,5 31,-25 0,-32 -38,-79 -85,-106 -11,-7 -17,-15 -13,-19 12,-12 98,45 119,78 29,48 26,117 -7,151 -32,31 -67,33 -94,6 z"
       id="path58" />
    <path
       d="m 19840,9170 c -41,-41 -8,-98 49,-85 30,6 31,5 31,-25 0,-32 -38,-79 -85,-106 -11,-7 -17,-15 -13,-19 12,-12 98,45 119,78 29,48 26,117 -7,151 -32,31 -67,33 -94,6 z"
       id="path60" />
    <path
       d="m 24580,9170 c -41,-41 -8,-98 49,-85 30,6 31,5 31,-25 0,-32 -38,-79 -85,-106 -11,-7 -17,-15 -13,-19 12,-12 98,45 119,78 29,48 26,117 -7,151 -32,31 -67,33 -94,6 z"
       id="path62" />
    <path
       d="m 28960,9170 c -41,-41 -8,-98 49,-85 30,6 31,5 31,-25 0,-32 -38,-79 -85,-106 -11,-7 -17,-15 -13,-19 12,-12 98,45 119,78 29,48 26,117 -7,151 -32,31 -67,33 -94,6 z"
       id="path64" />
    <path
       d="m 16595,7613 c -423,-410 -823,-796 -888,-859 l -118,-113 18,-25 c 10,-14 21,-26 24,-26 5,0 1513,1451 1699,1636 l 85,84 -25,24 -25,24 z"
       id="path66" />
    <path
       d="m 18592,8333 c -16,-3 -23,-10 -20,-21 3,-9 94,-376 204,-814 181,-727 201,-798 219,-798 54,1 59,-27 -155,829 -123,493 -207,810 -214,810 -6,-1 -22,-4 -34,-6 z"
       id="path68" />
    <path
       d="m 2640,7515 v -815 h 35 35 v 815 815 h -35 -35 z"
       id="path70" />
    <path
       d="m 9310,7514 v -815 l 33,3 32,3 3,813 2,812 h -35 -35 z"
       id="path72" />
    <path
       d="m 26942,7518 3,-813 33,-3 32,-3 v 815 816 h -35 -35 z"
       id="path74" />
    <path
       d="m 19154,6771 c -43,-82 -82,-147 -85,-145 -4,2 -9,17 -12,34 -7,33 -13,35 -51,20 -23,-8 -24,-12 -16,-41 5,-18 8,-34 7,-36 -2,-1 -64,38 -138,88 -74,50 -138,93 -143,96 -14,9 4,-15 209,-275 104,-132 192,-238 194,-236 5,5 120,638 117,641 -1,2 -38,-64 -82,-146 z"
       id="path76" />
    <path
       d="m 15396,6595 c -65,-163 -117,-298 -115,-299 4,-4 610,211 616,218 2,2 -74,1 -169,-2 l -173,-4 28,29 27,29 -25,24 -25,24 -31,-30 -31,-29 5,55 c 10,88 20,280 15,280 -2,0 -57,-133 -122,-295 z"
       id="path78" />
    <path
       d="m 2423,6820 c 69,-159 240,-536 247,-543 3,-4 66,124 138,284 73,161 130,294 128,296 -2,2 -52,-51 -112,-118 l -109,-122 -3,36 c -3,35 -5,37 -38,37 -33,0 -34,-1 -34,-37 v -38 l -48,50 c -26,28 -80,86 -120,130 l -73,80 z"
       id="path80" />
    <path
       d="m 9071,6863 c 11,-33 265,-593 269,-593 6,0 272,592 268,595 -2,2 -52,-53 -113,-121 l -110,-123 -3,35 c -3,32 -6,34 -38,34 -32,0 -34,-2 -34,-36 0,-20 -4,-34 -9,-32 -5,2 -57,57 -116,123 -129,143 -119,133 -114,118 z"
       id="path82" />
    <path
       d="m 26714,6855 c 35,-94 262,-583 268,-577 9,9 269,584 266,588 -2,1 -53,-53 -113,-121 -61,-68 -113,-124 -117,-125 -5,0 -8,16 -8,35 0,33 -2,35 -34,35 -32,0 -35,-2 -38,-35 l -3,-35 -114,128 c -63,70 -112,118 -107,107 z"
       id="path84" />
    <path
       d="m 19375,5711 c -95,-25 -191,-114 -221,-204 -10,-29 -17,-82 -17,-122 0,-40 7,-93 17,-122 22,-66 93,-146 159,-179 27,-14 73,-44 100,-66 90,-70 249,-137 330,-138 35,0 15,16 -42,32 -59,18 -133,76 -160,126 -10,19 -7,23 33,41 58,25 125,93 157,156 21,43 24,64 24,155 0,90 -3,111 -23,148 -58,110 -152,173 -262,178 -36,2 -78,0 -95,-5 z m 155,-43 c 81,-41 121,-134 121,-287 1,-153 -39,-243 -126,-282 -79,-37 -159,-19 -214,47 -76,93 -92,315 -31,433 52,102 153,138 250,89 z"
       id="path86" />
    <path
       d="m 28465,5711 c -95,-25 -191,-114 -221,-204 -10,-29 -17,-82 -17,-122 0,-40 7,-93 17,-122 22,-66 93,-146 159,-179 27,-14 73,-44 100,-66 90,-70 249,-137 330,-138 35,0 15,16 -42,32 -59,18 -133,76 -160,126 -10,19 -7,23 33,41 58,25 125,93 157,156 21,43 24,64 24,155 0,90 -3,111 -23,148 -58,110 -152,173 -262,178 -36,2 -78,0 -95,-5 z m 155,-43 c 81,-41 121,-134 121,-287 1,-153 -39,-243 -126,-282 -79,-37 -159,-19 -214,47 -76,93 -92,315 -31,433 52,102 153,138 250,89 z"
       id="path88" />
    <path
       d="m 2478,5701 c 19,-5 39,-14 45,-20 17,-17 17,-575 0,-592 -6,-6 -26,-15 -45,-19 -21,-5 17,-8 107,-8 93,0 129,3 105,8 -54,13 -60,29 -60,166 v 123 l 68,-6 c 86,-7 143,9 186,52 57,57 66,160 18,224 -10,14 -39,37 -63,51 -42,24 -53,25 -219,27 -111,1 -163,-1 -142,-6 z m 265,-32 c 44,-23 66,-53 78,-105 27,-120 -56,-208 -168,-178 -22,6 -23,10 -23,144 0,101 3,140 13,143 23,10 78,7 100,-4 z"
       id="path90" />
    <path
       d="m 9148,5701 c 19,-5 39,-14 45,-20 17,-17 17,-575 0,-592 -6,-6 -26,-15 -45,-19 -21,-5 17,-8 107,-8 93,0 129,3 105,8 -54,13 -60,29 -60,166 v 123 l 68,-6 c 86,-7 143,9 186,52 57,57 66,160 18,224 -10,14 -39,37 -63,51 -42,24 -53,25 -219,27 -111,1 -163,-1 -142,-6 z m 265,-32 c 44,-23 66,-53 78,-105 27,-120 -56,-208 -168,-178 -22,6 -23,10 -23,144 0,101 3,140 13,143 23,10 78,7 100,-4 z"
       id="path92" />
    <path
       d="m 14248,5701 c 19,-5 39,-14 45,-20 9,-9 12,-94 12,-296 0,-202 -3,-287 -12,-296 -6,-6 -26,-15 -45,-19 -21,-5 17,-8 107,-8 93,0 129,3 105,8 -54,13 -60,29 -60,166 v 123 l 68,-6 c 86,-7 143,9 186,52 57,57 66,160 18,224 -10,14 -39,37 -63,51 -42,24 -53,25 -219,27 -111,1 -163,-1 -142,-6 z m 265,-32 c 44,-23 66,-53 78,-105 27,-120 -56,-208 -168,-178 -22,6 -23,10 -23,144 0,101 3,140 13,143 23,10 78,7 100,-4 z"
       id="path94" />
    <path
       d="m 25688,5701 c 19,-5 39,-14 45,-20 9,-9 12,-94 12,-296 0,-202 -3,-287 -12,-296 -6,-6 -26,-15 -45,-19 -21,-5 17,-8 107,-8 93,0 129,3 105,8 -54,13 -60,29 -60,166 v 123 l 68,-6 c 86,-7 143,9 186,52 57,57 66,160 18,224 -10,14 -39,37 -63,51 -42,24 -53,25 -219,27 -111,1 -163,-1 -142,-6 z m 265,-32 c 44,-23 66,-53 78,-105 27,-120 -56,-208 -168,-178 -22,6 -23,10 -23,144 0,101 3,140 13,143 23,10 78,7 100,-4 z"
       id="path96" />
    <path
       d="m 3610,5515 v -115 h -120 c -113,0 -120,-1 -120,-20 0,-19 7,-20 120,-20 h 120 v -95 -95 h -120 c -113,0 -120,-1 -120,-20 0,-19 7,-20 255,-20 248,0 255,1 255,20 0,19 -7,20 -115,20 h -115 v 95 95 h 115 c 108,0 115,1 115,20 0,19 -7,20 -115,20 h -115 v 115 c 0,108 -1,115 -20,115 -19,0 -20,-7 -20,-115 z"
       id="path98" />
    <path
       d="m 10280,5515 v -115 h -115 c -108,0 -115,-1 -115,-20 0,-19 7,-20 115,-20 h 115 v -115 c 0,-108 1,-115 20,-115 19,0 20,7 20,115 v 115 h 120 c 113,0 120,1 120,20 0,19 -7,20 -120,20 h -120 v 115 c 0,108 -1,115 -20,115 -19,0 -20,-7 -20,-115 z"
       id="path100" />
    <path
       d="m 29630,5515 v -115 h -120 c -113,0 -120,-1 -120,-20 0,-19 7,-20 120,-20 h 120 v -95 -95 h -120 c -113,0 -120,-1 -120,-20 0,-19 7,-20 255,-20 248,0 255,1 255,20 0,19 -7,20 -115,20 h -115 v 95 95 h 115 c 108,0 115,1 115,20 0,19 -7,20 -115,20 h -115 v 115 c 0,108 -1,115 -20,115 -19,0 -20,-7 -20,-115 z"
       id="path102" />
    <path
       d="m 26614,5544 c 4,-10 53,-123 108,-251 l 101,-233 h 33 c 35,0 14,-40 200,385 24,55 44,103 44,108 0,4 -17,7 -37,5 l -37,-3 -81,-187 c -44,-103 -83,-189 -86,-193 -4,-3 -44,81 -90,187 l -84,193 -39,3 c -34,3 -38,1 -32,-14 z"
       id="path104" />
    <path
       d="m 1531,5489 c -49,-30 -69,-57 -87,-118 -32,-108 -1,-243 67,-294 61,-44 184,-24 224,37 18,28 35,26 35,-3 0,-11 8,-29 18,-41 26,-32 64,-21 86,24 18,38 21,86 6,86 -5,0 -10,-8 -10,-18 0,-47 -52,-56 -75,-12 -20,39 -20,46 15,196 16,71 30,135 30,142 0,7 -14,12 -39,12 h -39 l -12,-66 -13,-67 -25,53 c -40,85 -111,112 -181,69 z m 123,-32 c 13,-13 33,-50 45,-82 24,-63 23,-84 -5,-182 -32,-114 -109,-150 -151,-69 -21,41 -30,199 -14,263 22,87 77,118 125,70 z"
       id="path106" />
    <path
       d="m 8201,5489 c -49,-30 -69,-57 -87,-118 -32,-108 -1,-243 67,-294 61,-44 184,-24 224,37 18,28 35,26 35,-3 0,-11 8,-29 18,-41 26,-32 64,-21 86,24 18,38 21,86 6,86 -5,0 -10,-8 -10,-18 0,-47 -52,-56 -75,-12 -20,39 -20,46 15,196 16,71 30,135 30,142 0,7 -14,12 -39,12 h -39 l -12,-66 -13,-67 -25,53 c -40,85 -111,112 -181,69 z m 123,-32 c 13,-13 33,-50 45,-82 24,-63 23,-84 -5,-182 -32,-114 -109,-150 -151,-69 -21,41 -30,199 -14,263 22,87 77,118 125,70 z"
       id="path108" />
    <path
       d="m 13301,5489 c -49,-30 -69,-57 -87,-118 -32,-108 -1,-243 67,-294 61,-44 184,-24 224,37 18,28 35,26 35,-3 0,-11 8,-29 18,-41 26,-32 64,-21 86,24 18,38 21,86 6,86 -5,0 -10,-8 -10,-18 0,-47 -52,-56 -75,-12 -20,39 -20,46 15,196 16,71 30,135 30,142 0,7 -14,12 -39,12 h -39 l -12,-66 -13,-67 -25,53 c -40,85 -111,112 -181,69 z m 123,-32 c 13,-13 33,-50 45,-82 24,-63 23,-84 -5,-182 -32,-114 -109,-150 -151,-69 -21,41 -30,199 -14,263 22,87 77,118 125,70 z"
       id="path110" />
    <path
       d="m 18201,5489 c -49,-30 -69,-57 -87,-118 -32,-108 -1,-243 67,-294 61,-44 184,-24 224,37 18,28 35,26 35,-3 0,-11 8,-29 18,-41 26,-32 64,-21 86,24 18,38 21,86 6,86 -5,0 -10,-8 -10,-18 0,-47 -52,-56 -75,-12 -20,39 -20,46 15,196 16,71 30,135 30,142 0,7 -14,12 -39,12 h -39 l -12,-66 -13,-67 -25,53 c -40,85 -111,112 -181,69 z m 123,-32 c 13,-13 33,-50 45,-82 24,-63 23,-84 -5,-182 -32,-114 -109,-150 -151,-69 -21,41 -30,199 -14,263 22,87 77,118 125,70 z"
       id="path112" />
    <path
       d="m 24171,5489 c -49,-30 -69,-57 -87,-118 -32,-108 -1,-243 67,-294 61,-44 184,-24 224,37 18,28 35,26 35,-3 0,-11 8,-29 18,-41 26,-32 64,-21 86,24 18,38 21,86 6,86 -5,0 -10,-8 -10,-18 0,-47 -52,-56 -75,-12 -20,39 -20,46 15,196 16,71 30,135 30,142 0,7 -14,12 -39,12 h -39 l -12,-66 -13,-67 -25,53 c -40,85 -111,112 -181,69 z m 123,-32 c 13,-13 33,-50 45,-82 24,-63 23,-84 -5,-182 -32,-114 -109,-150 -151,-69 -21,41 -30,199 -14,263 22,87 77,118 125,70 z"
       id="path114" />
    <path
       d="m 25090,5450 c 0,-19 7,-20 235,-20 h 235 v -75 c 0,-68 2,-75 20,-75 19,0 20,7 20,95 v 95 h -255 c -248,0 -255,-1 -255,-20 z"
       id="path116" />
    <path
       d="m 27640,5450 c 0,-19 7,-20 235,-20 h 235 v -75 c 0,-68 2,-75 20,-75 19,0 20,7 20,95 v 95 h -255 c -248,0 -255,-1 -255,-20 z"
       id="path118" />
    <path
       d="m 15180,5280 v -40 h 120 120 v 40 40 h -120 -120 z"
       id="path120" />
    <path
       d="m 20340,5280 v -40 h 120 120 v 40 40 h -120 -120 z"
       id="path122" />
    <path
       d="m 1980,5140 c -41,-41 -8,-98 49,-85 30,6 31,5 31,-25 0,-32 -38,-79 -85,-106 -11,-7 -17,-15 -13,-19 12,-12 98,45 119,78 29,48 26,117 -7,151 -32,31 -67,33 -94,6 z"
       id="path124" />
    <path
       d="m 2920,5140 c -41,-41 -8,-98 49,-85 30,6 31,5 31,-25 0,-32 -38,-79 -85,-106 -11,-7 -17,-15 -13,-19 12,-12 98,45 119,78 29,48 26,117 -7,151 -32,31 -67,33 -94,6 z"
       id="path126" />
    <path
       d="m 8650,5140 c -41,-41 -8,-98 49,-85 30,6 31,5 31,-25 0,-32 -38,-79 -85,-106 -11,-7 -17,-15 -13,-19 12,-12 98,45 119,78 29,48 26,117 -7,151 -32,31 -67,33 -94,6 z"
       id="path128" />
    <path
       d="m 9580,5140 c -41,-41 -8,-98 49,-85 30,6 31,5 31,-25 0,-32 -38,-79 -85,-106 -11,-7 -17,-15 -13,-19 12,-12 98,45 119,78 29,48 26,117 -7,151 -32,31 -67,33 -94,6 z"
       id="path130" />
    <path
       d="m 13750,5140 c -41,-41 -8,-98 49,-85 30,6 31,5 31,-25 0,-32 -38,-79 -85,-106 -11,-7 -17,-15 -13,-19 12,-12 98,45 119,78 29,48 26,117 -7,151 -32,31 -67,33 -94,6 z"
       id="path132" />
    <path
       d="m 14690,5140 c -41,-41 -8,-98 49,-85 30,6 31,5 31,-25 0,-32 -38,-79 -85,-106 -11,-7 -17,-15 -13,-19 12,-12 98,45 119,78 29,48 26,117 -7,151 -32,31 -67,33 -94,6 z"
       id="path134" />
    <path
       d="m 18650,5140 c -41,-41 -8,-98 49,-85 30,6 31,5 31,-25 0,-32 -38,-79 -85,-106 -11,-7 -17,-15 -13,-19 12,-12 98,45 119,78 29,48 26,117 -7,151 -32,31 -67,33 -94,6 z"
       id="path136" />
    <path
       d="m 19840,5140 c -41,-41 -8,-98 49,-85 30,6 31,5 31,-25 0,-32 -38,-79 -85,-106 -11,-7 -17,-15 -13,-19 12,-12 98,45 119,78 29,48 26,117 -7,151 -32,31 -67,33 -94,6 z"
       id="path138" />
    <path
       d="m 24620,5140 c -41,-41 -8,-98 49,-85 30,6 31,5 31,-25 0,-32 -38,-79 -85,-106 -11,-7 -17,-15 -13,-19 12,-12 98,45 119,78 29,48 26,117 -7,151 -32,31 -67,33 -94,6 z"
       id="path140" />
    <path
       d="m 28940,5140 c -41,-41 -8,-98 49,-85 30,6 31,5 31,-25 0,-32 -38,-79 -85,-106 -11,-7 -17,-15 -13,-19 12,-12 98,45 119,78 29,48 26,117 -7,151 -32,31 -67,33 -94,6 z"
       id="path142" />
    <path
       d="m 9310,3496 v -816 h 35 35 l -2,813 -3,812 -32,3 -33,3 z"
       id="path144" />
    <path
       d="m 9073,2830 c 7,-20 244,-545 258,-572 9,-18 29,19 145,278 74,163 133,299 131,300 -1,2 -53,-53 -114,-121 l -112,-125 -3,38 c -3,34 -6,37 -35,40 -32,3 -33,2 -33,-37 0,-23 -3,-41 -7,-40 -5,0 -39,36 -78,80 -121,137 -157,174 -152,159 z"
       id="path146" />
    <path
       d="m 9235,1681 c -95,-25 -191,-114 -221,-204 -10,-29 -17,-82 -17,-122 0,-40 7,-93 17,-122 22,-66 93,-146 159,-179 27,-14 73,-44 100,-66 90,-70 249,-137 330,-138 35,0 15,16 -42,32 -59,18 -133,76 -160,126 -10,19 -7,23 33,41 58,25 125,93 157,156 21,43 24,64 24,155 0,90 -3,111 -23,148 -58,110 -152,173 -262,178 -36,2 -78,0 -95,-5 z m 155,-43 c 81,-41 121,-134 121,-287 1,-153 -39,-243 -126,-282 -79,-37 -159,-19 -214,47 -76,93 -92,315 -31,433 52,102 153,138 250,89 z"
       id="path148" />
    <path
       d="m 10410,1485 v -115 h -115 c -108,0 -115,-1 -115,-20 0,-19 7,-20 115,-20 h 115 v -115 c 0,-108 1,-115 20,-115 19,0 20,7 20,115 v 115 h 120 c 113,0 120,1 120,20 0,19 -7,20 -120,20 h -120 v 115 c 0,108 -1,115 -20,115 -19,0 -20,-7 -20,-115 z"
       id="path150" />
    <path
       d="m 8061,1459 c -49,-30 -69,-57 -87,-118 -32,-108 -1,-243 67,-294 61,-44 184,-24 224,37 18,28 35,26 35,-3 0,-11 8,-29 18,-41 26,-32 64,-21 86,24 18,38 21,86 6,86 -5,0 -10,-8 -10,-18 0,-47 -52,-56 -75,-12 -20,39 -20,46 15,196 16,71 30,135 30,142 0,7 -14,12 -39,12 h -39 l -12,-66 -13,-67 -25,53 c -40,85 -111,112 -181,69 z m 123,-32 c 13,-13 33,-50 45,-82 24,-63 23,-84 -5,-182 -32,-114 -109,-150 -151,-69 -21,41 -30,199 -14,263 22,87 77,118 125,70 z"
       id="path152" />
    <path
       d="m 8510,1110 c -41,-41 -8,-98 49,-85 30,6 31,5 31,-25 0,-32 -38,-79 -85,-106 -11,-7 -17,-15 -13,-19 12,-12 98,45 119,78 29,48 26,117 -7,151 -32,31 -67,33 -94,6 z"
       id="path154" />
    <path
       d="m 9710,1110 c -41,-41 -8,-98 49,-85 30,6 31,5 31,-25 0,-32 -38,-79 -85,-106 -11,-7 -17,-15 -13,-19 12,-12 98,45 119,78 29,48 26,117 -7,151 -32,31 -67,33 -94,6 z"
       id="path156" />
  </g>
</svg>
