<?xml version="1.0" encoding="UTF-8" standalone="no"?>
<svg
   version="1.0"
   width="3161.3022pt"
   height="890.7641pt"
   viewBox="0 0 3161.3022 890.7641"
   preserveAspectRatio="xMidYMid meet"
   id="svg134"
   xmlns="http://www.w3.org/2000/svg"
   xmlns:svg="http://www.w3.org/2000/svg">
  <defs
     id="defs138" />
  <metadata
     id="metadata2">
Created by potrace 1.16, written by Peter Selinger 2001-2019
</metadata>
  <g
     transform="matrix(0.1,0,0,-0.1,-162,975.76411)"
     fill="#000000"
     stroke="none"
     id="g132">
    <path
       d="m 21029,9732 c -92,-59 -173,-182 -198,-300 -31,-150 10,-320 105,-430 37,-44 134,-116 143,-106 3,2 -18,28 -46,57 -66,67 -89,116 -108,223 -18,106 -19,205 -1,305 19,106 48,166 108,222 28,26 49,50 46,52 -2,3 -24,-8 -49,-23 z"
       id="path4" />
    <path
       d="m 23770,9755 c 0,-3 22,-28 49,-54 27,-26 58,-65 69,-87 31,-61 52,-182 52,-296 0,-183 -40,-301 -125,-375 -25,-23 -45,-44 -45,-47 0,-17 85,43 130,90 87,92 130,203 130,340 0,132 -44,247 -130,338 -44,47 -130,107 -130,91 z"
       id="path6" />
    <path
       d="m 27279,9732 c -92,-59 -173,-182 -198,-300 -31,-150 10,-320 105,-430 37,-44 134,-116 143,-106 3,2 -18,28 -46,57 -66,67 -89,116 -108,223 -18,106 -19,205 -1,305 19,106 48,166 108,222 28,26 49,50 46,52 -2,3 -24,-8 -49,-23 z"
       id="path8" />
    <path
       d="m 29600,9755 c 0,-3 22,-28 49,-54 27,-26 58,-65 69,-87 31,-61 52,-182 52,-296 0,-183 -40,-301 -125,-375 -25,-23 -45,-44 -45,-47 0,-17 85,43 130,90 87,92 130,203 130,340 0,132 -44,247 -130,338 -44,47 -130,107 -130,91 z"
       id="path10" />
    <path
       d="m 6805,9741 c -95,-25 -191,-114 -221,-204 -10,-29 -17,-82 -17,-122 0,-40 7,-93 17,-122 22,-66 93,-146 159,-179 27,-14 73,-44 100,-66 90,-70 249,-137 330,-138 35,0 15,16 -42,32 -59,18 -133,76 -160,126 -10,19 -7,23 33,41 58,25 125,93 157,156 21,43 24,64 24,155 0,90 -3,111 -23,148 -58,110 -152,173 -262,178 -36,2 -78,0 -95,-5 z m 155,-43 c 81,-41 121,-134 121,-287 1,-153 -39,-243 -126,-282 -79,-37 -159,-19 -214,47 -76,93 -92,315 -31,433 52,102 153,138 250,89 z"
       id="path12" />
    <path
       d="m 14095,9741 c -95,-25 -191,-114 -221,-204 -10,-29 -17,-82 -17,-122 0,-40 7,-93 17,-122 22,-66 93,-146 159,-179 27,-14 73,-44 100,-66 90,-70 249,-137 330,-138 35,0 15,16 -42,32 -59,18 -133,76 -160,126 -10,19 -7,23 33,41 58,25 125,93 157,156 21,43 24,64 24,155 0,90 -3,111 -23,148 -58,110 -152,173 -262,178 -36,2 -78,0 -95,-5 z m 155,-43 c 81,-41 121,-134 121,-287 1,-153 -39,-243 -126,-282 -79,-37 -159,-19 -214,47 -76,93 -92,315 -31,433 52,102 153,138 250,89 z"
       id="path14" />
    <path
       d="m 23345,9741 c -95,-25 -191,-114 -221,-204 -10,-29 -17,-82 -17,-122 0,-40 7,-93 17,-122 22,-66 93,-146 159,-179 27,-14 73,-44 100,-66 90,-70 249,-137 330,-138 35,0 15,16 -42,32 -59,18 -133,76 -160,126 -10,19 -7,23 33,41 58,25 125,93 157,156 21,43 24,64 24,155 0,90 -3,111 -23,148 -58,110 -152,173 -262,178 -36,2 -78,0 -95,-5 z m 155,-43 c 81,-41 121,-134 121,-287 1,-153 -39,-243 -126,-282 -79,-37 -159,-19 -214,47 -76,93 -92,315 -31,433 52,102 153,138 250,89 z"
       id="path16" />
    <path
       d="m 29185,9741 c -95,-25 -191,-114 -221,-204 -10,-29 -17,-82 -17,-122 0,-40 7,-93 17,-122 22,-66 93,-146 159,-179 27,-14 73,-44 100,-66 90,-70 249,-137 330,-138 35,0 15,16 -42,32 -59,18 -133,76 -160,126 -10,19 -7,23 33,41 58,25 125,93 157,156 21,43 24,64 24,155 0,90 -3,111 -23,148 -58,110 -152,173 -262,178 -36,2 -78,0 -95,-5 z m 155,-43 c 81,-41 121,-134 121,-287 1,-153 -39,-243 -126,-282 -79,-37 -159,-19 -214,47 -76,93 -92,315 -31,433 52,102 153,138 250,89 z"
       id="path18" />
    <path
       d="m 4598,9731 c 19,-5 39,-14 45,-20 9,-9 12,-94 12,-296 0,-202 -3,-287 -12,-296 -6,-6 -26,-15 -45,-19 -21,-5 17,-8 107,-8 93,0 129,3 105,8 -54,13 -60,29 -60,166 v 123 l 68,-6 c 86,-7 143,9 186,52 57,57 66,160 18,224 -10,14 -39,37 -63,51 -42,24 -53,25 -219,27 -111,1 -163,-1 -142,-6 z m 265,-32 c 44,-23 66,-53 78,-105 27,-120 -56,-208 -168,-178 -22,6 -23,10 -23,144 0,101 3,140 13,143 23,10 78,7 100,-4 z"
       id="path20" />
    <path
       d="m 12308,9731 c 19,-5 39,-14 45,-20 9,-9 12,-94 12,-296 0,-202 -3,-287 -12,-296 -6,-6 -26,-15 -45,-19 -21,-5 17,-8 107,-8 93,0 129,3 105,8 -54,13 -60,29 -60,166 v 123 l 68,-6 c 86,-7 143,9 186,52 57,57 66,160 18,224 -10,14 -39,37 -63,51 -42,24 -53,25 -219,27 -111,1 -163,-1 -142,-6 z m 265,-32 c 44,-23 66,-53 78,-105 27,-120 -56,-208 -168,-178 -22,6 -23,10 -23,144 0,101 3,140 13,143 23,10 78,7 100,-4 z"
       id="path22" />
    <path
       d="m 21138,9731 c 19,-5 39,-14 45,-20 9,-9 12,-94 12,-296 0,-202 -3,-287 -12,-296 -6,-6 -26,-15 -45,-19 -21,-5 17,-8 107,-8 93,0 129,3 105,8 -54,13 -60,29 -60,166 v 123 l 68,-6 c 86,-7 143,9 186,52 57,57 66,160 18,224 -10,14 -39,37 -63,51 -42,24 -53,25 -219,27 -111,1 -163,-1 -142,-6 z m 265,-32 c 44,-23 66,-53 78,-105 27,-120 -56,-208 -168,-178 -22,6 -23,10 -23,144 0,101 3,140 13,143 23,10 78,7 100,-4 z"
       id="path24" />
    <path
       d="m 27388,9731 c 19,-5 39,-14 45,-20 9,-9 12,-94 12,-296 0,-202 -3,-287 -12,-296 -6,-6 -26,-15 -45,-19 -21,-5 17,-8 107,-8 93,0 129,3 105,8 -54,13 -60,29 -60,166 v 123 l 68,-6 c 86,-7 143,9 186,52 57,57 66,160 18,224 -10,14 -39,37 -63,51 -42,24 -53,25 -219,27 -111,1 -163,-1 -142,-6 z m 265,-32 c 44,-23 66,-53 78,-105 27,-120 -56,-208 -168,-178 -22,6 -23,10 -23,144 0,101 3,140 13,143 23,10 78,7 100,-4 z"
       id="path26" />
    <path
       d="m 13010,9570 c 0,-19 7,-20 255,-20 248,0 255,1 255,20 0,19 -7,20 -255,20 -248,0 -255,-1 -255,-20 z"
       id="path28" />
    <path
       d="m 28090,9570 c 0,-19 7,-20 255,-20 248,0 255,1 255,20 0,19 -7,20 -255,20 -248,0 -255,-1 -255,-20 z"
       id="path30" />
    <path
       d="m 5510,9542 v -30 l 178,-4 c 149,-2 182,-6 205,-21 44,-28 61,-73 61,-157 0,-84 -17,-129 -61,-157 -23,-15 -56,-19 -205,-21 l -178,-4 v -30 -30 l 188,4 c 212,3 233,10 284,83 55,80 55,232 1,309 -52,74 -73,81 -285,84 l -188,4 z"
       id="path32" />
    <path
       d="m 22050,9542 v -30 l 178,-4 c 149,-2 182,-6 205,-21 44,-28 61,-73 61,-157 0,-84 -17,-129 -61,-157 -23,-15 -56,-19 -205,-21 l -178,-4 v -30 -30 l 188,4 c 212,3 233,10 284,83 55,80 55,232 1,309 -52,74 -73,81 -285,84 l -188,4 z"
       id="path34" />
    <path
       d="m 20230,9480 c 0,-19 7,-20 235,-20 h 235 v -75 c 0,-68 2,-75 20,-75 19,0 20,7 20,95 v 95 h -255 c -248,0 -255,-1 -255,-20 z"
       id="path36" />
    <path
       d="m 26480,9480 c 0,-19 7,-20 235,-20 h 235 v -75 c 0,-68 2,-75 20,-75 19,0 20,7 20,95 v 95 h -255 c -248,0 -255,-1 -255,-20 z"
       id="path38" />
    <path
       d="m 13010,9410 c 0,-19 7,-20 255,-20 248,0 255,1 255,20 0,19 -7,20 -255,20 -248,0 -255,-1 -255,-20 z"
       id="path40" />
    <path
       d="m 28090,9410 c 0,-19 7,-20 255,-20 248,0 255,1 255,20 0,19 -7,20 -255,20 -248,0 -255,-1 -255,-20 z"
       id="path42" />
    <path
       d="m 13010,9250 c 0,-19 7,-20 255,-20 248,0 255,1 255,20 0,19 -7,20 -255,20 -248,0 -255,-1 -255,-20 z"
       id="path44" />
    <path
       d="m 28090,9250 c 0,-19 7,-20 255,-20 248,0 255,1 255,20 0,19 -7,20 -255,20 -248,0 -255,-1 -255,-20 z"
       id="path46" />
    <path
       d="m 14311,8336 -24,-25 94,-99 c 52,-54 425,-441 828,-860 693,-718 736,-761 755,-748 12,7 21,20 21,29 0,8 -337,365 -750,793 -412,427 -784,813 -825,857 l -75,79 z"
       id="path48" />
    <path
       d="m 29286,8334 c -18,-26 -18,-26 5,-49 24,-22 1958,-1687 1993,-1715 16,-13 20,-12 37,9 11,13 18,27 17,31 -2,4 -363,317 -803,696 -1177,1014 -1224,1054 -1227,1054 -2,0 -11,-12 -22,-26 z"
       id="path50" />
    <path
       d="m 4136,7493 -826,-856 22,-24 c 12,-13 25,-22 28,-21 3,2 379,389 834,862 l 829,859 -24,18 c -13,10 -27,19 -31,19 -3,0 -378,-386 -832,-857 z"
       id="path52" />
    <path
       d="m 6198,8333 c -10,-2 -18,-10 -18,-16 -1,-7 115,-373 257,-814 230,-718 259,-803 278,-803 53,1 54,-7 -125,551 -326,1015 -351,1089 -363,1088 -7,-1 -20,-3 -29,-6 z"
       id="path54" />
    <path
       d="m 12807,7538 c -141,-442 -257,-808 -257,-815 0,-6 13,-16 30,-21 l 30,-11 29,92 c 15,51 133,417 261,815 128,398 230,725 228,727 -2,3 -18,7 -34,11 l -29,5 z"
       id="path56" />
    <path
       d="m 28040,8330 c 0,-6 -45,-371 -100,-812 -80,-635 -98,-803 -88,-810 19,-11 58,-10 58,2 0,6 45,371 100,812 55,440 99,802 98,803 -2,2 -18,6 -35,10 -22,4 -33,3 -33,-5 z"
       id="path58" />
    <path
       d="m 22120,7515 v -815 h 35 35 v 815 815 h -35 -35 z"
       id="path60" />
    <path
       d="m 12365,6885 c 4,-28 21,-178 39,-334 l 31,-284 222,244 c 121,134 219,245 218,247 -1,2 -67,-35 -146,-81 -79,-47 -146,-83 -148,-81 -2,1 2,17 8,35 13,38 13,37 -26,45 -27,5 -31,3 -42,-27 -6,-18 -13,-30 -16,-28 -2,3 -34,72 -71,155 -36,82 -68,151 -71,154 -2,2 -1,-18 2,-45 z"
       id="path62" />
    <path
       d="m 6906,6853 c -17,-37 -47,-106 -69,-153 -40,-88 -42,-88 -61,-28 -4,15 -10,16 -36,7 -34,-12 -34,-12 -21,-57 11,-38 24,-43 -139,53 -164,96 -159,94 -124,53 59,-72 409,-456 412,-454 5,6 72,611 70,629 -2,11 -15,-9 -32,-50 z"
       id="path64" />
    <path
       d="m 3133,6603 c -61,-170 -109,-309 -108,-311 1,-2 140,52 309,119 168,68 305,124 303,125 -2,2 -182,-10 -296,-20 l -54,-5 28,30 29,29 -24,25 -24,25 -29,-27 -30,-28 6,173 c 3,94 5,172 3,172 -2,0 -53,-138 -113,-307 z"
       id="path66" />
    <path
       d="m 16064,6735 6,-170 -27,27 -26,27 -29,-21 -29,-20 27,-29 c 15,-16 26,-30 23,-32 -2,-2 -78,2 -169,8 -91,7 -166,11 -168,10 -2,-1 133,-57 299,-124 167,-66 304,-119 307,-117 4,5 -207,598 -216,606 -2,3 -2,-71 2,-165 z"
       id="path68" />
    <path
       d="m 27646,6823 c 13,-43 56,-185 96,-315 40,-131 75,-238 78,-238 4,1 234,375 315,514 l 29,51 -49,-42 c -28,-22 -86,-73 -130,-111 l -80,-70 -3,40 c -3,38 -5,39 -35,36 -28,-3 -33,-7 -37,-38 -5,-35 -5,-34 -104,108 -54,78 -100,142 -102,142 -1,0 8,-35 22,-77 z"
       id="path70" />
    <path
       d="m 31375,6865 c 3,-17 14,-94 24,-172 18,-146 17,-149 -25,-111 -21,19 -22,19 -43,-9 l -22,-27 33,-28 33,-27 -180,-1 c -103,0 -174,-4 -165,-9 26,-15 610,-184 616,-179 5,6 -252,565 -268,583 -5,5 -6,-3 -3,-20 z"
       id="path72" />
    <path
       d="m 21893,6840 c 34,-82 249,-556 256,-563 4,-4 67,124 139,285 72,160 130,293 128,295 -2,2 -52,-51 -112,-118 l -109,-121 -3,36 c -3,34 -5,36 -38,36 -33,0 -34,-1 -34,-37 v -38 l -53,55 c -29,30 -83,89 -120,130 -58,64 -66,70 -54,40 z"
       id="path74" />
    <path
       d="m 7085,5711 c -95,-25 -191,-114 -221,-204 -10,-29 -17,-82 -17,-122 0,-40 7,-93 17,-122 22,-66 93,-146 159,-179 27,-14 73,-44 100,-66 90,-70 249,-137 330,-138 35,0 15,16 -42,32 -59,18 -133,76 -160,126 -10,19 -7,23 33,41 58,25 125,93 157,156 21,43 24,64 24,155 0,90 -3,111 -23,148 -58,110 -152,173 -262,178 -36,2 -78,0 -95,-5 z m 155,-43 c 81,-41 121,-134 121,-287 1,-153 -39,-243 -126,-282 -79,-37 -159,-19 -214,47 -76,93 -92,315 -31,433 52,102 153,138 250,89 z"
       id="path76" />
    <path
       d="m 2218,5701 c 19,-5 39,-14 45,-20 17,-17 17,-575 0,-592 -6,-6 -26,-15 -45,-19 -21,-5 17,-8 107,-8 93,0 129,3 105,8 -54,13 -60,29 -60,166 v 123 l 68,-6 c 86,-7 143,9 186,52 57,57 66,160 18,224 -10,14 -39,37 -63,51 -42,24 -53,25 -219,27 -111,1 -163,-1 -142,-6 z m 265,-32 c 44,-23 66,-53 78,-105 27,-120 -56,-208 -168,-178 -22,6 -23,10 -23,144 0,101 3,140 13,143 23,10 78,7 100,-4 z"
       id="path78" />
    <path
       d="m 11928,5701 c 19,-5 39,-14 45,-20 9,-9 12,-94 12,-296 0,-202 -3,-287 -12,-296 -6,-6 -26,-15 -45,-19 -21,-5 17,-8 107,-8 93,0 129,3 105,8 -54,13 -60,29 -60,166 v 123 l 68,-6 c 86,-7 143,9 186,52 57,57 66,160 18,224 -10,14 -39,37 -63,51 -42,24 -53,25 -219,27 -111,1 -163,-1 -142,-6 z m 265,-32 c 44,-23 66,-53 78,-105 27,-120 -56,-208 -168,-178 -22,6 -23,10 -23,144 0,101 3,140 13,143 23,10 78,7 100,-4 z"
       id="path80" />
    <path
       d="m 17218,5701 c 19,-5 39,-14 45,-20 9,-9 12,-94 12,-296 0,-202 -3,-287 -12,-296 -6,-6 -26,-15 -45,-19 -21,-5 17,-8 107,-8 93,0 129,3 105,8 -54,13 -60,29 -60,166 v 123 l 68,-6 c 86,-7 143,9 186,52 57,57 66,160 18,224 -10,14 -39,37 -63,51 -42,24 -53,25 -219,27 -111,1 -163,-1 -142,-6 z m 265,-32 c 44,-23 66,-53 78,-105 27,-120 -56,-208 -168,-178 -22,6 -23,10 -23,144 0,101 3,140 13,143 23,10 78,7 100,-4 z"
       id="path82" />
    <path
       d="m 21928,5701 c 19,-5 39,-14 45,-20 9,-9 12,-94 12,-296 0,-202 -3,-287 -12,-296 -6,-6 -26,-15 -45,-19 -21,-5 17,-8 107,-8 93,0 129,3 105,8 -54,13 -60,29 -60,166 v 123 l 68,-6 c 86,-7 143,9 186,52 57,57 66,160 18,224 -10,14 -39,37 -63,51 -42,24 -53,25 -219,27 -111,1 -163,-1 -142,-6 z m 265,-32 c 44,-23 66,-53 78,-105 27,-120 -56,-208 -168,-178 -22,6 -23,10 -23,144 0,101 3,140 13,143 23,10 78,7 100,-4 z"
       id="path84" />
    <path
       d="m 27478,5701 c 19,-5 39,-14 45,-20 9,-9 12,-94 12,-296 0,-202 -3,-287 -12,-296 -6,-6 -26,-15 -45,-19 -21,-5 17,-8 107,-8 93,0 129,3 105,8 -54,13 -60,29 -60,166 v 123 l 68,-6 c 86,-7 143,9 186,52 57,57 66,160 18,224 -10,14 -39,37 -63,51 -42,24 -53,25 -219,27 -111,1 -163,-1 -142,-6 z m 265,-32 c 44,-23 66,-53 78,-105 27,-120 -56,-208 -168,-178 -22,6 -23,10 -23,144 0,101 3,140 13,143 23,10 78,7 100,-4 z"
       id="path86" />
    <path
       d="m 32778,5701 c 19,-5 39,-14 45,-20 9,-9 12,-94 12,-296 0,-202 -3,-287 -12,-296 -6,-6 -26,-15 -45,-19 -21,-5 17,-8 107,-8 93,0 129,3 105,8 -54,13 -60,29 -60,166 v 123 l 68,-6 c 86,-7 143,9 186,52 57,57 66,160 18,224 -10,14 -39,37 -63,51 -42,24 -53,25 -219,27 -111,1 -163,-1 -142,-6 z m 265,-32 c 44,-23 66,-53 78,-105 27,-120 -56,-208 -168,-178 -22,6 -23,10 -23,144 0,101 3,140 13,143 23,10 78,7 100,-4 z"
       id="path88" />
    <path
       d="m 1620,5450 c 0,-19 7,-20 235,-20 h 235 v -75 c 0,-68 2,-75 20,-75 19,0 20,7 20,95 v 95 h -255 c -248,0 -255,-1 -255,-20 z"
       id="path90" />
    <path
       d="m 16620,5450 c 0,-19 7,-20 235,-20 h 235 v -75 c 0,-68 2,-75 20,-75 19,0 20,7 20,95 v 95 h -255 c -248,0 -255,-1 -255,-20 z"
       id="path92" />
    <path
       d="m 32170,5450 c 0,-19 7,-20 235,-20 h 235 v -75 c 0,-68 2,-75 20,-75 19,0 20,7 20,95 v 95 h -255 c -248,0 -255,-1 -255,-20 z"
       id="path94" />
    <path
       d="m 12120,3495 v -815 h 35 35 v 815 815 h -35 -35 z"
       id="path96" />
    <path
       d="m 17120,3495 v -815 h 35 35 v 815 815 h -35 -35 z"
       id="path98" />
    <path
       d="m 22120,3495 v -815 h 35 35 v 815 815 h -35 -35 z"
       id="path100" />
    <path
       d="m 27677,4303 c -4,-3 -7,-370 -7,-815 v -808 h 35 35 v 815 815 h -28 c -16,0 -32,-3 -35,-7 z"
       id="path102" />
    <path
       d="m 32677,4303 c -4,-3 -7,-370 -7,-815 v -808 h 35 35 v 815 815 h -28 c -16,0 -32,-3 -35,-7 z"
       id="path104" />
    <path
       d="m 11903,2790 c 62,-143 240,-536 246,-542 5,-6 238,496 268,577 4,11 -45,-37 -108,-107 l -114,-128 -5,38 c -4,33 -8,37 -37,40 -33,3 -33,3 -33,-40 v -43 l -43,45 c -23,25 -77,83 -120,130 l -77,85 z"
       id="path106" />
    <path
       d="m 16903,2790 c 62,-143 240,-536 246,-542 5,-6 238,496 268,577 4,11 -45,-37 -108,-107 l -114,-128 -5,38 c -4,33 -8,37 -37,40 -33,3 -33,3 -33,-40 v -43 l -43,45 c -23,25 -77,83 -120,130 l -77,85 z"
       id="path108" />
    <path
       d="m 21903,2790 c 62,-143 240,-536 246,-542 5,-6 238,496 268,577 4,11 -45,-37 -108,-107 l -114,-128 -5,38 c -4,33 -8,37 -37,40 -33,3 -33,3 -33,-40 v -43 l -43,45 c -23,25 -77,83 -120,130 l -77,85 z"
       id="path110" />
    <path
       d="m 27441,2833 c 15,-50 265,-591 270,-585 7,7 225,488 256,562 12,30 2,22 -59,-45 -40,-44 -94,-102 -120,-130 l -48,-50 v 43 c 0,43 0,43 -32,40 -30,-3 -34,-7 -38,-40 l -5,-37 -85,95 c -47,52 -98,109 -114,127 -15,18 -27,27 -25,20 z"
       id="path112" />
    <path
       d="m 32441,2833 c 15,-50 265,-591 270,-585 7,7 225,488 256,562 12,30 2,22 -59,-45 -40,-44 -94,-102 -120,-130 l -48,-50 v 43 c 0,43 0,43 -32,40 -30,-3 -34,-7 -38,-40 l -5,-37 -85,95 c -47,52 -98,109 -114,127 -15,18 -27,27 -25,20 z"
       id="path114" />
    <path
       d="m 12085,1681 c -95,-25 -191,-114 -221,-204 -10,-29 -17,-82 -17,-122 0,-40 7,-93 17,-122 22,-66 93,-146 159,-179 27,-14 73,-44 100,-66 90,-70 249,-137 330,-138 35,0 15,16 -42,32 -59,18 -133,76 -160,126 -10,19 -7,23 33,41 58,25 125,93 157,156 21,43 24,64 24,155 0,90 -3,111 -23,148 -58,110 -152,173 -262,178 -36,2 -78,0 -95,-5 z m 155,-43 c 81,-41 121,-134 121,-287 1,-153 -39,-243 -126,-282 -79,-37 -159,-19 -214,47 -76,93 -92,315 -31,433 52,102 153,138 250,89 z"
       id="path116" />
    <path
       d="m 17345,1681 c -95,-25 -191,-114 -221,-204 -10,-29 -17,-82 -17,-122 0,-40 7,-93 17,-122 22,-66 93,-146 159,-179 27,-14 73,-44 100,-66 90,-70 249,-137 330,-138 35,0 15,16 -42,32 -59,18 -133,76 -160,126 -10,19 -7,23 33,41 58,25 125,93 157,156 21,43 24,64 24,155 0,90 -3,111 -23,148 -58,110 -152,173 -262,178 -36,2 -78,0 -95,-5 z m 155,-43 c 81,-41 121,-134 121,-287 1,-153 -39,-243 -126,-282 -79,-37 -159,-19 -214,47 -76,93 -92,315 -31,433 52,102 153,138 250,89 z"
       id="path118" />
    <path
       d="m 22345,1681 c -95,-25 -191,-114 -221,-204 -10,-29 -17,-82 -17,-122 0,-40 7,-93 17,-122 22,-66 93,-146 159,-179 27,-14 73,-44 100,-66 90,-70 249,-137 330,-138 35,0 15,16 -42,32 -59,18 -133,76 -160,126 -10,19 -7,23 33,41 58,25 125,93 157,156 21,43 24,64 24,155 0,90 -3,111 -23,148 -58,110 -152,173 -262,178 -36,2 -78,0 -95,-5 z m 155,-43 c 81,-41 121,-134 121,-287 1,-153 -39,-243 -126,-282 -79,-37 -159,-19 -214,47 -76,93 -92,315 -31,433 52,102 153,138 250,89 z"
       id="path120" />
    <path
       d="m 27895,1681 c -95,-25 -191,-114 -221,-204 -10,-29 -17,-82 -17,-122 0,-40 7,-93 17,-122 22,-66 93,-146 159,-179 27,-14 73,-44 100,-66 90,-70 249,-137 330,-138 35,0 15,16 -42,32 -59,18 -133,76 -160,126 -10,19 -7,23 33,41 58,25 125,93 157,156 21,43 24,64 24,155 0,90 -3,111 -23,148 -58,110 -152,173 -262,178 -36,2 -78,0 -95,-5 z m 155,-43 c 81,-41 121,-134 121,-287 1,-153 -39,-243 -126,-282 -79,-37 -159,-19 -214,47 -76,93 -92,315 -31,433 52,102 153,138 250,89 z"
       id="path122" />
    <path
       d="m 32635,1681 c -95,-25 -191,-114 -221,-204 -10,-29 -17,-82 -17,-122 0,-40 7,-93 17,-122 22,-66 93,-146 159,-179 27,-14 73,-44 100,-66 90,-70 249,-137 330,-138 35,0 15,16 -42,32 -59,18 -133,76 -160,126 -10,19 -7,23 33,41 58,25 125,93 157,156 21,43 24,64 24,155 0,90 -3,111 -23,148 -58,110 -152,173 -262,178 -36,2 -78,0 -95,-5 z m 155,-43 c 81,-41 121,-134 121,-287 1,-153 -39,-243 -126,-282 -79,-37 -159,-19 -214,47 -76,93 -92,315 -31,433 52,102 153,138 250,89 z"
       id="path124" />
    <path
       d="m 16510,1420 c 0,-19 7,-20 235,-20 h 235 v -75 c 0,-68 2,-75 20,-75 19,0 20,7 20,95 v 95 h -255 c -248,0 -255,-1 -255,-20 z"
       id="path126" />
    <path
       d="m 21510,1420 c 0,-19 7,-20 235,-20 h 235 v -75 c 0,-68 2,-75 20,-75 19,0 20,7 20,95 v 95 h -255 c -248,0 -255,-1 -255,-20 z"
       id="path128" />
    <path
       d="m 27070,1420 c 0,-19 7,-20 235,-20 h 235 v -75 c 0,-68 2,-75 20,-75 19,0 20,7 20,95 v 95 h -255 c -248,0 -255,-1 -255,-20 z"
       id="path130" />
  </g>
</svg>
