<?xml version="1.0" encoding="UTF-8" standalone="no"?>
<svg
   version="1.0"
   width="3022.8655pt"
   height="893.7641pt"
   viewBox="0 0 3022.8655 893.7641"
   preserveAspectRatio="xMidYMid meet"
   id="svg158"
   xmlns="http://www.w3.org/2000/svg"
   xmlns:svg="http://www.w3.org/2000/svg">
  <defs
     id="defs162" />
  <metadata
     id="metadata2">
Created by potrace 1.16, written by Peter Selinger 2001-2019
</metadata>
  <g
     transform="matrix(0.1,0,0,-0.1,-87.134613,975.76411)"
     fill="#000000"
     stroke="none"
     id="g156">
    <path
       d="m 27039,9732 c -92,-59 -173,-182 -198,-300 -31,-150 10,-320 105,-430 37,-44 134,-116 143,-106 3,2 -18,28 -46,57 -66,67 -89,116 -108,223 -18,106 -19,205 -1,305 19,106 48,166 108,222 28,26 49,50 46,52 -2,3 -24,-8 -49,-23 z"
       id="path4" />
    <path
       d="m 29780,9755 c 0,-3 22,-28 49,-54 27,-26 58,-65 69,-87 31,-61 52,-182 52,-296 0,-183 -40,-301 -125,-375 -25,-23 -45,-44 -45,-47 0,-17 85,43 130,90 87,92 130,203 130,340 0,132 -44,247 -130,338 -44,47 -130,107 -130,91 z"
       id="path6" />
    <path
       d="m 12495,9741 c -95,-25 -191,-114 -221,-204 -10,-29 -17,-82 -17,-122 0,-40 7,-93 17,-122 22,-66 93,-146 159,-179 27,-14 73,-44 100,-66 90,-70 249,-137 330,-138 35,0 15,16 -42,32 -59,18 -133,76 -160,126 -10,19 -7,23 33,41 58,25 125,93 157,156 21,43 24,64 24,155 0,90 -3,111 -23,148 -58,110 -152,173 -262,178 -36,2 -78,0 -95,-5 z m 155,-43 c 81,-41 121,-134 121,-287 1,-153 -39,-243 -126,-282 -79,-37 -159,-19 -214,47 -76,93 -92,315 -31,433 52,102 153,138 250,89 z"
       id="path8" />
    <path
       d="m 21525,9741 c -95,-25 -191,-114 -221,-204 -10,-29 -17,-82 -17,-122 0,-40 7,-93 17,-122 22,-66 93,-146 159,-179 27,-14 73,-44 100,-66 90,-70 249,-137 330,-138 35,0 15,16 -42,32 -59,18 -133,76 -160,126 -10,19 -7,23 33,41 58,25 125,93 157,156 21,43 24,64 24,155 0,90 -3,111 -23,148 -58,110 -152,173 -262,178 -36,2 -78,0 -95,-5 z m 155,-43 c 81,-41 121,-134 121,-287 1,-153 -39,-243 -126,-282 -79,-37 -159,-19 -214,47 -76,93 -92,315 -31,433 52,102 153,138 250,89 z"
       id="path10" />
    <path
       d="m 29355,9741 c -95,-25 -191,-114 -221,-204 -10,-29 -17,-82 -17,-122 0,-40 7,-93 17,-122 22,-66 93,-146 159,-179 27,-14 73,-44 100,-66 90,-70 249,-137 330,-138 35,0 15,16 -42,32 -59,18 -133,76 -160,126 -10,19 -7,23 33,41 58,25 125,93 157,156 21,43 24,64 24,155 0,90 -3,111 -23,148 -58,110 -152,173 -262,178 -36,2 -78,0 -95,-5 z m 155,-43 c 81,-41 121,-134 121,-287 1,-153 -39,-243 -126,-282 -79,-37 -159,-19 -214,47 -76,93 -92,315 -31,433 52,102 153,138 250,89 z"
       id="path12" />
    <path
       d="m 2098,9731 c 19,-5 39,-14 45,-20 17,-17 17,-575 0,-592 -6,-6 -26,-15 -45,-19 -21,-5 17,-8 107,-8 93,0 129,3 105,8 -54,13 -60,29 -60,166 v 123 l 68,-6 c 86,-7 143,9 186,52 57,57 66,160 18,224 -10,14 -39,37 -63,51 -42,24 -53,25 -219,27 -111,1 -163,-1 -142,-6 z m 265,-32 c 44,-23 66,-53 78,-105 27,-120 -56,-208 -168,-178 -22,6 -23,10 -23,144 0,101 3,140 13,143 23,10 78,7 100,-4 z"
       id="path14" />
    <path
       d="m 10288,9731 c 19,-5 39,-14 45,-20 9,-9 12,-94 12,-296 0,-202 -3,-287 -12,-296 -6,-6 -26,-15 -45,-19 -21,-5 17,-8 107,-8 93,0 129,3 105,8 -54,13 -60,29 -60,166 v 123 l 68,-6 c 86,-7 143,9 186,52 57,57 66,160 18,224 -10,14 -39,37 -63,51 -42,24 -53,25 -219,27 -111,1 -163,-1 -142,-6 z m 265,-32 c 44,-23 66,-53 78,-105 27,-120 -56,-208 -168,-178 -22,6 -23,10 -23,144 0,101 3,140 13,143 23,10 78,7 100,-4 z"
       id="path16" />
    <path
       d="m 19318,9731 c 19,-5 39,-14 45,-20 9,-9 12,-94 12,-296 0,-202 -3,-287 -12,-296 -6,-6 -26,-15 -45,-19 -21,-5 17,-8 107,-8 93,0 129,3 105,8 -54,13 -60,29 -60,166 v 123 l 68,-6 c 86,-7 143,9 186,52 57,57 66,160 18,224 -10,14 -39,37 -63,51 -42,24 -53,25 -219,27 -111,1 -163,-1 -142,-6 z m 265,-32 c 44,-23 66,-53 78,-105 27,-120 -56,-208 -168,-178 -22,6 -23,10 -23,144 0,101 3,140 13,143 23,10 78,7 100,-4 z"
       id="path18" />
    <path
       d="m 27148,9731 c 19,-5 39,-14 45,-20 9,-9 12,-94 12,-296 0,-202 -3,-287 -12,-296 -6,-6 -26,-15 -45,-19 -21,-5 17,-8 107,-8 93,0 129,3 105,8 -54,13 -60,29 -60,166 v 123 l 68,-6 c 86,-7 143,9 186,52 57,57 66,160 18,224 -10,14 -39,37 -63,51 -42,24 -53,25 -219,27 -111,1 -163,-1 -142,-6 z m 265,-32 c 44,-23 66,-53 78,-105 27,-120 -56,-208 -168,-178 -22,6 -23,10 -23,144 0,101 3,140 13,143 23,10 78,7 100,-4 z"
       id="path20" />
    <path
       d="m 13670,9545 v -115 h -115 c -108,0 -115,-1 -115,-20 0,-19 7,-20 115,-20 h 115 v -115 c 0,-108 1,-115 20,-115 19,0 20,7 20,115 v 115 h 120 c 113,0 120,1 120,20 0,19 -7,20 -120,20 h -120 v 115 c 0,108 -1,115 -20,115 -19,0 -20,-7 -20,-115 z"
       id="path22" />
    <path
       d="m 30830,9545 v -115 h -120 c -113,0 -120,-1 -120,-20 0,-19 7,-20 120,-20 h 120 v -95 -95 h -120 c -113,0 -120,-1 -120,-20 0,-19 7,-20 255,-20 248,0 255,1 255,20 0,19 -7,20 -115,20 h -115 v 95 95 h 115 c 108,0 115,1 115,20 0,19 -7,20 -115,20 h -115 v 115 c 0,108 -1,115 -20,115 -19,0 -20,-7 -20,-115 z"
       id="path24" />
    <path
       d="m 11200,9542 v -30 l 178,-4 c 149,-2 182,-6 205,-21 44,-28 61,-73 61,-157 0,-84 -17,-129 -61,-157 -23,-15 -56,-19 -205,-21 l -178,-4 v -30 -30 l 188,4 c 212,3 233,10 284,83 55,80 55,232 1,309 -52,74 -73,81 -285,84 l -188,4 z"
       id="path26" />
    <path
       d="m 20230,9542 v -30 l 178,-4 c 149,-2 182,-6 205,-21 44,-28 61,-73 61,-157 0,-84 -17,-129 -61,-157 -23,-15 -56,-19 -205,-21 l -178,-4 v -30 -30 l 188,4 c 212,3 233,10 284,83 55,80 55,232 1,309 -52,74 -73,81 -285,84 l -188,4 z"
       id="path28" />
    <path
       d="m 28060,9542 v -30 l 178,-4 c 149,-2 182,-6 205,-21 44,-28 61,-73 61,-157 0,-84 -17,-129 -61,-157 -23,-15 -56,-19 -205,-21 l -178,-4 v -30 -30 l 188,4 c 212,3 233,10 284,83 55,80 55,232 1,309 -52,74 -73,81 -285,84 l -188,4 z"
       id="path30" />
    <path
       d="m 1151,9519 c -49,-30 -69,-57 -87,-118 -32,-108 -1,-243 67,-294 61,-44 184,-24 224,37 18,28 35,26 35,-3 0,-11 8,-29 18,-41 26,-32 64,-21 86,24 18,38 21,86 6,86 -5,0 -10,-8 -10,-18 0,-47 -52,-56 -75,-12 -20,39 -20,46 15,196 16,71 30,135 30,142 0,7 -14,12 -39,12 h -39 l -12,-66 -13,-67 -25,53 c -40,85 -111,112 -181,69 z m 123,-32 c 13,-13 33,-50 45,-82 24,-63 23,-84 -5,-182 -32,-114 -109,-150 -151,-69 -21,41 -30,199 -14,263 22,87 77,118 125,70 z"
       id="path32" />
    <path
       d="m 9341,9519 c -49,-30 -69,-57 -87,-118 -32,-108 -1,-243 67,-294 61,-44 184,-24 224,37 18,28 35,26 35,-3 0,-11 8,-29 18,-41 26,-32 64,-21 86,24 18,38 21,86 6,86 -5,0 -10,-8 -10,-18 0,-47 -52,-56 -75,-12 -20,39 -20,46 15,196 16,71 30,135 30,142 0,7 -14,12 -39,12 h -39 l -12,-66 -13,-67 -25,53 c -40,85 -111,112 -181,69 z m 123,-32 c 13,-13 33,-50 45,-82 24,-63 23,-84 -5,-182 -32,-114 -109,-150 -151,-69 -21,41 -30,199 -14,263 22,87 77,118 125,70 z"
       id="path34" />
    <path
       d="m 18371,9519 c -49,-30 -69,-57 -87,-118 -32,-108 -1,-243 67,-294 61,-44 184,-24 224,37 18,28 35,26 35,-3 0,-11 8,-29 18,-41 26,-32 64,-21 86,24 18,38 21,86 6,86 -5,0 -10,-8 -10,-18 0,-47 -52,-56 -75,-12 -20,39 -20,46 15,196 16,71 30,135 30,142 0,7 -14,12 -39,12 h -39 l -12,-66 -13,-67 -25,53 c -40,85 -111,112 -181,69 z m 123,-32 c 13,-13 33,-50 45,-82 24,-63 23,-84 -5,-182 -32,-114 -109,-150 -151,-69 -21,41 -30,199 -14,263 22,87 77,118 125,70 z"
       id="path36" />
    <path
       d="m 25311,9519 c -49,-30 -69,-57 -87,-118 -32,-108 -1,-243 67,-294 61,-44 184,-24 224,37 18,28 35,26 35,-3 0,-11 8,-29 18,-41 26,-32 64,-21 86,24 18,38 21,86 6,86 -5,0 -10,-8 -10,-18 0,-47 -52,-56 -75,-12 -20,39 -20,46 15,196 16,71 30,135 30,142 0,7 -14,12 -39,12 h -39 l -12,-66 -13,-67 -25,53 c -40,85 -111,112 -181,69 z m 123,-32 c 13,-13 33,-50 45,-82 24,-63 23,-84 -5,-182 -32,-114 -109,-150 -151,-69 -21,41 -30,199 -14,263 22,87 77,118 125,70 z"
       id="path38" />
    <path
       d="m 26240,9480 c 0,-19 7,-20 235,-20 h 235 v -75 c 0,-68 2,-75 20,-75 19,0 20,7 20,95 v 95 h -255 c -248,0 -255,-1 -255,-20 z"
       id="path40" />
    <path
       d="m 3030,9310 v -40 h 120 120 v 40 40 h -120 -120 z"
       id="path42" />
    <path
       d="m 22490,9310 v -40 h 120 120 v 40 40 h -120 -120 z"
       id="path44" />
    <path
       d="m 1600,9170 c -41,-41 -8,-98 49,-85 30,6 31,5 31,-25 0,-32 -38,-79 -85,-106 -11,-7 -17,-15 -13,-19 12,-12 98,45 119,78 29,48 26,117 -7,151 -32,31 -67,33 -94,6 z"
       id="path46" />
    <path
       d="m 2530,9170 c -41,-41 -8,-98 49,-85 30,6 31,5 31,-25 0,-32 -38,-79 -85,-106 -11,-7 -17,-15 -13,-19 12,-12 98,45 119,78 29,48 26,117 -7,151 -32,31 -67,33 -94,6 z"
       id="path48" />
    <path
       d="m 9790,9170 c -41,-41 -8,-98 49,-85 30,6 31,5 31,-25 0,-32 -38,-79 -85,-106 -11,-7 -17,-15 -13,-19 12,-12 98,45 119,78 29,48 26,117 -7,151 -32,31 -67,33 -94,6 z"
       id="path50" />
    <path
       d="m 12970,9170 c -41,-41 -8,-98 49,-85 30,6 31,5 31,-25 0,-32 -38,-79 -85,-106 -11,-7 -17,-15 -13,-19 12,-12 98,45 119,78 29,48 26,117 -7,151 -32,31 -67,33 -94,6 z"
       id="path52" />
    <path
       d="m 18820,9170 c -41,-41 -8,-98 49,-85 30,6 31,5 31,-25 0,-32 -38,-79 -85,-106 -11,-7 -17,-15 -13,-19 12,-12 98,45 119,78 29,48 26,117 -7,151 -32,31 -67,33 -94,6 z"
       id="path54" />
    <path
       d="m 22000,9170 c -41,-41 -8,-98 49,-85 30,6 31,5 31,-25 0,-32 -38,-79 -85,-106 -11,-7 -17,-15 -13,-19 12,-12 98,45 119,78 29,48 26,117 -7,151 -32,31 -67,33 -94,6 z"
       id="path56" />
    <path
       d="m 25760,9170 c -41,-41 -8,-98 49,-85 30,6 31,5 31,-25 0,-32 -38,-79 -85,-106 -11,-7 -17,-15 -13,-19 12,-12 98,45 119,78 29,48 26,117 -7,151 -32,31 -67,33 -94,6 z"
       id="path58" />
    <path
       d="m 30140,9170 c -41,-41 -8,-98 49,-85 30,6 31,5 31,-25 0,-32 -38,-79 -85,-106 -11,-7 -17,-15 -13,-19 12,-12 98,45 119,78 29,48 26,117 -7,151 -32,31 -67,33 -94,6 z"
       id="path60" />
    <path
       d="m 9562,7482 -984,-875 25,-25 25,-24 948,842 c 522,464 965,858 984,876 l 35,34 -25,24 -25,24 z"
       id="path62" />
    <path
       d="m 11988,8328 c -17,-13 26,-128 572,-1510 50,-125 90,-230 90,-233 0,-3 -69,29 -152,70 l -153,76 228,-226 c 126,-125 232,-224 235,-220 4,4 14,150 22,325 8,176 12,316 9,312 -3,-4 -27,-65 -54,-137 -26,-71 -52,-141 -57,-155 -12,-31 33,-137 -369,888 -245,626 -326,822 -339,822 -9,0 -23,-6 -32,-12 z"
       id="path64" />
    <path
       d="m 2152,7518 3,-813 33,-3 32,-3 v 815 816 h -35 -35 z"
       id="path66" />
    <path
       d="m 20490,7514 v -815 l 33,3 32,3 3,813 2,812 h -35 -35 z"
       id="path68" />
    <path
       d="m 28122,7518 3,-813 33,-3 32,-3 v 815 816 h -35 -35 z"
       id="path70" />
    <path
       d="m 8411,6599 c -73,-165 -132,-301 -130,-303 2,-2 141,40 309,93 l 305,96 -85,7 c -47,3 -121,6 -164,7 l -80,1 27,28 27,28 -25,24 -25,24 -31,-30 -31,-29 6,35 c 9,58 37,313 34,315 -2,2 -63,-132 -137,-296 z"
       id="path72" />
    <path
       d="m 2340,6743 -115,-128 -3,38 c -3,35 -5,37 -38,37 -33,0 -34,-1 -34,-37 v -38 l -73,80 c -94,105 -160,172 -155,160 79,-186 264,-583 269,-578 11,12 272,593 267,593 -2,0 -55,-57 -118,-127 z"
       id="path74" />
    <path
       d="m 20251,6864 c 12,-34 265,-593 269,-594 4,0 245,528 266,585 5,11 -44,-37 -107,-107 l -114,-128 -3,35 c -3,33 -6,35 -38,35 -32,0 -34,-2 -34,-36 0,-20 -4,-34 -8,-32 -5,2 -55,55 -112,118 -124,138 -124,138 -119,124 z"
       id="path76" />
    <path
       d="m 27891,6863 c 9,-30 265,-593 269,-593 6,0 272,592 268,595 -2,2 -52,-53 -113,-121 -60,-68 -113,-124 -117,-124 -5,0 -8,16 -8,35 0,33 -2,35 -34,35 -32,0 -35,-2 -38,-35 l -3,-34 -85,95 c -47,52 -98,109 -114,127 -15,18 -27,27 -25,20 z"
       id="path78" />
    <path
       d="m 6270,5718 c -85,-44 -84,-40 -90,-468 -3,-206 -9,-381 -13,-387 -6,-10 2,-13 31,-13 49,0 52,5 59,136 l 6,100 36,-18 c 50,-27 127,-20 179,15 76,50 114,176 78,260 -13,33 -78,97 -97,97 -6,0 3,13 20,29 52,49 66,121 35,187 -36,75 -159,106 -244,62 z m 131,-18 c 45,-25 63,-122 36,-200 -12,-34 -14,-35 -62,-35 -43,0 -50,-3 -50,-20 0,-17 7,-20 48,-21 54,-1 67,-13 92,-83 21,-62 19,-153 -4,-199 -32,-62 -105,-81 -168,-42 l -33,20 v 257 c 1,195 4,264 14,282 24,44 84,63 127,41 z"
       id="path80" />
    <path
       d="m 12710,5718 c -85,-44 -84,-40 -90,-468 -3,-206 -9,-381 -13,-387 -6,-10 2,-13 31,-13 49,0 52,5 59,136 l 6,100 36,-18 c 50,-27 127,-20 179,15 76,50 114,176 78,260 -13,33 -78,97 -97,97 -6,0 3,13 20,29 52,49 66,121 35,187 -36,75 -159,106 -244,62 z m 131,-18 c 45,-25 63,-122 36,-200 -12,-34 -14,-35 -62,-35 -43,0 -50,-3 -50,-20 0,-17 7,-20 48,-21 54,-1 67,-13 92,-83 21,-62 19,-153 -4,-199 -32,-62 -105,-81 -168,-42 l -33,20 v 257 c 1,195 4,264 14,282 24,44 84,63 127,41 z"
       id="path82" />
    <path
       d="m 19400,5718 c -85,-44 -84,-40 -90,-468 -3,-206 -9,-381 -13,-387 -6,-10 2,-13 31,-13 49,0 52,5 59,136 l 6,100 36,-18 c 50,-27 127,-20 179,15 76,50 114,176 78,260 -13,33 -78,97 -97,97 -6,0 3,13 20,29 52,49 66,121 35,187 -36,75 -159,106 -244,62 z m 131,-18 c 45,-25 63,-122 36,-200 -12,-34 -14,-35 -62,-35 -43,0 -50,-3 -50,-20 0,-17 7,-20 48,-21 54,-1 67,-13 92,-83 21,-62 19,-153 -4,-199 -32,-62 -105,-81 -168,-42 l -33,20 v 257 c 1,195 4,264 14,282 24,44 84,63 127,41 z"
       id="path84" />
    <path
       d="m 13815,5711 c -95,-25 -191,-114 -221,-204 -10,-29 -17,-82 -17,-122 0,-40 7,-93 17,-122 22,-66 93,-146 159,-179 27,-14 73,-44 100,-66 90,-70 249,-137 330,-138 35,0 15,16 -42,32 -59,18 -133,76 -160,126 -10,19 -7,23 33,41 58,25 125,93 157,156 21,43 24,64 24,155 0,90 -3,111 -23,148 -58,110 -152,173 -262,178 -36,2 -78,0 -95,-5 z m 155,-43 c 81,-41 121,-134 121,-287 1,-153 -39,-243 -126,-282 -79,-37 -159,-19 -214,47 -76,93 -92,315 -31,433 52,102 153,138 250,89 z"
       id="path86" />
    <path
       d="m 29355,5711 c -95,-25 -191,-114 -221,-204 -10,-29 -17,-82 -17,-122 0,-40 7,-93 17,-122 22,-66 93,-146 159,-179 27,-14 73,-44 100,-66 90,-70 249,-137 330,-138 35,0 15,16 -42,32 -59,18 -133,76 -160,126 -10,19 -7,23 33,41 58,25 125,93 157,156 21,43 24,64 24,155 0,90 -3,111 -23,148 -58,110 -152,173 -262,178 -36,2 -78,0 -95,-5 z m 155,-43 c 81,-41 121,-134 121,-287 1,-153 -39,-243 -126,-282 -79,-37 -159,-19 -214,47 -76,93 -92,315 -31,433 52,102 153,138 250,89 z"
       id="path88" />
    <path
       d="m 3018,5701 c 19,-5 39,-14 45,-20 9,-9 12,-94 12,-296 0,-202 -3,-287 -12,-296 -6,-6 -26,-15 -45,-19 -21,-5 17,-8 107,-8 93,0 129,3 105,8 -54,13 -60,29 -60,166 v 123 l 68,-6 c 86,-7 143,9 186,52 57,57 66,160 18,224 -10,14 -39,37 -63,51 -42,24 -53,25 -219,27 -111,1 -163,-1 -142,-6 z m 265,-32 c 44,-23 66,-53 78,-105 27,-120 -56,-208 -168,-178 -22,6 -23,10 -23,144 0,101 3,140 13,143 23,10 78,7 100,-4 z"
       id="path90" />
    <path
       d="m 7148,5701 c 19,-5 39,-14 45,-20 17,-17 17,-575 0,-592 -6,-6 -26,-15 -45,-19 -21,-5 17,-8 107,-8 93,0 129,3 105,8 -54,13 -60,29 -60,166 v 123 l 68,-6 c 86,-7 143,9 186,52 57,57 66,160 18,224 -10,14 -39,37 -63,51 -42,24 -53,25 -219,27 -111,1 -163,-1 -142,-6 z m 265,-32 c 44,-23 66,-53 78,-105 27,-120 -56,-208 -168,-178 -22,6 -23,10 -23,144 0,101 3,140 13,143 23,10 78,7 100,-4 z"
       id="path92" />
    <path
       d="m 20278,5701 c 19,-5 39,-14 45,-20 9,-9 12,-94 12,-296 0,-202 -3,-287 -12,-296 -6,-6 -26,-15 -45,-19 -21,-5 17,-8 107,-8 93,0 129,3 105,8 -54,13 -60,29 -60,166 v 123 l 68,-6 c 86,-7 143,9 186,52 57,57 66,160 18,224 -10,14 -39,37 -63,51 -42,24 -53,25 -219,27 -111,1 -163,-1 -142,-6 z m 265,-32 c 44,-23 66,-53 78,-105 27,-120 -56,-208 -168,-178 -22,6 -23,10 -23,144 0,101 3,140 13,143 23,10 78,7 100,-4 z"
       id="path94" />
    <path
       d="m 26578,5701 c 19,-5 39,-14 45,-20 9,-9 12,-94 12,-296 0,-202 -3,-287 -12,-296 -6,-6 -26,-15 -45,-19 -21,-5 17,-8 107,-8 93,0 129,3 105,8 -54,13 -60,29 -60,166 v 123 l 68,-6 c 86,-7 143,9 186,52 57,57 66,160 18,224 -10,14 -39,37 -63,51 -42,24 -53,25 -219,27 -111,1 -163,-1 -142,-6 z m 265,-32 c 44,-23 66,-53 78,-105 27,-120 -56,-208 -168,-178 -22,6 -23,10 -23,144 0,101 3,140 13,143 23,10 78,7 100,-4 z"
       id="path96" />
    <path
       d="m 11970,5515 v -115 h -115 c -108,0 -115,-1 -115,-20 0,-19 7,-20 115,-20 h 115 v -115 c 0,-108 1,-115 20,-115 19,0 20,7 20,115 v 115 h 120 c 113,0 120,1 120,20 0,19 -7,20 -120,20 h -120 v 115 c 0,108 -1,115 -20,115 -19,0 -20,-7 -20,-115 z"
       id="path98" />
    <path
       d="m 14990,5515 v -115 h -115 c -108,0 -115,-1 -115,-20 0,-19 7,-20 115,-20 h 115 v -115 c 0,-108 1,-115 20,-115 19,0 20,7 20,115 v 115 h 120 c 113,0 120,1 120,20 0,19 -7,20 -120,20 h -120 v 115 c 0,108 -1,115 -20,115 -19,0 -20,-7 -20,-115 z"
       id="path100" />
    <path
       d="m 21410,5515 v -115 h -115 c -108,0 -115,-1 -115,-20 0,-19 7,-20 115,-20 h 115 v -115 c 0,-108 1,-115 20,-115 19,0 20,7 20,115 v 115 h 120 c 113,0 120,1 120,20 0,19 -7,20 -120,20 h -120 v 115 c 0,108 -1,115 -20,115 -19,0 -20,-7 -20,-115 z"
       id="path102" />
    <path
       d="m 30520,5515 v -115 h -120 c -113,0 -120,-1 -120,-20 0,-19 7,-20 120,-20 h 120 v -95 -95 h -120 c -113,0 -120,-1 -120,-20 0,-19 7,-20 255,-20 248,0 255,1 255,20 0,19 -7,20 -115,20 h -115 v 95 95 h 115 c 108,0 115,1 115,20 0,19 -7,20 -115,20 h -115 v 115 c 0,108 -1,115 -20,115 -19,0 -20,-7 -20,-115 z"
       id="path104" />
    <path
       d="m 1887,5507 c -136,-62 -248,-116 -248,-122 -1,-5 104,-57 233,-115 291,-132 268,-123 268,-101 0,14 -49,40 -217,116 -120,54 -219,99 -221,100 -1,1 93,44 210,95 117,51 217,97 221,101 5,4 7,14 5,23 -2,12 -55,-8 -251,-97 z"
       id="path106" />
    <path
       d="m 27611,5323 c -57,-131 -106,-244 -108,-250 -4,-9 7,-13 33,-13 h 39 l 84,195 c 46,108 86,193 89,190 3,-3 42,-90 87,-193 l 81,-187 37,-3 c 20,-2 37,0 37,4 0,3 -48,116 -106,250 l -106,244 h -32 -32 z"
       id="path108" />
    <path
       d="m 971,5489 c -49,-30 -69,-57 -87,-118 -32,-108 -1,-243 67,-294 61,-44 184,-24 224,37 18,28 35,26 35,-3 0,-11 8,-29 18,-41 26,-32 64,-21 86,24 18,38 21,86 6,86 -5,0 -10,-8 -10,-18 0,-47 -52,-56 -75,-12 -20,39 -20,46 15,196 16,71 30,135 30,142 0,7 -14,12 -39,12 h -39 l -12,-66 -13,-67 -25,53 c -40,85 -111,112 -181,69 z m 123,-32 c 13,-13 33,-50 45,-82 24,-63 23,-84 -5,-182 -32,-114 -109,-150 -151,-69 -21,41 -30,199 -14,263 22,87 77,118 125,70 z"
       id="path110" />
    <path
       d="m 11081,5489 c -49,-30 -69,-57 -87,-118 -32,-108 -1,-243 67,-294 61,-44 184,-24 224,37 18,28 35,26 35,-3 0,-11 8,-29 18,-41 26,-32 64,-21 86,24 18,38 21,86 6,86 -5,0 -10,-8 -10,-18 0,-47 -52,-56 -75,-12 -20,39 -20,46 15,196 16,71 30,135 30,142 0,7 -14,12 -39,12 h -39 l -12,-66 -13,-67 -25,53 c -40,85 -111,112 -181,69 z m 123,-32 c 13,-13 33,-50 45,-82 24,-63 23,-84 -5,-182 -32,-114 -109,-150 -151,-69 -21,41 -30,199 -14,263 22,87 77,118 125,70 z"
       id="path112" />
    <path
       d="m 25631,5489 c -49,-30 -69,-57 -87,-118 -32,-108 -1,-243 67,-294 61,-44 184,-24 224,37 18,28 35,26 35,-3 0,-11 8,-29 18,-41 26,-32 64,-21 86,24 18,38 21,86 6,86 -5,0 -10,-8 -10,-18 0,-47 -52,-56 -75,-12 -20,39 -20,46 15,196 16,71 30,135 30,142 0,7 -14,12 -39,12 h -39 l -12,-66 -13,-67 -25,53 c -40,85 -111,112 -181,69 z m 123,-32 c 13,-13 33,-50 45,-82 24,-63 23,-84 -5,-182 -32,-114 -109,-150 -151,-69 -21,41 -30,199 -14,263 22,87 77,118 125,70 z"
       id="path114" />
    <path
       d="m 2526,5238 c -2,-145 -8,-284 -11,-311 -10,-71 28,-103 70,-57 17,18 17,23 1,84 -9,36 -16,79 -16,95 0,29 0,30 28,15 50,-26 83,-18 153,37 42,33 49,35 49,14 0,-27 47,-65 79,-65 36,0 78,35 87,73 8,36 -9,35 -23,-3 -15,-39 -49,-41 -63,-4 -6,14 -10,106 -10,205 v 179 h -40 -40 l -2,-172 -3,-172 -40,-23 c -52,-29 -80,-29 -110,2 -25,24 -25,27 -25,195 v 170 h -39 -40 z"
       id="path116" />
    <path
       d="m 28530,5450 c 0,-19 7,-20 235,-20 h 235 v -75 c 0,-68 2,-75 20,-75 19,0 20,7 20,95 v 95 h -255 c -248,0 -255,-1 -255,-20 z"
       id="path118" />
    <path
       d="m 8080,5280 v -40 h 120 120 v 40 40 h -120 -120 z"
       id="path120" />
    <path
       d="m 6650,5140 c -41,-41 -8,-98 49,-85 30,6 31,5 31,-25 0,-32 -38,-79 -85,-106 -11,-7 -17,-15 -13,-19 12,-12 98,45 119,78 29,48 26,117 -7,151 -32,31 -67,33 -94,6 z"
       id="path122" />
    <path
       d="m 7590,5140 c -41,-41 -8,-98 49,-85 30,6 31,5 31,-25 0,-32 -38,-79 -85,-106 -11,-7 -17,-15 -13,-19 12,-12 98,45 119,78 29,48 26,117 -7,151 -32,31 -67,33 -94,6 z"
       id="path124" />
    <path
       d="m 13090,5140 c -41,-41 -8,-98 49,-85 30,6 31,5 31,-25 0,-32 -38,-79 -85,-106 -11,-7 -17,-15 -13,-19 12,-12 98,45 119,78 29,48 26,117 -7,151 -32,31 -67,33 -94,6 z"
       id="path126" />
    <path
       d="m 14290,5140 c -41,-41 -8,-98 49,-85 30,6 31,5 31,-25 0,-32 -38,-79 -85,-106 -11,-7 -17,-15 -13,-19 12,-12 98,45 119,78 29,48 26,117 -7,151 -32,31 -67,33 -94,6 z"
       id="path128" />
    <path
       d="m 19770,5140 c -41,-41 -8,-98 49,-85 30,6 31,5 31,-25 0,-32 -38,-79 -85,-106 -11,-7 -17,-15 -13,-19 12,-12 98,45 119,78 29,48 26,117 -7,151 -32,31 -67,33 -94,6 z"
       id="path130" />
    <path
       d="m 20710,5140 c -41,-41 -8,-98 49,-85 30,6 31,5 31,-25 0,-32 -38,-79 -85,-106 -11,-7 -17,-15 -13,-19 12,-12 98,45 119,78 29,48 26,117 -7,151 -32,31 -67,33 -94,6 z"
       id="path132" />
    <path
       d="m 26080,5140 c -41,-41 -8,-98 49,-85 30,6 31,5 31,-25 0,-32 -38,-79 -85,-106 -11,-7 -17,-15 -13,-19 12,-12 98,45 119,78 29,48 26,117 -7,151 -32,31 -67,33 -94,6 z"
       id="path134" />
    <path
       d="m 29830,5140 c -41,-41 -8,-98 49,-85 30,6 31,5 31,-25 0,-32 -38,-79 -85,-106 -11,-7 -17,-15 -13,-19 12,-12 98,45 119,78 29,48 26,117 -7,151 -32,31 -67,33 -94,6 z"
       id="path136" />
    <path
       d="m 20490,3496 v -816 h 35 35 l -2,813 -3,812 -32,3 -33,3 z"
       id="path138" />
    <path
       d="m 20263,2810 c 31,-76 249,-555 255,-562 4,-3 67,127 140,289 73,163 131,297 130,299 -2,1 -53,-53 -113,-121 l -110,-123 -5,37 c -4,32 -8,36 -37,39 -33,3 -33,3 -33,-40 v -43 l -53,55 c -29,30 -83,89 -120,130 -58,64 -66,70 -54,40 z"
       id="path140" />
    <path
       d="m 20210,1688 c -85,-44 -84,-40 -90,-468 -3,-206 -9,-381 -13,-387 -6,-10 2,-13 31,-13 49,0 52,5 59,136 l 6,100 36,-18 c 50,-27 127,-20 179,15 76,50 114,176 78,260 -13,33 -78,97 -97,97 -6,0 3,13 20,29 52,49 66,121 35,187 -36,75 -159,106 -244,62 z m 131,-18 c 45,-25 63,-122 36,-200 -12,-34 -14,-35 -62,-35 -43,0 -50,-3 -50,-20 0,-17 7,-20 48,-21 54,-1 67,-13 92,-83 21,-62 19,-153 -4,-199 -32,-62 -105,-81 -168,-42 l -33,20 v 257 c 1,195 4,264 14,282 24,44 84,63 127,41 z"
       id="path142" />
    <path
       d="m 21315,1681 c -95,-25 -191,-114 -221,-204 -10,-29 -17,-82 -17,-122 0,-40 7,-93 17,-122 22,-66 93,-146 159,-179 27,-14 73,-44 100,-66 90,-70 249,-137 330,-138 35,0 15,16 -42,32 -59,18 -133,76 -160,126 -10,19 -7,23 33,41 58,25 125,93 157,156 21,43 24,64 24,155 0,90 -3,111 -23,148 -58,110 -152,173 -262,178 -36,2 -78,0 -95,-5 z m 155,-43 c 81,-41 121,-134 121,-287 1,-153 -39,-243 -126,-282 -79,-37 -159,-19 -214,47 -76,93 -92,315 -31,433 52,102 153,138 250,89 z"
       id="path144" />
    <path
       d="m 19470,1485 v -115 h -115 c -108,0 -115,-1 -115,-20 0,-19 7,-20 115,-20 h 115 v -115 c 0,-108 1,-115 20,-115 19,0 20,7 20,115 v 115 h 120 c 113,0 120,1 120,20 0,19 -7,20 -120,20 h -120 v 115 c 0,108 -1,115 -20,115 -19,0 -20,-7 -20,-115 z"
       id="path146" />
    <path
       d="m 18581,1459 c -49,-30 -69,-57 -87,-118 -32,-108 -1,-243 67,-294 61,-44 184,-24 224,37 18,28 35,26 35,-3 0,-11 8,-29 18,-41 26,-32 64,-21 86,24 18,38 21,86 6,86 -5,0 -10,-8 -10,-18 0,-47 -52,-56 -75,-12 -20,39 -20,46 15,196 16,71 30,135 30,142 0,7 -14,12 -39,12 h -39 l -12,-66 -13,-67 -25,53 c -40,85 -111,112 -181,69 z m 123,-32 c 13,-13 33,-50 45,-82 24,-63 23,-84 -5,-182 -32,-114 -109,-150 -151,-69 -21,41 -30,199 -14,263 22,87 77,118 125,70 z"
       id="path148" />
    <path
       d="m 22280,1250 v -40 h 120 120 v 40 40 h -120 -120 z"
       id="path150" />
    <path
       d="m 20590,1110 c -41,-41 -8,-98 49,-85 30,6 31,5 31,-25 0,-32 -38,-79 -85,-106 -11,-7 -17,-15 -13,-19 12,-12 98,45 119,78 29,48 26,117 -7,151 -32,31 -67,33 -94,6 z"
       id="path152" />
    <path
       d="m 21790,1110 c -41,-41 -8,-98 49,-85 30,6 31,5 31,-25 0,-32 -38,-79 -85,-106 -11,-7 -17,-15 -13,-19 12,-12 98,45 119,78 29,48 26,117 -7,151 -32,31 -67,33 -94,6 z"
       id="path154" />
  </g>
</svg>
