<?xml version="1.0" encoding="UTF-8" standalone="no"?>
<svg
   version="1.0"
   width="1501.8359pt"
   height="566.62378pt"
   viewBox="0 0 1501.8359 566.62378"
   preserveAspectRatio="xMidYMid meet"
   id="svg84"
   xmlns="http://www.w3.org/2000/svg"
   xmlns:svg="http://www.w3.org/2000/svg">
  <defs
     id="defs88" />
  <metadata
     id="metadata2">
Created by potrace 1.16, written by Peter Selinger 2001-2019
</metadata>
  <g
     transform="matrix(0.1,0,0,-0.1,-87.134613,635.82237)"
     fill="#000000"
     stroke="none"
     id="g82">
    <path
       d="m 15580,6338 c -85,-44 -84,-40 -90,-468 -3,-206 -9,-381 -13,-387 -6,-10 2,-13 31,-13 49,0 52,5 59,136 l 6,100 36,-18 c 50,-27 127,-20 179,15 76,50 114,176 78,260 -13,33 -78,97 -97,97 -6,0 3,13 20,29 52,49 66,121 35,187 -36,75 -159,106 -244,62 z m 131,-18 c 45,-25 63,-122 36,-200 -12,-34 -14,-35 -62,-35 -43,0 -50,-3 -50,-20 0,-17 7,-20 48,-21 54,-1 67,-13 92,-83 21,-62 19,-153 -4,-199 -32,-62 -105,-81 -168,-42 l -33,20 v 257 c 1,195 4,264 14,282 24,44 84,63 127,41 z"
       id="path4" />
    <path
       d="m 2878,6321 c 19,-5 39,-14 45,-20 9,-9 12,-94 12,-296 0,-202 -3,-287 -12,-296 -6,-6 -26,-15 -45,-19 -21,-5 17,-8 107,-8 93,0 129,3 105,8 -54,13 -60,29 -60,166 v 123 l 68,-6 c 86,-7 143,9 186,52 57,57 66,160 18,224 -10,14 -39,37 -63,51 -42,24 -53,25 -219,27 -111,1 -163,-1 -142,-6 z m 265,-32 c 44,-23 66,-53 78,-105 27,-120 -56,-208 -168,-178 -22,6 -23,10 -23,144 0,101 3,140 13,143 23,10 78,7 100,-4 z"
       id="path6" />
    <path
       d="m 9408,6321 c 19,-5 39,-14 45,-20 17,-17 17,-575 0,-592 -6,-6 -26,-15 -45,-19 -21,-5 17,-8 107,-8 93,0 129,3 105,8 -54,13 -60,29 -60,166 v 123 l 68,-6 c 86,-7 143,9 186,52 57,57 66,160 18,224 -10,14 -39,37 -63,51 -42,24 -53,25 -219,27 -111,1 -163,-1 -142,-6 z m 265,-32 c 44,-23 66,-53 78,-105 27,-120 -56,-208 -168,-178 -22,6 -23,10 -23,144 0,101 3,140 13,143 23,10 78,7 100,-4 z"
       id="path8" />
    <path
       d="m 14652,6248 c 2,-18 39,-38 221,-116 119,-52 217,-98 217,-101 0,-3 -98,-46 -216,-95 -203,-84 -231,-100 -222,-125 3,-12 495,209 498,223 1,7 -269,135 -478,226 -21,9 -23,8 -20,-12 z"
       id="path10" />
    <path
       d="m 4020,6135 v -115 h -115 c -108,0 -115,-1 -115,-20 0,-19 7,-20 115,-20 h 115 v -115 c 0,-108 1,-115 20,-115 19,0 20,7 20,115 v 115 h 120 c 113,0 120,1 120,20 0,19 -7,20 -120,20 h -120 v 115 c 0,108 -1,115 -20,115 -19,0 -20,-7 -20,-115 z"
       id="path12" />
    <path
       d="m 1361,6109 c -49,-30 -69,-57 -87,-118 -32,-108 -1,-243 67,-294 61,-44 184,-24 224,37 18,28 35,26 35,-3 0,-11 8,-29 18,-41 26,-32 64,-21 86,24 18,38 21,86 6,86 -5,0 -10,-8 -10,-18 0,-47 -52,-56 -75,-12 -20,39 -20,46 15,196 16,71 30,135 30,142 0,7 -14,12 -39,12 h -39 l -12,-66 -13,-67 -25,53 c -40,85 -111,112 -181,69 z m 123,-32 c 13,-13 33,-50 45,-82 24,-63 23,-84 -5,-182 -32,-114 -109,-150 -151,-69 -21,41 -30,199 -14,263 22,87 77,118 125,70 z"
       id="path14" />
    <path
       d="m 7881,6109 c -49,-30 -69,-57 -87,-118 -32,-108 -1,-243 67,-294 61,-44 184,-24 224,37 18,28 35,26 35,-3 0,-11 8,-29 18,-41 26,-32 64,-21 86,24 18,38 21,86 6,86 -5,0 -10,-8 -10,-18 0,-47 -52,-56 -75,-12 -20,39 -20,46 15,196 16,71 30,135 30,142 0,7 -14,12 -39,12 h -39 l -12,-66 -13,-67 -25,53 c -40,85 -111,112 -181,69 z m 123,-32 c 13,-13 33,-50 45,-82 24,-63 23,-84 -5,-182 -32,-114 -109,-150 -151,-69 -21,41 -30,199 -14,263 22,87 77,118 125,70 z"
       id="path16" />
    <path
       d="m 13991,6109 c -49,-30 -69,-57 -87,-118 -32,-108 -1,-243 67,-294 61,-44 184,-24 224,37 18,28 35,26 35,-3 0,-11 8,-29 18,-41 26,-32 64,-21 86,24 18,38 21,86 6,86 -5,0 -10,-8 -10,-18 0,-47 -52,-56 -75,-12 -20,39 -20,46 15,196 16,71 30,135 30,142 0,7 -14,12 -39,12 h -39 l -12,-66 -13,-67 -25,53 c -40,85 -111,112 -181,69 z m 123,-32 c 13,-13 33,-50 45,-82 24,-63 23,-84 -5,-182 -32,-114 -109,-150 -151,-69 -21,41 -30,199 -14,263 22,87 77,118 125,70 z"
       id="path18" />
    <path
       d="m 2280,6070 c 0,-19 7,-20 235,-20 h 235 v -75 c 0,-68 2,-75 20,-75 19,0 20,7 20,95 v 95 h -255 c -248,0 -255,-1 -255,-20 z"
       id="path20" />
    <path
       d="m 8800,6070 c 0,-19 7,-20 235,-20 h 235 v -75 c 0,-68 2,-75 20,-75 19,0 20,7 20,95 v 95 h -255 c -248,0 -255,-1 -255,-20 z"
       id="path22" />
    <path
       d="m 10340,5900 v -40 h 120 120 v 40 40 h -120 -120 z"
       id="path24" />
    <path
       d="m 1810,5760 c -41,-41 -8,-98 49,-85 30,6 31,5 31,-25 0,-32 -38,-79 -85,-106 -11,-7 -17,-15 -13,-19 12,-12 98,45 119,78 29,48 26,117 -7,151 -32,31 -67,33 -94,6 z"
       id="path26" />
    <path
       d="m 3310,5760 c -41,-41 -8,-98 49,-85 30,6 31,5 31,-25 0,-32 -38,-79 -85,-106 -11,-7 -17,-15 -13,-19 12,-12 98,45 119,78 29,48 26,117 -7,151 -32,31 -67,33 -94,6 z"
       id="path28" />
    <path
       d="m 8330,5760 c -41,-41 -8,-98 49,-85 30,6 31,5 31,-25 0,-32 -38,-79 -85,-106 -11,-7 -17,-15 -13,-19 12,-12 98,45 119,78 29,48 26,117 -7,151 -32,31 -67,33 -94,6 z"
       id="path30" />
    <path
       d="m 9840,5760 c -41,-41 -8,-98 49,-85 30,6 31,5 31,-25 0,-32 -38,-79 -85,-106 -11,-7 -17,-15 -13,-19 12,-12 98,45 119,78 29,48 26,117 -7,151 -32,31 -67,33 -94,6 z"
       id="path32" />
    <path
       d="m 14650,5630 c 0,-19 7,-20 255,-20 248,0 255,1 255,20 0,19 -7,20 -255,20 -248,0 -255,-1 -255,-20 z"
       id="path34" />
    <path
       d="m 2780,3940 v -970 h 35 35 v 970 970 h -35 -35 z"
       id="path36" />
    <path
       d="m 9170,3940 v -970 h 35 35 v 970 970 h -35 -35 z"
       id="path38" />
    <path
       d="m 14860,4100 v -810 h 35 35 v 810 810 h -35 -35 z"
       id="path40" />
    <path
       d="m 14757,3142 c 75,-166 139,-299 143,-295 6,8 113,243 222,488 l 48,110 -72,-80 c -40,-44 -94,-102 -120,-130 l -48,-50 v 38 c 0,36 -1,37 -35,37 -34,0 -35,-1 -35,-37 l -1,-38 -77,85 c -181,200 -179,213 -25,-128 z"
       id="path42" />
    <path
       d="m 2540,3139 c 0,-10 261,-584 269,-592 4,-4 67,124 139,284 73,161 131,294 129,296 -2,2 -53,-52 -113,-119 l -109,-122 -3,37 c -3,35 -5,37 -37,37 -32,0 -34,-2 -37,-40 l -3,-41 -90,101 c -49,55 -102,115 -117,132 -16,18 -28,30 -28,27 z"
       id="path44" />
    <path
       d="m 8931,3133 c 15,-42 265,-593 270,-593 4,0 219,471 267,585 5,12 -45,-39 -150,-155 l -77,-85 -1,38 c 0,36 -1,37 -34,37 -33,0 -35,-2 -38,-40 l -3,-41 -119,133 c -66,73 -117,127 -115,121 z"
       id="path46" />
    <path
       d="m 15590,2518 c -85,-44 -84,-40 -90,-468 -3,-206 -9,-381 -13,-387 -6,-10 2,-13 31,-13 49,0 52,5 59,136 l 6,100 36,-18 c 50,-27 127,-20 179,15 76,50 114,176 78,260 -13,33 -78,97 -97,97 -6,0 3,13 20,29 52,49 66,121 35,187 -36,75 -159,106 -244,62 z m 131,-18 c 45,-25 63,-122 36,-200 -12,-34 -14,-35 -62,-35 -43,0 -50,-3 -50,-20 0,-17 7,-20 48,-21 54,-1 67,-13 92,-83 21,-62 19,-153 -4,-199 -32,-62 -105,-81 -168,-42 l -33,20 v 257 c 1,195 4,264 14,282 24,44 84,63 127,41 z"
       id="path48" />
    <path
       d="m 14877,2307 c -136,-62 -248,-116 -248,-122 -1,-5 104,-57 233,-115 291,-132 268,-123 268,-101 0,14 -49,40 -217,116 -120,54 -219,99 -221,100 -1,1 93,44 210,95 117,51 217,97 221,101 5,4 7,14 5,23 -2,12 -55,-8 -251,-97 z"
       id="path50" />
    <path
       d="m 13961,2289 c -49,-30 -69,-57 -87,-118 -32,-108 -1,-243 67,-294 61,-44 184,-24 224,37 18,28 35,26 35,-3 0,-11 8,-29 18,-41 26,-32 64,-21 86,24 18,38 21,86 6,86 -5,0 -10,-8 -10,-18 0,-47 -52,-56 -75,-12 -20,39 -20,46 15,196 16,71 30,135 30,142 0,7 -14,12 -39,12 h -39 l -12,-66 -13,-67 -25,53 c -40,85 -111,112 -181,69 z m 123,-32 c 13,-13 33,-50 45,-82 24,-63 23,-84 -5,-182 -32,-114 -109,-150 -151,-69 -21,41 -30,199 -14,263 22,87 77,118 125,70 z"
       id="path52" />
    <path
       d="m 2593,1967 c -40,-18 -73,-34 -73,-37 0,-4 16,-4 35,-2 30,4 36,1 45,-23 6,-15 10,-129 10,-269 0,-263 -1,-269 -55,-285 -21,-7 6,-9 95,-9 75,0 113,3 94,7 -17,4 -36,11 -42,15 -9,5 -12,93 -12,322 0,245 -3,314 -12,313 -7,0 -46,-15 -85,-32 z"
       id="path54" />
    <path
       d="m 8993,1967 c -40,-18 -73,-34 -73,-37 0,-4 16,-4 35,-2 30,4 36,1 45,-23 6,-15 10,-129 10,-269 0,-263 -1,-269 -55,-285 -21,-7 6,-9 95,-9 75,0 113,3 94,7 -17,4 -36,11 -42,15 -9,5 -12,93 -12,322 0,245 -3,314 -12,313 -7,0 -46,-15 -85,-32 z"
       id="path56" />
    <path
       d="m 4268,1981 c 19,-5 39,-14 45,-20 9,-9 12,-94 12,-296 0,-202 -3,-287 -12,-296 -6,-6 -26,-15 -45,-19 -21,-5 17,-8 107,-8 93,0 129,3 105,8 -54,13 -60,29 -60,166 v 123 l 68,-6 c 86,-7 143,9 186,52 57,57 66,160 18,224 -10,14 -39,37 -63,51 -42,24 -53,25 -219,27 -111,1 -163,-1 -142,-6 z m 265,-32 c 44,-23 66,-53 78,-105 27,-120 -56,-208 -168,-178 -22,6 -23,10 -23,144 0,101 3,140 13,143 23,10 78,7 100,-4 z"
       id="path58" />
    <path
       d="m 10678,1981 c 19,-5 39,-14 45,-20 9,-9 12,-94 12,-296 0,-202 -3,-287 -12,-296 -6,-6 -26,-15 -45,-19 -21,-5 17,-8 107,-8 93,0 129,3 105,8 -54,13 -60,29 -60,166 v 123 l 68,-6 c 86,-7 143,9 186,52 57,57 66,160 18,224 -10,14 -39,37 -63,51 -42,24 -53,25 -219,27 -111,1 -163,-1 -142,-6 z m 265,-32 c 44,-23 66,-53 78,-105 27,-120 -56,-208 -168,-178 -22,6 -23,10 -23,144 0,101 3,140 13,143 23,10 78,7 100,-4 z"
       id="path60" />
    <path
       d="m 1622,1908 c 2,-18 39,-38 221,-116 119,-52 217,-98 217,-101 0,-3 -98,-46 -216,-95 -203,-84 -231,-100 -222,-125 3,-12 495,209 498,223 1,7 -269,135 -478,226 -21,9 -23,8 -20,-12 z"
       id="path62" />
    <path
       d="m 8247,1787 c -136,-62 -248,-116 -248,-122 -1,-5 104,-57 233,-115 291,-132 268,-123 268,-101 0,14 -49,40 -217,116 -120,54 -219,99 -221,100 -1,1 93,44 210,95 117,51 217,97 221,101 5,4 7,14 5,23 -2,12 -55,-8 -251,-97 z"
       id="path64" />
    <path
       d="m 971,1769 c -49,-30 -69,-57 -87,-118 -32,-108 -1,-243 67,-294 61,-44 184,-24 224,37 18,28 35,26 35,-3 0,-11 8,-29 18,-41 26,-32 64,-21 86,24 18,38 21,86 6,86 -5,0 -10,-8 -10,-18 0,-47 -52,-56 -75,-12 -20,39 -20,46 15,196 16,71 30,135 30,142 0,7 -14,12 -39,12 h -39 l -12,-66 -13,-67 -25,53 c -40,85 -111,112 -181,69 z m 123,-32 c 13,-13 33,-50 45,-82 24,-63 23,-84 -5,-182 -32,-114 -109,-150 -151,-69 -21,41 -30,199 -14,263 22,87 77,118 125,70 z"
       id="path66" />
    <path
       d="m 7331,1769 c -49,-30 -69,-57 -87,-118 -32,-108 -1,-243 67,-294 61,-44 184,-24 224,37 18,28 35,26 35,-3 0,-11 8,-29 18,-41 26,-32 64,-21 86,24 18,38 21,86 6,86 -5,0 -10,-8 -10,-18 0,-47 -52,-56 -75,-12 -20,39 -20,46 15,196 16,71 30,135 30,142 0,7 -14,12 -39,12 h -39 l -12,-66 -13,-67 -25,53 c -40,85 -111,112 -181,69 z m 123,-32 c 13,-13 33,-50 45,-82 24,-63 23,-84 -5,-182 -32,-114 -109,-150 -151,-69 -21,41 -30,199 -14,263 22,87 77,118 125,70 z"
       id="path68" />
    <path
       d="m 3776,1518 c -2,-145 -8,-284 -11,-311 -10,-71 28,-103 70,-57 17,18 17,23 1,84 -9,36 -16,79 -16,95 0,29 0,30 28,15 50,-26 83,-18 153,37 42,33 49,35 49,14 0,-27 47,-65 79,-65 36,0 78,35 87,73 8,36 -9,35 -23,-3 -15,-39 -49,-41 -63,-4 -6,14 -10,106 -10,205 v 179 h -40 -40 l -2,-172 -3,-172 -40,-23 c -52,-29 -80,-29 -110,2 -25,24 -25,27 -25,195 v 170 h -39 -40 z"
       id="path70" />
    <path
       d="m 10176,1518 c -2,-145 -8,-284 -11,-311 -10,-71 28,-103 70,-57 17,18 17,23 1,84 -9,36 -16,79 -16,95 0,29 0,30 28,15 50,-26 83,-18 153,37 42,33 49,35 49,14 0,-27 47,-65 79,-65 36,0 78,35 87,73 8,36 -9,35 -23,-3 -15,-39 -49,-41 -63,-4 -6,14 -10,106 -10,205 v 179 h -40 -40 l -2,-172 -3,-172 -40,-23 c -52,-29 -80,-29 -110,2 -25,24 -25,27 -25,195 v 170 h -39 -40 z"
       id="path72" />
    <path
       d="m 14873,1417 c -210,-127 -382,-235 -383,-239 0,-4 38,-19 85,-33 47,-14 123,-37 171,-51 47,-14 84,-29 82,-34 -2,-5 -77,-88 -167,-186 -90,-98 -159,-180 -153,-182 11,-3 764,467 772,482 3,6 -71,29 -163,52 -93,23 -170,44 -172,46 -3,2 69,85 160,184 155,169 176,194 158,194 -5,0 -180,-105 -390,-233 z"
       id="path74" />
    <path
       d="m 3160,1560 v -40 h 120 120 v 40 40 h -120 -120 z"
       id="path76" />
    <path
       d="m 9570,1560 v -40 h 120 120 v 40 40 h -120 -120 z"
       id="path78" />
    <path
       d="m 1620,1290 c 0,-19 7,-20 255,-20 248,0 255,1 255,20 0,19 -7,20 -255,20 -248,0 -255,-1 -255,-20 z"
       id="path80" />
  </g>
</svg>
