<?xml version="1.0" encoding="UTF-8" standalone="no"?>
<svg
   version="1.0"
   width="3384.543pt"
   height="896.86456pt"
   viewBox="0 0 3384.543 896.86456"
   preserveAspectRatio="xMidYMid meet"
   id="svg290"
   xmlns="http://www.w3.org/2000/svg"
   xmlns:svg="http://www.w3.org/2000/svg">
  <defs
     id="defs294" />
  <metadata
     id="metadata2">
Created by potrace 1.16, written by Peter Selinger 2001-2019
</metadata>
  <g
     transform="matrix(0.1,0,0,-0.1,-85,977)"
     fill="#000000"
     stroke="none"
     id="g288">
    <path
       d="m 3800,9750 c -11,-11 -22,-31 -25,-45 -3,-14 -7,-36 -10,-48 -2,-13 -15,-29 -27,-35 l -23,-11 h 23 c 21,-1 22,-4 22,-116 0,-96 -3,-115 -15,-115 -8,0 -15,-4 -15,-10 0,-6 30,-10 71,-10 44,0 68,4 64,10 -3,6 -17,10 -31,10 h -25 l 3,113 3,112 33,3 c 43,4 41,22 -3,22 -33,0 -35,2 -35,34 0,45 16,86 34,86 7,0 21,-10 29,-22 16,-23 16,-23 16,10 1,30 -1,32 -34,32 -22,0 -43,-8 -55,-20 z"
       id="path4" />
    <path
       d="m 10600,9750 c -11,-11 -22,-31 -25,-45 -3,-14 -7,-36 -10,-48 -2,-13 -15,-29 -27,-35 l -23,-11 h 23 c 21,-1 22,-4 22,-116 0,-96 -3,-115 -15,-115 -8,0 -15,-4 -15,-10 0,-6 30,-10 71,-10 44,0 68,4 64,10 -3,6 -17,10 -31,10 h -25 l 3,113 3,112 33,3 c 43,4 41,22 -3,22 -33,0 -35,2 -35,34 0,45 16,86 34,86 7,0 21,-10 29,-22 16,-23 16,-23 16,10 1,30 -1,32 -34,32 -22,0 -43,-8 -55,-20 z"
       id="path6" />
    <path
       d="m 16120,9750 c -11,-11 -22,-31 -25,-45 -3,-14 -7,-36 -10,-48 -2,-13 -15,-29 -27,-35 l -23,-11 h 23 c 21,-1 22,-4 22,-116 0,-96 -3,-115 -15,-115 -8,0 -15,-4 -15,-10 0,-6 30,-10 71,-10 44,0 68,4 64,10 -3,6 -17,10 -31,10 h -25 l 3,113 3,112 33,3 c 43,4 41,22 -3,22 -33,0 -35,2 -35,34 0,45 16,86 34,86 7,0 21,-10 29,-22 16,-23 16,-23 16,10 1,30 -1,32 -34,32 -22,0 -43,-8 -55,-20 z"
       id="path8" />
    <path
       d="m 27100,9750 c -11,-11 -22,-31 -25,-45 -3,-14 -7,-36 -10,-48 -2,-13 -15,-29 -27,-35 l -23,-11 h 23 c 21,-1 22,-4 22,-116 0,-96 -3,-115 -15,-115 -8,0 -15,-4 -15,-10 0,-6 30,-10 71,-10 44,0 68,4 64,10 -3,6 -17,10 -31,10 h -25 l 3,113 3,112 33,3 c 43,4 41,22 -3,22 -33,0 -35,2 -35,34 0,45 16,86 34,86 7,0 21,-10 29,-22 16,-23 16,-23 16,10 1,30 -1,32 -34,32 -22,0 -43,-8 -55,-20 z"
       id="path10" />
    <path
       d="m 1748,9585 c -82,-90 -148,-167 -148,-170 0,-6 177,-207 280,-318 15,-17 24,-9 164,147 81,91 147,168 148,171 0,5 -292,335 -296,335 -1,0 -67,-74 -148,-165 z m 276,-26 c 77,-86 124,-145 119,-152 -4,-7 -61,-72 -127,-145 -95,-105 -123,-130 -132,-120 -7,7 -64,71 -128,142 -113,126 -115,129 -98,150 18,23 235,266 238,266 1,0 58,-63 128,-141 z"
       id="path12" />
    <path
       d="m 15368,9585 c -82,-90 -148,-167 -148,-170 0,-6 177,-207 280,-318 15,-17 24,-9 164,147 81,91 147,168 148,171 0,5 -292,335 -296,335 -1,0 -67,-74 -148,-165 z m 276,-26 c 77,-86 124,-145 119,-152 -4,-7 -61,-72 -127,-145 -95,-105 -123,-130 -132,-120 -7,7 -64,71 -128,142 -113,126 -115,129 -98,150 18,23 235,266 238,266 1,0 58,-63 128,-141 z"
       id="path14" />
    <path
       d="m 20928,9585 c -82,-90 -148,-167 -148,-170 0,-6 177,-207 280,-318 15,-17 24,-9 164,147 81,91 147,168 148,171 0,5 -292,335 -296,335 -1,0 -67,-74 -148,-165 z m 276,-26 c 77,-86 124,-145 119,-152 -4,-7 -61,-72 -127,-145 -95,-105 -123,-130 -132,-120 -7,7 -64,71 -128,142 -113,126 -115,129 -98,150 18,23 235,266 238,266 1,0 58,-63 128,-141 z"
       id="path16" />
    <path
       d="m 3958,9731 c 19,-5 39,-14 45,-20 9,-9 12,-94 12,-296 0,-202 -3,-287 -12,-296 -6,-6 -26,-15 -45,-19 -21,-5 17,-8 107,-8 93,0 129,3 105,8 -54,13 -60,29 -60,166 v 123 l 68,-6 c 86,-7 143,9 186,52 57,57 66,160 18,224 -10,14 -39,37 -63,51 -42,24 -53,25 -219,27 -111,1 -163,-1 -142,-6 z m 265,-32 c 44,-23 66,-53 78,-105 27,-120 -56,-208 -168,-178 -22,6 -23,10 -23,144 0,101 3,140 13,143 23,10 78,7 100,-4 z"
       id="path18" />
    <path
       d="m 10758,9731 c 19,-5 39,-14 45,-20 9,-9 12,-94 12,-296 0,-202 -3,-287 -12,-296 -6,-6 -26,-15 -45,-19 -21,-5 17,-8 107,-8 93,0 129,3 105,8 -54,13 -60,29 -60,166 v 123 l 68,-6 c 86,-7 143,9 186,52 57,57 66,160 18,224 -10,14 -39,37 -63,51 -42,24 -53,25 -219,27 -111,1 -163,-1 -142,-6 z m 265,-32 c 44,-23 66,-53 78,-105 27,-120 -56,-208 -168,-178 -22,6 -23,10 -23,144 0,101 3,140 13,143 23,10 78,7 100,-4 z"
       id="path20" />
    <path
       d="m 16278,9731 c 19,-5 39,-14 45,-20 9,-9 12,-94 12,-296 0,-202 -3,-287 -12,-296 -6,-6 -26,-15 -45,-19 -21,-5 17,-8 107,-8 93,0 129,3 105,8 -54,13 -60,29 -60,166 v 123 l 68,-6 c 86,-7 143,9 186,52 57,57 66,160 18,224 -10,14 -39,37 -63,51 -42,24 -53,25 -219,27 -111,1 -163,-1 -142,-6 z m 265,-32 c 44,-23 66,-53 78,-105 27,-120 -56,-208 -168,-178 -22,6 -23,10 -23,144 0,101 3,140 13,143 23,10 78,7 100,-4 z"
       id="path22" />
    <path
       d="m 21938,9731 c 19,-5 39,-14 45,-20 9,-9 12,-94 12,-296 0,-202 -3,-287 -12,-296 -6,-6 -26,-15 -45,-19 -21,-5 17,-8 107,-8 93,0 129,3 105,8 -54,13 -60,29 -60,166 v 123 l 68,-6 c 86,-7 143,9 186,52 57,57 66,160 18,224 -10,14 -39,37 -63,51 -42,24 -53,25 -219,27 -111,1 -163,-1 -142,-6 z m 265,-32 c 44,-23 66,-53 78,-105 27,-120 -56,-208 -168,-178 -22,6 -23,10 -23,144 0,101 3,140 13,143 23,10 78,7 100,-4 z"
       id="path24" />
    <path
       d="m 27248,9731 c 19,-5 39,-14 45,-20 9,-9 12,-94 12,-296 0,-202 -3,-287 -12,-296 -6,-6 -26,-15 -45,-19 -21,-5 17,-8 107,-8 93,0 129,3 105,8 -54,13 -60,29 -60,166 v 123 l 68,-6 c 86,-7 143,9 186,52 57,57 66,160 18,224 -10,14 -39,37 -63,51 -42,24 -53,25 -219,27 -111,1 -163,-1 -142,-6 z m 265,-32 c 44,-23 66,-53 78,-105 27,-120 -56,-208 -168,-178 -22,6 -23,10 -23,144 0,101 3,140 13,143 23,10 78,7 100,-4 z"
       id="path26" />
    <path
       d="m 32778,9731 c 19,-5 39,-14 45,-20 9,-9 12,-94 12,-296 0,-202 -3,-287 -12,-296 -6,-6 -26,-15 -45,-19 -21,-5 17,-8 107,-8 93,0 129,3 105,8 -54,13 -60,29 -60,166 v 123 l 68,-6 c 86,-7 143,9 186,52 57,57 66,160 18,224 -10,14 -39,37 -63,51 -42,24 -53,25 -219,27 -111,1 -163,-1 -142,-6 z m 265,-32 c 44,-23 66,-53 78,-105 27,-120 -56,-208 -168,-178 -22,6 -23,10 -23,144 0,101 3,140 13,143 23,10 78,7 100,-4 z"
       id="path28" />
    <path
       d="m 2537,9633 c -4,-3 -32,-5 -63,-4 -36,1 -53,-2 -49,-9 3,-5 13,-10 21,-10 12,0 14,-28 14,-169 0,-163 -1,-169 -22,-184 -22,-15 -20,-16 45,-16 43,-1 66,3 62,9 -3,6 -15,10 -26,10 -16,0 -19,7 -19,50 v 50 h 45 c 60,0 103,23 121,65 28,69 11,165 -37,199 -23,16 -80,22 -92,9 z m 63,-41 c 18,-14 24,-32 28,-73 8,-99 -33,-153 -103,-135 -25,6 -25,8 -25,110 0,74 4,106 13,109 27,11 66,6 87,-11 z"
       id="path30" />
    <path
       d="m 3053,9630 c -87,-37 -84,-237 5,-271 43,-17 110,-5 141,25 24,24 26,33 26,111 0,78 -2,87 -27,111 -29,29 -104,42 -145,24 z m 103,-36 c 24,-24 26,-30 22,-106 -3,-69 -6,-82 -27,-99 -29,-24 -53,-24 -82,0 -22,18 -24,27 -24,106 0,79 2,88 24,106 32,26 57,24 87,-7 z"
       id="path32" />
    <path
       d="m 3372,9622 c -26,-13 -35,-14 -41,-3 -5,8 -22,11 -47,8 -33,-3 -36,-5 -16,-12 21,-7 22,-12 22,-120 0,-108 -1,-113 -22,-120 -20,-7 -18,-9 15,-12 20,-2 52,-2 70,0 29,4 30,5 10,12 -22,7 -23,12 -23,110 0,103 0,103 26,109 18,5 32,2 45,-10 18,-16 19,-16 19,19 0,41 -8,44 -58,19 z"
       id="path34" />
    <path
       d="m 9337,9633 c -4,-3 -32,-5 -63,-4 -36,1 -53,-2 -49,-9 3,-5 13,-10 21,-10 12,0 14,-28 14,-169 0,-163 -1,-169 -22,-184 -22,-15 -20,-16 45,-16 43,-1 66,3 62,9 -3,6 -15,10 -26,10 -16,0 -19,7 -19,50 v 50 h 45 c 60,0 103,23 121,65 28,69 11,165 -37,199 -23,16 -80,22 -92,9 z m 63,-41 c 18,-14 24,-32 28,-73 8,-99 -33,-153 -103,-135 -25,6 -25,8 -25,110 0,74 4,106 13,109 27,11 66,6 87,-11 z"
       id="path36" />
    <path
       d="m 9853,9630 c -87,-37 -84,-237 5,-271 43,-17 110,-5 141,25 24,24 26,33 26,111 0,78 -2,87 -27,111 -29,29 -104,42 -145,24 z m 103,-36 c 24,-24 26,-30 22,-106 -3,-69 -6,-82 -27,-99 -29,-24 -53,-24 -82,0 -22,18 -24,27 -24,106 0,79 2,88 24,106 32,26 57,24 87,-7 z"
       id="path38" />
    <path
       d="m 10172,9622 c -26,-13 -35,-14 -41,-3 -5,8 -22,11 -47,8 -33,-3 -36,-5 -16,-12 21,-7 22,-12 22,-120 0,-108 -1,-113 -22,-120 -20,-7 -18,-9 15,-12 20,-2 52,-2 70,0 29,4 30,5 10,12 -22,7 -23,12 -23,110 0,103 0,103 26,109 18,5 32,2 45,-10 18,-16 19,-16 19,19 0,41 -8,44 -58,19 z"
       id="path40" />
    <path
       d="m 21717,9633 c -4,-3 -32,-5 -63,-4 -36,1 -53,-2 -49,-9 3,-5 13,-10 21,-10 12,0 14,-28 14,-169 0,-163 -1,-169 -22,-184 -22,-15 -20,-16 45,-16 43,-1 66,3 62,9 -3,6 -15,10 -26,10 -16,0 -19,7 -19,50 v 50 h 45 c 60,0 103,23 121,65 28,69 11,165 -37,199 -23,16 -80,22 -92,9 z m 63,-41 c 18,-14 24,-32 28,-73 8,-99 -33,-153 -103,-135 -25,6 -25,8 -25,110 0,74 4,106 13,109 27,11 66,6 87,-11 z"
       id="path42" />
    <path
       d="m 32547,9633 c -4,-3 -32,-5 -63,-4 -36,1 -53,-2 -49,-9 3,-5 13,-10 21,-10 12,0 14,-28 14,-169 0,-163 -1,-169 -22,-184 -22,-15 -20,-16 45,-16 43,-1 66,3 62,9 -3,6 -15,10 -26,10 -16,0 -19,7 -19,50 v 50 h 45 c 60,0 103,23 121,65 28,69 11,165 -37,199 -23,16 -80,22 -92,9 z m 63,-41 c 18,-14 24,-32 28,-73 8,-99 -33,-153 -103,-135 -25,6 -25,8 -25,110 0,74 4,106 13,109 27,11 66,6 87,-11 z"
       id="path44" />
    <path
       d="m 8700,9315 v -225 h 225 225 v 225 225 h -225 -225 z m 410,0 v -185 h -185 -185 v 185 185 h 185 185 z"
       id="path46" />
    <path
       d="m 26490,9315 v -225 h 225 225 v 225 225 h -225 -225 z m 410,0 v -185 h -185 -185 v 185 185 h 185 185 z"
       id="path48" />
    <path
       d="m 31910,9315 v -225 h 225 225 v 225 225 h -225 -225 z m 410,0 v -185 h -185 -185 v 185 185 h 185 185 z"
       id="path50" />
    <path
       d="m 4877,9503 c 21,-21 48,-81 103,-226 40,-108 78,-196 84,-194 6,2 37,63 70,135 32,72 62,130 65,127 3,-2 29,-62 56,-134 28,-72 55,-131 61,-131 6,0 46,92 89,205 59,156 84,210 104,225 l 26,19 h -75 c -62,0 -70,-2 -47,-11 15,-5 27,-17 27,-26 0,-21 -93,-272 -101,-272 -9,0 -99,233 -99,257 0,14 10,28 28,37 25,14 21,15 -78,15 -65,0 -97,-3 -85,-9 27,-10 40,-27 60,-76 l 16,-42 -43,-96 c -24,-52 -46,-96 -49,-96 -9,0 -99,252 -99,278 0,14 8,26 23,32 15,6 -5,9 -72,9 l -93,1 z"
       id="path52" />
    <path
       d="m 11687,9503 c 21,-21 48,-81 103,-226 40,-108 78,-196 84,-194 6,2 37,63 70,135 32,72 62,130 65,127 3,-2 29,-62 56,-134 28,-72 55,-131 61,-131 6,0 46,92 89,205 59,156 84,210 104,225 l 26,19 h -75 c -62,0 -70,-2 -47,-11 15,-5 27,-17 27,-26 0,-21 -93,-272 -101,-272 -9,0 -99,233 -99,257 0,14 10,28 28,37 25,14 21,15 -78,15 -65,0 -97,-3 -85,-9 27,-10 40,-27 60,-76 l 16,-42 -43,-96 c -24,-52 -46,-96 -49,-96 -9,0 -99,252 -99,278 0,14 8,26 23,32 15,6 -5,9 -72,9 l -93,1 z"
       id="path54" />
    <path
       d="m 17207,9503 c 21,-21 48,-81 103,-226 40,-108 78,-196 84,-194 6,2 37,63 70,135 32,72 62,130 65,127 3,-2 29,-62 56,-134 28,-72 55,-131 61,-131 6,0 46,92 89,205 59,156 84,210 104,225 l 26,19 h -75 c -62,0 -70,-2 -47,-11 15,-5 27,-17 27,-26 0,-21 -93,-272 -101,-272 -9,0 -99,233 -99,257 0,14 10,28 28,37 25,14 21,15 -78,15 -65,0 -97,-3 -85,-9 27,-10 40,-27 60,-76 l 16,-42 -43,-96 c -24,-52 -46,-96 -49,-96 -9,0 -99,252 -99,278 0,14 8,26 23,32 15,6 -5,9 -72,9 l -93,1 z"
       id="path56" />
    <path
       d="m 22867,9503 c 21,-21 48,-81 103,-226 40,-108 78,-196 84,-194 6,2 37,63 70,135 32,72 62,130 65,127 3,-2 29,-62 56,-134 28,-72 55,-131 61,-131 6,0 46,92 89,205 59,156 84,210 104,225 l 26,19 h -75 c -62,0 -70,-2 -47,-11 15,-5 27,-17 27,-26 0,-21 -93,-272 -101,-272 -9,0 -99,233 -99,257 0,14 10,28 28,37 25,14 21,15 -78,15 -65,0 -97,-3 -85,-9 27,-10 40,-27 60,-76 l 16,-42 -43,-96 c -24,-52 -46,-96 -49,-96 -9,0 -99,252 -99,278 0,14 8,26 23,32 15,6 -5,9 -72,9 l -93,1 z"
       id="path58" />
    <path
       d="m 28177,9503 c 21,-21 48,-81 103,-226 40,-108 78,-196 84,-194 6,2 37,63 70,135 32,72 62,130 65,127 3,-2 29,-62 56,-134 28,-72 55,-131 61,-131 6,0 46,92 89,205 59,156 84,210 104,225 l 26,19 h -75 c -62,0 -70,-2 -47,-11 15,-5 27,-17 27,-26 0,-21 -93,-272 -101,-272 -9,0 -99,233 -99,257 0,14 10,28 28,37 25,14 21,15 -78,15 -65,0 -97,-3 -85,-9 27,-10 40,-27 60,-76 l 16,-42 -43,-96 c -24,-52 -46,-96 -49,-96 -9,0 -99,252 -99,278 0,14 8,26 23,32 15,6 -5,9 -72,9 l -93,1 z"
       id="path60" />
    <path
       d="m 33697,9503 c 21,-21 48,-81 103,-226 40,-108 78,-196 84,-194 6,2 37,63 70,135 32,72 62,130 65,127 3,-2 29,-62 56,-134 28,-72 55,-131 61,-131 6,0 46,92 89,205 59,156 84,210 104,225 l 26,19 h -75 c -62,0 -70,-2 -47,-11 15,-5 27,-17 27,-26 0,-21 -93,-272 -101,-272 -9,0 -99,233 -99,257 0,14 10,28 28,37 25,14 21,15 -78,15 -65,0 -97,-3 -85,-9 27,-10 40,-27 60,-76 l 16,-42 -43,-96 c -24,-52 -46,-96 -49,-96 -9,0 -99,252 -99,278 0,14 8,26 23,32 15,6 -5,9 -72,9 l -93,1 z"
       id="path62" />
    <path
       d="m 850,9480 c 0,-19 7,-20 235,-20 h 235 v -75 c 0,-68 2,-75 20,-75 19,0 20,7 20,95 v 95 h -255 c -248,0 -255,-1 -255,-20 z"
       id="path64" />
    <path
       d="m 8080,9480 c 0,-19 7,-20 235,-20 h 235 v -75 c 0,-68 2,-75 20,-75 19,0 20,7 20,95 v 95 h -255 c -248,0 -255,-1 -255,-20 z"
       id="path66" />
    <path
       d="m 5574,9375 c -8,-21 2,-45 19,-45 21,0 38,25 31,44 -8,20 -43,21 -50,1 z"
       id="path68" />
    <path
       d="m 12384,9375 c -8,-21 2,-45 19,-45 21,0 38,25 31,44 -8,20 -43,21 -50,1 z"
       id="path70" />
    <path
       d="m 17904,9375 c -8,-21 2,-45 19,-45 21,0 38,25 31,44 -8,20 -43,21 -50,1 z"
       id="path72" />
    <path
       d="m 23564,9375 c -8,-21 2,-45 19,-45 21,0 38,25 31,44 -8,20 -43,21 -50,1 z"
       id="path74" />
    <path
       d="m 28874,9375 c -8,-21 2,-45 19,-45 21,0 38,25 31,44 -8,20 -43,21 -50,1 z"
       id="path76" />
    <path
       d="m 34394,9375 c -8,-21 2,-45 19,-45 21,0 38,25 31,44 -8,20 -43,21 -50,1 z"
       id="path78" />
    <path
       d="m 5545,9260 c 3,-5 13,-10 21,-10 11,0 14,-21 14,-113 v -113 l -27,-11 c -24,-9 -18,-11 45,-12 47,-1 71,3 67,9 -3,6 -15,10 -26,10 -18,0 -19,8 -19,125 v 125 h -41 c -24,0 -38,-4 -34,-10 z"
       id="path80" />
    <path
       d="m 12355,9260 c 3,-5 13,-10 21,-10 11,0 14,-21 14,-113 v -113 l -27,-11 c -24,-9 -18,-11 45,-12 47,-1 71,3 67,9 -3,6 -15,10 -26,10 -18,0 -19,8 -19,125 v 125 h -41 c -24,0 -38,-4 -34,-10 z"
       id="path82" />
    <path
       d="m 17875,9260 c 3,-5 13,-10 21,-10 11,0 14,-21 14,-113 v -113 l -27,-11 c -24,-9 -18,-11 45,-12 47,-1 71,3 67,9 -3,6 -15,10 -26,10 -18,0 -19,8 -19,125 v 125 h -41 c -24,0 -38,-4 -34,-10 z"
       id="path84" />
    <path
       d="m 23535,9260 c 3,-5 13,-10 21,-10 11,0 14,-21 14,-113 v -113 l -27,-11 c -24,-9 -18,-11 45,-12 47,-1 71,3 67,9 -3,6 -15,10 -26,10 -18,0 -19,8 -19,125 v 125 h -41 c -24,0 -38,-4 -34,-10 z"
       id="path86" />
    <path
       d="m 28845,9260 c 3,-5 13,-10 21,-10 11,0 14,-21 14,-113 v -113 l -27,-11 c -24,-9 -18,-11 45,-12 47,-1 71,3 67,9 -3,6 -15,10 -26,10 -18,0 -19,8 -19,125 v 125 h -41 c -24,0 -38,-4 -34,-10 z"
       id="path88" />
    <path
       d="m 34365,9260 c 3,-5 13,-10 21,-10 11,0 14,-21 14,-113 v -113 l -27,-11 c -24,-9 -18,-11 45,-12 47,-1 71,3 67,9 -3,6 -15,10 -26,10 -18,0 -19,8 -19,125 v 125 h -41 c -24,0 -38,-4 -34,-10 z"
       id="path90" />
    <path
       d="m 4390,9170 c -41,-41 -8,-98 49,-85 30,6 31,5 31,-25 0,-32 -38,-79 -85,-106 -11,-7 -17,-15 -13,-19 12,-12 98,45 119,78 29,48 26,117 -7,151 -32,31 -67,33 -94,6 z"
       id="path92" />
    <path
       d="m 11200,9170 c -41,-41 -8,-98 49,-85 30,6 31,5 31,-25 0,-32 -38,-79 -85,-106 -11,-7 -17,-15 -13,-19 12,-12 98,45 119,78 29,48 26,117 -7,151 -32,31 -67,33 -94,6 z"
       id="path94" />
    <path
       d="m 16720,9170 c -41,-41 -8,-98 49,-85 30,6 31,5 31,-25 0,-32 -38,-79 -85,-106 -11,-7 -17,-15 -13,-19 12,-12 98,45 119,78 29,48 26,117 -7,151 -32,31 -67,33 -94,6 z"
       id="path96" />
    <path
       d="m 22380,9170 c -41,-41 -8,-98 49,-85 30,6 31,5 31,-25 0,-32 -38,-79 -85,-106 -11,-7 -17,-15 -13,-19 12,-12 98,45 119,78 29,48 26,117 -7,151 -32,31 -67,33 -94,6 z"
       id="path98" />
    <path
       d="m 27690,9170 c -41,-41 -8,-98 49,-85 30,6 31,5 31,-25 0,-32 -38,-79 -85,-106 -11,-7 -17,-15 -13,-19 12,-12 98,45 119,78 29,48 26,117 -7,151 -32,31 -67,33 -94,6 z"
       id="path100" />
    <path
       d="m 33210,9170 c -41,-41 -8,-98 49,-85 30,6 31,5 31,-25 0,-32 -38,-79 -85,-106 -11,-7 -17,-15 -13,-19 12,-12 98,45 119,78 29,48 26,117 -7,151 -32,31 -67,33 -94,6 z"
       id="path102" />
    <path
       d="m 3230,7515 v -815 h 35 35 v 815 815 h -35 -35 z"
       id="path104" />
    <path
       d="m 10242,7518 3,-813 33,-3 32,-3 v 815 816 h -35 -35 z"
       id="path106" />
    <path
       d="m 16492,7518 3,-813 33,-3 32,-3 v 815 816 h -35 -35 z"
       id="path108" />
    <path
       d="m 22120,7515 v -815 h 35 35 v 815 815 h -35 -35 z"
       id="path110" />
    <path
       d="m 27672,7518 3,-813 33,-3 32,-3 v 815 816 h -35 -35 z"
       id="path112" />
    <path
       d="m 33160,7515 v -815 h 35 35 v 815 815 h -35 -35 z"
       id="path114" />
    <path
       d="m 3038,6765 c 137,-308 215,-481 222,-488 4,-4 66,124 138,284 73,161 130,294 128,296 -2,2 -52,-51 -112,-118 l -109,-122 -3,36 c -3,35 -5,37 -38,37 -33,0 -34,-1 -34,-37 v -38 l -48,50 c -26,28 -80,86 -120,130 l -72,80 z"
       id="path116" />
    <path
       d="m 10435,6746 c -60,-69 -113,-125 -117,-125 -5,-1 -8,15 -8,34 0,33 -2,35 -35,35 -34,0 -35,-1 -35,-37 v -38 l -68,75 c -85,96 -165,178 -160,165 85,-199 264,-583 269,-578 11,12 273,593 267,593 -2,0 -52,-56 -113,-124 z"
       id="path118" />
    <path
       d="m 16685,6746 c -60,-69 -113,-125 -117,-125 -5,-1 -8,15 -8,34 0,33 -2,35 -35,35 -34,0 -35,-1 -35,-37 v -38 l -68,75 c -85,96 -165,178 -160,165 85,-199 264,-583 269,-578 11,12 273,593 267,593 -2,0 -52,-56 -113,-124 z"
       id="path120" />
    <path
       d="m 21893,6840 c 34,-82 249,-556 256,-563 4,-4 67,124 139,285 72,160 130,293 128,295 -2,2 -52,-51 -112,-118 l -109,-121 -3,36 c -3,34 -5,36 -38,36 -33,0 -34,-1 -34,-37 v -38 l -53,55 c -29,30 -83,89 -120,130 -58,64 -66,70 -54,40 z"
       id="path122" />
    <path
       d="m 27865,6745 c -61,-68 -113,-124 -117,-124 -5,-1 -8,15 -8,34 0,33 -2,35 -35,35 -34,0 -35,-1 -35,-37 v -38 l -68,75 c -37,41 -88,98 -115,125 l -48,50 24,-55 c 108,-251 243,-538 249,-532 9,9 268,585 265,588 -1,2 -52,-53 -112,-121 z"
       id="path124" />
    <path
       d="m 32948,6810 c 109,-246 236,-526 242,-533 4,-4 42,70 85,165 43,95 104,232 137,303 l 58,130 -42,-45 c -24,-25 -78,-83 -120,-130 l -77,-85 -1,38 c 0,36 -1,37 -35,37 -34,0 -35,-1 -35,-37 v -38 l -48,50 c -26,28 -80,86 -120,130 l -72,80 z"
       id="path126" />
    <path
       d="m 16421,5695 -52,-165 -170,-2 -169,-3 135,-98 c 74,-54 135,-101 135,-104 0,-3 -22,-75 -50,-161 -27,-85 -48,-157 -46,-159 2,-2 39,23 82,55 44,32 104,76 134,99 l 56,40 134,-98 c 73,-54 135,-97 137,-95 3,2 -16,66 -40,143 -24,76 -47,147 -51,159 -5,17 14,35 130,120 l 136,99 -169,3 -169,2 -53,165 c -28,91 -53,165 -55,165 -1,0 -26,-74 -55,-165 z m 98,-82 37,-118 124,-5 125,-5 -97,-70 c -54,-38 -98,-75 -98,-80 0,-6 18,-64 39,-128 22,-65 34,-114 28,-110 -7,4 -54,38 -104,75 -51,37 -95,68 -98,68 -3,0 -51,-34 -105,-75 -55,-42 -100,-72 -100,-67 0,4 16,55 35,112 19,57 35,111 35,120 0,9 -44,47 -97,85 l -98,70 125,5 125,5 39,122 c 22,68 42,121 44,119 2,-3 20,-58 41,-123 z"
       id="path128" />
    <path
       d="m 22101,5695 -52,-165 -170,-2 -169,-3 135,-98 c 74,-54 135,-101 135,-104 0,-3 -22,-75 -50,-161 -27,-85 -48,-157 -46,-159 2,-2 39,23 82,55 44,32 104,76 134,99 l 56,40 134,-98 c 73,-54 135,-97 137,-95 3,2 -16,66 -40,143 -24,76 -47,147 -51,159 -5,17 14,35 130,120 l 136,99 -169,3 -169,2 -53,165 c -28,91 -53,165 -55,165 -1,0 -26,-74 -55,-165 z m 98,-82 37,-118 124,-5 125,-5 -97,-70 c -54,-38 -98,-75 -98,-80 0,-6 18,-64 39,-128 22,-65 34,-114 28,-110 -7,4 -54,38 -104,75 -51,37 -95,68 -98,68 -3,0 -51,-34 -105,-75 -55,-42 -100,-72 -100,-67 0,4 16,55 35,112 19,57 35,111 35,120 0,9 -44,47 -97,85 l -98,70 125,5 125,5 39,122 c 22,68 42,121 44,119 2,-3 20,-58 41,-123 z"
       id="path130" />
    <path
       d="m 27846,5735 c 15,-27 34,-59 41,-70 7,-11 13,-23 13,-27 0,-5 -135,-8 -300,-8 h -300 v -40 -40 h 300 c 165,0 300,-3 300,-8 0,-4 -6,-16 -13,-27 -7,-11 -26,-42 -41,-70 -28,-49 -26,-48 70,48 l 99,97 -99,98 c -96,95 -98,96 -70,47 z"
       id="path132" />
    <path
       d="m 33386,5735 c 15,-27 34,-59 41,-70 7,-11 13,-23 13,-27 0,-5 -135,-8 -300,-8 h -300 v -40 -40 h 300 c 165,0 300,-3 300,-8 0,-4 -6,-16 -13,-27 -7,-11 -26,-42 -41,-70 -28,-49 -26,-48 70,48 l 99,97 -99,98 c -96,95 -98,96 -70,47 z"
       id="path134" />
    <path
       d="m 3020,5720 c -11,-11 -22,-31 -25,-45 -3,-14 -7,-36 -10,-48 -2,-13 -15,-29 -27,-35 l -23,-11 h 23 c 21,-1 22,-4 22,-116 0,-96 -3,-115 -15,-115 -8,0 -15,-4 -15,-10 0,-6 30,-10 71,-10 44,0 68,4 64,10 -3,6 -17,10 -31,10 h -25 l 3,113 3,112 33,3 c 43,4 41,22 -3,22 -33,0 -35,2 -35,34 0,45 16,86 34,86 7,0 21,-10 29,-22 16,-23 16,-23 16,10 1,30 -1,32 -34,32 -22,0 -43,-8 -55,-20 z"
       id="path136" />
    <path
       d="m 10030,5720 c -11,-11 -22,-31 -25,-45 -3,-14 -7,-36 -10,-48 -2,-13 -15,-29 -27,-35 l -23,-11 h 23 c 21,-1 22,-4 22,-116 0,-96 -3,-115 -15,-115 -8,0 -15,-4 -15,-10 0,-6 30,-10 71,-10 44,0 68,4 64,10 -3,6 -17,10 -31,10 h -25 l 3,113 3,112 33,3 c 43,4 41,22 -3,22 -33,0 -35,2 -35,34 0,45 16,86 34,86 7,0 21,-10 29,-22 16,-23 16,-23 16,10 1,30 -1,32 -34,32 -22,0 -43,-8 -55,-20 z"
       id="path138" />
    <path
       d="m 3748,5701 c 19,-5 39,-14 45,-20 9,-9 12,-94 12,-296 0,-202 -3,-287 -12,-296 -6,-6 -26,-15 -45,-19 -21,-5 17,-8 107,-8 93,0 129,3 105,8 -54,13 -60,29 -60,166 v 123 l 68,-6 c 86,-7 143,9 186,52 57,57 66,160 18,224 -10,14 -39,37 -63,51 -42,24 -53,25 -219,27 -111,1 -163,-1 -142,-6 z m 265,-32 c 44,-23 66,-53 78,-105 27,-120 -56,-208 -168,-178 -22,6 -23,10 -23,144 0,101 3,140 13,143 23,10 78,7 100,-4 z"
       id="path140" />
    <path
       d="m 10758,5701 c 19,-5 39,-14 45,-20 9,-9 12,-94 12,-296 0,-202 -3,-287 -12,-296 -6,-6 -26,-15 -45,-19 -21,-5 17,-8 107,-8 93,0 129,3 105,8 -54,13 -60,29 -60,166 v 123 l 68,-6 c 86,-7 143,9 186,52 57,57 66,160 18,224 -10,14 -39,37 -63,51 -42,24 -53,25 -219,27 -111,1 -163,-1 -142,-6 z m 265,-32 c 44,-23 66,-53 78,-105 27,-120 -56,-208 -168,-178 -22,6 -23,10 -23,144 0,101 3,140 13,143 23,10 78,7 100,-4 z"
       id="path142" />
    <path
       d="m 1747,5603 c -4,-3 -32,-5 -63,-4 -36,1 -53,-2 -49,-9 3,-5 13,-10 21,-10 12,0 14,-28 14,-169 0,-163 -1,-169 -22,-184 -22,-15 -20,-16 45,-16 43,-1 66,3 62,9 -3,6 -15,10 -26,10 -16,0 -19,7 -19,50 v 50 h 45 c 60,0 103,23 121,65 28,69 11,165 -37,199 -23,16 -80,22 -92,9 z m 63,-41 c 18,-14 24,-32 28,-73 8,-99 -33,-153 -103,-135 -25,6 -25,8 -25,110 0,74 4,106 13,109 27,11 66,6 87,-11 z"
       id="path144" />
    <path
       d="m 2273,5600 c -87,-37 -84,-237 5,-271 43,-17 110,-5 141,25 24,24 26,33 26,111 0,78 -2,87 -27,111 -29,29 -104,42 -145,24 z m 103,-36 c 24,-24 26,-30 22,-106 -3,-69 -6,-82 -27,-99 -29,-24 -53,-24 -82,0 -22,18 -24,27 -24,106 0,79 2,88 24,106 32,26 57,24 87,-7 z"
       id="path146" />
    <path
       d="m 2592,5592 c -26,-13 -35,-14 -41,-3 -5,8 -22,11 -47,8 -33,-3 -36,-5 -16,-12 21,-7 22,-12 22,-120 0,-108 -1,-113 -22,-120 -20,-7 -18,-9 15,-12 20,-2 52,-2 70,0 29,4 30,5 10,12 -22,7 -23,12 -23,110 0,103 0,103 26,109 18,5 32,2 45,-10 18,-16 19,-16 19,19 0,41 -8,44 -58,19 z"
       id="path148" />
    <path
       d="m 8767,5603 c -4,-3 -32,-5 -63,-4 -36,1 -53,-2 -49,-9 3,-5 13,-10 21,-10 12,0 14,-28 14,-169 0,-163 -1,-169 -22,-184 -22,-15 -20,-16 45,-16 43,-1 66,3 62,9 -3,6 -15,10 -26,10 -16,0 -19,7 -19,50 v 50 h 45 c 60,0 103,23 121,65 28,69 11,165 -37,199 -23,16 -80,22 -92,9 z m 63,-41 c 18,-14 24,-32 28,-73 8,-99 -33,-153 -103,-135 -25,6 -25,8 -25,110 0,74 4,106 13,109 27,11 66,6 87,-11 z"
       id="path150" />
    <path
       d="m 9283,5600 c -87,-37 -84,-237 5,-271 43,-17 110,-5 141,25 24,24 26,33 26,111 0,78 -2,87 -27,111 -29,29 -104,42 -145,24 z m 103,-36 c 24,-24 26,-30 22,-106 -3,-69 -6,-82 -27,-99 -29,-24 -53,-24 -82,0 -22,18 -24,27 -24,106 0,79 2,88 24,106 32,26 57,24 87,-7 z"
       id="path152" />
    <path
       d="m 9602,5592 c -26,-13 -35,-14 -41,-3 -5,8 -22,11 -47,8 -33,-3 -36,-5 -16,-12 21,-7 22,-12 22,-120 0,-108 -1,-113 -22,-120 -20,-7 -18,-9 15,-12 20,-2 52,-2 70,0 29,4 30,5 10,12 -22,7 -23,12 -23,110 0,103 0,103 26,109 18,5 32,2 45,-10 18,-16 19,-16 19,19 0,41 -8,44 -58,19 z"
       id="path154" />
    <path
       d="m 1110,5285 v -225 h 225 225 v 225 225 h -225 -225 z m 410,0 v -185 h -185 -185 v 185 185 h 185 185 z"
       id="path156" />
    <path
       d="m 8130,5285 v -225 h 225 225 v 225 225 h -225 -225 z m 410,0 v -185 h -185 -185 v 185 185 h 185 185 z"
       id="path158" />
    <path
       d="m 4677,5473 c 21,-21 48,-81 103,-226 40,-108 78,-196 84,-194 6,2 37,63 70,135 32,72 62,130 65,127 3,-2 29,-62 56,-134 28,-72 55,-131 61,-131 6,0 46,92 89,205 59,156 84,210 104,225 l 26,19 h -75 c -62,0 -70,-2 -47,-11 15,-5 27,-17 27,-26 0,-21 -93,-272 -101,-272 -9,0 -99,233 -99,257 0,14 10,28 28,37 25,14 21,15 -78,15 -65,0 -97,-3 -85,-9 27,-10 40,-27 60,-76 l 16,-42 -43,-96 c -24,-52 -46,-96 -49,-96 -9,0 -99,252 -99,278 0,14 8,26 23,32 15,6 -5,9 -72,9 l -93,1 z"
       id="path160" />
    <path
       d="m 11687,5473 c 21,-21 48,-81 103,-226 40,-108 78,-196 84,-194 6,2 37,63 70,135 32,72 62,130 65,127 3,-2 29,-62 56,-134 28,-72 55,-131 61,-131 6,0 46,92 89,205 59,156 84,210 104,225 l 26,19 h -75 c -62,0 -70,-2 -47,-11 15,-5 27,-17 27,-26 0,-21 -93,-272 -101,-272 -9,0 -99,233 -99,257 0,14 10,28 28,37 25,14 21,15 -78,15 -65,0 -97,-3 -85,-9 27,-10 40,-27 60,-76 l 16,-42 -43,-96 c -24,-52 -46,-96 -49,-96 -9,0 -99,252 -99,278 0,14 8,26 23,32 15,6 -5,9 -72,9 l -93,1 z"
       id="path162" />
    <path
       d="m 14937,5473 c 21,-21 48,-81 103,-226 40,-108 78,-196 84,-194 6,2 37,63 70,135 32,72 62,130 65,127 3,-2 29,-62 56,-134 28,-72 55,-131 61,-131 6,0 46,92 89,205 59,156 84,210 104,225 l 26,19 h -75 c -62,0 -70,-2 -47,-11 15,-5 27,-17 27,-26 0,-21 -93,-272 -101,-272 -9,0 -99,233 -99,257 0,14 10,28 28,37 25,14 21,15 -78,15 -65,0 -97,-3 -85,-9 27,-10 40,-27 60,-76 l 16,-42 -43,-96 c -24,-52 -46,-96 -49,-96 -9,0 -99,252 -99,278 0,14 8,26 23,32 15,6 -5,9 -72,9 l -93,1 z"
       id="path164" />
    <path
       d="m 17277,5473 c 21,-21 48,-81 103,-226 40,-108 78,-196 84,-194 6,2 37,63 70,135 32,72 62,130 65,127 3,-2 29,-62 56,-134 28,-72 55,-131 61,-131 6,0 46,92 89,205 59,156 84,210 104,225 l 26,19 h -75 c -62,0 -70,-2 -47,-11 15,-5 27,-17 27,-26 0,-21 -93,-272 -101,-272 -9,0 -99,233 -99,257 0,14 10,28 28,37 25,14 21,15 -78,15 -65,0 -97,-3 -85,-9 27,-10 40,-27 60,-76 l 16,-42 -43,-96 c -24,-52 -46,-96 -49,-96 -9,0 -99,252 -99,278 0,14 8,26 23,32 15,6 -5,9 -72,9 l -93,1 z"
       id="path166" />
    <path
       d="m 20557,5473 c 21,-21 48,-81 103,-226 40,-108 78,-196 84,-194 6,2 37,63 70,135 32,72 62,130 65,127 3,-2 29,-62 56,-134 28,-72 55,-131 61,-131 6,0 46,92 89,205 59,156 84,210 104,225 l 26,19 h -75 c -62,0 -70,-2 -47,-11 15,-5 27,-17 27,-26 0,-21 -93,-272 -101,-272 -9,0 -99,233 -99,257 0,14 10,28 28,37 25,14 21,15 -78,15 -65,0 -97,-3 -85,-9 27,-10 40,-27 60,-76 l 16,-42 -43,-96 c -24,-52 -46,-96 -49,-96 -9,0 -99,252 -99,278 0,14 8,26 23,32 15,6 -5,9 -72,9 l -93,1 z"
       id="path168" />
    <path
       d="m 22957,5473 c 21,-21 48,-81 103,-226 40,-108 78,-196 84,-194 6,2 37,63 70,135 32,72 62,130 65,127 3,-2 29,-62 56,-134 28,-72 55,-131 61,-131 6,0 46,92 89,205 59,156 84,210 104,225 l 26,19 h -75 c -62,0 -70,-2 -47,-11 15,-5 27,-17 27,-26 0,-21 -93,-272 -101,-272 -9,0 -99,233 -99,257 0,14 10,28 28,37 25,14 21,15 -78,15 -65,0 -97,-3 -85,-9 27,-10 40,-27 60,-76 l 16,-42 -43,-96 c -24,-52 -46,-96 -49,-96 -9,0 -99,252 -99,278 0,14 8,26 23,32 15,6 -5,9 -72,9 l -93,1 z"
       id="path170" />
    <path
       d="m 26187,5473 c 21,-21 48,-81 103,-226 40,-108 78,-196 84,-194 6,2 37,63 70,135 32,72 62,130 65,127 3,-2 29,-62 56,-134 28,-72 55,-131 61,-131 6,0 46,92 89,205 59,156 84,210 104,225 l 26,19 h -75 c -62,0 -70,-2 -47,-11 15,-5 27,-17 27,-26 0,-21 -93,-272 -101,-272 -9,0 -99,233 -99,257 0,14 10,28 28,37 25,14 21,15 -78,15 -65,0 -97,-3 -85,-9 27,-10 40,-27 60,-76 l 16,-42 -43,-96 c -24,-52 -46,-96 -49,-96 -9,0 -99,252 -99,278 0,14 8,26 23,32 15,6 -5,9 -72,9 l -93,1 z"
       id="path172" />
    <path
       d="m 28367,5473 c 21,-21 48,-81 103,-226 40,-108 78,-196 84,-194 6,2 37,63 70,135 32,72 62,130 65,127 3,-2 29,-62 56,-134 28,-72 55,-131 61,-131 6,0 46,92 89,205 59,156 84,210 104,225 l 26,19 h -75 c -62,0 -70,-2 -47,-11 15,-5 27,-17 27,-26 0,-21 -93,-272 -101,-272 -9,0 -99,233 -99,257 0,14 10,28 28,37 25,14 21,15 -78,15 -65,0 -97,-3 -85,-9 27,-10 40,-27 60,-76 l 16,-42 -43,-96 c -24,-52 -46,-96 -49,-96 -9,0 -99,252 -99,278 0,14 8,26 23,32 15,6 -5,9 -72,9 l -93,1 z"
       id="path174" />
    <path
       d="m 31667,5473 c 21,-21 48,-81 103,-226 40,-108 78,-196 84,-194 6,2 37,63 70,135 32,72 62,130 65,127 3,-2 29,-62 56,-134 28,-72 55,-131 61,-131 6,0 46,92 89,205 59,156 84,210 104,225 l 26,19 h -75 c -62,0 -70,-2 -47,-11 15,-5 27,-17 27,-26 0,-21 -93,-272 -101,-272 -9,0 -99,233 -99,257 0,14 10,28 28,37 25,14 21,15 -78,15 -65,0 -97,-3 -85,-9 27,-10 40,-27 60,-76 l 16,-42 -43,-96 c -24,-52 -46,-96 -49,-96 -9,0 -99,252 -99,278 0,14 8,26 23,32 15,6 -5,9 -72,9 l -93,1 z"
       id="path176" />
    <path
       d="m 33907,5473 c 21,-21 48,-81 103,-226 40,-108 78,-196 84,-194 6,2 37,63 70,135 32,72 62,130 65,127 3,-2 29,-62 56,-134 28,-72 55,-131 61,-131 6,0 46,92 89,205 59,156 84,210 104,225 l 26,19 h -75 c -62,0 -70,-2 -47,-11 15,-5 27,-17 27,-26 0,-21 -93,-272 -101,-272 -9,0 -99,233 -99,257 0,14 10,28 28,37 25,14 21,15 -78,15 -65,0 -97,-3 -85,-9 27,-10 40,-27 60,-76 l 16,-42 -43,-96 c -24,-52 -46,-96 -49,-96 -9,0 -99,252 -99,278 0,14 8,26 23,32 15,6 -5,9 -72,9 l -93,1 z"
       id="path178" />
    <path
       d="m 3150,5450 c 0,-19 7,-20 235,-20 h 235 v -75 c 0,-68 2,-75 20,-75 19,0 20,7 20,95 v 95 h -255 c -248,0 -255,-1 -255,-20 z"
       id="path180" />
    <path
       d="m 10160,5450 c 0,-19 7,-20 235,-20 h 235 v -75 c 0,-68 2,-75 20,-75 19,0 20,7 20,95 v 95 h -255 c -248,0 -255,-1 -255,-20 z"
       id="path182" />
    <path
       d="m 17987,5404 c -25,-25 8,-70 43,-59 32,10 24,59 -10,63 -14,2 -29,0 -33,-4 z"
       id="path184" />
    <path
       d="m 21267,5404 c -25,-25 8,-70 43,-59 32,10 24,59 -10,63 -14,2 -29,0 -33,-4 z"
       id="path186" />
    <path
       d="m 29077,5404 c -25,-25 8,-70 43,-59 32,10 24,59 -10,63 -14,2 -29,0 -33,-4 z"
       id="path188" />
    <path
       d="m 32377,5404 c -25,-25 8,-70 43,-59 32,10 24,59 -10,63 -14,2 -29,0 -33,-4 z"
       id="path190" />
    <path
       d="m 5364,5345 c -8,-21 2,-45 19,-45 21,0 38,25 31,44 -8,20 -43,21 -50,1 z"
       id="path192" />
    <path
       d="m 12384,5345 c -8,-21 2,-45 19,-45 21,0 38,25 31,44 -8,20 -43,21 -50,1 z"
       id="path194" />
    <path
       d="m 15624,5345 c -8,-21 2,-45 19,-45 21,0 38,25 31,44 -8,20 -43,21 -50,1 z"
       id="path196" />
    <path
       d="m 23644,5345 c -8,-21 2,-45 19,-45 21,0 38,25 31,44 -8,20 -43,21 -50,1 z"
       id="path198" />
    <path
       d="m 26874,5345 c -8,-21 2,-45 19,-45 21,0 38,25 31,44 -8,20 -43,21 -50,1 z"
       id="path200" />
    <path
       d="m 27846,5315 c 15,-27 34,-59 41,-70 7,-11 13,-23 13,-27 0,-5 -135,-8 -300,-8 h -300 v -40 -40 h 300 c 165,0 300,-3 300,-8 0,-4 -6,-16 -13,-27 -7,-11 -26,-42 -41,-70 -28,-49 -26,-48 70,48 l 99,97 -99,98 c -96,95 -98,96 -70,47 z"
       id="path202" />
    <path
       d="m 33386,5315 c 15,-27 34,-59 41,-70 7,-11 13,-23 13,-27 0,-5 -135,-8 -300,-8 h -300 v -40 -40 h 300 c 165,0 300,-3 300,-8 0,-4 -6,-16 -13,-27 -7,-11 -26,-42 -41,-70 -28,-49 -26,-48 70,48 l 99,97 -99,98 c -96,95 -98,96 -70,47 z"
       id="path204" />
    <path
       d="m 34604,5345 c -8,-21 2,-45 19,-45 21,0 38,25 31,44 -8,20 -43,21 -50,1 z"
       id="path206" />
    <path
       d="m 17930,5272 c 0,-4 14,-13 30,-19 l 30,-11 -1,-154 c -1,-84 -4,-164 -8,-178 -4,-15 -20,-31 -38,-40 -61,-28 -32,-53 35,-29 60,21 67,43 70,252 l 4,187 h -61 c -34,0 -61,-4 -61,-8 z"
       id="path208" />
    <path
       d="m 21210,5272 c 0,-4 14,-13 30,-19 l 30,-11 -1,-154 c -1,-84 -4,-164 -8,-178 -4,-15 -20,-31 -38,-40 -61,-28 -32,-53 35,-29 60,21 67,43 70,252 l 4,187 h -61 c -34,0 -61,-4 -61,-8 z"
       id="path210" />
    <path
       d="m 29020,5272 c 0,-4 14,-13 30,-19 l 30,-11 -1,-154 c -1,-84 -4,-164 -8,-178 -4,-15 -20,-31 -38,-40 -61,-28 -32,-53 35,-29 60,21 67,43 70,252 l 4,187 h -61 c -34,0 -61,-4 -61,-8 z"
       id="path212" />
    <path
       d="m 32320,5272 c 0,-4 14,-13 30,-19 l 30,-11 -1,-154 c -1,-84 -4,-164 -8,-178 -4,-15 -20,-31 -38,-40 -61,-28 -32,-53 35,-29 60,21 67,43 70,252 l 4,187 h -61 c -34,0 -61,-4 -61,-8 z"
       id="path214" />
    <path
       d="m 5335,5230 c 3,-5 13,-10 21,-10 11,0 14,-21 14,-113 v -113 l -27,-11 c -24,-9 -18,-11 45,-12 47,-1 71,3 67,9 -3,6 -15,10 -26,10 -18,0 -19,8 -19,125 v 125 h -41 c -24,0 -38,-4 -34,-10 z"
       id="path216" />
    <path
       d="m 12355,5230 c 3,-5 13,-10 21,-10 11,0 14,-21 14,-113 v -113 l -27,-11 c -24,-9 -18,-11 45,-12 47,-1 71,3 67,9 -3,6 -15,10 -26,10 -18,0 -19,8 -19,125 v 125 h -41 c -24,0 -38,-4 -34,-10 z"
       id="path218" />
    <path
       d="m 15595,5230 c 3,-5 13,-10 21,-10 11,0 14,-21 14,-113 v -113 l -27,-11 c -24,-9 -18,-11 45,-12 47,-1 71,3 67,9 -3,6 -15,10 -26,10 -18,0 -19,8 -19,125 v 125 h -41 c -24,0 -38,-4 -34,-10 z"
       id="path220" />
    <path
       d="m 23615,5230 c 3,-5 13,-10 21,-10 11,0 14,-21 14,-113 v -113 l -27,-11 c -24,-9 -18,-11 45,-12 47,-1 71,3 67,9 -3,6 -15,10 -26,10 -18,0 -19,8 -19,125 v 125 h -41 c -24,0 -38,-4 -34,-10 z"
       id="path222" />
    <path
       d="m 26845,5230 c 3,-5 13,-10 21,-10 11,0 14,-21 14,-113 v -113 l -27,-11 c -24,-9 -18,-11 45,-12 47,-1 71,3 67,9 -3,6 -15,10 -26,10 -18,0 -19,8 -19,125 v 125 h -41 c -24,0 -38,-4 -34,-10 z"
       id="path224" />
    <path
       d="m 34575,5230 c 3,-5 13,-10 21,-10 11,0 14,-21 14,-113 v -113 l -27,-11 c -24,-9 -18,-11 45,-12 47,-1 71,3 67,9 -3,6 -15,10 -26,10 -18,0 -19,8 -19,125 v 125 h -41 c -24,0 -38,-4 -34,-10 z"
       id="path226" />
    <path
       d="m 4180,5140 c -41,-41 -8,-98 49,-85 30,6 31,5 31,-25 0,-32 -38,-79 -85,-106 -11,-7 -17,-15 -13,-19 12,-12 98,45 119,78 29,48 26,117 -7,151 -32,31 -67,33 -94,6 z"
       id="path228" />
    <path
       d="m 11200,5140 c -41,-41 -8,-98 49,-85 30,6 31,5 31,-25 0,-32 -38,-79 -85,-106 -11,-7 -17,-15 -13,-19 12,-12 98,45 119,78 29,48 26,117 -7,151 -32,31 -67,33 -94,6 z"
       id="path230" />
    <path
       d="m 16497,4303 c -4,-3 -7,-370 -7,-815 v -808 h 35 35 v 815 815 h -28 c -16,0 -32,-3 -35,-7 z"
       id="path232" />
    <path
       d="m 22120,3495 v -815 h 35 35 v 815 815 h -35 -35 z"
       id="path234" />
    <path
       d="m 27677,4303 c -4,-3 -7,-370 -7,-815 v -808 h 35 35 v 815 815 h -28 c -16,0 -32,-3 -35,-7 z"
       id="path236" />
    <path
       d="m 33160,3495 v -815 h 35 35 v 815 815 h -35 -35 z"
       id="path238" />
    <path
       d="m 16264,2825 c 25,-71 262,-583 267,-577 7,6 208,451 250,552 19,45 19,45 -53,-35 -40,-44 -94,-102 -120,-130 l -48,-50 v 43 c 0,43 0,43 -32,40 -30,-3 -34,-7 -38,-40 l -5,-37 -85,95 c -47,52 -98,109 -114,127 -20,22 -27,26 -22,12 z"
       id="path240" />
    <path
       d="m 21903,2790 c 62,-143 240,-536 246,-542 5,-6 238,496 268,577 4,11 -45,-37 -108,-107 l -114,-128 -5,38 c -4,33 -8,37 -37,40 -33,3 -33,3 -33,-40 v -43 l -43,45 c -23,25 -77,83 -120,130 l -77,85 z"
       id="path242" />
    <path
       d="m 27441,2833 c 15,-50 265,-591 270,-585 7,7 225,488 256,562 12,30 2,22 -59,-45 -40,-44 -94,-102 -120,-130 l -48,-50 v 43 c 0,43 0,43 -32,40 -30,-3 -34,-7 -38,-40 l -5,-37 -85,95 c -47,52 -98,109 -114,127 -15,18 -27,27 -25,20 z"
       id="path244" />
    <path
       d="m 32978,2715 c 181,-402 215,-475 218,-472 9,9 263,581 260,584 -2,2 -53,-50 -112,-117 l -109,-121 -3,41 c -3,38 -5,40 -38,40 -33,0 -34,-1 -34,-42 l -1,-43 -77,85 c -42,47 -96,105 -120,130 l -42,45 z"
       id="path246" />
    <path
       d="m 15638,1671 c 19,-5 39,-14 45,-20 9,-9 12,-94 12,-296 0,-202 -3,-287 -12,-296 -6,-6 -26,-15 -45,-19 -21,-5 17,-8 107,-8 93,0 129,3 105,8 -54,13 -60,29 -60,166 v 123 l 68,-6 c 86,-7 143,9 186,52 57,57 66,160 18,224 -10,14 -39,37 -63,51 -42,24 -53,25 -219,27 -111,1 -163,-1 -142,-6 z m 265,-32 c 44,-23 66,-53 78,-105 27,-120 -56,-208 -168,-178 -22,6 -23,10 -23,144 0,101 3,140 13,143 23,10 78,7 100,-4 z"
       id="path248" />
    <path
       d="m 21268,1671 c 19,-5 39,-14 45,-20 9,-9 12,-94 12,-296 0,-202 -3,-287 -12,-296 -6,-6 -26,-15 -45,-19 -21,-5 17,-8 107,-8 93,0 129,3 105,8 -54,13 -60,29 -60,166 v 123 l 68,-6 c 86,-7 143,9 186,52 57,57 66,160 18,224 -10,14 -39,37 -63,51 -42,24 -53,25 -219,27 -111,1 -163,-1 -142,-6 z m 265,-32 c 44,-23 66,-53 78,-105 27,-120 -56,-208 -168,-178 -22,6 -23,10 -23,144 0,101 3,140 13,143 23,10 78,7 100,-4 z"
       id="path250" />
    <path
       d="m 26818,1671 c 19,-5 39,-14 45,-20 9,-9 12,-94 12,-296 0,-202 -3,-287 -12,-296 -6,-6 -26,-15 -45,-19 -21,-5 17,-8 107,-8 93,0 129,3 105,8 -54,13 -60,29 -60,166 v 123 l 68,-6 c 86,-7 143,9 186,52 57,57 66,160 18,224 -10,14 -39,37 -63,51 -42,24 -53,25 -219,27 -111,1 -163,-1 -142,-6 z m 265,-32 c 44,-23 66,-53 78,-105 27,-120 -56,-208 -168,-178 -22,6 -23,10 -23,144 0,101 3,140 13,143 23,10 78,7 100,-4 z"
       id="path252" />
    <path
       d="m 32308,1671 c 19,-5 39,-14 45,-20 9,-9 12,-94 12,-296 0,-202 -3,-287 -12,-296 -6,-6 -26,-15 -45,-19 -21,-5 17,-8 107,-8 93,0 129,3 105,8 -54,13 -60,29 -60,166 v 123 l 68,-6 c 86,-7 143,9 186,52 57,57 66,160 18,224 -10,14 -39,37 -63,51 -42,24 -53,25 -219,27 -111,1 -163,-1 -142,-6 z m 265,-32 c 44,-23 66,-53 78,-105 27,-120 -56,-208 -168,-178 -22,6 -23,10 -23,144 0,101 3,140 13,143 23,10 78,7 100,-4 z"
       id="path254" />
    <path
       d="m 16567,1443 c 21,-21 48,-81 103,-226 40,-108 78,-196 84,-194 6,2 37,63 70,135 32,72 62,130 65,127 3,-2 29,-62 56,-134 28,-72 55,-131 61,-131 6,0 46,92 89,205 59,156 84,210 104,225 l 26,19 h -75 c -62,0 -70,-2 -47,-11 15,-5 27,-17 27,-26 0,-21 -93,-272 -101,-272 -9,0 -99,233 -99,257 0,14 10,28 28,37 25,14 21,15 -78,15 -65,0 -97,-3 -85,-9 27,-10 40,-27 60,-76 l 16,-42 -43,-96 c -24,-52 -46,-96 -49,-96 -9,0 -99,252 -99,278 0,14 8,26 23,32 15,6 -5,9 -72,9 l -93,1 z"
       id="path256" />
    <path
       d="m 22187,1443 c 21,-21 48,-81 103,-226 40,-108 78,-196 84,-194 6,2 37,63 70,135 32,72 62,130 65,127 3,-2 29,-62 56,-134 28,-72 55,-131 61,-131 6,0 46,92 89,205 59,156 84,210 104,225 l 26,19 h -75 c -62,0 -70,-2 -47,-11 15,-5 27,-17 27,-26 0,-21 -93,-272 -101,-272 -9,0 -99,233 -99,257 0,14 10,28 28,37 25,14 21,15 -78,15 -65,0 -97,-3 -85,-9 27,-10 40,-27 60,-76 l 16,-42 -43,-96 c -24,-52 -46,-96 -49,-96 -9,0 -99,252 -99,278 0,14 8,26 23,32 15,6 -5,9 -72,9 l -93,1 z"
       id="path258" />
    <path
       d="m 27747,1443 c 21,-21 48,-81 103,-226 40,-108 78,-196 84,-194 6,2 37,63 70,135 32,72 62,130 65,127 3,-2 29,-62 56,-134 28,-72 55,-131 61,-131 6,0 46,92 89,205 59,156 84,210 104,225 l 26,19 h -75 c -62,0 -70,-2 -47,-11 15,-5 27,-17 27,-26 0,-21 -93,-272 -101,-272 -9,0 -99,233 -99,257 0,14 10,28 28,37 25,14 21,15 -78,15 -65,0 -97,-3 -85,-9 27,-10 40,-27 60,-76 l 16,-42 -43,-96 c -24,-52 -46,-96 -49,-96 -9,0 -99,252 -99,278 0,14 8,26 23,32 15,6 -5,9 -72,9 l -93,1 z"
       id="path260" />
    <path
       d="m 33227,1443 c 21,-21 48,-81 103,-226 40,-108 78,-196 84,-194 6,2 37,63 70,135 32,72 62,130 65,127 3,-2 29,-62 56,-134 28,-72 55,-131 61,-131 6,0 46,92 89,205 59,156 84,210 104,225 l 26,19 h -75 c -62,0 -70,-2 -47,-11 15,-5 27,-17 27,-26 0,-21 -93,-272 -101,-272 -9,0 -99,233 -99,257 0,14 10,28 28,37 25,14 21,15 -78,15 -65,0 -97,-3 -85,-9 27,-10 40,-27 60,-76 l 16,-42 -43,-96 c -24,-52 -46,-96 -49,-96 -9,0 -99,252 -99,278 0,14 8,26 23,32 15,6 -5,9 -72,9 l -93,1 z"
       id="path262" />
    <path
       d="m 17267,1374 c -25,-25 8,-70 43,-59 32,10 24,59 -10,63 -14,2 -29,0 -33,-4 z"
       id="path264" />
    <path
       d="m 22897,1374 c -25,-25 8,-70 43,-59 32,10 24,59 -10,63 -14,2 -29,0 -33,-4 z"
       id="path266" />
    <path
       d="m 28457,1374 c -25,-25 8,-70 43,-59 32,10 24,59 -10,63 -14,2 -29,0 -33,-4 z"
       id="path268" />
    <path
       d="m 33937,1374 c -25,-25 8,-70 43,-59 32,10 24,59 -10,63 -14,2 -29,0 -33,-4 z"
       id="path270" />
    <path
       d="m 17210,1242 c 0,-4 14,-13 30,-19 l 30,-11 -1,-154 c -1,-84 -4,-164 -8,-178 -4,-15 -20,-31 -38,-40 -61,-28 -32,-53 35,-29 60,21 67,43 70,252 l 4,187 h -61 c -34,0 -61,-4 -61,-8 z"
       id="path272" />
    <path
       d="m 22840,1242 c 0,-4 14,-13 30,-19 l 30,-11 -1,-154 c -1,-84 -4,-164 -8,-178 -4,-15 -20,-31 -38,-40 -61,-28 -32,-53 35,-29 60,21 67,43 70,252 l 4,187 h -61 c -34,0 -61,-4 -61,-8 z"
       id="path274" />
    <path
       d="m 28400,1242 c 0,-4 14,-13 30,-19 l 30,-11 -1,-154 c -1,-84 -4,-164 -8,-178 -4,-15 -20,-31 -38,-40 -61,-28 -32,-53 35,-29 60,21 67,43 70,252 l 4,187 h -61 c -34,0 -61,-4 -61,-8 z"
       id="path276" />
    <path
       d="m 33880,1242 c 0,-4 14,-13 30,-19 l 30,-11 -1,-154 c -1,-84 -4,-164 -8,-178 -4,-15 -20,-31 -38,-40 -61,-28 -32,-53 35,-29 60,21 67,43 70,252 l 4,187 h -61 c -34,0 -61,-4 -61,-8 z"
       id="path278" />
    <path
       d="m 16080,1110 c -41,-41 -8,-98 49,-85 30,6 31,5 31,-25 0,-32 -38,-79 -85,-106 -11,-7 -17,-15 -13,-19 12,-12 98,45 119,78 29,48 26,117 -7,151 -32,31 -67,33 -94,6 z"
       id="path280" />
    <path
       d="m 21700,1110 c -41,-41 -8,-98 49,-85 30,6 31,5 31,-25 0,-32 -38,-79 -85,-106 -11,-7 -17,-15 -13,-19 12,-12 98,45 119,78 29,48 26,117 -7,151 -32,31 -67,33 -94,6 z"
       id="path282" />
    <path
       d="m 27260,1110 c -41,-41 -8,-98 49,-85 30,6 31,5 31,-25 0,-32 -38,-79 -85,-106 -11,-7 -17,-15 -13,-19 12,-12 98,45 119,78 29,48 26,117 -7,151 -32,31 -67,33 -94,6 z"
       id="path284" />
    <path
       d="m 32740,1110 c -41,-41 -8,-98 49,-85 30,6 31,5 31,-25 0,-32 -38,-79 -85,-106 -11,-7 -17,-15 -13,-19 12,-12 98,45 119,78 29,48 26,117 -7,151 -32,31 -67,33 -94,6 z"
       id="path286" />
  </g>
</svg>
