<?xml version="1.0" encoding="UTF-8" standalone="no"?>
<svg
   version="1.0"
   width="2617.2739pt"
   height="960.86456pt"
   viewBox="0 0 2617.2739 960.86456"
   preserveAspectRatio="xMidYMid meet"
   id="svg208"
   xmlns="http://www.w3.org/2000/svg"
   xmlns:svg="http://www.w3.org/2000/svg">
  <defs
     id="defs212" />
  <metadata
     id="metadata2">
Created by potrace 1.16, written by Peter Selinger 2001-2019
</metadata>
  <g
     transform="matrix(0.1,0,0,-0.1,-84.028382,1041)"
     fill="#000000"
     stroke="none"
     id="g206">
    <path
       d="m 5000,10060 v -350 l 83,49 c 45,26 177,103 292,171 116,67 214,125 218,129 7,7 -569,351 -587,351 -3,0 -6,-157 -6,-350 z m 268,110 c 103,-61 170,-106 164,-112 -9,-9 -342,-208 -348,-208 -2,0 -4,97 -4,216 0,118 3,213 8,211 4,-2 85,-50 180,-107 z"
       id="path4" />
    <path
       d="m 19010,10060 v -350 l 83,49 c 45,26 177,103 292,171 116,67 214,125 218,129 7,7 -569,351 -587,351 -3,0 -6,-157 -6,-350 z m 268,110 c 103,-61 170,-106 164,-112 -9,-9 -342,-208 -348,-208 -2,0 -4,97 -4,216 0,118 3,213 8,211 4,-2 85,-50 180,-107 z"
       id="path6" />
    <path
       d="m 4159,10352 c -92,-59 -173,-182 -198,-300 -31,-150 10,-320 105,-430 37,-44 134,-116 143,-106 3,2 -18,28 -46,57 -66,67 -89,116 -108,223 -18,106 -19,205 -1,305 19,106 48,166 108,222 28,26 49,50 46,52 -2,3 -24,-8 -49,-23 z"
       id="path8" />
    <path
       d="m 6630,10375 c 0,-3 22,-28 49,-54 27,-26 58,-65 69,-87 31,-61 52,-182 52,-296 0,-183 -40,-301 -125,-375 -25,-23 -45,-44 -45,-47 0,-17 85,43 130,90 87,92 130,203 130,340 0,132 -44,247 -130,338 -44,47 -130,107 -130,91 z"
       id="path10" />
    <path
       d="m 6215,10361 c -95,-25 -191,-114 -221,-204 -10,-29 -17,-82 -17,-122 0,-40 7,-93 17,-122 22,-66 93,-146 159,-179 27,-14 73,-44 100,-66 90,-70 249,-137 330,-138 35,0 15,16 -42,32 -59,18 -133,76 -160,126 -10,19 -7,23 33,41 58,25 125,93 157,156 21,43 24,64 24,155 0,90 -3,111 -23,148 -58,110 -152,173 -262,178 -36,2 -78,0 -95,-5 z m 155,-43 c 81,-41 121,-134 121,-287 1,-153 -39,-243 -126,-282 -79,-37 -159,-19 -214,47 -76,93 -92,315 -31,433 52,102 153,138 250,89 z"
       id="path12" />
    <path
       d="m 20225,10361 c -95,-25 -191,-114 -221,-204 -10,-29 -17,-82 -17,-122 0,-40 7,-93 17,-122 22,-66 93,-146 159,-179 27,-14 73,-44 100,-66 90,-70 249,-137 330,-138 35,0 15,16 -42,32 -59,18 -133,76 -160,126 -10,19 -7,23 33,41 58,25 125,93 157,156 21,43 24,64 24,155 0,90 -3,111 -23,148 -58,110 -152,173 -262,178 -36,2 -78,0 -95,-5 z m 155,-43 c 81,-41 121,-134 121,-287 1,-153 -39,-243 -126,-282 -79,-37 -159,-19 -214,47 -76,93 -92,315 -31,433 52,102 153,138 250,89 z"
       id="path14" />
    <path
       d="m 4268,10351 c 19,-5 39,-14 45,-20 9,-9 12,-94 12,-296 0,-202 -3,-287 -12,-296 -6,-6 -26,-15 -45,-19 -21,-5 17,-8 107,-8 93,0 129,3 105,8 -54,13 -60,29 -60,166 v 123 l 68,-6 c 86,-7 143,9 186,52 57,57 66,160 18,224 -10,14 -39,37 -63,51 -42,24 -53,25 -219,27 -111,1 -163,-1 -142,-6 z m 265,-32 c 44,-23 66,-53 78,-105 27,-120 -56,-208 -168,-178 -22,6 -23,10 -23,144 0,101 3,140 13,143 23,10 78,7 100,-4 z"
       id="path16" />
    <path
       d="m 18278,10351 c 19,-5 39,-14 45,-20 9,-9 12,-94 12,-296 0,-202 -3,-287 -12,-296 -6,-6 -26,-15 -45,-19 -21,-5 17,-8 107,-8 93,0 129,3 105,8 -54,13 -60,29 -60,166 v 123 l 68,-6 c 86,-7 143,9 186,52 57,57 66,160 18,224 -10,14 -39,37 -63,51 -42,24 -53,25 -219,27 -111,1 -163,-1 -142,-6 z m 265,-32 c 44,-23 66,-53 78,-105 27,-120 -56,-208 -168,-178 -22,6 -23,10 -23,144 0,101 3,140 13,143 23,10 78,7 100,-4 z"
       id="path18" />
    <path
       d="m 7487,10123 c 21,-21 48,-81 103,-226 40,-108 78,-196 84,-194 6,2 37,63 70,135 32,72 62,130 65,127 3,-2 29,-62 56,-134 28,-72 55,-131 61,-131 6,0 46,92 89,205 59,156 84,210 104,225 l 26,19 h -75 c -62,0 -70,-2 -47,-11 15,-5 27,-17 27,-26 0,-21 -93,-272 -101,-272 -9,0 -99,233 -99,257 0,14 10,28 28,37 25,14 21,15 -78,15 -65,0 -97,-3 -85,-9 27,-10 40,-27 60,-76 l 16,-42 -43,-96 c -24,-52 -46,-96 -49,-96 -9,0 -99,252 -99,278 0,14 8,26 23,32 15,6 -5,9 -72,9 l -93,1 z"
       id="path20" />
    <path
       d="m 21187,10123 c 21,-21 48,-81 103,-226 40,-108 78,-196 84,-194 6,2 37,63 70,135 32,72 62,130 65,127 3,-2 29,-62 56,-134 28,-72 55,-131 61,-131 6,0 46,92 89,205 59,156 84,210 104,225 l 26,19 h -75 c -62,0 -70,-2 -47,-11 15,-5 27,-17 27,-26 0,-21 -93,-272 -101,-272 -9,0 -99,233 -99,257 0,14 10,28 28,37 25,14 21,15 -78,15 -65,0 -97,-3 -85,-9 27,-10 40,-27 60,-76 l 16,-42 -43,-96 c -24,-52 -46,-96 -49,-96 -9,0 -99,252 -99,278 0,14 8,26 23,32 15,6 -5,9 -72,9 l -93,1 z"
       id="path22" />
    <path
       d="m 3350,10100 c 0,-19 7,-20 235,-20 h 235 v -75 c 0,-68 2,-75 20,-75 19,0 20,7 20,95 v 95 h -255 c -248,0 -255,-1 -255,-20 z"
       id="path24" />
    <path
       d="m 8174,9995 c -8,-21 2,-45 19,-45 21,0 38,25 31,44 -8,20 -43,21 -50,1 z"
       id="path26" />
    <path
       d="m 21874,9995 c -8,-21 2,-45 19,-45 21,0 38,25 31,44 -8,20 -43,21 -50,1 z"
       id="path28" />
    <path
       d="m 8145,9880 c 3,-5 13,-10 21,-10 11,0 14,-21 14,-113 v -113 l -27,-11 c -24,-9 -18,-11 45,-12 47,-1 71,3 67,9 -3,6 -15,10 -26,10 -18,0 -19,8 -19,125 v 125 h -41 c -24,0 -38,-4 -34,-10 z"
       id="path30" />
    <path
       d="m 21845,9880 c 3,-5 13,-10 21,-10 11,0 14,-21 14,-113 v -113 l -27,-11 c -24,-9 -18,-11 45,-12 47,-1 71,3 67,9 -3,6 -15,10 -26,10 -18,0 -19,8 -19,125 v 125 h -41 c -24,0 -38,-4 -34,-10 z"
       id="path32" />
    <path
       d="m 7000,9790 c -41,-41 -8,-98 49,-85 30,6 31,5 31,-25 0,-32 -38,-79 -85,-106 -11,-7 -17,-15 -13,-19 12,-12 98,45 119,78 29,48 26,117 -7,151 -32,31 -67,33 -94,6 z"
       id="path34" />
    <path
       d="m 20700,9790 c -41,-41 -8,-98 49,-85 30,6 31,5 31,-25 0,-32 -38,-79 -85,-106 -11,-7 -17,-15 -13,-19 12,-12 98,45 119,78 29,48 26,117 -7,151 -32,31 -67,33 -94,6 z"
       id="path36" />
    <path
       d="m 5800,8130 v -810 h 35 35 v 810 810 h -35 -35 z"
       id="path38" />
    <path
       d="m 20100,8130 v -810 h 35 35 v 810 810 h -35 -35 z"
       id="path40" />
    <path
       d="m 5583,7420 c 68,-156 240,-536 246,-543 4,-4 67,124 139,285 72,160 130,293 128,295 -2,2 -52,-51 -112,-118 l -109,-121 -3,36 c -3,34 -5,36 -38,36 -33,0 -34,-1 -34,-37 v -38 l -48,50 c -26,28 -80,86 -120,130 l -73,80 z"
       id="path42" />
    <path
       d="m 19874,7455 c 35,-94 262,-583 268,-577 9,9 269,585 265,588 -1,1 -52,-53 -112,-121 -61,-68 -113,-124 -117,-125 -5,0 -8,16 -8,35 0,33 -2,35 -34,35 -32,0 -35,-2 -38,-35 l -3,-35 -114,128 c -63,70 -112,118 -107,107 z"
       id="path44" />
    <path
       d="m 5731,6525 -52,-165 -170,-2 -169,-3 135,-98 c 74,-54 135,-101 135,-104 0,-3 -22,-75 -50,-161 -27,-85 -48,-157 -46,-159 2,-2 39,23 82,55 44,32 104,76 134,99 l 56,40 134,-98 c 73,-54 135,-97 137,-95 3,2 -16,66 -40,143 -24,76 -47,147 -51,159 -5,17 14,35 130,120 l 136,99 -169,3 -169,2 -53,165 c -28,91 -53,165 -55,165 -1,0 -26,-74 -55,-165 z m 98,-82 37,-118 124,-5 125,-5 -97,-70 c -54,-38 -98,-75 -98,-80 0,-6 18,-64 39,-128 22,-65 34,-114 28,-110 -7,4 -54,38 -104,75 -51,37 -95,68 -98,68 -3,0 -51,-34 -105,-75 -55,-42 -100,-72 -100,-67 0,4 16,55 35,112 19,57 35,111 35,120 0,9 -44,47 -97,85 l -98,70 125,5 125,5 39,122 c 22,68 42,121 44,119 2,-3 20,-58 41,-123 z"
       id="path46" />
    <path
       d="m 20276,6565 c 15,-27 34,-59 41,-70 7,-11 13,-23 13,-27 0,-5 -135,-8 -300,-8 h -300 v -40 -40 h 300 c 165,0 300,-3 300,-8 0,-4 -6,-16 -13,-27 -7,-11 -26,-42 -41,-70 -28,-49 -26,-48 70,48 l 99,97 -99,98 c -96,95 -98,96 -70,47 z"
       id="path48" />
    <path
       d="m 4237,6303 c 21,-21 48,-81 103,-226 40,-108 78,-196 84,-194 6,2 37,63 70,135 32,72 62,130 65,127 3,-2 29,-62 56,-134 28,-72 55,-131 61,-131 6,0 46,92 89,205 59,156 84,210 104,225 l 26,19 h -75 c -62,0 -70,-2 -47,-11 15,-5 27,-17 27,-26 0,-21 -93,-272 -101,-272 -9,0 -99,233 -99,257 0,14 10,28 28,37 25,14 21,15 -78,15 -65,0 -97,-3 -85,-9 27,-10 40,-27 60,-76 l 16,-42 -43,-96 c -24,-52 -46,-96 -49,-96 -9,0 -99,252 -99,278 0,14 8,26 23,32 15,6 -5,9 -72,9 l -93,1 z"
       id="path50" />
    <path
       d="m 6587,6303 c 21,-21 48,-81 103,-226 40,-108 78,-196 84,-194 6,2 37,63 70,135 32,72 62,130 65,127 3,-2 29,-62 56,-134 28,-72 55,-131 61,-131 6,0 46,92 89,205 59,156 84,210 104,225 l 26,19 h -75 c -62,0 -70,-2 -47,-11 15,-5 27,-17 27,-26 0,-21 -93,-272 -101,-272 -9,0 -99,233 -99,257 0,14 10,28 28,37 25,14 21,15 -78,15 -65,0 -97,-3 -85,-9 27,-10 40,-27 60,-76 l 16,-42 -43,-96 c -24,-52 -46,-96 -49,-96 -9,0 -99,252 -99,278 0,14 8,26 23,32 15,6 -5,9 -72,9 l -93,1 z"
       id="path52" />
    <path
       d="m 18617,6303 c 21,-21 48,-81 103,-226 40,-108 78,-196 84,-194 6,2 37,63 70,135 32,72 62,130 65,127 3,-2 29,-62 56,-134 28,-72 55,-131 61,-131 6,0 46,92 89,205 59,156 84,210 104,225 l 26,19 h -75 c -62,0 -70,-2 -47,-11 15,-5 27,-17 27,-26 0,-21 -93,-272 -101,-272 -9,0 -99,233 -99,257 0,14 10,28 28,37 25,14 21,15 -78,15 -65,0 -97,-3 -85,-9 27,-10 40,-27 60,-76 l 16,-42 -43,-96 c -24,-52 -46,-96 -49,-96 -9,0 -99,252 -99,278 0,14 8,26 23,32 15,6 -5,9 -72,9 l -93,1 z"
       id="path54" />
    <path
       d="m 20797,6303 c 21,-21 48,-81 103,-226 40,-108 78,-196 84,-194 6,2 37,63 70,135 32,72 62,130 65,127 3,-2 29,-62 56,-134 28,-72 55,-131 61,-131 6,0 46,92 89,205 59,156 84,210 104,225 l 26,19 h -75 c -62,0 -70,-2 -47,-11 15,-5 27,-17 27,-26 0,-21 -93,-272 -101,-272 -9,0 -99,233 -99,257 0,14 10,28 28,37 25,14 21,15 -78,15 -65,0 -97,-3 -85,-9 27,-10 40,-27 60,-76 l 16,-42 -43,-96 c -24,-52 -46,-96 -49,-96 -9,0 -99,252 -99,278 0,14 8,26 23,32 15,6 -5,9 -72,9 l -93,1 z"
       id="path56" />
    <path
       d="m 7287,6234 c -25,-25 8,-70 43,-59 32,10 24,59 -10,63 -14,2 -29,0 -33,-4 z"
       id="path58" />
    <path
       d="m 21507,6234 c -25,-25 8,-70 43,-59 32,10 24,59 -10,63 -14,2 -29,0 -33,-4 z"
       id="path60" />
    <path
       d="m 4934,6175 c -8,-21 2,-45 19,-45 21,0 38,25 31,44 -8,20 -43,21 -50,1 z"
       id="path62" />
    <path
       d="m 19304,6175 c -8,-21 2,-45 19,-45 21,0 38,25 31,44 -8,20 -43,21 -50,1 z"
       id="path64" />
    <path
       d="m 20276,6145 c 15,-27 34,-59 41,-70 7,-11 13,-23 13,-27 0,-5 -135,-8 -300,-8 h -300 v -40 -40 h 300 c 165,0 300,-3 300,-8 0,-4 -6,-16 -13,-27 -7,-11 -26,-42 -41,-70 -28,-49 -26,-48 70,48 l 99,97 -99,98 c -96,95 -98,96 -70,47 z"
       id="path66" />
    <path
       d="m 7230,6102 c 0,-4 14,-13 30,-19 l 30,-11 -1,-154 c -1,-84 -4,-164 -8,-178 -4,-15 -20,-31 -38,-40 -61,-28 -32,-53 35,-29 60,21 67,43 70,252 l 4,187 h -61 c -34,0 -61,-4 -61,-8 z"
       id="path68" />
    <path
       d="m 21450,6102 c 0,-4 14,-13 30,-19 l 30,-11 -1,-154 c -1,-84 -4,-164 -8,-178 -4,-15 -20,-31 -38,-40 -61,-28 -32,-53 35,-29 60,21 67,43 70,252 l 4,187 h -61 c -34,0 -61,-4 -61,-8 z"
       id="path70" />
    <path
       d="m 4905,6060 c 3,-5 13,-10 21,-10 11,0 14,-21 14,-113 v -113 l -27,-11 c -24,-9 -18,-11 45,-12 47,-1 71,3 67,9 -3,6 -15,10 -26,10 -18,0 -19,8 -19,125 v 125 h -41 c -24,0 -38,-4 -34,-10 z"
       id="path72" />
    <path
       d="m 19275,6060 c 3,-5 13,-10 21,-10 11,0 14,-21 14,-113 v -113 l -27,-11 c -24,-9 -18,-11 45,-12 47,-1 71,3 67,9 -3,6 -15,10 -26,10 -18,0 -19,8 -19,125 v 125 h -41 c -24,0 -38,-4 -34,-10 z"
       id="path74" />
    <path
       d="m 9113,5504 c -15,-24 -15,-29 -2,-53 18,-32 45,-38 70,-15 24,22 24,56 1,77 -26,24 -49,21 -69,-9 z"
       id="path76" />
    <path
       d="m 9603,5506 c -59,-25 -81,-41 -41,-31 45,11 48,-9 48,-302 0,-289 -3,-306 -53,-316 -12,-2 30,-5 93,-5 101,-1 111,1 80,11 l -35,12 -3,155 -2,156 30,23 c 39,28 89,37 113,19 25,-19 36,-81 36,-208 1,-116 -10,-150 -49,-161 -14,-4 25,-7 85,-7 61,1 100,3 88,5 -43,8 -48,28 -51,192 -3,167 -10,200 -50,231 -44,36 -112,19 -179,-43 l -23,-20 v 156 c 0,179 5,172 -87,133 z"
       id="path78" />
    <path
       d="m 14270,5508 c -56,-21 -96,-47 -52,-33 50,15 52,5 52,-299 0,-154 -4,-286 -8,-293 -4,-7 -19,-16 -32,-22 -19,-7 3,-10 85,-9 61,0 101,3 90,5 -11,3 -28,12 -37,21 -16,14 -18,43 -18,334 0,248 -3,318 -12,317 -7,0 -38,-9 -68,-21 z"
       id="path80" />
    <path
       d="m 20203,5504 c -15,-24 -15,-29 -2,-53 18,-32 45,-38 70,-15 24,22 24,56 1,77 -26,24 -49,21 -69,-9 z"
       id="path82" />
    <path
       d="m 24185,5509 c -52,-21 -88,-47 -50,-35 40,11 49,-7 53,-108 3,-53 2,-96 -1,-96 -2,0 -18,7 -33,15 -120,62 -267,-64 -268,-230 -1,-83 21,-133 76,-178 62,-50 153,-46 197,7 20,24 31,19 31,-14 0,-36 4,-36 72,-9 54,21 86,42 52,33 -48,-11 -49,-5 -53,326 -2,224 -6,310 -15,309 -6,0 -33,-9 -61,-20 z m -48,-259 c 42,-25 53,-67 53,-203 v -107 l -32,-20 c -41,-25 -72,-25 -112,-1 -47,30 -69,74 -74,157 -4,61 -1,80 18,118 35,72 88,93 147,56 z"
       id="path84" />
    <path
       d="m 25363,5504 c -15,-24 -15,-29 -2,-53 18,-32 45,-38 70,-15 24,22 24,56 1,77 -26,24 -49,21 -69,-9 z"
       id="path86" />
    <path
       d="m 25853,5506 c -59,-25 -81,-41 -41,-31 45,11 48,-9 48,-302 0,-289 -3,-306 -53,-316 -12,-2 30,-5 93,-5 101,-1 111,1 80,11 l -35,12 -3,155 -2,156 30,23 c 39,28 89,37 113,19 25,-19 36,-81 36,-208 1,-116 -10,-150 -49,-161 -14,-4 25,-7 85,-7 61,1 100,3 88,5 -43,8 -48,28 -51,192 -3,167 -10,200 -50,231 -44,36 -112,19 -179,-43 l -23,-20 v 156 c 0,179 5,172 -87,133 z"
       id="path88" />
    <path
       d="m 10308,5491 c 19,-5 39,-14 45,-20 9,-9 12,-94 12,-296 0,-202 -3,-287 -12,-296 -6,-6 -26,-15 -45,-19 -21,-5 17,-8 107,-8 93,0 129,3 105,8 -54,13 -60,29 -60,166 v 123 l 68,-6 c 86,-7 143,9 186,52 57,57 66,160 18,224 -10,14 -39,37 -63,51 -42,24 -53,25 -219,27 -111,1 -163,-1 -142,-6 z m 265,-32 c 44,-23 66,-53 78,-105 27,-120 -56,-208 -168,-178 -22,6 -23,10 -23,144 0,101 3,140 13,143 23,10 78,7 100,-4 z"
       id="path90" />
    <path
       d="m 26558,5491 c 19,-5 39,-14 45,-20 9,-9 12,-94 12,-296 0,-202 -3,-287 -12,-296 -6,-6 -26,-15 -45,-19 -21,-5 17,-8 107,-8 93,0 129,3 105,8 -54,13 -60,29 -60,166 v 123 l 68,-6 c 86,-7 143,9 186,52 57,57 66,160 18,224 -10,14 -39,37 -63,51 -42,24 -53,25 -219,27 -111,1 -163,-1 -142,-6 z m 265,-32 c 44,-23 66,-53 78,-105 27,-120 -56,-208 -168,-178 -22,6 -23,10 -23,144 0,101 3,140 13,143 23,10 78,7 100,-4 z"
       id="path92" />
    <path
       d="m 958,5396 c -21,-44 -74,-103 -99,-111 -31,-10 -22,-25 16,-25 h 35 v -176 c 0,-177 5,-205 39,-231 38,-29 110,-3 137,48 8,17 12,29 7,27 -4,-2 -21,-10 -36,-18 -21,-10 -33,-11 -45,-3 -15,9 -17,34 -20,182 l -2,171 h 50 c 38,0 50,4 50,15 0,11 -12,15 -50,15 h -50 v 70 c 0,39 -4,70 -8,70 -5,0 -16,-15 -24,-34 z"
       id="path94" />
    <path
       d="m 7065,5411 c -10,-34 -65,-101 -97,-121 -28,-17 -34,-17 -52,-4 -11,8 -28,14 -37,14 -22,0 -67,-37 -90,-74 l -19,-31 v 53 c 0,61 -3,62 -81,30 -56,-22 -92,-46 -53,-34 14,4 28,1 38,-9 13,-14 16,-43 16,-179 0,-174 -3,-186 -55,-199 -11,-2 32,-5 95,-5 105,-1 112,0 84,12 -17,8 -34,21 -38,31 -3,9 -6,74 -6,144 0,125 0,127 28,161 l 29,34 31,-23 c 41,-29 65,-24 77,17 8,28 14,32 42,32 h 33 v -176 c 0,-177 5,-205 39,-231 38,-29 110,-3 137,48 8,17 12,29 7,27 -4,-2 -21,-10 -36,-18 -21,-10 -33,-11 -45,-3 -15,9 -17,34 -20,182 l -2,171 h 50 c 38,0 50,4 50,15 0,11 -12,15 -50,15 h -50 v 70 c 0,67 -12,91 -25,51 z"
       id="path96" />
    <path
       d="m 9398,5396 c -21,-44 -74,-103 -99,-111 -31,-10 -22,-25 16,-25 h 35 v -176 c 0,-177 5,-205 39,-231 38,-29 110,-3 137,48 8,17 12,29 7,27 -4,-2 -21,-10 -36,-18 -21,-10 -33,-11 -45,-3 -15,9 -17,34 -20,182 l -2,171 h 50 c 38,0 50,4 50,15 0,11 -12,15 -50,15 h -50 v 70 c 0,39 -4,70 -8,70 -5,0 -16,-15 -24,-34 z"
       id="path98" />
    <path
       d="m 19961,5385 c -33,-62 -87,-109 -115,-100 -52,16 -63,16 -90,-6 -15,-12 -37,-36 -47,-53 l -19,-31 v 53 c 0,61 -3,62 -81,30 -56,-22 -92,-46 -53,-34 14,4 28,1 38,-9 13,-14 16,-43 16,-179 0,-174 -3,-186 -55,-199 -11,-2 32,-5 95,-5 105,-1 112,0 84,12 -17,8 -34,21 -38,31 -3,9 -6,74 -6,144 0,125 0,127 28,161 l 29,34 31,-23 c 41,-29 65,-24 77,17 7,26 14,32 37,32 h 28 v -176 c 0,-177 5,-205 39,-231 38,-29 110,-3 137,48 8,17 12,29 7,27 -4,-2 -21,-10 -36,-18 -21,-10 -33,-11 -45,-3 -15,9 -17,34 -20,182 l -2,171 h 50 c 38,0 50,4 50,15 0,11 -12,15 -50,15 h -50 v 70 c 0,39 -3,70 -8,70 -4,0 -18,-20 -31,-45 z"
       id="path100" />
    <path
       d="m 21948,5396 c -21,-44 -74,-103 -99,-111 -31,-10 -22,-25 16,-25 h 35 v -176 c 0,-177 5,-205 39,-231 38,-29 110,-3 137,48 8,17 12,29 7,27 -4,-2 -21,-10 -36,-18 -21,-10 -33,-11 -45,-3 -15,9 -17,34 -20,182 l -2,171 h 50 c 38,0 50,4 50,15 0,11 -12,15 -50,15 h -50 v 70 c 0,39 -4,70 -8,70 -5,0 -16,-15 -24,-34 z"
       id="path102" />
    <path
       d="m 25648,5396 c -21,-44 -74,-103 -99,-111 -31,-10 -22,-25 16,-25 h 35 v -176 c 0,-177 5,-205 39,-231 38,-29 110,-3 137,48 8,17 12,29 7,27 -4,-2 -21,-10 -36,-18 -21,-10 -33,-11 -45,-3 -15,9 -17,34 -20,182 l -2,171 h 50 c 38,0 50,4 50,15 0,11 -12,15 -50,15 h -50 v 70 c 0,39 -4,70 -8,70 -5,0 -16,-15 -24,-34 z"
       id="path104" />
    <path
       d="m 1213,5280 c -54,-24 -83,-76 -65,-115 23,-50 72,-25 72,36 0,43 27,69 70,69 38,0 60,-20 70,-65 14,-61 15,-60 -57,-90 -76,-32 -132,-64 -151,-88 -39,-47 -31,-130 16,-168 38,-29 98,-22 150,20 22,17 42,31 45,31 2,0 7,-13 10,-30 11,-52 80,-48 131,9 23,26 16,37 -14,21 -39,-21 -45,-1 -48,163 -1,86 -7,162 -14,174 -25,50 -140,68 -215,33 z m 157,-249 c 0,-74 -2,-81 -26,-100 -57,-44 -107,-39 -130,14 -16,40 -8,69 27,101 21,19 102,61 122,63 4,1 7,-35 7,-78 z"
       id="path106" />
    <path
       d="m 1680,5289 c -41,-16 -90,-70 -101,-111 -13,-51 2,-106 41,-143 l 29,-28 -34,-39 c -41,-44 -43,-63 -14,-94 l 22,-23 -42,-47 c -50,-57 -52,-85 -8,-118 131,-100 397,-18 397,122 0,78 -37,99 -194,108 -129,8 -148,17 -116,56 17,22 25,25 68,20 125,-12 217,94 179,207 l -14,40 41,3 c 61,4 45,22 -26,29 -35,3 -79,11 -98,18 -42,13 -96,13 -130,0 z m 114,-40 c 33,-39 39,-65 34,-141 -4,-48 -9,-65 -27,-79 -45,-37 -96,-18 -130,48 -26,51 -6,181 31,196 35,14 67,6 92,-24 z m 100,-418 c 42,-10 54,-33 33,-65 -33,-50 -63,-61 -163,-61 -78,0 -97,3 -121,21 -35,26 -40,62 -14,96 21,26 22,26 128,21 60,-3 121,-8 137,-12 z"
       id="path108" />
    <path
       d="m 6350,5278 c -25,-13 -57,-41 -74,-65 -25,-36 -30,-54 -34,-121 -5,-93 7,-139 51,-189 56,-64 134,-80 207,-43 44,23 86,78 96,128 8,40 -1,41 -21,2 -32,-61 -113,-87 -173,-56 -54,28 -82,71 -96,149 l -7,37 h 152 152 l -6,42 c -15,112 -140,171 -247,116 z m 121,-37 c 19,-20 29,-40 29,-60 v -31 h -99 -100 l 10,33 c 5,17 22,44 39,60 41,37 83,36 121,-2 z"
       id="path110" />
    <path
       d="m 7340,5278 c -25,-13 -57,-41 -74,-65 -25,-36 -30,-54 -34,-121 -5,-93 7,-139 51,-189 56,-64 134,-80 207,-43 44,23 86,78 96,128 8,40 -1,41 -21,2 -32,-61 -113,-87 -173,-56 -54,28 -82,71 -96,149 l -7,37 h 152 152 l -6,42 c -15,112 -140,171 -247,116 z m 121,-37 c 19,-20 29,-40 29,-60 v -31 h -99 -100 l 10,33 c 5,17 22,44 39,60 41,37 83,36 121,-2 z"
       id="path112" />
    <path
       d="m 9110,5278 c -56,-21 -96,-47 -52,-33 47,14 52,-4 52,-184 0,-91 -4,-171 -8,-178 -4,-7 -19,-16 -32,-22 -19,-7 3,-10 85,-10 78,1 102,3 81,9 -16,5 -33,15 -37,22 -5,7 -9,104 -9,216 0,155 -3,202 -12,201 -7,0 -38,-9 -68,-21 z"
       id="path114" />
    <path
       d="m 13395,5281 c -92,-42 -148,-157 -127,-261 15,-71 56,-129 112,-158 62,-32 145,-26 203,15 75,52 114,173 88,268 -32,120 -167,186 -276,136 z m 129,-41 c 44,-39 66,-104 66,-197 0,-82 -16,-132 -51,-157 -55,-38 -120,-9 -157,72 -35,74 -39,208 -8,259 37,60 97,69 150,23 z"
       id="path116" />
    <path
       d="m 13775,5278 c -58,-22 -85,-43 -43,-33 41,10 48,-15 48,-187 0,-165 -7,-192 -53,-201 -12,-2 30,-5 93,-5 101,-1 111,1 80,11 l -35,12 -3,157 -2,156 30,22 c 17,12 48,24 69,27 34,5 41,2 57,-23 16,-23 19,-52 22,-164 3,-148 -5,-179 -48,-191 -14,-4 25,-7 85,-7 61,1 100,3 88,5 -43,8 -48,28 -51,192 -3,167 -10,200 -50,231 -44,36 -112,19 -179,-43 l -23,-20 v 41 c 0,49 -7,51 -85,20 z"
       id="path118" />
    <path
       d="m 19260,5278 c -25,-13 -57,-41 -74,-65 -25,-36 -30,-54 -34,-121 -5,-93 7,-139 51,-189 56,-64 134,-80 207,-43 44,23 86,78 96,128 8,40 -1,41 -21,2 -32,-61 -113,-87 -173,-56 -54,28 -82,71 -96,149 l -7,37 h 152 152 l -6,42 c -15,112 -140,171 -247,116 z m 121,-37 c 19,-20 29,-40 29,-60 v -31 h -99 -100 l 10,33 c 5,17 22,44 39,60 41,37 83,36 121,-2 z"
       id="path120" />
    <path
       d="m 20200,5278 c -56,-21 -96,-47 -52,-33 47,14 52,-4 52,-184 0,-91 -4,-171 -8,-178 -4,-7 -19,-16 -32,-22 -19,-7 3,-10 85,-10 78,1 102,3 81,9 -16,5 -33,15 -37,22 -5,7 -9,104 -9,216 0,155 -3,202 -12,201 -7,0 -38,-9 -68,-21 z"
       id="path122" />
    <path
       d="m 20538,5291 c -15,-5 -41,-19 -57,-30 -94,-67 -116,-239 -44,-343 29,-42 94,-78 142,-78 71,0 147,66 170,148 14,47 1,46 -30,-2 -83,-132 -249,-49 -249,124 0,89 49,160 111,160 33,0 69,-31 69,-59 0,-46 69,-70 90,-32 26,50 -41,113 -124,117 -28,2 -63,-1 -78,-5 z"
       id="path124" />
    <path
       d="m 20930,5278 c -25,-13 -57,-41 -74,-65 -25,-36 -30,-54 -34,-121 -5,-93 7,-139 51,-189 56,-64 134,-80 207,-43 44,23 86,78 96,128 8,40 -1,41 -21,2 -32,-61 -113,-87 -173,-56 -54,28 -82,71 -96,149 l -7,37 h 152 152 l -6,42 c -15,112 -140,171 -247,116 z m 121,-37 c 19,-20 29,-40 29,-60 v -31 h -99 -100 l 10,33 c 5,17 22,44 39,60 41,37 83,36 121,-2 z"
       id="path126" />
    <path
       d="m 21314,5284 c -39,-19 -64,-62 -64,-111 0,-54 19,-75 107,-123 89,-47 113,-70 113,-111 0,-96 -147,-88 -188,11 -10,22 -20,40 -24,40 -5,0 -8,-34 -8,-75 0,-41 4,-75 9,-75 5,0 11,5 13,12 3,9 15,9 50,0 67,-17 103,-15 148,8 45,23 70,63 70,112 0,57 -29,89 -130,143 -74,40 -96,56 -103,79 -9,26 -6,33 17,53 53,45 135,16 157,-57 7,-22 16,-40 21,-40 4,0 8,34 8,75 0,41 -4,75 -9,75 -5,0 -11,-5 -13,-12 -4,-10 -13,-10 -45,0 -53,16 -91,15 -129,-4 z"
       id="path128" />
    <path
       d="m 22203,5280 c -54,-24 -83,-76 -65,-115 23,-50 72,-25 72,36 0,43 27,69 70,69 38,0 60,-20 70,-65 14,-61 15,-60 -57,-90 -76,-32 -132,-64 -151,-88 -39,-47 -31,-130 16,-168 38,-29 98,-22 150,20 22,17 42,31 45,31 2,0 7,-13 10,-30 11,-52 80,-48 131,9 23,26 16,37 -14,21 -39,-21 -45,-1 -48,163 -1,86 -7,162 -14,174 -25,50 -140,68 -215,33 z m 157,-249 c 0,-74 -2,-81 -26,-100 -57,-44 -107,-39 -130,14 -16,40 -8,69 27,101 21,19 102,61 122,63 4,1 7,-35 7,-78 z"
       id="path130" />
    <path
       d="m 22670,5289 c -41,-16 -90,-70 -101,-111 -13,-51 2,-106 41,-143 l 29,-28 -34,-39 c -41,-44 -43,-63 -14,-94 l 22,-23 -42,-47 c -50,-57 -52,-85 -8,-118 131,-100 397,-18 397,122 0,78 -37,99 -194,108 -129,8 -148,17 -116,56 17,22 25,25 68,20 125,-12 217,94 179,207 l -14,40 41,3 c 61,4 45,22 -26,29 -35,3 -79,11 -98,18 -42,13 -96,13 -130,0 z m 114,-40 c 33,-39 39,-65 34,-141 -4,-48 -9,-65 -27,-79 -45,-37 -96,-18 -130,48 -26,51 -6,181 31,196 35,14 67,6 92,-24 z m 100,-418 c 42,-10 54,-33 33,-65 -33,-50 -63,-61 -163,-61 -78,0 -97,3 -121,21 -35,26 -40,62 -14,96 21,26 22,26 128,21 60,-3 121,-8 137,-12 z"
       id="path132" />
    <path
       d="m 23140,5289 c -41,-16 -90,-70 -101,-111 -13,-51 2,-106 41,-143 l 29,-28 -34,-39 c -41,-44 -43,-63 -14,-94 l 22,-23 -42,-47 c -50,-57 -52,-85 -8,-118 131,-100 397,-18 397,122 0,78 -37,99 -194,108 -129,8 -148,17 -116,56 17,22 25,25 68,20 125,-12 217,94 179,207 l -14,40 41,3 c 61,4 45,22 -26,29 -35,3 -79,11 -98,18 -42,13 -96,13 -130,0 z m 114,-40 c 33,-39 39,-65 34,-141 -4,-48 -9,-65 -27,-79 -45,-37 -96,-18 -130,48 -26,51 -6,181 31,196 35,14 67,6 92,-24 z m 100,-418 c 42,-10 54,-33 33,-65 -33,-50 -63,-61 -163,-61 -78,0 -97,3 -121,21 -35,26 -40,62 -14,96 21,26 22,26 128,21 60,-3 121,-8 137,-12 z"
       id="path134" />
    <path
       d="m 23590,5278 c -25,-13 -57,-41 -74,-65 -25,-36 -30,-54 -34,-121 -5,-93 7,-139 51,-189 56,-64 134,-80 207,-43 44,23 86,78 96,128 8,40 -1,41 -21,2 -32,-61 -113,-87 -173,-56 -54,28 -82,71 -96,149 l -7,37 h 152 152 l -6,42 c -15,112 -140,171 -247,116 z m 121,-37 c 19,-20 29,-40 29,-60 v -31 h -99 -100 l 10,33 c 5,17 22,44 39,60 41,37 83,36 121,-2 z"
       id="path136" />
    <path
       d="m 25360,5278 c -56,-21 -96,-47 -52,-33 47,14 52,-4 52,-184 0,-91 -4,-171 -8,-178 -4,-7 -19,-16 -32,-22 -19,-7 3,-10 85,-10 78,1 102,3 81,9 -16,5 -33,15 -37,22 -5,7 -9,104 -9,216 0,155 -3,202 -12,201 -7,0 -38,-9 -68,-21 z"
       id="path138" />
    <path
       d="m 2277,5263 c 21,-21 48,-81 103,-226 40,-108 78,-196 84,-194 6,2 37,63 70,135 32,72 62,130 65,127 3,-2 29,-62 56,-134 28,-72 55,-131 61,-131 6,0 46,92 89,205 59,156 84,210 104,225 l 26,19 h -75 c -62,0 -70,-2 -47,-11 15,-5 27,-17 27,-26 0,-21 -93,-272 -101,-272 -9,0 -99,233 -99,257 0,14 10,28 28,37 25,14 21,15 -78,15 -65,0 -97,-3 -85,-9 27,-10 40,-27 60,-76 l 16,-42 -43,-96 c -24,-52 -46,-96 -49,-96 -9,0 -99,252 -99,278 0,14 8,26 23,32 15,6 -5,9 -72,9 l -93,1 z"
       id="path140" />
    <path
       d="m 4041,5268 c 6,-13 27,-44 45,-70 l 34,-48 h -375 -375 v -25 -25 h 374 374 l -45,-67 c -60,-89 -37,-98 48,-19 33,31 78,66 100,79 21,12 39,27 39,34 0,6 -20,23 -44,37 -24,14 -69,48 -99,76 -59,54 -97,68 -76,28 z"
       id="path142" />
    <path
       d="m 4617,5263 c 21,-21 48,-81 103,-226 40,-108 78,-196 84,-194 6,2 37,63 70,135 32,72 62,130 65,127 3,-2 29,-62 56,-134 28,-72 55,-131 61,-131 6,0 46,92 89,205 59,156 84,210 104,225 l 26,19 h -75 c -62,0 -70,-2 -47,-11 15,-5 27,-17 27,-26 0,-21 -93,-272 -101,-272 -9,0 -99,233 -99,257 0,14 10,28 28,37 25,14 21,15 -78,15 -65,0 -97,-3 -85,-9 27,-10 40,-27 60,-76 l 16,-42 -43,-96 c -24,-52 -46,-96 -49,-96 -9,0 -99,252 -99,278 0,14 8,26 23,32 15,6 -5,9 -72,9 l -93,1 z"
       id="path144" />
    <path
       d="m 5764,5272 c 23,-14 44,-55 115,-221 48,-113 92,-206 98,-208 6,-2 33,49 59,113 122,294 129,308 154,321 22,11 15,13 -55,12 -49,-1 -70,-4 -55,-8 14,-4 26,-15 28,-25 4,-18 -96,-276 -107,-276 -12,1 -113,259 -107,275 3,9 16,20 28,25 16,6 -8,9 -82,9 -104,1 -105,1 -76,-17 z"
       id="path146" />
    <path
       d="m 7635,5276 c 37,-16 59,-41 118,-130 l 46,-69 -74,-97 c -41,-54 -81,-100 -89,-103 -37,-15 -12,-27 54,-27 68,0 91,12 50,25 -11,3 -20,15 -20,25 0,19 84,140 98,140 10,0 92,-130 92,-146 0,-7 -9,-16 -20,-19 -46,-15 -14,-25 80,-25 55,0 100,3 100,8 0,4 -13,14 -29,23 -27,16 -119,136 -157,205 l -17,31 52,69 c 29,38 66,77 84,87 l 32,17 h -80 c -59,-1 -75,-3 -62,-11 25,-15 21,-39 -15,-93 l -31,-48 -34,53 c -39,63 -41,77 -10,89 15,6 -12,9 -88,9 -100,0 -107,-1 -80,-13 z"
       id="path148" />
    <path
       d="m 8367,5263 c 21,-21 48,-81 103,-226 40,-108 78,-196 84,-194 6,2 37,63 70,135 32,72 62,130 65,127 3,-2 29,-62 56,-134 28,-72 55,-131 61,-131 6,0 46,92 89,205 59,156 84,210 104,225 l 26,19 h -75 c -62,0 -70,-2 -47,-11 15,-5 27,-17 27,-26 0,-21 -93,-272 -101,-272 -9,0 -99,233 -99,257 0,14 10,28 28,37 25,14 21,15 -78,15 -65,0 -97,-3 -85,-9 27,-10 40,-27 60,-76 l 16,-42 -43,-96 c -24,-52 -46,-96 -49,-96 -9,0 -99,252 -99,278 0,14 8,26 23,32 15,6 -5,9 -72,9 l -93,1 z"
       id="path150" />
    <path
       d="m 14463,5267 c 16,-13 57,-84 103,-177 111,-227 105,-208 80,-269 -13,-29 -32,-61 -42,-72 -19,-18 -25,-19 -66,-8 -58,16 -81,2 -76,-45 4,-38 42,-62 82,-52 58,14 93,64 157,216 153,372 170,407 192,418 18,9 7,11 -53,11 -55,0 -69,-3 -52,-9 32,-13 28,-42 -21,-161 -24,-57 -47,-113 -51,-124 -6,-16 -19,3 -67,98 -67,133 -74,176 -29,188 14,4 -22,7 -80,8 l -105,1 z"
       id="path152" />
    <path
       d="m 15197,5263 c 21,-21 48,-81 103,-226 40,-108 78,-196 84,-194 6,2 37,63 70,135 32,72 62,130 65,127 3,-2 29,-62 56,-134 28,-72 55,-131 61,-131 6,0 46,92 89,205 59,156 84,210 104,225 l 26,19 h -75 c -62,0 -70,-2 -47,-11 15,-5 27,-17 27,-26 0,-21 -93,-272 -101,-272 -9,0 -99,233 -99,257 0,14 10,28 28,37 25,14 21,15 -78,15 -65,0 -97,-3 -85,-9 27,-10 40,-27 60,-76 l 16,-42 -43,-96 c -24,-52 -46,-96 -49,-96 -9,0 -99,252 -99,278 0,14 8,26 23,32 15,6 -5,9 -72,9 l -93,1 z"
       id="path154" />
    <path
       d="m 16961,5268 c 6,-13 27,-44 45,-70 l 34,-48 h -375 -375 v -25 -25 h 374 374 l -45,-67 c -60,-89 -37,-98 48,-19 33,31 78,66 100,79 21,12 39,27 39,34 0,6 -20,23 -44,37 -24,14 -69,48 -99,76 -59,54 -97,68 -76,28 z"
       id="path156" />
    <path
       d="m 17537,5263 c 21,-21 48,-81 103,-226 40,-108 78,-196 84,-194 6,2 37,63 70,135 32,72 62,130 65,127 3,-2 29,-62 56,-134 28,-72 55,-131 61,-131 6,0 46,92 89,205 59,156 84,210 104,225 l 26,19 h -75 c -62,0 -70,-2 -47,-11 15,-5 27,-17 27,-26 0,-21 -93,-272 -101,-272 -9,0 -99,233 -99,257 0,14 10,28 28,37 25,14 21,15 -78,15 -65,0 -97,-3 -85,-9 27,-10 40,-27 60,-76 l 16,-42 -43,-96 c -24,-52 -46,-96 -49,-96 -9,0 -99,252 -99,278 0,14 8,26 23,32 15,6 -5,9 -72,9 l -93,1 z"
       id="path158" />
    <path
       d="m 18684,5272 c 23,-14 44,-55 115,-221 48,-113 92,-206 98,-208 6,-2 33,49 59,113 122,294 129,308 154,321 22,11 15,13 -55,12 -49,-1 -70,-4 -55,-8 14,-4 26,-15 28,-25 4,-18 -96,-276 -107,-276 -12,1 -113,259 -107,275 3,9 16,20 28,25 16,6 -8,9 -82,9 -104,1 -105,1 -76,-17 z"
       id="path160" />
    <path
       d="m 24617,5263 c 21,-21 48,-81 103,-226 40,-108 78,-196 84,-194 6,2 37,63 70,135 32,72 62,130 65,127 3,-2 29,-62 56,-134 28,-72 55,-131 61,-131 6,0 46,92 89,205 59,156 84,210 104,225 l 26,19 h -75 c -62,0 -70,-2 -47,-11 15,-5 27,-17 27,-26 0,-21 -93,-272 -101,-272 -9,0 -99,233 -99,257 0,14 10,28 28,37 25,14 21,15 -78,15 -65,0 -97,-3 -85,-9 27,-10 40,-27 60,-76 l 16,-42 -43,-96 c -24,-52 -46,-96 -49,-96 -9,0 -99,252 -99,278 0,14 8,26 23,32 15,6 -5,9 -72,9 l -93,1 z"
       id="path162" />
    <path
       d="m 5327,5194 c -25,-25 8,-70 43,-59 32,10 24,59 -10,63 -14,2 -29,0 -33,-4 z"
       id="path164" />
    <path
       d="m 18247,5194 c -25,-25 8,-70 43,-59 32,10 24,59 -10,63 -14,2 -29,0 -33,-4 z"
       id="path166" />
    <path
       d="m 2974,5135 c -8,-21 2,-45 19,-45 21,0 38,25 31,44 -8,20 -43,21 -50,1 z"
       id="path168" />
    <path
       d="m 15884,5135 c -8,-21 2,-45 19,-45 21,0 38,25 31,44 -8,20 -43,21 -50,1 z"
       id="path170" />
    <path
       d="m 5270,5062 c 0,-4 14,-13 30,-19 l 30,-11 -1,-154 c -1,-84 -4,-164 -8,-178 -4,-15 -20,-31 -38,-40 -61,-28 -32,-53 35,-29 60,21 67,43 70,252 l 4,187 h -61 c -34,0 -61,-4 -61,-8 z"
       id="path172" />
    <path
       d="m 18190,5062 c 0,-4 14,-13 30,-19 l 30,-11 -1,-154 c -1,-84 -4,-164 -8,-178 -4,-15 -20,-31 -38,-40 -61,-28 -32,-53 35,-29 60,21 67,43 70,252 l 4,187 h -61 c -34,0 -61,-4 -61,-8 z"
       id="path174" />
    <path
       d="m 2945,5020 c 3,-5 13,-10 21,-10 11,0 14,-21 14,-113 v -113 l -27,-11 c -24,-9 -18,-11 45,-12 47,-1 71,3 67,9 -3,6 -15,10 -26,10 -18,0 -19,8 -19,125 v 125 h -41 c -24,0 -38,-4 -34,-10 z"
       id="path176" />
    <path
       d="m 15855,5020 c 3,-5 13,-10 21,-10 11,0 14,-21 14,-113 v -113 l -27,-11 c -24,-9 -18,-11 45,-12 47,-1 71,3 67,9 -3,6 -15,10 -26,10 -18,0 -19,8 -19,125 v 125 h -41 c -24,0 -38,-4 -34,-10 z"
       id="path178" />
    <path
       d="m 5800,3433 v -858 l -53,55 c -29,30 -83,89 -120,130 l -68,75 19,-45 c 48,-113 245,-546 251,-553 4,-4 67,124 139,284 73,161 130,294 128,296 -2,2 -52,-51 -112,-118 l -109,-121 -3,856 -2,856 h -35 -35 z"
       id="path180" />
    <path
       d="m 20100,3439 c 0,-469 -1,-853 -3,-855 -1,-2 -54,54 -117,124 -63,70 -110,118 -106,107 35,-95 262,-583 268,-577 9,9 269,584 265,588 -1,1 -52,-53 -112,-121 -61,-68 -113,-124 -117,-125 -5,0 -8,385 -8,855 v 855 h -35 -35 z"
       id="path182" />
    <path
       d="m 5325,1681 c -95,-25 -191,-114 -221,-204 -10,-29 -17,-82 -17,-122 0,-40 7,-93 17,-122 22,-66 93,-146 159,-179 27,-14 73,-44 100,-66 90,-70 249,-137 330,-138 35,0 15,16 -42,32 -59,18 -133,76 -160,126 -10,19 -7,23 33,41 58,25 125,93 157,156 21,43 24,64 24,155 0,90 -3,111 -23,148 -58,110 -152,173 -262,178 -36,2 -78,0 -95,-5 z m 155,-43 c 81,-41 121,-134 121,-287 1,-153 -39,-243 -126,-282 -79,-37 -159,-19 -214,47 -76,93 -92,315 -31,433 52,102 153,138 250,89 z"
       id="path184" />
    <path
       d="m 19335,1681 c -95,-25 -191,-114 -221,-204 -10,-29 -17,-82 -17,-122 0,-40 7,-93 17,-122 22,-66 93,-146 159,-179 27,-14 73,-44 100,-66 90,-70 249,-137 330,-138 35,0 15,16 -42,32 -59,18 -133,76 -160,126 -10,19 -7,23 33,41 58,25 125,93 157,156 21,43 24,64 24,155 0,90 -3,111 -23,148 -58,110 -152,173 -262,178 -36,2 -78,0 -95,-5 z m 155,-43 c 81,-41 121,-134 121,-287 1,-153 -39,-243 -126,-282 -79,-37 -159,-19 -214,47 -76,93 -92,315 -31,433 52,102 153,138 250,89 z"
       id="path186" />
    <path
       d="m 6287,1443 c 21,-21 48,-81 103,-226 40,-108 78,-196 84,-194 6,2 37,63 70,135 32,72 62,130 65,127 3,-2 29,-62 56,-134 28,-72 55,-131 61,-131 6,0 46,92 89,205 59,156 84,210 104,225 l 26,19 h -75 c -62,0 -70,-2 -47,-11 15,-5 27,-17 27,-26 0,-21 -93,-272 -101,-272 -9,0 -99,233 -99,257 0,14 10,28 28,37 25,14 21,15 -78,15 -65,0 -97,-3 -85,-9 27,-10 40,-27 60,-76 l 16,-42 -43,-96 c -24,-52 -46,-96 -49,-96 -9,0 -99,252 -99,278 0,14 8,26 23,32 15,6 -5,9 -72,9 l -93,1 z"
       id="path188" />
    <path
       d="m 20297,1443 c 21,-21 48,-81 103,-226 40,-108 78,-196 84,-194 6,2 37,63 70,135 32,72 62,130 65,127 3,-2 29,-62 56,-134 28,-72 55,-131 61,-131 6,0 46,92 89,205 59,156 84,210 104,225 l 26,19 h -75 c -62,0 -70,-2 -47,-11 15,-5 27,-17 27,-26 0,-21 -93,-272 -101,-272 -9,0 -99,233 -99,257 0,14 10,28 28,37 25,14 21,15 -78,15 -65,0 -97,-3 -85,-9 27,-10 40,-27 60,-76 l 16,-42 -43,-96 c -24,-52 -46,-96 -49,-96 -9,0 -99,252 -99,278 0,14 8,26 23,32 15,6 -5,9 -72,9 l -93,1 z"
       id="path190" />
    <path
       d="m 4500,1420 c 0,-19 7,-20 235,-20 h 235 v -75 c 0,-68 2,-75 20,-75 19,0 20,7 20,95 v 95 h -255 c -248,0 -255,-1 -255,-20 z"
       id="path192" />
    <path
       d="m 6997,1374 c -25,-25 8,-70 43,-59 32,10 24,59 -10,63 -14,2 -29,0 -33,-4 z"
       id="path194" />
    <path
       d="m 21007,1374 c -25,-25 8,-70 43,-59 32,10 24,59 -10,63 -14,2 -29,0 -33,-4 z"
       id="path196" />
    <path
       d="m 6940,1242 c 0,-4 14,-13 30,-19 l 30,-11 -1,-154 c -1,-84 -4,-164 -8,-178 -4,-15 -20,-31 -38,-40 -61,-28 -32,-53 35,-29 60,21 67,43 70,252 l 4,187 h -61 c -34,0 -61,-4 -61,-8 z"
       id="path198" />
    <path
       d="m 20950,1242 c 0,-4 14,-13 30,-19 l 30,-11 -1,-154 c -1,-84 -4,-164 -8,-178 -4,-15 -20,-31 -38,-40 -61,-28 -32,-53 35,-29 60,21 67,43 70,252 l 4,187 h -61 c -34,0 -61,-4 -61,-8 z"
       id="path200" />
    <path
       d="m 5800,1110 c -41,-41 -8,-98 49,-85 30,6 31,5 31,-25 0,-32 -38,-79 -85,-106 -11,-7 -17,-15 -13,-19 12,-12 98,45 119,78 29,48 26,117 -7,151 -32,31 -67,33 -94,6 z"
       id="path202" />
    <path
       d="m 19810,1110 c -41,-41 -8,-98 49,-85 30,6 31,5 31,-25 0,-32 -38,-79 -85,-106 -11,-7 -17,-15 -13,-19 12,-12 98,45 119,78 29,48 26,117 -7,151 -32,31 -67,33 -94,6 z"
       id="path204" />
  </g>
</svg>
