<?xml version="1.0" encoding="UTF-8" standalone="no"?>
<svg
   version="1.0"
   width="3368.9646pt"
   height="894.5412pt"
   viewBox="0 0 3368.9646 894.5412"
   preserveAspectRatio="xMidYMid meet"
   id="svg294"
   xmlns="http://www.w3.org/2000/svg"
   xmlns:svg="http://www.w3.org/2000/svg">
  <defs
     id="defs298" />
  <metadata
     id="metadata2">
Created by potrace 1.16, written by Peter Selinger 2001-2019
</metadata>
  <g
     transform="matrix(0.1,0,0,-0.1,-87.235397,974.67664)"
     fill="#000000"
     stroke="none"
     id="g292">
    <path
       d="m 3085,9741 c -95,-25 -191,-114 -221,-204 -10,-29 -17,-82 -17,-122 0,-40 7,-93 17,-122 22,-66 93,-146 159,-179 27,-14 73,-44 100,-66 90,-70 249,-137 330,-138 35,0 15,16 -42,32 -59,18 -133,76 -160,126 -10,19 -7,23 33,41 58,25 125,93 157,156 21,43 24,64 24,155 0,90 -3,111 -23,148 -58,110 -152,173 -262,178 -36,2 -78,0 -95,-5 z m 155,-43 c 81,-41 121,-134 121,-287 1,-153 -39,-243 -126,-282 -79,-37 -159,-19 -214,47 -76,93 -92,315 -31,433 52,102 153,138 250,89 z"
       id="path4" />
    <path
       d="m 12465,9741 c -95,-25 -191,-114 -221,-204 -10,-29 -17,-82 -17,-122 0,-40 7,-93 17,-122 22,-66 93,-146 159,-179 27,-14 73,-44 100,-66 90,-70 249,-137 330,-138 35,0 15,16 -42,32 -59,18 -133,76 -160,126 -10,19 -7,23 33,41 58,25 125,93 157,156 21,43 24,64 24,155 0,90 -3,111 -23,148 -58,110 -152,173 -262,178 -36,2 -78,0 -95,-5 z m 155,-43 c 81,-41 121,-134 121,-287 1,-153 -39,-243 -126,-282 -79,-37 -159,-19 -214,47 -76,93 -92,315 -31,433 52,102 153,138 250,89 z"
       id="path6" />
    <path
       d="m 20585,9741 c -95,-25 -191,-114 -221,-204 -10,-29 -17,-82 -17,-122 0,-40 7,-93 17,-122 22,-66 93,-146 159,-179 27,-14 73,-44 100,-66 90,-70 249,-137 330,-138 35,0 15,16 -42,32 -59,18 -133,76 -160,126 -10,19 -7,23 33,41 58,25 125,93 157,156 21,43 24,64 24,155 0,90 -3,111 -23,148 -58,110 -152,173 -262,178 -36,2 -78,0 -95,-5 z m 155,-43 c 81,-41 121,-134 121,-287 1,-153 -39,-243 -126,-282 -79,-37 -159,-19 -214,47 -76,93 -92,315 -31,433 52,102 153,138 250,89 z"
       id="path8" />
    <path
       d="m 878,9731 c 19,-5 39,-14 45,-20 17,-17 17,-575 0,-592 -6,-6 -26,-15 -45,-19 -21,-5 17,-8 107,-8 93,0 129,3 105,8 -54,13 -60,29 -60,166 v 123 l 68,-6 c 86,-7 143,9 186,52 57,57 66,160 18,224 -10,14 -39,37 -63,51 -42,24 -53,25 -219,27 -111,1 -163,-1 -142,-6 z m 265,-32 c 44,-23 66,-53 78,-105 27,-120 -56,-208 -168,-178 -22,6 -23,10 -23,144 0,101 3,140 13,143 23,10 78,7 100,-4 z"
       id="path10" />
    <path
       d="m 10258,9731 c 19,-5 39,-14 45,-20 9,-9 12,-94 12,-296 0,-202 -3,-287 -12,-296 -6,-6 -26,-15 -45,-19 -21,-5 17,-8 107,-8 93,0 129,3 105,8 -54,13 -60,29 -60,166 v 123 l 68,-6 c 86,-7 143,9 186,52 57,57 66,160 18,224 -10,14 -39,37 -63,51 -42,24 -53,25 -219,27 -111,1 -163,-1 -142,-6 z m 265,-32 c 44,-23 66,-53 78,-105 27,-120 -56,-208 -168,-178 -22,6 -23,10 -23,144 0,101 3,140 13,143 23,10 78,7 100,-4 z"
       id="path12" />
    <path
       d="m 18378,9731 c 19,-5 39,-14 45,-20 9,-9 12,-94 12,-296 0,-202 -3,-287 -12,-296 -6,-6 -26,-15 -45,-19 -21,-5 17,-8 107,-8 93,0 129,3 105,8 -54,13 -60,29 -60,166 v 123 l 68,-6 c 86,-7 143,9 186,52 57,57 66,160 18,224 -10,14 -39,37 -63,51 -42,24 -53,25 -219,27 -111,1 -163,-1 -142,-6 z m 265,-32 c 44,-23 66,-53 78,-105 27,-120 -56,-208 -168,-178 -22,6 -23,10 -23,144 0,101 3,140 13,143 23,10 78,7 100,-4 z"
       id="path14" />
    <path
       d="m 26458,9731 c 19,-5 39,-14 45,-20 9,-9 12,-94 12,-296 0,-202 -3,-287 -12,-296 -6,-6 -26,-15 -45,-19 -21,-5 17,-8 107,-8 93,0 129,3 105,8 -54,13 -60,29 -60,166 v 123 l 68,-6 c 86,-7 143,9 186,52 57,57 66,160 18,224 -10,14 -39,37 -63,51 -42,24 -53,25 -219,27 -111,1 -163,-1 -142,-6 z m 265,-32 c 44,-23 66,-53 78,-105 27,-120 -56,-208 -168,-178 -22,6 -23,10 -23,144 0,101 3,140 13,143 23,10 78,7 100,-4 z"
       id="path16" />
    <path
       d="m 31718,9731 c 19,-5 39,-14 45,-20 9,-9 12,-94 12,-296 0,-202 -3,-287 -12,-296 -6,-6 -26,-15 -45,-19 -21,-5 17,-8 107,-8 93,0 129,3 105,8 -54,13 -60,29 -60,166 v 123 l 68,-6 c 86,-7 143,9 186,52 57,57 66,160 18,224 -10,14 -39,37 -63,51 -42,24 -53,25 -219,27 -111,1 -163,-1 -142,-6 z m 265,-32 c 44,-23 66,-53 78,-105 27,-120 -56,-208 -168,-178 -22,6 -23,10 -23,144 0,101 3,140 13,143 23,10 78,7 100,-4 z"
       id="path18" />
    <path
       d="m 5610,9545 v -115 h -115 c -108,0 -115,-1 -115,-20 0,-19 7,-20 115,-20 h 115 v -115 c 0,-108 1,-115 20,-115 19,0 20,7 20,115 v 115 h 120 c 113,0 120,1 120,20 0,19 -7,20 -120,20 h -120 v 115 c 0,108 -1,115 -20,115 -19,0 -20,-7 -20,-115 z"
       id="path20" />
    <path
       d="m 14990,9545 v -115 h -115 c -108,0 -115,-1 -115,-20 0,-19 7,-20 115,-20 h 115 v -115 c 0,-108 1,-115 20,-115 19,0 20,7 20,115 v 115 h 120 c 113,0 120,1 120,20 0,19 -7,20 -120,20 h -120 v 115 c 0,108 -1,115 -20,115 -19,0 -20,-7 -20,-115 z"
       id="path22" />
    <path
       d="m 23110,9545 v -115 h -115 c -108,0 -115,-1 -115,-20 0,-19 7,-20 115,-20 h 115 v -115 c 0,-108 1,-115 20,-115 19,0 20,7 20,115 v 115 h 120 c 113,0 120,1 120,20 0,19 -7,20 -120,20 h -120 v 115 c 0,108 -1,115 -20,115 -19,0 -20,-7 -20,-115 z"
       id="path24" />
    <path
       d="m 28950,9545 v -115 h -115 c -108,0 -115,-1 -115,-20 0,-19 7,-20 115,-20 h 115 v -115 c 0,-108 1,-115 20,-115 19,0 20,7 20,115 v 115 h 120 c 113,0 120,1 120,20 0,19 -7,20 -120,20 h -120 v 115 c 0,108 -1,115 -20,115 -19,0 -20,-7 -20,-115 z"
       id="path26" />
    <path
       d="m 34210,9545 v -115 h -115 c -108,0 -115,-1 -115,-20 0,-19 7,-20 115,-20 h 115 v -115 c 0,-108 1,-115 20,-115 19,0 20,7 20,115 v 115 h 120 c 113,0 120,1 120,20 0,19 -7,20 -120,20 h -120 v 115 c 0,108 -1,115 -20,115 -19,0 -20,-7 -20,-115 z"
       id="path28" />
    <path
       d="m 1911,9353 c -57,-131 -106,-244 -108,-250 -4,-9 7,-13 33,-13 h 39 l 84,195 c 46,108 86,193 89,190 3,-3 42,-90 87,-193 l 81,-187 37,-3 c 20,-2 37,0 37,4 0,3 -48,116 -106,250 l -106,244 h -32 -32 z"
       id="path30" />
    <path
       d="m 11184,9574 c 4,-10 53,-123 108,-251 l 101,-233 h 33 c 35,0 14,-40 200,385 24,55 44,103 44,108 0,4 -17,7 -37,5 l -37,-3 -81,-187 c -44,-103 -83,-189 -86,-193 -4,-3 -44,81 -90,187 l -84,193 -39,3 c -34,3 -38,1 -32,-14 z"
       id="path32" />
    <path
       d="m 19290,9542 v -30 l 178,-4 c 149,-2 182,-6 205,-21 44,-28 61,-73 61,-157 0,-84 -17,-129 -61,-157 -23,-15 -56,-19 -205,-21 l -178,-4 v -30 -30 l 188,4 c 212,3 233,10 284,83 55,80 55,232 1,309 -52,74 -73,81 -285,84 l -188,4 z"
       id="path34" />
    <path
       d="m 4047,9503 c 21,-21 48,-81 103,-226 40,-108 78,-196 84,-194 6,2 37,63 70,135 32,72 62,130 65,127 3,-2 29,-62 56,-134 28,-72 55,-131 61,-131 6,0 46,92 89,205 59,156 84,210 104,225 l 26,19 h -75 c -62,0 -70,-2 -47,-11 15,-5 27,-17 27,-26 0,-21 -93,-272 -101,-272 -9,0 -99,233 -99,257 0,14 10,28 28,37 25,14 21,15 -78,15 -65,0 -97,-3 -85,-9 27,-10 40,-27 60,-76 l 16,-42 -43,-96 c -24,-52 -46,-96 -49,-96 -9,0 -99,252 -99,278 0,14 8,26 23,32 15,6 -5,9 -72,9 l -93,1 z"
       id="path36" />
    <path
       d="m 13427,9503 c 21,-21 48,-81 103,-226 40,-108 78,-196 84,-194 6,2 37,63 70,135 32,72 62,130 65,127 3,-2 29,-62 56,-134 28,-72 55,-131 61,-131 6,0 46,92 89,205 59,156 84,210 104,225 l 26,19 h -75 c -62,0 -70,-2 -47,-11 15,-5 27,-17 27,-26 0,-21 -93,-272 -101,-272 -9,0 -99,233 -99,257 0,14 10,28 28,37 25,14 21,15 -78,15 -65,0 -97,-3 -85,-9 27,-10 40,-27 60,-76 l 16,-42 -43,-96 c -24,-52 -46,-96 -49,-96 -9,0 -99,252 -99,278 0,14 8,26 23,32 15,6 -5,9 -72,9 l -93,1 z"
       id="path38" />
    <path
       d="m 21547,9503 c 21,-21 48,-81 103,-226 40,-108 78,-196 84,-194 6,2 37,63 70,135 32,72 62,130 65,127 3,-2 29,-62 56,-134 28,-72 55,-131 61,-131 6,0 46,92 89,205 59,156 84,210 104,225 l 26,19 h -75 c -62,0 -70,-2 -47,-11 15,-5 27,-17 27,-26 0,-21 -93,-272 -101,-272 -9,0 -99,233 -99,257 0,14 10,28 28,37 25,14 21,15 -78,15 -65,0 -97,-3 -85,-9 27,-10 40,-27 60,-76 l 16,-42 -43,-96 c -24,-52 -46,-96 -49,-96 -9,0 -99,252 -99,278 0,14 8,26 23,32 15,6 -5,9 -72,9 l -93,1 z"
       id="path40" />
    <path
       d="m 27377,9503 c 21,-21 48,-81 103,-226 40,-108 78,-196 84,-194 6,2 37,63 70,135 32,72 62,130 65,127 3,-2 29,-62 56,-134 28,-72 55,-131 61,-131 6,0 46,92 89,205 59,156 84,210 104,225 l 26,19 h -75 c -62,0 -70,-2 -47,-11 15,-5 27,-17 27,-26 0,-21 -93,-272 -101,-272 -9,0 -99,233 -99,257 0,14 10,28 28,37 25,14 21,15 -78,15 -65,0 -97,-3 -85,-9 27,-10 40,-27 60,-76 l 16,-42 -43,-96 c -24,-52 -46,-96 -49,-96 -9,0 -99,252 -99,278 0,14 8,26 23,32 15,6 -5,9 -72,9 l -93,1 z"
       id="path42" />
    <path
       d="m 32637,9503 c 21,-21 48,-81 103,-226 40,-108 78,-196 84,-194 6,2 37,63 70,135 32,72 62,130 65,127 3,-2 29,-62 56,-134 28,-72 55,-131 61,-131 6,0 46,92 89,205 59,156 84,210 104,225 l 26,19 h -75 c -62,0 -70,-2 -47,-11 15,-5 27,-17 27,-26 0,-21 -93,-272 -101,-272 -9,0 -99,233 -99,257 0,14 10,28 28,37 25,14 21,15 -78,15 -65,0 -97,-3 -85,-9 27,-10 40,-27 60,-76 l 16,-42 -43,-96 c -24,-52 -46,-96 -49,-96 -9,0 -99,252 -99,278 0,14 8,26 23,32 15,6 -5,9 -72,9 l -93,1 z"
       id="path44" />
    <path
       d="m 25850,9480 c 0,-19 7,-20 235,-20 h 235 v -75 c 0,-68 2,-75 20,-75 19,0 20,7 20,95 v 95 h -255 c -248,0 -255,-1 -255,-20 z"
       id="path46" />
    <path
       d="m 4744,9375 c -8,-21 2,-45 19,-45 21,0 38,25 31,44 -8,20 -43,21 -50,1 z"
       id="path48" />
    <path
       d="m 14114,9375 c -8,-21 2,-45 19,-45 21,0 38,25 31,44 -8,20 -43,21 -50,1 z"
       id="path50" />
    <path
       d="m 22244,9375 c -8,-21 2,-45 19,-45 21,0 38,25 31,44 -8,20 -43,21 -50,1 z"
       id="path52" />
    <path
       d="m 28074,9375 c -8,-21 2,-45 19,-45 21,0 38,25 31,44 -8,20 -43,21 -50,1 z"
       id="path54" />
    <path
       d="m 33334,9375 c -8,-21 2,-45 19,-45 21,0 38,25 31,44 -8,20 -43,21 -50,1 z"
       id="path56" />
    <path
       d="m 4715,9260 c 3,-5 13,-10 21,-10 11,0 14,-21 14,-113 v -113 l -27,-11 c -24,-9 -18,-11 45,-12 47,-1 71,3 67,9 -3,6 -15,10 -26,10 -18,0 -19,8 -19,125 v 125 h -41 c -24,0 -38,-4 -34,-10 z"
       id="path58" />
    <path
       d="m 14085,9260 c 3,-5 13,-10 21,-10 11,0 14,-21 14,-113 v -113 l -27,-11 c -24,-9 -18,-11 45,-12 47,-1 71,3 67,9 -3,6 -15,10 -26,10 -18,0 -19,8 -19,125 v 125 h -41 c -24,0 -38,-4 -34,-10 z"
       id="path60" />
    <path
       d="m 22215,9260 c 3,-5 13,-10 21,-10 11,0 14,-21 14,-113 v -113 l -27,-11 c -24,-9 -18,-11 45,-12 47,-1 71,3 67,9 -3,6 -15,10 -26,10 -18,0 -19,8 -19,125 v 125 h -41 c -24,0 -38,-4 -34,-10 z"
       id="path62" />
    <path
       d="m 28045,9260 c 3,-5 13,-10 21,-10 11,0 14,-21 14,-113 v -113 l -27,-11 c -24,-9 -18,-11 45,-12 47,-1 71,3 67,9 -3,6 -15,10 -26,10 -18,0 -19,8 -19,125 v 125 h -41 c -24,0 -38,-4 -34,-10 z"
       id="path64" />
    <path
       d="m 33305,9260 c 3,-5 13,-10 21,-10 11,0 14,-21 14,-113 v -113 l -27,-11 c -24,-9 -18,-11 45,-12 47,-1 71,3 67,9 -3,6 -15,10 -26,10 -18,0 -19,8 -19,125 v 125 h -41 c -24,0 -38,-4 -34,-10 z"
       id="path66" />
    <path
       d="m 3560,9170 c -41,-41 -8,-98 49,-85 30,6 31,5 31,-25 0,-32 -38,-79 -85,-106 -11,-7 -17,-15 -13,-19 12,-12 98,45 119,78 29,48 26,117 -7,151 -32,31 -67,33 -94,6 z"
       id="path68" />
    <path
       d="m 4910,9170 c -41,-41 -8,-98 49,-85 30,6 31,5 31,-25 0,-32 -38,-79 -85,-106 -11,-7 -17,-15 -13,-19 12,-12 98,45 119,78 29,48 26,117 -7,151 -32,31 -67,33 -94,6 z"
       id="path70" />
    <path
       d="m 12930,9170 c -41,-41 -8,-98 49,-85 30,6 31,5 31,-25 0,-32 -38,-79 -85,-106 -11,-7 -17,-15 -13,-19 12,-12 98,45 119,78 29,48 26,117 -7,151 -32,31 -67,33 -94,6 z"
       id="path72" />
    <path
       d="m 14290,9170 c -41,-41 -8,-98 49,-85 30,6 31,5 31,-25 0,-32 -38,-79 -85,-106 -11,-7 -17,-15 -13,-19 12,-12 98,45 119,78 29,48 26,117 -7,151 -32,31 -67,33 -94,6 z"
       id="path74" />
    <path
       d="m 21060,9170 c -41,-41 -8,-98 49,-85 30,6 31,5 31,-25 0,-32 -38,-79 -85,-106 -11,-7 -17,-15 -13,-19 12,-12 98,45 119,78 29,48 26,117 -7,151 -32,31 -67,33 -94,6 z"
       id="path76" />
    <path
       d="m 22410,9170 c -41,-41 -8,-98 49,-85 30,6 31,5 31,-25 0,-32 -38,-79 -85,-106 -11,-7 -17,-15 -13,-19 12,-12 98,45 119,78 29,48 26,117 -7,151 -32,31 -67,33 -94,6 z"
       id="path78" />
    <path
       d="m 26890,9170 c -41,-41 -8,-98 49,-85 30,6 31,5 31,-25 0,-32 -38,-79 -85,-106 -11,-7 -17,-15 -13,-19 12,-12 98,45 119,78 29,48 26,117 -7,151 -32,31 -67,33 -94,6 z"
       id="path80" />
    <path
       d="m 28250,9170 c -41,-41 -8,-98 49,-85 30,6 31,5 31,-25 0,-32 -38,-79 -85,-106 -11,-7 -17,-15 -13,-19 12,-12 98,45 119,78 29,48 26,117 -7,151 -32,31 -67,33 -94,6 z"
       id="path82" />
    <path
       d="m 32150,9170 c -41,-41 -8,-98 49,-85 30,6 31,5 31,-25 0,-32 -38,-79 -85,-106 -11,-7 -17,-15 -13,-19 12,-12 98,45 119,78 29,48 26,117 -7,151 -32,31 -67,33 -94,6 z"
       id="path84" />
    <path
       d="m 33510,9170 c -41,-41 -8,-98 49,-85 30,6 31,5 31,-25 0,-32 -38,-79 -85,-106 -11,-7 -17,-15 -13,-19 12,-12 98,45 119,78 29,48 26,117 -7,151 -32,31 -67,33 -94,6 z"
       id="path86" />
    <path
       d="m 10856,7500 -907,-862 22,-24 c 18,-20 25,-22 38,-11 8,6 416,392 906,856 489,464 891,845 892,846 1,0 -8,13 -20,29 l -23,28 z"
       id="path88" />
    <path
       d="m 13088,8333 c -10,-2 -18,-10 -18,-16 0,-9 515,-1535 545,-1614 3,-9 12,-10 35,-2 16,6 30,14 30,18 0,4 -123,369 -273,811 -184,541 -278,805 -288,806 -8,1 -22,0 -31,-3 z"
       id="path90" />
    <path
       d="m 3370,7515 v -815 h 35 35 v 815 815 h -35 -35 z"
       id="path92" />
    <path
       d="m 20870,7515 v -815 h 35 35 v 815 815 h -35 -35 z"
       id="path94" />
    <path
       d="m 27532,7518 3,-813 33,-3 32,-3 v 815 816 h -35 -35 z"
       id="path96" />
    <path
       d="m 33090,7515 v -815 h 35 35 v 815 815 h -35 -35 z"
       id="path98" />
    <path
       d="m 13789,6770 c -35,-82 -66,-150 -70,-150 -4,0 -10,14 -14,31 -6,28 -10,31 -38,25 -40,-8 -41,-10 -28,-47 6,-18 10,-34 8,-35 -1,-2 -67,33 -146,77 -78,45 -144,79 -146,77 -3,-3 438,-478 442,-474 5,4 64,638 60,642 -2,2 -33,-63 -68,-146 z"
       id="path100" />
    <path
       d="m 9873,6884 c -4,-10 -59,-147 -124,-304 -64,-157 -116,-286 -114,-288 2,-2 575,198 606,212 8,3 -64,4 -159,3 l -172,-3 27,28 c 26,27 26,28 7,50 -10,13 -20,25 -21,27 -2,3 -17,-8 -33,-24 -35,-34 -34,-49 -16,160 7,83 11,152 10,154 -2,2 -7,-5 -11,-15 z"
       id="path102" />
    <path
       d="m 3143,6840 c 34,-82 249,-556 256,-563 4,-4 67,124 139,285 72,160 130,293 128,295 -2,2 -52,-51 -112,-118 l -109,-121 -3,36 c -3,34 -5,36 -38,36 -33,0 -34,-1 -34,-37 v -38 l -53,55 c -29,30 -83,89 -120,130 -58,64 -66,70 -54,40 z"
       id="path104" />
    <path
       d="m 20643,6840 c 34,-82 249,-556 256,-563 4,-4 67,124 139,285 72,160 130,293 128,295 -2,2 -52,-51 -112,-118 l -109,-121 -3,36 c -3,34 -5,36 -38,36 -33,0 -34,-1 -34,-37 v -38 l -53,55 c -29,30 -83,89 -120,130 -58,64 -66,70 -54,40 z"
       id="path106" />
    <path
       d="m 27301,6863 c 13,-39 265,-593 269,-593 6,1 271,592 267,596 -1,1 -52,-53 -112,-121 -61,-68 -113,-124 -117,-125 -5,0 -8,16 -8,35 0,33 -2,35 -34,35 -32,0 -35,-2 -38,-35 l -3,-35 -114,127 c -63,70 -112,122 -110,116 z"
       id="path108" />
    <path
       d="m 32951,6650 c 56,-124 116,-259 134,-300 19,-41 37,-75 40,-75 3,0 21,34 40,75 18,41 78,176 134,300 l 101,225 -78,-85 c -42,-47 -96,-105 -119,-130 l -43,-45 v 38 c 0,36 -1,37 -35,37 -34,0 -35,-1 -35,-37 v -38 l -43,45 c -23,25 -77,83 -119,130 l -78,85 z"
       id="path110" />
    <path
       d="m 21036,5735 c 15,-27 34,-59 41,-70 7,-11 13,-23 13,-27 0,-5 -135,-8 -300,-8 h -300 v -40 -40 h 300 c 165,0 300,-3 300,-8 0,-4 -6,-16 -13,-27 -7,-11 -26,-42 -41,-70 -28,-49 -26,-48 70,48 l 99,97 -99,98 c -96,95 -98,96 -70,47 z"
       id="path112" />
    <path
       d="m 27706,5735 c 15,-27 34,-59 41,-70 7,-11 13,-23 13,-27 0,-5 -135,-8 -300,-8 h -300 v -40 -40 h 300 c 165,0 300,-3 300,-8 0,-4 -6,-16 -13,-27 -7,-11 -26,-42 -41,-70 -28,-49 -26,-48 70,48 l 99,97 -99,98 c -96,95 -98,96 -70,47 z"
       id="path114" />
    <path
       d="m 33266,5735 c 15,-27 34,-59 41,-70 7,-11 13,-23 13,-27 0,-5 -135,-8 -300,-8 h -300 v -40 -40 h 300 c 165,0 300,-3 300,-8 0,-4 -6,-16 -13,-27 -7,-11 -26,-42 -41,-70 -28,-49 -26,-48 70,48 l 99,97 -99,98 c -96,95 -98,96 -70,47 z"
       id="path116" />
    <path
       d="m 12775,5711 c -95,-25 -191,-114 -221,-204 -10,-29 -17,-82 -17,-122 0,-40 7,-93 17,-122 22,-66 93,-146 159,-179 27,-14 73,-44 100,-66 90,-70 249,-137 330,-138 35,0 15,16 -42,32 -59,18 -133,76 -160,126 -10,19 -7,23 33,41 58,25 125,93 157,156 21,43 24,64 24,155 0,90 -3,111 -23,148 -58,110 -152,173 -262,178 -36,2 -78,0 -95,-5 z m 155,-43 c 81,-41 121,-134 121,-287 1,-153 -39,-243 -126,-282 -79,-37 -159,-19 -214,47 -76,93 -92,315 -31,433 52,102 153,138 250,89 z"
       id="path118" />
    <path
       d="m 1988,5701 c 19,-5 39,-14 45,-20 17,-17 17,-575 0,-592 -6,-6 -26,-15 -45,-19 -21,-5 17,-8 107,-8 93,0 129,3 105,8 -54,13 -60,29 -60,166 v 123 l 68,-6 c 86,-7 143,9 186,52 57,57 66,160 18,224 -10,14 -39,37 -63,51 -42,24 -53,25 -219,27 -111,1 -163,-1 -142,-6 z m 265,-32 c 44,-23 66,-53 78,-105 27,-120 -56,-208 -168,-178 -22,6 -23,10 -23,144 0,101 3,140 13,143 23,10 78,7 100,-4 z"
       id="path120" />
    <path
       d="m 7268,5701 c 19,-5 39,-14 45,-20 17,-17 17,-575 0,-592 -6,-6 -26,-15 -45,-19 -21,-5 17,-8 107,-8 93,0 129,3 105,8 -54,13 -60,29 -60,166 v 123 l 68,-6 c 86,-7 143,9 186,52 57,57 66,160 18,224 -10,14 -39,37 -63,51 -42,24 -53,25 -219,27 -111,1 -163,-1 -142,-6 z m 265,-32 c 44,-23 66,-53 78,-105 27,-120 -56,-208 -168,-178 -22,6 -23,10 -23,144 0,101 3,140 13,143 23,10 78,7 100,-4 z"
       id="path122" />
    <path
       d="m 4490,5515 v -115 h -115 c -108,0 -115,-1 -115,-20 0,-19 7,-20 115,-20 h 115 v -115 c 0,-108 1,-115 20,-115 19,0 20,7 20,115 v 115 h 120 c 113,0 120,1 120,20 0,19 -7,20 -120,20 h -120 v 115 c 0,108 -1,115 -20,115 -19,0 -20,-7 -20,-115 z"
       id="path124" />
    <path
       d="m 9760,5515 v -115 h -115 c -108,0 -115,-1 -115,-20 0,-19 7,-20 115,-20 h 115 v -115 c 0,-108 1,-115 20,-115 19,0 20,7 20,115 v 115 h 120 c 113,0 120,1 120,20 0,19 -7,20 -120,20 h -120 v 115 c 0,108 -1,115 -20,115 -19,0 -20,-7 -20,-115 z"
       id="path126" />
    <path
       d="m 15300,5515 v -115 h -115 c -108,0 -115,-1 -115,-20 0,-19 7,-20 115,-20 h 115 v -115 c 0,-108 1,-115 20,-115 19,0 20,7 20,115 v 115 h 120 c 113,0 120,1 120,20 0,19 -7,20 -120,20 h -120 v 115 c 0,108 -1,115 -20,115 -19,0 -20,-7 -20,-115 z"
       id="path128" />
    <path
       d="m 2917,5473 c 21,-21 48,-81 103,-226 40,-108 78,-196 84,-194 6,2 37,63 70,135 32,72 62,130 65,127 3,-2 29,-62 56,-134 28,-72 55,-131 61,-131 6,0 46,92 89,205 59,156 84,210 104,225 l 26,19 h -75 c -62,0 -70,-2 -47,-11 15,-5 27,-17 27,-26 0,-21 -93,-272 -101,-272 -9,0 -99,233 -99,257 0,14 10,28 28,37 25,14 21,15 -78,15 -65,0 -97,-3 -85,-9 27,-10 40,-27 60,-76 l 16,-42 -43,-96 c -24,-52 -46,-96 -49,-96 -9,0 -99,252 -99,278 0,14 8,26 23,32 15,6 -5,9 -72,9 l -93,1 z"
       id="path130" />
    <path
       d="m 8197,5473 c 21,-21 48,-81 103,-226 40,-108 78,-196 84,-194 6,2 37,63 70,135 32,72 62,130 65,127 3,-2 29,-62 56,-134 28,-72 55,-131 61,-131 6,0 46,92 89,205 59,156 84,210 104,225 l 26,19 h -75 c -62,0 -70,-2 -47,-11 15,-5 27,-17 27,-26 0,-21 -93,-272 -101,-272 -9,0 -99,233 -99,257 0,14 10,28 28,37 25,14 21,15 -78,15 -65,0 -97,-3 -85,-9 27,-10 40,-27 60,-76 l 16,-42 -43,-96 c -24,-52 -46,-96 -49,-96 -9,0 -99,252 -99,278 0,14 8,26 23,32 15,6 -5,9 -72,9 l -93,1 z"
       id="path132" />
    <path
       d="m 13737,5473 c 21,-21 48,-81 103,-226 40,-108 78,-196 84,-194 6,2 37,63 70,135 32,72 62,130 65,127 3,-2 29,-62 56,-134 28,-72 55,-131 61,-131 6,0 46,92 89,205 59,156 84,210 104,225 l 26,19 h -75 c -62,0 -70,-2 -47,-11 15,-5 27,-17 27,-26 0,-21 -93,-272 -101,-272 -9,0 -99,233 -99,257 0,14 10,28 28,37 25,14 21,15 -78,15 -65,0 -97,-3 -85,-9 27,-10 40,-27 60,-76 l 16,-42 -43,-96 c -24,-52 -46,-96 -49,-96 -9,0 -99,252 -99,278 0,14 8,26 23,32 15,6 -5,9 -72,9 l -93,1 z"
       id="path134" />
    <path
       d="m 19377,5473 c 21,-21 48,-81 103,-226 40,-108 78,-196 84,-194 6,2 37,63 70,135 32,72 62,130 65,127 3,-2 29,-62 56,-134 28,-72 55,-131 61,-131 6,0 46,92 89,205 59,156 84,210 104,225 l 26,19 h -75 c -62,0 -70,-2 -47,-11 15,-5 27,-17 27,-26 0,-21 -93,-272 -101,-272 -9,0 -99,233 -99,257 0,14 10,28 28,37 25,14 21,15 -78,15 -65,0 -97,-3 -85,-9 27,-10 40,-27 60,-76 l 16,-42 -43,-96 c -24,-52 -46,-96 -49,-96 -9,0 -99,252 -99,278 0,14 8,26 23,32 15,6 -5,9 -72,9 l -93,1 z"
       id="path136" />
    <path
       d="m 21567,5473 c 21,-21 48,-81 103,-226 40,-108 78,-196 84,-194 6,2 37,63 70,135 32,72 62,130 65,127 3,-2 29,-62 56,-134 28,-72 55,-131 61,-131 6,0 46,92 89,205 59,156 84,210 104,225 l 26,19 h -75 c -62,0 -70,-2 -47,-11 15,-5 27,-17 27,-26 0,-21 -93,-272 -101,-272 -9,0 -99,233 -99,257 0,14 10,28 28,37 25,14 21,15 -78,15 -65,0 -97,-3 -85,-9 27,-10 40,-27 60,-76 l 16,-42 -43,-96 c -24,-52 -46,-96 -49,-96 -9,0 -99,252 -99,278 0,14 8,26 23,32 15,6 -5,9 -72,9 l -93,1 z"
       id="path138" />
    <path
       d="m 26047,5473 c 21,-21 48,-81 103,-226 40,-108 78,-196 84,-194 6,2 37,63 70,135 32,72 62,130 65,127 3,-2 29,-62 56,-134 28,-72 55,-131 61,-131 6,0 46,92 89,205 59,156 84,210 104,225 l 26,19 h -75 c -62,0 -70,-2 -47,-11 15,-5 27,-17 27,-26 0,-21 -93,-272 -101,-272 -9,0 -99,233 -99,257 0,14 10,28 28,37 25,14 21,15 -78,15 -65,0 -97,-3 -85,-9 27,-10 40,-27 60,-76 l 16,-42 -43,-96 c -24,-52 -46,-96 -49,-96 -9,0 -99,252 -99,278 0,14 8,26 23,32 15,6 -5,9 -72,9 l -93,1 z"
       id="path140" />
    <path
       d="m 28227,5473 c 21,-21 48,-81 103,-226 40,-108 78,-196 84,-194 6,2 37,63 70,135 32,72 62,130 65,127 3,-2 29,-62 56,-134 28,-72 55,-131 61,-131 6,0 46,92 89,205 59,156 84,210 104,225 l 26,19 h -75 c -62,0 -70,-2 -47,-11 15,-5 27,-17 27,-26 0,-21 -93,-272 -101,-272 -9,0 -99,233 -99,257 0,14 10,28 28,37 25,14 21,15 -78,15 -65,0 -97,-3 -85,-9 27,-10 40,-27 60,-76 l 16,-42 -43,-96 c -24,-52 -46,-96 -49,-96 -9,0 -99,252 -99,278 0,14 8,26 23,32 15,6 -5,9 -72,9 l -93,1 z"
       id="path142" />
    <path
       d="m 31597,5473 c 21,-21 48,-81 103,-226 40,-108 78,-196 84,-194 6,2 37,63 70,135 32,72 62,130 65,127 3,-2 29,-62 56,-134 28,-72 55,-131 61,-131 6,0 46,92 89,205 59,156 84,210 104,225 l 26,19 h -75 c -62,0 -70,-2 -47,-11 15,-5 27,-17 27,-26 0,-21 -93,-272 -101,-272 -9,0 -99,233 -99,257 0,14 10,28 28,37 25,14 21,15 -78,15 -65,0 -97,-3 -85,-9 27,-10 40,-27 60,-76 l 16,-42 -43,-96 c -24,-52 -46,-96 -49,-96 -9,0 -99,252 -99,278 0,14 8,26 23,32 15,6 -5,9 -72,9 l -93,1 z"
       id="path144" />
    <path
       d="m 33787,5473 c 21,-21 48,-81 103,-226 40,-108 78,-196 84,-194 6,2 37,63 70,135 32,72 62,130 65,127 3,-2 29,-62 56,-134 28,-72 55,-131 61,-131 6,0 46,92 89,205 59,156 84,210 104,225 l 26,19 h -75 c -62,0 -70,-2 -47,-11 15,-5 27,-17 27,-26 0,-21 -93,-272 -101,-272 -9,0 -99,233 -99,257 0,14 10,28 28,37 25,14 21,15 -78,15 -65,0 -97,-3 -85,-9 27,-10 40,-27 60,-76 l 16,-42 -43,-96 c -24,-52 -46,-96 -49,-96 -9,0 -99,252 -99,278 0,14 8,26 23,32 15,6 -5,9 -72,9 l -93,1 z"
       id="path146" />
    <path
       d="m 22267,5404 c -25,-25 8,-70 43,-59 32,10 24,59 -10,63 -14,2 -29,0 -33,-4 z"
       id="path148" />
    <path
       d="m 28937,5404 c -25,-25 8,-70 43,-59 32,10 24,59 -10,63 -14,2 -29,0 -33,-4 z"
       id="path150" />
    <path
       d="m 34497,5404 c -25,-25 8,-70 43,-59 32,10 24,59 -10,63 -14,2 -29,0 -33,-4 z"
       id="path152" />
    <path
       d="m 3614,5345 c -8,-21 2,-45 19,-45 21,0 38,25 31,44 -8,20 -43,21 -50,1 z"
       id="path154" />
    <path
       d="m 8894,5345 c -8,-21 2,-45 19,-45 21,0 38,25 31,44 -8,20 -43,21 -50,1 z"
       id="path156" />
    <path
       d="m 14424,5345 c -8,-21 2,-45 19,-45 21,0 38,25 31,44 -8,20 -43,21 -50,1 z"
       id="path158" />
    <path
       d="m 20074,5345 c -8,-21 2,-45 19,-45 21,0 38,25 31,44 -8,20 -43,21 -50,1 z"
       id="path160" />
    <path
       d="m 21036,5315 c 15,-27 34,-59 41,-70 7,-11 13,-23 13,-27 0,-5 -135,-8 -300,-8 h -300 v -40 -40 h 300 c 165,0 300,-3 300,-8 0,-4 -6,-16 -13,-27 -7,-11 -26,-42 -41,-70 -28,-49 -26,-48 70,48 l 99,97 -99,98 c -96,95 -98,96 -70,47 z"
       id="path162" />
    <path
       d="m 26734,5345 c -8,-21 2,-45 19,-45 21,0 38,25 31,44 -8,20 -43,21 -50,1 z"
       id="path164" />
    <path
       d="m 27706,5315 c 15,-27 34,-59 41,-70 7,-11 13,-23 13,-27 0,-5 -135,-8 -300,-8 h -300 v -40 -40 h 300 c 165,0 300,-3 300,-8 0,-4 -6,-16 -13,-27 -7,-11 -26,-42 -41,-70 -28,-49 -26,-48 70,48 l 99,97 -99,98 c -96,95 -98,96 -70,47 z"
       id="path166" />
    <path
       d="m 32294,5345 c -8,-21 2,-45 19,-45 21,0 38,25 31,44 -8,20 -43,21 -50,1 z"
       id="path168" />
    <path
       d="m 33266,5315 c 15,-27 34,-59 41,-70 7,-11 13,-23 13,-27 0,-5 -135,-8 -300,-8 h -300 v -40 -40 h 300 c 165,0 300,-3 300,-8 0,-4 -6,-16 -13,-27 -7,-11 -26,-42 -41,-70 -28,-49 -26,-48 70,48 l 99,97 -99,98 c -96,95 -98,96 -70,47 z"
       id="path170" />
    <path
       d="m 22210,5272 c 0,-4 14,-13 30,-19 l 30,-11 -1,-154 c -1,-84 -4,-164 -8,-178 -4,-15 -20,-31 -38,-40 -61,-28 -32,-53 35,-29 60,21 67,43 70,252 l 4,187 h -61 c -34,0 -61,-4 -61,-8 z"
       id="path172" />
    <path
       d="m 28880,5272 c 0,-4 14,-13 30,-19 l 30,-11 -1,-154 c -1,-84 -4,-164 -8,-178 -4,-15 -20,-31 -38,-40 -61,-28 -32,-53 35,-29 60,21 67,43 70,252 l 4,187 h -61 c -34,0 -61,-4 -61,-8 z"
       id="path174" />
    <path
       d="m 34440,5272 c 0,-4 14,-13 30,-19 l 30,-11 -1,-154 c -1,-84 -4,-164 -8,-178 -4,-15 -20,-31 -38,-40 -61,-28 -32,-53 35,-29 60,21 67,43 70,252 l 4,187 h -61 c -34,0 -61,-4 -61,-8 z"
       id="path176" />
    <path
       d="m 3585,5230 c 3,-5 13,-10 21,-10 11,0 14,-21 14,-113 v -113 l -27,-11 c -24,-9 -18,-11 45,-12 47,-1 71,3 67,9 -3,6 -15,10 -26,10 -18,0 -19,8 -19,125 v 125 h -41 c -24,0 -38,-4 -34,-10 z"
       id="path178" />
    <path
       d="m 8865,5230 c 3,-5 13,-10 21,-10 11,0 14,-21 14,-113 v -113 l -27,-11 c -24,-9 -18,-11 45,-12 47,-1 71,3 67,9 -3,6 -15,10 -26,10 -18,0 -19,8 -19,125 v 125 h -41 c -24,0 -38,-4 -34,-10 z"
       id="path180" />
    <path
       d="m 14395,5230 c 3,-5 13,-10 21,-10 11,0 14,-21 14,-113 v -113 l -27,-11 c -24,-9 -18,-11 45,-12 47,-1 71,3 67,9 -3,6 -15,10 -26,10 -18,0 -19,8 -19,125 v 125 h -41 c -24,0 -38,-4 -34,-10 z"
       id="path182" />
    <path
       d="m 20045,5230 c 3,-5 13,-10 21,-10 11,0 14,-21 14,-113 v -113 l -27,-11 c -24,-9 -18,-11 45,-12 47,-1 71,3 67,9 -3,6 -15,10 -26,10 -18,0 -19,8 -19,125 v 125 h -41 c -24,0 -38,-4 -34,-10 z"
       id="path184" />
    <path
       d="m 26705,5230 c 3,-5 13,-10 21,-10 11,0 14,-21 14,-113 v -113 l -27,-11 c -24,-9 -18,-11 45,-12 47,-1 71,3 67,9 -3,6 -15,10 -26,10 -18,0 -19,8 -19,125 v 125 h -41 c -24,0 -38,-4 -34,-10 z"
       id="path186" />
    <path
       d="m 32265,5230 c 3,-5 13,-10 21,-10 11,0 14,-21 14,-113 v -113 l -27,-11 c -24,-9 -18,-11 45,-12 47,-1 71,3 67,9 -3,6 -15,10 -26,10 -18,0 -19,8 -19,125 v 125 h -41 c -24,0 -38,-4 -34,-10 z"
       id="path188" />
    <path
       d="m 2430,5140 c -41,-41 -8,-98 49,-85 30,6 31,5 31,-25 0,-32 -38,-79 -85,-106 -11,-7 -17,-15 -13,-19 12,-12 98,45 119,78 29,48 26,117 -7,151 -32,31 -67,33 -94,6 z"
       id="path190" />
    <path
       d="m 3790,5140 c -41,-41 -8,-98 49,-85 30,6 31,5 31,-25 0,-32 -38,-79 -85,-106 -11,-7 -17,-15 -13,-19 12,-12 98,45 119,78 29,48 26,117 -7,151 -32,31 -67,33 -94,6 z"
       id="path192" />
    <path
       d="m 7710,5140 c -41,-41 -8,-98 49,-85 30,6 31,5 31,-25 0,-32 -38,-79 -85,-106 -11,-7 -17,-15 -13,-19 12,-12 98,45 119,78 29,48 26,117 -7,151 -32,31 -67,33 -94,6 z"
       id="path194" />
    <path
       d="m 9060,5140 c -41,-41 -8,-98 49,-85 30,6 31,5 31,-25 0,-32 -38,-79 -85,-106 -11,-7 -17,-15 -13,-19 12,-12 98,45 119,78 29,48 26,117 -7,151 -32,31 -67,33 -94,6 z"
       id="path196" />
    <path
       d="m 13250,5140 c -41,-41 -8,-98 49,-85 30,6 31,5 31,-25 0,-32 -38,-79 -85,-106 -11,-7 -17,-15 -13,-19 12,-12 98,45 119,78 29,48 26,117 -7,151 -32,31 -67,33 -94,6 z"
       id="path198" />
    <path
       d="m 14600,5140 c -41,-41 -8,-98 49,-85 30,6 31,5 31,-25 0,-32 -38,-79 -85,-106 -11,-7 -17,-15 -13,-19 12,-12 98,45 119,78 29,48 26,117 -7,151 -32,31 -67,33 -94,6 z"
       id="path200" />
    <path
       d="m 18695,3474 c -572,-471 -1051,-865 -1064,-875 l -25,-20 25,-25 25,-25 1035,852 c 569,468 1047,863 1063,876 l 29,24 -24,25 -25,24 z"
       id="path202" />
    <path
       d="m 3370,3495 v -815 h 35 35 v 815 815 h -35 -35 z"
       id="path204" />
    <path
       d="m 21033,4302 c -9,-6 20,-205 117,-812 72,-443 130,-809 130,-813 0,-7 58,0 67,7 2,2 -56,366 -127,810 -72,444 -130,809 -130,812 0,7 -44,4 -57,-4 z"
       id="path206" />
    <path
       d="m 27537,4303 c -4,-3 -7,-370 -7,-815 v -808 h 35 35 v 815 815 h -28 c -16,0 -32,-3 -35,-7 z"
       id="path208" />
    <path
       d="m 33090,3495 v -815 h 35 35 v 815 815 h -35 -35 z"
       id="path210" />
    <path
       d="m 21465,2739 c -50,-78 -93,-143 -97,-146 -5,-2 -8,7 -8,21 0,43 -8,53 -41,48 -29,-4 -31,-7 -27,-43 2,-22 2,-39 0,-39 -2,0 -62,48 -133,106 -71,58 -129,102 -129,98 0,-10 353,-544 357,-541 4,5 173,631 170,633 -1,2 -43,-60 -92,-137 z"
       id="path212" />
    <path
       d="m 17430,2570 c -78,-160 -140,-293 -138,-296 7,-7 618,159 618,169 0,4 -46,8 -102,8 -57,1 -132,4 -168,8 l -65,6 28,21 c 32,26 33,35 8,59 -19,16 -21,16 -50,-5 -17,-12 -31,-18 -31,-13 0,4 11,80 25,168 13,87 23,161 21,162 -1,2 -67,-128 -146,-287 z"
       id="path214" />
    <path
       d="m 3153,2790 c 62,-143 240,-536 246,-542 5,-6 238,496 268,577 4,11 -45,-37 -108,-107 l -114,-128 -5,38 c -4,33 -8,37 -37,40 -33,3 -33,3 -33,-40 v -43 l -43,45 c -23,25 -77,83 -120,130 l -77,85 z"
       id="path216" />
    <path
       d="m 27300,2839 c 0,-18 269,-599 274,-591 13,21 265,586 263,589 -2,1 -54,-55 -117,-125 l -115,-127 -3,43 c -3,42 -4,43 -35,40 -28,-3 -33,-7 -37,-40 l -5,-36 -75,84 c -41,46 -92,103 -112,126 -21,24 -38,40 -38,37 z"
       id="path218" />
    <path
       d="m 32987,2542 c 75,-166 138,-301 140,-299 1,2 64,138 138,303 l 135,299 -48,-50 c -26,-27 -80,-86 -119,-130 l -73,-80 v 43 c 0,41 -1,42 -35,42 -34,0 -35,-1 -35,-42 v -43 l -73,80 c -39,44 -93,103 -119,130 l -48,50 z"
       id="path220" />
    <path
       d="m 2085,1681 c -95,-25 -191,-114 -221,-204 -10,-29 -17,-82 -17,-122 0,-40 7,-93 17,-122 22,-66 93,-146 159,-179 27,-14 73,-44 100,-66 90,-70 249,-137 330,-138 35,0 15,16 -42,32 -59,18 -133,76 -160,126 -10,19 -7,23 33,41 58,25 125,93 157,156 21,43 24,64 24,155 0,90 -3,111 -23,148 -58,110 -152,173 -262,178 -36,2 -78,0 -95,-5 z m 155,-43 c 81,-41 121,-134 121,-287 1,-153 -39,-243 -126,-282 -79,-37 -159,-19 -214,47 -76,93 -92,315 -31,433 52,102 153,138 250,89 z"
       id="path222" />
    <path
       d="m 20205,1681 c -95,-25 -191,-114 -221,-204 -10,-29 -17,-82 -17,-122 0,-40 7,-93 17,-122 22,-66 93,-146 159,-179 27,-14 73,-44 100,-66 90,-70 249,-137 330,-138 35,0 15,16 -42,32 -59,18 -133,76 -160,126 -10,19 -7,23 33,41 58,25 125,93 157,156 21,43 24,64 24,155 0,90 -3,111 -23,148 -58,110 -152,173 -262,178 -36,2 -78,0 -95,-5 z m 155,-43 c 81,-41 121,-134 121,-287 1,-153 -39,-243 -126,-282 -79,-37 -159,-19 -214,47 -76,93 -92,315 -31,433 52,102 153,138 250,89 z"
       id="path224" />
    <path
       d="m 14878,1671 c 19,-5 39,-14 45,-20 9,-9 12,-94 12,-296 0,-202 -3,-287 -12,-296 -6,-6 -26,-15 -45,-19 -21,-5 17,-8 107,-8 93,0 129,3 105,8 -54,13 -60,29 -60,166 v 123 l 68,-6 c 86,-7 143,9 186,52 57,57 66,160 18,224 -10,14 -39,37 -63,51 -42,24 -53,25 -219,27 -111,1 -163,-1 -142,-6 z m 265,-32 c 44,-23 66,-53 78,-105 27,-120 -56,-208 -168,-178 -22,6 -23,10 -23,144 0,101 3,140 13,143 23,10 78,7 100,-4 z"
       id="path226" />
    <path
       d="m 26268,1671 c 19,-5 39,-14 45,-20 9,-9 12,-94 12,-296 0,-202 -3,-287 -12,-296 -6,-6 -26,-15 -45,-19 -21,-5 17,-8 107,-8 93,0 129,3 105,8 -54,13 -60,29 -60,166 v 123 l 68,-6 c 86,-7 143,9 186,52 57,57 66,160 18,224 -10,14 -39,37 -63,51 -42,24 -53,25 -219,27 -111,1 -163,-1 -142,-6 z m 265,-32 c 44,-23 66,-53 78,-105 27,-120 -56,-208 -168,-178 -22,6 -23,10 -23,144 0,101 3,140 13,143 23,10 78,7 100,-4 z"
       id="path228" />
    <path
       d="m 31678,1671 c 19,-5 39,-14 45,-20 9,-9 12,-94 12,-296 0,-202 -3,-287 -12,-296 -6,-6 -26,-15 -45,-19 -21,-5 17,-8 107,-8 93,0 129,3 105,8 -54,13 -60,29 -60,166 v 123 l 68,-6 c 86,-7 143,9 186,52 57,57 66,160 18,224 -10,14 -39,37 -63,51 -42,24 -53,25 -219,27 -111,1 -163,-1 -142,-6 z m 265,-32 c 44,-23 66,-53 78,-105 27,-120 -56,-208 -168,-178 -22,6 -23,10 -23,144 0,101 3,140 13,143 23,10 78,7 100,-4 z"
       id="path230" />
    <path
       d="m 4610,1485 v -115 h -115 c -108,0 -115,-1 -115,-20 0,-19 7,-20 115,-20 h 115 v -115 c 0,-108 1,-115 20,-115 19,0 20,7 20,115 v 115 h 120 c 113,0 120,1 120,20 0,19 -7,20 -120,20 h -120 v 115 c 0,108 -1,115 -20,115 -19,0 -20,-7 -20,-115 z"
       id="path232" />
    <path
       d="m 22780,1485 v -115 h -115 c -108,0 -115,-1 -115,-20 0,-19 7,-20 115,-20 h 115 v -115 c 0,-108 1,-115 20,-115 19,0 20,7 20,115 v 115 h 120 c 113,0 120,1 120,20 0,19 -7,20 -120,20 h -120 v 115 c 0,108 -1,115 -20,115 -19,0 -20,-7 -20,-115 z"
       id="path234" />
    <path
       d="m 34230,1485 v -115 h -115 c -108,0 -115,-1 -115,-20 0,-19 7,-20 115,-20 h 115 v -115 c 0,-108 1,-115 20,-115 19,0 20,7 20,115 v 115 h 120 c 113,0 120,1 120,20 0,19 -7,20 -120,20 h -120 v 115 c 0,108 -1,115 -20,115 -19,0 -20,-7 -20,-115 z"
       id="path236" />
    <path
       d="m 3037,1443 c 21,-21 48,-81 103,-226 40,-108 78,-196 84,-194 6,2 37,63 70,135 32,72 62,130 65,127 3,-2 29,-62 56,-134 28,-72 55,-131 61,-131 6,0 46,92 89,205 59,156 84,210 104,225 l 26,19 h -75 c -62,0 -70,-2 -47,-11 15,-5 27,-17 27,-26 0,-21 -93,-272 -101,-272 -9,0 -99,233 -99,257 0,14 10,28 28,37 25,14 21,15 -78,15 -65,0 -97,-3 -85,-9 27,-10 40,-27 60,-76 l 16,-42 -43,-96 c -24,-52 -46,-96 -49,-96 -9,0 -99,252 -99,278 0,14 8,26 23,32 15,6 -5,9 -72,9 l -93,1 z"
       id="path238" />
    <path
       d="m 15797,1443 c 21,-21 48,-81 103,-226 40,-108 78,-196 84,-194 6,2 37,63 70,135 32,72 62,130 65,127 3,-2 29,-62 56,-134 28,-72 55,-131 61,-131 6,0 46,92 89,205 59,156 84,210 104,225 l 26,19 h -75 c -62,0 -70,-2 -47,-11 15,-5 27,-17 27,-26 0,-21 -93,-272 -101,-272 -9,0 -99,233 -99,257 0,14 10,28 28,37 25,14 21,15 -78,15 -65,0 -97,-3 -85,-9 27,-10 40,-27 60,-76 l 16,-42 -43,-96 c -24,-52 -46,-96 -49,-96 -9,0 -99,252 -99,278 0,14 8,26 23,32 15,6 -5,9 -72,9 l -93,1 z"
       id="path240" />
    <path
       d="m 21167,1443 c 21,-21 48,-81 103,-226 40,-108 78,-196 84,-194 6,2 37,63 70,135 32,72 62,130 65,127 3,-2 29,-62 56,-134 28,-72 55,-131 61,-131 6,0 46,92 89,205 59,156 84,210 104,225 l 26,19 h -75 c -62,0 -70,-2 -47,-11 15,-5 27,-17 27,-26 0,-21 -93,-272 -101,-272 -9,0 -99,233 -99,257 0,14 10,28 28,37 25,14 21,15 -78,15 -65,0 -97,-3 -85,-9 27,-10 40,-27 60,-76 l 16,-42 -43,-96 c -24,-52 -46,-96 -49,-96 -9,0 -99,252 -99,278 0,14 8,26 23,32 15,6 -5,9 -72,9 l -93,1 z"
       id="path242" />
    <path
       d="m 27187,1443 c 21,-21 48,-81 103,-226 40,-108 78,-196 84,-194 6,2 37,63 70,135 32,72 62,130 65,127 3,-2 29,-62 56,-134 28,-72 55,-131 61,-131 6,0 46,92 89,205 59,156 84,210 104,225 l 26,19 h -75 c -62,0 -70,-2 -47,-11 15,-5 27,-17 27,-26 0,-21 -93,-272 -101,-272 -9,0 -99,233 -99,257 0,14 10,28 28,37 25,14 21,15 -78,15 -65,0 -97,-3 -85,-9 27,-10 40,-27 60,-76 l 16,-42 -43,-96 c -24,-52 -46,-96 -49,-96 -9,0 -99,252 -99,278 0,14 8,26 23,32 15,6 -5,9 -72,9 l -93,1 z"
       id="path244" />
    <path
       d="m 32607,1443 c 21,-21 48,-81 103,-226 40,-108 78,-196 84,-194 6,2 37,63 70,135 32,72 62,130 65,127 3,-2 29,-62 56,-134 28,-72 55,-131 61,-131 6,0 46,92 89,205 59,156 84,210 104,225 l 26,19 h -75 c -62,0 -70,-2 -47,-11 15,-5 27,-17 27,-26 0,-21 -93,-272 -101,-272 -9,0 -99,233 -99,257 0,14 10,28 28,37 25,14 21,15 -78,15 -65,0 -97,-3 -85,-9 27,-10 40,-27 60,-76 l 16,-42 -43,-96 c -24,-52 -46,-96 -49,-96 -9,0 -99,252 -99,278 0,14 8,26 23,32 15,6 -5,9 -72,9 l -93,1 z"
       id="path246" />
    <path
       d="m 16507,1374 c -25,-25 8,-70 43,-59 32,10 24,59 -10,63 -14,2 -29,0 -33,-4 z"
       id="path248" />
    <path
       d="m 21877,1374 c -25,-25 8,-70 43,-59 32,10 24,59 -10,63 -14,2 -29,0 -33,-4 z"
       id="path250" />
    <path
       d="m 27897,1374 c -25,-25 8,-70 43,-59 32,10 24,59 -10,63 -14,2 -29,0 -33,-4 z"
       id="path252" />
    <path
       d="m 33317,1374 c -25,-25 8,-70 43,-59 32,10 24,59 -10,63 -14,2 -29,0 -33,-4 z"
       id="path254" />
    <path
       d="m 3734,1315 c -8,-21 2,-45 19,-45 21,0 38,25 31,44 -8,20 -43,21 -50,1 z"
       id="path256" />
    <path
       d="m 17210,1250 v -40 h 120 120 v 40 40 h -120 -120 z"
       id="path258" />
    <path
       d="m 28600,1250 v -40 h 120 120 v 40 40 h -120 -120 z"
       id="path260" />
    <path
       d="m 16450,1242 c 0,-4 14,-13 30,-19 l 30,-11 -1,-154 c -1,-84 -4,-164 -8,-178 -4,-15 -20,-31 -38,-40 -61,-28 -32,-53 35,-29 60,21 67,43 70,252 l 4,187 h -61 c -34,0 -61,-4 -61,-8 z"
       id="path262" />
    <path
       d="m 21820,1242 c 0,-4 14,-13 30,-19 l 30,-11 -1,-154 c -1,-84 -4,-164 -8,-178 -4,-15 -20,-31 -38,-40 -61,-28 -32,-53 35,-29 60,21 67,43 70,252 l 4,187 h -61 c -34,0 -61,-4 -61,-8 z"
       id="path264" />
    <path
       d="m 27840,1242 c 0,-4 14,-13 30,-19 l 30,-11 -1,-154 c -1,-84 -4,-164 -8,-178 -4,-15 -20,-31 -38,-40 -61,-28 -32,-53 35,-29 60,21 67,43 70,252 l 4,187 h -61 c -34,0 -61,-4 -61,-8 z"
       id="path266" />
    <path
       d="m 33260,1242 c 0,-4 14,-13 30,-19 l 30,-11 -1,-154 c -1,-84 -4,-164 -8,-178 -4,-15 -20,-31 -38,-40 -61,-28 -32,-53 35,-29 60,21 67,43 70,252 l 4,187 h -61 c -34,0 -61,-4 -61,-8 z"
       id="path268" />
    <path
       d="m 3705,1200 c 3,-5 13,-10 21,-10 11,0 14,-21 14,-113 V 964 l -27,-11 c -24,-9 -18,-11 45,-12 47,-1 71,3 67,9 -3,6 -15,10 -26,10 -18,0 -19,8 -19,125 v 125 h -41 c -24,0 -38,-4 -34,-10 z"
       id="path270" />
    <path
       d="m 2550,1110 c -41,-41 -8,-98 49,-85 30,6 31,5 31,-25 0,-32 -38,-79 -85,-106 -11,-7 -17,-15 -13,-19 12,-12 98,45 119,78 29,48 26,117 -7,151 -32,31 -67,33 -94,6 z"
       id="path272" />
    <path
       d="m 3910,1110 c -41,-41 -8,-98 49,-85 30,6 31,5 31,-25 0,-32 -38,-79 -85,-106 -11,-7 -17,-15 -13,-19 12,-12 98,45 119,78 29,48 26,117 -7,151 -32,31 -67,33 -94,6 z"
       id="path274" />
    <path
       d="m 15310,1110 c -41,-41 -8,-98 49,-85 30,6 31,5 31,-25 0,-32 -38,-79 -85,-106 -11,-7 -17,-15 -13,-19 12,-12 98,45 119,78 29,48 26,117 -7,151 -32,31 -67,33 -94,6 z"
       id="path276" />
    <path
       d="m 16720,1110 c -41,-41 -8,-98 49,-85 30,6 31,5 31,-25 0,-32 -38,-79 -85,-106 -11,-7 -17,-15 -13,-19 12,-12 98,45 119,78 29,48 26,117 -7,151 -32,31 -67,33 -94,6 z"
       id="path278" />
    <path
       d="m 20680,1110 c -41,-41 -8,-98 49,-85 30,6 31,5 31,-25 0,-32 -38,-79 -85,-106 -11,-7 -17,-15 -13,-19 12,-12 98,45 119,78 29,48 26,117 -7,151 -32,31 -67,33 -94,6 z"
       id="path280" />
    <path
       d="m 22080,1110 c -41,-41 -8,-98 49,-85 30,6 31,5 31,-25 0,-32 -38,-79 -85,-106 -11,-7 -17,-15 -13,-19 12,-12 98,45 119,78 29,48 26,117 -7,151 -32,31 -67,33 -94,6 z"
       id="path282" />
    <path
       d="m 26700,1110 c -41,-41 -8,-98 49,-85 30,6 31,5 31,-25 0,-32 -38,-79 -85,-106 -11,-7 -17,-15 -13,-19 12,-12 98,45 119,78 29,48 26,117 -7,151 -32,31 -67,33 -94,6 z"
       id="path284" />
    <path
       d="m 28110,1110 c -41,-41 -8,-98 49,-85 30,6 31,5 31,-25 0,-32 -38,-79 -85,-106 -11,-7 -17,-15 -13,-19 12,-12 98,45 119,78 29,48 26,117 -7,151 -32,31 -67,33 -94,6 z"
       id="path286" />
    <path
       d="m 32120,1110 c -41,-41 -8,-98 49,-85 30,6 31,5 31,-25 0,-32 -38,-79 -85,-106 -11,-7 -17,-15 -13,-19 12,-12 98,45 119,78 29,48 26,117 -7,151 -32,31 -67,33 -94,6 z"
       id="path288" />
    <path
       d="m 33520,1110 c -41,-41 -8,-98 49,-85 30,6 31,5 31,-25 0,-32 -38,-79 -85,-106 -11,-7 -17,-15 -13,-19 12,-12 98,45 119,78 29,48 26,117 -7,151 -32,31 -67,33 -94,6 z"
       id="path290" />
  </g>
</svg>
