<?xml version="1.0" encoding="UTF-8" standalone="no"?>
<svg
   version="1.0"
   width="3298.7646pt"
   height="1359.5411pt"
   viewBox="0 0 3298.7646 1359.5411"
   preserveAspectRatio="xMidYMid meet"
   id="svg268"
   xmlns="http://www.w3.org/2000/svg"
   xmlns:svg="http://www.w3.org/2000/svg">
  <defs
     id="defs272" />
  <metadata
     id="metadata2">
Created by potrace 1.16, written by Peter Selinger 2001-2019
</metadata>
  <g
     transform="matrix(0.1,0,0,-0.1,-87.235397,1439.6766)"
     fill="#000000"
     stroke="none"
     id="g266">
    <path
       d="m 4055,14391 c -95,-25 -191,-114 -221,-204 -10,-29 -17,-82 -17,-122 0,-40 7,-93 17,-122 22,-66 93,-146 159,-179 27,-14 73,-44 100,-66 90,-70 249,-137 330,-138 35,0 15,16 -42,32 -59,18 -133,76 -160,126 -10,19 -7,23 33,41 58,25 125,93 157,156 21,43 24,64 24,155 0,90 -3,111 -23,148 -58,110 -152,173 -262,178 -36,2 -78,0 -95,-5 z m 155,-43 c 81,-41 121,-134 121,-287 1,-153 -39,-243 -126,-282 -79,-37 -159,-19 -214,47 -76,93 -92,315 -31,433 52,102 153,138 250,89 z"
       id="path4" />
    <path
       d="m 13295,14391 c -95,-25 -191,-114 -221,-204 -10,-29 -17,-82 -17,-122 0,-40 7,-93 17,-122 22,-66 93,-146 159,-179 27,-14 73,-44 100,-66 90,-70 249,-137 330,-138 35,0 15,16 -42,32 -59,18 -133,76 -160,126 -10,19 -7,23 33,41 58,25 125,93 157,156 21,43 24,64 24,155 0,90 -3,111 -23,148 -58,110 -152,173 -262,178 -36,2 -78,0 -95,-5 z m 155,-43 c 81,-41 121,-134 121,-287 1,-153 -39,-243 -126,-282 -79,-37 -159,-19 -214,47 -76,93 -92,315 -31,433 52,102 153,138 250,89 z"
       id="path6" />
    <path
       d="m 20515,14391 c -95,-25 -191,-114 -221,-204 -10,-29 -17,-82 -17,-122 0,-40 7,-93 17,-122 22,-66 93,-146 159,-179 27,-14 73,-44 100,-66 90,-70 249,-137 330,-138 35,0 15,16 -42,32 -59,18 -133,76 -160,126 -10,19 -7,23 33,41 58,25 125,93 157,156 21,43 24,64 24,155 0,90 -3,111 -23,148 -58,110 -152,173 -262,178 -36,2 -78,0 -95,-5 z m 155,-43 c 81,-41 121,-134 121,-287 1,-153 -39,-243 -126,-282 -79,-37 -159,-19 -214,47 -76,93 -92,315 -31,433 52,102 153,138 250,89 z"
       id="path8" />
    <path
       d="m 1858,14381 c 19,-5 39,-14 45,-20 17,-17 17,-575 0,-592 -6,-6 -26,-15 -45,-19 -21,-5 17,-8 107,-8 93,0 129,3 105,8 -54,13 -60,29 -60,166 v 123 l 68,-6 c 86,-7 143,9 186,52 57,57 66,160 18,224 -10,14 -39,37 -63,51 -42,24 -53,25 -219,27 -111,1 -163,-1 -142,-6 z m 265,-32 c 44,-23 66,-53 78,-105 27,-120 -56,-208 -168,-178 -22,6 -23,10 -23,144 0,101 3,140 13,143 23,10 78,7 100,-4 z"
       id="path10" />
    <path
       d="m 11088,14381 c 19,-5 39,-14 45,-20 9,-9 12,-94 12,-296 0,-202 -3,-287 -12,-296 -6,-6 -26,-15 -45,-19 -21,-5 17,-8 107,-8 93,0 129,3 105,8 -54,13 -60,29 -60,166 v 123 l 68,-6 c 86,-7 143,9 186,52 57,57 66,160 18,224 -10,14 -39,37 -63,51 -42,24 -53,25 -219,27 -111,1 -163,-1 -142,-6 z m 265,-32 c 44,-23 66,-53 78,-105 27,-120 -56,-208 -168,-178 -22,6 -23,10 -23,144 0,101 3,140 13,143 23,10 78,7 100,-4 z"
       id="path12" />
    <path
       d="m 18308,14381 c 19,-5 39,-14 45,-20 9,-9 12,-94 12,-296 0,-202 -3,-287 -12,-296 -6,-6 -26,-15 -45,-19 -21,-5 17,-8 107,-8 93,0 129,3 105,8 -54,13 -60,29 -60,166 v 123 l 68,-6 c 86,-7 143,9 186,52 57,57 66,160 18,224 -10,14 -39,37 -63,51 -42,24 -53,25 -219,27 -111,1 -163,-1 -142,-6 z m 265,-32 c 44,-23 66,-53 78,-105 27,-120 -56,-208 -168,-178 -22,6 -23,10 -23,144 0,101 3,140 13,143 23,10 78,7 100,-4 z"
       id="path14" />
    <path
       d="m 26108,14381 c 19,-5 39,-14 45,-20 9,-9 12,-94 12,-296 0,-202 -3,-287 -12,-296 -6,-6 -26,-15 -45,-19 -21,-5 17,-8 107,-8 93,0 129,3 105,8 -54,13 -60,29 -60,166 v 123 l 68,-6 c 86,-7 143,9 186,52 57,57 66,160 18,224 -10,14 -39,37 -63,51 -42,24 -53,25 -219,27 -111,1 -163,-1 -142,-6 z m 265,-32 c 44,-23 66,-53 78,-105 27,-120 -56,-208 -168,-178 -22,6 -23,10 -23,144 0,101 3,140 13,143 23,10 78,7 100,-4 z"
       id="path16" />
    <path
       d="m 31088,14381 c 19,-5 39,-14 45,-20 9,-9 12,-94 12,-296 0,-202 -3,-287 -12,-296 -6,-6 -26,-15 -45,-19 -21,-5 17,-8 107,-8 93,0 129,3 105,8 -54,13 -60,29 -60,166 v 123 l 68,-6 c 86,-7 143,9 186,52 57,57 66,160 18,224 -10,14 -39,37 -63,51 -42,24 -53,25 -219,27 -111,1 -163,-1 -142,-6 z m 265,-32 c 44,-23 66,-53 78,-105 27,-120 -56,-208 -168,-178 -22,6 -23,10 -23,144 0,101 3,140 13,143 23,10 78,7 100,-4 z"
       id="path18" />
    <path
       d="m 33580,14195 v -115 h -115 c -108,0 -115,-1 -115,-20 0,-19 7,-20 115,-20 h 115 v -115 c 0,-108 1,-115 20,-115 19,0 20,7 20,115 v 115 h 120 c 113,0 120,1 120,20 0,19 -7,20 -120,20 h -120 v 115 c 0,108 -1,115 -20,115 -19,0 -20,-7 -20,-115 z"
       id="path20" />
    <path
       d="m 2881,14003 c -57,-131 -106,-244 -108,-250 -4,-9 7,-13 33,-13 h 39 l 84,195 c 46,108 86,193 89,190 3,-3 42,-90 87,-193 l 81,-187 37,-3 c 20,-2 37,0 37,4 0,3 -48,116 -106,250 l -106,244 h -32 -32 z"
       id="path22" />
    <path
       d="m 12014,14224 c 4,-10 53,-123 108,-251 l 101,-233 h 33 c 35,0 14,-40 200,385 24,55 44,103 44,108 0,4 -17,7 -37,5 l -37,-3 -81,-187 c -44,-103 -83,-189 -86,-193 -4,-3 -44,81 -90,187 l -84,193 -39,3 c -34,3 -38,1 -32,-14 z"
       id="path24" />
    <path
       d="m 19220,14192 v -30 l 178,-4 c 149,-2 182,-6 205,-21 44,-28 61,-73 61,-157 0,-84 -17,-129 -61,-157 -23,-15 -56,-19 -205,-21 l -178,-4 v -30 -30 l 188,4 c 212,3 233,10 284,83 55,80 55,232 1,309 -52,74 -73,81 -285,84 l -188,4 z"
       id="path26" />
    <path
       d="m 5017,14153 c 21,-21 48,-81 103,-226 40,-108 78,-196 84,-194 6,2 37,63 70,135 32,72 62,130 65,127 3,-2 29,-62 56,-134 28,-72 55,-131 61,-131 6,0 46,92 89,205 59,156 84,210 104,225 l 26,19 h -75 c -62,0 -70,-2 -47,-11 15,-5 27,-17 27,-26 0,-21 -93,-272 -101,-272 -9,0 -99,233 -99,257 0,14 10,28 28,37 25,14 21,15 -78,15 -65,0 -97,-3 -85,-9 27,-10 40,-27 60,-76 l 16,-42 -43,-96 c -24,-52 -46,-96 -49,-96 -9,0 -99,252 -99,278 0,14 8,26 23,32 15,6 -5,9 -72,9 l -93,1 z"
       id="path28" />
    <path
       d="m 14257,14153 c 21,-21 48,-81 103,-226 40,-108 78,-196 84,-194 6,2 37,63 70,135 32,72 62,130 65,127 3,-2 29,-62 56,-134 28,-72 55,-131 61,-131 6,0 46,92 89,205 59,156 84,210 104,225 l 26,19 h -75 c -62,0 -70,-2 -47,-11 15,-5 27,-17 27,-26 0,-21 -93,-272 -101,-272 -9,0 -99,233 -99,257 0,14 10,28 28,37 25,14 21,15 -78,15 -65,0 -97,-3 -85,-9 27,-10 40,-27 60,-76 l 16,-42 -43,-96 c -24,-52 -46,-96 -49,-96 -9,0 -99,252 -99,278 0,14 8,26 23,32 15,6 -5,9 -72,9 l -93,1 z"
       id="path30" />
    <path
       d="m 21477,14153 c 21,-21 48,-81 103,-226 40,-108 78,-196 84,-194 6,2 37,63 70,135 32,72 62,130 65,127 3,-2 29,-62 56,-134 28,-72 55,-131 61,-131 6,0 46,92 89,205 59,156 84,210 104,225 l 26,19 h -75 c -62,0 -70,-2 -47,-11 15,-5 27,-17 27,-26 0,-21 -93,-272 -101,-272 -9,0 -99,233 -99,257 0,14 10,28 28,37 25,14 21,15 -78,15 -65,0 -97,-3 -85,-9 27,-10 40,-27 60,-76 l 16,-42 -43,-96 c -24,-52 -46,-96 -49,-96 -9,0 -99,252 -99,278 0,14 8,26 23,32 15,6 -5,9 -72,9 l -93,1 z"
       id="path32" />
    <path
       d="m 27037,14153 c 21,-21 48,-81 103,-226 40,-108 78,-196 84,-194 6,2 37,63 70,135 32,72 62,130 65,127 3,-2 29,-62 56,-134 28,-72 55,-131 61,-131 6,0 46,92 89,205 59,156 84,210 104,225 l 26,19 h -75 c -62,0 -70,-2 -47,-11 15,-5 27,-17 27,-26 0,-21 -93,-272 -101,-272 -9,0 -99,233 -99,257 0,14 10,28 28,37 25,14 21,15 -78,15 -65,0 -97,-3 -85,-9 27,-10 40,-27 60,-76 l 16,-42 -43,-96 c -24,-52 -46,-96 -49,-96 -9,0 -99,252 -99,278 0,14 8,26 23,32 15,6 -5,9 -72,9 l -93,1 z"
       id="path34" />
    <path
       d="m 32017,14153 c 21,-21 48,-81 103,-226 40,-108 78,-196 84,-194 6,2 37,63 70,135 32,72 62,130 65,127 3,-2 29,-62 56,-134 28,-72 55,-131 61,-131 6,0 46,92 89,205 59,156 84,210 104,225 l 26,19 h -75 c -62,0 -70,-2 -47,-11 15,-5 27,-17 27,-26 0,-21 -93,-272 -101,-272 -9,0 -99,233 -99,257 0,14 10,28 28,37 25,14 21,15 -78,15 -65,0 -97,-3 -85,-9 27,-10 40,-27 60,-76 l 16,-42 -43,-96 c -24,-52 -46,-96 -49,-96 -9,0 -99,252 -99,278 0,14 8,26 23,32 15,6 -5,9 -72,9 l -93,1 z"
       id="path36" />
    <path
       d="m 25510,14130 c 0,-19 7,-20 235,-20 h 235 v -75 c 0,-68 2,-75 20,-75 19,0 20,7 20,95 v 95 h -255 c -248,0 -255,-1 -255,-20 z"
       id="path38" />
    <path
       d="m 5714,14025 c -8,-21 2,-45 19,-45 21,0 38,25 31,44 -8,20 -43,21 -50,1 z"
       id="path40" />
    <path
       d="m 14954,14025 c -8,-21 2,-45 19,-45 21,0 38,25 31,44 -8,20 -43,21 -50,1 z"
       id="path42" />
    <path
       d="m 22174,14025 c -8,-21 2,-45 19,-45 21,0 38,25 31,44 -8,20 -43,21 -50,1 z"
       id="path44" />
    <path
       d="m 27724,14025 c -8,-21 2,-45 19,-45 21,0 38,25 31,44 -8,20 -43,21 -50,1 z"
       id="path46" />
    <path
       d="m 32714,14025 c -8,-21 2,-45 19,-45 21,0 38,25 31,44 -8,20 -43,21 -50,1 z"
       id="path48" />
    <path
       d="m 6380,13960 v -40 h 120 120 v 40 40 h -120 -120 z"
       id="path50" />
    <path
       d="m 15610,13960 v -40 h 120 120 v 40 40 h -120 -120 z"
       id="path52" />
    <path
       d="m 22840,13960 v -40 h 120 120 v 40 40 h -120 -120 z"
       id="path54" />
    <path
       d="m 28390,13960 v -40 h 120 120 v 40 40 h -120 -120 z"
       id="path56" />
    <path
       d="m 5685,13910 c 3,-5 13,-10 21,-10 11,0 14,-21 14,-113 v -113 l -27,-11 c -24,-9 -18,-11 45,-12 47,-1 71,3 67,9 -3,6 -15,10 -26,10 -18,0 -19,8 -19,125 v 125 h -41 c -24,0 -38,-4 -34,-10 z"
       id="path58" />
    <path
       d="m 14925,13910 c 3,-5 13,-10 21,-10 11,0 14,-21 14,-113 v -113 l -27,-11 c -24,-9 -18,-11 45,-12 47,-1 71,3 67,9 -3,6 -15,10 -26,10 -18,0 -19,8 -19,125 v 125 h -41 c -24,0 -38,-4 -34,-10 z"
       id="path60" />
    <path
       d="m 22145,13910 c 3,-5 13,-10 21,-10 11,0 14,-21 14,-113 v -113 l -27,-11 c -24,-9 -18,-11 45,-12 47,-1 71,3 67,9 -3,6 -15,10 -26,10 -18,0 -19,8 -19,125 v 125 h -41 c -24,0 -38,-4 -34,-10 z"
       id="path62" />
    <path
       d="m 27695,13910 c 3,-5 13,-10 21,-10 11,0 14,-21 14,-113 v -113 l -27,-11 c -24,-9 -18,-11 45,-12 47,-1 71,3 67,9 -3,6 -15,10 -26,10 -18,0 -19,8 -19,125 v 125 h -41 c -24,0 -38,-4 -34,-10 z"
       id="path64" />
    <path
       d="m 32685,13910 c 3,-5 13,-10 21,-10 11,0 14,-21 14,-113 v -113 l -27,-11 c -24,-9 -18,-11 45,-12 47,-1 71,3 67,9 -3,6 -15,10 -26,10 -18,0 -19,8 -19,125 v 125 h -41 c -24,0 -38,-4 -34,-10 z"
       id="path66" />
    <path
       d="m 4530,13820 c -41,-41 -8,-98 49,-85 30,6 31,5 31,-25 0,-32 -38,-79 -85,-106 -11,-7 -17,-15 -13,-19 12,-12 98,45 119,78 29,48 26,117 -7,151 -32,31 -67,33 -94,6 z"
       id="path68" />
    <path
       d="m 5890,13820 c -41,-41 -8,-98 49,-85 30,6 31,5 31,-25 0,-32 -38,-79 -85,-106 -11,-7 -17,-15 -13,-19 12,-12 98,45 119,78 29,48 26,117 -7,151 -32,31 -67,33 -94,6 z"
       id="path70" />
    <path
       d="m 13770,13820 c -41,-41 -8,-98 49,-85 30,6 31,5 31,-25 0,-32 -38,-79 -85,-106 -11,-7 -17,-15 -13,-19 12,-12 98,45 119,78 29,48 26,117 -7,151 -32,31 -67,33 -94,6 z"
       id="path72" />
    <path
       d="m 15120,13820 c -41,-41 -8,-98 49,-85 30,6 31,5 31,-25 0,-32 -38,-79 -85,-106 -11,-7 -17,-15 -13,-19 12,-12 98,45 119,78 29,48 26,117 -7,151 -32,31 -67,33 -94,6 z"
       id="path74" />
    <path
       d="m 20990,13820 c -41,-41 -8,-98 49,-85 30,6 31,5 31,-25 0,-32 -38,-79 -85,-106 -11,-7 -17,-15 -13,-19 12,-12 98,45 119,78 29,48 26,117 -7,151 -32,31 -67,33 -94,6 z"
       id="path76" />
    <path
       d="m 22340,13820 c -41,-41 -8,-98 49,-85 30,6 31,5 31,-25 0,-32 -38,-79 -85,-106 -11,-7 -17,-15 -13,-19 12,-12 98,45 119,78 29,48 26,117 -7,151 -32,31 -67,33 -94,6 z"
       id="path78" />
    <path
       d="m 26540,13820 c -41,-41 -8,-98 49,-85 30,6 31,5 31,-25 0,-32 -38,-79 -85,-106 -11,-7 -17,-15 -13,-19 12,-12 98,45 119,78 29,48 26,117 -7,151 -32,31 -67,33 -94,6 z"
       id="path80" />
    <path
       d="m 27900,13820 c -41,-41 -8,-98 49,-85 30,6 31,5 31,-25 0,-32 -38,-79 -85,-106 -11,-7 -17,-15 -13,-19 12,-12 98,45 119,78 29,48 26,117 -7,151 -32,31 -67,33 -94,6 z"
       id="path82" />
    <path
       d="m 31530,13820 c -41,-41 -8,-98 49,-85 30,6 31,5 31,-25 0,-32 -38,-79 -85,-106 -11,-7 -17,-15 -13,-19 12,-12 98,45 119,78 29,48 26,117 -7,151 -32,31 -67,33 -94,6 z"
       id="path84" />
    <path
       d="m 32880,13820 c -41,-41 -8,-98 49,-85 30,6 31,5 31,-25 0,-32 -38,-79 -85,-106 -11,-7 -17,-15 -13,-19 12,-12 98,45 119,78 29,48 26,117 -7,151 -32,31 -67,33 -94,6 z"
       id="path86" />
    <path
       d="m 3727,12977 c -3,-6 -224,-452 -490,-990 l -486,-977 31,-16 c 16,-8 31,-14 33,-12 5,6 975,1967 975,1972 0,3 -13,12 -29,20 -22,12 -30,13 -34,3 z"
       id="path88" />
    <path
       d="m 4932,12974 c -12,-8 -22,-19 -22,-25 0,-5 338,-473 750,-1041 413,-567 749,-1033 747,-1034 -2,-2 -66,10 -143,26 -76,17 -152,33 -169,36 -16,3 100,-69 259,-160 159,-92 290,-165 292,-164 1,2 -28,149 -65,328 -75,359 -69,353 -92,112 -7,-73 -16,-131 -20,-130 -4,2 -341,462 -749,1023 -408,561 -747,1026 -753,1032 -10,10 -17,10 -35,-3 z"
       id="path90" />
    <path
       d="m 13440,12000 v -970 h 35 35 v 970 970 h -35 -35 z"
       id="path92" />
    <path
       d="m 20660,12000 v -970 h 35 35 v 970 970 h -35 -35 z"
       id="path94" />
    <path
       d="m 27050,12000 v -970 h 35 35 v 970 970 h -35 -35 z"
       id="path96" />
    <path
       d="m 32470,11975 v -995 h 30 30 v 995 995 h -30 -30 z"
       id="path98" />
    <path
       d="m 2607,11128 c -14,-283 -20,-518 -13,-518 10,0 498,402 493,406 -2,2 -70,-23 -152,-56 -82,-33 -150,-58 -152,-56 -3,2 3,18 11,35 16,30 16,31 -13,46 -39,19 -37,20 -51,-15 -7,-16 -15,-30 -19,-30 -3,0 -26,72 -50,160 -24,88 -45,160 -46,160 -1,0 -5,-60 -8,-132 z"
       id="path100" />
    <path
       d="m 13200,11199 c 0,-10 261,-584 269,-592 4,-4 67,124 139,284 73,161 130,294 129,296 -2,2 -53,-52 -113,-119 l -109,-122 -3,37 c -3,35 -5,37 -37,37 -32,0 -34,-2 -37,-40 l -3,-41 -90,101 c -49,55 -102,115 -117,132 -16,18 -28,30 -28,27 z"
       id="path102" />
    <path
       d="m 20430,11180 c 60,-145 258,-572 264,-572 8,1 88,173 232,497 29,65 38,93 26,80 -11,-11 -65,-71 -121,-133 l -101,-112 v 40 c 0,39 -1,40 -34,40 -33,0 -35,-2 -38,-39 l -3,-39 -75,84 c -156,175 -161,180 -150,154 z"
       id="path104" />
    <path
       d="m 26823,11170 c 19,-45 236,-529 249,-554 10,-18 11,-18 25,7 29,56 253,560 250,563 -2,2 -52,-51 -113,-119 l -109,-122 -3,38 c -3,35 -5,37 -37,37 -32,0 -34,-2 -37,-40 l -3,-39 -85,95 c -47,52 -100,111 -118,132 l -33,37 z"
       id="path106" />
    <path
       d="m 31228,10561 c 19,-5 39,-14 45,-20 9,-9 12,-94 12,-296 0,-202 -3,-287 -12,-296 -6,-6 -26,-15 -45,-19 -21,-5 17,-8 107,-8 93,0 129,3 105,8 -54,13 -60,29 -60,166 v 123 l 68,-6 c 86,-7 143,9 186,52 57,57 66,160 18,224 -10,14 -39,37 -63,51 -42,24 -53,25 -219,27 -111,1 -163,-1 -142,-6 z m 265,-32 c 44,-23 66,-53 78,-105 27,-120 -56,-208 -168,-178 -22,6 -23,10 -23,144 0,101 3,140 13,143 23,10 78,7 100,-4 z"
       id="path108" />
    <path
       d="m 32157,10333 c 21,-21 48,-81 103,-226 40,-108 78,-196 84,-194 6,2 37,63 70,135 32,72 62,130 65,127 3,-2 29,-62 56,-134 28,-72 55,-131 61,-131 6,0 46,92 89,205 59,156 84,210 104,225 l 26,19 h -75 c -62,0 -70,-2 -47,-11 15,-5 27,-17 27,-26 0,-21 -93,-272 -101,-272 -9,0 -99,233 -99,257 0,14 10,28 28,37 25,14 21,15 -78,15 -65,0 -97,-3 -85,-9 27,-10 40,-27 60,-76 l 16,-42 -43,-96 c -24,-52 -46,-96 -49,-96 -9,0 -99,252 -99,278 0,14 8,26 23,32 15,6 -5,9 -72,9 l -93,1 z"
       id="path110" />
    <path
       d="m 32854,10205 c -8,-21 2,-45 19,-45 21,0 38,25 31,44 -8,20 -43,21 -50,1 z"
       id="path112" />
    <path
       d="m 20591,10035 -52,-165 -170,-2 -169,-3 135,-98 c 74,-54 135,-101 135,-104 0,-3 -22,-75 -50,-161 -27,-85 -48,-157 -46,-159 2,-2 39,23 82,55 44,32 104,76 134,99 l 56,40 134,-98 c 73,-54 135,-97 137,-95 3,2 -16,66 -40,143 -24,76 -47,147 -51,159 -5,17 14,35 130,120 l 136,99 -169,3 -169,2 -53,165 c -28,91 -53,165 -55,165 -1,0 -26,-74 -55,-165 z m 98,-82 37,-118 124,-5 125,-5 -97,-70 c -54,-38 -98,-75 -98,-80 0,-6 18,-64 39,-128 22,-65 34,-114 28,-110 -7,4 -54,38 -104,75 -51,37 -95,68 -98,68 -3,0 -51,-34 -105,-75 -55,-42 -100,-72 -100,-67 0,4 16,55 35,112 19,57 35,111 35,120 0,9 -44,47 -97,85 l -98,70 125,5 125,5 39,122 c 22,68 42,121 44,119 2,-3 20,-58 41,-123 z"
       id="path114" />
    <path
       d="m 26981,10035 -52,-165 -170,-2 -169,-3 135,-98 c 74,-54 135,-101 135,-104 0,-3 -22,-75 -50,-161 -27,-85 -48,-157 -46,-159 2,-2 39,23 82,55 44,32 104,76 134,99 l 56,40 134,-98 c 73,-54 135,-97 137,-95 3,2 -16,66 -40,143 -24,76 -47,147 -51,159 -5,17 14,35 130,120 l 136,99 -169,3 -169,2 -53,165 c -28,91 -53,165 -55,165 -1,0 -26,-74 -55,-165 z m 98,-82 37,-118 124,-5 125,-5 -97,-70 c -54,-38 -98,-75 -98,-80 0,-6 18,-64 39,-128 22,-65 34,-114 28,-110 -7,4 -54,38 -104,75 -51,37 -95,68 -98,68 -3,0 -51,-34 -105,-75 -55,-42 -100,-72 -100,-67 0,4 16,55 35,112 19,57 35,111 35,120 0,9 -44,47 -97,85 l -98,70 125,5 125,5 39,122 c 22,68 42,121 44,119 2,-3 20,-58 41,-123 z"
       id="path116" />
    <path
       d="m 33510,10140 v -40 h 120 120 v 40 40 h -120 -120 z"
       id="path118" />
    <path
       d="m 32825,10090 c 3,-5 13,-10 21,-10 11,0 14,-21 14,-113 v -113 l -27,-11 c -24,-9 -18,-11 45,-12 47,-1 71,3 67,9 -3,6 -15,10 -26,10 -18,0 -19,8 -19,125 v 125 h -41 c -24,0 -38,-4 -34,-10 z"
       id="path120" />
    <path
       d="m 6105,10051 c -95,-25 -191,-114 -221,-204 -10,-29 -17,-82 -17,-122 0,-40 7,-93 17,-122 22,-66 93,-146 159,-179 27,-14 73,-44 100,-66 90,-70 249,-137 330,-138 35,0 15,16 -42,32 -59,18 -133,76 -160,126 -10,19 -7,23 33,41 58,25 125,93 157,156 21,43 24,64 24,155 0,90 -3,111 -23,148 -58,110 -152,173 -262,178 -36,2 -78,0 -95,-5 z m 155,-43 c 81,-41 121,-134 121,-287 1,-153 -39,-243 -126,-282 -79,-37 -159,-19 -214,47 -76,93 -92,315 -31,433 52,102 153,138 250,89 z"
       id="path122" />
    <path
       d="m 878,10041 c 19,-5 39,-14 45,-20 17,-17 17,-575 0,-592 -6,-6 -26,-15 -45,-19 -21,-5 17,-8 107,-8 93,0 129,3 105,8 -54,13 -60,29 -60,166 v 123 l 68,-6 c 86,-7 143,9 186,52 57,57 66,160 18,224 -10,14 -39,37 -63,51 -42,24 -53,25 -219,27 -111,1 -163,-1 -142,-6 z m 265,-32 c 44,-23 66,-53 78,-105 27,-120 -56,-208 -168,-178 -22,6 -23,10 -23,144 0,101 3,140 13,143 23,10 78,7 100,-4 z"
       id="path124" />
    <path
       d="m 12198,10041 c 19,-5 39,-14 45,-20 9,-9 12,-94 12,-296 0,-202 -3,-287 -12,-296 -6,-6 -26,-15 -45,-19 -21,-5 17,-8 107,-8 93,0 129,3 105,8 -54,13 -60,29 -60,166 v 123 l 68,-6 c 86,-7 143,9 186,52 57,57 66,160 18,224 -10,14 -39,37 -63,51 -42,24 -53,25 -219,27 -111,1 -163,-1 -142,-6 z m 265,-32 c 44,-23 66,-53 78,-105 27,-120 -56,-208 -168,-178 -22,6 -23,10 -23,144 0,101 3,140 13,143 23,10 78,7 100,-4 z"
       id="path126" />
    <path
       d="m 31670,10000 c -41,-41 -8,-98 49,-85 30,6 31,5 31,-25 0,-32 -38,-79 -85,-106 -11,-7 -17,-15 -13,-19 12,-12 98,45 119,78 29,48 26,117 -7,151 -32,31 -67,33 -94,6 z"
       id="path128" />
    <path
       d="m 33020,10000 c -41,-41 -8,-98 49,-85 30,6 31,5 31,-25 0,-32 -38,-79 -85,-106 -11,-7 -17,-15 -13,-19 12,-12 98,45 119,78 29,48 26,117 -7,151 -32,31 -67,33 -94,6 z"
       id="path130" />
    <path
       d="m 1807,9813 c 21,-21 48,-81 103,-226 40,-108 78,-196 84,-194 6,2 37,63 70,135 32,72 62,130 65,127 3,-2 29,-62 56,-134 28,-72 55,-131 61,-131 6,0 46,92 89,205 59,156 84,210 104,225 l 26,19 h -75 c -62,0 -70,-2 -47,-11 15,-5 27,-17 27,-26 0,-21 -93,-272 -101,-272 -9,0 -99,233 -99,257 0,14 10,28 28,37 25,14 21,15 -78,15 -65,0 -97,-3 -85,-9 27,-10 40,-27 60,-76 l 16,-42 -43,-96 c -24,-52 -46,-96 -49,-96 -9,0 -99,252 -99,278 0,14 8,26 23,32 15,6 -5,9 -72,9 l -93,1 z"
       id="path132" />
    <path
       d="m 7067,9813 c 21,-21 48,-81 103,-226 40,-108 78,-196 84,-194 6,2 37,63 70,135 32,72 62,130 65,127 3,-2 29,-62 56,-134 28,-72 55,-131 61,-131 6,0 46,92 89,205 59,156 84,210 104,225 l 26,19 h -75 c -62,0 -70,-2 -47,-11 15,-5 27,-17 27,-26 0,-21 -93,-272 -101,-272 -9,0 -99,233 -99,257 0,14 10,28 28,37 25,14 21,15 -78,15 -65,0 -97,-3 -85,-9 27,-10 40,-27 60,-76 l 16,-42 -43,-96 c -24,-52 -46,-96 -49,-96 -9,0 -99,252 -99,278 0,14 8,26 23,32 15,6 -5,9 -72,9 l -93,1 z"
       id="path134" />
    <path
       d="m 13127,9813 c 21,-21 48,-81 103,-226 40,-108 78,-196 84,-194 6,2 37,63 70,135 32,72 62,130 65,127 3,-2 29,-62 56,-134 28,-72 55,-131 61,-131 6,0 46,92 89,205 59,156 84,210 104,225 l 26,19 h -75 c -62,0 -70,-2 -47,-11 15,-5 27,-17 27,-26 0,-21 -93,-272 -101,-272 -9,0 -99,233 -99,257 0,14 10,28 28,37 25,14 21,15 -78,15 -65,0 -97,-3 -85,-9 27,-10 40,-27 60,-76 l 16,-42 -43,-96 c -24,-52 -46,-96 -49,-96 -9,0 -99,252 -99,278 0,14 8,26 23,32 15,6 -5,9 -72,9 l -93,1 z"
       id="path136" />
    <path
       d="m 19097,9813 c 21,-21 48,-81 103,-226 40,-108 78,-196 84,-194 6,2 37,63 70,135 32,72 62,130 65,127 3,-2 29,-62 56,-134 28,-72 55,-131 61,-131 6,0 46,92 89,205 59,156 84,210 104,225 l 26,19 h -75 c -62,0 -70,-2 -47,-11 15,-5 27,-17 27,-26 0,-21 -93,-272 -101,-272 -9,0 -99,233 -99,257 0,14 10,28 28,37 25,14 21,15 -78,15 -65,0 -97,-3 -85,-9 27,-10 40,-27 60,-76 l 16,-42 -43,-96 c -24,-52 -46,-96 -49,-96 -9,0 -99,252 -99,278 0,14 8,26 23,32 15,6 -5,9 -72,9 l -93,1 z"
       id="path138" />
    <path
       d="m 21447,9813 c 21,-21 48,-81 103,-226 40,-108 78,-196 84,-194 6,2 37,63 70,135 32,72 62,130 65,127 3,-2 29,-62 56,-134 28,-72 55,-131 61,-131 6,0 46,92 89,205 59,156 84,210 104,225 l 26,19 h -75 c -62,0 -70,-2 -47,-11 15,-5 27,-17 27,-26 0,-21 -93,-272 -101,-272 -9,0 -99,233 -99,257 0,14 10,28 28,37 25,14 21,15 -78,15 -65,0 -97,-3 -85,-9 27,-10 40,-27 60,-76 l 16,-42 -43,-96 c -24,-52 -46,-96 -49,-96 -9,0 -99,252 -99,278 0,14 8,26 23,32 15,6 -5,9 -72,9 l -93,1 z"
       id="path140" />
    <path
       d="m 25487,9813 c 21,-21 48,-81 103,-226 40,-108 78,-196 84,-194 6,2 37,63 70,135 32,72 62,130 65,127 3,-2 29,-62 56,-134 28,-72 55,-131 61,-131 6,0 46,92 89,205 59,156 84,210 104,225 l 26,19 h -75 c -62,0 -70,-2 -47,-11 15,-5 27,-17 27,-26 0,-21 -93,-272 -101,-272 -9,0 -99,233 -99,257 0,14 10,28 28,37 25,14 21,15 -78,15 -65,0 -97,-3 -85,-9 27,-10 40,-27 60,-76 l 16,-42 -43,-96 c -24,-52 -46,-96 -49,-96 -9,0 -99,252 -99,278 0,14 8,26 23,32 15,6 -5,9 -72,9 l -93,1 z"
       id="path142" />
    <path
       d="m 27837,9813 c 21,-21 48,-81 103,-226 40,-108 78,-196 84,-194 6,2 37,63 70,135 32,72 62,130 65,127 3,-2 29,-62 56,-134 28,-72 55,-131 61,-131 6,0 46,92 89,205 59,156 84,210 104,225 l 26,19 h -75 c -62,0 -70,-2 -47,-11 15,-5 27,-17 27,-26 0,-21 -93,-272 -101,-272 -9,0 -99,233 -99,257 0,14 10,28 28,37 25,14 21,15 -78,15 -65,0 -97,-3 -85,-9 27,-10 40,-27 60,-76 l 16,-42 -43,-96 c -24,-52 -46,-96 -49,-96 -9,0 -99,252 -99,278 0,14 8,26 23,32 15,6 -5,9 -72,9 l -93,1 z"
       id="path144" />
    <path
       d="m 22147,9744 c -25,-25 8,-70 43,-59 32,10 24,59 -10,63 -14,2 -29,0 -33,-4 z"
       id="path146" />
    <path
       d="m 28537,9744 c -25,-25 8,-70 43,-59 32,10 24,59 -10,63 -14,2 -29,0 -33,-4 z"
       id="path148" />
    <path
       d="m 32483,9477 c -210,-127 -382,-235 -383,-239 0,-4 38,-19 85,-33 47,-14 123,-37 171,-51 47,-14 84,-29 82,-34 -2,-5 -77,-88 -167,-186 -90,-98 -159,-180 -153,-182 11,-3 764,467 772,482 3,6 -71,29 -163,52 -93,23 -170,44 -172,46 -3,2 69,85 160,184 155,169 176,194 158,194 -5,0 -180,-105 -390,-233 z"
       id="path150" />
    <path
       d="m 2504,9685 c -8,-21 2,-45 19,-45 21,0 38,25 31,44 -8,20 -43,21 -50,1 z"
       id="path152" />
    <path
       d="m 7764,9685 c -8,-21 2,-45 19,-45 21,0 38,25 31,44 -8,20 -43,21 -50,1 z"
       id="path154" />
    <path
       d="m 13824,9685 c -8,-21 2,-45 19,-45 21,0 38,25 31,44 -8,20 -43,21 -50,1 z"
       id="path156" />
    <path
       d="m 19794,9685 c -8,-21 2,-45 19,-45 21,0 38,25 31,44 -8,20 -43,21 -50,1 z"
       id="path158" />
    <path
       d="m 26184,9685 c -8,-21 2,-45 19,-45 21,0 38,25 31,44 -8,20 -43,21 -50,1 z"
       id="path160" />
    <path
       d="m 3160,9620 v -40 h 120 120 v 40 40 h -120 -120 z"
       id="path162" />
    <path
       d="m 8430,9620 v -40 h 120 120 v 40 40 h -120 -120 z"
       id="path164" />
    <path
       d="m 14480,9620 v -40 h 120 120 v 40 40 h -120 -120 z"
       id="path166" />
    <path
       d="m 22090,9612 c 0,-4 14,-13 30,-19 l 30,-11 -1,-154 c -1,-84 -4,-164 -8,-178 -4,-15 -20,-31 -38,-40 -61,-28 -32,-53 35,-29 60,21 67,43 70,252 l 4,187 h -61 c -34,0 -61,-4 -61,-8 z"
       id="path168" />
    <path
       d="m 28480,9612 c 0,-4 14,-13 30,-19 l 30,-11 -1,-154 c -1,-84 -4,-164 -8,-178 -4,-15 -20,-31 -38,-40 -61,-28 -32,-53 35,-29 60,21 67,43 70,252 l 4,187 h -61 c -34,0 -61,-4 -61,-8 z"
       id="path170" />
    <path
       d="m 2475,9570 c 3,-5 13,-10 21,-10 11,0 14,-21 14,-113 v -113 l -27,-11 c -24,-9 -18,-11 45,-12 47,-1 71,3 67,9 -3,6 -15,10 -26,10 -18,0 -19,8 -19,125 v 125 h -41 c -24,0 -38,-4 -34,-10 z"
       id="path172" />
    <path
       d="m 7735,9570 c 3,-5 13,-10 21,-10 11,0 14,-21 14,-113 v -113 l -27,-11 c -24,-9 -18,-11 45,-12 47,-1 71,3 67,9 -3,6 -15,10 -26,10 -18,0 -19,8 -19,125 v 125 h -41 c -24,0 -38,-4 -34,-10 z"
       id="path174" />
    <path
       d="m 13795,9570 c 3,-5 13,-10 21,-10 11,0 14,-21 14,-113 v -113 l -27,-11 c -24,-9 -18,-11 45,-12 47,-1 71,3 67,9 -3,6 -15,10 -26,10 -18,0 -19,8 -19,125 v 125 h -41 c -24,0 -38,-4 -34,-10 z"
       id="path176" />
    <path
       d="m 19765,9570 c 3,-5 13,-10 21,-10 11,0 14,-21 14,-113 v -113 l -27,-11 c -24,-9 -18,-11 45,-12 47,-1 71,3 67,9 -3,6 -15,10 -26,10 -18,0 -19,8 -19,125 v 125 h -41 c -24,0 -38,-4 -34,-10 z"
       id="path178" />
    <path
       d="m 26155,9570 c 3,-5 13,-10 21,-10 11,0 14,-21 14,-113 v -113 l -27,-11 c -24,-9 -18,-11 45,-12 47,-1 71,3 67,9 -3,6 -15,10 -26,10 -18,0 -19,8 -19,125 v 125 h -41 c -24,0 -38,-4 -34,-10 z"
       id="path180" />
    <path
       d="m 1320,9480 c -41,-41 -8,-98 49,-85 30,6 31,5 31,-25 0,-32 -38,-79 -85,-106 -11,-7 -17,-15 -13,-19 12,-12 98,45 119,78 29,48 26,117 -7,151 -32,31 -67,33 -94,6 z"
       id="path182" />
    <path
       d="m 2670,9480 c -41,-41 -8,-98 49,-85 30,6 31,5 31,-25 0,-32 -38,-79 -85,-106 -11,-7 -17,-15 -13,-19 12,-12 98,45 119,78 29,48 26,117 -7,151 -32,31 -67,33 -94,6 z"
       id="path184" />
    <path
       d="m 6580,9480 c -41,-41 -8,-98 49,-85 30,6 31,5 31,-25 0,-32 -38,-79 -85,-106 -11,-7 -17,-15 -13,-19 12,-12 98,45 119,78 29,48 26,117 -7,151 -32,31 -67,33 -94,6 z"
       id="path186" />
    <path
       d="m 7930,9480 c -41,-41 -8,-98 49,-85 30,6 31,5 31,-25 0,-32 -38,-79 -85,-106 -11,-7 -17,-15 -13,-19 12,-12 98,45 119,78 29,48 26,117 -7,151 -32,31 -67,33 -94,6 z"
       id="path188" />
    <path
       d="m 12640,9480 c -41,-41 -8,-98 49,-85 30,6 31,5 31,-25 0,-32 -38,-79 -85,-106 -11,-7 -17,-15 -13,-19 12,-12 98,45 119,78 29,48 26,117 -7,151 -32,31 -67,33 -94,6 z"
       id="path190" />
    <path
       d="m 13990,9480 c -41,-41 -8,-98 49,-85 30,6 31,5 31,-25 0,-32 -38,-79 -85,-106 -11,-7 -17,-15 -13,-19 12,-12 98,45 119,78 29,48 26,117 -7,151 -32,31 -67,33 -94,6 z"
       id="path192" />
    <path
       d="m 13440,7660 v -970 h 35 35 v 970 970 h -35 -35 z"
       id="path194" />
    <path
       d="m 20660,7660 v -970 h 35 35 v 970 970 h -35 -35 z"
       id="path196" />
    <path
       d="m 27050,7660 v -970 h 35 35 v 970 970 h -35 -35 z"
       id="path198" />
    <path
       d="m 13200,6859 c 0,-10 261,-584 269,-592 4,-4 67,124 139,284 73,161 130,294 129,296 -2,2 -53,-52 -113,-119 l -109,-122 -3,37 c -3,35 -5,37 -37,37 -32,0 -34,-2 -37,-40 l -3,-41 -90,101 c -49,55 -102,115 -117,132 -16,18 -28,30 -28,27 z"
       id="path200" />
    <path
       d="m 20443,6810 c 59,-136 251,-560 253,-557 1,1 61,135 134,297 73,162 135,300 137,305 9,16 -27,-22 -136,-143 l -101,-112 v 40 c 0,39 -1,40 -34,40 -33,0 -35,-2 -38,-39 l -3,-39 -75,84 c -41,46 -94,105 -118,132 l -43,47 z"
       id="path202" />
    <path
       d="m 26823,6830 c 33,-80 249,-556 256,-563 5,-4 43,70 86,165 43,95 104,232 137,303 l 58,130 -72,-80 c -40,-44 -94,-102 -120,-130 l -48,-50 v 38 c 0,36 -1,37 -34,37 -33,0 -35,-2 -38,-40 l -3,-39 -85,95 c -47,52 -100,111 -118,132 l -33,37 z"
       id="path204" />
    <path
       d="m 12285,5711 c -95,-25 -191,-114 -221,-204 -10,-29 -17,-82 -17,-122 0,-40 7,-93 17,-122 22,-66 93,-146 159,-179 27,-14 73,-44 100,-66 90,-70 249,-137 330,-138 35,0 15,16 -42,32 -59,18 -133,76 -160,126 -10,19 -7,23 33,41 58,25 125,93 157,156 21,43 24,64 24,155 0,90 -3,111 -23,148 -58,110 -152,173 -262,178 -36,2 -78,0 -95,-5 z m 155,-43 c 81,-41 121,-134 121,-287 1,-153 -39,-243 -126,-282 -79,-37 -159,-19 -214,47 -76,93 -92,315 -31,433 52,102 153,138 250,89 z"
       id="path206" />
    <path
       d="m 19248,5701 c 19,-5 39,-14 45,-20 9,-9 12,-94 12,-296 0,-202 -3,-287 -12,-296 -6,-6 -26,-15 -45,-19 -21,-5 17,-8 107,-8 93,0 129,3 105,8 -54,13 -60,29 -60,166 v 123 l 68,-6 c 86,-7 143,9 186,52 57,57 66,160 18,224 -10,14 -39,37 -63,51 -42,24 -53,25 -219,27 -111,1 -163,-1 -142,-6 z m 265,-32 c 44,-23 66,-53 78,-105 27,-120 -56,-208 -168,-178 -22,6 -23,10 -23,144 0,101 3,140 13,143 23,10 78,7 100,-4 z"
       id="path208" />
    <path
       d="m 25638,5701 c 19,-5 39,-14 45,-20 9,-9 12,-94 12,-296 0,-202 -3,-287 -12,-296 -6,-6 -26,-15 -45,-19 -21,-5 17,-8 107,-8 93,0 129,3 105,8 -54,13 -60,29 -60,166 v 123 l 68,-6 c 86,-7 143,9 186,52 57,57 66,160 18,224 -10,14 -39,37 -63,51 -42,24 -53,25 -219,27 -111,1 -163,-1 -142,-6 z m 265,-32 c 44,-23 66,-53 78,-105 27,-120 -56,-208 -168,-178 -22,6 -23,10 -23,144 0,101 3,140 13,143 23,10 78,7 100,-4 z"
       id="path210" />
    <path
       d="m 21800,5515 v -115 h -115 c -108,0 -115,-1 -115,-20 0,-19 7,-20 115,-20 h 115 v -115 c 0,-108 1,-115 20,-115 19,0 20,7 20,115 v 115 h 120 c 113,0 120,1 120,20 0,19 -7,20 -120,20 h -120 v 115 c 0,108 -1,115 -20,115 -19,0 -20,-7 -20,-115 z"
       id="path212" />
    <path
       d="m 28180,5515 v -115 h -115 c -108,0 -115,-1 -115,-20 0,-19 7,-20 115,-20 h 115 v -115 c 0,-108 1,-115 20,-115 19,0 20,7 20,115 v 115 h 120 c 113,0 120,1 120,20 0,19 -7,20 -120,20 h -120 v 115 c 0,108 -1,115 -20,115 -19,0 -20,-7 -20,-115 z"
       id="path214" />
    <path
       d="m 13247,5473 c 21,-21 48,-81 103,-226 40,-108 78,-196 84,-194 6,2 37,63 70,135 32,72 62,130 65,127 3,-2 29,-62 56,-134 28,-72 55,-131 61,-131 6,0 46,92 89,205 59,156 84,210 104,225 l 26,19 h -75 c -62,0 -70,-2 -47,-11 15,-5 27,-17 27,-26 0,-21 -93,-272 -101,-272 -9,0 -99,233 -99,257 0,14 10,28 28,37 25,14 21,15 -78,15 -65,0 -97,-3 -85,-9 27,-10 40,-27 60,-76 l 16,-42 -43,-96 c -24,-52 -46,-96 -49,-96 -9,0 -99,252 -99,278 0,14 8,26 23,32 15,6 -5,9 -72,9 l -93,1 z"
       id="path216" />
    <path
       d="m 20177,5473 c 21,-21 48,-81 103,-226 40,-108 78,-196 84,-194 6,2 37,63 70,135 32,72 62,130 65,127 3,-2 29,-62 56,-134 28,-72 55,-131 61,-131 6,0 46,92 89,205 59,156 84,210 104,225 l 26,19 h -75 c -62,0 -70,-2 -47,-11 15,-5 27,-17 27,-26 0,-21 -93,-272 -101,-272 -9,0 -99,233 -99,257 0,14 10,28 28,37 25,14 21,15 -78,15 -65,0 -97,-3 -85,-9 27,-10 40,-27 60,-76 l 16,-42 -43,-96 c -24,-52 -46,-96 -49,-96 -9,0 -99,252 -99,278 0,14 8,26 23,32 15,6 -5,9 -72,9 l -93,1 z"
       id="path218" />
    <path
       d="m 26567,5473 c 21,-21 48,-81 103,-226 40,-108 78,-196 84,-194 6,2 37,63 70,135 32,72 62,130 65,127 3,-2 29,-62 56,-134 28,-72 55,-131 61,-131 6,0 46,92 89,205 59,156 84,210 104,225 l 26,19 h -75 c -62,0 -70,-2 -47,-11 15,-5 27,-17 27,-26 0,-21 -93,-272 -101,-272 -9,0 -99,233 -99,257 0,14 10,28 28,37 25,14 21,15 -78,15 -65,0 -97,-3 -85,-9 27,-10 40,-27 60,-76 l 16,-42 -43,-96 c -24,-52 -46,-96 -49,-96 -9,0 -99,252 -99,278 0,14 8,26 23,32 15,6 -5,9 -72,9 l -93,1 z"
       id="path220" />
    <path
       d="m 20887,5404 c -25,-25 8,-70 43,-59 32,10 24,59 -10,63 -14,2 -29,0 -33,-4 z"
       id="path222" />
    <path
       d="m 27267,5404 c -25,-25 8,-70 43,-59 32,10 24,59 -10,63 -14,2 -29,0 -33,-4 z"
       id="path224" />
    <path
       d="m 13944,5345 c -8,-21 2,-45 19,-45 21,0 38,25 31,44 -8,20 -43,21 -50,1 z"
       id="path226" />
    <path
       d="m 14610,5280 v -40 h 120 120 v 40 40 h -120 -120 z"
       id="path228" />
    <path
       d="m 20830,5272 c 0,-4 14,-13 30,-19 l 30,-11 -1,-154 c -1,-84 -4,-164 -8,-178 -4,-15 -20,-31 -38,-40 -61,-28 -32,-53 35,-29 60,21 67,43 70,252 l 4,187 h -61 c -34,0 -61,-4 -61,-8 z"
       id="path230" />
    <path
       d="m 27210,5272 c 0,-4 14,-13 30,-19 l 30,-11 -1,-154 c -1,-84 -4,-164 -8,-178 -4,-15 -20,-31 -38,-40 -61,-28 -32,-53 35,-29 60,21 67,43 70,252 l 4,187 h -61 c -34,0 -61,-4 -61,-8 z"
       id="path232" />
    <path
       d="m 13915,5230 c 3,-5 13,-10 21,-10 11,0 14,-21 14,-113 v -113 l -27,-11 c -24,-9 -18,-11 45,-12 47,-1 71,3 67,9 -3,6 -15,10 -26,10 -18,0 -19,8 -19,125 v 125 h -41 c -24,0 -38,-4 -34,-10 z"
       id="path234" />
    <path
       d="m 12760,5140 c -41,-41 -8,-98 49,-85 30,6 31,5 31,-25 0,-32 -38,-79 -85,-106 -11,-7 -17,-15 -13,-19 12,-12 98,45 119,78 29,48 26,117 -7,151 -32,31 -67,33 -94,6 z"
       id="path236" />
    <path
       d="m 14120,5140 c -41,-41 -8,-98 49,-85 30,6 31,5 31,-25 0,-32 -38,-79 -85,-106 -11,-7 -17,-15 -13,-19 12,-12 98,45 119,78 29,48 26,117 -7,151 -32,31 -67,33 -94,6 z"
       id="path238" />
    <path
       d="m 19690,5140 c -41,-41 -8,-98 49,-85 30,6 31,5 31,-25 0,-32 -38,-79 -85,-106 -11,-7 -17,-15 -13,-19 12,-12 98,45 119,78 29,48 26,117 -7,151 -32,31 -67,33 -94,6 z"
       id="path240" />
    <path
       d="m 21090,5140 c -41,-41 -8,-98 49,-85 30,6 31,5 31,-25 0,-32 -38,-79 -85,-106 -11,-7 -17,-15 -13,-19 12,-12 98,45 119,78 29,48 26,117 -7,151 -32,31 -67,33 -94,6 z"
       id="path242" />
    <path
       d="m 26080,5140 c -41,-41 -8,-98 49,-85 30,6 31,5 31,-25 0,-32 -38,-79 -85,-106 -11,-7 -17,-15 -13,-19 12,-12 98,45 119,78 29,48 26,117 -7,151 -32,31 -67,33 -94,6 z"
       id="path244" />
    <path
       d="m 27480,5140 c -41,-41 -8,-98 49,-85 30,6 31,5 31,-25 0,-32 -38,-79 -85,-106 -11,-7 -17,-15 -13,-19 12,-12 98,45 119,78 29,48 26,117 -7,151 -32,31 -67,33 -94,6 z"
       id="path246" />
    <path
       d="m 20660,3485 v -815 h 35 35 v 815 815 h -35 -35 z"
       id="path248" />
    <path
       d="m 20468,2735 c 138,-310 215,-481 222,-488 6,-7 38,59 222,468 l 58,130 -78,-85 c -42,-47 -96,-105 -119,-130 l -43,-45 v 38 c 0,36 -1,37 -35,37 -34,0 -35,-1 -35,-37 v -38 l -48,50 c -26,28 -80,86 -120,130 l -72,80 z"
       id="path250" />
    <path
       d="m 19475,1681 c -95,-25 -191,-114 -221,-204 -10,-29 -17,-82 -17,-122 0,-40 7,-93 17,-122 22,-66 93,-146 159,-179 27,-14 73,-44 100,-66 90,-70 249,-137 330,-138 35,0 15,16 -42,32 -59,18 -133,76 -160,126 -10,19 -7,23 33,41 58,25 125,93 157,156 21,43 24,64 24,155 0,90 -3,111 -23,148 -58,110 -152,173 -262,178 -36,2 -78,0 -95,-5 z m 155,-43 c 81,-41 121,-134 121,-287 1,-153 -39,-243 -126,-282 -79,-37 -159,-19 -214,47 -76,93 -92,315 -31,433 52,102 153,138 250,89 z"
       id="path252" />
    <path
       d="m 20437,1443 c 21,-21 48,-81 103,-226 40,-108 78,-196 84,-194 6,2 37,63 70,135 32,72 62,130 65,127 3,-2 29,-62 56,-134 28,-72 55,-131 61,-131 6,0 46,92 89,205 59,156 84,210 104,225 l 26,19 h -75 c -62,0 -70,-2 -47,-11 15,-5 27,-17 27,-26 0,-21 -93,-272 -101,-272 -9,0 -99,233 -99,257 0,14 10,28 28,37 25,14 21,15 -78,15 -65,0 -97,-3 -85,-9 27,-10 40,-27 60,-76 l 16,-42 -43,-96 c -24,-52 -46,-96 -49,-96 -9,0 -99,252 -99,278 0,14 8,26 23,32 15,6 -5,9 -72,9 l -93,1 z"
       id="path254" />
    <path
       d="m 21147,1374 c -25,-25 8,-70 43,-59 32,10 24,59 -10,63 -14,2 -29,0 -33,-4 z"
       id="path256" />
    <path
       d="m 21850,1250 v -40 h 120 120 v 40 40 h -120 -120 z"
       id="path258" />
    <path
       d="m 21090,1242 c 0,-4 14,-13 30,-19 l 30,-11 -1,-154 c -1,-84 -4,-164 -8,-178 -4,-15 -20,-31 -38,-40 -61,-28 -32,-53 35,-29 60,21 67,43 70,252 l 4,187 h -61 c -34,0 -61,-4 -61,-8 z"
       id="path260" />
    <path
       d="m 19950,1110 c -41,-41 -8,-98 49,-85 30,6 31,5 31,-25 0,-32 -38,-79 -85,-106 -11,-7 -17,-15 -13,-19 12,-12 98,45 119,78 29,48 26,117 -7,151 -32,31 -67,33 -94,6 z"
       id="path262" />
    <path
       d="m 21350,1110 c -41,-41 -8,-98 49,-85 30,6 31,5 31,-25 0,-32 -38,-79 -85,-106 -11,-7 -17,-15 -13,-19 12,-12 98,45 119,78 29,48 26,117 -7,151 -32,31 -67,33 -94,6 z"
       id="path264" />
  </g>
</svg>
